<?xml version="1.0" encoding="utf-8"?>
<!-- Generator: Adobe Illustrator 24.0.1, SVG Export Plug-In . SVG Version: 6.00 Build 0)  -->
<svg version="1.1" id="Layer_1" xmlns="http://www.w3.org/2000/svg" xmlns:xlink="http://www.w3.org/1999/xlink" x="0px" y="0px"
         viewBox="0 0 50.2 50" style="enable-background:new 0 0 50.2 50;" xml:space="preserve">
<style type="text/css">
        .st0{fill:#FFFFFF;}
</style>
<path class="st0" d="M25.2,0c-13.8,0-25,11.2-25,25c0,13.8,11.2,25,25,25s25-11.2,25-25C50.2,11.2,39,0,25.2,0 M13.7,40.4
        c-2.2,0-3.9-1.8-3.9-3.9c0-2.2,1.8-3.9,3.9-3.9c2.2,0,3.9,1.8,3.9,3.9C17.6,38.6,15.8,40.4,13.7,40.4 M13.7,28.9
        c-2.2,0-3.9-1.8-3.9-3.9c0-2.2,1.8-3.9,3.9-3.9c2.2,0,3.9,1.8,3.9,3.9C17.6,27.2,15.8,28.9,13.7,28.9 M13.7,17.4
        c-2.2,0-3.9-1.8-3.9-3.9c0-2.2,1.8-3.9,3.9-3.9c2.2,0,3.9,1.8,3.9,3.9C17.6,15.7,15.8,17.4,13.7,17.4 M25.2,40.4
        c-2.2,0-3.9-1.8-3.9-3.9c0-2.2,1.8-3.9,3.9-3.9c2.2,0,3.9,1.8,3.9,3.9C29.1,38.6,27.3,40.4,25.2,40.4 M25.2,28.9
        c-2.2,0-3.9-1.8-3.9-3.9c0-2.2,1.8-3.9,3.9-3.9c2.2,0,3.9,1.8,3.9,3.9C29.1,27.2,27.3,28.9,25.2,28.9 M25.2,17.4
        c-2.2,0-3.9-1.8-3.9-3.9c0-2.2,1.8-3.9,3.9-3.9c2.2,0,3.9,1.8,3.9,3.9C29.1,15.7,27.3,17.4,25.2,17.4 M36.6,40.4
        c-2.2,0-3.9-1.8-3.9-3.9c0-2.2,1.8-3.9,3.9-3.9c2.2,0,3.9,1.8,3.9,3.9C40.6,38.6,38.8,40.4,36.6,40.4 M36.6,28.9
        c-2.2,0-3.9-1.8-3.9-3.9c0-2.2,1.8-3.9,3.9-3.9c2.2,0,3.9,1.8,3.9,3.9C40.6,27.2,38.8,28.9,36.6,28.9 M36.6,17.4
        c-2.2,0-3.9-1.8-3.9-3.9c0-2.2,1.8-3.9,3.9-3.9c2.2,0,3.9,1.8,3.9,3.9C40.6,15.7,38.8,17.4,36.6,17.4"/>
</svg>
