<?xml version="1.0" encoding="utf-8"?>
<!-- Generator: Adobe Illustrator 24.0.1, SVG Export Plug-In . SVG Version: 6.00 Build 0)  -->
<svg version="1.1" id="Layer_1" xmlns="http://www.w3.org/2000/svg" xmlns:xlink="http://www.w3.org/1999/xlink" x="0px" y="0px"
         viewBox="0 0 50.2 50" style="enable-background:new 0 0 50.2 50;" xml:space="preserve">
<style type="text/css">
        .st0{fill:#FFFFFF;}
</style>
<path class="st0" d="M50,25c0,13.8-11.2,25-25,25C11.2,50,0,38.8,0,25C0,11.2,11.2,0,25,0C38.8,0,50,11.2,50,25"/>
<path d="M22.2,13.3V12c0-1.2,0.6-1.8,1.8-1.8h1.9c1.2,0,1.8,0.6,1.8,1.8v1.3c0,1.2-0.6,1.8-1.8,1.8h-1.9
        C22.8,15,22.2,14.4,22.2,13.3 M22.2,20.6c0-1.2,0.6-1.8,1.8-1.8h1.9c1.2,0,1.8,0.6,1.8,1.8v18.3c0,1.2-0.6,1.8-1.8,1.8h-1.9
        c-1.2,0-1.8-0.6-1.8-1.8V20.6z"/>
</svg>
