<svg xmlns="http://www.w3.org/2000/svg" xmlns:xlink="http://www.w3.org/1999/xlink" viewBox="0 0 751.31 378.3"><defs><style>.cls-1{fill:#7c7e83;stroke:#333435;stroke-linecap:round;stroke-linejoin:round;}.cls-1,.cls-7{stroke-width:2.45px;}.cls-2{fill:#666869;}.cls-3{fill:#4a4b4d;}.cls-4{fill:url(#radial-gradient);}.cls-5{fill:url(#radial-gradient-2);}.cls-6{fill:#999;}.cls-7{fill:none;stroke:#999;stroke-miterlimit:10;}.cls-8{fill:#fff;}.cls-9{fill:#83888c;}.cls-10{fill:#c4c4c4;}.cls-11{fill:#4f576b;}.cls-12{fill:#ed1c24;}.cls-13{fill:#ce181e;}</style><radialGradient id="radial-gradient" cx="367.06" cy="389.14" r="256.63" gradientTransform="translate(0 -410.53) scale(1 1.1)" gradientUnits="userSpaceOnUse"><stop offset="0" stop-color="#939a94"/><stop offset="1" stop-color="#5d6162"/></radialGradient><radialGradient id="radial-gradient-2" cx="1640.51" cy="1221.59" r="257.92" gradientTransform="matrix(-1, 0, 0, -1.1, 2008.53, 1713.16)" xlink:href="#radial-gradient"/></defs><title>Tug-O-War-Secondary-Question-Box-02</title><g id="Layer_2" data-name="Layer 2"><g id="Layer_1-2" data-name="Layer 1"><rect class="cls-1" x="1.22" y="8.15" width="731.16" height="368.92"/><rect class="cls-2" x="19.37" y="28.18" width="693.14" height="326.95"/><rect class="cls-3" x="29.88" y="45.73" width="670.62" height="300.04" rx="5.75"/><polygon class="cls-4" points="4.18 12.91 729.94 12.17 713.13 25.95 19.99 25.95 4.18 12.91"/><polygon class="cls-5" points="731.28 375.55 1.96 375.28 18.97 357.74 713.8 357.74 731.28 375.55"/><polygon class="cls-3" points="10.23 17.05 19.99 25.95 18.97 357.74 9.56 367.38 10.23 17.05"/><polygon class="cls-6" points="719.85 20.01 722.54 366.64 9.56 367.38 18.97 357.74 713.8 357.74 713.13 25.95 719.85 20.01"/><rect class="cls-7" x="19.64" y="26.7" width="692.81" height="330.3"/><rect class="cls-8" x="32.93" y="41.86" width="668.77" height="300.04" rx="5.7"/><ellipse class="cls-3" cx="40.49" cy="333.98" rx="3.36" ry="3.71"/><ellipse class="cls-3" cx="693.63" cy="333.98" rx="2.69" ry="2.97"/><ellipse class="cls-9" cx="42.6" cy="53.52" rx="6.14" ry="6.78"/><polygon class="cls-10" points="47.05 57.88 37.8 49.57 38.83 48.14 48.06 56.26 47.05 57.88"/><path class="cls-3" d="M37.27,50.23l9.19,8.41A4.33,4.33,0,0,0,47.7,57l-9.46-8.16Z"/><ellipse class="cls-9" cx="42.03" cy="331.87" rx="6.14" ry="6.78"/><polygon class="cls-10" points="46.48 336.23 37.23 327.92 38.26 326.49 47.49 334.61 46.48 336.23"/><path class="cls-3" d="M36.71,328.58,45.89,337a4.33,4.33,0,0,0,1.24-1.67l-9.46-8.16Z"/><ellipse class="cls-9" cx="691.99" cy="52.61" rx="6.14" ry="6.78"/><polygon class="cls-10" points="696.44 56.97 687.19 48.66 688.22 47.23 697.45 55.35 696.44 56.97"/><path class="cls-3" d="M686.66,49.32l9.18,8.41a4.14,4.14,0,0,0,1.24-1.67l-9.45-8.16Z"/><ellipse class="cls-9" cx="691.47" cy="331.3" rx="6.14" ry="6.78"/><polygon class="cls-10" points="695.92 335.66 686.67 327.35 687.7 325.92 696.93 334.04 695.92 335.66"/><path class="cls-3" d="M686.15,328l9.18,8.41a4.33,4.33,0,0,0,1.24-1.67l-9.46-8.16Z"/><path class="cls-11" d="M716.36,8.17l1-4.52a43.56,43.56,0,0,0-19.16-.74c.16,1.11.44,3.13.6,4.25C705,6.79,712.51,6.59,716.36,8.17Z"/><path class="cls-12" d="M716.34,8.25c.3.08.59.19.89.28q-.43-.19-.87-.36Z"/><path class="cls-12" d="M734.3,14a37.47,37.47,0,0,0-7.83-6.43,35.93,35.93,0,0,0-9.08-3.91l-1,4.52q.43.16.87.36a31.71,31.71,0,0,1,14.08,8.86Z"/><path class="cls-11" d="M743.57,31.27A37.68,37.68,0,0,0,734.3,14l-3,3.4a32.86,32.86,0,0,1,8.21,15.53C740.73,32,742,30.07,743.57,31.27Z"/><path class="cls-12" d="M743.57,31.27c-1.61-1.2-2.84.75-4.05,1.65a29,29,0,0,1,.41,9.61,38.2,38.2,0,0,1-2.6,9.44l3.92,1.94a43.56,43.56,0,0,0,3-11A34.45,34.45,0,0,0,743.57,31.27Z"/><path class="cls-12" d="M731.15,72.07c-.92-1-2.56-1.25-4.1-1.81-3.25,5.08-6.57,10.19-9.55,15.63l3.67,2.46C724.21,82.8,727.7,77.49,731.15,72.07Z"/><path class="cls-11" d="M721.17,88.35l-3.67-2.46A80.23,80.23,0,0,0,709.71,105l4.14,1.26A75.26,75.26,0,0,1,721.17,88.35Z"/><path class="cls-12" d="M712.57,123.45a47.1,47.1,0,0,1,1.28-17.21L709.71,105a51.16,51.16,0,0,0-1.21,20.39A10.39,10.39,0,0,1,712.57,123.45Z"/><path class="cls-11" d="M712.57,123.45a10.39,10.39,0,0,0-4.07,1.92,41.54,41.54,0,0,0,5.06,14.11L717.2,137a43.69,43.69,0,0,1-3-6.53A34.85,34.85,0,0,1,712.57,123.45Z"/><path class="cls-12" d="M717.2,137l-3.64,2.51c3.43,6,7.63,11.07,11.17,16.41l3.46-2.8C724.46,147.49,720.34,142.48,717.2,137Z"/><path class="cls-11" d="M728.19,153.09l-3.46,2.8a54.28,54.28,0,0,1,4.61,8.27,31.41,31.41,0,0,1,2.42,9l4.26-.6a36.57,36.57,0,0,0-2.8-10.43A57.13,57.13,0,0,0,728.19,153.09Z"/><path class="cls-12" d="M736,172.56l-4.26.6c.72,6.25-.46,12.71-2.4,18.92l4.07,1.53C735.47,187.05,736.85,179.85,736,172.56Z"/><path class="cls-11" d="M733.43,193.61l-4.07-1.53c-1.93,6.24-4.56,12.33-7.07,18.56l3.92,1.93C728.69,206.4,731.38,200.22,733.43,193.61Z"/><path class="cls-12" d="M726.21,212.57l-3.92-1.93a111.27,111.27,0,0,0-6.35,19.58l4.2,1A106.17,106.17,0,0,1,726.21,212.57Z"/><path class="cls-11" d="M720.14,231.24l-4.2-1a50.31,50.31,0,0,0-1,10.66,40.65,40.65,0,0,0,1.63,10.66l4.09-1.44A38.78,38.78,0,0,1,720.14,231.24Z"/><path class="cls-12" d="M720.66,250.1l-4.09,1.44c2,6.89,5.54,12.89,9.31,18.38l3.42-2.87C725.66,261.76,722.41,256.18,720.66,250.1Z"/><path class="cls-11" d="M729.3,267.05l-3.42,2.87c5,7.36,10.7,13.86,14.86,21.32l3.64-2.51A107.88,107.88,0,0,0,737,277.54C734.36,274,731.73,270.59,729.3,267.05Z"/><path class="cls-12" d="M751.25,309.61a39.36,39.36,0,0,0-1.23-7.47,56.49,56.49,0,0,0-5.64-13.41l-3.64,2.51a51.51,51.51,0,0,1,5.15,12.22,33.26,33.26,0,0,1,1.07,6.46,28.48,28.48,0,0,1-.25,5.77,6.17,6.17,0,0,0,4-.6c.15-.08.27-.18.42-.27A33.61,33.61,0,0,0,751.25,309.61Z"/><path class="cls-11" d="M737.33,52c-2.62,6.37-6.49,12.3-10.28,18.29,1.54.56,3.18.79,4.1,1.81,3.6-5.72,7.36-11.5,10.1-18.16Z"/><path class="cls-12" d="M684.7,7.09c4.64,0,9.48.2,14.13-.07-.16-1.12-.44-3-.6-4.11A57.3,57.3,0,0,0,684.7,7.09Z"/><path class="cls-13" d="M698.23,2.91A57.3,57.3,0,0,0,684.7,7.09c2.72,0,5.47-.19,8.22-.4a52.71,52.71,0,0,1,5.66-1.31C698.47,4.55,698.35,3.72,698.23,2.91Z"/><path d="M698.23,2.91c.12.81.24,1.64.35,2.47a41.4,41.4,0,0,1,18.26.7c.18-.82.37-1.63.55-2.43A43.56,43.56,0,0,0,698.23,2.91Z"/><path class="cls-13" d="M726.47,7.56a35.93,35.93,0,0,0-9.08-3.91c-.18.8-.37,1.61-.55,2.43a33.65,33.65,0,0,1,15.88,9.7L734.3,14A37.47,37.47,0,0,0,726.47,7.56Z"/><path d="M743.57,31.27A37.68,37.68,0,0,0,734.3,14l-1.58,1.79a35.3,35.3,0,0,1,8.54,15.61A1.72,1.72,0,0,1,743.57,31.27Z"/><path class="cls-13" d="M743.57,31.27a1.72,1.72,0,0,0-2.31.12A31.68,31.68,0,0,1,742,42.33a39.92,39.92,0,0,1-2.82,10.56l2.07,1a43.56,43.56,0,0,0,3-11A34.45,34.45,0,0,0,743.57,31.27Z"/><path class="cls-13" d="M731.15,72.07a4.51,4.51,0,0,0-2-1.15c-3.39,5.3-6.83,10.57-9.88,16.13l1.93,1.3C724.21,82.8,727.7,77.49,731.15,72.07Z"/><path d="M721.17,88.35l-1.93-1.3a77.7,77.7,0,0,0-7.57,18.53l2.18.66A75.26,75.26,0,0,1,721.17,88.35Z"/><path class="cls-13" d="M712.57,123.45a47.1,47.1,0,0,1,1.28-17.21l-2.18-.66a49.55,49.55,0,0,0-1.3,18.63A6,6,0,0,1,712.57,123.45Z"/><path d="M712.57,123.45a6,6,0,0,0-2.2.76,38.09,38.09,0,0,0,1.79,7.33,45.12,45.12,0,0,0,3.13,6.76L717.2,137a43.69,43.69,0,0,1-3-6.53A34.85,34.85,0,0,1,712.57,123.45Z"/><path class="cls-13" d="M736,172.56l-2.25.32c.78,6.74-.5,13.55-2.48,19.93l2.14.8C735.47,187.05,736.85,179.85,736,172.56Z"/><path d="M733.43,193.61l-2.14-.8c-2,6.41-4.65,12.54-7.15,18.74l2.07,1C728.69,206.4,731.38,200.22,733.43,193.61Z"/><path class="cls-13" d="M726.21,212.57l-2.07-1a108.71,108.71,0,0,0-6.21,19.15l2.21.54A106.17,106.17,0,0,1,726.21,212.57Z"/><path class="cls-13" d="M720.66,250.1l-2.16.76c1.89,6.51,5.29,12.31,9,17.7l1.81-1.51C725.66,261.76,722.41,256.18,720.66,250.1Z"/><path d="M729.3,267.05l-1.81,1.51c5,7.22,10.66,13.79,15,21.49l1.92-1.32A107.88,107.88,0,0,0,737,277.54C734.36,274,731.73,270.59,729.3,267.05Z"/><path class="cls-13" d="M751.25,309.61a39.36,39.36,0,0,0-1.23-7.47,56.49,56.49,0,0,0-5.64-13.41l-1.92,1.32a53.83,53.83,0,0,1,5.38,12.79,35.2,35.2,0,0,1,1.15,6.93,31.24,31.24,0,0,1-.23,6,6,6,0,0,0,2-.64c.15-.08.27-.18.42-.27A33.61,33.61,0,0,0,751.25,309.61Z"/><path d="M720.14,231.24l-2.21-.54a47.08,47.08,0,0,0-1,10.13,38.55,38.55,0,0,0,1.53,10l2.16-.76A38.78,38.78,0,0,1,720.14,231.24Z"/><path d="M728.19,153.09l-1.83,1.48a54.63,54.63,0,0,1,4.82,8.63,34.06,34.06,0,0,1,2.59,9.68l2.25-.32a36.57,36.57,0,0,0-2.8-10.43A57.13,57.13,0,0,0,728.19,153.09Z"/><path class="cls-13" d="M717.2,137l-1.91,1.33c3.28,5.76,7.45,10.8,11.07,16.27l1.83-1.48C724.46,147.49,720.34,142.48,717.2,137Z"/><path d="M739.18,52.89c-2.65,6.44-6.41,12.23-10.06,18a4.51,4.51,0,0,1,2,1.15c3.6-5.72,7.36-11.5,10.1-18.16Z"/><path class="cls-11" d="M93.15.85c.21,1.54.45,3.19.66,4.69a49.71,49.71,0,0,1,19.63.93c.29-1.48.6-3.11.9-4.64A54,54,0,0,0,93.15.85Z"/><path class="cls-12" d="M114.34,1.83c-.3,1.53-.61,3.16-.9,4.64a105.4,105.4,0,0,1,19.1,7l1.64-4.38A109,109,0,0,0,114.34,1.83Z"/><path class="cls-11" d="M151.87,17.22c-5.9-2.52-11.73-5.42-17.69-8.13l-1.64,4.38c6.05,2.75,12.07,5.76,18.3,8.4C150.69,20.18,150,18,151.87,17.22Z"/><path class="cls-12" d="M151.87,17.22c-1.87.73-1.18,3-1,4.65a103.53,103.53,0,0,0,20.88,6.51c.24-1.49.51-3.13.76-4.67A99.36,99.36,0,0,1,151.87,17.22Z"/><path class="cls-12" d="M193,25.47c-.22,1.42.66,3,1.26,4.69a101.4,101.4,0,0,0,19.07-2.53c-.29-1.53-.56-3-.87-4.65A99.43,99.43,0,0,1,193,25.47Z"/><path class="cls-11" d="M212.5,23c.31,1.65.58,3.12.87,4.65a192.23,192.23,0,0,0,20-6c-.43-1.49-.83-2.92-1.29-4.52A187,187,0,0,1,212.5,23Z"/><path class="cls-12" d="M249.7,10.79c-5.89,2.12-11.73,4.32-17.58,6.36.46,1.6.86,3,1.29,4.52,6.31-2.19,12.54-4.56,18.78-6.78C251.32,13.64,250.12,12.38,249.7,10.79Z"/><path class="cls-11" d="M249.7,10.79c.42,1.59,1.62,2.85,2.49,4.1,4.57-1.65,9.16-3.2,13.78-4.55l-1.11-4.58C259.74,7.26,254.7,9,249.7,10.79Z"/><path class="cls-12" d="M264.86,5.76,266,10.34A136.27,136.27,0,0,1,285.82,6c-.17-1.54-.34-3-.53-4.7A139.12,139.12,0,0,0,264.86,5.76Z"/><path class="cls-11" d="M285.29,1.31c.19,1.67.36,3.16.53,4.7A134,134,0,0,1,306,4.75c0-1.51,0-3.18.06-4.74A137.73,137.73,0,0,0,285.29,1.31Z"/><path class="cls-12" d="M306.08,0c0,1.56,0,3.23-.06,4.74a133.8,133.8,0,0,1,20.17,1.8c.21-1.5.43-3.14.64-4.69A139,139,0,0,0,306.08,0Z"/><path class="cls-11" d="M347.16,6.85a138,138,0,0,0-20.33-5c-.21,1.55-.43,3.19-.64,4.69.11,0,1.09.31,1.2.32,6.85,0,13.94,0,19.69.29Z"/><path class="cls-11" d="M171.72,28.38a98.42,98.42,0,0,0,22.58,1.78c-.6-1.69-1.48-3.27-1.26-4.69a96.62,96.62,0,0,1-20.56-1.76C172.23,25.25,172,26.89,171.72,28.38Z"/><path class="cls-12" d="M93.15.85A36.31,36.31,0,0,0,78.59,6.64c3.13.07,6.25.27,9.38.4a32.51,32.51,0,0,1,5.84-1.5C93.6,4,93.36,2.39,93.15.85Z"/><path class="cls-13" d="M93.15.85A36.31,36.31,0,0,0,78.59,6.64c1.49,0,3,.09,4.47.16A34.63,34.63,0,0,1,93.5,3.32C93.38,2.49,93.26,1.66,93.15.85Z"/><path d="M93.15.85c.11.81.23,1.64.35,2.47a51.59,51.59,0,0,1,20.36,1c.16-.83.32-1.65.48-2.45A54,54,0,0,0,93.15.85Z"/><path class="cls-13" d="M114.34,1.83c-.16.8-.32,1.62-.48,2.45a105.43,105.43,0,0,1,19.46,7.12l.86-2.31A109,109,0,0,0,114.34,1.83Z"/><path d="M151.87,17.22c-5.9-2.52-11.73-5.42-17.69-8.13l-.86,2.31c5.76,2.62,11.45,5.45,17.26,8A2,2,0,0,1,151.87,17.22Z"/><path class="cls-13" d="M151.87,17.22a2,2,0,0,0-1.29,2.13,101.79,101.79,0,0,0,21.5,6.82c.13-.83.27-1.65.4-2.46A99.36,99.36,0,0,1,151.87,17.22Z"/><path class="cls-13" d="M193,25.47a5.08,5.08,0,0,0,.4,2.48A99.88,99.88,0,0,0,213,25.43L212.5,23A99.43,99.43,0,0,1,193,25.47Z"/><path d="M212.5,23l.46,2.45a187.9,187.9,0,0,0,19.84-5.9c-.22-.76-.45-1.55-.68-2.38A187,187,0,0,1,212.5,23Z"/><path class="cls-13" d="M249.7,10.79c-5.89,2.12-11.73,4.32-17.58,6.36.23.83.46,1.62.68,2.38,6-2.09,12-4.36,18-6.51A7,7,0,0,1,249.7,10.79Z"/><path d="M249.7,10.79A7,7,0,0,0,250.81,13c4.84-1.74,9.71-3.4,14.64-4.85l-.59-2.41C259.74,7.26,254.7,9,249.7,10.79Z"/><path class="cls-13" d="M306.08,0c0,.82,0,1.66,0,2.5A136.32,136.32,0,0,1,326.5,4.33c.11-.83.22-1.66.33-2.47A139,139,0,0,0,306.08,0Z"/><path d="M347.16,6.85a138,138,0,0,0-20.33-5c-.11.81-.22,1.64-.33,2.47C330.34,5,334.16,5.8,338,6.77q4.57.12,9.13.39Z"/><path d="M285.29,1.31c.1.87.19,1.68.28,2.48a135,135,0,0,1,20.48-1.28c0-.84,0-1.68,0-2.5A137.73,137.73,0,0,0,285.29,1.31Z"/><path class="cls-13" d="M264.86,5.76l.59,2.41a136.75,136.75,0,0,1,20.12-4.38c-.09-.8-.18-1.61-.28-2.48A139.12,139.12,0,0,0,264.86,5.76Z"/><path d="M172.08,26.17A97,97,0,0,0,193.44,28a5.08,5.08,0,0,1-.4-2.48,96.62,96.62,0,0,1-20.56-1.76C172.35,24.52,172.21,25.34,172.08,26.17Z"/></g></g></svg>