<svg xmlns="http://www.w3.org/2000/svg" xmlns:xlink="http://www.w3.org/1999/xlink" viewBox="0 0 1920 1080"><defs><style>.cls-1{fill:none;}.cls-2{isolation:isolate;}.cls-3{clip-path:url(#clip-path);}.cls-4{fill:url(#radial-gradient);}.cls-35,.cls-5,.cls-6,.cls-7,.cls-8{fill:#1a1226;}.cls-5{opacity:0.75;}.cls-11,.cls-21,.cls-7{opacity:0.5;}.cls-8,.cls-9{opacity:0.35;}.cls-39,.cls-9{fill:#111017;}.cls-10{fill:url(#linear-gradient);}.cls-11{fill:url(#linear-gradient-2);}.cls-12,.cls-13,.cls-22,.cls-28,.cls-29{opacity:0.7;}.cls-12{fill:url(#linear-gradient-3);}.cls-13{fill:url(#linear-gradient-4);}.cls-14{fill:url(#radial-gradient-2);}.cls-15{fill:url(#linear-gradient-5);}.cls-16{fill:url(#linear-gradient-6);}.cls-17{fill:url(#linear-gradient-7);}.cls-18{fill:url(#linear-gradient-8);}.cls-19{fill:url(#linear-gradient-9);}.cls-20{fill:#b8daf2;}.cls-21{fill:url(#linear-gradient-10);}.cls-22{fill:url(#linear-gradient-11);}.cls-23{fill:url(#linear-gradient-12);}.cls-24{fill:url(#linear-gradient-13);}.cls-25{fill:url(#linear-gradient-14);}.cls-26{fill:url(#linear-gradient-15);}.cls-27{fill:url(#linear-gradient-16);}.cls-28{fill:url(#linear-gradient-17);}.cls-29{fill:url(#linear-gradient-18);}.cls-30{fill:url(#radial-gradient-3);}.cls-31{fill:url(#radial-gradient-4);}.cls-32{fill:url(#linear-gradient-19);}.cls-33{fill:url(#linear-gradient-20);}.cls-34{fill:url(#linear-gradient-21);}.cls-35{opacity:0.6;}.cls-36{fill:url(#radial-gradient-5);}.cls-37{fill:url(#linear-gradient-22);}.cls-38{fill:url(#linear-gradient-23);}.cls-40{fill:url(#radial-gradient-6);}.cls-41{fill:url(#radial-gradient-7);}.cls-42{fill:url(#linear-gradient-24);}.cls-43{fill:url(#radial-gradient-8);}.cls-44{fill:url(#linear-gradient-25);}.cls-45{fill:url(#radial-gradient-9);}.cls-46{fill:url(#linear-gradient-26);}.cls-47{opacity:0.3;mix-blend-mode:darken;}.cls-48{fill:#1b1464;}</style><clipPath id="clip-path"><rect class="cls-1" width="1921" height="1080"/></clipPath><radialGradient id="radial-gradient" cx="1051.08" cy="989.13" r="925.41" gradientTransform="translate(-342.86) scale(1.23 1)" gradientUnits="userSpaceOnUse"><stop offset="0" stop-color="#713228"/><stop offset="1" stop-color="#322a42"/></radialGradient><linearGradient id="linear-gradient" x1="951.93" y1="191.28" x2="951.93" y2="312.76" gradientUnits="userSpaceOnUse"><stop offset="0" stop-color="#b8daf2" stop-opacity="0.5"/><stop offset="1" stop-color="#b5d4eb" stop-opacity="0"/></linearGradient><linearGradient id="linear-gradient-2" x1="1237.95" y1="939.22" x2="1584.11" y2="1500.66" gradientTransform="translate(452.99 -1319.57) rotate(33.53)" xlink:href="#linear-gradient"/><linearGradient id="linear-gradient-3" x1="1097.46" y1="1157.94" x2="1447.04" y2="1724.95" gradientTransform="translate(354.51 -1310.72) rotate(18.96)" xlink:href="#linear-gradient"/><linearGradient id="linear-gradient-4" x1="1435.1" y1="1883.68" x2="1798.63" y2="2473.3" gradientTransform="translate(1219.64 -2206.84) rotate(44.1)" xlink:href="#linear-gradient"/><radialGradient id="radial-gradient-2" cx="1025.39" cy="230.16" r="577" gradientTransform="translate(-194.27) scale(1.15 1)" gradientUnits="userSpaceOnUse"><stop offset="0" stop-color="#7f4032"/><stop offset="1" stop-color="#322a42"/></radialGradient><linearGradient id="linear-gradient-5" x1="154.58" y1="366.44" x2="213.68" y2="425.54" gradientTransform="translate(28.4 -10.26) rotate(5.02)" gradientUnits="userSpaceOnUse"><stop offset="0" stop-color="#b8daf2"/><stop offset="1" stop-color="#4a363d"/></linearGradient><linearGradient id="linear-gradient-6" x1="118.83" y1="420.97" x2="169.3" y2="420.97" gradientTransform="translate(28.4 -10.26) rotate(5.02)" gradientUnits="userSpaceOnUse"><stop offset="0" stop-color="#4a363d"/><stop offset="0.35" stop-color="#4c373d"/><stop offset="1" stop-color="#7f4032"/></linearGradient><linearGradient id="linear-gradient-7" x1="124.05" y1="458.67" x2="174.38" y2="458.67" xlink:href="#linear-gradient-6"/><linearGradient id="linear-gradient-8" x1="189.5" y1="364.14" x2="220.27" y2="364.14" gradientTransform="translate(28.4 -10.26) rotate(5.02)" gradientUnits="userSpaceOnUse"><stop offset="0" stop-color="#7f4032"/><stop offset="0.68" stop-color="#4a363d"/></linearGradient><linearGradient id="linear-gradient-9" x1="227.38" y1="361.38" x2="286.25" y2="361.38" xlink:href="#linear-gradient-8"/><linearGradient id="linear-gradient-10" x1="169.19" y1="384.37" x2="515.34" y2="945.81" gradientTransform="translate(28.4 -10.26) rotate(5.02)" xlink:href="#linear-gradient"/><linearGradient id="linear-gradient-11" x1="202.65" y1="352.07" x2="552.23" y2="919.08" gradientTransform="translate(-53.92 44.53) rotate(-9.55)" xlink:href="#linear-gradient"/><linearGradient id="linear-gradient-12" x1="-1356.14" y1="617.32" x2="-1292.88" y2="680.58" gradientTransform="matrix(-0.97, 0.26, 0.26, 0.97, 172.05, 22.53)" xlink:href="#linear-gradient-5"/><linearGradient id="linear-gradient-13" x1="-1394.41" y1="675.69" x2="-1340.38" y2="675.69" gradientTransform="matrix(-0.97, 0.26, 0.26, 0.97, 172.05, 22.53)" xlink:href="#linear-gradient-6"/><linearGradient id="linear-gradient-14" x1="-1388.82" y1="716.05" x2="-1334.94" y2="716.05" gradientTransform="matrix(-0.97, 0.26, 0.26, 0.97, 172.05, 22.53)" xlink:href="#linear-gradient-6"/><linearGradient id="linear-gradient-15" x1="-1318.76" y1="614.85" x2="-1285.82" y2="614.85" gradientTransform="matrix(-0.97, 0.26, 0.26, 0.97, 172.05, 22.53)" xlink:href="#linear-gradient-8"/><linearGradient id="linear-gradient-16" x1="-1278.21" y1="611.9" x2="-1215.19" y2="611.9" gradientTransform="matrix(-0.97, 0.26, 0.26, 0.97, 172.05, 22.53)" xlink:href="#linear-gradient-8"/><linearGradient id="linear-gradient-17" x1="-1340.5" y1="636.51" x2="-969.96" y2="1237.52" gradientTransform="matrix(-0.97, 0.26, 0.26, 0.97, 172.05, 22.53)" xlink:href="#linear-gradient"/><linearGradient id="linear-gradient-18" x1="-1318.73" y1="214.75" x2="-944.51" y2="821.71" gradientTransform="matrix(-1, 0.01, 0.01, 1, 262.56, 62.33)" xlink:href="#linear-gradient"/><radialGradient id="radial-gradient-3" cx="813.94" cy="939.41" r="158.47" gradientTransform="matrix(1, 0, 0, 1, 0, 0)" xlink:href="#radial-gradient-2"/><radialGradient id="radial-gradient-4" cx="1104.33" cy="991.93" r="112.82" gradientTransform="matrix(1, 0, 0, 1, 0, 0)" xlink:href="#radial-gradient-2"/><linearGradient id="linear-gradient-19" x1="677.67" y1="978.7" x2="801.03" y2="978.7" gradientUnits="userSpaceOnUse"><stop offset="0" stop-color="#b5d4eb" stop-opacity="0"/><stop offset="1" stop-color="#9cd1f1"/></linearGradient><linearGradient id="linear-gradient-20" x1="1034.47" y1="1103.27" x2="1114.65" y2="1103.27" gradientTransform="translate(26.65 -128.53) rotate(2.61)" xlink:href="#linear-gradient-19"/><linearGradient id="linear-gradient-21" x1="1292.99" y1="1039.5" x2="1352.1" y2="1042.96" xlink:href="#linear-gradient-19"/><radialGradient id="radial-gradient-5" cx="262.2" cy="975.39" r="83.32" gradientTransform="matrix(1, 0, 0, 1, 0, 0)" xlink:href="#radial-gradient-2"/><linearGradient id="linear-gradient-22" x1="397.69" y1="1032.1" x2="462.6" y2="1032.1" xlink:href="#linear-gradient-19"/><linearGradient id="linear-gradient-23" x1="175.37" y1="999.22" x2="267.58" y2="999.22" xlink:href="#linear-gradient-19"/><radialGradient id="radial-gradient-6" cx="1290.46" cy="123.35" r="62.18" gradientTransform="translate(0 -54.52) scale(1 1.37)" xlink:href="#radial-gradient-2"/><radialGradient id="radial-gradient-7" cx="555.44" cy="111.58" r="101.44" gradientTransform="matrix(1, -0.04, 0.03, 1.28, -0.23, 59.61)" xlink:href="#radial-gradient-2"/><linearGradient id="linear-gradient-24" x1="552.96" y1="363.82" x2="552.96" y2="169.18" gradientUnits="userSpaceOnUse"><stop offset="0" stop-color="#9cd1f1"/><stop offset="1" stop-color="#b5d4eb" stop-opacity="0"/></linearGradient><radialGradient id="radial-gradient-8" cx="1328.33" cy="160.86" r="87.5" gradientTransform="translate(0 -54.52) scale(1 1.37)" xlink:href="#radial-gradient-2"/><linearGradient id="linear-gradient-25" x1="1324.99" y1="341.39" x2="1324.99" y2="162.96" xlink:href="#linear-gradient-24"/><radialGradient id="radial-gradient-9" cx="5064.95" cy="385.94" r="62.18" gradientTransform="matrix(-0.99, -0.17, -0.13, 1.27, 5567.72, 468.25)" xlink:href="#radial-gradient-2"/><linearGradient id="linear-gradient-26" x1="492.61" y1="240.11" x2="492.61" y2="104.95" xlink:href="#linear-gradient-24"/></defs><title>Level07-Escape-game-background</title><g class="cls-2"><g id="background"><g class="cls-3"><rect class="cls-4" x="2.78" y="89.43" width="1913.7" height="991.72"/><path class="cls-5" d="M42.76,791.57c26.35-90,104.34-170.28,190.16-236.2a898.08,898.08,0,0,1,172.26-104c45.79-21,94.23-42.78,146.43-54.37-40.9,12.85-81,27.71-117.13,46.79-50.59,26.72-108.43,60.81-142.65,99.39,35.22-18.11,66.74-38.55,104.14-54.85A693.61,693.61,0,0,1,469,460.85c13.54-4.16,30.4-11.6,45.44-11.68-6.49,5.47-17.61,8.19-26.28,11.66-18.4,7.36-35.38,16.07-52.35,25.06-56.73,30-108.84,66.11-152.54,106-63,57.57-114.51,126.62-139.62,198.37,15.24-18.2,24.3-38.4,40.47-56.54,34-38.13,74.49-72.63,119-104.53a927.77,927.77,0,0,1,136.47-81.68c20.26-9.81,44.41-24,68.72-26.93-30.67,20.44-65.48,37-95.68,58.21-53.79,37.72-102,82.17-137.78,130-39.66,53.11-70,106.23-88.46,164.9,19.53-42,44.78-93.44,94-122.66-5.23,16.2-20.71,32.43-28.74,48.18-9.78,19.19-17.14,38.79-25.57,58.28,8.29-7.66,11.34-19.45,17.65-28.35,17-24.05,37.68-46.73,59.93-68.38,32-31.15,72.65-71.63,121-90.53-15.45,18.32-36.39,33.86-52.6,51.88a542.26,542.26,0,0,0-57.4,75.37c-25.2,40.31-47.47,86.51-51.82,131.11,11.19-8.06,14.53-24.6,20.79-35a607,607,0,0,1,62.83-85.9c31.68-36.39,70.16-81,117.74-107.74-42.68,47.69-82.75,95.87-109.61,149.63C332.35,894.1,321.17,939,315.1,985.85c-3.14,24.25-6.15,49.28-5.94,73.62,0,4.89,6.06,15.4,4.16,20-3.84,9.22-34.39,8.72-46.69,9.4-43.13,2.36-86.67,3.71-129.9,3.83-19.62.06-39.62.2-59.23.84-9.7.31-26.76,3.59-35.95.8-8.26-2.5-8.84-7-10.75-13.37-7.54-25-5.5-52.2-7-77.56-3.09-53.93,3.89-108.6,7.32-162.53C32.44,820.7,39,803.1,42.76,791.57Z"/><path class="cls-6" d="M64,660.42c12.7-37.75,51.37-70.57,85.47-99.46,55.58-47.09,120.34-90.18,190-126,62.25-32,129.36-57,198.94-79.39,44.21-14.21,90-24.09,134.53-37.35-12.69-1-26.47,2.49-38.77,4.59-27.45,4.69-55.06,10-82.16,15.66-44.4,9.27-86.7,24.46-131.64,32C555,311,710.7,277.69,866.93,265c-46.36.8-92.84.3-139.1,2.95A1402.58,1402.58,0,0,0,488.34,302.8C410,321.13,331.65,342.44,259.05,370.91c-29.68,11.64-58.63,25.14-86.6,38.85-19.06,9.35-37.47,21.62-57.57,29.57,9.14-9.16,25.59-17.41,37.84-25.31,36.63-23.6,76.2-43.77,117.22-63.12,57.86-27.3,119.49-47.72,180.27-70.36-109.1,21.58-220.54,47.32-317,91.18-16.81,7.65-56.4,18.52-66,32.09-3.42,4.84-2.12,14.7-2.91,20.13-1.92,13.22-3.11,26.43-4.34,39.7C55.18,515.85,44.12,567,37.8,619c-2.53,20.77-6.35,44.44-.14,64.55C46.13,678.92,54.83,669.31,64,660.42Z"/><path class="cls-7" d="M337.14,1086.65C337.08,981.79,406.37,887.28,486,803.08,468,824,452.33,845.22,439.26,868c-17.08,29.8-46.42,83.61-40.92,92.24,3.64-25.17,71.86-101.89,87-115.69,6.8-6.17,14.32-15.08,24.32-18.48C444.41,898.61,396.84,984.27,396.82,1072c0,6.16,1.37,8.63-4.23,12C380.35,1091.24,354.15,1082.73,337.14,1086.65Z"/><path class="cls-7" d="M345.1,937.18c37.13-94.5,140-200.13,166.33-228.93,28.79-31.51,64.05-56.77,99.46-84C641,601.05,676.26,575.57,715,560.05c-25.8,19.45-55.18,36.6-78.45,57.88,48.14-24,88.87-60.08,144.93-75.23-67.72,35.5-130.31,80.18-189.17,123.12-26.2,19.11-66.85,37.75-83.35,61.48,9-.84,16.34-7.4,25.42-7.28-1.53,2.53-28.71,26.46-36.75,33.94C440.57,807,377.23,871.91,345.1,937.18Z"/><path class="cls-7" d="M373,739.49C418.28,690.82,463.71,646.7,524,607.31c33.35-21.78,73.77-39.53,105-62.76-24.63,6.08-49.57,20.28-70.31,31.11-27.88,14.57-56.69,29.4-82,46.2,34.88-28.17,76.05-54.45,117.59-77.18,25.37-13.87,50.76-27.58,77-40.61,16.18-8.05,35.46-15.92,49.33-26-32.66,3-68.32,22.24-97,32.86-44.1,16.33-87.86,36.66-124.15,61.25-35.93,24.35-78.36,56.69-93.5,91.82,11.46-9.21,27.21-19.13,42.59-24.44-27.21,17.86-46.3,47.12-62.29,71-5.34,8-9.37,14.7-12.26,23.19C373.22,735.91,372.34,743.5,373,739.49Z"/><path class="cls-8" d="M483,1092.44c0-16.48.48-32.48,3.46-48.88,4.11-22.68,6.47-54.9,22.95-74.93-2.58,16.16-2.2,33.43-.95,49.67,9.39-26.14,11.22-51.81,24.69-77.77,10.92-21,21.42-47.63,41.25-65.23-11.87,32.58-25.75,64.43-34.49,97.81-7,26.77-5.12,54.5-11.63,81,10.83-33,27.52-61.89,50.14-91.86-16,39.66-22,81.47-28,122.36C531.71,1084.36,504.84,1084,483,1092.44Z"/><path class="cls-8" d="M468.42,940.08c17.54-42.87,40.75-82.51,75.86-119.52,16.27-17.16,33.56-33.68,53.41-48.74,6.19-4.69,15.44-13.65,23.39-15.32-40.88,38.74-79,80.45-111,123.39C497.8,896.4,471.37,919.89,468.42,940.08Z"/><path class="cls-5" d="M1851.71,791.57c-26.35-90-104.34-170.28-190.16-236.2a897.77,897.77,0,0,0-172.26-104c-45.79-21-94.22-42.78-146.43-54.37,40.9,12.85,81,27.71,117.13,46.79,50.59,26.72,108.44,60.81,142.66,99.39-35.23-18.11-66.74-38.55-104.15-54.85a692,692,0,0,0-73.06-27.48c-13.54-4.16-30.39-11.6-45.43-11.68,6.48,5.47,17.61,8.19,26.27,11.66,18.4,7.36,35.38,16.07,52.35,25.06,56.73,30,108.85,66.11,152.54,106,63,57.57,114.52,126.62,139.63,198.37-15.25-18.2-24.3-38.4-40.48-56.54-34-38.13-74.48-72.63-119-104.53a928.18,928.18,0,0,0-136.46-81.68c-20.26-9.81-44.42-24-68.72-26.93,30.66,20.44,65.48,37,95.67,58.21,53.8,37.72,102,82.17,137.78,130,39.67,53.11,70,106.23,88.46,164.9-19.53-42-44.78-93.44-94-122.66,5.23,16.2,20.71,32.43,28.74,48.18,9.78,19.19,17.14,38.79,25.56,58.28-8.29-7.66-11.34-19.45-17.64-28.35-17-24.05-37.68-46.73-59.94-68.38-32-31.15-72.65-71.63-121-90.53,15.45,18.32,36.39,33.86,52.61,51.88a542.18,542.18,0,0,1,57.39,75.37c25.2,40.31,47.47,86.51,51.82,131.11-11.18-8.06-14.53-24.6-20.79-35a606.24,606.24,0,0,0-62.83-85.9c-31.68-36.39-70.15-81-117.74-107.74,42.68,47.69,82.76,95.87,109.61,149.63,22.21,44.45,33.4,89.35,39.46,136.2,3.14,24.25,6.15,49.28,6,73.62,0,4.89-6.06,15.4-4.17,20,3.84,9.22,34.39,8.72,46.7,9.4,43.13,2.36,86.67,3.71,129.89,3.83,19.62.06,39.62.2,59.23.84,9.71.31,26.76,3.59,36,.8,8.25-2.5,8.84-7,10.75-13.37,7.53-25,5.49-52.2,7-77.56,3.1-53.93-3.89-108.6-7.32-162.53C1862,820.7,1855.51,803.1,1851.71,791.57Z"/><path class="cls-6" d="M1830.49,660.42c-12.7-37.75-51.36-70.57-85.46-99.46-55.59-47.09-121-90.18-190.69-126-62.25-32-128.7-57-198.28-79.39-44.21-14.21-90-24.09-134.52-37.35,12.68-1,26.47,2.49,38.76,4.59,27.46,4.69,55.06,10,82.17,15.66,44.39,9.27,86.69,24.46,131.63,32C1339.53,311,1183.78,277.69,1027.54,265c46.36.8,92.85.3,139.1,2.95a1402.44,1402.44,0,0,1,239.49,34.88c78.36,18.33,156.7,39.64,229.3,68.11,29.67,11.64,58.62,25.14,86.59,38.85,19.06,9.35,37.48,21.62,57.57,29.57-9.13-9.16-25.59-17.41-37.84-25.31-36.63-23.6-76.2-43.77-117.22-63.12-57.85-27.3-119.49-47.72-180.27-70.36,109.11,21.58,220.54,47.32,317,91.18,16.82,7.65,56.4,18.52,66,32.09,3.42,4.84,2.12,14.7,2.91,20.13,1.92,13.22,3.11,26.43,4.34,39.7,4.82,52.21,15.88,103.33,22.21,155.32,2.52,20.77,6.34,44.44.13,64.55C1848.35,678.92,1839.64,669.31,1830.49,660.42Z"/><path class="cls-7" d="M1549.38,937.18c-37.13-94.5-140-200.13-166.33-228.93-28.8-31.51-64.06-56.77-99.47-84-30.12-23.18-65.36-48.66-104.06-64.18,25.79,19.45,55.18,36.6,78.44,57.88-48.13-24-88.86-60.08-144.93-75.23,67.72,35.5,130.31,80.18,189.18,123.12,26.2,19.11,66.85,37.75,83.34,61.48-9-.84-16.33-7.4-25.42-7.28,1.54,2.53,28.71,26.46,36.75,33.94C1453.9,807,1517.24,871.91,1549.38,937.18Z"/><path class="cls-7" d="M1521.53,739.49c-45.34-48.67-90.76-92.79-151.06-132.18-33.35-21.78-73.77-39.53-105-62.76,24.62,6.08,49.57,20.28,70.3,31.11,27.89,14.57,56.7,29.4,82,46.2-34.88-28.17-76-54.45-117.59-77.18-25.36-13.87-50.76-27.58-77-40.61-16.17-8.05-35.46-15.92-49.32-26,32.66,3,68.31,22.24,97,32.86,44.11,16.33,87.86,36.66,124.15,61.25,35.93,24.35,78.36,56.69,93.5,91.82-11.45-9.21-27.2-19.13-42.59-24.44,27.21,17.86,46.3,47.12,62.3,71,5.34,8,9.36,14.7,12.26,23.19C1521.25,735.91,1522.13,743.5,1521.53,739.49Z"/><path class="cls-8" d="M1411.47,1092.44c0-16.48-.49-32.48-3.46-48.88-4.11-22.68-6.47-54.9-23-74.93,2.59,16.16,2.2,33.43,1,49.67-9.39-26.14-11.22-51.81-24.69-77.77-10.92-21-21.42-47.63-41.24-65.23,11.87,32.58,25.75,64.43,34.49,97.81,7,26.77,5.11,54.5,11.62,81-10.83-33-27.52-61.89-50.13-91.86,16,39.66,22,81.47,28,122.36C1362.77,1084.36,1389.63,1084,1411.47,1092.44Z"/><path class="cls-8" d="M1426.05,940.08c-17.53-42.87-40.74-82.51-75.86-119.52-16.27-17.16-33.56-33.68-53.4-48.74-6.2-4.69-15.45-13.65-23.4-15.32,40.89,38.74,79,80.45,111,123.39C1396.68,896.4,1423.1,919.89,1426.05,940.08Z"/><path class="cls-9" d="M1914.63,425.26c-4.89-53.7,1.64-108.89-8.88-162.22-11.93-60.41-37.3-85.6-108-101.51-181.2-40.77-382.53-38.24-568.54-41.91-237.7-4.68-470.48-9.38-707.77,7.69C373.78,137.93,225.13,153,78.33,170c-30.21,3.51-47.68,2-45.46,29,5.59,68.15,12.53,131.78,6.48,200.72-14.22,162-4.77,324.58-20.88,486.4-4.23,42.42-6.3,85-7,127.49-.42,24.14-8.16,48.86-6,72.91,52.09,20.38,121.52,3.93,177.34,3.69,25.11-.11,61,5.31,84.79,0-3.72-3.16-7.78-6-6.09-5.11-33.94-41.81-63.95-95-85.19-142.26-21.89-48.72-9.45-95-6.21-144.58,6-91.81,6.09-178.18,65-259.43,19-26.22,43.88-49,67-72.59,25.58-26.09,49.84-57.52,84.54-76.08,20.09-10.74,42.05-17.08,62.48-27C463.24,356.36,479,347.3,495,346.55c1.11,16.79,2.35,33.46,4.37,50.27,1.79,15-2.43,35.25,4.17,49-1.35-32.77,5.77-65.08,16.67-96,9.13,11.07,10.1,28,19.93,39.94-.83-10.13-2.19-34.11,3.87-42.62,5.65-7.93,24.79-9.58,36.65-11,23.82-2.86,48.59-7.75,72.56-9.38,21.51-1.46,41.08,5.52,61.74,9.05,11.79,2,28.29,3.3,39.09,7.48,17.26,6.68,21.54,21.19,36.89,30.84,15.53,9.76,25.48,4.38,42.56,7.73,13.63,2.67,19.55,9.24,37.72,8.36,21.63-1.06,35.81-9.42,45.94,5.45,10.39,15.24,2.4,37.49,13.35,53.44,3.4-16.05,8.76-54,24.76-65.18,10.05-7,24.06-.28,34.16,1,13.73,1.71,34.84-1.17,44.75,8,15.81,14.59,5.16,48.77,11.73,65.18.56-16,6.9-55.65,25.8-65.06,14-6.95,47-3,62,.34,12.25,2.7,26.78,22.86,38.76,36.72,5.74,6.63,17.92,6,22.43-1.25,12-19.35,46-42.74,64.92-41.82,11.8.58,17.25,9.26,28.47,11.6,8.55,1.78,18.24.09,26.85,1.44,23.41,3.67,37.15,7.65,45.85,26.27,26.14,56,38.42,116,39.14,176.27s3.72,120.23,4.06,180.55c.36,61.22-15.71,117.49-35.66,175.92-14.19,41.61-44.88,77-69.77,112.3,26-7.35,67.12-1.18,95.07.19,53.31,2.6,105.33,2.92,158.8,3.44,56.68.54,114.14-.08,170.86,1.62,46.78,1.4,98.27-1,144,4.56.33-20.72,6.53-41.39,6.68-62.38.31-47.43.71-90,10-137.25,19.3-98.43,34.82-195.07,34.53-295.18C1918.58,532.85,1919.49,478.58,1914.63,425.26ZM161.93,608.89c-9.51,75.48-13.81,153.06-26,228.86-4.81,30.08,6.56,227.92-46.31,220.34-26.36-3.77-23.83-52.25-25.48-67.17-3-26.79-8.4-53.3-7-80.25,1.65-32.87,12.32-65.34,12.8-98,.45-31.26-5.1-58.43-.09-90.48,4.55-29.13,3.81-60.59,10.57-89.06,5.26-22.16,22.44-56.43,40.37-73.11,2.44,24.92-2.42,63.49,8.59,85.78,6.17-27.55,2.86-65.4,16.21-90.87C149,548.35,164,592.89,161.93,608.89ZM1751.9,692c-6.35,89.42-16.09,179.78-35.55,268.14-4.14,18.8-32.72,107.4-61.77,64.92-5.67-8.29-29.93-73.12-42.42-40.41-13.56-27.16-1.44-64.9-16.78-90.32-12.07,8.44-10.63,28.63-12.19,41.11-3.15,25-3.89,76.2-26.49,96.19-28.56,25.25-74.39,6.89-91-17.66-35-51.64-35.8-111.45-39-168.86-4.19-75.66-.71-148.91,14.58-223.91,13.16-64.59,29.74-147.67,72.75-203.72,11.62-.18,28,8.67,34.76,15.87,14.78,15.69,7,39.28,16,55.29,5.31-8.56,10.11-29.42,20-32,10.25,30.41,13.83,65.91,15,98.22,22.51-31.74,4-78,24.51-110.12,14.65,8.63,28.45,19.81,46.66,24.86,22.94,6.36,44,4.46,56.07,24.06C1762.74,551.81,1756.34,629.6,1751.9,692Z"/><rect class="cls-10" x="42.5" y="174.87" width="1818.84" height="144.46"/><polygon class="cls-11" points="956.02 147.51 871.94 815.98 1016.41 824.36 973.49 145.89 956.02 147.51"/><polygon class="cls-12" points="979.24 147.73 1149.41 809.93 1201.38 791.57 986.55 146.25 979.24 147.73"/><polygon class="cls-13" points="942.66 143.71 712.74 820.73 864.19 834.19 949.91 145.47 942.66 143.71"/><path class="cls-14" d="M52.58,328.86c13.94-16.57,50-27.73,70.57-37,23.74-10.69,34.82-13.92,59.22-13,13.65.54,26.07-2.51,39.44-3.63,23.62-2,46,8.28,68.71,7.49,32-1.11,55.73-32.48,88.27-23.73,30.87,8.31,66.45,11.35,96.56-.17,25-9.57,43.64-24.06,71.59-29.28,27.49-5.15,55.07-13.29,83-17.47,16.63-2.48,27.64-5.75,42.41,1.71,24.22,12.23,33.92,16.59,63.67,16.56,25.79,0,51.53-2.26,77-.15,6.71.56,16-.07,22.23,1.57,12.13,3.23,12.82,9.53,22.84,15.69,17.75,10.92,49.11,8.73,70.27,9.63,31.85,1.36,49,2.21,76.69-10.7,17.33-8.08,49.17-17.38,67.8-11.33,9,2.94,14.06,11,24.94,12.92s22.59-1,33.25-3c21.86-4.15,43.57-1.1,64.07-4.93,27.18-5.08,42.63-25.56,73.24-23,26.95,2.28,51.38,2.86,78.7,2.87,24.13,0,28,6.52,48.07,14.25,28,10.79,55.45-4.28,83.66-6.56,19.54-1.58,36.39,4.83,55.12,8.72,9.72,2,21.26,2.34,30.39,6.13,11.87,4.93,19.06,15.08,31.11,19.36,28.52,10.14,60.78-7.13,89.89-.94,30.86,6.55,48.72,32,78.44,39.6,18.16,4.63,35.44-.39,53.83-1.4,21.64-1.18,45.8,3.33,67.13-.08,14.08-2.25,11.19,1.51,16.11-10.94,7.65-19.38,7.58-53.43,5.2-73.26-2.5-20.81-10.83-40-16.37-59.83-1.89-6.75.72-17.68-6.56-22-6.71-4-27.08,1.54-35.37,2.26-39,3.38-78.21,5.2-117.36,7.12-92.61,4.54-183.87,2.62-276.32-3.68-210.2-14.33-418.73,10-629,4-102.72-2.92-205.88-9.55-308.65-9.35-88.13.17-181.61-6-269,3-41.32,4.25-82.86,6.89-124,11.18-8.76.91-27.15.68-31.68,7.47-3.32,5,1.94,31.48,1.87,37.9-.19,16-2.86,31.06-7.29,46.48a390.45,390.45,0,0,1-20.07,54.48c-4.55,9.86-10.31,18.9-13.88,29.14C53.53,326.1,53.83,322.9,52.58,328.86Z"/><path class="cls-6" d="M57.71,264.7c15.38-14.11,75.39-11.21,99.8-13.43,30.33-2.76,60.68,3.78,91.05,3-9.8-4.34-17.84-13.17-26.2-19.61a239.14,239.14,0,0,0,43.7,13.43c22.49-16.39,78-15.95,105.27-11.79,13.41,2,25.5,10,37.75,11.69,11.94,1.65,39.47-2.51,51.41-6.07-22.05-13.53-48.15-21.11-69.83-34.83,26.1,6.17,55.18,9.13,80,18.64,18.74-21.44,42.53-9.79,66.27-11.93,16.29-1.47,32-8.78,48.7-10.33,16.47-1.53,33.1-1.61,49.71-3,18.77-1.6,34.58-1.44,51.56,4.15,7.62,2.51,16.09,8.48,24.35,9.37,15.18,1.65,29.3-8.62,44.54-6.07,15.51,2.59,14.54,7.36,32.95,3.79,33.39-6.46,72-7.83,104.11-17.35-13.08,7.56-28.81,10.68-43.52,15.18,15.42-.24,30.44,1.67,45.43,1.68-4.27,6.78-14.95,10.47-9.74,20.49,11.59,1.27,20.23,7.32,32.35,7.26,16.77-.08,37.18-1.21,53.87-3.8,9.48-1.48,21.13-3.42,29.85-7.8,13.8-6.94,21.88-20.79,37.25-26.34-3.71,6.52-8.11,13-10.06,20.26,14-.18,28.47-5.78,42.09-1.14-2.34-6.3-5.33-13.13-11.25-17.69,7.76,6.89,20.61,10,29,15.85,10.92,7.65,9.69,14,27.19,7.71-2.65-5.31-7.08-10.68-10-16.09,20.51,12.55,44.54,14.89,68.84,13.33,10.52-.67,22.21,1,32.38-.29,11.88-1.46,16.86-7.81,28.48-11.21,23.45-6.86,47.76.18,71.52-4.63,33.58-6.8,67.8-17.42,100.82-26.24-16.11,8.37-34.3,13.28-50.69,21.24,18.51-.73,35.25-9.6,54-9.21-9.88,4.9-17.67,12.64-28.24,16.47,20.13,11.1,27.05,15.29,53,5.82,10.79-3.95,17.32-10.18,29.35-11.73,9.12-1.17,18.86.48,28.07-.32,18.58-1.6,28-3.53,45,5.67,5.68,3.07,15.49,11.37,21.46,12.72,16.32,3.7,38.92-1,56.78,1.18,12.08-18.76,36.34-13,56.06-18.07-8.49-3.8-17.55-6.94-26.42-10.19,20.55.28,41.52,1.35,61.75-1.31,21.38-2.81,37.79-10.8,57.88-14,19.44-3.08,33.06-12.32,52.82-16.44,26.56-5.55,57.35-10,84.84-10.21.07-7.5,6.22-22.36.33-27.94-3.8-3.61-12.11-1.29-17.14-1.62-31.54-2.07,43.37-37.75,11.73-37.62-116.13.48-234-91.92-366.83-91.15C1400-5,796.63-11.6,665.48-8,557.56-5.09,295.39,6,187.62-1.27,109-6.59,172.66,111.89,94,115.39,82.1,152.5,85.59,192.3,75.82,230,72.81,241.53,70.85,253.82,57.71,264.7Z"/><path class="cls-15" d="M216.85,357.13c-7,4.9-17.68,18.67-24.86,26.79,27.81-14.21,59.24-25.86,91.05-26.42-15.32,5.13-34.9,18.75-46.88,30.27,9.11-2.47,20.07-3.59,29.66-2-30.52,19-86.37,69.39-115.66,88.44,3.69-8.1,9-19.83,12.78-27.88-15.45,8.57-41.41,29.73-53.27,42.6,3.09-13.57,44.65-63.62,51-75.13-17.62,8.92-33.34,17.09-53.36,30.66C128.4,400.8,190.94,367.32,216.85,357.13Z"/><path class="cls-16" d="M161.07,414,148.56,397.5c-17,13.48-32.31,29.5-40.85,47.2C127.72,431.13,143.45,423,161.07,414Z"/><path class="cls-17" d="M109,490.26c11.85-12.86,38.9-35.11,54.36-43.69l-12-18.58C130.13,452.79,111.31,479.94,109,490.26Z"/><path class="cls-18" d="M192.37,384.15c7.18-8.12,17.87-21.89,24.85-26.78a265.21,265.21,0,0,0-32.28,15.77C187.8,377.84,192.13,384.78,192.37,384.15Z"/><path class="cls-19" d="M223.21,370.38,236.53,388c12-11.52,31.57-25.14,46.89-30.27C262.9,358.09,242.54,363.08,223.21,370.38Z"/><path class="cls-20" d="M277.37,358l-5.94.56-5.92.77-5.91.91-2.94.54-2.92.55-5.85,1.28-5.8,1.41-5.76,1.58-5.72,1.75-5.67,1.91-1.33.48-.64.23-.09,0-.33.12-3.22,1.17-5.55,2.2-5.48,2.38-5.42,2.51-10.2,4.08-1.24-2L190,378.62a19.47,19.47,0,0,0-1.52-1.77l-1.65-1.64-.9-.76c-.24-.24-.55-.41-.77-.66,10.65-6.4,28.7-15.37,31.4-16.5-2.76,1-19.23,8.64-32.66,15.95l-3.92,2-3.88,2.11c-2.57,1.44-5.11,2.92-7.65,4.43-5,3.05-10,6.29-14.72,9.73s-9.34,7.19-13.74,11.11a158.54,158.54,0,0,0-12.55,12.45,151.08,151.08,0,0,0-11,13.8L114,432.55l-2.35,3.74-2.22,3.81L107.33,444l2.21-3.79,2.36-3.73,2.45-3.63,2.58-3.58a149.3,149.3,0,0,1,11.25-13.48c4-4.26,8.2-8.36,12.61-12.21,2.48-2.19,5-4.3,7.62-6.31l0,0c-.29.73.4,1.71,1,2l.3.57,1.77,3.05c.57,1,1.25,2,1.9,3l2,2.91,2.15,2.76,1.11,1.37.56.69.63,1.45-8.23,11c-.42.49-.86,1-1.27,1.47l-.11-.13.08.15c-2.4,2.72-4.73,5.5-7.05,8.27q-4.11,4.95-8.11,10c-2.6,3.4-5.18,6.84-7.68,10.32-1.25,1.74-2.45,3.52-3.67,5.27-.62.89-1.19,1.79-1.78,2.69l-1.75,2.71c-2.25,3.63-4.42,7.35-6.44,11.13-1,1.9-1.88,3.85-2.83,5.77s-1.15,4-2,6c.95-1.92,1.33-3.9,2.3-5.8s2-3.78,3.1-5.61c2.12-3.71,4.38-7.34,6.74-10.9l1.79-2.64c.6-.88,1.18-1.78,1.81-2.65,1.25-1.73,2.45-3.49,3.71-5.2,2.52-3.45,5.12-6.85,7.75-10.21s5.28-6.72,8-10c2.24-2.68,4.45-5.36,6.69-8,.05.08.09.17.15.25l.8,1.41,1.68,2.78c.53.94,1.17,1.82,1.74,2.73l1.77,2.71,1.88,2.61.95,1.33.47.66.5.63,1.7,2.15a2,2,0,0,0-.11.2l-.54,1.08-11.63,27.34,12.18-27.15.26-1.17a.21.21,0,0,1,0-.06l.12.15.21.25.06-.24a.8.8,0,0,1-.07-.39l.09-1-1.08-1.94-.4-.71-.43-.69-.9-1.36-1.78-2.72-2-2.59c-.66-.85-1.28-1.73-2-2.54l-2.12-2.46-1.12-1.21a3,3,0,0,1-.25-.26l1.32-1.58,8.26-9.81.75-.89.73-.87-.33-.48L161,413.4l-.49-.73L160,412l-1-1.41-2-2.85L154.76,405c-.71-.92-1.38-1.88-2.14-2.77l-2.19-2.74-.37-.44a.34.34,0,0,0-.16-.3,2.53,2.53,0,0,1-.32-.27l-.41-.49a.5.5,0,0,1-.08-.2.23.23,0,0,0,.13-.08l.05-.07a.35.35,0,0,0,0-.41.47.47,0,0,0-.27-.25l-.1-.12c1.84-1.44,3.69-2.84,5.58-4.21q7.08-5.16,14.58-9.76,3.76-2.29,7.58-4.45l3.85-2.13,3.87-2.07.75-.4c.19.27.3.62.48.9l.55,1c.38.67.77,1.34,1.12,2s.81,1.29,1.21,1.95l1.21,1.93,1.33,1.87.66.91,0,.06c.54-.3,1.09-.56,1.66-.81l-.13-.24,4.4-2.14,5.43-2.43,5.48-2.33,5.53-2.2,5.57-2.09,3.43-1.2,0,.1c.79,1.34,1.65,2.62,2.49,3.92l2.55,3.89,2.67,3.8,1.34,1.89.68.95.7.92,1.58,2a4.53,4.53,0,0,1,1.28-.1l-.12-.2c.3-.07.61-.14.92-.19l1.9-.3c1.26-.2,2.51-.33,3.77-.46s2.52-.21,3.78-.3,2.54-.11,3.8-.16,2.52-.11,3.79-.15l1.91,0,1,0,.95,0,3.83-.14,1.92-.12,1.91-.09-1.9-.24-1.92-.27-3.83-.37-.94-.06-1,0-1.92,0c-1.29,0-2.57,0-3.86,0s-2.56.21-3.85.35-2.55.32-3.82.6-2.51.59-3.75.94l-1.83.61-.92.34-1.47-2.41-.62-1-.63-1-1.29-1.94-2.6-3.86-2.72-3.77c-.86-1.19-1.71-2.39-2.63-3.55l1-.35,5.66-1.84,5.71-1.67,5.71-1.6,5.77-1.44,5.81-1.32,2.91-.59,2.91-.6,5.85-1.09,5.88-.93,5.89-.85,5.93-.73Z"/><polygon class="cls-21" points="154.53 392.6 399.69 1020.15 530.65 958.56 169.11 382.84 154.53 392.6"/><polygon class="cls-22" points="175.04 381.72 640.63 882.41 677.54 841.47 180.76 376.92 175.04 381.72"/><path class="cls-23" d="M1569.23,270.14c8.26,3.87,22.07,16.42,31.14,23.66-31.94-9.86-67.23-16.36-100.88-11.09,17.1,2.59,40.26,13.35,55,23.29-10.06-.93-21.83-.09-31.65,3.36,35.69,14.46,103.86,57.27,138.25,72-5.38-7.85-13.17-19.24-18.61-27,17.88,6.19,49.15,23.72,64,35.1-5.76-13.74-58.8-58.85-67.64-69.82,20.23,6.16,38.31,11.88,61.92,22.5C1670.53,299.89,1598.42,276.11,1569.23,270.14Z"/><path class="cls-24" d="M1638.53,319.88l10.14-19.75c20.37,11.08,39.51,25.15,51.77,42.24C1676.84,331.75,1658.75,326,1638.53,319.88Z"/><path class="cls-25" d="M1707.52,390.65c-14.87-11.38-47.5-29.86-65.37-36.06l9.19-21.8C1678.29,355,1703.14,380.2,1707.52,390.65Z"/><path class="cls-26" d="M1600,294.12c-9.07-7.24-22.88-19.79-31.14-23.67a284.92,284.92,0,0,1,36.94,10.69C1603.67,286.62,1600.38,294.74,1600,294.12Z"/><path class="cls-27" d="M1565,285.28l-10.81,21c-14.75-9.94-37.91-20.69-55-23.29C1520.84,279.63,1543.23,281.14,1565,285.28Z"/><path class="cls-20" d="M1505.56,282.16l6.37-.51,6.38-.28,6.4-.13,3.2,0,3.18,0,6.41.28,6.37.42,6.37.6,6.35.8,6.32,1,1.5.27.71.12.12,0,.36.06,3.61.66,6.26,1.29,6.22,1.5,6.18,1.65,11.5,2.42.94-2.3,1.17-2.21a19.42,19.42,0,0,1,1.27-2.14l1.44-2,.81-1c.2-.3.51-.54.69-.84-12.41-4.79-33.09-10.92-36.15-11.61,3.09.56,21.87,5.56,37.37,10.8l4.52,1.41,4.47,1.51c3,1,5.93,2.13,8.88,3.26,5.87,2.29,11.66,4.8,17.32,7.55s11.18,5.86,16.54,9.18a168.12,168.12,0,0,1,15.52,10.82,160.18,160.18,0,0,1,14.16,12.52l3.26,3.41,3.16,3.51,3,3.6,2.92,3.7-3-3.6-3.18-3.5-3.25-3.37-3.38-3.29a158.4,158.4,0,0,0-14.35-12.16c-5-3.75-10.18-7.29-15.54-10.55-3-1.84-6.1-3.6-9.2-5.24l0,.06c.44.71-.11,1.87-.72,2.34l-.2.65-1.3,3.54c-.43,1.18-1,2.31-1.46,3.48l-1.54,3.42-1.77,3.32-.91,1.64-.47.83-.39,1.65,10.69,10.05c.54.44,1.09.87,1.61,1.31,0-.05.06-.1.1-.15l-.06.17c3,2.42,6,4.93,9,7.42q5.23,4.47,10.39,9c3.37,3.1,6.72,6.26,10,9.47,1.64,1.6,3.24,3.26,4.85,4.89.81.81,1.58,1.66,2.37,2.5l2.34,2.54c3,3.41,6,6.93,8.84,10.55,1.4,1.81,2.7,3.71,4.05,5.56s1.95,4,3.18,5.92c-1.35-1.85-2.11-3.87-3.49-5.69s-2.81-3.62-4.3-5.35q-4.38-5.27-9.12-10.25l-2.37-2.45c-.8-.82-1.57-1.67-2.39-2.47-1.64-1.59-3.23-3.22-4.88-4.8-3.28-3.17-6.65-6.27-10-9.33s-6.8-6.12-10.27-9.12c-2.85-2.41-5.67-4.84-8.52-7.25-.05.1-.08.19-.12.29l-.58,1.63-1.26,3.25c-.39,1.09-.9,2.13-1.34,3.2l-1.36,3.18-1.5,3.1-.76,1.57-.37.79-.41.76-1.4,2.58.15.18.77,1L1661,381.56l-17.84-26.38-.49-1.18a.11.11,0,0,0,0-.07l-.09.19-.18.29a2.56,2.56,0,0,1-.11-.24.85.85,0,0,0,0-.42l-.29-1.07.79-2.25.29-.81.33-.81.69-1.61,1.38-3.19,1.59-3.09c.54-1,1-2.06,1.64-3.05l1.79-3,1-1.48c.08-.11.16-.22.22-.32l-1.68-1.43-10.53-8.83-1-.79-.93-.79.26-.56.68-1.52.39-.85.4-.85.84-1.67,1.6-3.38,1.76-3.29c.58-1.1,1.1-2.24,1.74-3.32l1.81-3.29.31-.53a.38.38,0,0,1,.11-.35,3.37,3.37,0,0,0,.28-.34l.35-.59a1.06,1.06,0,0,0,.05-.23.26.26,0,0,1-.15-.07l-.07-.05a.4.4,0,0,1-.13-.43.45.45,0,0,1,.24-.31c0-.05,0-.11.08-.15-2.2-1.18-4.41-2.32-6.65-3.41-5.61-2.76-11.36-5.3-17.18-7.61-2.92-1.15-5.86-2.24-8.81-3.3l-4.46-1.53-4.46-1.47-.86-.28c-.15.32-.2.7-.34,1l-.39,1.19c-.28.77-.56,1.55-.81,2.34a23.43,23.43,0,0,1-.92,2.27l-.92,2.27-1.06,2.21-.52,1.08,0,.07a17.06,17.06,0,0,0-1.89-.54l.09-.28-5-1.45-6.17-1.56-6.21-1.45-6.24-1.3-6.26-1.18-3.83-.64,0,.12c-.59,1.56-1.26,3.07-1.9,4.59l-2,4.58-2.12,4.49-1.07,2.25-.54,1.12-.56,1.1-1.3,2.45a4.57,4.57,0,0,0-1.37.12l.1-.24c-.34,0-.68,0-1,0l-2.06,0c-1.37,0-2.71.1-4.07.2l-4,.38c-1.34.15-2.69.35-4,.53s-2.68.35-4,.55l-2,.31-1,.16-1,.15-4.06.56-2,.22-2,.27,2-.61,2-.63,4-1.1,1-.24,1-.22,2-.4c1.35-.24,2.71-.48,4.08-.68s2.73-.26,4.11-.35,2.76-.13,4.14-.06,2.76.15,4.13.3l2.05.29,1,.2,1.11-2.82.46-1.16.49-1.13,1-2.28,2-4.56,2.18-4.47c.69-1.41,1.36-2.84,2.12-4.23l-1.1-.18-6.31-.9-6.33-.71-6.32-.63-6.35-.47-6.37-.32-3.18-.08-3.18-.1-6.37-.07-6.37.1-6.37.19-6.39.32Z"/><polygon class="cls-28" points="1641.48 296.06 1498.53 1002.97 1349.09 962.14 1624.3 288.45 1641.48 296.06"/><polygon class="cls-29" points="1617.84 288.36 1219.09 902.09 1172.63 865.71 1610.93 284.36 1617.84 288.36"/><path class="cls-6" d="M659.52,1068.74c17.15-12.5,35.5-18.48,51.17-33.23,23-21.64,41.9-35.4,54.91-65.93,9.13-21.42,8.12-47.43,26-64.87,13.81-13.5,16.83,1.38,20.74,13.94,4.41,14.21,13.15,14.56,20.89,26.07,9.46,14.08,8.32,32,11.32,48.1,3.42,18.42,15.42,41.07,28.34,54.52,4.26,4.44,10.53,13.38,15.63,16.48,5.95,3.62,14.56,4.62,21.35,8.53,18.19,10.48,42,17.73,63.09,13,29.42-6.66,48.44-12.66,64.65-39.18,11.9-19.46,13.46-43.49,26.08-62.22,6.79-10.1,11.2-12,19-12.78,7.49-.77,25.42-3.2,31.93,2.12,10,8.19,5.63,33.28,24.47,31.11,5.93-.69,8.17-9.05,16.21-7,3.29.85,11,11.13,13.11,14.16,4.58,6.5,6.8,14.25,11.29,20.85,6.92,10.18,7.44,25.83,16.23,34.11,11.85,11.15,25.65,6,39.34,6.86,12.35.8,22,9.14,34.7,8.37,18.47-1.12,34.48-13.24,45.41-27.2,9.91-12.66,15.26-32.35,26.13-43.43,19.27-19.63,28.86,29.4,39.64,39.88,17.73,17.24,45.68,17.64,68.24,17.8,20.11.13,33.74-3,48.63-17.25,10.83-10.39,19.45-25.85,31.62-34.21,7.61,9.39,7.59,27.43,15.48,36.83,20.86,24.84,73.82,38.67,68.19,45.13-3.84,4.41-89.36-1.23-94.94-.94-25.6,1.33-51.45.23-77.08.23-80.54,0-161-1.27-241.48-2.2-94.81-1.08-189.34,10.85-284.13,10.66-68.53-.13-136.68-10.13-205.1-9.65-26.28.19-96.05,3.93-121.74-1.48C584.65,1095,636.18,1085.75,659.52,1068.74Z"/><path class="cls-30" d="M803.46,904.46c-9.61,1.51-7.62,20.67-8.27,28.21-1,11.86-5,20.36-3.13,32.57a44.23,44.23,0,0,1-1.53,20.55c-2,7-5.75,15.48-2.2,22.65,3.83,7.72,12.53,9.58,15.07,18.69,2.38,8.59,1.18,18.45,6.87,26.09,6.92,9.3,20.74,9.92,31.3,10.74,9.24.72,27,3.84,35-1.77-5.77-16.79-20.16-28.49-25.9-44.52-2-5.69-2.63-8-7.77-8.88-4.25-.7-11.87,2.15-16.76,2.06a88.48,88.48,0,0,1-14.77-1.27c10.12,2.07,21.68-2.08,29.17-9.37-5.58,1.21-13.73,2-19,.23,18.59.07,16-17.69,15.33-30.27-.23-4.07-.46-17.86-4.31-20.41-4.33-2.88-17.33,3.77-24.11,3.29,8-1.22,13.42-7.21,16.88-13.74-5-.53-12.46-9.57-14.84-13.95C807.65,920.24,807.75,908.58,803.46,904.46Z"/><path class="cls-31" d="M1073.67,983.16c7.58-9.86,28.37-15.26,38.27-6.35,9.61,8.66,5.62,24.36,20,30.3,11.24,4.65,18.93-8.65,26.57-2,5.06,4.42,12.35,19.22,14.35,25.24,1.22,3.67,3.73,30.63,1.4,31.88-8.48,4.6-14.73-23.53-18.72-27-9-7.68-28.22,4.11-39.5,3.09,7-5.79,15.8-12.8,17.94-22.42-4.91,6.83-15.7,12.45-23.72,14.39,4.36-6.37,12.15-10.53,14.6-18.59a18.06,18.06,0,0,1-8.88,1.33c-6.37-.92-3.92-3.76-7.29-6-9.28-6-20.94,8.13-33.43,6.84,4.19-5.58,12.88-10.06,18.07-15.85-4.27,2.75-8.61,5.46-13.94,4.45,3.84-4.55,10.63-9.5,11.26-16.11a39.75,39.75,0,0,1-9.6,3.71c.77-2.36,3.2-5,4.76-7.07C1082.72,983.4,1078,985.2,1073.67,983.16Z"/><path class="cls-32" d="M677.67,1057.29q13.17-10.07,25.9-20.67,12.84-10.44,25.23-21.42c8.31-7.22,16.42-14.69,23.3-23.15a92.27,92.27,0,0,0,9.16-13.43,99,99,0,0,0,6.54-14.9l.91-2.63c.57-1.68,1.36-4.08,2.21-7,1.76-5.85,3.75-13.78,5.94-21.72,1.12-4,2.29-7.93,3.54-11.61.65-1.84,1.24-3.59,1.92-5.29a39.07,39.07,0,0,1,2.2-4.67,30.32,30.32,0,0,1,4.56-6.38,20.64,20.64,0,0,1,1.67-1.54l.63-.52a11.56,11.56,0,0,1,7.25-2.22,5.15,5.15,0,0,1,1.85.42c.4.17.57.32.55.47s-.23.28-.62.4-.94.19-1.64.43a13.16,13.16,0,0,0-5.44,3c-3.9,3.11-6.53,7.94-8.36,12.84-1.86,5.06-3.41,10.26-4.84,15.51-2.87,10.5-5.27,21.23-9,31.68a101.13,101.13,0,0,1-7,15.34,94.73,94.73,0,0,1-9.66,13.79c-7.19,8.61-15.51,16.07-23.95,23.23s-17.15,14-25.94,20.71S686.79,1051.05,677.67,1057.29Z"/><path class="cls-33" d="M1092.37,970.74a20.67,20.67,0,0,0-11,1,28.7,28.7,0,0,0-9.38,5.76,35.72,35.72,0,0,0-7,8.41,59.59,59.59,0,0,0-4.73,10c-2.71,6.93-4.53,14.26-7.1,21.46a126.65,126.65,0,0,1-9.66,20.8l-1,1.65c-.66,1.05-1.59,2.57-2.81,4.31a120.65,120.65,0,0,1-9.57,12.33,129.84,129.84,0,0,1-11,11c-3.2,2.81-5.48,4.53-5.48,4.53-3.62,2.33-5.71,3-6,2.58s1.06-2.16,4-5.1a121.37,121.37,0,0,0,28.86-33.16,123,123,0,0,0,9.77-20c2.63-7,4.6-14.3,7.51-21.39A63,63,0,0,1,1063,984.7a37.84,37.84,0,0,1,7.82-8.54,30,30,0,0,1,10.23-5.26A21.06,21.06,0,0,1,1092.37,970.74Z"/><path class="cls-34" d="M1354.13,1008.37c-.38-.45-.8-.2-.73-1.14-12.71-5.14-23,23.5-27.66,32-8.77,16.14-18.89,27.44-34.86,36.38,5.21-3.54,11.25-5.52,16.27-9.72s9.35-9.81,13.54-15.1c7.43-9.38,12.17-20.19,18.68-29.83,3.1-4.59,8.27-10.9,14.18-12.38C1353.05,1009.15,1352.42,1009.49,1354.13,1008.37Z"/><path class="cls-35" d="M1103.17,990.39a1,1,0,0,0-.78-.14.83.83,0,0,0-1.11.37,3.51,3.51,0,0,0-.4,2.51,4.87,4.87,0,0,0,2,4.47.86.86,0,0,0,1.31-.29,5.12,5.12,0,0,0,.53-1.36A4.51,4.51,0,0,0,1103.17,990.39Z"/><path class="cls-35" d="M1107.91,979.72a.64.64,0,0,0-.39-.07l0,0a.86.86,0,0,0-1.2.1,7.21,7.21,0,0,0-.44,8.14,8,8,0,0,0,2.25,2.69.87.87,0,0,0,1.31-.29c.06-.12.1-.24.16-.35a.66.66,0,0,0,.44-.27A6.91,6.91,0,0,0,1107.91,979.72Z"/><path class="cls-35" d="M1156.64,1018.09a6.25,6.25,0,0,0-2.69-5.66,5.61,5.61,0,0,0-7,.9,7.87,7.87,0,0,0-2,6.54c.21,2.34.87,4.89,3.21,6a5.52,5.52,0,0,0,5.77-1,6,6,0,0,0,2.22-4.58A6.85,6.85,0,0,0,1156.64,1018.09Z"/><path class="cls-35" d="M1160.32,1021.79c-4.36,0-3.75,6.76.59,6.76S1164.65,1021.79,1160.32,1021.79Z"/><path class="cls-35" d="M813.9,977.28a11.53,11.53,0,0,0-4.37-5.39c-2.18-1.44-4.83-.66-5.51,2A13.6,13.6,0,0,0,809.11,988c1.66,1.21,4.37,1,5.24-1.15A11.49,11.49,0,0,0,813.9,977.28Z"/><path class="cls-35" d="M816.85,964.55c-4.36,0-3.75,6.75.59,6.75S821.18,964.55,816.85,964.55Z"/><path class="cls-35" d="M808.86,933.24a9.43,9.43,0,0,0-1.35-1.91c-2-2.15-5.35-1.68-6.1,1.34a8.69,8.69,0,0,0,.19,4.66,6.85,6.85,0,0,0,1.46,2.94,4.57,4.57,0,0,0,6,1.59,4,4,0,0,0,1.27-2A7.51,7.51,0,0,0,808.86,933.24Z"/><path class="cls-6" d="M126.27,1078.59c11.45-4.18,22.83-6.94,33.64-13,20.55-11.53,27.08-32.8,42.31-49.22,11.76-12.66,25.39-21.51,35.25-36.36,5.28-8,11.5-29.81,23.2-30.26,24.27-.92,40.71,57.55,48,73,10.44,22,27.36,50.3,55.28,48.56,22.62-1.41,41.15-16.93,56.46-32,7.56-7.44,28.41-37.53,41.89-32.76,8.64,3.05,16.17,20.3,17.94,28,7.14,31,56,47.53,56.16,54.63.56,24.44-77.56-6.61-92.54-7-58-1.63-118.36,6.82-175.82-4.51-35.23-6.95-65.23-2.32-100.3,1.13C155.81,1079.9,135.78,1073.22,126.27,1078.59Z"/><path class="cls-36" d="M243.14,986.08c6.17-16.93,18.4-41.53,32.38-16.51,5.34,9.56,10.24,19.22,15.67,28.75,4.1,7.18,17.47,28.79,14.68,36.53-8.24-5.75-13.33-18.77-18.34-27.47-6.51-11.28-7.41-3.58-18.16-3.29,4.14-2.5,6.92-9.39,7-14a51.22,51.22,0,0,1-14.27,9.06c7.73-3.62,12.19-17.85,3.84-23.33-5.19-3.4-4.54-2.36-8.59,4.49-2.92,4.95-4.74,9.14-9.45,12.79,2.55-4.07,2.81-8.65,2.62-13.3A67.88,67.88,0,0,1,243.14,986.08Z"/><path class="cls-37" d="M397.69,1057.48a105.55,105.55,0,0,0,10.72-8.29,102.63,102.63,0,0,0,9.72-9.27,107.13,107.13,0,0,0,8.65-10.24c2.7-3.6,5.33-7.32,8.31-10.87,0,0,1.11-1.31,3-3.15a40.91,40.91,0,0,1,7.53-6,20.37,20.37,0,0,1,9.56-2.89,12.39,12.39,0,0,1,3.46.38,5.55,5.55,0,0,1,1,.3l.34.13a6,6,0,0,1,2.44,2.28c.33.69.35,1.1.13,1.3-.48.45-1.64-.28-3.74-.6a10.22,10.22,0,0,0-5.72-.25,18,18,0,0,0-5.7,2.27,42.5,42.5,0,0,0-9.52,8.61c-3,3.3-5.67,6.9-8.52,10.46a109.82,109.82,0,0,1-9.19,10.23,103.88,103.88,0,0,1-10.6,8.73A107.29,107.29,0,0,1,397.69,1057.48Z"/><path class="cls-38" d="M175.37,1049.27q8.2-7.55,15.93-15.55c5.21-5.26,10.23-10.7,15.09-16.26a337.29,337.29,0,0,0,27.25-34.93s6.32-8.95,12-18.36c1.43-2.35,2.77-4.68,4.19-7a21.32,21.32,0,0,1,5-5.75,11.45,11.45,0,0,1,2.86-1.61,11.08,11.08,0,0,1,2.49-.6,9.68,9.68,0,0,1,2.24,0,6.83,6.83,0,0,1,4.71,2.78c.65,1.07.57,1.74.34,1.86-.56.36-1.82-1.61-5.33-1.44a7.5,7.5,0,0,0-4.34,1,13,13,0,0,0-3.57,3.32,38.89,38.89,0,0,0-2.86,4.44l-2.8,4.77c-3.79,6.33-7.73,12.58-11.94,18.65a341.59,341.59,0,0,1-28.15,34.73c-5.16,5.39-10.45,10.64-15.92,15.69S181.22,1044.69,175.37,1049.27Z"/><path class="cls-39" d="M1283.14,14.62c-4.15,13.49-1.59,40.61.24,56.53,2.71,23.64,4.78,47.53,6.36,71.38,1.9,28.58-5.94,66-.58,93,.18.93,1.16.85,1.27-.1,4.19-36.13,13-71.16,18.24-106.91,2.68-18.19,4.87-33.8,9.08-51.4,4.06-17,2.36-34,5-51.35,2.82-18.67,8.6-28.07-8.32-30.73-10.41-1.63-22.79-1.26-32,4.93a1,1,0,0,0-.37.68C1280.84,10.79,1281.57,20.48,1283.14,14.62Z"/><path class="cls-40" d="M1291.65,193.43c.68-6.46,1.12-13.1,1.92-19.46.75-5.95,4-8.4,4.78-13.95a5.64,5.64,0,0,1-4.72,1.61c.2-2.86.87-6.38,1.09-9,2.07-3.59,5-5.39,5.3-10.32a12,12,0,0,1-4.46,4.38c-3.75-10.74.1-27.31,3.66-36.87-1.14.44-2.57.22-3.68,1.1.89-1.89,2.22-3.94,3.22-5.62-7.69.69-3.25-38.71-2.81-46.32,1.18-20.4,4.3-42.56,2.37-63.09a3.42,3.42,0,0,0,0-1.31A35.18,35.18,0,0,0,1282.46,0a1,1,0,0,0-.37.68c-1.25,10.13-.52,19.82,1.05,14-4.15,13.49-1.59,40.61.24,56.53,2.71,23.64,4.78,47.53,6.36,71.38,1.85,27.81-5.49,63.94-1,90.79.37-5.55.28-11.54.54-14.95C1290,209.88,1290.77,201.81,1291.65,193.43Z"/><path class="cls-39" d="M506.76,67.4c3.17,32.72,12.55,64.06,14.39,97.64,1,18.49-.63,34.88,3,52.61,2.81,13.71,2.91,23.55,2.25,37.43-.93,19.62,2.35,40.41,3.54,59.7.9,14.79,2.81,35.65,6.66,48.61,4.53-19,2.72-37.44,3.89-56.77,1.5-24.75,7.09-45.48,13.57-68.4,3.62-12.84,3.15-26.64,6-39.62,3.37-15.28,9.14-26.1,10.95-42,2.56-22.47,5.11-44.68,6.92-67.14,1.9-23.6,2.67-46.38,3.92-69.48.9-16.58,1-19.53-12.48-20.92S542.47,1.58,529,2.11c-13.7.53-22.12-.39-24.66,17.82C501.65,39.29,507.66,63.75,506.76,67.4Z"/><path class="cls-41" d="M577.94,89.42c1.9-23.6,2.67-46.38,3.92-69.48.9-16.58,1-19.53-12.48-20.92a66.31,66.31,0,0,0-10.73-.13c-.31,2.83-.47,5.54-.59,7.78-.58,11-.17,20.46-2.23,31.24-2.15,11.29-1.75,20-1.87,31.24-.08,6.64-1.7,13-1.46,19.61.35,9.7,3.66,24.18-.68,33-4.1,8.33-8.6,4.51-14.33,7.17,2.89,3,7.08,3.74,10.72,3.21-2.45,2.83-5.36,3.67-8.22,5.43,1.86,4.53,6,1.49,8.66,3.87,4.3,3.9,1.39,12.93.7,18.26-1,7.4,2.13,14.21-1.83,20.9-3.8,6.42-7.65,3.11-12.92,4.28,4.07,5.7,9.42,2.65,14.22,5-1.09,4.75-9.67,4.47-13.12,6.09,2.56,2.61,7.72,2.7,9.69,4.94s.09,7.73-.3,11.1c-1.2,10.43-.82,19.4-8.83,23.59,1.85,3.27,5.58.93,5.36,5.32,0,.76-2.65,1.8-3,3-.4,1.58,1,2.39.73,3.8a203.13,203.13,0,0,0-2.14,29.25c-.13,9-1.85,16.64-3.08,25.38-1.11,7.9,1.06,15.68,1,23.66-.08,10.33-1.5,26,1.44,35.69a5.4,5.4,0,0,0,.48-.56c3.87-18.18,2.27-35.93,3.39-54.48,1.5-24.75,7.09-45.48,13.57-68.4,3.62-12.84,3.15-26.64,6-39.62,3.37-15.28,9.14-26.1,10.95-42C573.58,134.09,576.13,111.88,577.94,89.42Z"/><path class="cls-42" d="M568.55,169.18c-3,9.91-6,19.86-8,30.16s-2.9,20.85-4.52,31.36-4.5,20.66-7.08,30.72a246,246,0,0,0-6,30.75s-.55,3.86-1.17,9.69-1.24,13.65-1.62,21.51-.59,15.73-.67,21.64l-.1,9.88c-.54,11.9-1.5,11.92-2.08,0,0-21.08.58-42.3,3.36-63.22A247.41,247.41,0,0,1,547,260.59c2.68-10.1,5.59-20,7.28-30.36s2.9-20.94,5.17-31.27S565.2,178.91,568.55,169.18Z"/><path class="cls-39" d="M1318,25.41c-5.84,19-2.24,57.14.34,79.54,3.82,33.27,6.72,66.89,9,100.44,2.67,40.22-8.35,92.84-.82,130.9.26,1.3,1.64,1.19,1.79-.15,5.9-50.84,18.26-100.13,25.67-150.44,3.77-25.59,6.85-47.56,12.77-72.33,5.72-23.91,3.33-47.82,7-72.27,4-26.26,12.1-39.49-11.71-43.23-14.64-2.3-32.07-1.78-45,6.94a1.33,1.33,0,0,0-.51,1C1314.78,20,1315.82,33.66,1318,25.41Z"/><path class="cls-43" d="M1330,277c1-9.09,1.57-18.44,2.7-27.39,1-8.37,5.65-11.82,6.73-19.63a7.93,7.93,0,0,1-6.65,2.26c.28-4,1.23-9,1.54-12.7,2.91-5.06,7-7.59,7.46-14.53-1.78,2.62-3.84,5.08-6.29,6.17-5.27-15.11.15-38.43,5.16-51.89-1.61.62-3.61.31-5.19,1.56,1.26-2.66,3.14-5.55,4.54-7.92-10.82,1-4.58-54.46-4-65.17,1.67-28.71,6.06-59.9,3.34-88.78a4.64,4.64,0,0,0,0-1.85c-8,.89-15.76,3.19-22.36,7.65a1.33,1.33,0,0,0-.51,1c-1.77,14.26-.73,27.9,1.47,19.65-5.84,19-2.24,57.14.34,79.54,3.82,33.27,6.72,66.89,9,100.44,2.6,39.14-7.72,90-1.33,127.76.52-7.8.39-16.24.75-21C1327.63,300.17,1328.76,288.82,1330,277Z"/><path class="cls-44" d="M1322.34,163c1.38,9.38,2.75,18.77,3.79,28.25a264.22,264.22,0,0,1,1.53,28.75c-.1,9.67-1.09,19.22-1.93,28.69s-1.37,18.94-1.5,28.45c0,0-.33,14.12.59,28.19.42,7,1.08,14,1.7,19.27s1.13,8.71,1.13,8.71c1.09,10.55.17,10.93-2.05.55a356,356,0,0,1-3.68-56.79c.21-9.62.83-19.23,1.78-28.73s2-18.92,2.19-28.4a266,266,0,0,0-.88-28.5C1324.35,181.9,1323.34,172.43,1322.34,163Z"/><path class="cls-39" d="M512.12,25.8C515,39.07,509.85,64,506.53,78.5c-4.94,21.61-9.25,43.56-13.08,65.55-4.59,26.35-.37,62.54-8.24,86.89-.27.83-1.24.6-1.25-.31-.74-34.41-6.12-68.56-8-102.8-.93-17.41-1.62-32.34-4.12-49.47-2.42-16.52.88-32.1-.08-48.75C470.77,11.73,465.93,2,483,2.33c10.47.21,22.72,2.61,31.23,9.92a.94.94,0,0,1,.29.69C514.77,22.61,513.12,31.53,512.12,25.8Z"/><path class="cls-45" d="M486.73,191.23c-.06-6.14.13-12.41-.06-18.48-.18-5.68-3.18-8.5-3.42-13.82a6.23,6.23,0,0,0,4.53,2.29c.08-2.69-.26-6.09-.22-8.6-1.72-3.7-4.4-5.86-4.28-10.52a12.84,12.84,0,0,0,4,4.84c4.74-9.4,2.48-25.5-.14-35,1.1.6,2.53.63,3.55,1.64-.71-1.91-1.83-4-2.66-5.78,7.56,1.93,6.89-35.57,7.18-42.75C496,45.8,495,24.59,498.85,5.76a2.93,2.93,0,0,1,.09-1.23,39.21,39.21,0,0,1,15.25,7.72.94.94,0,0,1,.29.69c.29,9.67-1.36,18.59-2.36,12.86C515,39.07,509.85,64,506.53,78.5c-4.94,21.61-9.25,43.56-13.08,65.55-4.47,25.64-.62,60.58-7.67,84.87.16-5.24.82-10.81.89-14C486.84,206.86,486.81,199.2,486.73,191.23Z"/><path class="cls-46" d="M500.85,105c-1.38,7.07-2.61,14.19-3.64,21.36s-2,14.31-2.78,21.52c-1.64,14.39-2.34,28.92-3.26,43.48,0,0-.71,10.8-1.86,21.57s-2.72,21.45-2.72,21.45c-1.71,7.92-2.65,7.65-2-.49,2-14.16,3.4-28.44,4.32-42.8,1.09-14.49,2-29.09,3.81-43.55q1.44-10.83,3.43-21.5T500.85,105Z"/></g></g><g id="hue"><g class="cls-47"><rect class="cls-48" x="10.49" y="11.49" width="1911.02" height="1068.02"/><path d="M1921,12V1079H11V12H1921m1-1H10V1080H1922V11Z"/></g></g></g></svg>