<?xml version="1.0" encoding="utf-8"?>
<!-- Generator: Adobe Illustrator 23.1.1, SVG Export Plug-In . SVG Version: 6.00 Build 0)  -->
<svg version="1.1" id="Layer_1" xmlns="http://www.w3.org/2000/svg" xmlns:xlink="http://www.w3.org/1999/xlink" x="0px" y="0px"
	 viewBox="0 0 508.5 75.9" style="enable-background:new 0 0 508.5 75.9;" xml:space="preserve">
<style type="text/css">
	.st0{fill:#800000;}
	.st1{fill:#ED1C24;}
</style>
<g>
	<g>
		<path class="st0" d="M470.8,75.9c-1.5-1.9-2.9-3.8-4.4-5.7c-0.8-1.1-1.7-2.2-2.6-3.3c-0.6-0.8-0.6-1,0.4-1.4
			c2.2-1,4.3-1.9,6.5-2.9c0-0.8,0-1.6,0-2.4c-5.8,1.5-11.6,2.9-17.3,4.4c-0.3-0.3-0.2-0.5-0.2-0.8c0-15.4,0-30.9,0-46.3
			c0-0.6,0.2-0.9,0.8-0.9c3.7-0.5,7.4-1.1,11.1-1.6c0.5-0.1,0.9-0.2,1.5,0c0,12.5,0,24.9,0,37.5c1.4-0.2,2.7-0.5,4.1-0.7
			c0-11.7,0-23.3,0-35.1c4.5-0.6,8.9-1.3,13.4-1.9c0,0.3,0,0.6,0,0.8c0,16.9,0,33.8,0,50.7c0,0.6-0.2,1-0.7,1.4
			c-4,2.7-7.9,5.4-11.9,8.1c-0.1,0.1-0.2,0.2-0.3,0.3C471.1,75.9,470.9,75.9,470.8,75.9z"/>
		<path class="st0" d="M1.5,5.9c0.1-0.1,0.2-0.3,0.3-0.4C4.2,5.2,6.5,5,8.9,4.8c4.4-0.4,8.8-0.8,13.3-1.2c1.2-0.1,2.4-0.2,3.6-0.3
			c0.4,0,0.6,0.2,0.5,0.5c-0.7,4.6-1.3,9.1-2,13.8c-2.2,0.3-4.4,0-6.7,0.1c0,4,0,8,0,12.1c2,0,4,0,6.1,0c-0.3,2.1-0.6,4.2-0.9,6.3
			c-1.8,0-3.5,0-5.2,0c0,4.9,0,9.7,0,14.6c3,0.4,6.1,0.8,9.1,1.2c0.2,0.9-0.1,1.8-0.2,2.6c-0.4,3.6-0.9,7.2-1.4,10.8
			c-0.1,0.7-0.3,0.9-1,0.8c-4-0.6-8-1.1-12-1.6c-3.4-0.4-6.7-0.9-10.1-1.3c-0.2,0-0.3-0.2-0.5-0.3C1.5,43.9,1.5,24.9,1.5,5.9z"/>
		<path class="st0" d="M505,4c-0.3,0.8-0.2,1.6-0.2,2.3c-0.2,3-0.3,6-0.5,9c-0.2,4.2-0.5,8.5-0.8,12.7c-0.2,4.1-0.5,8.2-0.7,12.3
			c-0.1,1.3-0.1,2.5-0.2,3.8c0,0.2-0.1,0.4-0.1,0.6c-4.2,0-8.4,0-12.7,0c-0.1-1.7-0.2-3.4-0.2-5c-0.2-4.9-0.4-9.7-0.7-14.6
			c-0.1-3.1-0.3-6.1-0.4-9.2c-0.2-3.9-0.4-7.9-0.6-11.8c0-0.4-0.2-0.8,0.2-1.2c0.1,0,0.3,0,0.5,0c5.2,0,10.4,0,15.6,0
			c0.3,0,0.6,0,0.8,0.2C505,3.4,505,3.7,505,4z"/>
		<path class="st0" d="M314.3,16.9c5.8-0.8,11.5-1.5,17.3-2.3c0,18.2,0,36.2,0,54.4c-4.4-0.6-8.9-1.3-13.4-1.9c0-14.8,0-29.5,0-44.3
			c-1.3,0.2-2.6,0.3-3.9,0.5c0,13.7,0,27.3,0,41.1c-4.5,0-8.9,0-13.4,0c0-18.8,0-37.5,0-56.2c4.4-0.6,8.9-1.3,13.4-1.9
			C314.3,9.9,314.3,13.4,314.3,16.9z"/>
		<path class="st0" d="M159.2,14.8c0,0.4,0,0.6,0,0.9c0,15,0,30,0,45c0,0.7-0.2,1-0.9,1.1c-5.3,0.9-10.6,1.9-15.9,2.8
			c-0.2,0-0.4,0.1-0.6,0.1c0,3.3,0,6.7,0,10.1c-4.5-0.6-8.8-1.2-13.1-1.8c-0.3-0.3-0.3-0.5-0.3-0.8c0-17.6,0-35.2,0-52.8
			c0-0.6,0.2-0.9,0.9-1c5.7-0.7,11.3-1.4,17-2.1c4-0.5,8.1-1,12.1-1.5C158.7,14.7,158.9,14.8,159.2,14.8z M141.9,23.4
			c0,10.5,0,20.8,0,31.3c1.3-0.2,2.6-0.4,3.8-0.6c0-10.5,0-20.9,0-31.4C144.4,22.9,143.2,23.2,141.9,23.4z"/>
		<path class="st0" d="M262.5,64.4c-0.3,0.2-0.5,0.2-0.7,0.2c-9.9,0-19.8,0-29.6,0c-0.6,0-0.8-0.2-0.8-0.8c0-15.3,0-30.7,0-46
			c0-0.3,0-0.6,0.3-0.8c10.2-0.7,20.4-1.5,30.8-2.3C262.5,31.4,262.5,47.9,262.5,64.4z M245,55.3c1.4-0.3,2.8-0.5,4.2-0.8
			c0-10.6,0-21.2,0-31.8c-1.4,0.2-2.8,0.5-4.2,0.7C245,34,245,44.6,245,55.3z"/>
		<path class="st0" d="M163.4,66c0-16.6,0-33,0-49.6c10.3-0.6,20.4-1.1,30.5-1.7c0.4,0.3,0.4,0.6,0.4,0.9c0,9.9,0,19.8,0,29.8
			c0,0.5-0.1,0.8-0.7,0.8c-3.7,0.3-7.3,0.7-11,1c-1.9,0.2-3.8,0.4-5.7,0.5c0,3.6,0,7.2,0,10.8c1.4-0.3,2.7-0.6,4.1-0.8
			c0-2,0-3.9,0-5.9c4.5,0,8.9,0,13.4,0c0,3.9,0,7.6,0,11.5C183.9,64.2,173.7,65.1,163.4,66z M180.7,41.6c0-6.2,0-12.4,0-18.6
			c-1.3,0.2-2.6,0.4-3.9,0.6c0,6.2,0,12.4,0,18.6C178.1,42,179.4,41.8,180.7,41.6z"/>
		<path class="st0" d="M335.6,16.4c2.1-0.1,4-0.2,6-0.3c4.3-0.2,8.5-0.5,12.8-0.7c2.4-0.1,4.8-0.2,7.2-0.4c1.4-0.1,2.8-0.1,4.2-0.2
			c0.4,0,0.6,0.2,0.6,0.6c0,10.1,0,20.2,0,30.3c0,0.1,0,0.1-0.1,0.4c-5.7,0.5-11.5,1.1-17.3,1.6c0,3.6,0,7.2,0,10.8
			c1.4-0.3,2.7-0.5,4.1-0.8c0.1-2-0.1-4,0.1-6c4.5,0,8.8,0,13.1,0c0.4,0.4,0.4,11,0.1,11.5c-10.2,0.9-20.5,1.8-30.8,2.7
			C335.6,49.4,335.6,32.9,335.6,16.4z M353,23c-1.3,0.2-2.6,0.4-3.9,0.6c0,6.3,0,12.4,0,18.6c1.3-0.2,2.6-0.4,3.9-0.6
			C353,35.4,353,29.2,353,23z"/>
		<path class="st0" d="M111.1,32.5c0-3.3,0-6.6,0-9.9c-1.4,0.3-2.7,0.5-4.1,0.8c-0.1,1.8,0.1,3.7-0.1,5.5c-4.4,0-8.8,0-13.1,0
			c-0.4-0.4-0.4-11-0.1-11.5c10.2-0.9,20.5-1.8,30.8-2.7c0,0.3,0,0.5,0,0.7c0,16.1,0,32.2,0,48.3c0,0.6-0.1,0.8-0.8,0.8
			c-4,0-7.9,0-11.9,0c-0.2,0-0.5,0.1-0.8-0.2c0-0.6,0-1.3,0-2c-5.8,1.2-11.5,2.5-17.3,3.7c0-10.7,0-21.3,0-32
			C99.6,33.5,105.3,33,111.1,32.5z M107.2,38.6c0,5.4,0,10.8,0,16.1c1.3-0.2,2.6-0.4,3.9-0.6c0-5.4,0-10.8,0-16.2
			C109.8,38.2,108.5,38.4,107.2,38.6z"/>
		<path class="st0" d="M61.1,27c-4.5,0.6-8.8,1.2-13.2,1.9c-0.3-1.1,0-2.2-0.2-3.4c-1.3,0.3-2.6,0.5-3.9,0.8c0,3,0,5.9,0,8.9
			c5.8-0.8,11.5-1.6,17.3-2.4c0,10.3,0,20.6,0,30.9c-10.3,0.8-20.5,1.5-30.8,2.3c0-5.7,0-11.3,0-17.2c4.4-0.6,8.8-1.3,13.3-1.9
			c0,2.9,0,5.7,0,8.7c1.4-0.2,2.7-0.4,4-0.6c0-4.6,0-9.2,0-13.8c-5.8,0.8-11.5,1.6-17.3,2.4c0-9,0-17.9,0-26.9
			c10.3-0.6,20.5-1.3,30.7-1.9C61.1,18.9,61.1,22.9,61.1,27z"/>
		<path class="st0" d="M396,17.8c0,11,0,21.9,0,32.8c3.8,0.3,7.5,0.6,11.4,0.9c-0.6,4.8-1.2,9.4-1.8,14.1c-1.1,0.2-2.1-0.1-3.1-0.2
			c-4.1-0.5-8.3-1.1-12.4-1.6c-3.2-0.4-6.4-0.8-9.5-1.2c-0.4,0-0.6-0.2-0.6-0.6c0-0.2,0-0.4,0-0.6c0-18.1,0-36.2,0-54.3
			c0-1.5,0-1.5,1.5-1.6c3.5-0.3,7-0.5,10.5-0.8c4.9-0.4,9.8-0.8,14.7-1.2c0.3,0,0.5,0,0.8,0c0.2,0.9-0.1,1.7-0.2,2.5
			c-0.5,3.7-1.1,7.5-1.6,11.2c-0.1,0.5-0.3,0.7-0.8,0.7C402,17.8,399,17.8,396,17.8z"/>
		<path class="st0" d="M78.6,53.4c4.2,0,8.5,0,12.8,0c-0.7,4.3-1.3,8.4-2,12.4c-0.4,0.3-0.8,0.2-1.2,0.2c-3.1-0.2-6.3-0.4-9.4-0.7
			c-4.4-0.3-8.8-0.6-13.1-0.9c-0.5,0-0.6-0.4-0.6-0.8c0-2,0-3.9,0-5.9c0-13.4,0-26.8,0-40.2c0-0.8,0.3-1,1-1c4.1-0.3,8.1-0.7,12.2-1
			c2.6-0.2,5.2-0.4,7.8-0.6c1.1-0.1,2.2-0.2,3.5-0.3c-0.6,4.3-1.2,8.5-1.9,12.8c-3.1,0-6.1,0-9.1,0C78.6,36.1,78.6,44.7,78.6,53.4z"
			/>
		<path class="st0" d="M430.5,27.3c-1.3,0.1-2.6,0.2-3.9,0.4c-0.2-1.2,0-2.2,0.1-3.3c0.1-1.9,0.3-3.8,0.4-5.7c0-0.6,0.1-1.2,0.1-1.8
			c0-0.3,0.2-0.5,0.5-0.5c0.9-0.1,1.7-0.2,2.7-0.3c0-2.5,0-5,0-7.6c4.5-0.6,8.9-1.3,13.4-1.9c0,2.9,0,5.7,0,8.6
			c2.2-0.1,4.2-0.3,6.4-0.4c-0.1,2-0.3,3.8-0.4,5.6c-0.1,1.7-0.2,3.4-0.4,5.1c0,0.6-0.5,0.6-0.9,0.6c-1.5,0.1-3,0.2-4.7,0.4
			c0,12.8,0,25.5,0,38.2c-0.3,0-0.5,0.1-0.7,0.1c-4,0-8,0-12,0c-0.6,0-0.7-0.2-0.7-0.8c0-11.9,0-23.8,0-35.8
			C430.5,27.8,430.5,27.6,430.5,27.3z"/>
		<path class="st0" d="M210.1,27.3c-1.4,0.1-2.7,0.2-4,0.4c0.3-3.8,0.5-7.4,0.8-11.1c1-0.4,2.1-0.3,3.2-0.6c0-2.5,0-5,0-7.6
			c4.5-0.6,8.9-1.3,13.4-1.9c0,2.9,0,5.7,0,8.6c2.2-0.1,4.2-0.3,6.4-0.4c-0.3,3.8-0.5,7.5-0.8,11.3c-1.8,0.2-3.6,0.3-5.5,0.5
			c0,0.3,0,0.5,0,0.8c0,12.2,0,24.4,0,36.6c0,0.6-0.2,0.9-0.8,0.9c-3.9,0-7.8,0-11.8,0c-0.2,0-0.4,0-0.8,0
			C210.1,52.1,210.1,39.7,210.1,27.3z"/>
		<path class="st0" d="M291.7,6.4c0,2.9,0,5.7,0,8.6c2.1-0.1,4.2-0.3,6.4-0.4c-0.3,3.8-0.5,7.5-0.8,11.3c-1.9,0.2-3.7,0.3-5.5,0.5
			c0,12.7,0,25.4,0,38c-0.5,0.4-12.9,0.4-13.5,0c0-12.3,0-24.6,0-37c-1.3,0.1-2.6,0.2-4,0.3c0.3-3.8,0.5-7.4,0.8-11.1
			c1-0.5,2.1-0.3,3.2-0.6c0-2.5,0-5,0-7.6C282.8,7.7,287.2,7,291.7,6.4z"/>
		<path class="st0" d="M410.9,17.5c4.5-0.6,8.9-1.3,13.1-1.9c0.3,0.4,0.2,0.6,0.2,0.8c0,15.8,0,31.6,0,47.4c0,0.6-0.2,0.8-0.8,0.8
			c-4,0-8,0-11.9,0c-0.2,0-0.4,0-0.7,0C410.9,48.9,410.9,33.2,410.9,17.5z"/>
		<path class="st0" d="M504.4,49.6c0,0.1,0,0.3,0,0.5c0,4.6,0,9.1,0,13.7c0,0.6-0.2,0.8-0.8,0.8c-4.9,0-9.8,0-14.7,0
			c-0.6,0-0.7-0.2-0.7-0.8c0-4.6,0-9.2,0-13.8c0-0.5,0.2-0.8,0.7-0.8c4.9,0,9.8,0,14.7,0C503.9,49.3,504.2,49.3,504.4,49.6z"/>
		<path class="st0" d="M424.2,4.2c0,2.8,0,5.3,0,8c-4.4,0.6-8.8,1.3-13.3,1.9c0-2.7,0-5.3,0-8C415.3,5.5,419.7,4.8,424.2,4.2z"/>
	</g>
	<path class="st1" d="M474.3,74.1c-1.5-1.9-2.9-3.8-4.4-5.7c-0.8-1.1-1.7-2.2-2.6-3.3c-0.6-0.8-0.6-1,0.4-1.4c2.2-1,4.3-1.9,6.5-2.9
		c0-0.8,0-1.6,0-2.4c-5.8,1.5-11.6,2.9-17.3,4.4c-0.3-0.3-0.2-0.5-0.2-0.8c0-15.4,0-30.9,0-46.3c0-0.6,0.2-0.9,0.8-0.9
		c3.7-0.5,7.4-1.1,11.1-1.6c0.5-0.1,0.9-0.2,1.5,0c0,12.5,0,24.9,0,37.5c1.4-0.2,2.7-0.5,4.1-0.7c0-11.7,0-23.3,0-35.1
		c4.5-0.6,8.9-1.3,13.4-1.9c0,0.3,0,0.6,0,0.8c0,16.9,0,33.8,0,50.7c0,0.6-0.2,1-0.7,1.4c-4,2.7-7.9,5.4-11.9,8.1
		c-0.1,0.1-0.2,0.2-0.3,0.3C474.6,74.1,474.5,74.1,474.3,74.1z"/>
	<path class="st1" d="M5,4.1C5.1,4,5.2,3.8,5.3,3.7c2.4-0.2,4.8-0.4,7.1-0.7c4.4-0.4,8.8-0.8,13.3-1.2c1.2-0.1,2.4-0.2,3.6-0.3
		c0.4,0,0.6,0.2,0.5,0.5c-0.7,4.6-1.3,9.1-2,13.8c-2.2,0.3-4.4,0-6.7,0.1c0,4,0,8,0,12.1c2,0,4,0,6.1,0c-0.3,2.1-0.6,4.2-0.9,6.3
		c-1.8,0-3.5,0-5.2,0c0,4.9,0,9.7,0,14.6c3,0.4,6.1,0.8,9.1,1.2c0.2,0.9-0.1,1.8-0.2,2.6c-0.4,3.6-0.9,7.2-1.4,10.8
		c-0.1,0.7-0.3,0.9-1,0.8c-4-0.6-8-1.1-12-1.6c-3.4-0.4-6.7-0.9-10.1-1.3c-0.2,0-0.3-0.2-0.5-0.3C5,42.1,5,23.1,5,4.1z"/>
	<path class="st1" d="M508.5,2.2c-0.3,0.8-0.2,1.6-0.2,2.3c-0.2,3-0.3,6-0.5,9c-0.2,4.2-0.5,8.5-0.8,12.7c-0.2,4.1-0.5,8.2-0.7,12.3
		c-0.1,1.3-0.1,2.5-0.2,3.8c0,0.2-0.1,0.4-0.1,0.6c-4.2,0-8.4,0-12.7,0c-0.1-1.7-0.2-3.4-0.2-5c-0.2-4.9-0.4-9.7-0.7-14.6
		c-0.1-3.1-0.3-6.1-0.4-9.2c-0.2-3.9-0.4-7.9-0.6-11.8c0-0.4-0.2-0.8,0.2-1.2c0.1,0,0.3,0,0.5,0c5.2,0,10.4,0,15.6,0
		c0.3,0,0.6,0,0.8,0.2C508.5,1.6,508.5,1.9,508.5,2.2z"/>
	<path class="st1" d="M317.9,15.2c5.8-0.8,11.5-1.5,17.3-2.3c0,18.2,0,36.2,0,54.4c-4.4-0.6-8.9-1.3-13.4-1.9c0-14.8,0-29.5,0-44.3
		c-1.3,0.2-2.6,0.3-3.9,0.5c0,13.7,0,27.3,0,41.1c-4.5,0-8.9,0-13.4,0c0-18.8,0-37.5,0-56.2c4.4-0.6,8.9-1.3,13.4-1.9
		C317.9,8.1,317.9,11.6,317.9,15.2z"/>
	<path class="st1" d="M162.8,13c0,0.4,0,0.6,0,0.9c0,15,0,30,0,45c0,0.7-0.2,1-0.9,1.1c-5.3,0.9-10.6,1.9-15.9,2.8
		c-0.2,0-0.4,0.1-0.6,0.1c0,3.3,0,6.7,0,10.1c-4.5-0.6-8.8-1.2-13.1-1.8c-0.3-0.3-0.3-0.5-0.3-0.8c0-17.6,0-35.2,0-52.8
		c0-0.6,0.2-0.9,0.9-1c5.7-0.7,11.3-1.4,17-2.1c4-0.5,8.1-1,12.1-1.5C162.2,13,162.4,13,162.8,13z M145.5,21.7c0,10.5,0,20.8,0,31.3
		c1.3-0.2,2.6-0.4,3.8-0.6c0-10.5,0-20.9,0-31.4C148,21.2,146.7,21.4,145.5,21.7z"/>
	<path class="st1" d="M266.1,62.6c-0.3,0.2-0.5,0.2-0.7,0.2c-9.9,0-19.8,0-29.6,0c-0.6,0-0.8-0.2-0.8-0.8c0-15.3,0-30.7,0-46
		c0-0.3,0-0.6,0.3-0.8c10.2-0.7,20.4-1.5,30.8-2.3C266.1,29.6,266.1,46.1,266.1,62.6z M248.5,53.5c1.4-0.3,2.8-0.5,4.2-0.8
		c0-10.6,0-21.2,0-31.8c-1.4,0.2-2.8,0.5-4.2,0.7C248.5,32.3,248.5,42.8,248.5,53.5z"/>
	<path class="st1" d="M166.9,64.2c0-16.6,0-33,0-49.6c10.3-0.6,20.4-1.1,30.5-1.7c0.4,0.3,0.4,0.6,0.4,0.9c0,9.9,0,19.8,0,29.8
		c0,0.5-0.1,0.8-0.7,0.8c-3.7,0.3-7.3,0.7-11,1c-1.9,0.2-3.8,0.4-5.7,0.5c0,3.6,0,7.2,0,10.8c1.4-0.3,2.7-0.6,4.1-0.8
		c0-2,0-3.9,0-5.9c4.5,0,8.9,0,13.4,0c0,3.9,0,7.6,0,11.5C187.5,62.4,177.2,63.3,166.9,64.2z M184.2,39.8c0-6.2,0-12.4,0-18.6
		c-1.3,0.2-2.6,0.4-3.9,0.6c0,6.2,0,12.4,0,18.6C181.6,40.2,182.9,40,184.2,39.8z"/>
	<path class="st1" d="M339.2,14.6c2.1-0.1,4-0.2,6-0.3c4.3-0.2,8.5-0.5,12.8-0.7c2.4-0.1,4.8-0.2,7.2-0.4c1.4-0.1,2.8-0.1,4.2-0.2
		c0.4,0,0.6,0.2,0.6,0.6c0,10.1,0,20.2,0,30.3c0,0.1,0,0.1-0.1,0.4c-5.7,0.5-11.5,1.1-17.3,1.6c0,3.6,0,7.2,0,10.8
		c1.4-0.3,2.7-0.5,4.1-0.8c0.1-2-0.1-4,0.1-6c4.5,0,8.8,0,13.1,0c0.4,0.4,0.4,11,0.1,11.5c-10.2,0.9-20.5,1.8-30.8,2.7
		C339.2,47.6,339.2,31.2,339.2,14.6z M356.5,21.2c-1.3,0.2-2.6,0.4-3.9,0.6c0,6.3,0,12.4,0,18.6c1.3-0.2,2.6-0.4,3.9-0.6
		C356.5,33.6,356.5,27.4,356.5,21.2z"/>
	<path class="st1" d="M114.7,30.7c0-3.3,0-6.6,0-9.9c-1.4,0.3-2.7,0.5-4.1,0.8c-0.1,1.8,0.1,3.7-0.1,5.5c-4.4,0-8.8,0-13.1,0
		c-0.4-0.4-0.4-11-0.1-11.5c10.2-0.9,20.5-1.8,30.8-2.7c0,0.3,0,0.5,0,0.7c0,16.1,0,32.2,0,48.3c0,0.6-0.1,0.8-0.8,0.8
		c-4,0-7.9,0-11.9,0c-0.2,0-0.5,0.1-0.8-0.2c0-0.6,0-1.3,0-2c-5.8,1.2-11.5,2.5-17.3,3.7c0-10.7,0-21.3,0-32
		C103.1,31.8,108.9,31.2,114.7,30.7z M110.7,36.8c0,5.4,0,10.8,0,16.1c1.3-0.2,2.6-0.4,3.9-0.6c0-5.4,0-10.8,0-16.2
		C113.3,36.4,112,36.6,110.7,36.8z"/>
	<path class="st1" d="M64.6,25.2c-4.5,0.6-8.8,1.2-13.2,1.9c-0.3-1.1,0-2.2-0.2-3.4c-1.3,0.3-2.6,0.5-3.9,0.8c0,3,0,5.9,0,8.9
		c5.8-0.8,11.5-1.6,17.3-2.4c0,10.3,0,20.6,0,30.9c-10.3,0.8-20.5,1.5-30.8,2.3c0-5.7,0-11.3,0-17.2c4.4-0.6,8.8-1.3,13.3-1.9
		c0,2.9,0,5.7,0,8.7c1.4-0.2,2.7-0.4,4-0.6c0-4.6,0-9.2,0-13.8c-5.8,0.8-11.5,1.6-17.3,2.4c0-9,0-17.9,0-26.9
		c10.3-0.6,20.5-1.3,30.7-1.9C64.6,17.1,64.6,21.1,64.6,25.2z"/>
	<path class="st1" d="M399.5,16c0,11,0,21.9,0,32.8c3.8,0.3,7.5,0.6,11.4,0.9c-0.6,4.8-1.2,9.4-1.8,14.1c-1.1,0.2-2.1-0.1-3.1-0.2
		c-4.1-0.5-8.3-1.1-12.4-1.6c-3.2-0.4-6.4-0.8-9.5-1.2c-0.4,0-0.6-0.2-0.6-0.6c0-0.2,0-0.4,0-0.6c0-18.1,0-36.2,0-54.3
		c0-1.5,0-1.5,1.5-1.6c3.5-0.3,7-0.5,10.5-0.8c4.9-0.4,9.8-0.8,14.7-1.2c0.3,0,0.5,0,0.8,0c0.2,0.9-0.1,1.7-0.2,2.5
		c-0.5,3.7-1.1,7.5-1.6,11.2c-0.1,0.5-0.3,0.7-0.8,0.7C405.5,16,402.6,16,399.5,16z"/>
	<path class="st1" d="M82.2,51.6c4.2,0,8.5,0,12.8,0c-0.7,4.3-1.3,8.4-2,12.4c-0.4,0.3-0.8,0.2-1.2,0.2c-3.1-0.2-6.3-0.4-9.4-0.7
		c-4.4-0.3-8.8-0.6-13.1-0.9c-0.5,0-0.6-0.4-0.6-0.8c0-2,0-3.9,0-5.9c0-13.4,0-26.8,0-40.2c0-0.8,0.3-1,1-1c4.1-0.3,8.1-0.7,12.2-1
		c2.6-0.2,5.2-0.4,7.8-0.6c1.1-0.1,2.2-0.2,3.5-0.3c-0.6,4.3-1.2,8.5-1.9,12.8c-3.1,0-6.1,0-9.1,0C82.2,34.3,82.2,42.9,82.2,51.6z"
		/>
	<path class="st1" d="M434.1,25.5c-1.3,0.1-2.6,0.2-3.9,0.4c-0.2-1.2,0-2.2,0.1-3.3c0.1-1.9,0.3-3.8,0.4-5.7c0-0.6,0.1-1.2,0.1-1.8
		c0-0.3,0.2-0.5,0.5-0.5c0.9-0.1,1.7-0.2,2.7-0.3c0-2.5,0-5,0-7.6c4.5-0.6,8.9-1.3,13.4-1.9c0,2.9,0,5.7,0,8.6
		c2.2-0.1,4.2-0.3,6.4-0.4c-0.1,2-0.3,3.8-0.4,5.6c-0.1,1.7-0.2,3.4-0.4,5.1c0,0.6-0.5,0.6-0.9,0.6c-1.5,0.1-3,0.2-4.7,0.4
		c0,12.8,0,25.5,0,38.2c-0.3,0-0.5,0.1-0.7,0.1c-4,0-8,0-12,0c-0.6,0-0.7-0.2-0.7-0.8c0-11.9,0-23.8,0-35.8
		C434.1,26.1,434.1,25.8,434.1,25.5z"/>
	<path class="st1" d="M213.6,25.5c-1.4,0.1-2.7,0.2-4,0.4c0.3-3.8,0.5-7.4,0.8-11.1c1-0.4,2.1-0.3,3.2-0.6c0-2.5,0-5,0-7.6
		c4.5-0.6,8.9-1.3,13.4-1.9c0,2.9,0,5.7,0,8.6c2.2-0.1,4.2-0.3,6.4-0.4c-0.3,3.8-0.5,7.5-0.8,11.3c-1.8,0.2-3.6,0.3-5.5,0.5
		c0,0.3,0,0.5,0,0.8c0,12.2,0,24.4,0,36.6c0,0.6-0.2,0.9-0.8,0.9c-3.9,0-7.8,0-11.8,0c-0.2,0-0.4,0-0.8,0
		C213.6,50.3,213.6,38,213.6,25.5z"/>
	<path class="st1" d="M295.2,4.6c0,2.9,0,5.7,0,8.6c2.1-0.1,4.2-0.3,6.4-0.4c-0.3,3.8-0.5,7.5-0.8,11.3c-1.9,0.2-3.7,0.3-5.5,0.5
		c0,12.7,0,25.4,0,38c-0.5,0.4-12.9,0.4-13.5,0c0-12.3,0-24.6,0-37c-1.3,0.1-2.6,0.2-4,0.3c0.3-3.8,0.5-7.4,0.8-11.1
		c1-0.5,2.1-0.3,3.2-0.6c0-2.5,0-5,0-7.6C286.3,5.9,290.7,5.3,295.2,4.6z"/>
	<path class="st1" d="M414.4,15.7c4.5-0.6,8.9-1.3,13.1-1.9c0.3,0.4,0.2,0.6,0.2,0.8c0,15.8,0,31.6,0,47.4c0,0.6-0.2,0.8-0.8,0.8
		c-4,0-8,0-11.9,0c-0.2,0-0.4,0-0.7,0C414.4,47.1,414.4,31.4,414.4,15.7z"/>
	<path class="st1" d="M508,47.9c0,0.1,0,0.3,0,0.5c0,4.6,0,9.1,0,13.7c0,0.6-0.2,0.8-0.8,0.8c-4.9,0-9.8,0-14.7,0
		c-0.6,0-0.7-0.2-0.7-0.8c0-4.6,0-9.2,0-13.8c0-0.5,0.2-0.8,0.7-0.8c4.9,0,9.8,0,14.7,0C507.5,47.5,507.7,47.5,508,47.9z"/>
	<path class="st1" d="M427.8,2.4c0,2.8,0,5.3,0,8c-4.4,0.6-8.8,1.3-13.3,1.9c0-2.7,0-5.3,0-8C418.9,3.7,423.3,3,427.8,2.4z"/>
</g>
</svg>
