<?xml version="1.0" encoding="utf-8"?>
<!-- Generator: Adobe Illustrator 24.0.1, SVG Export Plug-In . SVG Version: 6.00 Build 0)  -->
<svg version="1.1" id="Layer_1" xmlns="http://www.w3.org/2000/svg" xmlns:xlink="http://www.w3.org/1999/xlink" x="0px" y="0px"
	 viewBox="0 0 99.3 99.3" style="enable-background:new 0 0 99.3 99.3;" xml:space="preserve">
<style type="text/css">
	.st0{fill:#EB740D;}
	.st1{fill:#FFE81F;}
	.st2{fill:url(#SVGID_1_);}
	.st3{opacity:0.7;}
	.st4{clip-path:url(#XMLID_2_);fill-rule:evenodd;clip-rule:evenodd;fill:#B5BBD4;}
	.st5{clip-path:url(#XMLID_3_);fill-rule:evenodd;clip-rule:evenodd;fill:#B5BBD4;}
	
		.st6{clip-path:url(#XMLID_3_);fill-rule:evenodd;clip-rule:evenodd;fill:none;stroke:#000000;stroke-width:0.5102;stroke-miterlimit:10;}
	.st7{fill-rule:evenodd;clip-rule:evenodd;fill:#D0D2E3;stroke:#000000;stroke-miterlimit:10;}
	.st8{fill:#FFFFFF;}
	.st9{clip-path:url(#XMLID_4_);fill-rule:evenodd;clip-rule:evenodd;fill:#B5BBD4;}
	.st10{clip-path:url(#XMLID_5_);fill-rule:evenodd;clip-rule:evenodd;fill:#B5BBD4;}
	
		.st11{clip-path:url(#XMLID_5_);fill-rule:evenodd;clip-rule:evenodd;fill:none;stroke:#000000;stroke-width:0.5102;stroke-miterlimit:10;}
	.st12{clip-path:url(#XMLID_6_);fill-rule:evenodd;clip-rule:evenodd;fill:#B5BBD4;}
	.st13{fill-rule:evenodd;clip-rule:evenodd;fill:#808285;stroke:#000000;stroke-miterlimit:10;}
	.st14{fill:#A7A9AC;}
	.st15{clip-path:url(#XMLID_7_);fill-rule:evenodd;clip-rule:evenodd;fill:#B5BBD4;}
	.st16{clip-path:url(#XMLID_8_);fill-rule:evenodd;clip-rule:evenodd;fill:#B5BBD4;}
	.st17{clip-path:url(#XMLID_9_);fill-rule:evenodd;clip-rule:evenodd;fill:#B5BBD4;}
	.st18{clip-path:url(#XMLID_9_);}
	.st19{fill:#202020;}
	.st20{fill-rule:evenodd;clip-rule:evenodd;fill:#006CB7;stroke:#000000;stroke-width:0.6803;stroke-miterlimit:10;}
	.st21{fill-rule:evenodd;clip-rule:evenodd;fill:#2E95CE;}
	.st22{fill-rule:evenodd;clip-rule:evenodd;fill:#FFF200;}
	.st23{fill-rule:evenodd;clip-rule:evenodd;fill:#ED1846;}
	.st24{fill-rule:evenodd;clip-rule:evenodd;fill:#006CB7;stroke:#000000;stroke-miterlimit:10;}
	.st25{clip-path:url(#XMLID_10_);fill-rule:evenodd;clip-rule:evenodd;fill:#A7A9AC;}
	
		.st26{clip-path:url(#XMLID_10_);fill-rule:evenodd;clip-rule:evenodd;fill:none;stroke:#474A4C;stroke-width:0.6803;stroke-miterlimit:10;}
	.st27{fill:#2E95CE;}
	
		.st28{fill-rule:evenodd;clip-rule:evenodd;fill:none;stroke:#000000;stroke-linecap:round;stroke-linejoin:round;stroke-miterlimit:10;}
	.st29{clip-path:url(#XMLID_11_);fill-rule:evenodd;clip-rule:evenodd;fill:#B5BBD4;}
	.st30{clip-path:url(#XMLID_11_);}
	.st31{fill-rule:evenodd;clip-rule:evenodd;fill:#1C1C45;}
	.st32{fill-rule:evenodd;clip-rule:evenodd;fill:#FFFFFF;}
	
		.st33{clip-path:url(#XMLID_12_);fill-rule:evenodd;clip-rule:evenodd;fill:none;stroke:#474A4C;stroke-width:0.6803;stroke-miterlimit:10;}
	
		.st34{clip-path:url(#XMLID_13_);fill-rule:evenodd;clip-rule:evenodd;fill:none;stroke:#474A4C;stroke-width:0.6803;stroke-miterlimit:10;}
	.st35{clip-path:url(#XMLID_14_);fill-rule:evenodd;clip-rule:evenodd;fill:#B5BBD4;}
	.st36{clip-path:url(#XMLID_15_);fill-rule:evenodd;clip-rule:evenodd;fill:#B5BBD4;}
	.st37{clip-path:url(#XMLID_16_);fill-rule:evenodd;clip-rule:evenodd;fill:#B5BBD4;}
</style>
<circle class="st0" cx="40.9" cy="69.2" r="29"/>
<circle class="st1" cx="40.9" cy="63" r="29"/>
<linearGradient id="SVGID_1_" gradientUnits="userSpaceOnUse" x1="40.933" y1="71.4322" x2="40.933" y2="38.115">
	<stop  offset="0" style="stop-color:#FFFFFF;stop-opacity:0"/>
	<stop  offset="0.91" style="stop-color:#FFFFFF;stop-opacity:0.9297"/>
	<stop  offset="0.9788" style="stop-color:#FFFFFF"/>
</linearGradient>
<path class="st2" d="M65.6,63c0,2.4-0.3,4.7-1,6.8c-3-10.3-12.4-17.8-23.7-17.8c-11.2,0-20.7,7.5-23.7,17.8c-0.6-2.2-1-4.5-1-6.8
	c0-13.6,11-24.6,24.6-24.6C54.5,38.4,65.6,49.4,65.6,63z"/>
<g>
	<path class="st3" d="M80.2,30.6c-0.2,0-0.5-0.1-0.8-0.1c-1.7-1.8-4.6-2.6-7-2.4c-1.3,0.1-3.8,0.3-5.9,0.8c1.5-3,1.9-6.3,0.4-10
		c-1.5-3.8-4.8-7-9-7.6c-3.2-0.5-6.6,0.2-9.6,1.4c-0.7-2.3-0.3-4.1,0-5.1c0,0,0,0,0-0.1c0,0,0.1,0,0.1-0.1c0.5-0.3,0.6-1,0.3-1.5
		c-0.2-0.2-0.4-0.4-0.7-0.5c-0.3-0.1-0.6,0-0.8,0.1c-0.5,0.3-0.6,0.9-0.4,1.4c0,0,0,0,0,0.1c-0.4,1.2-0.8,3.5,0,6.2
		c-1.9,1-3.6,2.1-5.1,3.7c0.6,0.2,1.3,0.4,1.8,0.8c-1.6,0.7-3,1.3-4,1.9l-0.3,0.2c-3.5,2.1-10.8,6.5-10.2,10.9
		c0.5,3.2,3.4,8.4,6.7,10.7c0,0,4.7,6.2,11.2,2c0.1,0,0.2-0.1,0.3-0.1c-1.4,3.3-1.4,7.3,0.3,11c0.5,1.1,1.2,2.2,2,3.1l-3.2,2.7
		c-1.6-0.3-3.9,0.4-7,2.1c-0.3,0.1-0.5,0.3-0.8,0.5c0-0.3-0.1-0.6-0.1-0.9c0-0.2-0.2-0.3-0.4-0.3c-0.2,0-0.4,0.2-0.3,0.4
		c0,0.4,0.1,0.9,0.1,1.3c-0.7,0.5-1.4,1-2.1,1.6c0.2-0.3,0.3-0.6,0.4-0.9c-1.8,0.2-3.8,1.3-5,2.6c-0.8,0.8-1.4,1.8-1.7,2.8
		c-1.5-0.1-2.6-0.1-2.9,0c0.1-0.9-0.8-1.7-1.1-0.5c-0.1,0.4-0.1,0.9-0.2,1.4c-0.1,0.1-0.1,0.2-0.1,0.3c-0.1,0.3-0.1,0.7,0.1,1.3
		c0.1,3.9,1.7,8.4,5.3,9.4c0.1,0,0.2,0,0.3,0.1c1.3,2.9,3.4,5.4,6.3,5.6c0.4,0,0.8,0,1.2-0.1c0.8,0.7,1.9,1,3.1,0.8
		c4.8-0.8,9.2-6.1,11.4-10.3c1.3-2.4,2.7-6.2,1.2-8.9L61,63c0.5,0,1-0.1,1.5-0.2c3.9-0.8,8.1-3.8,10.2-7.2c2.5-3.9,1.8-8.3-0.1-12.3
		c-0.6-1.4-1.4-2.8-2.4-4.2c0.3,0.1,0.5,0.2,0.9,0.3c0.4,0.9,1.1,1.4,1.8,1.4c0,0,0,0,0.1,0c0.6,0,1-0.3,1.4-0.7c0,0,0.1,0,0.1,0
		c0.8,0.7,2.4,1.9,4.1,2.6c0.1,0.7,0.4,1.4,1.3,1.8c0.4,0.2,0.8,0.3,1.1,0.3c0.4,0,0.8-0.1,1.2-0.4c0.1-0.1,0.2-0.2,0.3-0.3
		c0,0,0.1,0,0.1,0c0.2,0,0.5,0,0.7-0.1c1.7-0.3,2.7-1.8,2.4-3.7c0.4-0.5,0.7-1.1,0.9-1.8C87.9,34.6,83.9,31.3,80.2,30.6z M51.6,64.5
		c-0.5-0.1-1.2-0.1-1.9,0.1c-0.1-0.2-0.2-0.5-0.3-0.7l4.2-3.4c0.4,0.2,0.9,0.5,1.4,0.7c0.1,0.1,0.2,0.1,0.4,0.1L51.6,64.5z"/>
	<g>
		<g>
			<defs>
				<path id="XMLID_586_" d="M33.3,76.2c-1,2-4-0.3-5.1-1.3c-2.3-2.3-7-7.2-4.2-7.8c0.6-0.1,7,0,9.4,2c1.7,1.4,1.5,5.5,0,7.1
					C33.4,75.9,33.4,75.9,33.3,76.2z"/>
			</defs>
			<use xlink:href="#XMLID_586_"  style="overflow:visible;fill-rule:evenodd;clip-rule:evenodd;fill:#B5BBD4;"/>
			<clipPath id="XMLID_2_">
				<use xlink:href="#XMLID_586_"  style="overflow:visible;"/>
			</clipPath>
			<path class="st4" d="M32.3,66.7c0.7,1-0.7,5-1.9,5.1c-2.1,0.2-6.2-4.1-6.5-5.5c-0.2-0.9,2.8-1.8,2.7-2.8c0-0.2,0.1-1-0.1-1.1
				c-0.2-0.3-0.9-0.1-1.2-0.1c-1.4,0.4-2.2,2.1-2.5,3.3c-0.9,4.2,0.5,11.6,5.3,12.9c4.6,1.3,10.3-3.8,9.1-8.6
				C36.6,67.8,34.4,66.1,32.3,66.7z"/>
			
				<use xlink:href="#XMLID_586_"  style="overflow:visible;fill-rule:evenodd;clip-rule:evenodd;fill:none;stroke:#000000;stroke-miterlimit:10;"/>
		</g>
		<g>
			<defs>
				<path id="XMLID_585_" d="M46,59.7c2.7,2.8-4.5,13.1-8.2,15.8c-1.3,1-4.4,3.4-5.7,1.2c-1.1-1.8-0.2-4,0.1-5.9
					c0.1-0.9,0.6-2.6-0.5-3.1C31,67.5,30,68.1,30,66.9c0-1.2,1.9-2.8,2.7-3.6c1.5-1.4,3-2.6,4.7-3.5C39.1,58.9,45.4,55.5,46,59.7z"
					/>
			</defs>
			<use xlink:href="#XMLID_585_"  style="overflow:visible;fill-rule:evenodd;clip-rule:evenodd;fill:#B5BBD4;"/>
			<clipPath id="XMLID_3_">
				<use xlink:href="#XMLID_585_"  style="overflow:visible;"/>
			</clipPath>
			<path class="st5" d="M44.4,59.3c-0.4,3.1-3.3,6.5-5.3,8.6c-0.6,0.6-4.1,4.4-5.3,3.1c-0.8-0.8,0.6-6.7-2.2-5
				c-0.1-2,1.9-3.5,2.3-5.3c-1.9,0.2-3.9,1.4-5.2,2.7c-2.3,2.3-2.4,5.4-1.9,8.5c0.5,3.2,1.8,8.3,5.9,7.9c5.1-0.4,10.1-5.5,12.8-9.6
				c1.7-2.7,3.7-7,1.5-10.1C46.3,59.4,45.4,58.5,44.4,59.3z"/>
			<path class="st6" d="M44.2,69.1c-1.9,0.2-4-0.9-5.3-2.3c-2.2-2.4-2.8-5-3.1-8.1"/>
			
				<use xlink:href="#XMLID_585_"  style="overflow:visible;fill-rule:evenodd;clip-rule:evenodd;fill:none;stroke:#000000;stroke-miterlimit:10;"/>
		</g>
		<g>
			<path class="st7" d="M55.3,53.5l-8.5,6.9c-0.3,0.3-0.8,0.3-1.1,0.2c-0.9-0.3-1.5-0.8-1.7-1.8c-0.1-0.3,0.1-0.5,0.3-0.7l9.2-7.8
				C55.7,50.3,56.1,51.5,55.3,53.5z"/>
			<g>
				<path class="st8" d="M52,53l-0.4,0.2l-0.4,0.2L50.3,54c-0.3,0.2-0.5,0.4-0.8,0.6l-0.8,0.6l-0.7,0.6l-0.4,0.3l-0.2,0.2l-0.2,0.2
					l-0.7,0.7l-0.3,0.4l-0.3,0.4l0.5-0.2l0.4-0.2l0.8-0.5l0.2-0.1l0.2-0.1l0.4-0.3l0.8-0.6l0.7-0.7c0.2-0.2,0.5-0.4,0.7-0.7l0.6-0.7
					l0.3-0.4L52,53z"/>
			</g>
		</g>
		<g>
			<defs>
				<path id="XMLID_584_" d="M39.6,81c-0.5,2.2-4,0.5-5.2-0.2c-2.7-1.7-8.4-5.5-5.8-6.7c0.5-0.2,6.8-1.5,9.6-0.1c2,1,2.7,5,1.5,6.9
					C39.6,80.7,39.6,80.7,39.6,81z"/>
			</defs>
			<use xlink:href="#XMLID_584_"  style="overflow:visible;fill-rule:evenodd;clip-rule:evenodd;fill:#FFFFFF;"/>
			<clipPath id="XMLID_4_">
				<use xlink:href="#XMLID_584_"  style="overflow:visible;"/>
			</clipPath>
			<path class="st9" d="M36.6,72c0.9,0.9,0.4,5-0.8,5.4c-2,0.7-6.9-2.7-7.5-4c-0.4-0.9,2.4-2.4,2.1-3.3c-0.1-0.2-0.2-0.9-0.4-1.1
				c-0.3-0.2-0.9,0.1-1.2,0.2c-1.3,0.7-1.7,2.5-1.7,3.8c0.1,4.3,3,11.2,7.9,11.5c4.8,0.3,9.2-5.9,7-10.3C41,72.1,38.5,70.9,36.6,72z
				"/>
			
				<use xlink:href="#XMLID_584_"  style="overflow:visible;fill-rule:evenodd;clip-rule:evenodd;fill:none;stroke:#000000;stroke-miterlimit:10;"/>
		</g>
		<g>
			<defs>
				<path id="XMLID_583_" d="M51.1,64.1c2.9,2.6-3.4,13.4-6.7,16.4c-1.3,1.1-4.1,3.8-5.6,1.7c-1.2-1.7-0.6-4-0.4-5.9
					c0.1-0.9,0.4-2.7-0.8-3c-0.7-0.2-1.6,0.5-1.7-0.7c-0.1-1.2,1.7-3,2.4-3.8c1.3-1.5,2.7-2.8,4.4-3.9
					C44.1,63.9,50.1,59.9,51.1,64.1z"/>
			</defs>
			<use xlink:href="#XMLID_583_"  style="overflow:visible;fill-rule:evenodd;clip-rule:evenodd;fill:#FFFFFF;"/>
			<clipPath id="XMLID_5_">
				<use xlink:href="#XMLID_583_"  style="overflow:visible;"/>
			</clipPath>
			<path class="st10" d="M49.4,63.8c-0.1,3.1-2.7,6.7-4.6,9.1c-0.5,0.7-3.7,4.7-5,3.6c-0.9-0.7,0-6.7-2.7-4.8
				c-0.3-2,1.6-3.7,1.9-5.5c-1.8,0.3-3.8,1.7-4.9,3.1c-2.1,2.5-2,5.6-1.2,8.6c0.8,3.2,2.5,8.1,6.6,7.4c5-0.9,9.6-6.4,11.9-10.7
				c1.5-2.8,3.1-7.3,0.6-10.2C51.4,63.8,50.4,63,49.4,63.8z"/>
			<path class="st11" d="M50.1,73.6C48.3,74,46,73,44.7,71.8c-2.4-2.2-3.3-4.7-3.8-7.8"/>
			
				<use xlink:href="#XMLID_583_"  style="overflow:visible;fill-rule:evenodd;clip-rule:evenodd;fill:none;stroke:#000000;stroke-miterlimit:10;"/>
		</g>
		<g>
			<g>
				<defs>
					
						<ellipse id="XMLID_582_" transform="matrix(0.6916 -0.7223 0.7223 0.6916 -0.8312 53.7301)" cx="62.5" cy="27.8" rx="1.8" ry="1.3"/>
				</defs>
				<use xlink:href="#XMLID_582_"  style="overflow:visible;fill-rule:evenodd;clip-rule:evenodd;fill:#FFFFFF;"/>
				<clipPath id="XMLID_6_">
					<use xlink:href="#XMLID_582_"  style="overflow:visible;"/>
				</clipPath>
				<path class="st12" d="M61.1,30c-0.5-1.1,0.8-2.5,1.7-2.8c0.7-0.2,2,0.2,2.3-0.6c0.2-0.7-0.7-1.4-1.2-1.6c-1-0.3-2.1,0.4-2.7,1.2
					C60.2,27.3,59.7,29.5,61.1,30z"/>
				
					<use xlink:href="#XMLID_582_"  style="overflow:visible;fill-rule:evenodd;clip-rule:evenodd;fill:none;stroke:#000000;stroke-width:0.6803;stroke-miterlimit:10;"/>
			</g>
			<circle class="st13" cx="57.5" cy="38.9" r="2.1"/>
			<g>
				<path class="st14" d="M56.4,39.7c0,0.1,0.1,0.1,0.1,0.2c0.1,0.1,0.1,0.1,0.2,0.2c0.1,0.1,0.3,0.2,0.5,0.2
					c0.2,0.1,0.3,0.1,0.5,0.1c0.2,0,0.4,0,0.5-0.1c0.2-0.1,0.3-0.2,0.4-0.3c0.1-0.1,0.1-0.1,0.2-0.2l0.1-0.1l0.1-0.1
					c0.1-0.2,0.1-0.3,0.1-0.5c0-0.1,0-0.2,0-0.3c0-0.1,0-0.2-0.1-0.2c-0.1,0.1-0.1,0.1-0.2,0.2c-0.1,0.1-0.1,0.1-0.2,0.1
					c-0.1,0.1-0.2,0.2-0.3,0.2l-0.1,0l-0.1,0.1c0,0-0.1,0.1-0.1,0.1c-0.1,0.1-0.2,0.1-0.3,0.1c-0.1,0.1-0.2,0.1-0.3,0.1
					c-0.1,0-0.2,0-0.3,0.1c-0.1,0-0.2,0-0.4,0c-0.1,0-0.1,0-0.2,0C56.6,39.7,56.5,39.7,56.4,39.7z"/>
			</g>
			<g>
				<defs>
					<path id="XMLID_581_" d="M57,38.1c0.5-2.5,4-9.4,5.5-11c1.1-0.3-1.4,1.3,1.1,3.9l-5.4,8C57.6,39.5,56.8,39.2,57,38.1z"/>
				</defs>
				<use xlink:href="#XMLID_581_"  style="overflow:visible;fill-rule:evenodd;clip-rule:evenodd;fill:#FFFFFF;"/>
				<clipPath id="XMLID_7_">
					<use xlink:href="#XMLID_581_"  style="overflow:visible;"/>
				</clipPath>
				<path class="st15" d="M57.3,40.4c0.1-2.3,1.6-5,2.6-7c0.6-1.2,1.4-2.2,2.1-3.3c0.4-0.6,1.3-1.5,1.3-2.3
					c-0.1-1.8-2.6-1.3-3.5-0.6c-2.4,1.7-3.6,4.6-4,7.4c-0.2,1.2-0.7,4.8,0.6,5.7C56.9,40.6,57.2,40.7,57.3,40.4z"/>
				
					<use xlink:href="#XMLID_581_"  style="overflow:visible;fill-rule:evenodd;clip-rule:evenodd;fill:none;stroke:#000000;stroke-miterlimit:10;"/>
			</g>
			<g>
				<g>
					<defs>
						<path id="XMLID_580_" d="M63,26.8c0,0,5.5-2.4,10.6-0.1s5.4,6,3.2,7.9s-6.5,0.4-8.8-0.8c-2.3-1.2-4.5-3.1-4.5-3.1
							C62.2,29.4,62.2,28.1,63,26.8z"/>
					</defs>
					<use xlink:href="#XMLID_580_"  style="overflow:visible;fill-rule:evenodd;clip-rule:evenodd;fill:#FFFFFF;"/>
					<clipPath id="XMLID_8_">
						<use xlink:href="#XMLID_580_"  style="overflow:visible;"/>
					</clipPath>
					<path class="st16" d="M63.1,29.1c3.2-0.9,6.8-1.1,9.8,0.6c2.1,1.1,3.8,3.3,3.1,5.8c2.3-1,3.9-2.8,3.9-5.5
						c0-4.4-4.9-6.7-8.8-6.3C67.9,23.9,57.4,24.8,63.1,29.1z"/>
					
						<use xlink:href="#XMLID_580_"  style="overflow:visible;fill-rule:evenodd;clip-rule:evenodd;fill:none;stroke:#000000;stroke-miterlimit:10;"/>
				</g>
				<path class="st13" d="M77.7,32.8c0.7,0.3,0.6,1.5-0.6,2.7c-0.9,0.9-2.3,0.8-3.2-0.1c-0.7-0.7-0.8-1.5,0-2.1
					c0.7-0.5,1.3-0.3,2-0.2c0.2,0.1,1.1,0.3,1.3,0.3C77.6,33.4,77.6,33.1,77.7,32.8z"/>
				<path class="st13" d="M70.5,35.1c0.2,0.7,0.8,1.2,1.3,1.2c0.7,0,1.3-0.7,1.6-1.4c0.4-0.9,0-3-1.5-2.5
					C71,32.7,70.4,34.4,70.5,35.1z"/>
				<path class="st13" d="M77.7,30.1c0.8,0.2,1.7,1.7,0.1,3.1c-1,0.9-1.8,1-2.9,0.2c-0.8-0.6-0.9-1.7-0.1-2.4
					c0.6-0.6,0.6-0.2,1.4-0.1c0.3,0,1.2,0.2,1.4,0.2C78,30.9,77.6,30.5,77.7,30.1z"/>
			</g>
		</g>
		<g>
			<defs>
				
					<ellipse id="XMLID_579_" transform="matrix(0.907 -0.4211 0.4211 0.907 -13.89 28.31)" cx="57.1" cy="45.6" rx="11.9" ry="12.8"/>
			</defs>
			<use xlink:href="#XMLID_579_"  style="overflow:visible;fill-rule:evenodd;clip-rule:evenodd;fill:#FFFFFF;"/>
			<clipPath id="XMLID_9_">
				<use xlink:href="#XMLID_579_"  style="overflow:visible;"/>
			</clipPath>
			<path class="st17" d="M44.6,36.5c2.2,2.3,6.2,2.5,9,1.4c0.7-0.3,2.8-1.1,3.5-1.8c0.4-0.4,7.4,2.4,7.8,12.4c0.1,2.6-1.2,5-2.9,6.8
				c-1,1-2.1,1.9-3.3,2.6c-1.1,0.6-2.3,0.7-3.4,1.3c0.4,0,0.8,0.2,1.2,0.3c1.5,0.5,2.9,0.5,4.4,0.2c4-0.9,8.4-4,10.6-7.5
				c2.6-4,1.8-8.6-0.1-12.8c-1.4-3-3.4-6.2-6.1-8.2c-0.6-0.4-1-0.6-1.7-0.7c-1.4-0.3-2.9-0.7-4.3-0.9c-3.9-0.3-7,2.4-10.4,3.8
				C47.6,34.1,44.5,34.9,44.6,36.5z"/>
			<g class="st18">
				<g>
					<g>
						<path class="st19" d="M68.2,41.1c-0.2,0.5-0.6,0.9-0.9,1.3c-0.4,0.4-0.8,0.7-1.2,1.1c-0.8,0.6-1.7,1.3-2.6,1.8
							c-0.9,0.6-1.8,1-2.8,1.5c-1,0.5-2,0.8-3,1.2c-1,0.3-2,0.6-3.1,0.8c-0.5,0.1-1,0.2-1.6,0.3l-0.8,0.1l-0.8,0.1
							c-1.1,0.1-2.1,0.1-3.2,0.1c-0.5,0-1.1-0.1-1.6-0.1c-0.5,0-1-0.1-1.6-0.2c0.5,0,1.1,0,1.6,0c0.5,0,1,0,1.6-0.1
							c1-0.1,2.1-0.1,3.1-0.3l0.8-0.1l0.8-0.1c0.5-0.1,1-0.2,1.5-0.3c1-0.2,2-0.5,3-0.9c1-0.3,2-0.7,2.9-1.1c1-0.4,1.9-0.9,2.8-1.4
							c0.9-0.5,1.8-1,2.7-1.6c0.4-0.3,0.9-0.6,1.3-0.9C67.6,41.9,67.9,41.5,68.2,41.1z"/>
					</g>
				</g>
			</g>
			
				<use xlink:href="#XMLID_579_"  style="overflow:visible;fill-rule:evenodd;clip-rule:evenodd;fill:none;stroke:#000000;stroke-miterlimit:10;"/>
		</g>
		<g>
			
				<ellipse transform="matrix(0.9203 -0.3911 0.3911 0.9203 -14.5341 24.3006)" class="st20" cx="52.4" cy="47.8" rx="6.4" ry="8.9"/>
			<path class="st21" d="M49.4,41.6c-1.1,0.3-2,1.2-2.5,2.2c-0.7,1.4-0.4,3,0.2,4.4c0.5,1.4,1.5,3.8,2.9,4.4c-0.9-1-0.3-2.7,0.3-3.7
				c0.6-1.2,1.8-1.7,2.8-2.6C54.6,44.7,53,40.5,49.4,41.6z"/>
			<g>
				<path class="st22" d="M48.8,44.6c0.3,0.9,1,1.7,1.8,1.4c0.9-0.4,0.8-2.1,0-2.9c-0.3-0.3-1-0.8-1.4-0.6
					C48.5,42.8,48.5,43.7,48.8,44.6z"/>
				<path class="st23" d="M51.2,43.7c0.3,1,1.1,1.7,2.1,1.3c1.1-0.5,1.2-2.3,0.2-3c-0.3-0.3-1.1-0.7-1.6-0.5
					C51.1,41.8,51,42.8,51.2,43.7z"/>
				<path class="st22" d="M50.3,48.5c0.3,0.9,1,1.8,1.8,1.4c0.9-0.3,0.8-2.1,0-2.9c-0.3-0.3-1-0.8-1.4-0.6
					C50.1,46.8,50,47.7,50.3,48.5z"/>
				<path class="st22" d="M52.1,52.5c0.3,0.9,1.1,1.8,1.9,1.5c0.9-0.3,0.9-2,0-2.9c-0.3-0.3-1-0.8-1.4-0.6
					C51.9,50.7,51.8,51.6,52.1,52.5z"/>
				<path class="st22" d="M52.9,47.6c0.3,1,1.1,1.8,2.1,1.4c1.1-0.4,1.2-2.2,0.2-3c-0.3-0.3-1.1-0.7-1.7-0.5
					C52.7,45.7,52.6,46.7,52.9,47.6z"/>
				<path class="st22" d="M47.8,49.4c0.3,0.9,1,1.7,1.7,1.5c0.7-0.3,0.6-1.9-0.1-2.8c-0.3-0.3-0.9-0.8-1.2-0.7
					C47.6,47.7,47.6,48.5,47.8,49.4z"/>
				<path class="st23" d="M46.4,45.6c0.3,0.9,1,1.7,1.7,1.4c0.7-0.3,0.6-2-0.2-2.8c-0.3-0.3-0.9-0.8-1.2-0.6
					C46.1,43.9,46.1,44.7,46.4,45.6z"/>
				<path class="st23" d="M54.6,51.7c0.3,1,1.1,1.8,2.2,1.4c1.1-0.4,1.2-2.2,0.2-3c-0.4-0.3-1.1-0.8-1.7-0.6
					C54.4,49.8,54.3,50.8,54.6,51.7z"/>
				<path class="st23" d="M49.6,53.1c0.3,0.9,1,1.8,1.7,1.5c0.8-0.3,0.7-1.9-0.1-2.8c-0.3-0.3-0.9-0.8-1.3-0.7
					C49.3,51.4,49.3,52.3,49.6,53.1z"/>
			</g>
		</g>
		<g>
			
				<ellipse transform="matrix(0.9072 -0.4207 0.4207 0.9072 -9.8596 25.7134)" class="st24" cx="53.3" cy="35.2" rx="3.6" ry="1.7"/>
			<g>
				<defs>
					<path id="XMLID_578_" d="M49.4,30.3c0.2-0.8,1.5-1.3,2.1-1.5c1.2-0.5,1.4,1.2,1.4,1.2c0,0,0-0.1,0-0.1c0.9,1.8,2.7,4.8,0.2,5.5
						c-1,0.3-1.5-0.1-2-1C50.7,33.5,49.1,31.2,49.4,30.3z"/>
				</defs>
				<use xlink:href="#XMLID_578_"  style="overflow:visible;fill-rule:evenodd;clip-rule:evenodd;fill:#808285;"/>
				<clipPath id="XMLID_10_">
					<use xlink:href="#XMLID_578_"  style="overflow:visible;"/>
				</clipPath>
				<path class="st25" d="M48.3,34c1.1-2,3.1-3.8,4.3-0.7C54.1,37,48.1,36.3,48.3,34z"/>
				<path class="st26" d="M54.4,32.1c-0.2,2-3.5,3.2-4.7,1.4"/>
				<path class="st26" d="M53.9,31c-0.2,2-3.5,3.2-4.7,1.4"/>
				<path class="st26" d="M53.4,29.9c-0.2,2-3.5,3.2-4.7,1.4"/>
				<path class="st26" d="M52.9,28.8c-0.2,2-3.5,3.2-4.7,1.4"/>
				
					<use xlink:href="#XMLID_578_"  style="overflow:visible;fill-rule:evenodd;clip-rule:evenodd;fill:none;stroke:#000000;stroke-miterlimit:10;"/>
			</g>
			<g>
				<path class="st27" d="M54.5,35.4l-0.2,0.1L54,35.5c-0.1,0-0.3,0.1-0.4,0.1c-0.1,0-0.3,0.1-0.4,0.1c-0.1,0-0.3,0.1-0.4,0.1
					c-0.1,0-0.3,0.1-0.4,0.1L52.2,36l-0.1,0l-0.1,0c-0.1,0.1-0.3,0.1-0.4,0.2l-0.2,0.1l-0.2,0.1l0.2,0.1l0.2,0.1
					c0.2,0,0.3,0.1,0.5,0.1l0.1,0l0.1,0l0.2,0c0.2,0,0.3,0,0.5-0.1c0.2-0.1,0.3-0.1,0.5-0.2c0.2-0.1,0.3-0.1,0.4-0.3
					c0.1-0.1,0.2-0.2,0.4-0.4l0.1-0.2L54.5,35.4z"/>
			</g>
		</g>
		<g>
			<path class="st28" d="M45.6,2.1c-0.7,2.2-0.8,5.3,1.3,8.7"/>
			<circle class="st24" cx="47.1" cy="11.7" r="1.4"/>
			<g>
				<defs>
					<path id="XMLID_577_" d="M59.7,9.9c2,1.3,4,4.1,4.4,6.5c0.4,2.6-4.9,9.1-14.6,16.1C46.1,35,42,37.1,37.9,38
						c-4.8,1-9.9-7.6-10.6-11.7c-0.6-4.2,7.3-8.9,10.5-10.7C43.3,12.2,57.6,8.2,59.7,9.9z"/>
				</defs>
				<use xlink:href="#XMLID_577_"  style="overflow:visible;fill-rule:evenodd;clip-rule:evenodd;fill:#FFFFFF;"/>
				<clipPath id="XMLID_11_">
					<use xlink:href="#XMLID_577_"  style="overflow:visible;"/>
				</clipPath>
				<path class="st29" d="M39.6,12.1c3.9,1.1,6.9,4.6,9,7.9c1.1,1.6,2.1,3.4,2.8,5.2c0.2,0.6,1,2.2,0.8,2.9c-0.3,1-2.3,3-8.2,6.3
					c-1.7,1-8.4,3.6-14.4,3.6c-0.3,1.1,3.4,1.1,4.2,1.8c3.1,2.8,7.9,1.4,11.3-0.1c9.6-4.3,25.5-12.8,20.5-25.6c-1.6-4-5-7.2-9.3-7.9
					c-3.3-0.5-7,0.2-10.1,1.6C43.6,8.8,41.5,10.1,39.6,12.1z"/>
				<g class="st30">
					<g>
						<g>
							<path class="st19" d="M49.4,10c0.4,0.2,0.8,0.3,1.1,0.5c0.4,0.2,0.7,0.4,1.1,0.6c0.7,0.5,1.3,1,2,1.6
								c0.6,0.6,1.2,1.2,1.7,1.9c0.5,0.7,1,1.4,1.4,2.1c0.4,0.7,0.8,1.5,1.1,2.3c0.2,0.4,0.3,0.8,0.4,1.2l0.2,0.6l0.2,0.6
								c0.2,0.8,0.4,1.6,0.5,2.5c0.1,0.4,0.1,0.8,0.1,1.2c0,0.4,0,0.8,0.1,1.2C59.1,26,59,25.6,59,25.2c-0.1-0.4-0.2-0.8-0.3-1.2
								c-0.2-0.8-0.4-1.6-0.7-2.4L57.8,21l-0.2-0.6c-0.1-0.4-0.3-0.8-0.5-1.1c-0.3-0.7-0.7-1.5-1.1-2.2c-0.4-0.7-0.8-1.4-1.3-2.1
								c-0.5-0.7-1-1.3-1.6-1.9c-0.5-0.6-1.1-1.2-1.8-1.7c-0.3-0.3-0.6-0.5-1-0.8C50.1,10.5,49.8,10.3,49.4,10z"/>
						</g>
					</g>
				</g>
				
					<use xlink:href="#XMLID_577_"  style="overflow:visible;fill-rule:evenodd;clip-rule:evenodd;fill:none;stroke:#000000;stroke-miterlimit:10;"/>
			</g>
			<circle class="st20" cx="45.9" cy="1.3" r="0.6"/>
			<ellipse transform="matrix(0.8436 -0.537 0.537 0.8436 -7.9994 24.2948)" class="st31" cx="37.7" cy="25.9" rx="2" ry="3"/>
			<ellipse transform="matrix(0.8436 -0.537 0.537 0.8436 -10.1175 22.2687)" class="st31" cx="33.2" cy="28.5" rx="1.7" ry="2.7"/>
			<ellipse transform="matrix(0.8436 -0.537 0.537 0.8436 -7.8506 23.5661)" class="st32" cx="36.5" cy="25.3" rx="0.6" ry="0.8"/>
			<ellipse transform="matrix(0.8436 -0.537 0.537 0.8436 -9.9991 21.6846)" class="st32" cx="32.2" cy="28" rx="0.6" ry="0.8"/>
		</g>
		<g>
			<g>
				<defs>
					<path id="XMLID_576_" d="M82.2,33.3c1.2,0.2,2,2.2,2.1,3.3c0.2,1.5-0.3,2.8-1.9,3.1C78.6,40.4,80.8,34.4,82.2,33.3z"/>
				</defs>
				<use xlink:href="#XMLID_576_"  style="overflow:visible;fill-rule:evenodd;clip-rule:evenodd;fill:#808285;"/>
				<clipPath id="XMLID_12_">
					<use xlink:href="#XMLID_576_"  style="overflow:visible;"/>
				</clipPath>
				<path class="st33" d="M83.7,34.2c0.1,0.9-1.4,2.3-2.3,2.3"/>
				<path class="st33" d="M84.3,35.5c-0.1,1.1-2.5,2.6-3.4,2.2"/>
				<path class="st33" d="M84.6,37.2c-1,1-2.4,1.9-3.9,1.7"/>
				
					<use xlink:href="#XMLID_576_"  style="overflow:visible;fill-rule:evenodd;clip-rule:evenodd;fill:none;stroke:#000000;stroke-miterlimit:10;"/>
			</g>
			<g>
				<defs>
					<path id="XMLID_575_" d="M78.4,35.5c0.8,1.5-0.9,3.8,0.9,4.7c1.8,0.9,2.9-1.2,2.8-2.7c-0.1-1-0.6-2.6-1.5-3.2
						C79.7,33.7,78,34.5,78.4,35.5z"/>
				</defs>
				<use xlink:href="#XMLID_575_"  style="overflow:visible;fill-rule:evenodd;clip-rule:evenodd;fill:#808285;"/>
				<clipPath id="XMLID_13_">
					<use xlink:href="#XMLID_575_"  style="overflow:visible;"/>
				</clipPath>
				<path class="st34" d="M78.5,38.7c1,1,3.1,0.6,3.5-0.9"/>
				<path class="st34" d="M77.7,37.1c0.3,0.7,1.2,0.8,1.9,0.8c1.4,0,1.9-0.9,2.5-1.9"/>
				<path class="st34" d="M77.9,35.3c0,2.2,4.6,0.4,4.8-1.5"/>
				
					<use xlink:href="#XMLID_575_"  style="overflow:visible;fill-rule:evenodd;clip-rule:evenodd;fill:none;stroke:#000000;stroke-miterlimit:10;"/>
			</g>
			<g>
				<defs>
					<path id="XMLID_574_" d="M70.5,27.2c0,0,6-0.8,10.2,2.8c4.2,3.6,3.6,7.2,1,8.5s-6.4-1.3-8.3-3.1S70,31.1,70,31.1
						C69,29.4,69.4,28.1,70.5,27.2z"/>
				</defs>
				<use xlink:href="#XMLID_574_"  style="overflow:visible;fill-rule:evenodd;clip-rule:evenodd;fill:#FFFFFF;"/>
				<clipPath id="XMLID_14_">
					<use xlink:href="#XMLID_574_"  style="overflow:visible;"/>
				</clipPath>
				<path class="st35" d="M70,29.4c3.3,0,6.8,0.8,9.3,3.2c1.7,1.7,2.8,4.2,1.4,6.4c2.5-0.4,4.5-1.7,5.3-4.2c1.2-4.3-3-7.8-6.7-8.5
					C76,25.7,65.6,23.7,70,29.4z"/>
				
					<use xlink:href="#XMLID_574_"  style="overflow:visible;fill-rule:evenodd;clip-rule:evenodd;fill:none;stroke:#000000;stroke-miterlimit:10;"/>
			</g>
			<circle class="st13" cx="62" cy="37.3" r="2.1"/>
			<g>
				<path class="st14" d="M60.7,37.8c0,0.1,0,0.2,0.1,0.2c0,0.1,0.1,0.2,0.1,0.2c0.1,0.1,0.2,0.3,0.4,0.4c0.1,0.1,0.3,0.2,0.5,0.2
					c0.2,0,0.4,0.1,0.5,0c0.2,0,0.4-0.1,0.5-0.2c0.1,0,0.2-0.1,0.2-0.1l0.1-0.1l0.1-0.1c0.1-0.1,0.2-0.3,0.3-0.4c0-0.1,0-0.2,0-0.3
					c0-0.1,0-0.2,0-0.3c-0.1,0-0.1,0.1-0.2,0.1c-0.1,0-0.1,0.1-0.2,0.1c-0.1,0.1-0.2,0.1-0.3,0.2l-0.1,0l-0.1,0
					c-0.1,0-0.1,0-0.2,0.1c-0.1,0-0.2,0-0.3,0c-0.1,0-0.2,0-0.3,0c-0.1,0-0.2,0-0.3,0c-0.1,0-0.2,0-0.4-0.1c-0.1,0-0.1,0-0.2,0
					C60.8,37.9,60.7,37.8,60.7,37.8z"/>
			</g>
			<g>
				<defs>
					<path id="XMLID_573_" d="M61.6,36.4c1.1-2.3,3.1-5.1,5.8-7.8c1.1,0,1.9,0.3,2.3,1c0.5,0.9,0.2,2-0.6,2.6l-6.5,5.4
						C61.9,37.9,61.2,37.4,61.6,36.4z"/>
				</defs>
				<use xlink:href="#XMLID_573_"  style="overflow:visible;fill-rule:evenodd;clip-rule:evenodd;fill:#FFFFFF;"/>
				<clipPath id="XMLID_15_">
					<use xlink:href="#XMLID_573_"  style="overflow:visible;"/>
				</clipPath>
				<path class="st36" d="M61.4,38.7c0.7-2.2,2.8-4.4,4.3-6c0.9-1,1.9-1.8,2.9-2.6c0.5-0.4,1.7-1.1,1.8-1.8c0.3-1.7-2.2-1.9-3.2-1.5
					c-2.8,1-4.7,3.5-5.8,6.1c-0.5,1.1-2,4.5-0.9,5.7C60.9,38.8,61.2,39,61.4,38.7z"/>
				
					<use xlink:href="#XMLID_573_"  style="overflow:visible;fill-rule:evenodd;clip-rule:evenodd;fill:none;stroke:#000000;stroke-miterlimit:10;"/>
			</g>
			<g>
				<defs>
					
						<ellipse id="XMLID_572_" transform="matrix(0.7854 -0.619 0.619 0.7854 -2.8877 48.8125)" cx="68.9" cy="28.6" rx="1.8" ry="1.3"/>
				</defs>
				<use xlink:href="#XMLID_572_"  style="overflow:visible;fill-rule:evenodd;clip-rule:evenodd;fill:#FFFFFF;"/>
				<clipPath id="XMLID_16_">
					<use xlink:href="#XMLID_572_"  style="overflow:visible;"/>
				</clipPath>
				<path class="st37" d="M67.3,30.5c-0.4-1.1,1.1-2.4,2.1-2.5c0.7-0.1,2,0.5,2.3-0.3c0.3-0.6-0.5-1.5-1-1.7c-1-0.5-2.1,0.1-2.9,0.8
					C66.8,27.7,65.9,29.8,67.3,30.5z"/>
				
					<use xlink:href="#XMLID_572_"  style="overflow:visible;fill-rule:evenodd;clip-rule:evenodd;fill:none;stroke:#000000;stroke-width:0.6803;stroke-miterlimit:10;"/>
			</g>
		</g>
		<g>
			<path class="st7" d="M60.6,57.9L52,64.9c-0.3,0.3-0.8,0.3-1.1,0.2c-0.9-0.3-1.5-0.8-1.7-1.8c-0.1-0.3,0.1-0.5,0.3-0.7l9.2-7.8
				C60.9,54.8,61.4,55.9,60.6,57.9z"/>
			<g>
				<path class="st8" d="M57.3,57.4l-0.4,0.2l-0.4,0.2l-0.8,0.5c-0.3,0.2-0.5,0.4-0.8,0.6l-0.8,0.6l-0.7,0.6L53,60.6l-0.2,0.2
					l-0.2,0.2L52,61.6L51.7,62l-0.3,0.4l0.5-0.2l0.4-0.2l0.8-0.5l0.2-0.1l0.2-0.1l0.4-0.3l0.8-0.6l0.7-0.7c0.2-0.2,0.5-0.4,0.7-0.7
					l0.6-0.7l0.3-0.4L57.3,57.4z"/>
			</g>
		</g>
	</g>
</g>
</svg>
