<?xml version="1.0" encoding="utf-8"?>
<!-- Generator: Adobe Illustrator 24.0.2, SVG Export Plug-In . SVG Version: 6.00 Build 0)  -->
<svg version="1.1" id="Layer_1" xmlns="http://www.w3.org/2000/svg" xmlns:xlink="http://www.w3.org/1999/xlink" x="0px" y="0px"
	 viewBox="0 0 129.1 113" style="enable-background:new 0 0 129.1 113;" xml:space="preserve">
<style type="text/css">
	.st0{fill:#2A2F39;}
	.st1{fill:#444A53;}
	.st2{fill:#878889;}
	.st3{fill:#BFBFBF;}
	.st4{fill:#AAAAAA;}
	.st5{fill:url(#SVGID_1_);}
	.st6{fill:#FFFFFF;}
	.st7{opacity:0.7;fill:#FFFFFF;}
</style>
<g>
	<g>
		<g>
			<path class="st0" d="M114.7,113c-0.8,0-1.5-0.6-1.5-1.4V1.4c0-0.8,0.7-1.4,1.5-1.4c0.8,0,1.5,0.6,1.5,1.4v110.3
				C116.2,112.4,115.5,113,114.7,113z"/>
		</g>
		<g>
			<path class="st0" d="M127.6,113c-0.8,0-1.5-0.6-1.5-1.4V1.4c0-0.8,0.7-1.4,1.5-1.4s1.5,0.6,1.5,1.4v110.3
				C129.1,112.4,128.4,113,127.6,113z"/>
		</g>
		<g>
			<rect x="115.1" y="5.1" class="st0" width="11.6" height="1.6"/>
		</g>
		<g>
			<rect x="115.3" y="14.4" class="st0" width="11.6" height="1.6"/>
		</g>
		<g>
			<polygon class="st0" points="127,15.9 115.4,6.7 116.2,5.9 127.8,15 			"/>
		</g>
		<g>
			<polygon class="st0" points="115.6,15.9 114.9,15.1 126.1,5.7 126.9,6.5 			"/>
		</g>
		<g>
			<rect x="115.3" y="23.9" class="st0" width="11.6" height="1.6"/>
		</g>
		<g>
			<polygon class="st0" points="127.1,25.3 115.4,16.1 116.2,15.3 127.8,24.5 			"/>
		</g>
		<g>
			<polygon class="st0" points="115.7,25.3 114.9,24.5 126.1,15.1 126.9,16 			"/>
		</g>
		<g>
			<rect x="115.6" y="33" class="st0" width="11.6" height="1.6"/>
		</g>
		<g>
			<polygon class="st0" points="127.4,34.5 115.8,25.3 116.6,24.4 128.2,33.6 			"/>
		</g>
		<g>
			<polygon class="st0" points="116,34.4 115.2,33.6 126.5,24.3 127.3,25.1 			"/>
		</g>
		<g>
			<rect x="115.6" y="42.4" class="st0" width="11.6" height="1.6"/>
		</g>
		<g>
			<polygon class="st0" points="127.4,43.9 115.8,34.7 116.6,33.9 128.2,43 			"/>
		</g>
		<g>
			<polygon class="st0" points="116,43.9 115.2,43 126.5,33.7 127.3,34.5 			"/>
		</g>
		<g>
			<rect x="115.6" y="51.6" class="st0" width="11.6" height="1.6"/>
		</g>
		<g>
			<polygon class="st0" points="127.4,53 115.8,43.9 116.6,43 128.2,52.2 			"/>
		</g>
		<g>
			<polygon class="st0" points="116,53 115.2,52.2 126.5,42.9 127.3,43.7 			"/>
		</g>
		<g>
			<rect x="115.6" y="61" class="st0" width="11.6" height="1.6"/>
		</g>
		<g>
			<polygon class="st0" points="127.4,62.5 115.8,53.3 116.6,52.5 128.2,61.6 			"/>
		</g>
		<g>
			<polygon class="st0" points="116,62.5 115.2,61.6 126.5,52.3 127.3,53.1 			"/>
		</g>
		<g>
			<rect x="116" y="70.2" class="st0" width="11.6" height="1.6"/>
		</g>
		<g>
			<polygon class="st0" points="127.8,71.6 116.2,62.4 116.9,61.6 128.5,70.8 			"/>
		</g>
		<g>
			<polygon class="st0" points="116.4,71.6 115.6,70.8 126.9,61.4 127.6,62.3 			"/>
		</g>
		<g>
			<rect x="116" y="79.6" class="st0" width="11.6" height="1.6"/>
		</g>
		<g>
			<polygon class="st0" points="127.8,81 116.2,71.9 116.9,71 128.5,80.2 			"/>
		</g>
		<g>
			<polygon class="st0" points="116.4,81 115.6,80.2 126.9,70.9 127.6,71.7 			"/>
		</g>
		<g>
			<rect x="114.9" y="89.3" class="st0" width="11.6" height="1.6"/>
		</g>
		<g>
			<polygon class="st0" points="126.7,90.8 115.1,81.6 115.8,80.8 127.4,89.9 			"/>
		</g>
		<g>
			<polygon class="st0" points="115.3,90.8 114.5,89.9 125.8,80.6 126.5,81.4 			"/>
		</g>
		<g>
			<rect x="114.9" y="98.7" class="st0" width="11.6" height="1.6"/>
		</g>
		<g>
			<polygon class="st0" points="126.7,100.2 115.1,91 115.8,90.2 127.4,99.4 			"/>
		</g>
		<g>
			<polygon class="st0" points="115.3,100.2 114.5,99.4 125.8,90 126.6,90.8 			"/>
		</g>
		<path class="st1" d="M115.4,2.1l-0.7,109L114,2.1c0-0.4,0.3-0.7,0.7-0.7C115.1,1.4,115.4,1.7,115.4,2.1L115.4,2.1z"/>
		<path class="st1" d="M128.6,1.5l-0.7,109l-0.7-109c0-0.4,0.3-0.7,0.7-0.7C128.2,0.8,128.6,1.1,128.6,1.5L128.6,1.5z"/>
	</g>
	<circle class="st2" cx="120.5" cy="44.1" r="3.5"/>
	<g>
		<g>
			<path class="st0" d="M1.5,113c-0.8,0-1.5-0.6-1.5-1.4V1.4C0,0.6,0.7,0,1.5,0s1.5,0.6,1.5,1.4v110.3C2.9,112.4,2.3,113,1.5,113z"
				/>
		</g>
		<g>
			<path class="st0" d="M14.4,113c-0.8,0-1.5-0.6-1.5-1.4V1.4c0-0.8,0.7-1.4,1.5-1.4s1.5,0.6,1.5,1.4v110.3
				C15.8,112.4,15.2,113,14.4,113z"/>
		</g>
		<g>
			<rect x="1.8" y="5.1" class="st0" width="11.6" height="1.6"/>
		</g>
		<g>
			<rect x="2" y="14.4" class="st0" width="11.6" height="1.6"/>
		</g>
		<g>
			<polygon class="st0" points="13.8,15.9 2.2,6.7 2.9,5.9 14.6,15 			"/>
		</g>
		<g>
			<polygon class="st0" points="2.4,15.9 1.6,15.1 12.9,5.7 13.7,6.5 			"/>
		</g>
		<g>
			<rect x="2" y="23.9" class="st0" width="11.6" height="1.6"/>
		</g>
		<g>
			<polygon class="st0" points="13.8,25.3 2.2,16.1 2.9,15.3 14.6,24.5 			"/>
		</g>
		<g>
			<polygon class="st0" points="2.4,25.3 1.6,24.5 12.9,15.1 13.7,16 			"/>
		</g>
		<g>
			<rect x="2.4" y="33" class="st0" width="11.6" height="1.6"/>
		</g>
		<g>
			<polygon class="st0" points="14.2,34.5 2.6,25.3 3.3,24.4 14.9,33.6 			"/>
		</g>
		<g>
			<polygon class="st0" points="2.8,34.4 2,33.6 13.3,24.3 14,25.1 			"/>
		</g>
		<g>
			<rect x="2.4" y="42.4" class="st0" width="11.6" height="1.6"/>
		</g>
		<g>
			<polygon class="st0" points="14.2,43.9 2.6,34.7 3.3,33.9 14.9,43 			"/>
		</g>
		<g>
			<polygon class="st0" points="2.8,43.9 2,43 13.3,33.7 14,34.5 			"/>
		</g>
		<g>
			<rect x="2.4" y="51.6" class="st0" width="11.6" height="1.6"/>
		</g>
		<g>
			<polygon class="st0" points="14.2,53 2.6,43.9 3.3,43 14.9,52.2 			"/>
		</g>
		<g>
			<polygon class="st0" points="2.8,53 2,52.2 13.3,42.9 14,43.7 			"/>
		</g>
		<g>
			<rect x="2.4" y="61" class="st0" width="11.6" height="1.6"/>
		</g>
		<g>
			<polygon class="st0" points="14.2,62.5 2.6,53.3 3.3,52.5 14.9,61.6 			"/>
		</g>
		<g>
			<polygon class="st0" points="2.8,62.5 2,61.6 13.3,52.3 14,53.1 			"/>
		</g>
		<g>
			<rect x="2.8" y="70.2" class="st0" width="11.6" height="1.6"/>
		</g>
		<g>
			<polygon class="st0" points="14.5,71.6 2.9,62.4 3.7,61.6 15.3,70.8 			"/>
		</g>
		<g>
			<polygon class="st0" points="3.1,71.6 2.4,70.8 13.6,61.4 14.4,62.3 			"/>
		</g>
		<g>
			<rect x="2.8" y="79.6" class="st0" width="11.6" height="1.6"/>
		</g>
		<g>
			<polygon class="st0" points="14.5,81 2.9,71.9 3.7,71 15.3,80.2 			"/>
		</g>
		<g>
			<polygon class="st0" points="3.2,81 2.4,80.2 13.6,70.9 14.4,71.7 			"/>
		</g>
		<g>
			<rect x="1.7" y="89.3" class="st0" width="11.6" height="1.6"/>
		</g>
		<g>
			<polygon class="st0" points="13.4,90.8 1.8,81.6 2.6,80.8 14.2,89.9 			"/>
		</g>
		<g>
			<polygon class="st0" points="2.1,90.8 1.3,89.9 12.5,80.6 13.3,81.4 			"/>
		</g>
		<g>
			<rect x="1.7" y="98.7" class="st0" width="11.6" height="1.6"/>
		</g>
		<g>
			<polygon class="st0" points="13.5,100.2 1.8,91 2.6,90.2 14.2,99.4 			"/>
		</g>
		<g>
			<polygon class="st0" points="2.1,100.2 1.3,99.4 12.5,90 13.3,90.8 			"/>
		</g>
		<path class="st1" d="M2.2,2.1L1.5,111L0.7,2.1c0-0.4,0.3-0.7,0.7-0.7C1.9,1.4,2.2,1.7,2.2,2.1L2.2,2.1z"/>
		<path class="st1" d="M15.3,1.5l-0.7,109l-0.7-109c0-0.4,0.3-0.7,0.7-0.7C15,0.8,15.3,1.1,15.3,1.5L15.3,1.5z"/>
	</g>
	<circle class="st2" cx="9.5" cy="44.1" r="3.5"/>
	<g>
		<path class="st3" d="M11.9,89.7C9.7,89.7,8,88,8,85.8V8c0-2.2,1.8-3.9,3.9-3.9h105.7c2.2,0,3.9,1.8,3.9,3.9v77.8
			c0,2.2-1.8,3.9-3.9,3.9H11.9z"/>
		<path d="M117.6,5.1c1.6,0,2.9,1.3,2.9,2.9v77.8c0,1.6-1.3,2.9-2.9,2.9H11.9c-1.6,0-2.9-1.3-2.9-2.9V8c0-1.6,1.3-2.9,2.9-2.9H117.6
			 M117.6,3.1H11.9C9.2,3.1,7,5.3,7,8v77.8c0,2.7,2.2,4.9,4.9,4.9h105.7c2.7,0,4.9-2.2,4.9-4.9V8C122.5,5.3,120.3,3.1,117.6,3.1
			L117.6,3.1z"/>
	</g>
	<rect x="12.7" y="8.6" class="st4" width="104.3" height="76.7"/>
	<rect x="14.4" y="10.5" width="100.4" height="72.7"/>
	<linearGradient id="SVGID_1_" gradientUnits="userSpaceOnUse" x1="64.3945" y1="73.0594" x2="64.3945" y2="12.6834">
		<stop  offset="4.618227e-03" style="stop-color:#FFFFFF;stop-opacity:0"/>
		<stop  offset="1" style="stop-color:#FFFFFF;stop-opacity:0.5"/>
	</linearGradient>
	<path class="st5" d="M16.4,12.7l95.8,0.3l0.2,60c0,0-32.8,1.5-44.6-14.7S54.6,34.2,38.9,32.6C16.6,30.4,16.4,12.7,16.4,12.7z"/>
	<path class="st6" d="M117,6.1L91,6.4L65,6.5C47.7,6.6,30.3,6.8,13,6.7l0.1,0c-0.7,0.1-1.4,0.5-1.8,1c-0.4,0.6-0.5,1.2-0.5,2.1
		l-0.1,5l-0.1,9.9l-0.2,19.8C10.3,57.7,10,71,9.8,84.2C9.7,71,9.7,57.7,9.8,44.5l0.1-19.8l0-9.9l0-5c0-0.8,0.1-1.9,0.7-2.6
		C11.2,6.4,12,6,13,5.8l0,0l0,0c17.3-0.1,34.6,0,52,0l26,0.1L117,6.1z"/>
	<path class="st7" d="M117,8.2L72.4,8.4C57.6,8.5,42.7,8.6,27.9,8.8C42.7,8.9,57.6,9,72.4,9l44.2,0l0.1,37c0,12.5,0.1,24.9,0.3,37.4
		c0.1-12.5,0.2-24.9,0.3-37.4l0.1-37.4l0-0.4L117,8.2z"/>
</g>
</svg>
