<svg xmlns="http://www.w3.org/2000/svg" xmlns:xlink="http://www.w3.org/1999/xlink" viewBox="0 0 122.09 114.29"><defs><style>.cls-1{fill:#4e576b;}.cls-2{fill:#ed1c24;}.cls-3{fill:#ce181e;}.cls-4{fill:#6d6e71;}.cls-5{fill:url(#linear-gradient);}.cls-6{fill:#c5c7c9;}.cls-7{fill:#58595b;}.cls-8{fill:#a46f1c;}.cls-9{fill:#b17a1a;}.cls-10{fill:#e0af68;}.cls-11{fill:#93611a;}.cls-12{fill:#8b5c16;}.cls-13{fill:#9d9da0;}.cls-14{fill:url(#linear-gradient-2);}.cls-15{fill:#fff;}.cls-16{fill:#626e83;opacity:0.7;}.cls-17{fill:#c2c2c4;}</style><linearGradient id="linear-gradient" x1="106.74" y1="35.92" x2="108.77" y2="2.85" gradientUnits="userSpaceOnUse"><stop offset="0" stop-color="#b5b7b9" stop-opacity="0"/><stop offset="1" stop-color="#b5b7b9"/></linearGradient><linearGradient id="linear-gradient-2" x1="46.37" y1="56.86" x2="46.37" y2="6.36" gradientUnits="userSpaceOnUse"><stop offset="0" stop-color="#fff" stop-opacity="0"/><stop offset="1" stop-color="#fff" stop-opacity="0.5"/></linearGradient></defs><title>Dungeon_TV</title><g id="Layer_2" data-name="Layer 2"><g id="Layer_1-2" data-name="Layer 1"><path class="cls-1" d="M105.54,35.53l-1.87-.08-.11,2.17,1.87.11Z"/><path class="cls-2" d="M105.43,37.73l-1.87-.11-.15,2.15,1.87.16Z"/><path class="cls-1" d="M105.06,42c.09-.69.16-1.38.22-2.07l-1.87-.16c-.06.69-.13,1.37-.22,2.06A5,5,0,0,1,105.06,42Z"/><path class="cls-2" d="M105.06,42a5,5,0,0,0-1.87-.17c-.09.73-.2,1.46-.32,2.19l1.84.33C104.85,43.56,105,42.78,105.06,42Z"/><path class="cls-2" d="M104.25,46.6a16.51,16.51,0,0,0-1.86-.33c-.15.63-.32,1.26-.52,1.87l1.79.57C103.89,48,104.07,47.3,104.25,46.6Z"/><path class="cls-1" d="M103.66,48.71l-1.79-.57c-.2.68-.47,1.32-.71,2l1.74.71C103.15,50.13,103.44,49.43,103.66,48.71Z"/><path class="cls-2" d="M102.05,52.69c.32-.6.56-1.24.85-1.86l-1.74-.71c-.29.62-.52,1.25-.85,1.84C100.86,52.18,101.47,52.39,102.05,52.69Z"/><path class="cls-1" d="M102.05,52.69c-.58-.3-1.19-.51-1.74-.73-.23.44-.43.9-.7,1.32l1.63.93C101.54,53.72,101.78,53.19,102.05,52.69Z"/><path class="cls-2" d="M101.24,54.21l-1.63-.93c-.36.6-.71,1.21-1.12,1.78L100,56.12C100.47,55.51,100.86,54.86,101.24,54.21Z"/><path class="cls-1" d="M100,56.12l-1.55-1.06c-.38.59-.83,1.14-1.25,1.7.46.38,1,.79,1.46,1.17C99.16,57.34,99.63,56.75,100,56.12Z"/><path class="cls-2" d="M98.7,57.93c-.48-.38-1-.79-1.46-1.17-.45.55-.91,1.08-1.39,1.6l1.38,1.28Q98,58.82,98.7,57.93Z"/><path class="cls-1" d="M97.23,59.64l-1.38-1.28c-.49.5-1,1-1.5,1.48l1.27,1.38C96.19,60.73,96.7,60.18,97.23,59.64Z"/><path class="cls-2" d="M95.62,61.22l-1.27-1.38c-.51.49-1.06.93-1.6,1.37l1.16,1.48C94.49,62.21,95.08,61.74,95.62,61.22Z"/><path class="cls-1" d="M93.91,62.69l-1.16-1.48c-.55.45-1.13.85-1.71,1.25l1,1.56C92.71,63.59,93.32,63.16,93.91,62.69Z"/><path class="cls-2" d="M92.09,64l-1-1.56c-.59.37-1.17.78-1.79,1.1.29.53.61,1.1.92,1.64C90.84,64.85,91.45,64.42,92.09,64Z"/><path class="cls-1" d="M90.17,65.2c-.31-.54-.63-1.11-.92-1.64a23.69,23.69,0,0,1-2.52,1.26c.24.55.5,1.16.75,1.72C88.39,66.13,89.3,65.7,90.17,65.2Z"/><path class="cls-2" d="M86.73,64.82c-.9.39-1.82.72-2.75,1l.54,1.79c1-.32,2-.67,3-1.09C87.23,66,87,65.37,86.73,64.82Z"/><path class="cls-1" d="M102.87,44c-.14.76-.29,1.51-.48,2.25a16.51,16.51,0,0,1,1.86.33c.18-.75.33-1.5.46-2.25Z"/><path class="cls-2" d="M105.61,33.72l-1.88-.07-.06,1.8,1.87.08Z"/><path class="cls-3" d="M105.61,33.72l-1,0-.07,1.81,1,0Z"/><path d="M105.54,35.53l-1,0-.1,2.18,1,.06Z"/><path class="cls-3" d="M105.43,37.73l-1-.06-.16,2.18,1,.08Z"/><path d="M105.06,42c.09-.69.16-1.38.22-2.07l-1-.08-.2,2A2.58,2.58,0,0,1,105.06,42Z"/><path class="cls-3" d="M105.06,42a2.58,2.58,0,0,0-1-.18c-.1.79-.22,1.57-.35,2.35l1,.18C104.85,43.56,105,42.78,105.06,42Z"/><path class="cls-3" d="M104.25,46.6a6.92,6.92,0,0,0-1-.2c-.17.68-.35,1.35-.56,2l.94.3C103.89,48,104.07,47.3,104.25,46.6Z"/><path d="M103.66,48.71l-.94-.3c-.21.69-.49,1.37-.74,2.05l.92.37C103.15,50.13,103.44,49.43,103.66,48.71Z"/><path class="cls-3" d="M102.05,52.69c.32-.6.56-1.24.85-1.86l-.92-.37c-.28.61-.52,1.24-.83,1.83A8.85,8.85,0,0,1,102.05,52.69Z"/><path d="M102.05,52.69a8.85,8.85,0,0,0-.9-.4c-.26.47-.48,1-.77,1.43l.86.49C101.54,53.72,101.78,53.19,102.05,52.69Z"/><path class="cls-3" d="M98.7,57.93l-.77-.61c-.46.56-.93,1.11-1.43,1.64l.73.68Q98,58.82,98.7,57.93Z"/><path d="M97.23,59.64,96.5,59c-.5.52-1,1.06-1.55,1.53l.67.73C96.19,60.73,96.7,60.18,97.23,59.64Z"/><path class="cls-3" d="M95.62,61.22,95,60.49c-.52.51-1.09,1-1.65,1.42l.61.78C94.49,62.21,95.08,61.74,95.62,61.22Z"/><path class="cls-3" d="M92.09,64l-.55-.82c-.62.38-1.21.8-1.86,1.14l.49.86C90.84,64.85,91.45,64.42,92.09,64Z"/><path d="M90.17,65.2l-.49-.86a27.32,27.32,0,0,1-2.6,1.29l.4.91C88.39,66.13,89.3,65.7,90.17,65.2Z"/><path class="cls-3" d="M87.08,65.63a29.42,29.42,0,0,1-2.84,1.06l.28.94c1-.32,2-.67,3-1.09Z"/><path d="M93.91,62.69l-.61-.78c-.57.46-1.17.87-1.76,1.29l.55.82C92.71,63.59,93.32,63.16,93.91,62.69Z"/><path d="M100,56.12l-.82-.56c-.39.61-.85,1.18-1.29,1.76l.77.61C99.16,57.34,99.63,56.75,100,56.12Z"/><path class="cls-3" d="M101.24,54.21l-.86-.49c-.37.62-.74,1.25-1.16,1.84l.82.56C100.47,55.51,100.86,54.86,101.24,54.21Z"/><path d="M103.74,44.17c-.14.75-.28,1.49-.46,2.23a6.92,6.92,0,0,1,1,.2c.18-.75.33-1.5.46-2.25Z"/><path class="cls-1" d="M103,29.94l-1.88-.07L101,32l1.87.11Z"/><path class="cls-2" d="M102.88,32.14,101,32l-.16,2.15,1.87.17Z"/><path class="cls-1" d="M102.51,36.41c.08-.69.15-1.38.21-2.06l-1.87-.17c-.06.69-.13,1.38-.21,2.06A5.05,5.05,0,0,1,102.51,36.41Z"/><path class="cls-2" d="M102.51,36.41a5.05,5.05,0,0,0-1.87-.17c-.09.74-.21,1.47-.33,2.19l1.85.33C102.29,38,102.41,37.19,102.51,36.41Z"/><path class="cls-2" d="M101.69,41a16.31,16.31,0,0,0-1.85-.33c-.16.63-.33,1.26-.52,1.88l1.78.56C101.33,42.42,101.52,41.72,101.69,41Z"/><path class="cls-1" d="M101.1,43.12l-1.78-.56c-.21.67-.48,1.32-.72,2l1.74.71C100.6,44.54,100.89,43.84,101.1,43.12Z"/><path class="cls-2" d="M99.5,47.1c.31-.6.56-1.24.84-1.85l-1.74-.71c-.28.61-.52,1.25-.84,1.84C98.3,46.6,98.91,46.8,99.5,47.1Z"/><path class="cls-1" d="M99.5,47.1c-.59-.3-1.2-.5-1.74-.72-.24.43-.44.89-.7,1.31l1.62.93C99,48.13,99.22,47.61,99.5,47.1Z"/><path class="cls-2" d="M98.68,48.62l-1.62-.93c-.36.61-.72,1.21-1.13,1.79l1.55,1.05C97.92,49.92,98.3,49.27,98.68,48.62Z"/><path class="cls-1" d="M97.48,50.53l-1.55-1.05c-.38.59-.82,1.14-1.25,1.69l1.47,1.18C96.6,51.75,97.07,51.17,97.48,50.53Z"/><path class="cls-2" d="M96.15,52.35l-1.47-1.18c-.44.55-.9,1.08-1.38,1.6l1.37,1.28C95.18,53.5,95.67,52.93,96.15,52.35Z"/><path class="cls-1" d="M94.67,54.05,93.3,52.77c-.49.5-1,1-1.5,1.49l1.27,1.38C93.63,55.14,94.15,54.59,94.67,54.05Z"/><path class="cls-2" d="M93.07,55.64,91.8,54.26c-.51.48-1.06.92-1.61,1.37l1.16,1.47C91.94,56.63,92.52,56.16,93.07,55.64Z"/><path class="cls-1" d="M91.35,57.1l-1.16-1.47c-.55.44-1.13.84-1.7,1.25l1.05,1.55C90.15,58,90.77,57.57,91.35,57.1Z"/><path class="cls-2" d="M89.54,58.43l-1.05-1.55c-.6.37-1.18.77-1.8,1.1l.92,1.63C88.28,59.26,88.9,58.83,89.54,58.43Z"/><path class="cls-1" d="M87.61,59.61,86.69,58a26.65,26.65,0,0,1-2.51,1.25c.23.55.5,1.16.74,1.73A26,26,0,0,0,87.61,59.61Z"/><path class="cls-2" d="M84.18,59.23a27.72,27.72,0,0,1-2.76,1l.55,1.8c1-.33,2-.67,3-1.09C84.68,60.39,84.41,59.78,84.18,59.23Z"/><path class="cls-1" d="M100.31,38.43c-.14.76-.29,1.51-.47,2.25a16.31,16.31,0,0,1,1.85.33c.18-.75.33-1.5.47-2.25Z"/><path class="cls-2" d="M103.05,28.13l-1.87-.06-.07,1.8,1.88.07Z"/><path class="cls-3" d="M103.05,28.13l-1,0L102,29.9l1,0Z"/><path d="M103,29.94l-1,0-.11,2.18,1,.06Z"/><path class="cls-3" d="M102.88,32.14l-1-.06-.16,2.18,1,.09Z"/><path d="M102.51,36.41c.08-.69.15-1.38.21-2.06l-1-.09-.2,2A2.8,2.8,0,0,1,102.51,36.41Z"/><path class="cls-3" d="M102.51,36.41a2.8,2.8,0,0,0-1-.17c-.09.78-.21,1.57-.35,2.35l1,.17C102.29,38,102.41,37.19,102.51,36.41Z"/><path class="cls-3" d="M101.69,41a6.64,6.64,0,0,0-1-.2c-.16.68-.34,1.35-.56,2l.94.3C101.33,42.42,101.52,41.72,101.69,41Z"/><path d="M101.1,43.12l-.94-.3c-.21.7-.49,1.37-.73,2l.91.38C100.6,44.54,100.89,43.84,101.1,43.12Z"/><path class="cls-3" d="M99.5,47.1c.31-.6.56-1.24.84-1.85l-.91-.38c-.29.61-.52,1.24-.84,1.83C98.89,46.82,99.2,47,99.5,47.1Z"/><path d="M99.5,47.1c-.3-.15-.61-.28-.91-.4-.26.48-.48,1-.76,1.43l.85.49C99,48.13,99.22,47.61,99.5,47.1Z"/><path class="cls-3" d="M96.15,52.35l-.78-.62c-.45.56-.93,1.11-1.42,1.65l.72.67C95.18,53.5,95.67,52.93,96.15,52.35Z"/><path d="M94.67,54.05,94,53.38c-.51.52-1,1-1.55,1.53l.67.73C93.63,55.14,94.15,54.59,94.67,54.05Z"/><path class="cls-3" d="M93.07,55.64l-.67-.73c-.53.5-1.09,1-1.66,1.41l.61.78C91.94,56.63,92.52,56.16,93.07,55.64Z"/><path class="cls-3" d="M89.54,58.43,89,57.61c-.61.39-1.21.8-1.85,1.14l.48.86C88.28,59.26,88.9,58.83,89.54,58.43Z"/><path d="M87.61,59.61l-.48-.86a28.65,28.65,0,0,1-2.6,1.3l.39.91A26,26,0,0,0,87.61,59.61Z"/><path class="cls-3" d="M84.53,60.05c-.93.4-1.89.74-2.85,1.05l.29.95c1-.33,2-.67,3-1.09Z"/><path d="M91.35,57.1l-.61-.78c-.56.46-1.16.87-1.76,1.29l.56.82C90.15,58,90.77,57.57,91.35,57.1Z"/><path d="M97.48,50.53,96.67,50c-.4.61-.86,1.17-1.3,1.75l.78.62C96.6,51.75,97.07,51.17,97.48,50.53Z"/><path class="cls-3" d="M98.68,48.62l-.85-.49c-.37.63-.74,1.25-1.16,1.85l.81.55C97.92,49.92,98.3,49.27,98.68,48.62Z"/><path d="M101.18,38.59c-.13.74-.28,1.49-.46,2.22a6.64,6.64,0,0,1,1,.2c.18-.75.33-1.5.47-2.25Z"/><rect class="cls-4" x="92.83" y="0.38" width="29.25" height="36.63" rx="4.97"/><path class="cls-5" d="M108.94,2.12c-4.65,7.7-9.85,15.13-14.72,22.72V17.39c2.26-5.13,4.84-10.16,7.44-15.27Zm7.26,0h-.51c-6.49,11-11.38,22.07-17.32,33.11.12,0,.23,0,.35,0H103c5.89-9.64,11.77-19.36,17.66-28.91A4.49,4.49,0,0,0,116.2,2.12Zm-2.46,33.15h2.46a4.51,4.51,0,0,0,4.5-4.5V22.29C118.27,26.64,115.93,31,113.74,35.27Z"/><path class="cls-6" d="M105.65,29.25a2.74,2.74,0,0,1-2.11-1,3.06,3.06,0,0,1-.67-2.34l.66-5.35A6.53,6.53,0,0,1,102,16.29a6.06,6.06,0,1,1,12.1,0,6.54,6.54,0,0,1-1.65,4.37l.86,5.11a3.06,3.06,0,0,1-.61,2.42,2.76,2.76,0,0,1-2.15,1.06Z"/><path class="cls-7" d="M105.65,28.17a1.74,1.74,0,0,1-1.34-.64,2,2,0,0,1-.43-1.49l.73-5.87A5.39,5.39,0,0,1,103,16.29a5,5,0,1,1,10.06,0,5.46,5.46,0,0,1-1.73,4l1,5.67a2,2,0,0,1-.39,1.54,1.75,1.75,0,0,1-1.37.67Z"/><path d="M110.84,26.69h-5.5l1-7.48a3.65,3.65,0,1,1,3.21.1Z"/><path class="cls-8" d="M57,87.9c-4.47,0-2.28,0-3.75,0-1,0-1.9.16-2.85.23a29,29,0,0,1-3.87.08,50.16,50.16,0,0,1-5.2-.14,13.13,13.13,0,0,0-2,0,1.93,1.93,0,0,1-2.23-2,10.9,10.9,0,0,1,0-1.4c.2-2.94.16-5.89.2-8.83,0-2-.19-4-.15-6a4.57,4.57,0,0,1,0-.64,1,1,0,0,1,1.09-1c.46,0,.91,0,1.36,0,2.69-.12,9.07.07,12.59.06a37.87,37.87,0,0,0,4-.06c1.38-.07,1.74.59,2,1.72a14.54,14.54,0,0,1,0,3.23c0,2.74-.15,5.47-.07,8.19A32.67,32.67,0,0,1,58.37,86C58.35,87.3,57.65,87.9,57,87.9Z"/><path class="cls-9" d="M57.41,69.14a2.43,2.43,0,0,0-.76-.17c-3.87,0-2.45.08-4.92.07-2.87,0-6,0-7.7-.13s-3.46-.06-5.19-.07a.91.91,0,0,0-1,1c.09,3.28.19,6.54.16,9.81,0,1.05.07,2.09,0,3.16a15.37,15.37,0,0,0,0,3.65c.1.69.41,1,1.14,1,.43,0,.86-.05,1.28,0,2.73.12,6.58,0,7.8.1a3.65,3.65,0,0,0,1.27-.08c1.72-.16,1.43-.39,3.13-.24,3,.26,1.75,0,4.16,0,.34,0,.7,0,1-.38a20.17,20.17,0,0,0,0-4,11.48,11.48,0,0,1-.17-2.11c0-1.72.1-3.45.11-5.18a28.35,28.35,0,0,1,.1-3.44A5.2,5.2,0,0,0,57.41,69.14Z"/><path class="cls-10" d="M45.91,77.93c-.49-.1-1.06-.44-1.58-.33a2.13,2.13,0,0,0-.76.46c-.45.36-.92,1.17-.46,1.7.26.29.71.24,1,.22s.45-.18.66-.55.51-.42.86-.66S46.24,78.14,45.91,77.93Z"/><path class="cls-10" d="M47.84,84.76c0,.42.21.54.61.69s.86.28,1.09,0a2.69,2.69,0,0,0,.27-.72,1.75,1.75,0,0,1,.2-.57c.11-.15.32-.15.42-.31a.67.67,0,0,0-.19-.78,1.27,1.27,0,0,0-1.47-.31C48,83.15,47.82,84.37,47.84,84.76Z"/><path class="cls-10" d="M39.88,81.61a3.27,3.27,0,0,0-.42,2.12c0,.58,0,1.71.69,1.86,1.13.23.57-1.09.53-1.58a2.88,2.88,0,0,1,.22-1.44c.17-.4.39-.66.11-1S39.85,81.32,39.88,81.61Z"/><path class="cls-10" d="M53.39,81a1.23,1.23,0,0,0-.92.57c-.15.28-.43.76-.31,1.08.18.49.7.5,1.12.5a1.19,1.19,0,0,0,1.21-.66c.36-.47,1-1.37,0-1.53C54.12,80.93,53.79,81,53.39,81Z"/><path class="cls-10" d="M39.94,72.38c-.07.45-.22,1.15.14,1.51a2.2,2.2,0,0,0,1.39.35,1.41,1.41,0,0,0,.37-.36c.25-.42-.12-.64-.08-1,.08-.78,1.85-.9,1.62-1.93-.1-.44-.75-.52-1.12-.56-.79-.08-2.19.06-2.22,1.1A6.75,6.75,0,0,1,39.94,72.38Z"/><path class="cls-10" d="M42.72,72.88c-.43.09,0,.67.38.65a.44.44,0,0,0,.43-.53c-.11-.41-1-.49-.94,0"/><path class="cls-10" d="M51.22,76c-.22.27-.66.6-.15.83a.92.92,0,0,0,1.07-.31c.33-.68-.56-.79-.92-.48"/><path class="cls-11" d="M46,78.12c-.5-.11-1.07-.45-1.59-.34a2.24,2.24,0,0,0-.76.47c-.45.35-.92,1.16-.45,1.7.25.29.7.23,1,.22s.44-.19.65-.55.52-.43.86-.66S46.36,78.32,46,78.12Z"/><path class="cls-11" d="M48,85c0,.42.22.54.61.69s.86.28,1.1,0a2.83,2.83,0,0,0,.26-.71,1.9,1.9,0,0,1,.2-.58c.12-.14.32-.14.42-.3a.67.67,0,0,0-.18-.79A1.28,1.28,0,0,0,48.9,83C48.14,83.34,48,84.55,48,85Z"/><path class="cls-11" d="M40.07,81.76a3.26,3.26,0,0,0-.42,2.12c0,.58,0,1.71.69,1.86,1.13.23.56-1.09.53-1.58a3.05,3.05,0,0,1,.21-1.45c.18-.39.4-.65.11-1S40,81.47,40.07,81.76Z"/><path class="cls-11" d="M53.51,81.2a1.25,1.25,0,0,0-.91.58c-.16.27-.43.75-.32,1.08.19.49.7.5,1.13.5.69,0,.83-.17,1.21-.67s1-1.37,0-1.52C54.25,81.12,53.92,81.23,53.51,81.2Z"/><path class="cls-11" d="M40.06,72.57c-.06.44-.22,1.15.15,1.5a2.24,2.24,0,0,0,1.38.36,1.16,1.16,0,0,0,.37-.36c.26-.42-.11-.64-.08-1,.08-.78,1.86-.89,1.62-1.92-.1-.44-.75-.52-1.12-.56-.78-.08-2.19.06-2.22,1.09A5.39,5.39,0,0,1,40.06,72.57Z"/><path class="cls-11" d="M42.84,73.06c-.42.09,0,.67.39.66a.43.43,0,0,0,.42-.53c-.11-.42-1-.49-.94,0"/><path class="cls-11" d="M51.34,76.16c-.22.26-.65.59-.14.82a.89.89,0,0,0,1.06-.31c.34-.68-.56-.79-.92-.48"/><path class="cls-8" d="M57,107a33.39,33.39,0,0,1-3.75,0c-1,0-1.9.17-2.85.24a29,29,0,0,1-3.87.08,50.16,50.16,0,0,1-5.2-.14,13.13,13.13,0,0,0-2,0,1.93,1.93,0,0,1-2.23-2,11.06,11.06,0,0,1,0-1.41c.2-2.94.16-5.88.2-8.83,0-2-.19-4-.15-6a4.57,4.57,0,0,1,0-.64,1,1,0,0,1,1.09-1c.46,0,.91,0,1.36,0,2.69-.13,9.07.07,12.59.06a37.87,37.87,0,0,0,4-.06c1.38-.07,1.74.58,2,1.72a14.54,14.54,0,0,1,0,3.23c0,2.73-.15,5.47-.07,8.19a32.62,32.62,0,0,1,.17,4.64C58.35,106.38,57.65,107,57,107Z"/><path class="cls-8" d="M57.41,88.21a2.41,2.41,0,0,0-.76-.16c-3.87,0-2.45.08-4.92.07-2.87,0-6-.05-7.7-.13s-3.46-.06-5.19-.07a.91.91,0,0,0-1,1c.09,3.28.19,6.54.16,9.81,0,1,.07,2.09,0,3.15a15.45,15.45,0,0,0,0,3.66c.1.69.41,1,1.14,1,.43,0,.86,0,1.28,0,2.73.12,6.58,0,7.8.1a3.65,3.65,0,0,0,1.27-.08c1.72-.16,1.43-.39,3.13-.24,3,.26,1.75,0,4.16,0,.34,0,.7,0,1-.38a20.27,20.27,0,0,0,0-4.05,11.3,11.3,0,0,1-.17-2.1c0-1.73.1-3.45.11-5.18a28.3,28.3,0,0,1,.1-3.44A5.25,5.25,0,0,0,57.41,88.21Z"/><path class="cls-10" d="M45.91,97c-.49-.1-1.06-.44-1.58-.33a2.13,2.13,0,0,0-.76.46c-.45.35-.92,1.16-.46,1.7.26.29.71.24,1,.22s.45-.19.66-.55.51-.43.86-.66S46.24,97.22,45.91,97Z"/><path class="cls-10" d="M47.84,103.84c0,.42.21.54.61.69s.86.28,1.09,0a2.69,2.69,0,0,0,.27-.72,1.9,1.9,0,0,1,.2-.58c.11-.14.32-.14.42-.3a.67.67,0,0,0-.19-.78,1.27,1.27,0,0,0-1.47-.31C48,102.23,47.82,103.44,47.84,103.84Z"/><path class="cls-10" d="M39.88,100.69a3.26,3.26,0,0,0-.42,2.12c0,.58,0,1.71.69,1.86,1.13.23.57-1.09.53-1.58a2.94,2.94,0,0,1,.22-1.45c.17-.39.39-.65.11-1S39.85,100.4,39.88,100.69Z"/><path class="cls-10" d="M53.39,100.1a1.23,1.23,0,0,0-.92.57c-.15.27-.43.76-.31,1.08.18.49.7.5,1.12.5a1.19,1.19,0,0,0,1.21-.66c.36-.47,1-1.37,0-1.53C54.12,100,53.79,100.12,53.39,100.1Z"/><path class="cls-10" d="M39.94,91.46c-.07.45-.22,1.15.14,1.5a2.15,2.15,0,0,0,1.39.36,1.41,1.41,0,0,0,.37-.36c.25-.42-.12-.64-.08-1,.08-.78,1.85-.89,1.62-1.92-.1-.44-.75-.52-1.12-.56-.79-.08-2.19.06-2.22,1.09A6.74,6.74,0,0,1,39.94,91.46Z"/><path class="cls-10" d="M42.72,92c-.43.09,0,.67.38.66a.44.44,0,0,0,.43-.53c-.11-.41-1-.49-.94,0"/><path class="cls-10" d="M51.22,95.05c-.22.26-.66.6-.15.83a.92.92,0,0,0,1.07-.31c.33-.68-.56-.8-.92-.48"/><path class="cls-12" d="M46,97.19c-.5-.1-1.07-.44-1.59-.33a2.38,2.38,0,0,0-.76.46c-.45.36-.92,1.17-.45,1.7.25.3.7.24,1,.23s.44-.19.65-.55.52-.43.86-.66S46.36,97.4,46,97.19Z"/><path class="cls-12" d="M48,104c0,.41.22.54.61.69s.86.28,1.1,0a2.91,2.91,0,0,0,.26-.72,1.94,1.94,0,0,1,.2-.57c.12-.15.32-.14.42-.3a.67.67,0,0,0-.18-.79,1.28,1.28,0,0,0-1.47-.3C48.14,102.41,48,103.63,48,104Z"/><path class="cls-12" d="M40.07,100.83a3.3,3.3,0,0,0-.42,2.13c0,.58,0,1.71.69,1.86,1.13.22.56-1.09.53-1.58a3.05,3.05,0,0,1,.21-1.45c.18-.39.4-.65.11-1S40,100.54,40.07,100.83Z"/><path class="cls-12" d="M53.51,100.28a1.27,1.27,0,0,0-.91.57c-.16.28-.43.76-.32,1.09.19.49.7.5,1.13.5.69,0,.83-.17,1.21-.67s1-1.37,0-1.52C54.25,100.2,53.92,100.3,53.51,100.28Z"/><path class="cls-12" d="M40.06,91.64c-.06.45-.22,1.16.15,1.51a2.17,2.17,0,0,0,1.38.35,1,1,0,0,0,.37-.35c.26-.43-.11-.65-.08-1,.08-.78,1.86-.9,1.62-1.92-.1-.44-.75-.52-1.12-.56-.78-.08-2.19.06-2.22,1.09A5.12,5.12,0,0,1,40.06,91.64Z"/><path class="cls-12" d="M42.84,92.14c-.42.09,0,.67.39.66a.44.44,0,0,0,.42-.53c-.11-.42-1-.49-.94,0"/><path class="cls-12" d="M51.34,95.24c-.22.26-.65.59-.14.82a.89.89,0,0,0,1.06-.31c.34-.68-.56-.79-.92-.48"/><path class="cls-8" d="M62,110.94a11.28,11.28,0,0,0,0-3.23c-.35-1.14-.84-1.79-2.71-1.72-2,.07.75,0-5.41.06-4.76,0-13.36-.18-17-.06-.61,0-1.23,0-1.84,0-.91,0-1.37.33-1.48,1,0,.21,0,.43,0,.64-.06,2,.24,4,.21,6,0,.21,0,.43,0,.65H61.94C62,113.17,62,112.06,62,110.94Z"/><path class="cls-9" d="M61.15,113.14a22.05,22.05,0,0,1,.14-3.44,4,4,0,0,0-.46-2.8,3.89,3.89,0,0,0-1-.17c-5.22,0-3.31.08-6.64.07-3.88,0-8.09,0-10.39-.13s-4.68-.06-7-.07c-.85,0-1.37.39-1.35,1,.08,2.25.14,4.49.18,6.74H61.12C61.13,113.9,61.15,113.52,61.15,113.14Z"/><path class="cls-10" d="M41,110.63c-.57.09,0,.68.52.66s.68-.25.58-.53-1.33-.49-1.28,0"/><path class="cls-10" d="M53.71,108.19c.45-.68-.75-.79-1.24-.48v0c-.19.17-.5.37-.51.55h1.7S53.7,108.21,53.71,108.19Z"/><path class="cls-10" d="M52,108.23c0,.1.07.19.31.27a1.54,1.54,0,0,0,1.39-.27Z"/><path class="cls-11" d="M41.16,110.82c-.58.09.05.67.52.66s.67-.26.57-.53c-.15-.42-1.32-.49-1.27,0"/><path class="cls-11" d="M52.64,107.9v0a5,5,0,0,0-.42.37h1.72C54.12,107.69,53.09,107.61,52.64,107.9Z"/><path class="cls-11" d="M52.22,108.23c-.14.16-.17.33.22.46a1.51,1.51,0,0,0,1.44-.31,1.56,1.56,0,0,0,.06-.15Z"/><rect class="cls-13" width="93.29" height="69.97" rx="2.45"/><rect class="cls-4" x="3.11" y="2.97" width="87.22" height="64.18"/><rect x="4.52" y="4.52" width="83.97" height="60.78"/><path class="cls-14" d="M6.22,6.36l80.15.28.14,50.19S59.09,58.1,49.19,44.53,38.13,24.33,25,23C6.36,21.2,6.22,6.36,6.22,6.36Z"/><path class="cls-15" d="M90.33.85,68.59,1.1l-21.73.12c-14.49,0-29,.23-43.47.16h0a2.55,2.55,0,0,0-1.52.85A2.54,2.54,0,0,0,1.5,4l0,4.15-.09,8.29L1.19,33C1.11,44,.91,55.1.71,66.16.65,55.1.6,44,.67,33l0-16.59,0-8.29L.76,4a3.23,3.23,0,0,1,.57-2.2,3.21,3.21,0,0,1,2-1.14h.05c14.49-.12,29,0,43.47,0l21.73,0Z"/><path class="cls-16" d="M90.33,2.65,53.08,2.8q-18.63.08-37.25.31,18.63.18,37.25.16L90,3.29l.1,30.92c0,10.41.11,20.83.22,31.24.11-10.41.2-20.83.21-31.24L90.65,3V2.65Z"/><path class="cls-17" d="M94.25,30.74c-.27-4-.4-8.1-.5-12.14s-.11-8.07-.15-12.18a5.13,5.13,0,0,1,4.26-4.79,27.91,27.91,0,0,1,3.14,0c1,0,2,0,3,.07,4,.1,8.1.23,12.15.5-4.05.28-8.1.41-12.15.51-2,.11-4.15,0-6,.16a3.87,3.87,0,0,0-3.15,3.66c-.07,4,0,8.08-.16,12.12S94.53,26.69,94.25,30.74Z"/></g></g></svg>