<svg id="Layer_1" width="63px" height="60px" data-name="Layer 1" xmlns="http://www.w3.org/2000/svg" xmlns:xlink="http://www.w3.org/1999/xlink" viewBox="0 0 101 96"><defs><style>.cls-1{fill:#4e576b;}.cls-2{fill:#ed1c24;}.cls-3{fill:#ce181e;}.cls-4{fill:#6d6e71;}.cls-5{fill:url(#linear-gradient);}.cls-6{fill:#a7a9ac;}.cls-7{fill:#58595b;}.cls-8{fill:#99743b;}.cls-9{fill:#ba8f47;}.cls-10{fill:#edc180;}.cls-11{fill:#806130;}.cls-12{fill:#a27d3d;}.cls-13{fill:#d5ad75;}.cls-14{fill:url(#linear-gradient-2);}.cls-15{fill:#c7c8ca;}.cls-16{fill:#626e83;opacity:0.7;}.cls-17{fill:url(#linear-gradient-3);}</style><linearGradient id="linear-gradient" x1="88.46" y1="30.42" x2="90.16" y2="2.86" gradientUnits="userSpaceOnUse"><stop offset="0" stop-color="#b5b7b9" stop-opacity="0"/><stop offset="1" stop-color="#b5b7b9"/></linearGradient><linearGradient id="linear-gradient-2" x1="38.16" y1="47.87" x2="38.16" y2="5.79" gradientUnits="userSpaceOnUse"><stop offset="0" stop-color="#fff" stop-opacity="0"/><stop offset="1" stop-color="#fff" stop-opacity="0.5"/></linearGradient><linearGradient id="linear-gradient-3" x1="86.57" y1="24.27" x2="86.99" y2="0.52" xlink:href="#linear-gradient"/></defs><title>TV</title><path class="cls-1" d="M87.47,30.09,85.91,30l-.09,1.8,1.56.1Z"/><path class="cls-2" d="M87.38,31.93l-1.56-.1-.13,1.8,1.56.13Z"/><path class="cls-1" d="M87.07,35.48c.07-.57.13-1.14.18-1.72l-1.56-.13q-.07.85-.18,1.71A4.24,4.24,0,0,1,87.07,35.48Z"/><path class="cls-2" d="M87.07,35.48a4.24,4.24,0,0,0-1.56-.14c-.07.61-.17,1.22-.27,1.83l1.54.27C86.89,36.79,87,36.14,87.07,35.48Z"/><path class="cls-2" d="M86.39,39.32A13.81,13.81,0,0,0,84.85,39c-.13.53-.27,1.05-.44,1.56l1.49.47C86.09,40.49,86.25,39.91,86.39,39.32Z"/><path class="cls-1" d="M85.9,41.07l-1.49-.47c-.17.57-.39,1.11-.59,1.66l1.45.59C85.48,42.26,85.72,41.67,85.9,41.07Z"/><path class="cls-2" d="M84.56,44.39c.26-.5.47-1,.71-1.54l-1.45-.59c-.24.51-.44,1-.71,1.53A15.43,15.43,0,0,1,84.56,44.39Z"/><path class="cls-1" d="M84.56,44.39a15.43,15.43,0,0,0-1.45-.6c-.19.36-.36.74-.58,1.09l1.35.78C84.14,45.25,84.34,44.81,84.56,44.39Z"/><path class="cls-2" d="M83.88,45.66l-1.35-.78c-.3.51-.6,1-.94,1.49l1.29.88A17.63,17.63,0,0,0,83.88,45.66Z"/><path class="cls-1" d="M82.88,47.25l-1.29-.88c-.32.49-.69,1-1,1.42l1.22,1C82.15,48.27,82.54,47.78,82.88,47.25Z"/><path class="cls-2" d="M81.77,48.76l-1.22-1c-.37.45-.75.9-1.15,1.33l1.14,1.06C81,49.72,81.38,49.25,81.77,48.76Z"/><path class="cls-1" d="M80.54,50.18,79.4,49.12c-.41.42-.81.85-1.25,1.23l1,1.15C79.68,51.09,80.1,50.63,80.54,50.18Z"/><path class="cls-2" d="M79.2,51.5l-1-1.15c-.43.41-.89.78-1.34,1.15l1,1.22C78.26,52.33,78.75,51.94,79.2,51.5Z"/><path class="cls-1" d="M77.78,52.72l-1-1.22c-.46.37-.94.7-1.42,1,.28.41.58.87.87,1.29C76.77,53.47,77.29,53.12,77.78,52.72Z"/><path class="cls-2" d="M76.26,53.83c-.29-.42-.59-.88-.87-1.29-.5.31-1,.64-1.5.92l.77,1.36C75.21,54.53,75.73,54.17,76.26,53.83Z"/><path class="cls-1" d="M74.66,54.82l-.77-1.36c-.68.39-1.38.72-2.09,1,.19.46.41,1,.62,1.44A23.39,23.39,0,0,0,74.66,54.82Z"/><path class="cls-2" d="M71.8,54.5a23.47,23.47,0,0,1-2.3.85l.45,1.5c.84-.27,1.66-.56,2.47-.91C72.21,55.47,72,55,71.8,54.5Z"/><path class="cls-1" d="M85.24,37.17c-.11.63-.24,1.26-.39,1.87a13.81,13.81,0,0,1,1.54.28c.15-.63.28-1.25.39-1.88Z"/><path class="cls-2" d="M87.53,28.58l-1.57,0,0,1.5,1.56.06Z"/><path class="cls-3" d="M87.53,28.58l-.83,0,0,1.5.82,0Z"/><path d="M87.47,30.09l-.82,0-.09,1.82.82.05Z"/><path class="cls-3" d="M87.38,31.93l-.82-.05-.13,1.81.82.07Z"/><path d="M87.07,35.48c.07-.57.13-1.14.18-1.72l-.82-.07-.17,1.65A2.33,2.33,0,0,1,87.07,35.48Z"/><path class="cls-3" d="M87.07,35.48a2.33,2.33,0,0,0-.81-.14c-.08.65-.18,1.31-.29,2l.81.14C86.89,36.79,87,36.14,87.07,35.48Z"/><path class="cls-3" d="M86.39,39.32a4.83,4.83,0,0,0-.81-.17c-.14.57-.29,1.13-.46,1.68l.78.24C86.09,40.49,86.25,39.91,86.39,39.32Z"/><path d="M85.9,41.07l-.78-.24c-.18.58-.41,1.14-.62,1.71l.77.31C85.48,42.26,85.72,41.67,85.9,41.07Z"/><path class="cls-3" d="M84.56,44.39c.26-.5.47-1,.71-1.54l-.77-.31c-.23.5-.43,1-.69,1.52A8.15,8.15,0,0,1,84.56,44.39Z"/><path d="M84.56,44.39a8.15,8.15,0,0,0-.75-.33c-.22.39-.4.81-.64,1.19l.71.41C84.14,45.25,84.34,44.81,84.56,44.39Z"/><path class="cls-3" d="M81.77,48.76l-.64-.51c-.39.47-.78.93-1.19,1.37l.6.56C81,49.72,81.38,49.25,81.77,48.76Z"/><path d="M80.54,50.18l-.6-.56c-.42.43-.84.88-1.29,1.28l.55.6C79.68,51.09,80.1,50.63,80.54,50.18Z"/><path class="cls-3" d="M79.2,51.5l-.55-.6c-.44.42-.91.8-1.38,1.18l.51.64C78.26,52.33,78.75,51.94,79.2,51.5Z"/><path class="cls-3" d="M76.26,53.83l-.46-.68c-.51.32-1,.67-1.55,1l.41.72C75.21,54.53,75.73,54.17,76.26,53.83Z"/><path d="M74.66,54.82l-.41-.72a20.72,20.72,0,0,1-2.16,1.08l.33.76A23.39,23.39,0,0,0,74.66,54.82Z"/><path class="cls-3" d="M72.09,55.18c-.78.34-1.57.62-2.37.88l.23.79c.84-.27,1.66-.56,2.47-.91Z"/><path d="M77.78,52.72l-.51-.64c-.47.38-1,.72-1.47,1.07l.46.68C76.77,53.47,77.29,53.12,77.78,52.72Z"/><path d="M82.88,47.25l-.68-.46c-.33.51-.71,1-1.07,1.46l.64.51C82.15,48.27,82.54,47.78,82.88,47.25Z"/><path class="cls-3" d="M83.88,45.66l-.71-.41c-.31.52-.61,1-1,1.54l.68.46A17.63,17.63,0,0,0,83.88,45.66Z"/><path d="M86,37.3c-.11.62-.24,1.24-.39,1.85a4.83,4.83,0,0,1,.81.17c.15-.63.28-1.25.39-1.88Z"/><path class="cls-1" d="M85.34,25.44l-1.56-.06-.09,1.8,1.56.09Z"/><path class="cls-2" d="M85.25,27.27l-1.56-.09L83.56,29l1.56.14Z"/><path class="cls-1" d="M84.94,30.83c.07-.58.13-1.15.18-1.72L83.56,29q-.07.87-.18,1.71A4.24,4.24,0,0,1,84.94,30.83Z"/><path class="cls-2" d="M84.94,30.83a4.24,4.24,0,0,0-1.56-.15c-.07.62-.17,1.23-.27,1.83l1.54.27C84.76,32.13,84.86,31.48,84.94,30.83Z"/><path class="cls-2" d="M84.26,34.66a13.93,13.93,0,0,0-1.54-.27c-.13.52-.27,1-.44,1.56l1.49.47C84,35.84,84.12,35.25,84.26,34.66Z"/><path class="cls-1" d="M83.77,36.42,82.28,36c-.17.56-.39,1.1-.59,1.65l1.45.59C83.35,37.6,83.59,37,83.77,36.42Z"/><path class="cls-2" d="M82.43,39.74c.27-.51.47-1,.71-1.55l-1.45-.59c-.24.51-.43,1-.71,1.53C81.44,39.32,81.94,39.49,82.43,39.74Z"/><path class="cls-1" d="M82.43,39.74c-.49-.25-1-.42-1.45-.61-.19.37-.36.75-.58,1.1l1.36.78C82,40.6,82.21,40.16,82.43,39.74Z"/><path class="cls-2" d="M81.76,41l-1.36-.78c-.3.5-.6,1-.94,1.48l1.29.89C81.12,42.09,81.44,41.55,81.76,41Z"/><path class="cls-1" d="M80.75,42.6l-1.29-.89c-.31.5-.68.95-1,1.42l1.22,1C80,43.61,80.41,43.12,80.75,42.6Z"/><path class="cls-2" d="M79.64,44.11l-1.22-1c-.37.46-.75.9-1.15,1.33l1.14,1.07C78.84,45.07,79.25,44.59,79.64,44.11Z"/><path class="cls-1" d="M78.41,45.53l-1.14-1.07c-.41.42-.81.85-1.25,1.24l1,1.15C77.55,46.44,78,46,78.41,45.53Z"/><path class="cls-2" d="M77.07,46.85,76,45.7c-.43.41-.89.77-1.34,1.14l1,1.23C76.13,47.68,76.62,47.28,77.07,46.85Z"/><path class="cls-1" d="M75.65,48.07l-1-1.23c-.46.37-.94.7-1.42,1l.87,1.3C74.64,48.82,75.16,48.46,75.65,48.07Z"/><path class="cls-2" d="M74.13,49.18l-.87-1.3c-.5.31-1,.65-1.5.92l.77,1.36C73.09,49.87,73.6,49.51,74.13,49.18Z"/><path class="cls-1" d="M72.53,50.16l-.77-1.36a22.67,22.67,0,0,1-2.09,1.05c.19.46.41,1,.62,1.43A23.39,23.39,0,0,0,72.53,50.16Z"/><path class="cls-2" d="M69.67,49.85c-.75.32-1.52.59-2.3.84l.46,1.5c.83-.27,1.65-.56,2.46-.91C70.08,50.81,69.86,50.31,69.67,49.85Z"/><path class="cls-1" d="M83.11,32.51c-.11.63-.24,1.26-.39,1.88a13.93,13.93,0,0,1,1.54.27c.15-.62.28-1.25.39-1.88Z"/><path class="cls-2" d="M85.4,23.93l-1.57-.05,0,1.5,1.56.06Z"/><path class="cls-3" d="M85.4,23.93l-.83,0,0,1.51.82,0Z"/><path d="M85.34,25.44l-.82,0-.09,1.81.82.05Z"/><path class="cls-3" d="M85.25,27.27l-.82-.05L84.3,29l.82.07Z"/><path d="M84.94,30.83c.07-.58.13-1.15.18-1.72L84.3,29l-.17,1.64A2.12,2.12,0,0,1,84.94,30.83Z"/><path class="cls-3" d="M84.94,30.83a2.12,2.12,0,0,0-.81-.15c-.08.66-.18,1.31-.29,2l.81.14C84.76,32.13,84.86,31.48,84.94,30.83Z"/><path class="cls-3" d="M84.26,34.66a6.11,6.11,0,0,0-.81-.16c-.13.56-.29,1.12-.46,1.67l.78.25C84,35.84,84.12,35.25,84.26,34.66Z"/><path d="M83.77,36.42,83,36.17c-.18.58-.41,1.14-.62,1.71l.77.31C83.35,37.6,83.59,37,83.77,36.42Z"/><path class="cls-3" d="M82.43,39.74c.27-.51.47-1,.71-1.55l-.77-.31c-.23.51-.43,1-.69,1.52C81.93,39.5,82.18,39.61,82.43,39.74Z"/><path d="M82.43,39.74c-.25-.13-.5-.24-.75-.34-.22.4-.4.81-.64,1.19l.72.42C82,40.6,82.21,40.16,82.43,39.74Z"/><path class="cls-3" d="M79.64,44.11,79,43.59c-.38.47-.78.93-1.19,1.38l.6.56C78.84,45.07,79.25,44.59,79.64,44.11Z"/><path d="M78.41,45.53l-.6-.56c-.42.43-.84.87-1.29,1.27.18.21.37.41.55.61C77.55,46.44,78,46,78.41,45.53Z"/><path class="cls-3" d="M77.07,46.85c-.18-.2-.37-.4-.55-.61-.44.42-.91.8-1.38,1.18l.51.65C76.13,47.68,76.62,47.28,77.07,46.85Z"/><path class="cls-3" d="M74.13,49.18l-.46-.68c-.51.32-1,.66-1.55.94l.41.72C73.09,49.87,73.6,49.51,74.13,49.18Z"/><path d="M72.53,50.16l-.41-.72A20.79,20.79,0,0,1,70,50.53l.33.75A23.39,23.39,0,0,0,72.53,50.16Z"/><path class="cls-3" d="M70,50.53c-.78.33-1.57.61-2.37.87l.24.79c.83-.27,1.65-.56,2.46-.91Z"/><path d="M75.65,48.07l-.51-.65c-.47.38-1,.73-1.47,1.08l.46.68C74.64,48.82,75.16,48.46,75.65,48.07Z"/><path d="M80.75,42.6c-.23-.17-.46-.32-.68-.47-.32.51-.71,1-1.07,1.46l.64.52C80,43.61,80.41,43.12,80.75,42.6Z"/><path class="cls-3" d="M81.76,41,81,40.59a17.37,17.37,0,0,1-1,1.54c.22.15.45.3.68.47C81.12,42.09,81.44,41.55,81.76,41Z"/><path d="M83.84,32.64q-.16.93-.39,1.86a6.11,6.11,0,0,1,.81.16c.15-.62.28-1.25.39-1.88Z"/><rect class="cls-4" x="76.88" y="0.8" width="24.38" height="30.53" rx="4.14"/><path class="cls-5" d="M90.3,2.25C86.42,8.67,82.09,14.86,78,21.19V15c1.88-4.28,4-8.47,6.2-12.73Zm6,0h-.42c-5.41,9.2-9.49,18.4-14.44,27.59.1,0,.2,0,.3,0h3.57c4.91-8,9.81-16.13,14.72-24.09A3.75,3.75,0,0,0,96.35,2.25Zm-2,27.62h2a3.74,3.74,0,0,0,3.75-3.74V19.06C98.08,22.68,96.13,26.27,94.3,29.87Z"/><path class="cls-6" d="M87.56,24.86A2.32,2.32,0,0,1,85.8,24a2.56,2.56,0,0,1-.56-1.95l.55-4.46a5.44,5.44,0,0,1-1.3-3.55,5.05,5.05,0,1,1,10.09,0A5.45,5.45,0,0,1,93.2,17.7L93.92,22a2.59,2.59,0,0,1-.51,2,2.29,2.29,0,0,1-1.79.88Z"/><path class="cls-7" d="M87.56,24a1.46,1.46,0,0,1-1.12-.53,1.66,1.66,0,0,1-.36-1.24l.61-4.89a4.52,4.52,0,0,1-1.35-3.24,4.2,4.2,0,1,1,8.39,0,4.52,4.52,0,0,1-1.44,3.33l.79,4.73a1.63,1.63,0,0,1-.32,1.28,1.45,1.45,0,0,1-1.14.56Z"/><path d="M91.88,22.73H87.31l.81-6.24a3,3,0,0,1-1.64-2.68,3.06,3.06,0,1,1,4.31,2.77Z"/><path class="cls-8" d="M47,73.74a29,29,0,0,1-3.12,0c-.79,0-1.58.14-2.38.19a22.57,22.57,0,0,1-3.22.07A41.74,41.74,0,0,1,34,73.84a11.53,11.53,0,0,0-1.66,0,1.61,1.61,0,0,1-1.85-1.62,9.3,9.3,0,0,1,0-1.18c.17-2.45.13-4.9.17-7.35,0-1.67-.17-3.33-.13-5a4.58,4.58,0,0,1,0-.53.83.83,0,0,1,.91-.83c.37,0,.75,0,1.13,0,2.24-.1,7.55.06,10.49,0a28.56,28.56,0,0,0,3.34,0c1.15-.05,1.45.49,1.67,1.44a12.1,12.1,0,0,1,0,2.69C48.1,63.75,48,66,48,68.3a27.57,27.57,0,0,1,.14,3.86C48.14,73.23,47.56,73.73,47,73.74Z"/><path class="cls-9" d="M47.36,58.1a1.89,1.89,0,0,0-.64-.14c-3.22,0-2,.07-4.09.06-2.39,0-5,0-6.42-.11s-2.88,0-4.33-.06a.75.75,0,0,0-.83.8c.07,2.72.15,5.45.13,8.17,0,.87.05,1.74,0,2.63a13.44,13.44,0,0,0,0,3c.08.58.34.8.95.8.35,0,.71,0,1.06,0,2.28.1,5.49,0,6.5.08a2.92,2.92,0,0,0,1.06-.06,9.25,9.25,0,0,1,2.61-.21,15.14,15.14,0,0,0,3.47,0c.28,0,.58,0,.81-.32a17.22,17.22,0,0,0,0-3.37,10.16,10.16,0,0,1-.14-1.75c0-1.44.08-2.88.09-4.31a22.94,22.94,0,0,1,.09-2.87A4.39,4.39,0,0,0,47.36,58.1Z"/><path class="cls-10" d="M37.78,65.43c-.41-.09-.89-.37-1.32-.28a1.94,1.94,0,0,0-.64.39c-.37.29-.76,1-.37,1.41.21.24.58.2.87.19s.37-.16.55-.46.43-.36.72-.55S38.05,65.6,37.78,65.43Z"/><path class="cls-10" d="M39.39,71.12c0,.35.17.45.5.58s.72.23.91,0a2,2,0,0,0,.23-.6,1.54,1.54,0,0,1,.16-.47c.1-.12.27-.12.35-.26a.55.55,0,0,0-.15-.65,1.08,1.08,0,0,0-1.23-.26C39.53,69.78,39.37,70.79,39.39,71.12Z"/><path class="cls-10" d="M32.75,68.49a2.73,2.73,0,0,0-.34,1.77c0,.48,0,1.43.57,1.55.94.19.47-.91.44-1.32a2.53,2.53,0,0,1,.18-1.2c.14-.33.33-.54.09-.83S32.73,68.25,32.75,68.49Z"/><path class="cls-10" d="M44,68a1,1,0,0,0-.77.48c-.12.23-.35.63-.25.9s.58.42.93.42c.58,0,.7-.14,1-.56s.8-1.14,0-1.27C44.62,67.93,44.35,68,44,68Z"/><path class="cls-10" d="M32.8,60.8c0,.38-.18,1,.12,1.26a1.8,1.8,0,0,0,1.16.29,1,1,0,0,0,.3-.3c.22-.35-.09-.53-.06-.84.07-.64,1.54-.74,1.35-1.6-.09-.36-.63-.43-.94-.46-.65-.07-1.82.05-1.85.91A4,4,0,0,1,32.8,60.8Z"/><path class="cls-10" d="M35.12,61.22c-.36.07,0,.55.32.54a.36.36,0,0,0,.35-.44c-.09-.34-.81-.41-.78,0"/><path class="cls-10" d="M42.2,63.8c-.18.21-.54.49-.12.68a.76.76,0,0,0,.89-.25c.28-.57-.47-.67-.77-.4"/><path class="cls-8" d="M37.88,65.58c-.41-.08-.88-.37-1.32-.28a1.89,1.89,0,0,0-.63.39c-.38.3-.77,1-.38,1.42.21.24.59.2.88.18s.37-.15.54-.46.43-.35.72-.54S38.15,65.76,37.88,65.58Z"/><path class="cls-8" d="M39.49,71.28c0,.34.18.44.5.57s.72.23.92,0a2.66,2.66,0,0,0,.22-.6,1.94,1.94,0,0,1,.16-.48c.1-.12.27-.12.36-.25a.56.56,0,0,0-.16-.65,1,1,0,0,0-1.22-.26C39.63,69.93,39.47,71,39.49,71.28Z"/><path class="cls-8" d="M32.91,68.62a2.66,2.66,0,0,0-.35,1.77c0,.48,0,1.42.57,1.54.95.19.48-.9.45-1.31a2.36,2.36,0,0,1,.18-1.21c.14-.32.33-.54.09-.83S32.88,68.37,32.91,68.62Z"/><path class="cls-8" d="M44.11,68.16a1,1,0,0,0-.76.47c-.13.23-.36.63-.26.9s.58.42.94.42c.58,0,.69-.14,1-.55s.8-1.14,0-1.27A7,7,0,0,0,44.11,68.16Z"/><path class="cls-8" d="M32.9,61c0,.37-.18,1,.12,1.25a1.83,1.83,0,0,0,1.16.3,1.11,1.11,0,0,0,.31-.3c.21-.35-.1-.54-.07-.84.07-.65,1.55-.75,1.35-1.6-.08-.37-.62-.44-.93-.47-.66-.06-1.83.05-1.85.91A4.94,4.94,0,0,1,32.9,61Z"/><path class="cls-8" d="M35.22,61.37c-.35.08,0,.56.32.55a.37.37,0,0,0,.36-.44c-.1-.35-.82-.41-.79,0"/><path class="cls-8" d="M42.31,64c-.19.22-.55.5-.13.69a.76.76,0,0,0,.89-.26c.28-.57-.46-.66-.76-.4"/><path class="cls-11" d="M47,89.64c-3.72,0-1.89,0-3.12,0-.79,0-1.58.14-2.38.19a22.57,22.57,0,0,1-3.22.07c-1.44,0-2.89.06-4.33-.12a10.25,10.25,0,0,0-1.66,0,1.61,1.61,0,0,1-1.85-1.63,9.11,9.11,0,0,1,0-1.17c.17-2.45.13-4.9.17-7.36,0-1.66-.17-3.33-.13-5a4.58,4.58,0,0,1,0-.53.82.82,0,0,1,.91-.83c.37,0,.75,0,1.13,0,2.24-.1,7.55.06,10.49.05a32.21,32.21,0,0,0,3.34-.05c1.15,0,1.45.49,1.67,1.44a12.1,12.1,0,0,1,0,2.69c0,2.28-.13,4.56-.06,6.82a27.77,27.77,0,0,1,.14,3.87C48.14,89.13,47.56,89.63,47,89.64Z"/><path class="cls-12" d="M47.36,74a1.89,1.89,0,0,0-.64-.14c-3.22,0-2,.07-4.09.06-2.39,0-5,0-6.42-.11s-2.88,0-4.33-.06a.75.75,0,0,0-.83.8c.07,2.72.15,5.45.13,8.17,0,.87.05,1.74,0,2.63a13.44,13.44,0,0,0,0,3c.08.58.34.8.95.8.35,0,.71,0,1.06,0,2.28.1,5.49,0,6.5.08s.15,0,1.06-.06A8.89,8.89,0,0,1,43.31,89a15.14,15.14,0,0,0,3.47,0c.28,0,.58,0,.81-.32a17.22,17.22,0,0,0,0-3.37,10.24,10.24,0,0,1-.14-1.75c0-1.44.08-2.88.09-4.32a22.84,22.84,0,0,1,.09-2.86A4.39,4.39,0,0,0,47.36,74Z"/><path class="cls-13" d="M37.78,81.33c-.41-.09-.89-.37-1.32-.28a1.91,1.91,0,0,0-.64.38c-.37.3-.76,1-.37,1.42.21.24.58.2.87.19s.37-.16.55-.46.43-.36.72-.55S38.05,81.5,37.78,81.33Z"/><path class="cls-13" d="M39.39,87c0,.35.17.45.5.57s.72.24.91,0A2,2,0,0,0,41,87a1.54,1.54,0,0,1,.16-.47c.1-.13.27-.12.35-.26a.55.55,0,0,0-.15-.65,1.08,1.08,0,0,0-1.23-.26C39.53,85.67,39.37,86.69,39.39,87Z"/><path class="cls-13" d="M32.75,84.39a2.72,2.72,0,0,0-.34,1.77c0,.48,0,1.43.57,1.55.94.19.47-.91.44-1.32a2.53,2.53,0,0,1,.18-1.2c.14-.33.33-.54.09-.83S32.73,84.15,32.75,84.39Z"/><path class="cls-13" d="M44,83.9a1,1,0,0,0-.77.48c-.12.23-.35.63-.25.9s.58.42.93.41a1,1,0,0,0,1-.55c.3-.39.8-1.14,0-1.27C44.62,83.83,44.35,83.92,44,83.9Z"/><path class="cls-13" d="M32.8,76.7c0,.37-.18,1,.12,1.26a1.87,1.87,0,0,0,1.16.29,1,1,0,0,0,.3-.3c.22-.35-.09-.53-.06-.84.07-.65,1.54-.74,1.35-1.6-.09-.37-.63-.43-.94-.47-.65-.06-1.82,0-1.85.92A4,4,0,0,1,32.8,76.7Z"/><path class="cls-13" d="M35.12,77.11c-.36.08,0,.56.32.55a.36.36,0,0,0,.35-.44c-.09-.35-.81-.41-.78,0"/><path class="cls-13" d="M42.2,79.7c-.18.21-.54.49-.12.68a.75.75,0,0,0,.89-.26c.28-.56-.47-.66-.77-.4"/><path class="cls-11" d="M37.88,81.48c-.41-.08-.88-.37-1.32-.28a1.89,1.89,0,0,0-.63.39c-.38.3-.77,1-.38,1.42.21.24.59.19.88.18s.37-.15.54-.46.43-.35.72-.55S38.15,81.65,37.88,81.48Z"/><path class="cls-11" d="M39.49,87.18c0,.34.18.44.5.57s.72.23.92,0a2.66,2.66,0,0,0,.22-.6,1.81,1.81,0,0,1,.16-.48c.1-.12.27-.12.36-.25a.58.58,0,0,0-.16-.66,1.06,1.06,0,0,0-1.22-.25C39.63,85.83,39.47,86.84,39.49,87.18Z"/><path class="cls-11" d="M32.91,84.51a2.7,2.7,0,0,0-.35,1.78c0,.48,0,1.42.57,1.54.95.19.48-.9.45-1.31a2.34,2.34,0,0,1,.18-1.21c.14-.32.33-.54.09-.83S32.88,84.27,32.91,84.51Z"/><path class="cls-11" d="M44.11,84.05a1.07,1.07,0,0,0-.76.48c-.13.23-.36.63-.26.9s.58.42.94.42c.58,0,.69-.14,1-.55s.8-1.15,0-1.28C44.72,84,44.45,84.07,44.11,84.05Z"/><path class="cls-11" d="M32.9,76.86c0,.37-.18,1,.12,1.25a1.89,1.89,0,0,0,1.16.3,1.11,1.11,0,0,0,.31-.3c.21-.36-.1-.54-.07-.84.07-.65,1.55-.75,1.35-1.6-.08-.37-.62-.44-.93-.47-.66-.07-1.83,0-1.85.91A4.94,4.94,0,0,1,32.9,76.86Z"/><path class="cls-11" d="M35.22,77.27c-.35.07,0,.56.32.55a.37.37,0,0,0,.36-.45c-.1-.34-.82-.4-.79,0"/><path class="cls-11" d="M42.31,79.85c-.19.22-.55.5-.13.69a.76.76,0,0,0,.89-.26c.28-.57-.46-.66-.76-.4"/><path class="cls-8" d="M51.18,92.94a9,9,0,0,0,0-2.69c-.29-1-.7-1.5-2.26-1.44s.63,0-4.5,0c-4,0-11.14-.15-14.17,0-.51,0-1,0-1.53,0-.76,0-1.14.27-1.23.82a3.26,3.26,0,0,0,0,.54c-.05,1.67.19,3.34.17,5,0,.18,0,.36,0,.54H51.14C51.17,94.79,51.19,93.87,51.18,92.94Z"/><path class="cls-9" d="M50.48,94.77a17.28,17.28,0,0,1,.12-2.87,3.37,3.37,0,0,0-.39-2.34,3.82,3.82,0,0,0-.86-.13c-4.35,0-2.75.07-5.53,0-3.23,0-6.75,0-8.66-.1s-3.9,0-5.85-.06c-.71,0-1.14.32-1.13.79.07,1.88.13,3.74.15,5.61H50.45Z"/><path class="cls-10" d="M33.68,92.68c-.48.08,0,.56.43.55s.56-.21.48-.44-1.1-.41-1.06,0"/><path class="cls-10" d="M44.28,90.64c.37-.56-.63-.66-1-.4v0c-.16.14-.42.3-.42.46h1.42S44.27,90.66,44.28,90.64Z"/><path class="cls-10" d="M42.82,90.68c0,.08.06.16.26.22a1.28,1.28,0,0,0,1.16-.22Z"/><path class="cls-8" d="M33.82,92.84c-.48.07,0,.56.43.54s.56-.21.48-.44-1.1-.41-1.06,0"/><path class="cls-8" d="M43.38,90.4v0c-.1.1-.25.2-.34.31h1.43C44.62,90.22,43.76,90.16,43.38,90.4Z"/><path class="cls-8" d="M43,90.68c-.12.13-.14.27.18.38a1.25,1.25,0,0,0,1.2-.26,1,1,0,0,0,0-.12Z"/><rect class="cls-4" x="-0.48" y="0.49" width="77.74" height="58.31" rx="2.04"/><rect class="cls-7" x="2.11" y="2.96" width="72.68" height="53.48"/><rect x="3.29" y="4.26" width="69.97" height="50.65"/><path class="cls-14" d="M4.7,5.79,71.49,6l.12,41.82S48.76,48.9,40.51,37.59,31.3,20.76,20.37,19.69C4.82,18.16,4.7,5.79,4.7,5.79Z"/><path class="cls-15" d="M74.79,1.19,56.68,1.4l-18.11.1c-12.07,0-24.15.19-36.22.13h0a2.12,2.12,0,0,0-1.27.7A2.13,2.13,0,0,0,.77,3.78l0,3.45L.66,14.14.51,28C.44,37.18.28,46.4.11,55.62.06,46.4,0,37.18.08,28l0-13.83,0-6.91V3.78A2.81,2.81,0,0,1,.62,1.94,2.75,2.75,0,0,1,2.31,1h0C14.42.89,26.49,1,38.57,1L56.68,1Z"/><path class="cls-16" d="M74.79,2.69l-31,.13q-15.51.06-31,.26,15.52.15,31,.13l30.78,0L74.61,29c0,8.68.09,17.36.18,26q.15-13,.18-26l.09-26V2.69Z"/><path class="cls-17" d="M78.06,26.1c-.22-3.37-.33-6.74-.42-10.12s-.09-6.72-.12-10.14a4.26,4.26,0,0,1,3.55-4,21.09,21.09,0,0,1,2.61-.05c.85,0,1.69,0,2.53.06,3.38.09,6.75.19,10.13.42-3.38.23-6.75.34-10.13.42-1.64.09-3.46,0-5,.13a3.24,3.24,0,0,0-2.62,3.05c-.06,3.33,0,6.74-.14,10.1S78.29,22.73,78.06,26.1Z"/></svg>