<svg id="a0efd616-d5e6-4502-a641-8defe0c77738" data-name="logo flat"  xmlns="http://www.w3.org/2000/svg" xmlns:xlink="http://www.w3.org/1999/xlink" viewBox="0 0 1036.9259 308.2494" preserveAspectRatio="none"><defs><symbol id="a8807835-f300-4a5c-b472-0d2a02f7f64d" data-name="New Symbol" viewBox="0 0 958.093 223.985"><path d="M400.98,171.9H373.4978l-13.1093-67.399-24.5874,57.9574H323.41l-22.3445-55.62L287.75,171.9H261.8L288.628,51.0512h10.4635l32.0994,71.36,31.8632-71.36h11.0927Z" style="fill:#006"/><path d="M497.6732,94.1737l-36.9483,75.5824q-7.318,15.0389-11.8411,20.865t-9.5584,6.93H412.0549q6.4491-1.5814,14.477-12.56,8.0268-10.9807,10.8564-17.3017L400.746,94.1762l21.76-10.3144,26.7732,60.0636,27.902-60.0636Z" style="fill:#006"/><path d="M635.91,171.9H608.4284l-13.1093-67.399-24.5874,57.9574H558.341l-22.3445-55.62L522.6808,171.9h-25.95L523.5586,51.0512h10.4636l32.0993,71.36,31.8632-71.36h11.0927Z" style="fill:#006"/><path d="M733.9415,158.917l-18.96,15.499a19.714,19.714,0,0,1-7.5543-4.4859,14.6347,14.6347,0,0,1-4.2471-7.0022l-14.79,8.4171a13.4986,13.4986,0,0,1-2.9516.9847,15.1938,15.1938,0,0,1-3.5011.5123q-17.0755,0-28.2054-11.7243-11.1336-11.7231-11.1324-32.5719,0-19.8243,11.5651-32.6887T683.6677,82.994a31.8947,31.8947,0,0,1,13.3753,2.8322q6.214,2.831,8.1834,5.0353l13.6887-4.9557,4.7991,1.4148v53.974q0,7.0793,2.4791,11.2493A15.6555,15.6555,0,0,0,733.9415,158.917Zm-33.28-11.8013v-36.901a20.5136,20.5136,0,0,0-6.1767-5.0528,19.0481,19.0481,0,0,0-9.3248-2.1086,17.0021,17.0021,0,0,0-13.1789,5.7937q-5.233,5.7925-5.2318,19.1891,0,10.6413,4.8762,17.06,4.8788,6.4229,13.6912,6.4228a27.8654,27.8654,0,0,0,9.4416-1.574A21.0313,21.0313,0,0,0,700.6611,147.1157Z" style="fill:#006"/><path d="M785.8691,157.1068l-17.4658,16.4438q-10.8577-4.4759-16.2872-13.07t-5.4282-20.5293v-36.896h-8.0267V87.3206h8.0267V59.3887l24.0752-1.7306v29.74H783.35v15.5785H770.7631v30.125q0,9.0189,4.09,14.9817A25.5535,25.5535,0,0,0,785.8691,157.1068Z" style="fill:#006"/><path d="M875.2471,171.9H851.1719V118.7909a11.78,11.78,0,0,0-3.3047-8.2231q-3.3047-3.5771-10.15-3.5783a21.0407,21.0407,0,0,0-10.4237,2.4792,39.0045,39.0045,0,0,0-7.512,5.3113V171.9H795.706V51.0512h24.0752V93.85l10.006-5.744a34.9549,34.9549,0,0,1,9.3347-3.8169,40.0544,40.0544,0,0,1,9.18-1.0618q12.525,0,19.7361,7.7507t7.2111,20.4174V171.9Z" style="fill:#006"/><path d="M958.0928,142.8661q0,13.8491-9.9115,22.2649-9.9141,8.4185-24.5477,8.42a117.68,117.68,0,0,1-16.404-1.3776,51.3991,51.3991,0,0,1-16.9535-5.3113v-21.243a71.31,71.31,0,0,0,13.2162,5.7043,55.5719,55.5719,0,0,0,17.1525,2.3995q7.0011,0,11.2892-2.0464,4.2855-2.044,4.2893-7.3952,0-3.4613-3.62-5.6246-3.618-2.1634-12.5872-2.9516-16.05-1.3353-22.5012-7.788-6.4489-6.449-6.45-17.3092,0-12.275,9.8743-20.2209T925.21,82.4394a88.825,88.825,0,0,1,13.455,1.1016,77.3471,77.3471,0,0,1,12.1942,2.7526v21.4792a62.4858,62.4858,0,0,0-12.55-4.17,64.5929,64.5929,0,0,0-13.4923-1.3378q-5.8223,0-9.0859,2.0067-3.2675,2.0067-3.2649,4.6823a6.1405,6.1405,0,0,0,4.6425,6.3333,38.354,38.354,0,0,0,9.7549,1.85q15.576,1.0221,23.4062,7.711Q958.0914,131.54,958.0928,142.8661Z" style="fill:#006"/><circle cx="111.9927" cy="111.9927" r="111.9927" style="fill:#006"/><circle cx="60.4795" cy="60.4766" r="17.5424" style="fill:#db0066"/><circle cx="111.9371" cy="60.4766" r="17.5424" style="fill:#ff0"/><circle cx="163.3948" cy="60.4766" r="17.5424" style="fill:#db0066"/><circle cx="60.4795" cy="111.9342" r="17.5424" style="fill:#ff0"/><circle cx="111.9371" cy="111.9342" r="17.5424" style="fill:#db0066"/><circle cx="163.3948" cy="111.9342" r="17.5424" style="fill:#ff0"/><circle cx="60.4795" cy="163.3918" r="17.5424" style="fill:#db0066"/><circle cx="111.9371" cy="163.3918" r="17.5424" style="fill:#ff0"/><circle cx="163.3948" cy="163.3918" r="17.5424" style="fill:#db0066"/></symbol></defs><title>logo-flat-v2-1-final</title><use width="958.0928" height="223.9854" transform="translate(34.7707 50.1099)" xlink:href="#a8807835-f300-4a5c-b472-0d2a02f7f64d"/></svg>