<svg xmlns="http://www.w3.org/2000/svg" viewBox="0 0 463.53 74.88"><defs><style>.cls-1{fill:red;}</style></defs><title>Tug-Of-War</title><g id="Layer_2" data-name="Layer 2"><g id="Title_bar" data-name="Title bar"><path class="cls-1" d="M31.68,27.77c-.19,3.63-.37,7.35-.46,11.17s-.27,7.62-.36,11.52,0,7.63.09,11.35l-17.7-.09c-.09-3.72-.18-7.54,0-11.44,0-3.9.18-7.8.27-11.62S13.8,31,14,27.41s.36-7.17.54-10.44L0,16.7.45,2.18l46.29.63L47,17.43l-14.79.09C32,20.69,31.86,24.14,31.68,27.77Z"/><path class="cls-1" d="M81.14,59.9a6.65,6.65,0,0,1-1.9,2,14,14,0,0,1-2.73,1.72,18,18,0,0,1-3.17,1.09,13.57,13.57,0,0,1-3.18.46A25.21,25.21,0,0,1,61,63.71a16.06,16.06,0,0,1-6.35-4.26A18.62,18.62,0,0,1,51,52.73a30,30,0,0,1-1.18-8.89c0-2.27.09-4.9.27-7.81s.55-5.63.82-8.26c.36-3,.63-6,1.09-9.07l17.24-.19c-.54,2.64-1,5.45-1.36,8.35-.27,2.55-.54,5.36-.82,8.35s-.45,6.09-.45,9.17a6.83,6.83,0,0,0,1.54,4.45,5.52,5.52,0,0,0,4.63,1.9,7.48,7.48,0,0,0,5-1.81,6.71,6.71,0,0,0,2.09-5.08c0-2.82,0-5.18-.09-7.26s-.09-4.09-.27-6c0-1.91-.18-4-.27-6.09S79,19.88,78.78,17l16.61-.36c.09,4.45.27,8.62.36,12.52s.37,7.81.46,11.53.36,7.53.45,11.44.36,8.16.46,12.61l-16,.36Z"/><path class="cls-1" d="M147.58,21.24v6c0,2.08,0,4.26-.09,6.35v6.17c0,4.63-.18,9.35-.27,14.16a23,23,0,0,1-1.64,8.53,18.67,18.67,0,0,1-4.81,6.63,20.39,20.39,0,0,1-7.53,4.26,31.63,31.63,0,0,1-10.07,1.55,24.93,24.93,0,0,1-11.26-2.36,29.87,29.87,0,0,1-7.8-5.45l6-8.8a7.69,7.69,0,0,0,1.63,1.18,15.39,15.39,0,0,0,3,1.54,22,22,0,0,0,4.09,1.36,17.9,17.9,0,0,0,5.08.64,9.86,9.86,0,0,0,4.18-.82,8.49,8.49,0,0,0,2.9-2,8.38,8.38,0,0,0,1.73-2.54,5.9,5.9,0,0,0,.54-2.27,10.79,10.79,0,0,1-4.08,2.91,15.43,15.43,0,0,1-6.36,1.18,25.1,25.1,0,0,1-9-1.55,20.63,20.63,0,0,1-6.72-4.35A19.4,19.4,0,0,1,102.84,47a21.17,21.17,0,0,1-1.55-8,23.37,23.37,0,0,1,1.46-8.35A20.86,20.86,0,0,1,107,23.51a19.83,19.83,0,0,1,7.08-4.9,25.15,25.15,0,0,1,9.8-1.82,24.38,24.38,0,0,1,6.72.91,20.16,20.16,0,0,1,5.08,2.36L136,16h11.53C147.58,17.52,147.58,19.33,147.58,21.24ZM130.52,32.67a6.85,6.85,0,0,0-5.72-2.54h-.18a6.5,6.5,0,0,0-2.91.73,8.31,8.31,0,0,0-2.45,1.9,10.36,10.36,0,0,0-1.72,2.91,9.9,9.9,0,0,0-.64,3.72,6.59,6.59,0,0,0,.64,2.9,8.55,8.55,0,0,0,1.81,2.54,8.19,8.19,0,0,0,2.45,1.91,7.34,7.34,0,0,0,3,.73A7,7,0,0,0,130,45a9,9,0,0,0,2.54-6.08v-.37A9.12,9.12,0,0,0,130.52,32.67Z"/><path class="cls-1" d="M152.85,42.38V27.23l33.85.45-.27,15.25Z"/><path class="cls-1" d="M246.33,45.74a24.51,24.51,0,0,1-6.35,8.9,25.85,25.85,0,0,1-9.62,5.44A37.75,37.75,0,0,1,218.1,62a31.14,31.14,0,0,1-10.43-1.82,25.39,25.39,0,0,1-8.81-5.53,27.7,27.7,0,0,1-6.08-9,30.91,30.91,0,0,1-2.27-12.34,39.6,39.6,0,0,1,1.91-12.62A27.62,27.62,0,0,1,198.05,11a24.3,24.3,0,0,1,9-6.26,29.73,29.73,0,0,1,12-2.27,35,35,0,0,1,13.43,2.27,24.18,24.18,0,0,1,9.17,6.44,24.71,24.71,0,0,1,5.27,9.71,42.42,42.42,0,0,1,1.72,12.44A31.06,31.06,0,0,1,246.33,45.74Zm-19-25.23a9.19,9.19,0,0,0-8.08-4.17,8.23,8.23,0,0,0-4.35,1.18,12.33,12.33,0,0,0-3.63,3.26,15.4,15.4,0,0,0-2.36,4.9,19.08,19.08,0,0,0-.91,6.18,27.62,27.62,0,0,0,.64,6.17,20.88,20.88,0,0,0,1.9,5.26,10.89,10.89,0,0,0,3.36,3.63,8.3,8.3,0,0,0,4.81,1.36c4.08,0,7.08-1.54,8.8-4.63s2.63-7.17,2.63-12.34A19.19,19.19,0,0,0,227.36,20.51Z"/><path class="cls-1" d="M251.6,42.38V27.23l33.85.45-.27,15.25Z"/><path class="cls-1" d="M336.1,62.17,330,29.86,321,62l-15.88.36L288,3,308.6,1l6.8,35.67L325.3.36,336,0l6.53,34.49,8.08-33.22,19.24,4.18L353.07,62.17Z"/><path class="cls-1" d="M421.23,41.57c0,7.53,0,15.06-.09,22.6l-15.88.45.09-4.17a5.78,5.78,0,0,1-2,1.45,12.21,12.21,0,0,1-2.72,1.18,18.29,18.29,0,0,1-3.18.81,17.43,17.43,0,0,1-3,.28,26.58,26.58,0,0,1-9.17-1.46,20.11,20.11,0,0,1-7-4.26,18.34,18.34,0,0,1-4.53-6.81,24.74,24.74,0,0,1-1.64-9.26A25.06,25.06,0,0,1,374,32.22a20.66,20.66,0,0,1,5-7.17,22,22,0,0,1,7.08-4.36,22.61,22.61,0,0,1,8.08-1.45,23.28,23.28,0,0,1,7.71,1.18,15.74,15.74,0,0,1,4.9,2.9l.18-4.9,14.34.09C421.23,26.41,421.23,34,421.23,41.57Zm-18.88-6.72a7.13,7.13,0,0,0-5.89-2.63,8.09,8.09,0,0,0-8.26,8.62,8.07,8.07,0,0,0,2.26,6,8.82,8.82,0,0,0,11.71.09,7.7,7.7,0,0,0,2.18-5.72A9.81,9.81,0,0,0,402.35,34.85Z"/><path class="cls-1" d="M458.72,29.41a13.07,13.07,0,0,0-4.63-.64A5.84,5.84,0,0,0,450.64,30,12.58,12.58,0,0,0,448,33a14.57,14.57,0,0,0-1.63,3.9,15.74,15.74,0,0,0-.55,3.9,44.9,44.9,0,0,0,.18,5.27c0,1.45.18,2.9.27,4.26s.28,2.91.46,4.54.45,3.63.72,6.08l-16.88.73-3.36-44.93,14.89-1.63,2,13.07c.18-.91.54-2.09,1-3.54a19.52,19.52,0,0,1,2-4.18A15.31,15.31,0,0,1,450.37,17a6.88,6.88,0,0,1,4.45-1.45,17.05,17.05,0,0,1,4.44.63,20.32,20.32,0,0,1,4.27,2.27L461.9,31.58A10,10,0,0,0,458.72,29.41Z"/></g></g></svg>