<svg xmlns="http://www.w3.org/2000/svg" viewBox="0 0 107.9 107.5"><circle cx="54.3" cy="53.7" r="51.4" fill="#fff"/><g stroke="#ed1c24"><circle cx="54.3" cy="53.7" r="51.4" fill="none" stroke-width="3.4"/><path d="M78.9 69.4c-.6-3.7-3.2-5.3-5.8-7.8-4-3.8-7.7-8.1-11.5-12.2-.4-.4-.7-.8-1.1-1.2l6.3-7.3c3.9-4.4 5.8-9.7 10.5-13.6 1.6-1.3-.3-3.9-2-2.9-7.9 4.6-14.8 10.3-21.2 16.7L39.3 24.4c-2.3-2.6-6.1.9-3.9 3.6 4.8 5.9 9.3 12.1 13.9 18.3-.7.7-1.3 1.5-2 2.2-4.1 4.8-7.7 10-10.9 15.4-3 5-7.2 10.3-8.1 16-1 6.3 9.2 8 11 2 1.5-5 5.5-10.5 8.1-15.1 2.5-4.3 5.2-8.4 8.2-12.4C60.7 61 66.1 67.3 72.1 73c2.9 2.7 7.4.4 6.8-3.6z" fill="#ed1c24" stroke-width="4" stroke-linejoin="round" stroke-miterlimit="10"/></g></svg>