<svg xmlns="http://www.w3.org/2000/svg" xmlns:xlink="http://www.w3.org/1999/xlink" width="63" height="60" viewBox="0 0 121.99 121.75"><style><![CDATA[.V{fill:#4d576b}.W{fill:red}.X{fill:#ce181e}.Y{fill:#af7147}.Z{fill:#865a33}.a{fill:#b7aea6}.b{fill:#ded9d3}.c{fill:#ba7e49}.d{fill:#eab370}.e{fill:#776b5e}.f{fill:#fff8f3}]]></style><defs><linearGradient id="A" x1="46.33" y1="56.82" x2="46.33" y2="6.36" gradientUnits="userSpaceOnUse"><stop offset="0" stop-color="#fff" stop-opacity="0"/><stop offset="1" stop-color="#fff" stop-opacity=".5"/></linearGradient><linearGradient id="B" x1="106.66" y1="35.89" x2="108.69" y2="2.85" gradientUnits="userSpaceOnUse"><stop offset="0" stop-color="#b5b7b9" stop-opacity="0"/><stop offset="1" stop-color="#b5b7b9"/></linearGradient><linearGradient id="C" x1="104.38" y1="28.52" x2="104.89" y2=".05" xlink:href="#B"/></defs><path d="M39.42 117a4 4 0 0 0 2.35.23c.4-.06.37-.5.66-.8.2 1.06 1 .9 1.77 1a5.57 5.57 0 0 0 1.25 0c.35-.16.3-.45.44-.64.2 0 .16.2.2.3a.68.68 0 0 0 .68.52 7.11 7.11 0 0 1 1.77.34c.7.23.95.1 1.35-.54.1-.15.15-.33.34-.44.22 0 .22.4.5.38.45 0 .5-.47.77-.72.52.2.64.74.87 1.2.48.1.88-.18 1.32-.25l1.35-.25a2.7 2.7 0 0 0 .1-1.23c-.2-3.06-.17-21.47-.3-24.2-.08-1.6.23-13.37.28-15 0-1.8 0-3.6.15-5.4.06-.9 0-1.77 0-2.65a.72.72 0 0 0 0-.43c-1-.6-1.38-.5-1.92.5l-.64.34c-.23-1.76-1.33-2.14-2.9-1.8-.4.3-.53.8-.85 1.22-.24 0-.45-.07-.68-.08-.08-.2-.13-.38-.2-.53a1 1 0 0 0-1-.63 12.48 12.48 0 0 1-3-.1 9.17 9.17 0 0 0-2.39.21c-.5.1-.44.55-.54.9-.3.14-.64 0-.93.16s-.18.5-.2.75c-.18 2.68-.13 5.36-.2 8 0 1.93-.47 14.06-.45 16 0 5.7 0 7.05-.24 12.74-.1 3.33.14 6.63.2 9.94a8.18 8.18 0 0 0 .11.98z" class="Z"/><path d="M53.46 70.33c.52 3.18.23 16.57.2 19.8l-.14 9.9c-.05 3.3 0 2.32 0 5.64s0 6.8-.22 10.18c0 .66-1.15.66-1.17 0-.1-3.22.06-6.46.1-9.68l.06-5.64c.1-6.6.8-23.48.38-30.07-.08-.55.74-.66.8-.12z" class="Y"/><path d="M47.92 69.15l1.1.24c.5-.15.5-.7.83-.93.8 1 .73 2.15.77 3.3h.14l.1-1.74 2.06-.12.17 4.9-.47 16.9-.13 13.78c-.14 4.94-.1 5.57-.36 10.5 0 .07 0 .15-.12.17s-.45-.37-.77-.22-.27.34-.48.5a1.12 1.12 0 0 0-.51-.21c-.45.06-.64.45-.86.8s-.26.52-.67.27c0-2.78.17-5.58 0-8.38l-.33 8.3a9.74 9.74 0 0 0-1.65-.25c-.3-.35-.14-1-.82-1a1.92 1.92 0 0 0-.68 1 4.39 4.39 0 0 1-1.73 0c.15-4.44-.2-8.82-.2-13.2-.17 4.35.08 8.7-.2 13.06-.3-.32-.3-.83-.8-.93-.45.06-.44.55-.74.8-.5-.27-1.07-.1-1.67-.22-.46-13.8.4-33.46.58-47.15.4-.3.73 0 1-.2a1.72 1.72 0 0 0 .48-1l.76-.1v1.45c.32-.46.06-1 .27-1.46a1.06 1.06 0 0 1 .63.18c.12 1.64.12 3.3.36 4.93.14-1.63 0-3.27 0-4.94a6.05 6.05 0 0 0 1.64.07c.26 1.07 1.3.55 1.86.94l.16 7.8c.27-2.6.3-5.18.27-7.83z" class="c"/><path d="M54.7 69a2.51 2.51 0 0 0-.1.93L54.53 75c0 2.5-.33 15.2-.28 17.7.08 3.88 0 7.76 0 11.64 0 2.85.33 11.78.28 12.46l-1.76.38a1.54 1.54 0 0 1-.35-1c0-2.46.2-4.9.24-7.37 0-4.12.1-3.92.14-8 0-4 .26-18.14.4-22.12a64.33 64.33 0 0 0 0-6.66c0-.7-.08-1.4-.1-2.14.6 0 .82-.47 1.06-.9zm-3.97-.68a1.28 1.28 0 0 1 1-.1l.43 1.1a4.91 4.91 0 0 1-1 0zm-3.47-.42c.2.16.43.25.37.57-.43-.1-.9 0-1.26-.44z" class="d"/><path d="M46.63 84.12a1 1 0 0 0-.93.47 3.92 3.92 0 0 0-.81 1.88 9.35 9.35 0 0 0 .31 4.75 3.76 3.76 0 0 0 .44.93c.2.3.4.64.84.6s.58-.4.7-.76a5.51 5.51 0 0 0 .27-1.33 10 10 0 0 0-.35-4.06c-.1-.3-.18-.64-.5-.8a.46.46 0 0 0-.46.39 8.21 8.21 0 0 0-.08 3.94.42.42 0 0 0 .23.29c.46-.32.52-1.58.1-2.38a8.26 8.26 0 0 1 0 2 6.31 6.31 0 0 1 .12-4c1 1.1 1 5.78-.1 6.34-.4-.1-.54-.46-.7-.78a6.49 6.49 0 0 1-.65-2.52 9.59 9.59 0 0 1 .19-2.93 3.06 3.06 0 0 1 1.39-2.02zm4.3 1.63a15.56 15.56 0 0 1-.54 8.5 5.89 5.89 0 0 1-2 2.74 2.16 2.16 0 0 0 1.17-.81A7.85 7.85 0 0 0 51.08 93a15 15 0 0 0 .11-6.72c0-.2 0-.4-.24-.52zm-7.8-.27c-.1 2.94 0 5.84 1.35 8.54-1.06-2.75-1.16-5.65-1.35-8.54zm6.43.95c.43 2.67.6 5.3-.77 7.8a.5.5 0 0 0-.08.31h0a4.62 4.62 0 0 0 1.08-2.26 12.57 12.57 0 0 0 0-5.56.31.31 0 0 0-.16-.26zM43.3 103v-.2.2zm5.5-9.8h0zm-.8 8.1c-.12 0-.12 0-.06.13s.08-.08 0-.14zm2.17-8.8v-.1a.29.29 0 0 0 0 .09z" class="Z"/><g class="Y"><path d="M50.82 74.77c0-1-.1-2-.16-3h.1l.1-1.74h.44l-.48 4.74z"/><path d="M50.47 69.76a6.88 6.88 0 0 1 .13 1.29l-.13-1.3zm-10.55 46.67c-.46-13.8.4-33.46.58-47.15.4-.3.73 0 1-.2a1.72 1.72 0 0 0 .48-1l.76-.1v1.45c.32-.46.06-1 .27-1.46a1.06 1.06 0 0 1 .63.18v.76l-.1-.2c-.37 1.1.06 2.55-.5 3.65-.18-.46-.2-2.2-.66-2.48-1-.62-1.4.9-1.42 1.5-.1 2.4.34 4.86.32 7.28 0 2.16-1.08 21.1-.1 27.14a59.63 59.63 0 0 1 .55 6.26A18.29 18.29 0 0 0 42 115c.67-2 .45-4.66.65-6.76.15-1.54 0-3.55.56-4.94a41.58 41.58 0 0 1 .7 7 32.14 32.14 0 0 1 .19 5.19 4.13 4.13 0 0 1 1 .53c.58-1.8.6-3.76 1.14-5.6.75 1.06.45 3.7.57 5.07a11.38 11.38 0 0 1 .34-3.45c.72.92.8 2.73 1.1 3.88a17.19 17.19 0 0 0 .37-2.52c0 1.3-.1 2.57-.18 3.87a9.74 9.74 0 0 0-1.65-.25c-.3-.35-.14-1-.82-1a1.92 1.92 0 0 0-.68 1 4.39 4.39 0 0 1-1.73 0c.15-4.44-.2-8.82-.2-13.2-.17 4.35.08 8.7-.2 13.06-.3-.32-.3-.83-.8-.93-.45.06-.44.55-.74.8-.54-.37-1.1-.2-1.7-.32zm8.88-6.13c0-.43.06-.86.1-1.3.08-.77 0-5.07.6-5.32a65.56 65.56 0 0 1 .66 10.84c.22-.42.9-.25 1.2 0 .44.46 0 0 .23.7l.22.77a.56.56 0 0 0-.58-.12c-.23.1-.27.34-.48.5a1.12 1.12 0 0 0-.51-.21c-.45.06-.64.45-.86.8s-.26.52-.67.27l.07-6.93zm-1.26-41.14h0v.27zm-2.8 1.42l-.34 3.6a11.49 11.49 0 0 0-.32-4.32v-1.7a6.26 6.26 0 0 0 .73.08l-.07 2.34zm3.16 1.9v-3.32l.7.15a36.89 36.89 0 0 1-.5 7.86 32.19 32.19 0 0 0-.19-4.69z"/></g><path d="M44.47 96.7c-.5-.62-1.37-.83-1.67-1.62 0-.23.15-.37.2-.62-.83.36-.92-.4-1.2-.7s0-.4-.07-.57c-.2.06-.3.27-.52.27a2.25 2.25 0 0 1-.9-1.44l3.54-3.23 6.52-6.18a81.12 81.12 0 0 1 7-6.21c1.4-1.1 2.65-2.38 4-3.56 3.92-3.4 7.62-7 11.38-10.63 2-1.86 3.8-3.86 5.7-5.8.68-.7 1.4-1.35 2.14-2 .17-.15.35-.27.56-.14s.06.37.1.53l.6.46.7-.16a2.63 2.63 0 0 1 .66.45c.14.3 0 .5-.05.73s.25.25.42.38a.82.82 0 0 1 1.05.47.83.83 0 0 0 .19.23 2.5 2.5 0 0 1 .74 1.58l-3.6 3.3c-.48.43-1 .84-1.42 1.3-2.72 2.8-5.74 5.28-8.66 7.87-1.34 1.2-2.6 2.46-3.87 3.7-3.8 3.67-7.56 7.36-11.63 10.73-2.08 1.74-4 3.64-6 5.47-1.84 1.68-3.73 3.3-5.47 5.1a.66.66 0 0 1-.48.26z" class="Z"/><path d="M81.2 56.45v-.2a.15.15 0 0 0-.07-.27h-.2a.39.39 0 0 0-.44 0 24.36 24.36 0 0 0-2.19 2l-2.4 2.2-4.8 4.5-9.42 8.85c-3.13 3-6.36 5.8-9.53 8.7l-4.85 4.42a41 41 0 0 0-4.57 4.27c-.25.3.16.7.48.5A42.73 42.73 0 0 0 48.19 87l4.8-4.42 9.33-8.65 9.35-8.6 4.8-4.5 2.15-2.07c.43-.42.85-.9 1.28-1.34a.39.39 0 0 0 .36-.14 6.2 6.2 0 0 1 .6-.55.37.37 0 0 0 .34-.3z" class="Y"/><path d="M44.58 96.1l1.14-1.2 5-4.56 5-4.53c3.7-3 7.1-6.4 10.58-9.67 1.66-1.56 3.22-3.24 4.9-4.76 2.16-2 4.42-3.8 6.54-5.8s4.1-4 6.26-5.8a6.08 6.08 0 0 0 1.08-1 1.92 1.92 0 0 1-.23-.75l-.47-.4c-.5.3-.78.83-1.38 1.08.33-.57.87-.85 1.18-1.32-.1-.3-.3-.24-.5-.2s-.36-.17-.53-.13c-1 .74-1.83 1.64-2.82 2.35a33.34 33.34 0 0 1 2.49-2.55c-.22-.4-.22-.4-.06-1.06-.4-.3-.75.08-1.1 0-1.12 1-2.2 2-3.33 2.87s-2.1 2-3.17 3c-1.3 1.2-2.63 2.33-3.83 3.6-2.85 3-6 5.65-9 8.47-1.7 1.6-3.55 3.07-5.2 4.76a67.89 67.89 0 0 1-5 4.65c-3.14 2.67-6.07 5.56-9 8.37 0 .87-.75 1.3-1 2a1.75 1.75 0 0 0 .48.53 2 2 0 0 0 1-.52C45.22 92 47 90.6 48.62 89c.1-.1.2-.28.47-.26-1.8 1.72-3.56 3.4-5.4 5 .3.5-.4.83-.22 1.43 1.5-1.2 2.67-2.63 4.06-3.8l-3.77 4z" class="c"/><g class="Y"><path d="M45.88 93l-.9.7c.3-.73 1.5-1.63 2.05-2.17l2.27-2.46a45.81 45.81 0 0 0 3.45-4c-2 1.46-3.7 3.46-5.7 5A30.65 30.65 0 0 1 43.15 93a8.56 8.56 0 0 0 .64-1.5l-.72.52c-.2.56-.73.94-1 1.48a1.75 1.75 0 0 0 .48.53 2 2 0 0 0 1-.52l5.07-4.5c.1-.1.2-.28.47-.26l-5.4 5c.3.5-.4.83-.22 1.43A27.59 27.59 0 0 0 45.88 93z"/><path d="M84 59.8a6.08 6.08 0 0 0 1.08-1 1.92 1.92 0 0 1-.23-.75l-.47-.4c-.5.3-.78.83-1.38 1.08.33-.57.87-.85 1.18-1.32-.1-.3-.3-.24-.5-.2s-.36-.17-.53-.13c-1 .74-1.83 1.64-2.82 2.35a33.34 33.34 0 0 1 2.49-2.55 1.24 1.24 0 0 1-.17-.4L78.4 61l2.38-1.8a11.89 11.89 0 0 1 2.14-1.54c.34-.1.43-.38.8 0a13.39 13.39 0 0 1-1.79 1.9 11.73 11.73 0 0 1 1.75-.93 13.32 13.32 0 0 1-1.62 1.91 38.56 38.56 0 0 1-2.86 3.14c-4 3.76-8.22 7.27-12.28 11-2.25 2-4.35 4.2-6.68 6.17s-4.95 3.57-7.08 5.7c-2.62 2.63-4.87 5.57-7.83 7.85A34.37 34.37 0 0 0 48 91.19c-.4.32-.82.67-1.2 1l-3 3.2.83.7 1.14-1.2c1.6-1.58 3.33-3 5-4.56s3.26-3.1 5-4.53c3.7-3 7.1-6.4 10.58-9.67 1.66-1.56 3.22-3.24 4.9-4.76 2.16-2 4.42-3.8 6.54-5.8s4.02-3.95 6.2-5.78z"/></g><path d="M80.7 55.06l-3.6 3.33-3.94 4c-3.8 3.66-7.58 7.34-11.54 10.82-1.3 1.15-2.53 2.38-3.9 3.47a84.69 84.69 0 0 0-7.87 7 71.35 71.35 0 0 1-3.44 3.29c-1.87 1.67-3.63 3.45-5.6 5l.44.6a.76.76 0 0 0 .57-.29l4.8-4.58c.85-.8 1.7-1.62 2.58-2.4 2.35-2 4.73-4 6.9-6.25 2-2 4.2-3.9 6.3-5.82q2.87-2.6 5.7-5.2c1.2-1.1 2.22-2.32 3.4-3.4 3-2.77 5.88-5.66 9-8.26a5.49 5.49 0 0 0 .94-.87c-.17-.18-.48-.24-.78-.43z" class="d"/><g class="Z"><path d="M64.53 74.6c1 0 3.18-2 3.16-2.93a1.27 1.27 0 0 0-1.12.13 7.48 7.48 0 0 0-2.66 2.2l-.26.37h-.07a1.49 1.49 0 0 1 .43-.81 7 7 0 0 1 2.44-1.92 2.31 2.31 0 0 1 .9-.24c.5 0 .7.24.53.72a1.42 1.42 0 0 1-.23.44 8.71 8.71 0 0 1-2.51 2.13.83.83 0 0 1-.79.12c-.1-.76 1.64-2.3 2.48-2.2a.26.26 0 0 1-.17.34c0-.06 0-.14-.08-.17a4.14 4.14 0 0 0-2.05 1.82zm9.97-11a2.13 2.13 0 0 1 .56-1.31 5.39 5.39 0 0 1 3.26-2.1.92.92 0 0 1 .85.09c.13 1-2.86 3.8-3.8 3.5-.1-.66 1.42-2.3 2.5-2.67a9.52 9.52 0 0 0-2.45 2.53c.94 0 3.38-2.24 3.6-3.24a.84.84 0 0 0-.8 0 5.22 5.22 0 0 0-3.34 2.6c-.12.22-.26.42-.4.63zM59 79.55a85.42 85.42 0 0 1-8.61 7c2.88-2.3 5.78-4.55 8.6-7zm-6.85 7a.74.74 0 0 1 .55-.21c-.13.7-1.76 1.83-2.34 1.6-.07-.24.1-.37.22-.52a13.77 13.77 0 0 1 3.47-2.6 20.31 20.31 0 0 0-3.61 3c.76-.05 1.8-.84 1.7-1.28zm10.38-9.76a22.57 22.57 0 0 0 2.83-1.7 10.45 10.45 0 0 0 2.12-1.8.56.56 0 0 1-.25.52 17.18 17.18 0 0 1-4.4 3c-.1.06-.2.1-.3 0z"/><path d="M69.55 69.83c0 1.06-1.56 3.2-2.9 4a11.45 11.45 0 0 0 2.91-4zm10.65-8.67a11.53 11.53 0 0 1-2.73 2.53l2.73-2.53zM65.7 71.5a6.81 6.81 0 0 1 2.48-1.9 17.53 17.53 0 0 0-2.48 1.9zm-6.3 7.8l-.02.03-.02-.02h.04zm15.1-15.7v.1c-.06-.06 0-.07 0-.1zM62.53 76.8v.14l.06-.13z"/></g><path d="M55.4 89.08h0" class="Y"/><path d="M77.9 121.26a3.91 3.91 0 0 0 .2-2.36c-.06-.4-.5-.37-.8-.64 1.06-.22.9-1.06 1-1.78a5.57 5.57 0 0 0-.06-1.26c-.16-.34-.45-.3-.64-.43 0-.2.2-.16.3-.2a.69.69 0 0 0 .52-.69 7.08 7.08 0 0 1 .32-1.77c.22-.7.1-1-.55-1.35a1 1 0 0 1-.45-.33c0-.22.4-.23.38-.5 0-.45-.48-.5-.73-.76.2-.52.73-.65 1.2-.88.1-.48-.2-.88-.26-1.32l-.26-1.35a2.72 2.72 0 0 0-1.23-.08c-3.06.24-25.8.35-28.52.5-1.6.1-18.42-.15-20-.18-1.8 0-3.6 0-5.4-.1h-2.65a.63.63 0 0 0-.43 0c-.58 1-.5 1.38.5 1.9l.34.64c-1.75.25-2.12 1.36-1.77 2.92.3.4.83.52 1.23.84.06.24-.06.45-.06.68a4.65 4.65 0 0 0-.54.22 1 1 0 0 0-.61 1 12.47 12.47 0 0 1-.07 3 8.68 8.68 0 0 0 .24 2.38c.1.5.56.45.9.53.14.3 0 .65.16.93s.5.2.76.2c2.68.14 5.36.07 8 .1 1.93 0 19.1.4 21 .35 5.7-.1 11.38 0 17.06.16 3.33.07 6.63-.22 9.94-.32a8.42 8.42 0 0 0 1-.08z" class="Z"/><path d="M21.7 107.6c3.17-.56 21.6-.34 24.82-.34h19.9c3.38 0 6.8-.1 10.18.1a.59.59 0 0 1 0 1.17c-3.22.14-6.46 0-9.68 0l-10-.06c-6.6 0-28.53-.62-35.12-.12-.53.13-.65-.7-.1-.75z" class="Y"/><path d="M20.58 113.15l.23-1.1c-.15-.5-.7-.5-.93-.82a5 5 0 0 1 3.29-.81v-.14l-1.74-.08-.14-2 4.9-.23c2.24 0 19.73.35 22 .36h13.78l14.82.3c.07 0 .15 0 .17.1s-.36.46-.22.77.35.28.5.48a1.12 1.12 0 0 0-.2.51c.06.46.45.64.8.85s.52.26.28.68c-2.78 0-5.58-.12-8.38.08 2.76 0 5.5.12 8.3.24a10.51 10.51 0 0 0-.23 1.65c-.35.3-1 .15-1 .82a1.9 1.9 0 0 0 1 .68 4.38 4.38 0 0 1 0 1.73c-4.45-.1-8.82.28-13.2.34 4.35.12 8.7-.17 13.06 0-.32.3-.83.3-.92.8.06.45.55.44.8.73-.25.5-.08 1.07-.2 1.68-13.8.6-42.82-.16-56.5-.2-.3-.4 0-.73-.2-1a1.74 1.74 0 0 0-1-.47l-.12-.75h1.45c-.46-.3-1 0-1.46-.26a.94.94 0 0 1 .18-.63c1.64-.13 3.3-.16 4.92-.4-1.64-.13-3.26.07-4.94 0a6.48 6.48 0 0 0 .06-1.64c1.05-.27.52-1.3.92-1.87l7.8-.25c-2.6-.23-5.2-.2-7.86-.17z" class="c"/><path d="M20.37 106.37a2.68 2.68 0 0 0 .93.09h5.06l22.74.16c3.88-.13 7.76-.13 11.64-.14 2.84 0 16.1-.4 16.78-.36l.4 1.76a1.63 1.63 0 0 1-1 .36c-2.46 0-4.92-.16-7.38-.16-4.12 0-8.24-.12-12.36-.1s-23.2-.13-27.16-.24c-2.22 0-4.44-.14-6.66 0l-2.14.14c-.05-.6-.48-.82-.92-1zm-.64 3.98c-.12-.36-.27-.65-.1-1l1.1-.45a5 5 0 0 1 0 1zm-.38 3.47c.16-.2.25-.43.57-.37-.1.43 0 .9-.43 1.27z" class="d"/><g class="Z"><path d="M40.6 114.35a1 1 0 0 0 .48.92 3.87 3.87 0 0 0 1.89.79 9.31 9.31 0 0 0 4.74-.36 3.48 3.48 0 0 0 .93-.45c.3-.2.64-.42.58-.85s-.4-.57-.77-.7a6 6 0 0 0-1.33-.27 9.91 9.91 0 0 0-4.05.41c-.3.1-.64.17-.8.5a.48.48 0 0 0 .39.47 8.37 8.37 0 0 0 3.95 0 .36.36 0 0 0 .28-.24c-.32-.44-1.58-.5-2.37 0a8.23 8.23 0 0 1 2 0 6.32 6.32 0 0 1-4-.07c1.08-1 5.76-1 6.33 0-.1.4-.45.55-.77.7a6.64 6.64 0 0 1-2.51.67 9.36 9.36 0 0 1-2.94-.16 3.05 3.05 0 0 1-2.03-1.38zm1.6-4.35a15.59 15.59 0 0 1 8.51.45 5.94 5.94 0 0 1 2.76 2 2.17 2.17 0 0 0-.82-1.17 7.86 7.86 0 0 0-3.21-1.45 15 15 0 0 0-6.72 0c-.2 0-.4 0-.5.24zm-.2 7.8c2.94.07 5.84-.07 8.53-1.44-2.73 1.1-5.63 1.22-8.53 1.44zm.9-6.42c2.66-.47 5.3-.66 7.8.68a.42.42 0 0 0 .31.07h0a4.65 4.65 0 0 0-2.27-1 12.58 12.58 0 0 0-5.56.11c-.1 0-.2 0-.26.17z"/><path d="M63.9 117.53h-.2.2zm-14.24-5.46h0zm8.1.76c0 .1.06.12.14 0a.12.12 0 0 0-.15 0zM49 110.7h-.1.1z"/></g><g class="Y"><path d="M26.18 110.2c-1 0-2 .1-3 .2v-.1l-1.74-.08v-.43l4.74.42z"/><path d="M21.17 110.6a6.89 6.89 0 0 1 1.29-.15q-.64.06-1.3.15zm56.13 10.17c-13.8.6-42.82-.16-56.5-.2-.3-.4 0-.73-.2-1a1.74 1.74 0 0 0-1-.47l-.12-.75h1.45c-.46-.3-1 0-1.46-.26a.94.94 0 0 1 .18-.63l.75-.06-.2.1c1.1.36 2.55-.08 3.66.46-.46.18-2.2.23-2.47.7-.62 1 .9 1.38 1.52 1.4 2.4.07 4.85-.4 7.27-.4 2.16 0 19.54.6 21.7.64a49.39 49.39 0 0 0 8-.63c2.34-.32 4.5.33 6.84-.07a62.08 62.08 0 0 1 6.25-.62 18.2 18.2 0 0 0 2.88-.17c-2-.65-4.66-.4-6.77-.58-1.54-.13-3.55 0-4.94-.5a41.53 41.53 0 0 1 7-.77 33.36 33.36 0 0 1 5.19-.25 3.77 3.77 0 0 1 .52-1c-1.8-.56-3.77-.57-5.6-1.08 1-.76 3.7-.5 5.07-.63a11.68 11.68 0 0 1-3.45-.29c.9-.74 2.7-.83 3.87-1.14a19 19 0 0 0-2.53-.35l3.87.15a10.51 10.51 0 0 0-.23 1.65c-.35.3-1 .15-1 .82a1.9 1.9 0 0 0 1 .68 4.38 4.38 0 0 1 0 1.73c-4.45-.1-8.82.28-13.2.34 4.35.12 8.7-.17 13.06 0-.32.3-.83.3-.92.8.06.45.55.44.8.73-.3.5-.14 1.07-.26 1.68z"/><path d="M71.1 112l-1.3-.1c-.77-.07-5.08.08-5.33-.56a66.65 66.65 0 0 1 10.83-.78c-.42-.2-.26-.9 0-1.2.45-.45 0 0 .7-.24l.76-.23a.56.56 0 0 0-.12.57c.1.23.35.28.5.48a1.12 1.12 0 0 0-.2.51c.06.46.45.64.8.85s.52.26.28.68c-2.27.01-4.6-.1-6.94.01zm-50.5 1.53h.26zm1.45 2.77l3.6.3a11.46 11.46 0 0 0-4.31.38h-1.7a6.21 6.21 0 0 0 .07-.73c.9.07 1.93.02 2.34.05zm1.85-3.18h-3.33l.15-.7a38.21 38.21 0 0 1 7.86.41 33.53 33.53 0 0 0-4.68.28z"/></g><path d="M44.94 90.77a2 2 0 0 1 1.77-2.17h.15a1 1 0 0 1 .39.08 2.13 2.13 0 0 1 1.33 2.49 1.8 1.8 0 0 1-1.77 1.39 2.18 2.18 0 0 1-.51-.09h-.15a1.87 1.87 0 0 1-1.21-1.7z" class="e"/><path d="M47.08 92c-.12 0-.14.06-.18.14s.1-.14.17-.14v-.15c-.07.04-.07.1.01.15z" class="a"/><path d="M45.94 90a1.93 1.93 0 0 0 .06.63 1.31 1.31 0 0 0 1.81.88.62.62 0 0 0 .33-.38 1.43 1.43 0 0 0 0-1 1.86 1.86 0 0 0-1-1 .8.8 0 0 0-1.17.68c.03.04.03.12-.03.2z" class="b"/><path d="M45.86 89.56c-.44.13-.55 1-.43 1.6a1.3 1.3 0 0 0 1.06.94 1.33 1.33 0 0 0 .21-.39 1.83 1.83 0 0 1-.84-2.14zm.94 2.2c0 .13-.17.23-.17.38.16 0 .37-.25.35-.35a.21.21 0 0 0-.18-.03zm.35.34c.13 0 .2-.14.22-.3a.43.43 0 0 0-.22.3z" class="a"/><path d="M47.6 90.22a.83.83 0 0 0-.09-.7.7.7 0 0 0-.15-.19.53.53 0 0 0-.21-.11.44.44 0 0 0-.37 0 .31.31 0 0 0-.11.09.62.62 0 0 0-.11.84.68.68 0 0 0 .35.28.45.45 0 0 0 .36 0h0l.2-.07a.17.17 0 0 0 .09-.2zm-.1.85a.19.19 0 0 0-.07-.18.3.3 0 0 0-.43.11.22.22 0 0 0 0 .08.2.2 0 0 0 0 .15h0a.22.22 0 0 0 .18.14.34.34 0 0 0 .35-.16.26.26 0 0 0-.03-.14z" class="f"/><path d="M46 91.15V91a.2.2 0 0 0-.06-.09v-.05a.1.1 0 0 0 0-.11.19.19 0 0 0-.11-.09.19.19 0 0 0-.29.1.4.4 0 0 0 0 .22.29.29 0 0 1 0 .09.13.13 0 0 0 0 .06.39.39 0 0 0 0 .21.16.16 0 0 0 .28 0h0a.18.18 0 0 0 .18-.19z" class="b"/><path d="M40.47 109.53a2 2 0 0 1 1.78-2.18h.14a.93.93 0 0 1 .39.08 2.15 2.15 0 0 1 1.34 2.49 1.8 1.8 0 0 1-1.78 1.39 2.26 2.26 0 0 1-.51-.08.66.66 0 0 0-.15 0 1.88 1.88 0 0 1-1.21-1.7z" class="e"/><path d="M42.6 110.75c-.12 0-.13 0-.17.14s.1-.13.17-.15v-.15a.11.11 0 0 0 0 .16z" class="a"/><path d="M41.48 108.76a1.92 1.92 0 0 0 .05.63 1.32 1.32 0 0 0 1.82.88.63.63 0 0 0 .33-.37 1.46 1.46 0 0 0 0-1 2 2 0 0 0-1-1 .81.81 0 0 0-1.18.68c-.01.02-.02.1-.02.18z" class="b"/><path d="M41.4 108.32c-.44.12-.55 1-.43 1.58a1.29 1.29 0 0 0 1.06.94 2 2 0 0 0 .21-.38 1.82 1.82 0 0 1-.84-2.14zm.92 2.2c0 .12-.16.22-.16.37.16 0 .37-.25.34-.35s-.1-.04-.18-.02zm.38.32c.12 0 .18-.14.22-.3a.42.42 0 0 0-.22.3z" class="a"/><path d="M43.14 109a.8.8 0 0 0-.09-.7.66.66 0 0 0-.15-.19.49.49 0 0 0-.2-.11.44.44 0 0 0-.37 0 .31.31 0 0 0-.11.09.62.62 0 0 0-.11.85.67.67 0 0 0 .35.27.44.44 0 0 0 .36.05h0a.8.8 0 0 0 .2-.07.16.16 0 0 0 .08-.2zm-.14.82a.21.21 0 0 0-.06-.18.3.3 0 0 0-.46.1.18.18 0 0 0 0 .07.16.16 0 0 0 0 .15.22.22 0 0 0 .18.14.33.33 0 0 0 .34-.1.2.2 0 0 0 0-.18z" class="f"/><path d="M41.55 109.9v-.13a.22.22 0 0 0-.07-.09h0a.13.13 0 0 0-.05-.11.18.18 0 0 0-.1-.09.19.19 0 0 0-.29.1.36.36 0 0 0 0 .23v.08a.13.13 0 0 0 0 .06.57.57 0 0 0 0 .22.18.18 0 0 0 .29.05h0a.19.19 0 0 0 .22-.32z" class="b"/><path d="M49.25 109.4a2 2 0 0 1 1.75-2.17h.15a1 1 0 0 1 .39.09 2.13 2.13 0 0 1 1.33 2.49 1.78 1.78 0 0 1-1.77 1.38 1.75 1.75 0 0 1-.51-.08h-.15a1.88 1.88 0 0 1-1.19-1.71z" class="e"/><path d="M51.4 110.62c-.12 0-.14.06-.18.14s.1-.12.17-.14v-.15a.12.12 0 0 0 .01.15z" class="a"/><path d="M50.25 108.64a1.84 1.84 0 0 0 .06.62 1.3 1.3 0 0 0 1.81.89.65.65 0 0 0 .33-.38 1.43 1.43 0 0 0 0-1 1.91 1.91 0 0 0-1-1 .8.8 0 0 0-1.17.68c-.02.03-.02.1-.03.2z" class="b"/><path d="M50.17 108.2c-.44.13-.55 1-.43 1.6a1.28 1.28 0 0 0 1.06.93 1.17 1.17 0 0 0 .21-.38 1.83 1.83 0 0 1-.84-2.14zm.93 2.2c-.05.13-.17.22-.17.38.16 0 .37-.25.35-.35a.18.18 0 0 0-.18-.03zm.36.32a.34.34 0 0 0 .22-.3.43.43 0 0 0-.22.3z" class="a"/><path d="M51.92 108.84a.81.81 0 0 0-.09-.69.7.7 0 0 0-.15-.19.45.45 0 0 0-.21-.12.54.54 0 0 0-.37 0l-.1.16a.63.63 0 0 0-.11.85.68.68 0 0 0 .35.28.45.45 0 0 0 .36 0h0l.2-.07a.17.17 0 0 0 .09-.2zm-.12.86a.19.19 0 0 0-.07-.18.3.3 0 0 0-.46.09.22.22 0 0 0-.05.08.2.2 0 0 0 0 .15.23.23 0 0 0 .18.15.35.35 0 0 0 .35-.17.22.22 0 0 0 .05-.12z" class="f"/><path d="M50.32 109.78v-.13a.16.16 0 0 0-.07-.09.09.09 0 0 0 0 0h0a.13.13 0 0 0 0-.12.21.21 0 0 0-.11-.08.18.18 0 0 0-.29.1.41.41 0 0 0 0 .22.31.31 0 0 1 0 .08.2.2 0 0 0 0 .07.39.39 0 0 0 0 .21.16.16 0 0 0 .28 0h0a.17.17 0 0 0 .19-.26z" class="b"/><path d="M105.46 35.5l-1.87-.07-.1 2.16 1.88.1z" class="V"/><path d="M105.36 37.7l-1.88-.1-.15 2.15 1.87.16z" class="W"/><path d="M105 42l.22-2.07-1.87-.16-.22 2A5 5 0 0 1 105 42z" class="V"/><path d="M105 42a5 5 0 0 0-1.87-.18l-.32 2.2 1.85.32L105 42zm-.83 4.56a14.44 14.44 0 0 0-1.85-.32l-.53 1.87 1.8.56c.23-.67.42-1.4.6-2.1z" class="W"/><path d="M103.58 48.67l-1.8-.56c-.2.67-.47 1.32-.7 2l1.74.7.76-2.14z" class="V"/><path d="M102 52.65c.3-.6.56-1.24.84-1.86l-1.74-.7-.84 1.84a18.45 18.45 0 0 1 1.74.72z" class="W"/><path d="M102 52.65a18.45 18.45 0 0 0-1.74-.72l-.7 1.3 1.62.93.82-1.52z" class="V"/><path d="M101.16 54.17l-1.62-.93-1.13 1.78 1.6 1.06 1.16-1.9z" class="W"/><path d="M100 56.08L98.4 55c-.38.6-.82 1.14-1.25 1.7l1.47 1.17 1.37-1.8z" class="V"/><path d="M98.63 57.9l-1.47-1.17-1.38 1.6 1.37 1.28 1.48-1.7z" class="W"/><path d="M97.15 59.6l-1.37-1.28-1.5 1.5 1.27 1.38c.57-.5 1.08-1.05 1.6-1.6z" class="V"/><path d="M95.55 61.18l-1.27-1.38c-.5.5-1.06.93-1.6 1.37l1.16 1.47 1.7-1.46z" class="W"/><path d="M93.84 62.64l-1.16-1.47-1.7 1.24L92 64l1.84-1.36z" class="V"/><path d="M92 64l-1-1.56-1.8 1.1.92 1.63L92 64z" class="W"/><path d="M90.1 65.15l-.92-1.63a26.65 26.65 0 0 1-2.51 1.25l.74 1.72a29.29 29.29 0 0 0 2.69-1.34z" class="V"/><path d="M86.67 64.77a25.14 25.14 0 0 1-2.75 1l.54 1.8a30.64 30.64 0 0 0 3-1.09 19.99 19.99 0 0 1-.79-1.7z" class="W"/><path d="M102.8 44l-.47 2.25a14.44 14.44 0 0 1 1.85.32l.47-2.25z" class="V"/><path d="M105.53 33.7l-1.88-.06-.06 1.8 1.87.07z" class="W"/><path d="M105.53 33.7h-1l-.06 1.8h1z" class="X"/><path d="M105.46 35.5h-1l-.1 2.18 1 .06z"/><path d="M105.36,37.7l-1-.06-.16,2.18,1,.08Z" class="X"/><path d="M105 42l.22-2.07-1-.08-.2 2a2.54 2.54 0 0 1 .98.15z"/><path d="M105 42a2.54 2.54 0 0 0-1-.18l-.35 2.35 1 .17L105 42zm-.83 4.56a6.94 6.94 0 0 0-1-.19l-.56 2 .94.3c.26-.67.45-1.4.62-2.1z" class="X"/><path d="M103.58 48.67l-.94-.3c-.2.7-.5 1.37-.74 2.05l.92.37.76-2.12z"/><path d="M102 52.65c.3-.6.56-1.24.84-1.86l-.92-.37-.83 1.83.9.4z" class="X"/><path d="M102 52.65l-.9-.4-.76 1.43.85.5.82-1.52z"/><path d="M98.63 57.9l-.77-.62-1.43 1.65.72.67 1.48-1.7z" class="X"/><path d="M97.15 59.6l-.72-.67-1.55 1.53.67.73c.57-.5 1.08-1.05 1.6-1.6z"/><path d="M95.55 61.18l-.67-.73a16.33 16.33 0 0 1-1.65 1.4l.6.78 1.7-1.46zM92 64l-.55-.82-1.86 1.14.5.86L92 64z" class="X"/><path d="M90.1 65.15l-.5-.86a27.23 27.23 0 0 1-2.61 1.3l.4.9a29.29 29.29 0 0 0 2.71-1.34z"/><path d="M87 65.6c-.93.4-1.88.74-2.85 1l.3.94a30.64 30.64 0 0 0 3-1.09z" class="X"/><path d="M93.84 62.64l-.6-.78-1.76 1.3.53.85 1.84-1.36zm6.16-6.56l-.8-.56c-.4.6-.85 1.18-1.3 1.75l.77.62 1.33-1.8z"/><path d="M101.16 54.17l-.85-.5-1.16 1.84.8.56c.44-.62.82-1.26 1.2-1.9z" class="X"/><path d="M103.66 44.14l-.46 2.23a6.94 6.94 0 0 1 1 .19l.47-2.25z"/><path d="M102.9 29.92l-1.9-.07-.07 2.15 1.87.1z" class="V"/><path d="M102.8 32.12l-1.87-.12-.16 2.15 1.87.16z" class="W"/><path d="M102.43 36.38l.2-2.06-1.87-.16c0 .7-.12 1.37-.2 2.05a5.28 5.28 0 0 1 1.87.17z" class="V"/><path d="M102.43 36.38a5.28 5.28 0 0 0-1.87-.17l-.32 2.2 1.84.33.35-2.35zM101.6 41a15.92 15.92 0 0 0-1.85-.33l-.52 1.87 1.8.57.58-2.1z" class="W"/><path d="M101 43.1l-1.8-.57c-.2.68-.47 1.32-.7 2l1.74.7.76-2.14z" class="V"/><path d="M99.42 47.07c.32-.6.56-1.24.85-1.86l-1.74-.7-.84 1.84 1.73.73z" class="W"/><path d="M99.42 47.07c-.58-.3-1.2-.5-1.73-.73l-.7 1.3 1.63.94c.3-.5.54-1.02.8-1.52z" class="V"/><path d="M98.6 48.6l-1.6-.94a20.63 20.63 0 0 1-1.12 1.79l1.55 1.05 1.18-1.9z" class="W"/><path d="M97.4 50.5l-1.55-1.05c-.38.6-.82 1.14-1.25 1.7l1.46 1.17 1.34-1.82z" class="V"/><path d="M96.07 52.3l-1.46-1.17-1.38 1.6L94.6 54l1.47-1.7z" class="W"/><path d="M94.6 54l-1.37-1.28-1.5 1.48L93 55.58c.56-.48 1.08-1.03 1.6-1.58z" class="V"/><path d="M93 55.6l-1.27-1.38c-.5.5-1.06.93-1.6 1.38l1.17 1.47L93 55.6z" class="W"/><path d="M91.3 57.06l-1.17-1.47c-.54.44-1.12.84-1.7 1.24l1 1.56c.66-.4 1.28-.86 1.87-1.33z" class="V"/><path d="M89.47 58.4l-1-1.56a20.6 20.6 0 0 1-1.8 1.1l.93 1.64 1.87-1.18z" class="W"/><path d="M87.55 59.57l-.93-1.64a22.63 22.63 0 0 1-2.51 1.26l.75 1.72 2.7-1.34z" class="V"/><path d="M84.1 59.2c-.9.4-1.82.7-2.75 1l.55 1.8a30.64 30.64 0 0 0 3-1.09z" class="W"/><path d="M100.24 38.4l-.48 2.25a15.92 15.92 0 0 1 1.85.33l.47-2.25z" class="V"/><path d="M103 28.1l-1.88-.06-.06 1.8 1.87.07z" class="W"/><path d="M103 28.1h-1l-.07 1.8h1z" class="X"/><path d="M102.9 29.92h-1l-.1 2.18 1 .06z"/><path d="M102.8,32.12l-1-.06-.16,2.18,1,.08Z" class="X"/><path d="M102.43 36.38l.2-2.06-1-.08-.2 2a2.8 2.8 0 0 1 1 .14z"/><path d="M102.43 36.38a2.8 2.8 0 0 0-1-.17l-.34 2.35 1 .17.34-2.35zM101.6 41a6.37 6.37 0 0 0-1-.2l-.55 2 .94.3c.25-.7.44-1.4.6-2.1z" class="X"/><path d="M101 43.1l-.94-.3c-.2.7-.5 1.37-.74 2.05l.92.37.76-2.12z"/><path d="M99.42 47.07c.32-.6.56-1.24.85-1.86l-.92-.37-.83 1.83a7.08 7.08 0 0 1 .9.4z" class="X"/><path d="M99.42 47.07a7.08 7.08 0 0 0-.9-.4l-.77 1.43.86.5c.3-.5.54-1.02.8-1.52z"/><path d="M96.07 52.3l-.77-.62-1.42 1.65.72.67 1.47-1.7z" class="X"/><path d="M94.6 54l-.72-.67-1.55 1.53.67.72c.56-.48 1.08-1.03 1.6-1.58z"/><path d="M93 55.6l-.67-.72c-.53.5-1.1 1-1.66 1.4l.62.78L93 55.6zm-3.53 2.8l-.55-.82-1.86 1.14.5.86c.66-.35 1.28-.78 1.92-1.18z" class="X"/><path d="M87.55 59.57l-.5-.86A28.38 28.38 0 0 1 84.47 60l.4.9 2.7-1.34z"/><path d="M84.47 60a29.53 29.53 0 0 1-2.85 1l.3 1a30.64 30.64 0 0 0 3-1.09z" class="X"/><path d="M91.3 57.06l-.62-.78-1.75 1.3.55.82 1.82-1.33zm6.1-6.56l-.82-.55c-.4.6-.85 1.17-1.3 1.75l.77.62 1.34-1.82z"/><path d="M98.6 48.6l-.86-.5-1.16 1.84.82.55c.44-.6.82-1.26 1.2-1.9z" class="X"/><path d="M101.1 38.56l-.47 2.22a6.37 6.37 0 0 1 1 .2l.47-2.25z"/><rect width="93.22" height="69.92" rx="2.45" fill="#9d9da0"/><path d="M3.1 2.97h87.15V67.1H3.1z" fill="#6d6e71"/><path d="M4.52 4.52h83.9v60.74H4.52z"/><path d="M6.22 6.36l80.1.28.14 50.14S59 58.05 49.16 44.5 38.1 24.3 25 23C6.36 21.2 6.22 6.36 6.22 6.36z" fill="url(#A)"/><path d="M90.26.85l-21.72.25-21.7.12-43.44.15a2.51 2.51 0 0 0-1.52.84A2.58 2.58 0 0 0 1.5 4l-.05 4.1-.08 8.3L1.2 33 .7 66.1.67 16.43v-8.3L.76 4a3.23 3.23 0 0 1 .57-2.2 3.17 3.17 0 0 1 2-1.14h65.2z" fill="#fff"/><path d="M90.26 2.65L53 2.8q-18.6.08-37.22.3Q34.4 3.3 53 3.27h36.9l.1 30.9.22 31.22.22-31.22.14-31.53z" fill="#626e84" opacity=".7"/><rect x="92.76" y=".38" width="29.23" height="36.6" rx="4.97" fill="#6d6e71"/><path d="M108.86 2.12c-4.65 7.7-9.86 15.1-14.7 22.7v-7.44C96.4 12.25 99 7.22 101.58 2.12zm7.25 0h-.5c-6.5 11-11.38 22.06-17.3 33.08h4.63l17.65-28.9a4.48 4.48 0 0 0-4.47-4.19zm-2.46 33.12h2.46a4.5 4.5 0 0 0 4.5-4.49v-8.47c-2.43 4.34-4.76 8.64-6.96 12.96z" fill="url(#B)"/><path d="M94.18 30.72c-.27-4-.4-8.1-.5-12.14l-.15-12.16a5.13 5.13 0 0 1 4.26-4.79 27.76 27.76 0 0 1 3.13 0c1 0 2 0 3 .06 4 .1 8.1.24 12.14.5-4 .28-8.1.4-12.14.5-2 .1-4.15 0-6 .16a3.86 3.86 0 0 0-3.14 3.65l-.16 12.1-.44 12.1z" fill="url(#C)"/><path d="M105.57,29.23a2.76,2.76,0,0,1-2.11-1,3.06,3.06,0,0,1-.67-2.34l.66-5.34a6.59,6.59,0,0,1-1.56-4.26,6.06,6.06,0,1,1,12.1,0,6.59,6.59,0,0,1-1.65,4.37l.86,5.1a3.07,3.07,0,0,1-.62,2.42,2.73,2.73,0,0,1-2.15,1.06Z" fill="#a7a9ac"/><path d="M105.57,28.15a1.74,1.74,0,0,1-1.34-.64A2,2,0,0,1,103.8,26l.73-5.86a5.41,5.41,0,0,1-1.62-3.88,5,5,0,1,1,10.06,0,5.42,5.42,0,0,1-1.73,4l1,5.67a2,2,0,0,1-.39,1.54,1.77,1.77,0,0,1-1.37.67Z" fill="#58595b"/><path d="M110.76 26.67h-5.5l1-7.47a3.65 3.65 0 1 1 3.21.1z"/><g fill="#0f0"><path d="M62.57 33.64a2.53 2.53 0 0 0-2.32-1.95H39a2.42 2.42 0 0 0-2.25 1.73c-2.4 7.3-2.17 15 .08 22.9A2.5 2.5 0 0 0 39 58.21a199.11 199.11 0 0 0 21.16 0 2.54 2.54 0 0 0 2.25-2.08c1.84-8.25 2.12-15.83.16-22.5zM52 52.36h-4.82l.82-7.64a3.8 3.8 0 0 1-1.74-3.29 3.52 3.52 0 0 1 3.25-3.74 3.51 3.51 0 0 1 3.24 3.74 3.8 3.8 0 0 1-1.9 3.4z"/><path d="M43.66 42.1a1.51 1.51 0 0 1-1.29-.78 12.48 12.48 0 0 1-1.74-6.44V19.2c0-6.27 4.42-11.37 9.85-11.37s9.86 5.1 9.86 11.37v3.66a1.58 1.58 0 1 1-3.12 0V19.2c0-4.3-3-7.77-6.74-7.77s-6.73 3.48-6.73 7.77v15.67a8.54 8.54 0 0 0 1.19 4.4 2 2 0 0 1-.4 2.5 1.39 1.39 0 0 1-.88.32z"/></g></svg>