<svg xmlns="http://www.w3.org/2000/svg" viewBox="0 0 129.1 113"><g fill="#2a2f39"><path d="M114.7 113c-.8 0-1.5-.6-1.5-1.4V1.4c0-.8.7-1.4 1.5-1.4s1.5.6 1.5 1.4v110.3c0 .7-.7 1.3-1.5 1.3zm12.9 0c-.8 0-1.5-.6-1.5-1.4V1.4c0-.8.7-1.4 1.5-1.4s1.5.6 1.5 1.4v110.3c0 .7-.7 1.3-1.5 1.3z"/><path d="M115.1 5.1h11.6v1.6h-11.6zm.2 9.3h11.6V16h-11.6z"/><path d="M127 15.9l-11.6-9.2.8-.8 11.6 9.1z"/><path d="M115.6 15.9l-.7-.8 11.2-9.4.8.8zm-.3 8h11.6v1.6h-11.6z"/><path d="M127.1 25.3l-11.7-9.2.8-.8 11.6 9.2z"/><path d="M115.7 25.3l-.8-.8 11.2-9.4.8.9zm-.1 7.7h11.6v1.6h-11.6z"/><path d="M127.4 34.5l-11.6-9.2.8-.9 11.6 9.2z"/><path d="M116 34.4l-.8-.8 11.3-9.3.8.8zm-.4 8h11.6V44h-11.6z"/><path d="M127.4 43.9l-11.6-9.2.8-.8 11.6 9.1z"/><path d="M116 43.9l-.8-.9 11.3-9.3.8.8zm-.4 7.7h11.6v1.6h-11.6z"/><path d="M127.4 53l-11.6-9.1.8-.9 11.6 9.2z"/><path d="M116 53l-.8-.8 11.3-9.3.8.8zm-.4 8h11.6v1.6h-11.6z"/><path d="M127.4 62.5l-11.6-9.2.8-.8 11.6 9.1z"/><path d="M116 62.5l-.8-.9 11.3-9.3.8.8zm0 7.7h11.6v1.6H116z"/><path d="M127.8 71.6l-11.6-9.2.7-.8 11.6 9.2z"/><path d="M116.4 71.6l-.8-.8 11.3-9.4.7.9zm-.4 8h11.6v1.6H116z"/><path d="M127.8 81l-11.6-9.1.7-.9 11.6 9.2z"/><path d="M116.4 81l-.8-.8 11.3-9.3.7.8zm-1.5 8.3h11.6v1.6h-11.6z"/><path d="M126.7 90.8l-11.6-9.2.7-.8 11.6 9.1z"/><path d="M115.3 90.8l-.8-.9 11.3-9.3.7.8zm-.4 7.9h11.6v1.6h-11.6z"/><path d="M126.7 100.2L115.1 91l.7-.8 11.6 9.2z"/><path d="M115.3 100.2l-.8-.8 11.3-9.4.8.8z"/></g><path d="M115.4 2.1l-.7 109-.7-109a.7.7 0 1 1 1.4 0h0zm13.2-.6l-.7 109-.7-109a.68.68 0 0 1 .7-.7c.3 0 .7.3.7.7h0z" fill="#444a53"/><circle cx="120.5" cy="44.1" r="3.5" fill="#878889"/><g fill="#2a2f39"><path d="M1.5 113c-.8 0-1.5-.6-1.5-1.4V1.4C0 .6.7 0 1.5 0S3 .6 3 1.4v110.3c-.1.7-.7 1.3-1.5 1.3zm12.9 0c-.8 0-1.5-.6-1.5-1.4V1.4c0-.8.7-1.4 1.5-1.4s1.5.6 1.5 1.4v110.3c-.1.7-.7 1.3-1.5 1.3z"/><path d="M1.8 5.1h11.6v1.6H1.8zm.2 9.3h11.6V16H2z"/><path d="M13.8 15.9L2.2 6.7l.7-.8L14.6 15z"/><path d="M2.4 15.9l-.8-.8 11.3-9.4.8.8zm-.4 8h11.6v1.6H2z"/><path d="M13.8 25.3L2.2 16.1l.7-.8 11.7 9.2z"/><path d="M2.4 25.3l-.8-.8 11.3-9.4.8.9zm0 7.7H14v1.6H2.4z"/><path d="M14.2 34.5L2.6 25.3l.7-.9 11.6 9.2z"/><path d="M2.8 34.4l-.8-.8 11.3-9.3.7.8zm-.4 8H14V44H2.4z"/><path d="M14.2 43.9L2.6 34.7l.7-.8L14.9 43z"/><path d="M2.8 43.9L2 43l11.3-9.3.7.8zm-.4 7.7H14v1.6H2.4z"/><path d="M14.2 53L2.6 43.9l.7-.9 11.6 9.2z"/><path d="M2.8 53l-.8-.8 11.3-9.3.7.8zm-.4 8H14v1.6H2.4z"/><path d="M14.2 62.5L2.6 53.3l.7-.8 11.6 9.1z"/><path d="M2.8 62.5l-.8-.9 11.3-9.3.7.8zm0 7.7h11.6v1.6H2.8z"/><path d="M14.5 71.6L2.9 62.4l.8-.8 11.6 9.2z"/><path d="M3.1 71.6l-.7-.8 11.2-9.4.8.9zm-.3 8h11.6v1.6H2.8z"/><path d="M14.5 81L2.9 71.9l.8-.9 11.6 9.2z"/><path d="M3.2 81l-.8-.8 11.2-9.3.8.8zm-1.5 8.3h11.6v1.6H1.7z"/><path d="M13.4 90.8L1.8 81.6l.8-.8 11.6 9.1z"/><path d="M2.1 90.8l-.8-.9 11.2-9.3.8.8zm-.4 7.9h11.6v1.6H1.7z"/><path d="M13.5 100.2L1.8 91l.8-.8 11.6 9.2z"/><path d="M2.1 100.2l-.8-.8L12.5 90l.8.8z"/></g><path d="M2.2 2.1L1.5 111 .7 2.1a.68.68 0 0 1 .7-.7c.5 0 .8.3.8.7h0zm13.1-.6l-.7 109-.7-109a.68.68 0 0 1 .7-.7.68.68 0 0 1 .7.7h0z" fill="#444a53"/><circle cx="9.5" cy="44.1" r="3.5" fill="#878889"/><path d="M11.9 89.7A3.84 3.84 0 0 1 8 85.8V8c0-2.2 1.8-3.9 3.9-3.9h105.7c2.2 0 3.9 1.8 3.9 3.9v77.8c0 2.2-1.8 3.9-3.9 3.9H11.9z" fill="#bfbfbf"/><path d="M117.6 5.1c1.6 0 2.9 1.3 2.9 2.9v77.8c0 1.6-1.3 2.9-2.9 2.9H11.9c-1.6 0-2.9-1.3-2.9-2.9V8c0-1.6 1.3-2.9 2.9-2.9h105.7m0-2H11.9A4.91 4.91 0 0 0 7 8v77.8a4.91 4.91 0 0 0 4.9 4.9h105.7a4.91 4.91 0 0 0 4.9-4.9V8a4.91 4.91 0 0 0-4.9-4.9h0z"/><path d="M12.7 8.6H117v76.7H12.7z" fill="#aaa"/><path d="M14.4 10.5h100.4v72.7H14.4z"/><linearGradient id="A" gradientUnits="userSpaceOnUse" x1="64.394" y1="73.059" x2="64.394" y2="12.683"><stop offset=".005" stop-color="#fff" stop-opacity="0"/><stop offset="1" stop-color="#fff" stop-opacity=".5"/></linearGradient><path d="M16.4 12.7l95.8.3.2 60s-32.8 1.5-44.6-14.7-13.2-24.1-28.9-25.7c-22.3-2.2-22.5-19.9-22.5-19.9z" fill="url(#A)"/><g fill="#fff"><path d="M117 6.1l-26 .3-77.9.3c-.7.1-1.4.5-1.8 1-.4.6-.5 1.2-.5 2.1l-.1 5-.3 29.7-.6 39.7V44.5l.1-19.8V9.8c0-.8.1-1.9.7-2.6.6-.8 1.4-1.2 2.4-1.4h52l26 .1 26 .2z"/><path d="M117 8.2l-44.6.2-44.5.4 44.5.2h44.2l.1 37 .3 37.4.3-37.4.1-37.8h-.4z" opacity=".7"/></g><g fill="#0f0"><path d="M79.7 47.3c-.4-1.2-1.5-2-2.7-2H52.4c-1.1 0-2.2.7-2.6 1.7-2.8 7.3-2.5 15 .1 23 .4 1.1 1.4 1.8 2.5 1.9 7.8.4 15.9.4 24.5 0 1.2-.1 2.3-.9 2.6-2.1 2.1-8.2 2.5-15.8.2-22.5zM67.5 66.1h-5.6l1-7.7c-1.2-.6-2-1.9-2-3.3 0-2.1 1.7-3.7 3.7-3.7 2.1 0 3.7 1.7 3.7 3.7 0 1.5-.9 2.8-2.2 3.4l1.4 7.6z"/><path d="M57.8 55.8c-.6 0-1.1-.3-1.5-.8-1.3-1.9-2-4.1-2-6.5V32.8c0-6.3 5.1-11.4 11.4-11.4s11.4 5.1 11.4 11.4v3.7a1.79 1.79 0 1 1-3.6 0v-3.7c0-4.3-3.5-7.8-7.8-7.8s-7.8 3.5-7.8 7.8v15.7c0 1.6.5 3.1 1.4 4.4.6.8.4 1.9-.5 2.5-.2.3-.6.4-1 .4z"/></g></svg>