<svg xmlns="http://www.w3.org/2000/svg" xmlns:xlink="http://www.w3.org/1999/xlink" viewBox="0 0 672.33 185.18"><style><![CDATA[.V{fill:#e0af68}.W{fill:#8b5c16}.X{fill:#93611a}.Y{fill:#b17a1a}.Z{fill:#a46f1c}.a{fill:#5a6579}.b{fill:#343b4c}.c{fill:#8e9aae}.d{fill:#454d63}]]></style><defs><clipPath id="A"><path d="M52.63 22.08h86.55v144.16H52.63z" class="d"/></clipPath><linearGradient id="B" x1="94.26" y1="159.62" x2="94.26" y2="44.39" gradientUnits="userSpaceOnUse"><stop offset="0" stop-color="#fff" stop-opacity="0"/><stop offset="1" stop-color="#fff" stop-opacity=".6"/></linearGradient><clipPath id="C"><path transform="matrix(0 1 -1 0 170.51 -24.91)" d="M78.93 49.67h37.56v46.26H78.93z" fill="#191d2a"/></clipPath><clipPath id="D"><path d="M389.7 21.54h86.55V165.7H389.7z" class="d"/></clipPath><path id="E" d="M134.38 108.46c-.5 0-1 .06-1.44-.57 0-1.94-.43-4-.05-6a16.44 16.44 0 0 0 .26-3.14l-.16-7.7a41.83 41.83 0 0 0-.16-5.12 7.8 7.8 0 0 1 .52-4.17 3.39 3.39 0 0 1 1.13-.25h17.44a1.45 1.45 0 0 0-.83 1c-.32 1.1 0 3.32 0 4.5-.28 5.5 0 11 .12 16.47 0 1.4-.26 3 .2 4.37a2.15 2.15 0 0 0 .55.89c-2.25 0-4.5-.1-6.75 0-3.64-.01-7.2-.2-10.83-.3z"/><path id="F" d="M177.76 104.08c.74-.15 1.6-.65 2.36-.5a3.2 3.2 0 0 1 1.14.69c.67.53 1.36 1.73.67 2.53-.38.43-1.05.35-1.57.33-.7 0-.65-.28-1-.82s-.76-.63-1.28-1c-.33-.22-.8-.93-.32-1.24z"/><path id="G" d="M158.9 89.7c0 .62-.3.8-.9 1-.42.16-1.28.42-1.63.07a4.1 4.1 0 0 1-.4-1.07 2.76 2.76 0 0 0-.29-.85c-.17-.22-.48-.2-.63-.45a1 1 0 0 1 .28-1.17 1.9 1.9 0 0 1 2.18-.46c1.14.53 1.42 2.34 1.4 2.93z"/><path id="H" d="M187.94 86.18a4.85 4.85 0 0 1 .62 3.17c0 .86.07 2.54-1 2.76-1.68.34-.84-1.62-.8-2.35a4.43 4.43 0 0 0-.32-2.15c-.26-.58-.6-1-.17-1.48s1.72-.38 1.66.05z"/><path id="I" d="M187.66 86.4a4.81 4.81 0 0 1 .62 3.17c0 .86.08 2.54-1 2.76-1.68.34-.84-1.62-.8-2.35a4.32 4.32 0 0 0-.32-2.15c-.26-.58-.6-1-.16-1.48s1.7-.35 1.65.05z"/><path id="J" d="M162.73 103.72a1.89 1.89 0 0 1 1.37.85c.22.4.64 1.13.46 1.6-.27.73-1 .75-1.67.75-1 0-1.24-.25-1.8-1s-1.43-2 0-2.27c.55-.07 1.04.1 1.64.06z"/><path id="K" d="M162.55 104a1.84 1.84 0 0 1 1.36.85c.23.4.64 1.13.47 1.6-.27.73-1 .75-1.68.75-1 0-1.23-.26-1.8-1s-1.43-2 .06-2.27c.5-.07 1.04.06 1.6.06z"/><path id="L" d="M177.94 87.9c.1.67.33 1.7-.22 2.24a3.22 3.22 0 0 1-2.06.53 1.67 1.67 0 0 1-.55-.54c-.38-.62.17-.95.12-1.5-.12-1.16-2.76-1.33-2.4-2.86.15-.66 1.12-.78 1.67-.84 1.16-.1 3.25.1 3.3 1.63a8.51 8.51 0 0 0 .15 1.33z"/><path id="M" d="M145.25 84.83a2.85 2.85 0 0 1 2.5-.79.8.8 0 0 1 .45 1c-.24.57-1 .83-1.44 1.25a2 2 0 0 0-.52 1.08c-.2.64-.74 1.33-1.5 1.1s-.84-1.26-.7-1.9a4.41 4.41 0 0 1 1.2-1.73z"/><path id="N" d="M136.62 105.6c.7 1 3.8 1.3 4-.3.2-1.93-1.57-1-2.63-1.46-.8-.32-1-1.14-1.6-1.7-.26-.25-.44-.35-.76-.07-.5.4-.33 1.38-.13 1.92s.67 1.48 1.13 1.62z"/><path id="O" d="M137.18 91.65c.6.43 1.26.86 1.16 1.68-.05.37-.34.93-.77 1s-.92-.7-1.38-.85-1.28-.2-1.46-.7c-.25-.7.57-1.5 1.24-1.5a2.07 2.07 0 0 1 1.21.37z"/><path id="P" d="M181.27 65.75c.75-.16 1.62-.67 2.4-.5a3.54 3.54 0 0 1 1.17.71c.68.54 1.4 1.77.68 2.58-.38.45-1.07.37-1.6.34-.7 0-.67-.28-1-.84s-.8-.64-1.3-1-.84-.96-.35-1.28z"/><path id="Q" d="M172.2 76.15c0 .63-.32.82-.92 1-.43.16-1.3.43-1.67.07a4.47 4.47 0 0 1-.4-1.1 3.2 3.2 0 0 0-.3-.87c-.18-.22-.5-.2-.65-.46a1 1 0 0 1 .28-1.2 2 2 0 0 1 2.24-.46c1.16.56 1.45 2.4 1.42 3.02z"/><path id="R" d="M190.46 71.35a5 5 0 0 1 .63 3.23c0 .88.07 2.6-1 2.83-1.73.34-.87-1.66-.8-2.4a4.58 4.58 0 0 0-.33-2.19c-.27-.6-.6-1-.17-1.52s1.72-.38 1.68.06z"/><path id="S" d="M157.6 70.45a1.89 1.89 0 0 1 1.4.87c.23.42.65 1.15.47 1.65-.27.74-1.06.76-1.7.76-1.06 0-1.27-.26-1.84-1s-1.46-2.1.06-2.32c.5-.1 1.02.07 1.62.04z"/><path id="T" d="M190.37 57.3c.1.68.34 1.75-.22 2.3a3.27 3.27 0 0 1-2.11.54 1.8 1.8 0 0 1-.56-.54c-.4-.65.17-1 .1-1.53-.12-1.2-2.82-1.37-2.46-2.93.15-.67 1.14-.8 1.7-.85 1.2-.12 3.33.1 3.37 1.66a10 10 0 0 0 .16 1.36z"/><path id="U" d="M186.13 58.06c.65.13 0 1-.58 1a.68.68 0 0 1-.65-.81c.17-.63 1.5-.75 1.44 0"/><path id="V" d="M164 62.77c.33.4 1 .9.22 1.26a1.39 1.39 0 0 1-1.62-.48c-.5-1 .85-1.2 1.4-.73"/><path id="W" d="M181.08 66c.75-.15 1.63-.67 2.4-.5a3.35 3.35 0 0 1 1.17.7c.68.54 1.4 1.77.68 2.6-.38.44-1.07.36-1.6.34-.7 0-.67-.3-1-.84s-.78-.65-1.3-1c-.36-.22-.84-.94-.35-1.3z"/><path id="X" d="M172 76.44c0 .63-.32.8-.92 1-.43.17-1.3.43-1.67.07a4.25 4.25 0 0 1-.4-1.09 3.09 3.09 0 0 0-.3-.87c-.18-.23-.5-.22-.65-.47a1 1 0 0 1 .29-1.19 1.92 1.92 0 0 1 2.23-.47c1.16.58 1.42 2.4 1.42 3.02z"/><path id="Y" d="M190.18 57.58c.1.7.34 1.76-.22 2.3a3.31 3.31 0 0 1-2.11.53 1.7 1.7 0 0 1-.56-.54c-.4-.64.17-1 .1-1.53-.12-1.2-2.82-1.36-2.46-2.93.15-.67 1.14-.8 1.7-.85 1.2-.12 3.33.1 3.38 1.66a8.82 8.82 0 0 0 .15 1.36z"/><path id="Z" d="M144.58 56.56a2.86 2.86 0 0 1 2.55-.8.8.8 0 0 1 .46 1.07c-.24.6-1.05.85-1.48 1.28a2 2 0 0 0-.52 1.1c-.2.66-.76 1.37-1.54 1.13s-.86-1.3-.7-2a4.64 4.64 0 0 1 1.24-1.78z"/><path id="a" d="M148.15 66.28c.6.43 1.3.88 1.18 1.7 0 .38-.34 1-.78 1s-.94-.7-1.42-.87-1.3-.2-1.48-.7c-.26-.72.58-1.53 1.26-1.54a2.1 2.1 0 0 1 1.24.41z"/><path id="b" d="M190.28 41.66a5 5 0 0 1 .63 3.25c0 .88.08 2.6-1 2.83-1.73.35-.87-1.66-.8-2.4a4.62 4.62 0 0 0-.33-2.2c-.27-.6-.6-1-.17-1.52s1.73-.4 1.68.05z"/><path id="c" d="M157.34 40.76a1.92 1.92 0 0 1 1.4.88c.23.42.65 1.15.47 1.65-.28.75-1.06.76-1.7.76-1.07 0-1.27-.26-1.85-1s-1.47-2.1.06-2.33c.5-.1 1 .08 1.63.04z"/><path id="d" d="M190.2 27.58c.1.68.34 1.76-.22 2.3a3.38 3.38 0 0 1-2.11.54 1.76 1.76 0 0 1-.57-.55c-.4-.64.18-1 .12-1.53-.12-1.2-2.83-1.37-2.47-2.94.15-.67 1.15-.8 1.7-.85 1.2-.12 3.34.1 3.4 1.66a8.83 8.83 0 0 0 .15 1.37z"/><path id="e" d="M186 28.34c.65.13-.06 1-.6 1a.68.68 0 0 1-.65-.81c.17-.63 1.5-.75 1.44 0"/><path id="f" d="M163.73 33.07c.33.4 1 .9.22 1.25a1.37 1.37 0 0 1-1.62-.47c-.5-1 .85-1.2 1.4-.73"/><path id="g" d="M180.88 36.33c.75-.15 1.63-.67 2.42-.5a3.37 3.37 0 0 1 1.16.7c.7.55 1.4 1.78.7 2.6-.38.44-1.07.36-1.6.34-.72 0-.68-.3-1-.84s-.78-.65-1.3-1c-.38-.26-.86-.98-.36-1.3z"/><path id="h" d="M171.78 46.77c0 .63-.33.82-.93 1-.43.16-1.32.42-1.67.07a4.11 4.11 0 0 1-.41-1.1 3 3 0 0 0-.3-.88c-.18-.22-.5-.2-.65-.46a1.05 1.05 0 0 1 .29-1.2 2 2 0 0 1 2.24-.46c1.16.56 1.46 2.42 1.43 3.03z"/><path id="i" d="M190 41.9a4.94 4.94 0 0 1 .64 3.24c0 .9.07 2.62-1 2.84-1.72.35-.86-1.66-.8-2.4a4.56 4.56 0 0 0-.33-2.21c-.26-.6-.6-1-.17-1.52s1.67-.38 1.67.06z"/><path id="j" d="M190 27.86c.1.7.34 1.76-.22 2.3a3.26 3.26 0 0 1-2.11.54 1.84 1.84 0 0 1-.57-.54c-.4-.65.18-1 .12-1.54-.12-1.2-2.83-1.37-2.47-2.93.15-.67 1.15-.8 1.7-.86 1.2-.12 3.34.1 3.4 1.67a8.82 8.82 0 0 0 .15 1.36z"/><path id="k" d="M136.5 38.48c-1.1.65-1.58 3.8.06 4.1 2 .34 1.18-1.55 1.67-2.6.38-.8 1.23-1 1.84-1.54.27-.25.38-.42.12-.78-.4-.53-1.4-.42-1.95-.26s-1.56.6-1.74 1.08z"/><path id="l" d="M189.55 128.37a4.75 4.75 0 0 1 .61 3.13c0 .85.08 2.5-1 2.73-1.67.33-.84-1.6-.8-2.32a4.33 4.33 0 0 0-.31-2.13c-.26-.58-.6-1-.17-1.46s1.7-.32 1.66.05z"/><path id="m" d="M157.8 127.5a1.84 1.84 0 0 1 1.35.84c.22.4.63 1.12.45 1.6-.26.72-1 .73-1.65.73-1 0-1.22-.25-1.78-1s-1.4-2 .06-2.24c.5-.05.97.1 1.57.07z"/><path id="n" d="M189.47 114.8c.1.66.32 1.7-.2 2.22a3.17 3.17 0 0 1-2 .51 1.71 1.71 0 0 1-.55-.52c-.37-.62.17-1 .12-1.48-.12-1.15-2.73-1.32-2.38-2.83.14-.65 1.1-.77 1.65-.82 1.15-.12 3.22.1 3.26 1.6a8.2 8.2 0 0 0 .11 1.32z"/><path id="o" d="M185.38 115.53c.62.13-.06 1-.57 1a.64.64 0 0 1-.62-.78c.16-.6 1.44-.72 1.38 0"/><path id="p" d="M180.5 123.24c.72-.15 1.56-.65 2.33-.5a3.34 3.34 0 0 1 1.12.68c.66.52 1.35 1.7.66 2.5-.37.43-1 .35-1.54.32-.7 0-.65-.27-1-.8s-.75-.63-1.26-1-.8-.9-.3-1.2z"/><path id="q" d="M171.72 133.3c0 .6-.3.8-.9 1-.4.16-1.27.4-1.6.07a4.16 4.16 0 0 1-.39-1.06 3 3 0 0 0-.29-.84c-.17-.22-.47-.2-.63-.45a1 1 0 0 1 .28-1.15 1.86 1.86 0 0 1 2.16-.45c1.12.5 1.4 2.3 1.37 2.88z"/><path id="r" d="M189.28 128.6a4.81 4.81 0 0 1 .61 3.13c0 .85.07 2.5-1 2.73-1.66.33-.83-1.6-.78-2.33a4.43 4.43 0 0 0-.32-2.12c-.25-.58-.58-1-.16-1.46s1.7-.38 1.65.05z"/><path id="s" d="M157.63 127.78a1.81 1.81 0 0 1 1.34.84c.23.4.64 1.1.46 1.6-.26.72-1 .74-1.65.74-1 0-1.22-.25-1.78-1s-1.4-2 .06-2.24c.5-.06.94.1 1.57.07z"/><path id="t" d="M189.28 115.07c.1.66.33 1.7-.2 2.22a3.23 3.23 0 0 1-2 .52 1.71 1.71 0 0 1-.54-.53c-.37-.62.17-.94.1-1.48-.1-1.14-2.72-1.3-2.38-2.82.15-.65 1.1-.77 1.65-.83 1.15-.1 3.22.1 3.27 1.6a9.87 9.87 0 0 0 .1 1.31z"/><path id="u" d="M145.22 114.08a2.82 2.82 0 0 1 2.47-.77.78.78 0 0 1 .44 1c-.23.56-1 .8-1.42 1.23a2 2 0 0 0-.51 1.07c-.2.63-.73 1.3-1.5 1.1s-.82-1.26-.68-1.9a4.57 4.57 0 0 1 1.19-1.72z"/><path id="v" d="M137.74 125.3c-1.06.63-1.52 3.68.06 4 1.9.33 1.13-1.5 1.6-2.5.36-.77 1.2-1 1.77-1.5.27-.24.37-.4.12-.75-.38-.5-1.34-.4-1.88-.24s-1.5.54-1.68.98z"/><path id="w" d="M148.68 123.47c.58.42 1.24.85 1.14 1.66 0 .36-.33.92-.76 1s-.9-.7-1.37-.84-1.25-.2-1.43-.7c-.25-.7.56-1.48 1.22-1.5a2.09 2.09 0 0 1 1.2.36z"/><path id="x" d="M181.6 151.12c.75-.15 1.62-.67 2.4-.5a3.4 3.4 0 0 1 1.16.71c.7.54 1.4 1.77.7 2.58-.4.45-1.07.37-1.6.34-.7 0-.67-.28-1-.83s-.78-.65-1.3-1c-.37-.26-.85-.97-.35-1.3z"/><path id="y" d="M172.5 161.52c0 .63-.32.82-.92 1-.43.16-1.32.43-1.67.07a4.26 4.26 0 0 1-.41-1.09 3 3 0 0 0-.3-.88c-.17-.22-.48-.2-.64-.46a1 1 0 0 1 .28-1.19 1.94 1.94 0 0 1 2.24-.47c1.16.56 1.45 2.42 1.42 3.02z"/><path id="z" d="M157.92 155.82a1.86 1.86 0 0 1 1.39.87c.24.42.66 1.16.48 1.65-.28.74-1.06.76-1.7.76-1.06 0-1.27-.26-1.85-1s-1.46-2.1.06-2.32c.5-.1 1 .07 1.63.04z"/><path id="AA" d="M190.68 142.67c.1.68.34 1.75-.2 2.3a3.27 3.27 0 0 1-2.11.54 1.84 1.84 0 0 1-.57-.54c-.4-.65.18-1 .12-1.53-.12-1.2-2.82-1.37-2.46-2.93.15-.67 1.14-.8 1.7-.85 1.2-.12 3.34.1 3.38 1.66a10.29 10.29 0 0 0 .15 1.36z"/><path id="AB" d="M186.45 143.43c.65.13-.06 1-.58 1a.67.67 0 0 1-.65-.81c.17-.63 1.5-.75 1.43 0"/><path id="AC" d="M181.4 151.4c.75-.15 1.62-.67 2.4-.5a3.22 3.22 0 0 1 1.16.7c.7.54 1.4 1.78.7 2.6-.4.44-1.07.36-1.6.34-.7 0-.67-.3-1-.84s-.78-.65-1.3-1c-.37-.25-.85-.97-.35-1.3z"/><path id="AD" d="M190.5 156.94a4.94 4.94 0 0 1 .63 3.24c0 .88.08 2.6-1 2.83-1.72.34-.87-1.66-.8-2.4a4.5 4.5 0 0 0-.33-2.2c-.26-.6-.6-1-.17-1.5s1.73-.4 1.68.05z"/><path id="AE" d="M190.5 143c.1.68.34 1.75-.2 2.3a3.4 3.4 0 0 1-2.11.54 1.87 1.87 0 0 1-.57-.55c-.38-.64.18-1 .12-1.53-.12-1.2-2.82-1.36-2.46-2.93.15-.67 1.14-.8 1.7-.85 1.2-.12 3.33.1 3.37 1.66a10.48 10.48 0 0 0 .15 1.37z"/><path id="AF" d="M137.15 153.54c-1.1.65-1.57 3.8.06 4.1 2 .34 1.17-1.54 1.67-2.6.37-.8 1.22-1 1.83-1.54.27-.25.38-.42.12-.78-.4-.52-1.38-.42-1.94-.25s-1.56.6-1.74 1.07z"/><path id="AG" d="M496 89.18c0 .6-.3.8-.9 1-.42.16-1.28.42-1.63.07a4.24 4.24 0 0 1-.4-1.07 2.67 2.67 0 0 0-.29-.85c-.17-.22-.48-.22-.63-.46a1 1 0 0 1 .28-1.16 1.9 1.9 0 0 1 2.18-.46c1.1.52 1.4 2.33 1.4 2.93z"/><path id="AH" d="M495.8 89.45c0 .62-.32.8-.9 1-.43.16-1.3.4-1.64.07a4.23 4.23 0 0 1-.39-1.07 2.74 2.74 0 0 0-.3-.86c-.17-.22-.47-.2-.63-.45a1 1 0 0 1 .28-1.17 1.9 1.9 0 0 1 2.19-.45c1.13.53 1.42 2.34 1.4 2.93z"/><path id="AI" d="M525 85.65a4.84 4.84 0 0 1 .62 3.16c0 .86.07 2.55-1 2.77-1.68.33-.84-1.62-.8-2.35a4.51 4.51 0 0 0-.32-2.15c-.26-.6-.6-1-.17-1.48s1.7-.38 1.66.05z"/><path id="AJ" d="M524.72 85.87a4.78 4.78 0 0 1 .62 3.16c0 .86.08 2.55-1 2.77-1.68.34-.84-1.62-.8-2.35a4.39 4.39 0 0 0-.32-2.15c-.26-.58-.6-1-.16-1.48s1.7-.38 1.65.05z"/><path id="AK" d="M499.8 103.2a1.86 1.86 0 0 1 1.37.85c.22.4.64 1.13.46 1.6-.27.73-1 .75-1.67.75-1 0-1.24-.26-1.8-1s-1.43-2 .05-2.26c.5-.08 1 .08 1.6.05z"/><path id="AL" d="M499.6 103.47a1.81 1.81 0 0 1 1.36.85c.23.4.64 1.13.46 1.6-.26.73-1 .74-1.67.74-1 0-1.23-.25-1.8-1s-1.43-2 .06-2.27c.5-.06.98.1 1.6.07z"/><path id="AM" d="M515.18 87.1c.1.67.33 1.7-.2 2.24a3.25 3.25 0 0 1-2.06.53 1.67 1.67 0 0 1-.55-.54c-.38-.62.17-.95.1-1.5-.12-1.16-2.76-1.33-2.4-2.86.15-.66 1.12-.78 1.67-.84 1.16-.1 3.26.1 3.3 1.63a9.93 9.93 0 0 0 .15 1.33z"/><path id="AN" d="M515 87.37c.1.66.33 1.7-.22 2.24a3.21 3.21 0 0 1-2.06.52 1.64 1.64 0 0 1-.55-.53c-.38-.63.17-.95.12-1.5-.12-1.16-2.76-1.34-2.4-2.87.15-.65 1.1-.77 1.67-.83 1.16-.12 3.25.1 3.3 1.63a8.51 8.51 0 0 0 .15 1.33z"/><path id="AO" d="M482.3 84.3a2.85 2.85 0 0 1 2.5-.78.78.78 0 0 1 .44 1c-.23.57-1 .82-1.43 1.25a2 2 0 0 0-.52 1.07c-.2.65-.74 1.34-1.5 1.1s-.84-1.27-.7-1.92a4.48 4.48 0 0 1 1.2-1.73z"/><path id="AP" d="M473.68 105.06c.7 1 3.8 1.3 4-.3.2-1.94-1.58-1-2.63-1.47-.8-.3-1-1.13-1.6-1.7-.26-.25-.44-.35-.77-.07-.5.4-.32 1.38-.13 1.9s.68 1.48 1.14 1.63z"/><path id="AQ" d="M474.24 91.12c.6.42 1.26.86 1.16 1.68 0 .36-.34.93-.77 1s-.92-.7-1.38-.85-1.28-.18-1.46-.7c-.25-.7.57-1.5 1.24-1.5a2 2 0 0 1 1.21.36z"/><path id="AR" d="M471.16 79.15c-.5 0-1.06.07-1.48-.57 0-2-.43-4.07 0-6.16a17.1 17.1 0 0 0 .26-3.21l-.16-7.87a43.75 43.75 0 0 0-.16-5.24 8 8 0 0 1 .52-4.27 3.62 3.62 0 0 1 1.16-.25q8.83 0 17.75 0h.1a1.51 1.51 0 0 0-.85 1c-.32 1.12 0 3.4 0 4.6-.28 5.63 0 11.23.12 16.85 0 1.44-.27 3.06.2 4.47a2.36 2.36 0 0 0 .56.91c-2.3 0-4.6-.1-6.9 0-3.76.02-7.45-.18-11.12-.27z"/><path id="AS" d="M518.33 65.2c.75-.15 1.62-.67 2.4-.5a3.35 3.35 0 0 1 1.17.7c.68.54 1.4 1.78.68 2.6-.38.44-1.07.36-1.6.34-.7 0-.67-.28-1-.84s-.8-.65-1.3-1-.84-.97-.35-1.3z"/><path id="AT" d="M509.25 75.62c0 .63-.32.8-.92 1-.43.17-1.3.43-1.67.08a4.47 4.47 0 0 1-.4-1.1 3.09 3.09 0 0 0-.3-.87c-.18-.22-.5-.22-.65-.46a1 1 0 0 1 .28-1.2 2 2 0 0 1 2.24-.47c1.17.56 1.45 2.4 1.42 3.02z"/><path id="AU" d="M527.5 70.8a4.94 4.94 0 0 1 .64 3.24c0 .88.07 2.6-1 2.83-1.72.34-.86-1.66-.8-2.4a4.5 4.5 0 0 0-.32-2.2c-.27-.6-.6-1-.17-1.5.5-.67 1.7-.4 1.66.05z"/><path id="AV" d="M494.66 69.9a1.93 1.93 0 0 1 1.4.88c.23.42.65 1.15.47 1.64-.27.75-1.06.77-1.7.77-1.06 0-1.27-.26-1.84-1s-1.46-2.08.06-2.32c.5-.1.96.12 1.62.03z"/><path id="AW" d="M527.43 56.77c.1.68.34 1.75-.22 2.3a3.4 3.4 0 0 1-2.11.54 1.84 1.84 0 0 1-.56-.55c-.4-.64.17-1 .1-1.53-.12-1.18-2.82-1.36-2.46-2.93.15-.66 1.14-.8 1.7-.85 1.2-.12 3.33.1 3.37 1.67a10.2 10.2 0 0 0 .16 1.36z"/><path id="AX" d="M509.06 75.9c0 .63-.32.82-.92 1-.43.16-1.3.43-1.67.07a4.32 4.32 0 0 1-.4-1.1 3.2 3.2 0 0 0-.3-.87c-.18-.22-.5-.2-.65-.46s0-.9.28-1.2a2 2 0 0 1 2.24-.46c1.16.56 1.45 2.42 1.42 3.02z"/><path id="AY" d="M494.47 70.2a1.89 1.89 0 0 1 1.4.87c.23.42.65 1.15.47 1.65-.27.74-1.06.76-1.7.76-1.06 0-1.27-.26-1.84-1s-1.46-2.1.06-2.32c.5-.1 1 .07 1.62.04z"/><path id="AZ" d="M527.24 57.05c.1.68.34 1.75-.22 2.3a3.27 3.27 0 0 1-2.11.54 1.8 1.8 0 0 1-.56-.54c-.4-.65.17-1 .1-1.53-.12-1.2-2.82-1.37-2.46-2.93.15-.67 1.14-.8 1.7-.85 1.2-.12 3.33.1 3.38 1.66a8.82 8.82 0 0 0 .15 1.36z"/><path id="Aa" d="M481.63 56a2.93 2.93 0 0 1 2.56-.81.81.81 0 0 1 .46 1.08c-.24.58-1 .84-1.48 1.27a2.11 2.11 0 0 0-.52 1.11c-.2.66-.76 1.36-1.54 1.13s-.86-1.3-.7-2a4.65 4.65 0 0 1 1.23-1.78z"/><path id="Ab" d="M473.9 67.64c-1.1.64-1.57 3.8.06 4.08 2 .34 1.18-1.54 1.67-2.6.37-.8 1.23-1 1.83-1.53.28-.25.4-.43.13-.78-.4-.53-1.4-.42-1.95-.26s-1.56.62-1.74 1.08z"/><path id="Ac" d="M485.2 65.74c.6.44 1.3.88 1.18 1.72 0 .38-.34 1-.78 1s-.94-.7-1.42-.87-1.3-.2-1.5-.7c-.25-.73.6-1.53 1.27-1.54a2.18 2.18 0 0 1 1.24.4z"/><path id="Ad" d="M470.83 49.5c-.5 0-1.06.07-1.48-.58 0-2-.44-4.07-.05-6.16a17.28 17.28 0 0 0 .27-3.22l-.17-7.9a43.91 43.91 0 0 0-.16-5.25 8 8 0 0 1 .53-4.28 3.64 3.64 0 0 1 1.16-.26h17.9a1.5 1.5 0 0 0-.85 1c-.33 1.12 0 3.4 0 4.62-.3 5.65 0 11.26.12 16.9 0 1.44-.27 3.07.2 4.48a2.26 2.26 0 0 0 .57.91c-2.3 0-4.62-.1-6.93 0-3.72.03-7.42-.17-11.1-.26z"/><path id="Ae" d="M518.13 35.52c.75-.16 1.63-.68 2.42-.5a3.25 3.25 0 0 1 1.16.71c.7.54 1.4 1.78.7 2.6-.38.44-1.07.36-1.6.34-.72 0-.68-.28-1-.84s-.8-.65-1.3-1-.86-.97-.36-1.3z"/><path id="Af" d="M527.34 41.13a4.94 4.94 0 0 1 .63 3.24c0 .9.08 2.62-1 2.84-1.73.35-.87-1.66-.82-2.4a4.55 4.55 0 0 0-.32-2.21c-.27-.6-.6-1-.17-1.52s1.72-.38 1.68.06z"/><path id="Ag" d="M494.4 40.23a1.89 1.89 0 0 1 1.39.87c.24.43.66 1.16.48 1.66-.28.74-1.06.76-1.72.76-1.06 0-1.27-.26-1.84-1s-1.47-2.1.05-2.32c.52-.1 1.02.06 1.64.03z"/><path id="Ah" d="M527.25 27.05c.1.68.34 1.75-.22 2.3a3.31 3.31 0 0 1-2.11.53 1.64 1.64 0 0 1-.57-.54c-.4-.65.18-1 .12-1.54-.12-1.2-2.83-1.36-2.47-2.93.15-.67 1.14-.8 1.7-.86 1.2-.12 3.34.1 3.4 1.67a9.14 9.14 0 0 0 .15 1.37z"/><path id="Ai" d="M517.94 35.8c.75-.15 1.63-.67 2.42-.5a3.4 3.4 0 0 1 1.16.71c.7.54 1.4 1.78.7 2.6-.38.45-1.07.37-1.6.34-.72 0-.68-.28-1-.84s-.8-.65-1.3-1-.86-.97-.36-1.3z"/><path id="Aj" d="M508.84 46.23c0 .64-.33.82-.93 1.05-.43.17-1.32.43-1.67.07a3.92 3.92 0 0 1-.41-1.09 3 3 0 0 0-.3-.88c-.18-.22-.5-.22-.65-.46a1 1 0 0 1 .29-1.2 1.94 1.94 0 0 1 2.24-.47c1.16.52 1.45 2.37 1.43 2.98z"/><path id="Ak" d="M527.05 41.36a4.94 4.94 0 0 1 .64 3.24c0 .88.07 2.6-1.05 2.84-1.73.34-.86-1.66-.8-2.42a4.5 4.5 0 0 0-.33-2.2c-.26-.6-.6-1-.17-1.52s1.77-.38 1.72.06z"/><path id="Al" d="M494.2 40.5a2 2 0 0 1 1.4.88c.23.42.65 1.16.47 1.65-.28.75-1.06.76-1.72.76-1.06 0-1.27-.25-1.84-1s-1.47-2.1.06-2.33c.5-.1 1 .08 1.63.04z"/><path id="Am" d="M527.06 27.33c.1.68.34 1.76-.22 2.3a3.32 3.32 0 0 1-2.11.54 1.67 1.67 0 0 1-.57-.55c-.4-.64.18-1 .12-1.53-.12-1.2-2.83-1.37-2.47-2.94.15-.67 1.15-.8 1.7-.85 1.2-.12 3.34.1 3.4 1.67a8.82 8.82 0 0 0 .15 1.36z"/><path id="An" d="M481.33 26.3a2.93 2.93 0 0 1 2.56-.8.81.81 0 0 1 .46 1.08c-.24.58-1.05.84-1.47 1.28a2 2 0 0 0-.53 1.1c-.2.66-.76 1.37-1.55 1.14s-.85-1.3-.7-2a4.65 4.65 0 0 1 1.23-1.8z"/><path id="Ao" d="M473.57 38c-1.1.64-1.58 3.8.06 4.1 2 .34 1.18-1.54 1.67-2.6.37-.8 1.23-1 1.84-1.54.27-.26.38-.43.12-.78-.4-.53-1.4-.43-1.95-.26s-1.56.56-1.74 1.08z"/><path id="Ap" d="M484.92 36.05c.6.43 1.3.88 1.18 1.72 0 .38-.34 1-.78 1s-.94-.7-1.42-.87-1.3-.2-1.5-.72c-.26-.72.58-1.53 1.26-1.54a2.11 2.11 0 0 1 1.25.41z"/><path id="Aq" d="M472.16 135.9c-.5 0-1 .06-1.43-.56 0-1.92-.42-3.93 0-5.94a16.12 16.12 0 0 0 .25-3.11l-.15-7.6a43 43 0 0 0-.16-5.07 7.7 7.7 0 0 1 .51-4.12 3.34 3.34 0 0 1 1.12-.25h17.23a1.48 1.48 0 0 0-.81 1c-.32 1.08 0 3.3 0 4.46-.28 5.44 0 10.85.1 16.28 0 1.4-.26 2.95.2 4.32a2.07 2.07 0 0 0 .55.87c-2.23 0-4.46-.08-6.68 0-3.63-.01-7.2-.18-10.74-.28z"/><path id="Ar" d="M509 132.48c0 .6-.32.8-.9 1-.42.16-1.27.4-1.62.07a4.16 4.16 0 0 1-.39-1.06 2.7 2.7 0 0 0-.29-.84c-.17-.22-.47-.2-.62-.45a1 1 0 0 1 .27-1.15 1.88 1.88 0 0 1 2.16-.45c1.1.5 1.38 2.3 1.38 2.88z"/><path id="As" d="M526.6 127.84a4.71 4.71 0 0 1 .61 3.12c0 .85.07 2.52-1 2.74-1.66.33-.83-1.6-.78-2.33a4.31 4.31 0 0 0-.31-2.12c-.26-.58-.6-1-.17-1.47s1.7-.37 1.65.06z"/><path id="At" d="M494.87 127a1.84 1.84 0 0 1 1.35.84c.22.4.63 1.12.45 1.6-.26.72-1 .74-1.65.74-1 0-1.22-.25-1.78-1s-1.4-2 .06-2.24c.5-.1.97.07 1.57.07z"/><path id="Au" d="M526.53 114.27c.1.65.32 1.7-.2 2.2a3.24 3.24 0 0 1-2 .52 1.64 1.64 0 0 1-.55-.53c-.37-.62.17-.94.12-1.47-.12-1.15-2.73-1.32-2.38-2.83.14-.65 1.1-.77 1.65-.83 1.15-.1 3.22.1 3.26 1.6a8.5 8.5 0 0 0 .11 1.32z"/><path id="Av" d="M508.78 132.75c0 .6-.3.8-.9 1-.4.16-1.27.4-1.6.06a4 4 0 0 1-.39-1.05 3 3 0 0 0-.29-.85c-.17-.2-.47-.2-.63-.44a1 1 0 0 1 .28-1.16 1.89 1.89 0 0 1 2.16-.45c1.12.52 1.4 2.3 1.37 2.9z"/><path id="Aw" d="M526.34 128.06a4.77 4.77 0 0 1 .61 3.12c0 .85.07 2.52-1 2.73-1.66.34-.83-1.6-.78-2.32a4.41 4.41 0 0 0-.32-2.12c-.25-.58-.58-1-.16-1.47s1.7-.37 1.65.06z"/><path id="Ax" d="M494.7 127.24a1.84 1.84 0 0 1 1.34.84c.23.4.64 1.12.46 1.6-.26.72-1 .73-1.65.73-1 0-1.22-.25-1.78-1s-1.4-2 .05-2.24c.5-.05.98.1 1.58.07z"/><path id="Ay" d="M526.34 114.54c.1.66.33 1.7-.2 2.22a3.16 3.16 0 0 1-2 .51 1.78 1.78 0 0 1-.54-.52c-.38-.62.17-1 .1-1.48-.1-1.15-2.72-1.32-2.38-2.83.15-.65 1.1-.77 1.65-.82 1.15-.12 3.22.1 3.27 1.6a8.42 8.42 0 0 0 .1 1.31z"/><path id="Az" d="M482.28 113.55a2.79 2.79 0 0 1 2.47-.77.77.77 0 0 1 .44 1c-.23.57-1 .82-1.42 1.24a2 2 0 0 0-.51 1.06c-.2.64-.73 1.32-1.5 1.1s-.82-1.25-.68-1.9a4.49 4.49 0 0 1 1.19-1.73z"/><path id="BA" d="M474.8 124.77c-1.06.62-1.52 3.67.06 4 1.9.32 1.13-1.5 1.6-2.5.36-.76 1.2-.94 1.77-1.48.26-.24.37-.4.12-.75-.38-.5-1.34-.4-1.88-.25s-1.48.54-1.68 1z"/><path id="BB" d="M485.74 122.94c.58.42 1.24.85 1.14 1.66-.05.36-.33.92-.76.94s-.9-.68-1.37-.84-1.26-.18-1.43-.7c-.25-.7.56-1.47 1.22-1.48a2.09 2.09 0 0 1 1.2.41z"/><path id="BC" d="M471.48 164.53c-.5 0-1.06.06-1.48-.58 0-2-.44-4.07 0-6.15a18.14 18.14 0 0 0 .26-3.21l-.16-7.88a43.83 43.83 0 0 0-.17-5.24 8 8 0 0 1 .53-4.27 3.62 3.62 0 0 1 1.16-.25h17.83a1.52 1.52 0 0 0-.84 1c-.33 1.12 0 3.4 0 4.6-.28 5.63 0 11.23.12 16.85 0 1.44-.27 3.06.2 4.48a2.29 2.29 0 0 0 .57.9c-2.3 0-4.6-.1-6.9 0-3.76.02-7.44-.18-11.1-.26z"/><path id="BD" d="M518.65 150.6c.75-.16 1.62-.68 2.4-.5a3.37 3.37 0 0 1 1.16.7c.7.55 1.4 1.78.7 2.6-.4.44-1.07.36-1.6.34-.7 0-.67-.28-1-.84s-.78-.65-1.3-1c-.37-.25-.85-.97-.35-1.28z"/><path id="BE" d="M509.57 161c0 .63-.32.82-.92 1-.43.16-1.32.42-1.67.07a4.11 4.11 0 0 1-.41-1.1 2.9 2.9 0 0 0-.3-.87c-.17-.22-.48-.22-.64-.46a1 1 0 0 1 .28-1.2 2 2 0 0 1 2.24-.46c1.16.55 1.45 2.4 1.42 3.02z"/><path id="BF" d="M495 155.3a1.87 1.87 0 0 1 1.39.87c.24.42.66 1.15.48 1.64-.28.75-1.06.77-1.7.77-1.06 0-1.27-.26-1.85-1s-1.46-2.08.06-2.32c.5-.1 1 .07 1.63.04z"/><path id="BG" d="M527.74 142.14c.1.68.34 1.75-.2 2.3a3.4 3.4 0 0 1-2.11.54 1.76 1.76 0 0 1-.57-.55c-.4-.64.18-1 .12-1.53-.12-1.18-2.82-1.36-2.46-2.92.15-.67 1.14-.8 1.7-.86 1.2-.12 3.34.1 3.38 1.67a10.29 10.29 0 0 0 .15 1.36z"/><path id="BH" d="M518.46 150.87c.75-.15 1.62-.67 2.4-.5a3.4 3.4 0 0 1 1.16.71c.7.54 1.4 1.77.7 2.58-.4.45-1.07.37-1.6.34-.7 0-.67-.28-1-.83s-.78-.65-1.3-1c-.37-.25-.8-.97-.35-1.3z"/><path id="BI" d="M527.55 156.4a4.94 4.94 0 0 1 .63 3.24c0 .88.08 2.6-1 2.82-1.73.35-.87-1.65-.8-2.4a4.5 4.5 0 0 0-.33-2.2c-.26-.6-.6-1-.17-1.52s1.72-.35 1.68.06z"/><path id="BJ" d="M494.8 155.57a1.89 1.89 0 0 1 1.4.87c.23.42.65 1.16.47 1.65-.28.74-1.06.76-1.7.76-1.06 0-1.27-.26-1.84-1s-1.47-2.1.05-2.32c.5-.1 1 .07 1.63.04z"/><path id="BK" d="M527.55 142.42c.1.68.34 1.75-.2 2.3a3.33 3.33 0 0 1-2.11.53 1.84 1.84 0 0 1-.57-.54c-.4-.65.18-1 .12-1.53-.12-1.2-2.82-1.37-2.46-2.93.15-.67 1.14-.8 1.7-.85 1.2-.12 3.34.1 3.38 1.66a10.29 10.29 0 0 0 .15 1.36z"/><path id="BL" d="M482 141.4a2.89 2.89 0 0 1 2.56-.8.8.8 0 0 1 .45 1.07c-.23.58-1 .84-1.47 1.28a2.14 2.14 0 0 0-.53 1.1c-.2.66-.75 1.36-1.54 1.13s-.85-1.3-.7-2a4.62 4.62 0 0 1 1.23-1.78z"/><path id="BM" d="M474.2 153c-1.1.64-1.57 3.8.06 4.08 2 .34 1.17-1.54 1.67-2.6.37-.8 1.22-1 1.83-1.53.27-.25.38-.42.12-.78-.4-.53-1.38-.42-1.94-.26s-1.56.63-1.74 1.08z"/><path id="BN" d="M485.53 151.1c.6.44 1.3.9 1.18 1.72 0 .38-.34 1-.78 1s-.94-.7-1.42-.87-1.3-.2-1.5-.7c-.25-.73.6-1.53 1.27-1.54a2.18 2.18 0 0 1 1.24.4z"/></defs><path d="M133.9 109.67l20 .2 6.58-.28c1.4 0 2.82.25 4.23.35a82.66 82.66 0 0 0 8.33 0c2.14-.06 4.3.2 6.45.14a76.75 76.75 0 0 0 7.73-.22 18.35 18.35 0 0 1 3 0c2 .07 61.16-.94 61.3-2.9a14.72 14.72 0 0 0 0-2.1c-.3-4.37-.23-8.75-.3-13.13 0-3 .3-6 .22-8.94a7.47 7.47 0 0 0 0-1 1.48 1.48 0 0 0-1.63-1.48h-60c-4-.2-8 .16-11.94.06-5.3-.13-10.56 0-15.8 0l-20.24-.06c-2.26 0-4.5.08-6.75 0-2.06-.1-2.6.87-3 2.56s0 3.2 0 4.8c0 4.06.22 8.14.1 12.18a51.38 51.38 0 0 0-.25 6.91c.05 2 1.05 2.88 1.96 2.9z" class="W"/><path d="M133.35 81.75a3.39 3.39 0 0 1 1.13-.25h17.35l11 .1 20.46-.18s5.15-.1 7.74-.12c.93 0 59.5.58 59.5 1.43l-.23 14.6c0 1.56-.1 3.1.05 4.7a22.5 22.5 0 0 1 0 5.44c-.15 1-58.6 1.42-59.7 1.43-.63 0-1.27-.07-1.9 0a99 99 0 0 1-12.18.22 46.89 46.89 0 0 0-5.43-.08 36.34 36.34 0 0 1-4.89-.11 43.91 43.91 0 0 0-7.67-.37c-4.48.4-9 0-13.43.15-3.6.1-7.2-.1-10.8-.2-.5 0-1 .06-1.44-.57 0-1.94-.43-4-.05-6a16.44 16.44 0 0 0 .26-3.14c0-2.56-.14-5.13-.16-7.7a41.83 41.83 0 0 0-.16-5.12 7.8 7.8 0 0 1 .55-4.23z" class="Z"/><g class="V"><use xlink:href="#E"/><path d="M134.58 107.9c.06-2.13-.3-4.26.26-6.32a38.45 38.45 0 0 0 .26-6.42v-6.38c0-1.06-.13-2.23-.16-3.2a6.87 6.87 0 0 1 .56-2.85l-.37.33a3.28 3.28 0 0 1 1.54-.2h26.4c4.75-.06 9.4-.64 14.1-.57 2.36 0 4.72-.24 7.05-.4s4.7-.17 7-.28c-2.35-.1-4.7-.2-7-.18s-4.7.08-7 0c-4.7-.22-9.45.1-14.1.15s-9.4-.13-14.1-.1h-13.24a5.2 5.2 0 0 0-1 .26l-.26.1-.1.24a7.56 7.56 0 0 0-.59 3.37c.08 1.17.27 2.1.28 3.18 0 2.1.08 4.26.2 6.38a47.89 47.89 0 0 1 .09 6.33c-.4 2.33.06 4.48.2 6.58z"/><use xlink:href="#F"/></g><path d="M177.58 104.36c.73-.15 1.58-.66 2.35-.5a3.2 3.2 0 0 1 1.14.69c.67.52 1.37 1.73.67 2.52-.37.44-1.05.36-1.56.33-.7 0-.66-.27-1-.8s-.76-.64-1.28-1c-.34-.23-.8-.93-.32-1.24z" class="W"/><use xlink:href="#G" class="V"/><path d="M158.73 90c0 .6-.32.8-.9 1s-1.3.42-1.64.07a4.23 4.23 0 0 1-.39-1.07 3 3 0 0 0-.29-.85c-.18-.22-.48-.22-.64-.46a1 1 0 0 1 .28-1.16 1.91 1.91 0 0 1 2.19-.46c1.13.5 1.42 2.32 1.4 2.93z" class="W"/><use xlink:href="#H" class="V"/><use xlink:href="#I" class="W"/><use xlink:href="#J" class="V"/><use xlink:href="#K" class="W"/><path d="M178.12 87.62c.1.67.33 1.72-.2 2.25a3.3 3.3 0 0 1-2.06.52 1.74 1.74 0 0 1-.55-.53c-.38-.63.17-1 .1-1.5-.12-1.16-2.76-1.33-2.4-2.86.15-.65 1.12-.78 1.67-.83 1.17-.12 3.26.1 3.3 1.62a9.73 9.73 0 0 0 .15 1.33z" class="V"/><use xlink:href="#L" class="W"/><path d="M180.17,85c.64.13,0,1-.57,1a.64.64,0,0,1-.63-.78c.16-.62,1.45-.73,1.4,0" class="V"/><path d="M180 85.27c.63.14-.06 1-.57 1a.65.65 0 0 1-.64-.79c.17-.6 1.46-.73 1.4 0" class="W"/><path d="M170.44 101.26c.32.4 1 .9.2 1.23a1.35 1.35 0 0 1-1.58-.46c-.5-1 .83-1.18 1.37-.72" class="V"/><path d="M170.25 101.54c.33.4 1 .9.22 1.23a1.35 1.35 0 0 1-1.58-.46c-.5-1 .83-1.18 1.36-.72" class="W"/><g class="Z"><use xlink:href="#M"/><path d="M145.8 99.78c.9.42 1 1.58-.1 1.73a1.06 1.06 0 0 1-1.26-.9c-.08-.82.76-1.1 1.35-.83z"/><use xlink:href="#N"/><path d="M148.2 92.15c.86.8-.15 1.92-.65.87-.3-.62.48-1.36.7-.78"/><use xlink:href="#O"/><path d="M148.88 105.5c1.06.32-.06 1.46-.45.7-.16-.32.2-.9.53-.7"/></g><path d="M133.62 80.93l20.5.2 6.72-.28c1.44 0 2.9.25 4.34.36 2.84.2 5.67.06 8.52 0l6.6.14 7.9-.22a19.1 19.1 0 0 1 3 0c2 .08 61.25-1 61.4-3a17 17 0 0 0 0-2.14c-.3-4.47-.24-9-.3-13.44 0-3 .3-6.08.23-9.14v-1a1.51 1.51 0 0 0-1.66-1.42h-60.08c-4.1-.2-8.15.16-12.2.06-5.42-.14-10.8 0-16.16 0L141.7 51c-2.3 0-4.6.08-6.9 0-2.1-.1-2.66.9-3.06 2.63s0 3.28 0 4.9c0 4.16.23 8.33.1 12.47a51.91 51.91 0 0 0-.25 7.06c.02 1.93 1.1 2.85 2.03 2.86z" class="X"/><path d="M133 52.36a3.9 3.9 0 0 1 1.16-.25h17.75l11.25.1 13.15-.1 7.78-.07c2.6-.07 63.27-.1 65.92-.12a1.39 1.39 0 0 1 1.52 1.46l-.23 14.92c0 1.6-.1 3.2 0 4.8a23.51 23.51 0 0 1 0 5.56c-.16 1.06-.62 1.46-1.73 1.47-.65 0-59.3-.07-59.95 0a103.65 103.65 0 0 1-12.46.23 44.86 44.86 0 0 0-5.56-.08 38 38 0 0 1-5-.12 43 43 0 0 0-7.84-.37c-4.6.4-9.18 0-13.74.15-3.68.08-7.37-.12-11-.2-.5 0-1.06.06-1.48-.58 0-2-.43-4.07 0-6.15a16.43 16.43 0 0 0 .26-3.21c0-2.62-.14-5.25-.16-7.88a43.81 43.81 0 0 0-.16-5.24 8 8 0 0 1 .52-4.32z" class="Y"/><g class="V"><path d="M134.1 79.7c-.5 0-1.06.06-1.48-.58 0-2-.43-4.07 0-6.15a16.43 16.43 0 0 0 .26-3.21l-.16-7.88a43.81 43.81 0 0 0-.16-5.24 8 8 0 0 1 .52-4.27 3.9 3.9 0 0 1 1.16-.25H152a1.47 1.47 0 0 0-.84 1c-.33 1.1 0 3.4 0 4.6-.3 5.63 0 11.24.1 16.85 0 1.44-.26 3.06.2 4.48a2.31 2.31 0 0 0 .56.9c-2.3 0-4.6-.08-6.9 0-3.68.06-7.37-.17-11.04-.25z"/><path d="M134.3 79.1c.06-2.18-.3-4.36.27-6.47a39.17 39.17 0 0 0 .26-6.57v-6.52l-.16-3.26a7 7 0 0 1 .56-2.92l-.37.34a3.43 3.43 0 0 1 1.58-.21h27.04c4.86-.06 9.6-.65 14.4-.58 2.42 0 4.82-.24 7.2-.42s62.8-.17 65.2-.3c-2.4-.1-62.8-.2-65.22-.18s-4.8.1-7.2 0c-4.8-.22-9.67.1-14.42.16s-9.6-.13-14.42-.12l-7.2.05h-6.4a5.44 5.44 0 0 0-1 .26l-.26.1-.1.25a7.62 7.62 0 0 0-.6 3.45c.08 1.2.27 2.15.28 3.25l.2 6.53a50 50 0 0 1 .09 6.47c-.37 2.33.12 4.58.25 6.7z"/><use xlink:href="#P"/><use xlink:href="#Q"/><use xlink:href="#R"/><use xlink:href="#S"/><use xlink:href="#T"/><use xlink:href="#U"/><use xlink:href="#V"/></g><g class="X"><use xlink:href="#W"/><use xlink:href="#X"/><path d="M190.17 71.57a5 5 0 0 1 .64 3.24c0 .88.07 2.6-1.05 2.83-1.76.36-.86-1.64-.76-2.4a4.5 4.5 0 0 0-.33-2.2c-.26-.6-.6-1-.17-1.5s1.72-.4 1.67.05zm-32.77-.84a1.89 1.89 0 0 1 1.4.87c.23.42.65 1.16.47 1.65-.27.75-1.06.76-1.7.76-1.06 0-1.26-.25-1.84-1s-1.46-2.08.06-2.32c.5-.1 1 .08 1.62.04z"/><use xlink:href="#Y"/><path d="M186 58.34c.64.14-.06 1-.6 1a.68.68 0 0 1-.65-.81c.17-.63 1.5-.74 1.44 0m-22.4 4.53c.33.4 1 .9.22 1.25a1.38 1.38 0 0 1-1.62-.47c-.5-1 .85-1.2 1.4-.73"/></g><g class="Y"><use xlink:href="#Z"/><path d="M146.47 74.3c.9.43 1.06 1.62-.1 1.77a1.08 1.08 0 0 1-1.29-.92.93.93 0 0 1 1.39-.85zm-9.64-6.13c-1.1.65-1.57 3.8.06 4.1 2 .33 1.18-1.55 1.67-2.6.37-.8 1.23-1 1.83-1.54.28-.25.4-.42.13-.78-.4-.53-1.4-.42-2-.25s-1.52.6-1.7 1.07zm-.67-12.87c.88.8-.15 2-.66.88-.3-.63.48-1.4.7-.8"/><use xlink:href="#a"/><path d="M146.6 69.05c1.1.33-.05 1.5-.45.7-.17-.33.2-.9.54-.7"/></g><path d="M133.3 51.27l20.55.22 6.75-.3c1.44 0 2.9.25 4.34.36a81.29 81.29 0 0 0 8.55 0c2.2-.06 4.4.2 6.6.15l7.93-.22a18.09 18.09 0 0 1 3 .05c2 .07 61.25-1 61.4-3a15.41 15.41 0 0 0 0-2.15c-.3-4.48-.24-9-.3-13.47 0-3.05.3-6.1.23-9.17v-1a1.52 1.52 0 0 0-1.67-1.51H190.6c-4.1-.2-8.18.17-12.25.06-5.43-.13-10.83.05-16.2 0l-20.76-.06c-2.3 0-4.62.08-6.92 0-2.12-.1-2.67.9-3.07 2.64s0 3.28 0 4.92c0 4.18.23 8.36.1 12.5-.07 2.36-.5 4.7-.26 7.08.03 1.96 1.1 2.87 2.05 2.88z" class="W"/><path d="M132.7 22.63a3.62 3.62 0 0 1 1.16-.25q8.87 0 17.8 0l11.28.12c4.38 0 8.77-.2 13.2-.1 2.6.05 5.2.05 7.8-.08s63.28-.1 65.93-.1a1.37 1.37 0 0 1 1.53 1.45l-.23 15c0 1.6-.1 3.2.05 4.82a23.06 23.06 0 0 1 0 5.57c-.15 1.06-.62 1.46-1.73 1.47-.65 0-59.3-.07-60 0a104.15 104.15 0 0 1-12.49.23 47.12 47.12 0 0 0-5.57-.08 38.45 38.45 0 0 1-5-.12 44.07 44.07 0 0 0-7.85-.37c-4.6.4-9.2 0-13.78.15-3.7.1-7.4-.12-11.07-.2-.5 0-1.06.06-1.48-.58 0-2-.44-4.08 0-6.17a17.28 17.28 0 0 0 .27-3.22c0-2.63-.15-5.26-.16-7.9a46.22 46.22 0 0 0-.17-5.26 8 8 0 0 1 .52-4.37z" class="Z"/><g class="V"><path d="M133.77 50c-.5 0-1.06.06-1.48-.58 0-2-.44-4.08 0-6.17a17.28 17.28 0 0 0 .27-3.22l-.16-7.9a46.22 46.22 0 0 0-.17-5.26 8 8 0 0 1 .53-4.28 3.62 3.62 0 0 1 1.16-.25q8.87 0 17.8 0h.1a1.55 1.55 0 0 0-.85 1c-.33 1.12 0 3.4 0 4.63-.28 5.64 0 11.26.12 16.9 0 1.44-.27 3.07.2 4.5a2.1 2.1 0 0 0 .56.9c-2.3 0-4.62-.08-6.92 0-3.78.06-7.48-.15-11.16-.26z"/><path d="M134 49.45c.06-2.2-.3-4.38.27-6.5a39.29 39.29 0 0 0 .26-6.58v-6.55l-.16-3.27a6.94 6.94 0 0 1 .57-2.93l-.38.35a3.31 3.31 0 0 1 1.58-.21h27.17c4.87-.06 9.63-.65 14.45-.58 2.42 0 4.84-.25 7.23-.42s62.82-.18 65.22-.3c-2.4-.1-62.8-.2-65.23-.2l-7.22.06c-4.82-.23-9.7.1-14.46.15s-9.64-.13-14.46-.1H136.2a8.69 8.69 0 0 0-1 0 4.9 4.9 0 0 0-1 .26l-.26.1-.1.25a7.8 7.8 0 0 0-.61 3.46c.1 1.2.28 2.15.3 3.25 0 2.16.1 4.38.2 6.55a50.33 50.33 0 0 1 .09 6.49c-.46 2.34.04 4.55.2 6.7zm47.07-13.4c.75-.15 1.63-.67 2.42-.5a3.4 3.4 0 0 1 1.16.71c.7.54 1.4 1.78.7 2.6-.38.45-1.07.37-1.6.34-.72 0-.68-.28-1-.84s-.78-.65-1.3-1c-.38-.25-.86-.97-.36-1.3zM172 46.48c0 .64-.33.82-.93 1.05-.43.17-1.32.43-1.67.07a3.87 3.87 0 0 1-.41-1.1 2.9 2.9 0 0 0-.3-.87c-.18-.22-.5-.22-.65-.46a1 1 0 0 1 .29-1.2 1.94 1.94 0 0 1 2.24-.47c1.13.5 1.43 2.37 1.43 2.98z"/><use xlink:href="#b"/><use xlink:href="#c"/><use xlink:href="#d"/><use xlink:href="#e"/><use xlink:href="#f"/></g><g class="W"><use xlink:href="#g"/><use xlink:href="#h"/><use xlink:href="#i"/><path d="M157.15 41.05a1.89 1.89 0 0 1 1.4.87c.23.42.65 1.16.47 1.65-.28.75-1.06.77-1.7.77-1.07 0-1.27-.26-1.85-1s-1.47-2.1.06-2.32c.48-.1 1 .06 1.63.03z"/><use xlink:href="#j"/><path d="M185.76 28.62c.65.14-.06 1-.6 1a.66.66 0 0 1-.65-.8c.17-.64 1.5-.75 1.44-.05m-22.4 4.58c.33.4 1 .9.22 1.26a1.37 1.37 0 0 1-1.62-.48c-.5-1 .85-1.2 1.4-.73"/></g><g class="Z"><path d="M144.27 26.84a2.94 2.94 0 0 1 2.56-.81.81.81 0 0 1 .46 1.08c-.24.6-1 .85-1.47 1.28a2 2 0 0 0-.53 1.1c-.2.67-.76 1.37-1.55 1.14s-.85-1.3-.7-2a4.62 4.62 0 0 1 1.23-1.79zm1.9 17.8c.9.43 1.07 1.62-.1 1.77a1.09 1.09 0 0 1-1.3-.92.93.93 0 0 1 1.39-.85z"/><use xlink:href="#k"/><path d="M135.84 25.57c.88.8-.16 2-.67.9-.3-.64.5-1.4.7-.8m12 10.9c.6.44 1.3.88 1.2 1.72-.05.38-.35 1-.8 1s-.94-.7-1.42-.87-1.3-.2-1.5-.7c-.26-.73.58-1.54 1.26-1.54a2.11 2.11 0 0 1 1.25.4zm-1.56 2.8c1.1.33-.06 1.5-.46.7-.16-.33.2-.9.54-.7"/></g><path d="M134.64 137.63l19.8.2 6.5-.27c1.4 0 2.8.25 4.2.35a80.69 80.69 0 0 0 8.23 0c2.1-.06 4.25.2 6.37.14l7.64-.2a19 19 0 0 1 2.92 0c2 .08 61.14-.93 61.28-2.86a14.3 14.3 0 0 0 0-2.07c-.28-4.33-.23-8.66-.3-13 0-2.93.3-5.87.22-8.83a7.39 7.39 0 0 0 0-.94 1.46 1.46 0 0 0-1.6-1.46h-60c-4-.2-7.88.16-11.8.06-5.23-.13-10.44 0-15.62 0l-20-.06c-2.23 0-4.45.08-6.67 0-2-.1-2.56.86-3 2.53s0 3.17 0 4.75c0 4 .22 8 .1 12a50 50 0 0 0-.25 6.82c.04 1.96 1.06 2.84 1.98 2.85z" class="X"/><path d="M134.08 110a3.58 3.58 0 0 1 1.12-.24q8.53 0 17.15 0l10.87.12 20.22-.2 7.65-.1c.92 0 59.5.58 59.47 1.4l-.22 14.42c0 1.54-.1 3.08 0 4.64a22.44 22.44 0 0 1 0 5.37c-.14 1-58.6 1.4-59.67 1.42-.62 0-1.25-.07-1.88 0a100.81 100.81 0 0 1-12 .22 45.86 45.86 0 0 0-5.37-.08 37.33 37.33 0 0 1-4.84-.11 41.84 41.84 0 0 0-7.57-.36c-4.43.38-8.87 0-13.28.14-3.55.1-7.1-.1-10.66-.2-.5 0-1 .06-1.43-.56 0-1.92-.42-3.93 0-5.94a16 16 0 0 0 .25-3.1c0-2.54-.14-5.07-.15-7.6a42.77 42.77 0 0 0-.16-5.06 7.75 7.75 0 0 1 .5-4.19z" class="Y"/><g class="V"><path d="M135.1 136.43c-.5 0-1 .06-1.43-.56 0-1.92-.42-3.93 0-5.94a16 16 0 0 0 .25-3.1l-.15-7.6a42.77 42.77 0 0 0-.16-5.06 7.75 7.75 0 0 1 .51-4.13 3.58 3.58 0 0 1 1.12-.24q8.53 0 17.15 0h.08a1.47 1.47 0 0 0-.81 1c-.32 1.07 0 3.28 0 4.45-.28 5.44 0 10.85.1 16.28 0 1.4-.26 3 .2 4.32a2.29 2.29 0 0 0 .55.88c-2.23 0-4.46-.1-6.68 0-3.63-.01-7.2-.2-10.74-.3z"/><path d="M135.3 135.87c.07-2.1-.28-4.2.27-6.25a38.57 38.57 0 0 0 .25-6.34v-6.3c0-1-.13-2.2-.16-3.15a6.72 6.72 0 0 1 .54-2.82l-.35.33a3.17 3.17 0 0 1 1.52-.2h26.16c4.7-.06 9.27-.63 13.92-.56 2.34 0 4.66-.24 7-.4s4.64-.17 7-.28l-7-.18-7 .06c-4.65-.22-9.34.1-13.93.15s-9.3-.13-13.93-.1h-13.2a5 5 0 0 0-.95.25l-.26.1-.1.24a7.25 7.25 0 0 0-.58 3.33c.08 1.16.26 2.08.27 3.14 0 2.07.1 4.22.2 6.3a48.42 48.42 0 0 1 .09 6.25c-.38 2.25.1 4.38.22 6.46zM180.68 123c.73-.15 1.57-.65 2.33-.5a3.24 3.24 0 0 1 1.12.68c.66.53 1.35 1.72.67 2.5-.38.43-1 .35-1.55.33-.7 0-.65-.27-1-.8s-.76-.62-1.27-1-.78-.94-.3-1.2zm-8.78 10c0 .6-.32.8-.9 1s-1.27.42-1.62.07a4.32 4.32 0 0 1-.4-1.07 2.76 2.76 0 0 0-.29-.85c-.17-.2-.47-.2-.62-.44a1 1 0 0 1 .27-1.16 1.88 1.88 0 0 1 2.16-.45c1.13.54 1.4 2.33 1.4 2.9z"/><use xlink:href="#l"/><use xlink:href="#m"/><use xlink:href="#n"/><use xlink:href="#o"/><path d="M164 120.1c.32.38 1 .87.2 1.2a1.33 1.33 0 0 1-1.56-.46c-.5-1 .82-1.16 1.35-.7"/></g><g class="X"><use xlink:href="#p"/><use xlink:href="#q"/><use xlink:href="#r"/><use xlink:href="#s"/><use xlink:href="#t"/><path d="M185.2 115.8c.63.14-.05 1-.56 1a.65.65 0 0 1-.63-.8c.17-.6 1.44-.72 1.4 0m-21.63 4.36c.33.38 1 .87.22 1.2a1.32 1.32 0 0 1-1.56-.45c-.5-1 .82-1.17 1.34-.7"/></g><g class="Y"><use xlink:href="#u"/><path d="M147.05 131.24c.88.4 1 1.56-.1 1.7a1.06 1.06 0 0 1-1.25-.89.89.89 0 0 1 1.34-.82z"/><use xlink:href="#v"/><path d="M137.1 112.86c.85.8-.15 1.9-.64.86-.3-.6.47-1.35.68-.78"/><use xlink:href="#w"/><path d="M147.17 126.16c1.05.3 0 1.44-.44.68-.16-.32.18-.88.52-.68"/></g><path d="M133.94 166.3l20.5.2 6.72-.28c1.44 0 2.9.25 4.34.36 2.84.2 5.67.06 8.52 0l6.6.14a77.38 77.38 0 0 0 7.91-.22c1-.12 60 0 61 0a2.94 2.94 0 0 0 3.39-3 15.26 15.26 0 0 0 0-2.14c-.3-4.47-.24-9-.3-13.44 0-3 .3-6.08.22-9.14a7.87 7.87 0 0 0 0-1 1.52 1.52 0 0 0-1.66-1.51H191.1c-4.1-.2-8.15.17-12.2.06-5.42-.13-10.8.05-16.17 0l-20.7-.06c-2.3 0-4.6.08-6.9 0-2.1-.1-2.65.9-3.05 2.63s0 3.28 0 4.9c0 4.16.23 8.33.1 12.47-.07 2.35-.5 4.68-.25 7.06.01 2.03 1.08 2.94 2.02 2.95z" class="X"/><path d="M133.36 137.74a3.64 3.64 0 0 1 1.16-.26h17.75l11.25.12 20.93-.2s63.27-.1 65.9-.12a1.39 1.39 0 0 1 1.53 1.46l-.24 14.92.06 4.8a22.9 22.9 0 0 1 0 5.55c-.15 1.07-.62 1.46-1.72 1.47-.65 0-59.3-.07-59.95 0a103.72 103.72 0 0 1-12.46.23 47 47 0 0 0-5.56-.08 38.19 38.19 0 0 1-5-.12 43.8 43.8 0 0 0-7.83-.37c-4.6.4-9.2 0-13.75.15-3.68.1-7.36-.12-11-.2-.5 0-1.06.06-1.48-.58 0-2-.43-4.07 0-6.15a18.14 18.14 0 0 0 .26-3.21c0-2.62-.15-5.25-.16-7.87a43.69 43.69 0 0 0-.17-5.24 8 8 0 0 1 .47-4.32z" class="Y"/><g class="V"><path d="M134.42 165.06c-.5 0-1.06.06-1.48-.58 0-2-.43-4.07 0-6.15a18.14 18.14 0 0 0 .26-3.21l-.16-7.87a43.69 43.69 0 0 0-.17-5.24 8 8 0 0 1 .53-4.27 3.64 3.64 0 0 1 1.16-.26h17.84a1.5 1.5 0 0 0-.85 1c-.33 1.1 0 3.4 0 4.6-.28 5.63 0 11.23.12 16.84 0 1.44-.27 3.07.2 4.48a2.1 2.1 0 0 0 .56.9c-2.3 0-4.6-.08-6.9 0-3.76.04-7.44-.17-11.1-.25z"/><path d="M134.62 164.48c.06-2.18-.3-4.36.27-6.47a40.26 40.26 0 0 0 .26-6.57v-6.52c0-1.08-.13-2.3-.17-3.26a7 7 0 0 1 .57-2.92l-.37.34a3.41 3.41 0 0 1 1.57-.21h27.05c4.86-.06 9.6-.65 14.4-.58 2.4 0 4.82-.24 7.2-.4s62.8-.18 65.2-.3c-2.4-.1-62.8-.2-65.2-.18l-7.2.06c-4.8-.23-9.67.1-14.42.15s-9.6-.13-14.42-.1l-7.2.05h-6.4a5.32 5.32 0 0 0-1 .26l-.27.1-.1.25a7.76 7.76 0 0 0-.61 3.45c.1 1.2.28 2.15.3 3.25l.2 6.53a46.69 46.69 0 0 1 .09 6.47c-.35 2.28.14 4.48.27 6.63z"/><use xlink:href="#x"/><use xlink:href="#y"/><use xlink:href="#z"/><use xlink:href="#AA"/><use xlink:href="#AB"/><path d="M164.3 148.14c.34.4 1 .9.22 1.26a1.36 1.36 0 0 1-1.61-.48c-.5-1 .84-1.2 1.4-.73"/></g><g class="X"><use xlink:href="#AC"/><path d="M172.32 161.8c0 .63-.32.8-.92 1-.43.17-1.32.43-1.67.07a4.66 4.66 0 0 1-.41-1.09 2.57 2.57 0 0 0-.3-.87c-.17-.23-.48-.22-.64-.47a1 1 0 0 1 .28-1.19 2 2 0 0 1 2.24-.47c1.16.56 1.45 2.4 1.42 3.02z"/><use xlink:href="#AD"/><path d="M157.73 156.1a1.92 1.92 0 0 1 1.4.87c.23.43.65 1.16.47 1.65-.28.75-1.06.76-1.7.76-1.06 0-1.27-.25-1.84-1s-1.47-2.08 0-2.32c.56-.06 1.06.08 1.68.04z"/><use xlink:href="#AE"/><path d="M186.26 143.7c.65.14-.06 1-.58 1a.67.67 0 0 1-.65-.81c.17-.63 1.5-.74 1.43 0m-22.36 4.54c.34.4 1 .9.22 1.25a1.36 1.36 0 0 1-1.61-.47c-.5-1 .85-1.2 1.4-.73"/></g><g class="Y"><path d="M144.9 141.93a2.92 2.92 0 0 1 2.56-.8.81.81 0 0 1 .45 1.07c-.23.6-1.05.85-1.47 1.28a2.14 2.14 0 0 0-.53 1.1c-.2.66-.75 1.37-1.54 1.13s-.85-1.3-.7-2a4.69 4.69 0 0 1 1.23-1.78zm1.9 17.75c.9.43 1.06 1.62-.1 1.77a1.08 1.08 0 0 1-1.29-.92c-.08-.84.78-1.1 1.4-.85z"/><use xlink:href="#AF"/><path d="M136.48 140.67c.88.8-.16 2-.67.88-.3-.63.5-1.4.7-.8m11.96 10.9c.6.43 1.3.88 1.18 1.7-.05.38-.34 1-.78 1s-.94-.7-1.42-.87-1.3-.18-1.5-.7c-.25-.72.6-1.53 1.27-1.53a2 2 0 0 1 1.24.4zm-1.57 2.78c1.1.32-.06 1.5-.45.7-.17-.33.18-.9.54-.7"/></g><rect x="12.71" y="14.35" width="309.35" height="8.66" rx="4.33" transform="matrix(-1 0 0 -1 334.76 37.37)" fill="#986419"/><path d="M317.73 21.7a3 3 0 0 0 0-6H17a3 3 0 1 0 0 6z" fill="#ad7a1e"/><path d="M17,19.36H317.73a3,3,0,0,0,2.77-1.84,3,3,0,0,1-2.77,4.17H17a3,3,0,0,1-2.78-4.17A3,3,0,0,0,17,19.36Z" fill="#a46e1c"/><path d="M19.9 109.67l20 .2 6.58-.28c1.4 0 2.82.25 4.23.35a82.66 82.66 0 0 0 8.33 0c2.14-.06 4.3.2 6.45.14a76.75 76.75 0 0 0 7.73-.22 18.35 18.35 0 0 1 3 0 2.87 2.87 0 0 0 3.31-2.9 14.72 14.72 0 0 0 0-2.1c-.3-4.37-.23-8.75-.3-13.13 0-3 .3-6 .22-8.94a7.47 7.47 0 0 0 0-1 1.48 1.48 0 0 0-1.63-1.48h-2c-4-.2-8 .16-11.94.06-5.3-.13-10.56 0-15.8 0l-20.24-.06c-2.26 0-4.5.08-6.75 0-2.06-.1-2.6.87-3 2.56s0 3.2 0 4.8c0 4.06.22 8.14.1 12.18a51.38 51.38 0 0 0-.25 6.91c.05 2 1.05 2.88 1.96 2.9z" class="W"/><path d="M19.35 81.75a3.39 3.39 0 0 1 1.13-.25h17.35l11 .1 20.46-.18s5.15-.1 7.74-.12a1.36 1.36 0 0 1 1.49 1.43l-.23 14.6v4.7a22.5 22.5 0 0 1 0 5.44c-.15 1-.6 1.42-1.7 1.43-.63 0-1.27-.07-1.9 0a99 99 0 0 1-12.18.22 46.89 46.89 0 0 0-5.43-.08 36.34 36.34 0 0 1-4.89-.11 43.91 43.91 0 0 0-7.67-.37c-4.48.4-9 0-13.43.15-3.6.1-7.2-.1-10.8-.2-.5 0-1 .06-1.44-.57 0-1.94-.43-4-.05-6a16.44 16.44 0 0 0 .26-3.14c0-2.56-.14-5.13-.16-7.7a41.83 41.83 0 0 0-.16-5.12 7.8 7.8 0 0 1 .6-4.23z" class="Z"/><g class="V"><use xlink:href="#E" x="-114"/><path d="M20.58 107.9c.06-2.13-.3-4.26.26-6.32a38.45 38.45 0 0 0 .26-6.42v-6.38c0-1.06-.13-2.23-.16-3.2a6.87 6.87 0 0 1 .56-2.85l-.37.33a3.28 3.28 0 0 1 1.54-.2H49.1c4.75-.06 9.4-.64 14.1-.57 2.36 0 4.72-.24 7.05-.4s4.7-.17 7-.28c-2.35-.1-4.7-.2-7-.18s-4.7.08-7 0c-4.7-.22-9.45.1-14.1.15s-9.4-.13-14.1-.1H21.82a5.2 5.2 0 0 0-1 .26l-.26.1-.1.24a7.56 7.56 0 0 0-.59 3.37c.08 1.17.27 2.1.28 3.18l.2 6.38a47.89 47.89 0 0 1 .09 6.33c-.44 2.33.01 4.48.14 6.58z"/><use xlink:href="#F" x="-114"/></g><path d="M63.58 104.36c.73-.15 1.58-.66 2.35-.5a3.2 3.2 0 0 1 1.14.69c.67.52 1.37 1.73.67 2.52-.37.44-1 .36-1.56.33-.7 0-.66-.27-1-.8s-.76-.64-1.28-1c-.34-.23-.8-.93-.32-1.24z" class="W"/><use xlink:href="#G" x="-114" class="V"/><path d="M44.73 90c0 .6-.32.8-.9 1s-1.3.42-1.64.07A4.23 4.23 0 0 1 41.8 90a3 3 0 0 0-.29-.85c-.18-.22-.48-.22-.64-.46a1 1 0 0 1 .28-1.16 1.91 1.91 0 0 1 2.19-.46c1.13.5 1.42 2.32 1.4 2.93z" class="W"/><use xlink:href="#H" x="-114" class="V"/><use xlink:href="#I" x="-114" class="W"/><use xlink:href="#J" x="-114" class="V"/><use xlink:href="#K" x="-114" class="W"/><path d="M64.12 87.62c.1.67.33 1.72-.2 2.25a3.3 3.3 0 0 1-2.06.52 1.74 1.74 0 0 1-.55-.53c-.38-.63.17-1 .1-1.5C61.3 87.2 58.65 87 59 85.5c.15-.65 1.12-.78 1.67-.83 1.17-.12 3.26.1 3.3 1.62a9.73 9.73 0 0 0 .15 1.33z" class="V"/><use xlink:href="#L" x="-114" class="W"/><path d="M66.17,85c.64.13,0,1-.57,1a.64.64,0,0,1-.63-.78c.16-.62,1.45-.73,1.4,0" class="V"/><path d="M66 85.27c.63.14-.06 1-.57 1a.65.65 0 0 1-.64-.79c.17-.6 1.46-.73 1.4 0" class="W"/><path d="M56.44 101.26c.32.4 1 .9.2 1.23a1.35 1.35 0 0 1-1.58-.46c-.5-1 .83-1.18 1.37-.72" class="V"/><path d="M56.25 101.54c.33.4 1 .9.22 1.23a1.35 1.35 0 0 1-1.58-.46c-.5-1 .83-1.18 1.36-.72" class="W"/><g class="Z"><use xlink:href="#M" x="-114"/><path d="M31.8 99.78c.9.42 1 1.58-.1 1.73a1.06 1.06 0 0 1-1.26-.9c-.08-.82.76-1.1 1.35-.83z"/><use xlink:href="#N" x="-114"/><path d="M34.2 92.15c.86.8-.15 1.92-.65.87-.3-.62.48-1.36.7-.78"/><use xlink:href="#O" x="-114"/><path d="M34.88 105.5c1.06.32-.06 1.46-.45.7-.16-.32.2-.9.53-.7"/></g><path d="M19.62 80.93l20.5.2 6.72-.28c1.44 0 2.9.25 4.34.36 2.84.2 5.67.06 8.52 0l6.6.14 7.9-.22a19.1 19.1 0 0 1 3 0 2.93 2.93 0 0 0 3.39-3 17 17 0 0 0 0-2.14c-.3-4.47-.24-9-.3-13.44 0-3 .3-6.08.23-9.14v-1A1.51 1.51 0 0 0 78.86 51h-2.08c-4.1-.2-8.15.16-12.2.06-5.42-.14-10.8 0-16.16 0L27.7 51c-2.3 0-4.6.08-6.9 0-2.1-.1-2.66.9-3.06 2.63s0 3.28 0 4.9c0 4.16.23 8.33.1 12.47a51.91 51.91 0 0 0-.25 7.06c.02 1.93 1.1 2.85 2.03 2.86z" class="X"/><path d="M19 52.36a3.9 3.9 0 0 1 1.16-.25H37.9l11.25.1 13.15-.1 7.78-.07 7.92-.12a1.39 1.39 0 0 1 1.52 1.46L79.3 68.3v4.8a23.51 23.51 0 0 1 0 5.56c-.16 1.06-.62 1.46-1.73 1.47-.65 0-1.3-.07-2 0a103.65 103.65 0 0 1-12.46.23 44.86 44.86 0 0 0-5.56-.08 38 38 0 0 1-5-.12 43 43 0 0 0-7.84-.37c-4.6.4-9.18 0-13.74.15-3.68.08-7.37-.12-11-.2-.5 0-1.06.06-1.48-.58 0-2-.43-4.07 0-6.15a16.43 16.43 0 0 0 .26-3.21c0-2.62-.14-5.25-.16-7.88a43.81 43.81 0 0 0-.16-5.24 8 8 0 0 1 .57-4.32z" class="Y"/><g class="V"><path d="M20.1 79.7c-.5 0-1.06.06-1.48-.58 0-2-.43-4.07 0-6.15a16.43 16.43 0 0 0 .26-3.21l-.16-7.88a43.81 43.81 0 0 0-.16-5.24 8 8 0 0 1 .44-4.27 3.9 3.9 0 0 1 1.16-.25H38a1.47 1.47 0 0 0-.84 1c-.33 1.1 0 3.4 0 4.6-.3 5.63 0 11.24.1 16.85 0 1.44-.26 3.06.2 4.48a2.31 2.31 0 0 0 .56.9c-2.3 0-4.6-.08-6.9 0-3.68.06-7.37-.17-11.04-.25z"/><path d="M20.3 79.1c.06-2.18-.3-4.36.27-6.47a39.17 39.17 0 0 0 .26-6.57v-6.52l-.16-3.26a7 7 0 0 1 .56-2.92l-.37.34a3.43 3.43 0 0 1 1.58-.21h27.04c4.86-.06 9.6-.65 14.4-.58 2.42 0 4.82-.24 7.2-.42s4.8-.17 7.2-.3c-2.4-.1-4.8-.2-7.22-.18s-4.8.1-7.2 0c-4.8-.22-9.67.1-14.42.16s-9.6-.13-14.42-.12l-7.2.05h-6.4a5.44 5.44 0 0 0-1 .26l-.26.1-.1.25a7.62 7.62 0 0 0-.6 3.45c.08 1.2.27 2.15.28 3.25l.2 6.53a50 50 0 0 1 .09 6.47c-.37 2.33.12 4.58.25 6.7z"/><use xlink:href="#P" x="-114"/><use xlink:href="#Q" x="-114"/><use xlink:href="#R" x="-114"/><use xlink:href="#S" x="-114"/><use xlink:href="#T" x="-114"/><use xlink:href="#U" x="-114"/><use xlink:href="#V" x="-114"/></g><g class="X"><use xlink:href="#W" x="-114"/><use xlink:href="#X" x="-114"/><path d="M76.17 71.57a5 5 0 0 1 .64 3.24c0 .88.07 2.6-1 2.83-1.8.36-.9-1.64-.8-2.4a4.5 4.5 0 0 0-.33-2.2c-.26-.6-.6-1-.17-1.5s1.72-.4 1.67.05zm-32.77-.84a1.89 1.89 0 0 1 1.4.87c.23.42.65 1.16.47 1.65-.28.75-1.06.75-1.7.75-1.06 0-1.26-.25-1.84-1s-1.46-2.08.06-2.32c.5-.08 1 .1 1.62.05z"/><use xlink:href="#Y" x="-114"/><path d="M72 58.34c.64.14-.06 1-.6 1a.68.68 0 0 1-.65-.81c.17-.63 1.5-.74 1.44 0m-22.4 4.53c.33.4 1 .9.22 1.25a1.38 1.38 0 0 1-1.62-.47c-.5-1 .85-1.2 1.4-.73"/></g><g class="Y"><use xlink:href="#Z" x="-114"/><path d="M32.47 74.3c.9.43 1.06 1.62-.1 1.77a1.08 1.08 0 0 1-1.29-.92.93.93 0 0 1 1.39-.85zm-9.64-6.13c-1.1.65-1.57 3.8.06 4.1 2 .33 1.18-1.55 1.67-2.6.37-.8 1.23-1 1.83-1.54.28-.25.4-.42.13-.78-.4-.53-1.4-.42-1.95-.25s-1.57.6-1.74 1.07zm-.67-12.87c.88.8-.15 2-.66.88-.3-.63.48-1.4.7-.8"/><use xlink:href="#a" x="-114"/><path d="M32.6 69.05c1.1.33-.05 1.5-.45.7-.17-.33.2-.9.54-.7"/></g><path d="M19.3 51.27l20.55.22 6.75-.3c1.44 0 2.9.25 4.34.36a81.29 81.29 0 0 0 8.55 0c2.2-.06 4.4.2 6.6.15l7.93-.22a18.09 18.09 0 0 1 3 .05 3 3 0 0 0 3.4-3 15.41 15.41 0 0 0 0-2.15c-.3-4.48-.24-9-.3-13.47 0-3.05.3-6.1.23-9.17v-1a1.52 1.52 0 0 0-1.67-1.51H76.6c-4.1-.2-8.18.17-12.25.06-5.43-.13-10.83.05-16.2 0l-20.76-.06c-2.3 0-4.62.08-6.92 0-2.12-.1-2.67.9-3.07 2.64s0 3.28 0 4.92c0 4.18.23 8.36.1 12.5-.07 2.36-.5 4.7-.26 7.08.03 1.96 1.1 2.87 2.05 2.88z" class="W"/><path d="M18.7 22.63a3.62 3.62 0 0 1 1.16-.25q8.86 0 17.8 0l11.28.12c4.38 0 8.77-.2 13.2-.1 2.6.05 5.2.05 7.8-.08s5.28-.1 7.93-.1a1.37 1.37 0 0 1 1.53 1.45l-.23 15c0 1.6-.1 3.2 0 4.82a23.06 23.06 0 0 1 0 5.57c-.15 1.06-.62 1.46-1.73 1.47-.65 0-1.3-.07-2 0a104.15 104.15 0 0 1-12.49.23 47.12 47.12 0 0 0-5.57-.08 38.45 38.45 0 0 1-5-.12 44.07 44.07 0 0 0-7.85-.37c-4.6.4-9.2 0-13.78.15-3.7.1-7.4-.12-11.07-.2-.5 0-1.06.06-1.48-.58 0-2-.44-4.08-.05-6.17a17.28 17.28 0 0 0 .27-3.22c0-2.63-.15-5.26-.16-7.9a46.22 46.22 0 0 0-.17-5.26 8 8 0 0 1 .62-4.37z" class="Z"/><g class="V"><path d="M19.77 50c-.5 0-1.06.06-1.48-.58 0-2-.44-4.08-.05-6.17a17.28 17.28 0 0 0 .27-3.22l-.16-7.9a46.22 46.22 0 0 0-.17-5.26 8 8 0 0 1 .53-4.28 3.62 3.62 0 0 1 1.16-.25q8.86 0 17.8 0h.1a1.55 1.55 0 0 0-.85 1c-.33 1.12 0 3.4 0 4.63-.28 5.64 0 11.26.12 16.9 0 1.44-.27 3.07.2 4.5a2.1 2.1 0 0 0 .56.9c-2.3 0-4.62-.08-6.92 0-3.73.06-7.43-.15-11.1-.26z"/><path d="M20 49.45c.06-2.2-.3-4.38.27-6.5a39.29 39.29 0 0 0 .26-6.58v-6.55l-.16-3.27a6.94 6.94 0 0 1 .63-2.93l-.38.35a3.31 3.31 0 0 1 1.58-.21h27.1c4.87-.06 9.63-.65 14.45-.58 2.42 0 4.84-.25 7.23-.42s4.82-.18 7.22-.3l-7.23-.2-7.22.06c-4.82-.23-9.7.1-14.46.15s-9.64-.13-14.46-.1H22.2a8.69 8.69 0 0 0-1 0 4.9 4.9 0 0 0-1 .26l-.26.1-.1.25a7.8 7.8 0 0 0-.61 3.46c.1 1.2.28 2.15.3 3.25l.2 6.55a50.33 50.33 0 0 1 .09 6.49c-.46 2.34.04 4.55.2 6.7zm47.07-13.4c.75-.15 1.63-.67 2.42-.5a3.4 3.4 0 0 1 1.16.71c.7.54 1.4 1.78.7 2.6-.38.45-1.07.37-1.6.34-.72 0-.68-.28-1-.84s-.78-.65-1.3-1-.86-.97-.36-1.3zM58 46.48c0 .64-.33.82-.93 1.05-.43.17-1.32.43-1.67.07a3.87 3.87 0 0 1-.4-1.1 2.9 2.9 0 0 0-.3-.87c-.18-.22-.5-.22-.65-.46A1 1 0 0 1 54.3 44a1.94 1.94 0 0 1 2.24-.47C57.7 44 58 45.87 58 46.48z"/><use xlink:href="#b" x="-114"/><use xlink:href="#c" x="-114"/><use xlink:href="#d" x="-114"/><use xlink:href="#e" x="-114"/><use xlink:href="#f" x="-114"/></g><g class="W"><use xlink:href="#g" x="-114"/><use xlink:href="#h" x="-114"/><use xlink:href="#i" x="-114"/><path d="M43.15 41.05a1.89 1.89 0 0 1 1.4.87c.23.42.65 1.16.47 1.65-.28.75-1.06.77-1.7.77-1.07 0-1.27-.26-1.85-1s-1.46-2.1.06-2.34c.48-.08 1 .08 1.63.05z"/><use xlink:href="#j" x="-114"/><path d="M71.76 28.62c.65.14-.06 1-.6 1a.66.66 0 0 1-.65-.8c.17-.64 1.5-.75 1.44-.05m-22.4 4.58c.33.4 1 .9.22 1.26a1.37 1.37 0 0 1-1.62-.48c-.5-1 .85-1.2 1.4-.73"/></g><g class="Z"><path d="M30.27 26.84a2.94 2.94 0 0 1 2.56-.84.81.81 0 0 1 .46 1.08c-.24.6-1 .85-1.47 1.28a2 2 0 0 0-.53 1.1c-.2.67-.76 1.37-1.55 1.14s-.85-1.3-.7-2a4.62 4.62 0 0 1 1.23-1.76zm1.9 17.8c.9.43 1.07 1.62-.1 1.77a1.09 1.09 0 0 1-1.3-.92.93.93 0 0 1 1.39-.85z"/><use xlink:href="#k" x="-114"/><path d="M21.84 25.57c.88.8-.16 2-.67.9-.3-.64.5-1.4.7-.8m12 10.9c.6.44 1.3.88 1.2 1.72 0 .38-.35 1-.8 1s-.94-.7-1.42-.87-1.3-.2-1.5-.7c-.26-.73.58-1.54 1.26-1.54a2.11 2.11 0 0 1 1.25.4zm-1.56 2.8c1.1.33-.06 1.5-.46.7-.16-.33.2-.9.54-.7"/></g><path d="M20.64 137.63l19.8.2 6.5-.27c1.4 0 2.8.25 4.2.35a80.69 80.69 0 0 0 8.23 0c2.1-.06 4.25.2 6.37.14l7.64-.2a19 19 0 0 1 2.92 0 2.84 2.84 0 0 0 3.28-2.84 14.3 14.3 0 0 0 0-2.07c-.28-4.33-.23-8.66-.3-13 0-2.93.3-5.87.22-8.83a7.39 7.39 0 0 0 0-.94 1.46 1.46 0 0 0-1.6-1.46h-2c-4-.2-7.88.16-11.8.06-5.23-.13-10.44 0-15.62 0l-20-.06c-2.23 0-4.45.08-6.67 0-2-.1-2.56.86-2.95 2.53s0 3.17 0 4.75c0 4 .22 8 .1 12a50 50 0 0 0-.25 6.82c-.01 1.94 1 2.82 1.93 2.83z" class="X"/><path d="M20.08 110a3.58 3.58 0 0 1 1.12-.24q8.54 0 17.15 0l10.87.12 20.22-.2 7.65-.1a1.34 1.34 0 0 1 1.47 1.42l-.22 14.42v4.64a22.44 22.44 0 0 1 0 5.37c-.14 1-.6 1.4-1.67 1.42-.62 0-1.25-.07-1.88 0a100.81 100.81 0 0 1-12 .22 45.86 45.86 0 0 0-5.37-.08 37.33 37.33 0 0 1-4.84-.11 41.84 41.84 0 0 0-7.57-.36c-4.43.38-8.87 0-13.28.14-3.55.1-7.1-.1-10.66-.2-.5 0-1 .06-1.43-.56 0-1.92-.42-3.93 0-5.94a16 16 0 0 0 .25-3.1c0-2.54-.14-5.07-.15-7.6a42.77 42.77 0 0 0-.16-5.06 7.75 7.75 0 0 1 .5-4.2z" class="Y"/><g class="V"><path d="M21.1 136.43c-.5 0-1 .06-1.43-.56 0-1.92-.42-3.93 0-5.94a16 16 0 0 0 .25-3.1l-.15-7.6a42.77 42.77 0 0 0-.16-5.06 7.75 7.75 0 0 1 .51-4.13 3.58 3.58 0 0 1 1.12-.24q8.54 0 17.15 0h.08a1.47 1.47 0 0 0-.81 1c-.32 1.07 0 3.28 0 4.45-.28 5.44 0 10.85.1 16.28 0 1.4-.26 3 .2 4.32a2.29 2.29 0 0 0 .55.88c-2.23 0-4.46-.1-6.68 0-3.63-.01-7.2-.2-10.74-.3z"/><path d="M21.3 135.87c.07-2.1-.28-4.2.27-6.25a38.57 38.57 0 0 0 .25-6.34v-6.3c0-1-.13-2.2-.16-3.15a6.72 6.72 0 0 1 .54-2.82l-.35.33a3.17 3.17 0 0 1 1.52-.2h26.16c4.7-.06 9.27-.63 13.92-.56 2.34 0 4.66-.24 7-.4s4.64-.17 7-.28l-7-.18-7 .06c-4.65-.22-9.34.1-13.93.15s-9.3-.13-13.93-.1H22.45a5 5 0 0 0-.95.25l-.26.1-.1.24a7.25 7.25 0 0 0-.58 3.33c.08 1.16.26 2.08.27 3.14l.2 6.3a48.42 48.42 0 0 1 .09 6.25c-.43 2.25.05 4.38.17 6.46zM66.68 123c.73-.15 1.57-.65 2.33-.5a3.24 3.24 0 0 1 1.12.68c.66.53 1.35 1.72.67 2.5-.38.43-1 .35-1.55.33-.7 0-.65-.27-1-.8s-.76-.62-1.27-1c-.32-.2-.78-.94-.3-1.2zm-8.78 10c0 .6-.32.8-.9 1s-1.27.42-1.62.07A4.32 4.32 0 0 1 55 133a2.76 2.76 0 0 0-.29-.85c-.17-.2-.47-.2-.62-.44a1 1 0 0 1 .27-1.16 1.88 1.88 0 0 1 2.16-.45c1.13.54 1.4 2.33 1.4 2.9z"/><use xlink:href="#l" x="-114"/><use xlink:href="#m" x="-114"/><use xlink:href="#n" x="-114"/><use xlink:href="#o" x="-114"/><path d="M50 120.1c.32.38 1 .87.2 1.2a1.33 1.33 0 0 1-1.56-.46c-.5-1 .82-1.16 1.35-.7"/></g><g class="X"><use xlink:href="#p" x="-114"/><use xlink:href="#q" x="-114"/><use xlink:href="#r" x="-114"/><use xlink:href="#s" x="-114"/><use xlink:href="#t" x="-114"/><path d="M71.2 115.8c.63.14 0 1-.56 1a.65.65 0 0 1-.63-.8c.17-.6 1.44-.72 1.4 0m-21.63 4.36c.33.38 1 .87.22 1.2a1.32 1.32 0 0 1-1.56-.45c-.5-1 .82-1.17 1.34-.7"/></g><g class="Y"><use xlink:href="#u" x="-114"/><path d="M33.05 131.24c.88.4 1 1.56-.1 1.7a1.06 1.06 0 0 1-1.25-.89.89.89 0 0 1 1.34-.82z"/><use xlink:href="#v" x="-114"/><path d="M23.1 112.86c.85.8-.15 1.9-.64.86-.3-.6.47-1.35.68-.78"/><use xlink:href="#w" x="-114"/><path d="M33.17 126.16c1 .3-.05 1.44-.44.68-.16-.32.18-.88.52-.68"/></g><path d="M19.94 166.3l20.5.2 6.72-.28c1.44 0 2.9.25 4.34.36 2.84.2 5.67.06 8.52 0l6.6.14a77.38 77.38 0 0 0 7.91-.22 19.1 19.1 0 0 1 3 0 2.94 2.94 0 0 0 3.39-3 15.26 15.26 0 0 0 0-2.14c-.3-4.47-.24-9-.3-13.44 0-3 .3-6.08.22-9.14a7.87 7.87 0 0 0 0-1 1.52 1.52 0 0 0-1.66-1.51H77.1c-4.1-.2-8.15.17-12.2.06-5.42-.13-10.8.05-16.17 0l-20.72.04c-2.3 0-4.6.08-6.9 0-2.1-.1-2.65.9-3.05 2.63s0 3.28 0 4.9c0 4.16.23 8.33.1 12.47-.07 2.35-.5 4.68-.25 7.06.03 1.93 1.1 2.84 2.04 2.85z" class="X"/><path d="M19.36 137.74a3.64 3.64 0 0 1 1.16-.26h17.75l11.25.12 20.93-.2s5.27-.1 7.9-.12a1.39 1.39 0 0 1 1.53 1.46l-.24 14.92.06 4.8a22.9 22.9 0 0 1 0 5.55c-.15 1.07-.62 1.46-1.72 1.47-.65 0-1.3-.07-2 0a103.72 103.72 0 0 1-12.46.23 47 47 0 0 0-5.53-.13 38.19 38.19 0 0 1-5-.12 43.8 43.8 0 0 0-7.83-.37c-4.6.4-9.2 0-13.75.15-3.68.1-7.36-.12-11-.2-.5 0-1.06.06-1.48-.58 0-2-.43-4.07 0-6.15a18.14 18.14 0 0 0 .26-3.21c0-2.62-.15-5.25-.16-7.87a43.69 43.69 0 0 0-.17-5.24 8 8 0 0 1 .49-4.27z" class="Y"/><g class="V"><path d="M20.42 165.06c-.5 0-1.06.06-1.48-.58 0-2-.43-4.07 0-6.15a18.14 18.14 0 0 0 .26-3.21l-.16-7.87a43.69 43.69 0 0 0-.17-5.24 8 8 0 0 1 .53-4.27 3.64 3.64 0 0 1 1.16-.26H38.4a1.5 1.5 0 0 0-.85 1c-.33 1.1 0 3.4 0 4.6-.28 5.63 0 11.23.12 16.84 0 1.44-.27 3.07.2 4.48a2.1 2.1 0 0 0 .56.9c-2.3 0-4.6-.08-6.9 0-3.76.04-7.44-.17-11.1-.25z"/><path d="M20.62 164.48c.06-2.18-.3-4.36.27-6.47a40.26 40.26 0 0 0 .26-6.57v-6.52c0-1.08-.13-2.3-.17-3.26a7 7 0 0 1 .57-2.92l-.37.34a3.41 3.41 0 0 1 1.57-.21h27.1c4.86-.06 9.6-.65 14.4-.58 2.4 0 4.82-.24 7.2-.4s4.8-.18 7.2-.3c-2.4-.1-4.8-.2-7.2-.18l-7.2.06c-4.8-.23-9.67.1-14.42.15s-9.6-.13-14.42-.1l-7.2.05h-6.4a5.32 5.32 0 0 0-1 .26l-.27.1-.1.25a7.76 7.76 0 0 0-.61 3.45c.1 1.2.28 2.15.3 3.25l.2 6.53a46.69 46.69 0 0 1 .09 6.47c-.4 2.28.1 4.48.23 6.63z"/><use xlink:href="#x" x="-114"/><use xlink:href="#y" x="-114"/><path d="M76.77 156.72a5 5 0 0 1 .64 3.23c0 .88.07 2.6-1 2.83-1.72.35-.86-1.66-.8-2.4a4.5 4.5 0 0 0-.33-2.2c-.26-.6-.6-1-.16-1.52s1.7-.38 1.66.06z"/><use xlink:href="#z" x="-114"/><use xlink:href="#AA" x="-114"/><use xlink:href="#AB" x="-114"/><path d="M50.3 148.14c.34.4 1 .9.22 1.26a1.36 1.36 0 0 1-1.61-.48c-.5-1 .84-1.2 1.4-.73"/></g><g class="X"><use xlink:href="#AC" x="-114"/><path d="M58.32 161.8c0 .63-.32.8-.92 1-.43.17-1.32.43-1.67.07a4.66 4.66 0 0 1-.41-1.09A2.57 2.57 0 0 0 55 161c-.17-.23-.48-.22-.64-.47a1 1 0 0 1 .28-1.19 2 2 0 0 1 2.24-.47c1.18.48 1.47 2.33 1.44 2.94z"/><use xlink:href="#AD" x="-114"/><path d="M43.73 156.1a1.92 1.92 0 0 1 1.4.87c.23.43.65 1.16.47 1.65-.28.75-1.06.76-1.7.76-1.06 0-1.27-.25-1.84-1s-1.47-2.08.05-2.32c.5-.06 1 .08 1.63.04z"/><use xlink:href="#AE" x="-114"/><path d="M72.26 143.7c.65.14-.06 1-.58 1a.67.67 0 0 1-.65-.81c.17-.63 1.5-.74 1.43 0m-22.36 4.54c.34.4 1 .9.22 1.25a1.36 1.36 0 0 1-1.61-.47c-.5-1 .85-1.2 1.4-.73"/></g><g class="Y"><path d="M30.9 141.93a2.92 2.92 0 0 1 2.56-.8.81.81 0 0 1 .45 1.07c-.23.6-1 .85-1.47 1.28a2.14 2.14 0 0 0-.53 1.1c-.2.66-.75 1.37-1.54 1.13s-.85-1.3-.7-2a4.69 4.69 0 0 1 1.23-1.78zm1.9 17.75c.9.43 1.06 1.62-.1 1.77a1.08 1.08 0 0 1-1.29-.92c-.08-.84.78-1.1 1.4-.85z"/><use xlink:href="#AF" x="-114"/><path d="M22.48 140.67c.88.8-.16 2-.67.88-.3-.63.5-1.4.7-.8m11.96 10.9c.6.43 1.3.88 1.18 1.7 0 .38-.34 1-.78 1s-.94-.7-1.42-.87-1.3-.18-1.5-.7c-.25-.72.6-1.53 1.27-1.53a2 2 0 0 1 1.24.4zm-1.57 2.78c1.1.32-.06 1.5-.45.7-.17-.33.18-.9.54-.7"/></g><path d="M52.63 22.08h86.55v144.16H52.63z" class="d"/><g clip-path="url(#A)" class="a"><path d="M89.74 16.76l-46.28 55.7s-1.46 28.9-.46 28.1 71.28-86.7 71.28-86.7l21.92-.65-97.3 120.14L43 161.6c.35-.5 113.65-148.74 113.65-148.74L154 41.67l-44 71.4 35.73-41.57 3.4-62.36z"/></g><path d="M51.86 21.93h1.5v143.7h-1.5z" class="c"/><path d="M138.4 23.23h1.5v142.74h-1.5z" class="b"/><path d="M57.6 37.5h77.66v128.15H57.6z" fill="#fff"/><path d="M61.65 41.34h70.04v124.4H61.65z" fill="red"/><path d="M135.55 37.5l-38.83.4-38.83.18.6-.6v32l-.07 32-.2 32-.36 32-.37-32-.2-32-.07-32V36.9h.6q19.4 0 38.83.18l38.92.42z" class="c"/><path d="M63.87 44.4h59.25s8 41.16-11.8 74.47-47.5 40.76-47.5 40.76z" fill="url(#B)"/><path d="M135.55 37.5l.28 16 .14 16 .08 32-.22 32-.22 16-.36 16-.28-16-.15-16-.07-32 .22-32 .22-16 .36-16z" class="c"/><path d="M73.86 53.3h47.7v39h-47.7z" fill="#b72326"/><path d="M120.84 54.02v37.56H74.58V54.02z" fill="#191d2a"/><g clip-path="url(#C)"><path d="M80.64 51.6h4.1v43.24h-4.1z" class="b"/><path d="M83,55.7a153,153,0,0,1,.85,17.1A150.63,150.63,0,0,1,83,89.9a150.62,150.62,0,0,1-.84-17.1A153,153,0,0,1,83,55.7Z" class="a"/><path d="M90.53 51.46h4.1V94.7h-4.1z" class="b"/><path d="M92.94 55.56a153 153 0 0 1 .84 17.1 150.62 150.62 0 0 1-.84 17.1 148.35 148.35 0 0 1-.85-17.1 153 153 0 0 1 .85-17.1z" class="a"/><path d="M100.43 51.88h4.1v43.24h-4.1z" class="b"/><path d="M102.83 56a155.41 155.41 0 0 1 .85 17.1 153 153 0 0 1-.85 17.1 150.63 150.63 0 0 1-.85-17.1 153 153 0 0 1 .85-17.1z" class="a"/><path d="M110.32 51.74h4.1v43.24h-4.1z" class="b"/><path d="M112.72 55.84a153 153 0 0 1 .85 17.1 153 153 0 0 1-.85 17.1 153 153 0 0 1-.85-17.1 153 153 0 0 1 .85-17.1z" class="a"/></g><path d="M471 109.14l20 .2 6.58-.28c1.4 0 2.82.25 4.23.35a82.66 82.66 0 0 0 8.33 0c2.14-.06 4.3.2 6.45.14l7.73-.2a18.35 18.35 0 0 1 3 0c2 .07 61.16-.95 61.3-2.9a14.57 14.57 0 0 0 0-2.09c-.3-4.37-.23-8.76-.3-13.14 0-3 .3-5.94.22-8.94a7.63 7.63 0 0 0 0-1 1.49 1.49 0 0 0-1.63-1.48h-60c-4-.18-8 .17-11.93.07-5.3-.14-10.56 0-15.8 0l-20.24-.06c-2.26 0-4.5.08-6.75 0-2.06-.1-2.6.87-3 2.57s0 3.2 0 4.8c0 4.07.22 8.14.1 12.2a51.17 51.17 0 0 0-.25 6.9c-.05 1.98 1 2.87 1.95 2.88z" class="W"/><path d="M470.4 81.2a3.78 3.78 0 0 1 1.14-.25h17.35l11 .12 20.46-.2s5.15-.1 7.74-.1c.93 0 59.5.58 59.5 1.42l-.23 14.6c0 1.57-.1 3.12 0 4.7a22.42 22.42 0 0 1 0 5.43c-.15 1-58.6 1.43-59.7 1.44-.63 0-1.27-.07-1.9 0a101.07 101.07 0 0 1-12.18.23 46.89 46.89 0 0 0-5.43-.08 38.26 38.26 0 0 1-4.9-.11 42.8 42.8 0 0 0-7.66-.37c-4.48.4-9 0-13.43.15-3.6.1-7.2-.12-10.8-.2-.5 0-1 .07-1.44-.56 0-1.94-.43-4-.05-6a17.36 17.36 0 0 0 .26-3.14c0-2.56-.14-5.13-.16-7.7a41.71 41.71 0 0 0-.16-5.12 7.93 7.93 0 0 1 .59-4.25z" class="Z"/><g class="V"><path d="M471.44 107.92c-.5 0-1 .07-1.44-.56 0-1.94-.43-4-.05-6a17.36 17.36 0 0 0 .26-3.14l-.16-7.7a41.71 41.71 0 0 0-.16-5.12 7.93 7.93 0 0 1 .51-4.18 3.78 3.78 0 0 1 1.14-.25H489a1.49 1.49 0 0 0-.83 1c-.32 1.1 0 3.32 0 4.5-.28 5.5 0 11 .12 16.47 0 1.4-.26 3 .2 4.38a2.18 2.18 0 0 0 .55.88c-2.26 0-4.5-.08-6.75 0-3.66.01-7.3-.2-10.85-.28z"/><path d="M471.64 107.36c.06-2.13-.3-4.27.26-6.33a37.29 37.29 0 0 0 .25-6.41v-6.4c0-1-.13-2.23-.16-3.18a6.92 6.92 0 0 1 .56-2.86l-.37.33a3.56 3.56 0 0 1 1.54-.2h26.44c4.75-.06 9.4-.63 14.1-.56 2.36 0 4.72-.24 7.05-.4s4.7-.17 7-.3l-7-.18-7 .06c-4.7-.22-9.45.1-14.1.15s-9.4-.1-14.1-.1h-13.3a4.53 4.53 0 0 0-1 .26l-.26.08-.1.25a7.54 7.54 0 0 0-.59 3.37c.08 1.17.26 2.1.28 3.18l.2 6.38a47.86 47.86 0 0 1 .09 6.33c-.43 2.25.08 4.4.2 6.5zm43.18-3.8c.74-.15 1.6-.66 2.36-.5a3.33 3.33 0 0 1 1.14.68c.67.53 1.36 1.74.67 2.53-.38.44-1 .36-1.57.33-.7 0-.66-.27-1-.8s-.77-.64-1.28-1-.8-.93-.32-1.24z"/></g><path d="M514.64 103.83c.73-.15 1.58-.66 2.35-.5a3.35 3.35 0 0 1 1.14.69c.67.53 1.36 1.74.67 2.53-.37.43-1 .35-1.56.33-.7 0-.66-.27-1-.82s-.76-.63-1.28-1c-.34-.22-.8-.92-.32-1.23z" class="W"/><use xlink:href="#AG" class="V"/><use xlink:href="#AH" class="W"/><use xlink:href="#AI" class="V"/><use xlink:href="#AJ" class="W"/><use xlink:href="#AK" class="V"/><use xlink:href="#AL" class="W"/><use xlink:href="#AM" class="V"/><use xlink:href="#AN" class="W"/><path d="M517.23 84.46c.64.14-.06 1-.57 1a.65.65 0 0 1-.63-.79c.16-.6 1.45-.73 1.4 0" class="V"/><path d="M517.05,84.74c.63.13-.06,1-.57,1a.66.66,0,0,1-.64-.79c.17-.62,1.46-.73,1.4,0" class="W"/><path d="M507.5 100.73c.32.4 1 .88.2 1.23a1.34 1.34 0 0 1-1.58-.47c-.5-1 .83-1.17 1.37-.7" class="V"/><path d="M507.3 101c.33.4 1 .88.22 1.22a1.32 1.32 0 0 1-1.58-.46c-.5-1 .83-1.18 1.36-.7" class="W"/><g class="Z"><use xlink:href="#AO"/><path d="M482.87 99.25c.9.4 1 1.58-.1 1.72a1.05 1.05 0 0 1-1.26-.9c-.08-.82.76-1.07 1.35-.82z"/><use xlink:href="#AP"/><path d="M485.26 91.62c.86.8-.15 1.92-.65.87-.3-.62.48-1.37.7-.8"/><use xlink:href="#AQ"/><path d="M485.94 105c1.06.32-.06 1.46-.45.7-.16-.32.18-.9.53-.7"/></g><path d="M470.68 80.4l20.5.2 6.72-.3c1.44 0 2.9.26 4.34.36a83.5 83.5 0 0 0 8.52 0c2.2-.07 4.4.2 6.6.14l7.9-.22a18 18 0 0 1 3 0c2 .07 61.25-1 61.4-3a17 17 0 0 0 0-2.14c-.3-4.48-.24-9-.3-13.44 0-3 .3-6.08.23-9.14v-1a1.52 1.52 0 0 0-1.66-1.52h-60.08c-4.1-.2-8.15.17-12.2.07-5.42-.14-10.8 0-16.17 0l-20.7-.07c-2.3 0-4.6.1-6.9 0-2.1-.1-2.65.9-3.05 2.63s0 3.27 0 4.9c0 4.16.23 8.33.1 12.47-.07 2.35-.5 4.67-.25 7.06.02 2.05 1.08 2.96 2.03 2.97z" class="X"/><path d="M470.1 51.83a3.62 3.62 0 0 1 1.16-.25q8.83 0 17.75 0l11.25.12 13.15-.1 7.78-.08c2.6-.08 63.27-.1 65.9-.1a1.38 1.38 0 0 1 1.53 1.45l-.23 14.93c0 1.6-.1 3.18.05 4.8a23.5 23.5 0 0 1 0 5.56c-.16 1.06-.62 1.46-1.73 1.47-.65 0-59.3-.08-60 0a103.65 103.65 0 0 1-12.46.23 49.12 49.12 0 0 0-5.56-.08 38.17 38.17 0 0 1-5-.11 43.81 43.81 0 0 0-7.83-.38c-4.6.4-9.18 0-13.74.16-3.68.08-7.37-.12-11-.2-.5 0-1.06.07-1.48-.57 0-2-.43-4.07 0-6.16a17.1 17.1 0 0 0 .26-3.21c0-2.62-.15-5.24-.16-7.87a43.75 43.75 0 0 0-.16-5.24 8 8 0 0 1 .51-4.34z" class="Y"/><g class="V"><use xlink:href="#AR"/><path d="M471.36 78.58c.06-2.2-.3-4.37.27-6.48a40.09 40.09 0 0 0 .26-6.56V59l-.16-3.26a6.91 6.91 0 0 1 .56-2.92l-.37.34a3.43 3.43 0 0 1 1.58-.2h1.8l3.7.03h21.63c4.86-.06 9.6-.65 14.4-.58 2.42 0 4.82-.25 7.2-.42s62.8-.18 65.2-.3c-2.4-.1-62.8-.2-65.22-.2l-7.2.06c-4.8-.23-9.67.1-14.42.15s-9.6-.13-14.42-.1l-7.2.05h-5.4a8.69 8.69 0 0 0-1 0 4.73 4.73 0 0 0-1 .26l-.26.1-.1.25a7.62 7.62 0 0 0-.6 3.45c.08 1.2.27 2.15.28 3.24l.2 6.53a50.18 50.18 0 0 1 .09 6.48c-.47 2.25.03 4.45.16 6.6z"/><use xlink:href="#AS"/><use xlink:href="#AT"/><use xlink:href="#AU"/><use xlink:href="#AV"/><use xlink:href="#AW"/><path d="M523.2 57.52c.65.14-.05 1-.58 1a.66.66 0 0 1-.65-.8c.17-.63 1.5-.75 1.44 0"/><use xlink:href="#f" x="337.27" y="29.17"/></g><g class="X"><use xlink:href="#P" x="336.87" y="-0.25"/><use xlink:href="#AX"/><path d="M527.23 71a5 5 0 0 1 .64 3.23c0 .88.07 2.6-1 2.83-1.72.35-.86-1.65-.8-2.4a4.5 4.5 0 0 0-.33-2.2c-.26-.6-.6-1-.17-1.52s1.72-.34 1.67.06z"/><use xlink:href="#AY"/><use xlink:href="#AZ"/><use xlink:href="#U" x="336.87" y="-0.26"/><use xlink:href="#V" x="336.85" y="-0.25"/></g><g class="Y"><use xlink:href="#Aa"/><path d="M483.53 73.78c.9.43 1.06 1.62-.1 1.77a1.09 1.09 0 0 1-1.29-.92.93.93 0 0 1 1.39-.85z"/><use xlink:href="#Ab"/><path d="M473.22 54.76c.88.82-.15 2-.66.9-.3-.63.48-1.4.7-.8"/><use xlink:href="#Ac"/><path d="M483.65 68.52c1.1.33-.06 1.5-.45.7-.17-.33.2-.92.54-.7"/></g><path d="M470.35 50.74l20.55.2 6.75-.28c1.44 0 2.9.25 4.34.36 2.85.2 5.7.06 8.55 0l6.6.14a77.86 77.86 0 0 0 7.93-.22 19.22 19.22 0 0 1 3 0c2 .08 61.25-1 61.4-3a15.44 15.44 0 0 0 0-2.15c-.3-4.5-.24-9-.3-13.48 0-3 .3-6.1.23-9.16v-1a1.53 1.53 0 0 0-1.67-1.52h-60.08c-4.1-.2-8.18.17-12.25.07-5.43-.14-10.83 0-16.2 0l-20.76-.07c-2.3 0-4.62.1-6.92 0-2.12-.1-2.67.9-3.07 2.63s0 3.3 0 4.93c0 4.17.23 8.35.1 12.5a50.63 50.63 0 0 0-.26 7.08c.03 2.04 1.1 2.95 2.05 2.96z" class="W"/><path d="M469.77 22.1a3.64 3.64 0 0 1 1.16-.26h17.8l11.28.12 21-.2s63.28-.1 65.93-.12a1.39 1.39 0 0 1 1.53 1.46l-.23 15v4.8a23.67 23.67 0 0 1 0 5.58c-.16 1.06-.62 1.46-1.73 1.47-.66 0-59.3-.07-60 0a100.15 100.15 0 0 1-12.49.23 49.37 49.37 0 0 0-5.57-.08 36.77 36.77 0 0 1-5-.11 44.15 44.15 0 0 0-7.86-.38c-4.6.4-9.2.05-13.78.16-3.68.08-7.38-.12-11.06-.2-.5 0-1.06.07-1.48-.58 0-2-.44-4.07-.05-6.16a17.28 17.28 0 0 0 .27-3.22c0-2.63-.15-5.26-.17-7.9a43.91 43.91 0 0 0-.16-5.25 8 8 0 0 1 .62-4.37z" class="Z"/><g class="V"><use xlink:href="#Ad"/><path d="M471 48.9c.06-2.18-.3-4.37.27-6.5a39.25 39.25 0 0 0 .26-6.58V29.3l-.16-3.27a6.94 6.94 0 0 1 .63-2.93l-.38.34a3.43 3.43 0 0 1 1.58-.2h27.1c4.87-.06 9.63-.65 14.45-.58 2.42 0 4.84-.25 7.23-.42s62.8-.18 65.22-.3c-2.4-.1-62.8-.2-65.23-.18l-7.22.06c-4.82-.23-9.7.1-14.46.15s-9.64-.13-14.46-.1l-7.23.05-3.6.1h-2.8a5.67 5.67 0 0 0-1 .26l-.26.1-.1.26a7.76 7.76 0 0 0-.61 3.45c.1 1.2.28 2.16.3 3.26l.2 6.55a50.31 50.31 0 0 1 .09 6.49c-.4 2.2.1 4.4.2 6.55z"/><use xlink:href="#Ae"/><path d="M509 46c0 .63-.33.82-.93 1-.43.16-1.32.43-1.67.07A4.11 4.11 0 0 1 506 46a2.8 2.8 0 0 0-.3-.87c-.18-.23-.5-.22-.65-.47a1 1 0 0 1 .29-1.2 2 2 0 0 1 2.26-.46c1.16.48 1.45 2.34 1.4 3z"/><use xlink:href="#Af"/><use xlink:href="#Ag"/><use xlink:href="#Ah"/><path d="M523 27.8c.65.14-.06 1-.6 1a.68.68 0 0 1-.65-.81c.17-.63 1.5-.75 1.44 0m-22.4 4.54c.33.4 1 .9.22 1.26a1.37 1.37 0 0 1-1.62-.47c-.5-1 .85-1.2 1.4-.74"/></g><g class="W"><use xlink:href="#Ai"/><use xlink:href="#Aj"/><use xlink:href="#Ak"/><use xlink:href="#Al"/><use xlink:href="#Am"/><use xlink:href="#e" x="336.82" y="-0.24"/><use xlink:href="#V" x="336.6" y="-29.95"/></g><g class="Z"><use xlink:href="#An"/><path d="M483.23 44.1c.9.42 1.07 1.62-.1 1.77a1.09 1.09 0 0 1-1.3-.92c-.08-.85.8-1.12 1.4-.85z"/><use xlink:href="#Ao"/><path d="M472.9 25c.88.8-.16 2-.67.9-.3-.64.5-1.4.7-.8"/><use xlink:href="#Ap"/><path d="M483.36 38.83c1.1.33-.06 1.5-.46.7-.17-.33.2-.92.54-.7"/></g><path d="M471.7 137.1l19.8.2 6.5-.27c1.4 0 2.8.24 4.2.34a80.69 80.69 0 0 0 8.23 0c2.1-.06 4.25.2 6.37.14l7.64-.22a17.84 17.84 0 0 1 2.92.05c2 .07 61.14-.93 61.28-2.87a14.29 14.29 0 0 0 0-2.07c-.28-4.32-.23-8.65-.3-13 0-2.94.3-5.88.22-8.83a7.31 7.31 0 0 0 0-.94 1.47 1.47 0 0 0-1.61-1.47h-60c-3.95-.18-7.88.17-11.8.07-5.24-.13-10.44 0-15.62 0l-20-.07c-2.23 0-4.45.1-6.67 0-2-.1-2.56.86-2.95 2.54s0 3.17 0 4.75c0 4 .22 8 .1 12a50.05 50.05 0 0 0-.25 6.82c0 1.94 1.02 2.82 1.94 2.83z" class="X"/><path d="M471.14 109.5a3.34 3.34 0 0 1 1.12-.25h17.15l10.87.1 20.22-.18s5.1-.1 7.65-.1c.92 0 59.5.57 59.47 1.4l-.23 14.4c0 1.55-.1 3.08.06 4.65a22.44 22.44 0 0 1 0 5.37c-.14 1-58.6 1.4-59.67 1.4-.62 0-1.26-.06-1.88 0a98.75 98.75 0 0 1-12 .22 48.14 48.14 0 0 0-5.37-.07 35.65 35.65 0 0 1-4.84-.12 43.74 43.74 0 0 0-7.57-.36c-4.43.4-8.87.05-13.28.15-3.55.08-7.1-.1-10.66-.2-.5 0-1 .06-1.43-.56 0-1.92-.42-3.93 0-5.94a16.12 16.12 0 0 0 .25-3.11c0-2.53-.14-5.07-.15-7.6a43 43 0 0 0-.16-5.07 7.7 7.7 0 0 1 .45-4.17z" class="Y"/><g class="V"><use xlink:href="#Aq"/><path d="M472.35 135.34c.07-2.1-.28-4.22.27-6.26a38.52 38.52 0 0 0 .25-6.34v-6.3c0-1-.13-2.2-.16-3.15a6.77 6.77 0 0 1 .54-2.83l-.35.33a3.29 3.29 0 0 1 1.52-.19h26.16c4.7-.05 9.27-.62 13.92-.55 2.34 0 4.66-.24 7-.4s4.64-.17 7-.28l-7-.18-7 .06c-4.65-.22-9.34.1-13.93.14s-9.3-.12-13.93-.1h-12.22a8.19 8.19 0 0 0-.95 0 5 5 0 0 0-.95.25l-.26.08-.1.25a7.23 7.23 0 0 0-.58 3.33c.08 1.15.26 2.08.27 3.14l.2 6.3a48.57 48.57 0 0 1 .09 6.26c-.4 2.25.1 4.38.2 6.46zm45.4-12.9c.72-.15 1.57-.65 2.33-.5a3.24 3.24 0 0 1 1.12.68c.66.52 1.35 1.7.67 2.5-.38.43-1 .35-1.55.33-.7 0-.65-.28-1-.8s-.76-.63-1.27-1-.78-.9-.3-1.2z"/><use xlink:href="#Ar"/><use xlink:href="#As"/><use xlink:href="#At"/><use xlink:href="#Au"/><use xlink:href="#o" x="337.06" y="-0.53"/><path d="M501 119.55c.32.4 1 .88.2 1.2a1.31 1.31 0 0 1-1.56-.45c-.5-1 .82-1.17 1.35-.7"/></g><g class="X"><path d="M517.56 122.7c.72-.15 1.56-.65 2.32-.5a3.28 3.28 0 0 1 1.13.68c.66.53 1.35 1.72.66 2.5-.37.43-1 .35-1.54.33-.7 0-.65-.27-1-.8s-.75-.62-1.26-1-.8-.9-.3-1.2z"/><use xlink:href="#Av"/><use xlink:href="#Aw"/><use xlink:href="#Ax"/><use xlink:href="#Ay"/><path d="M522.25 115.27c.63.13 0 1-.56 1a.65.65 0 0 1-.63-.78c.17-.6 1.44-.72 1.4 0m-21.62 4.34c.33.38 1 .87.22 1.2a1.32 1.32 0 0 1-1.56-.46c-.5-1 .8-1.16 1.34-.7"/></g><g class="Y"><use xlink:href="#Az"/><path d="M484.1 130.7c.88.42 1 1.57-.1 1.7a1 1 0 0 1-1.25-.89.89.89 0 0 1 1.34-.82z"/><use xlink:href="#BA"/><path d="M474.15 112.33c.85.78-.15 1.9-.64.86-.3-.62.47-1.35.68-.78"/><use xlink:href="#BB"/><path d="M484.23 125.62c1 .32-.05 1.44-.44.68-.16-.3.18-.88.52-.68"/></g><path d="M471 165.77l20.5.2 6.72-.3c1.44 0 2.9.26 4.34.36a83.3 83.3 0 0 0 8.51 0l6.6.14 7.9-.22c1-.12 60 0 61 0a2.94 2.94 0 0 0 3.39-3 15.29 15.29 0 0 0 0-2.14c-.3-4.48-.24-9-.3-13.44 0-3 .3-6.08.23-9.14a7.79 7.79 0 0 0 0-1 1.53 1.53 0 0 0-1.66-1.52h-60.08c-4.1-.2-8.15.17-12.2.07-5.42-.14-10.8 0-16.17 0l-20.7-.07c-2.3 0-4.6.1-6.9 0-2.1-.1-2.65.9-3.05 2.63s0 3.27 0 4.9c0 4.16.23 8.33.1 12.47-.07 2.35-.5 4.67-.26 7.06.03 2.05 1.08 2.96 2.03 2.97z" class="X"/><path d="M470.42 137.2a3.62 3.62 0 0 1 1.16-.25h17.75l11.24.1 13.16-.1 7.78-.08s63.27-.1 65.9-.1a1.38 1.38 0 0 1 1.58 1.44l-.24 14.93.06 4.8a23 23 0 0 1 0 5.56c-.15 1.06-.62 1.46-1.72 1.47-.65 0-59.3-.07-60-.05a101.69 101.69 0 0 1-12.46.23 49.19 49.19 0 0 0-5.56-.08 38.17 38.17 0 0 1-5-.11 43.88 43.88 0 0 0-7.84-.38c-4.58.4-9.18.05-13.74.16-3.68.08-7.36-.12-11-.2-.5 0-1.06.06-1.48-.58 0-2-.44-4.07 0-6.15a18.14 18.14 0 0 0 .26-3.21c0-2.63-.15-5.25-.16-7.88a43.83 43.83 0 0 0-.17-5.24 8 8 0 0 1 .47-4.27z" class="Y"/><g class="V"><use xlink:href="#BC"/><path d="M471.68 164c.06-2.2-.3-4.37.27-6.48a40.09 40.09 0 0 0 .26-6.56v-6.53c0-1.08-.13-2.28-.17-3.26a7.08 7.08 0 0 1 .57-2.92l-.37.34a3.41 3.41 0 0 1 1.57-.2h27.05c4.86-.06 9.6-.65 14.4-.58 2.4 0 4.82-.24 7.2-.42s62.8-.17 65.2-.3c-2.4-.1-62.8-.2-65.2-.18s-4.8.08-7.2 0c-4.8-.23-9.67.1-14.42.15s-9.6-.13-14.42-.1H473.8a8.76 8.76 0 0 0-1 0 4.63 4.63 0 0 0-1 .26l-.27.1-.1.25a7.62 7.62 0 0 0-.61 3.45c.1 1.2.28 2.15.3 3.25l.2 6.52a46.83 46.83 0 0 1 .09 6.48c-.36 2.33.14 4.54.27 6.74z"/><use xlink:href="#BD"/><use xlink:href="#BE"/><use xlink:href="#BF"/><use xlink:href="#BG"/><path d="M523.5 142.9c.65.14-.06 1-.58 1a.66.66 0 0 1-.65-.8c.17-.63 1.5-.75 1.43-.05m-22.35 4.55c.34.4 1 .9.22 1.25a1.36 1.36 0 0 1-1.61-.47c-.5-1 .84-1.2 1.4-.73"/></g><g class="X"><use xlink:href="#BH"/><use xlink:href="#y" x="336.88" y="-0.25"/><use xlink:href="#BI"/><use xlink:href="#BJ"/><use xlink:href="#BK"/><use xlink:href="#AB" x="336.87" y="-0.25"/><path d="M501.16 147.9c.34.4 1 .9.22 1.26a1.36 1.36 0 0 1-1.61-.48c-.5-1 .85-1.2 1.4-.73"/></g><g class="Y"><use xlink:href="#BL"/><path d="M483.84 159.15c.92.43 1.07 1.62-.1 1.77a1.09 1.09 0 0 1-1.29-.92.92.92 0 0 1 1.38-.85z"/><use xlink:href="#BM"/><path d="M473.54 140.13c.87.82-.16 2-.67.9-.3-.63.5-1.4.7-.8"/><use xlink:href="#BN"/><path d="M484 153.9c1.1.33-.06 1.5-.45.7-.17-.33.18-.92.53-.7"/></g><rect x="349.77" y="13.82" width="309.35" height="8.66" rx="4.33" transform="matrix(-1 0 0 -1 1008.88 36.3)" fill="#986419"/><path d="M654.78,21.16a3,3,0,1,0,0-6H354.1a3,3,0,0,0,0,6Z" fill="#ad7a1e"/><path d="M354.1 18.83h300.68a3 3 0 0 0 2.78-1.83 3.06 3.06 0 0 1 .24 1.17 3 3 0 0 1-3 3H354.1a3 3 0 0 1-3-3 3.05 3.05 0 0 1 .23-1.17 3 3 0 0 0 2.77 1.83z" fill="#a46e1c"/><path d="M357 109.14l20 .2 6.58-.28c1.4 0 2.82.25 4.23.35a82.66 82.66 0 0 0 8.33 0c2.14-.06 4.3.2 6.45.14l7.73-.2a18.35 18.35 0 0 1 3 0 2.88 2.88 0 0 0 3.31-2.91 14.57 14.57 0 0 0 0-2.09c-.3-4.37-.23-8.76-.3-13.14 0-3 .3-5.94.22-8.94a7.63 7.63 0 0 0 0-1 1.49 1.49 0 0 0-1.63-1.48h-2c-4-.18-8 .17-11.93.07-5.3-.14-10.56 0-15.8 0l-20.24-.06c-2.26 0-4.5.08-6.75 0-2.06-.1-2.6.87-3 2.57s0 3.2 0 4.8c0 4.07.22 8.14.1 12.2a51.17 51.17 0 0 0-.25 6.9c-.05 1.98 1 2.87 1.95 2.88z" class="W"/><path d="M356.4 81.2a3.78 3.78 0 0 1 1.14-.25h17.35l11 .12 20.46-.2s5.15-.1 7.74-.1a1.35 1.35 0 0 1 1.49 1.42l-.23 14.6v4.7a22.42 22.42 0 0 1 0 5.43c-.15 1-.6 1.43-1.7 1.44-.63 0-1.27-.07-1.9 0a101.07 101.07 0 0 1-12.18.23 46.89 46.89 0 0 0-5.43-.08 38.26 38.26 0 0 1-4.9-.11 42.8 42.8 0 0 0-7.66-.37c-4.48.4-9 0-13.43.15-3.6.1-7.2-.12-10.8-.2-.5 0-1 .07-1.44-.56 0-1.94-.43-4-.05-6a17.36 17.36 0 0 0 .26-3.14c0-2.56-.14-5.13-.16-7.7a41.71 41.71 0 0 0-.16-5.12 7.93 7.93 0 0 1 .59-4.25z" class="Z"/><g class="V"><path d="M357.44 107.92c-.5 0-1 .07-1.44-.56 0-1.94-.43-4-.05-6a17.36 17.36 0 0 0 .26-3.14l-.16-7.7a41.71 41.71 0 0 0-.16-5.12 7.93 7.93 0 0 1 .51-4.18 3.78 3.78 0 0 1 1.14-.25H375a1.49 1.49 0 0 0-.83 1c-.32 1.1 0 3.32 0 4.5-.28 5.5 0 11 .12 16.47 0 1.4-.26 3 .2 4.38a2.18 2.18 0 0 0 .55.88c-2.26 0-4.5-.08-6.75 0-3.66.01-7.3-.2-10.85-.28z"/><path d="M357.64 107.36c.06-2.13-.3-4.27.26-6.33a37.29 37.29 0 0 0 .25-6.41v-6.4c0-1-.13-2.23-.16-3.18a6.92 6.92 0 0 1 .56-2.86l-.37.33a3.56 3.56 0 0 1 1.54-.2h26.44c4.75-.06 9.4-.63 14.1-.56 2.36 0 4.72-.24 7-.4s4.7-.17 7-.3l-7.05-.18-7 .06c-4.7-.22-9.45.1-14.1.15s-9.3-.1-14-.1h-13.3a4.53 4.53 0 0 0-1 .26l-.26.08-.1.25a7.54 7.54 0 0 0-.59 3.37c.08 1.17.26 2.1.28 3.18l.2 6.38a47.86 47.86 0 0 1 .09 6.33c-.43 2.25.08 4.4.2 6.5zm43.18-3.8c.74-.15 1.6-.66 2.36-.5a3.33 3.33 0 0 1 1.14.68c.67.53 1.36 1.74.67 2.53-.38.44-1.05.36-1.57.33-.7 0-.66-.27-1-.8s-.77-.64-1.28-1-.8-.93-.32-1.24z"/></g><path d="M400.64 103.83c.73-.15 1.58-.66 2.35-.5a3.35 3.35 0 0 1 1.14.69c.67.53 1.36 1.74.67 2.53-.37.43-1.05.35-1.56.33-.7 0-.66-.27-1-.82s-.76-.63-1.28-1c-.34-.22-.8-.92-.32-1.23z" class="W"/><use xlink:href="#AG" x="-114" class="V"/><use xlink:href="#AH" x="-114" class="W"/><use xlink:href="#AI" x="-114" class="V"/><use xlink:href="#AJ" x="-114" class="W"/><use xlink:href="#AK" x="-114" class="V"/><use xlink:href="#AL" x="-114" class="W"/><use xlink:href="#AM" x="-114" class="V"/><use xlink:href="#AN" x="-114" class="W"/><path d="M403.23 84.46c.64.14-.06 1-.57 1a.65.65 0 0 1-.63-.79c.16-.6 1.45-.73 1.4 0" class="V"/><path d="M403.05,84.74c.63.13-.06,1-.57,1a.66.66,0,0,1-.64-.79c.17-.62,1.46-.73,1.4,0" class="W"/><path d="M393.5 100.73c.32.4 1 .88.2 1.23a1.34 1.34 0 0 1-1.58-.47c-.5-1 .83-1.17 1.37-.7" class="V"/><path d="M393.3 101c.33.4 1 .88.22 1.22a1.32 1.32 0 0 1-1.58-.46c-.5-1 .83-1.18 1.36-.7" class="W"/><g class="Z"><use xlink:href="#AO" x="-114"/><path d="M368.87 99.25c.9.4 1 1.58-.1 1.72a1.05 1.05 0 0 1-1.26-.9c-.08-.82.76-1.07 1.35-.82z"/><use xlink:href="#AP" x="-114"/><path d="M371.26 91.62c.86.8-.15 1.92-.65.87-.3-.62.48-1.37.7-.8"/><use xlink:href="#AQ" x="-114"/><path d="M371.94 105c1.06.32-.06 1.46-.45.7-.16-.32.18-.9.53-.7"/></g><path d="M356.68 80.4l20.5.2 6.72-.3c1.44 0 2.9.26 4.34.36a83.5 83.5 0 0 0 8.52 0c2.2-.07 4.4.2 6.6.14l7.9-.22a18 18 0 0 1 3 0 2.94 2.94 0 0 0 3.39-3 17 17 0 0 0 0-2.14c-.3-4.48-.24-9-.3-13.44 0-3 .3-6.08.23-9.14 0-.33 0-.65-.05-1a1.52 1.52 0 0 0-1.66-1.52h-2.08c-4.1-.2-8.15.17-12.2.07-5.42-.14-10.8 0-16.17 0l-20.7-.07c-2.3 0-4.6.1-6.9 0-2.1-.1-2.65.9-3.05 2.63s0 3.27 0 4.9c0 4.16.23 8.33.1 12.47-.07 2.35-.5 4.67-.25 7.06.07 2.05 1.13 2.96 2.08 2.97z" class="X"/><path d="M356.1 51.83a3.62 3.62 0 0 1 1.16-.25q8.83 0 17.75 0l11.25.12 13.15-.1 7.78-.08 7.9-.1a1.38 1.38 0 0 1 1.53 1.45l-.23 14.93.05 4.8a23.5 23.5 0 0 1 0 5.56c-.16 1.06-.62 1.46-1.73 1.47-.65 0-1.3-.08-1.95 0a103.65 103.65 0 0 1-12.46.23 49.12 49.12 0 0 0-5.56-.08 38.17 38.17 0 0 1-5-.11 43.81 43.81 0 0 0-7.83-.38c-4.6.4-9.18 0-13.74.16-3.68.08-7.37-.12-11-.2-.5 0-1.06.07-1.48-.57 0-2-.43-4.07 0-6.16a17.1 17.1 0 0 0 .26-3.21c0-2.62-.15-5.24-.16-7.87a43.75 43.75 0 0 0-.16-5.24 8 8 0 0 1 .46-4.34z" class="Y"/><g class="V"><use xlink:href="#AR" x="-114"/><path d="M357.36 78.58c.06-2.2-.3-4.37.27-6.48a40.09 40.09 0 0 0 .26-6.56V59l-.16-3.26a6.91 6.91 0 0 1 .56-2.92l-.37.34a3.43 3.43 0 0 1 1.58-.2h1.8l3.7.03h21.63c4.86-.06 9.6-.65 14.4-.58 2.42 0 4.82-.25 7.2-.42s4.8-.18 7.2-.3l-7.22-.2-7.2.06c-4.8-.23-9.67.1-14.42.15s-9.6-.13-14.42-.1l-7.2.05h-5.4a8.69 8.69 0 0 0-1 0 4.73 4.73 0 0 0-1 .26l-.26.1-.1.25a7.62 7.62 0 0 0-.6 3.45c.08 1.2.27 2.15.28 3.24l.2 6.53a50.18 50.18 0 0 1 .09 6.48c-.47 2.25.03 4.45.16 6.6z"/><use xlink:href="#AS" x="-114"/><use xlink:href="#AT" x="-114"/><use xlink:href="#AU" x="-114"/><use xlink:href="#AV" x="-114"/><use xlink:href="#AW" x="-114"/><path d="M409.2 57.52c.65.14-.05 1-.58 1a.66.66 0 0 1-.65-.8c.17-.63 1.5-.75 1.44 0"/><use xlink:href="#f" x="223.27" y="29.17"/></g><g class="X"><use xlink:href="#P" x="222.87" y="-0.25"/><use xlink:href="#AX" x="-114"/><path d="M413.23 71a5 5 0 0 1 .64 3.23c0 .88.07 2.6-1.05 2.83-1.72.35-.86-1.65-.8-2.4a4.5 4.5 0 0 0-.33-2.2c-.26-.6-.6-1-.17-1.52s1.77-.34 1.72.06z"/><use xlink:href="#AY" x="-114"/><use xlink:href="#AZ" x="-114"/><path d="M409 57.8c.65.13-.05 1-.58 1a.68.68 0 0 1-.65-.81c.17-.63 1.5-.75 1.44 0"/><use xlink:href="#V" x="222.85" y="-0.25"/></g><g class="Y"><use xlink:href="#Aa" x="-114"/><path d="M369.53 73.78c.9.43 1.06 1.62-.1 1.77a1.09 1.09 0 0 1-1.29-.92.93.93 0 0 1 1.39-.85z"/><use xlink:href="#Ab" x="-114"/><path d="M359.22 54.76c.88.82-.15 2-.66.9-.3-.63.48-1.4.7-.8"/><use xlink:href="#Ac" x="-114"/><path d="M369.65 68.52c1.1.33-.06 1.5-.45.7-.17-.33.2-.92.54-.7"/></g><path d="M356.35 50.74l20.55.2 6.75-.28c1.44 0 2.9.25 4.34.36 2.85.2 5.7.06 8.55 0l6.6.14a77.86 77.86 0 0 0 7.93-.22 19.22 19.22 0 0 1 3 0 2.94 2.94 0 0 0 3.4-3 15.44 15.44 0 0 0 0-2.15c-.3-4.5-.24-9-.3-13.48 0-3 .3-6.1.23-9.16v-1a1.53 1.53 0 0 0-1.67-1.52h-2.08c-4.1-.2-8.18.17-12.25.07-5.43-.14-10.83 0-16.2 0l-20.76-.07c-2.3 0-4.62.1-6.92 0-2.12-.1-2.67.9-3.07 2.63s0 3.3 0 4.93c0 4.17.23 8.35.1 12.5a50.63 50.63 0 0 0-.26 7.08c.03 2.04 1.1 2.95 2.05 2.96z" class="W"/><path d="M355.77 22.1a3.64 3.64 0 0 1 1.16-.26h17.8l11.28.12 21-.2s5.28-.1 7.93-.12a1.39 1.39 0 0 1 1.53 1.46l-.23 15v4.8a23.67 23.67 0 0 1 0 5.58c-.16 1.06-.62 1.46-1.73 1.47-.66 0-1.3-.07-2 0a100.15 100.15 0 0 1-12.49.23 49.37 49.37 0 0 0-5.57-.08 36.77 36.77 0 0 1-5-.11 44.15 44.15 0 0 0-7.86-.38c-4.6.4-9.2.05-13.78.16-3.68.08-7.38-.12-11.06-.2-.5 0-1.06.07-1.48-.58 0-2-.44-4.07-.05-6.16a17.28 17.28 0 0 0 .27-3.22c0-2.63-.15-5.26-.17-7.9a43.91 43.91 0 0 0-.16-5.25 8 8 0 0 1 .62-4.37z" class="Z"/><g class="V"><use xlink:href="#Ad" x="-114"/><path d="M357 48.9c.06-2.18-.3-4.37.27-6.5a39.25 39.25 0 0 0 .26-6.58V29.3l-.16-3.27a6.94 6.94 0 0 1 .63-2.93l-.38.34a3.43 3.43 0 0 1 1.58-.2h27.1c4.87-.06 9.63-.65 14.45-.58 2.42 0 4.84-.25 7.23-.42s4.8-.18 7.22-.3c-2.4-.1-4.8-.2-7.23-.18l-7.22.06c-4.82-.23-9.7.1-14.46.15s-9.64-.13-14.46-.1l-7.23.05-3.6.1h-2.8a5.67 5.67 0 0 0-1 .26l-.26.1-.1.26a7.76 7.76 0 0 0-.61 3.45c.1 1.2.28 2.16.3 3.26l.2 6.55a50.31 50.31 0 0 1 .09 6.49c-.4 2.2.1 4.4.2 6.55z"/><use xlink:href="#Ae" x="-114"/><path d="M395 46c0 .63-.33.82-.93 1-.43.16-1.32.43-1.67.07A4.11 4.11 0 0 1 392 46a2.8 2.8 0 0 0-.3-.87c-.18-.23-.5-.22-.65-.47a1 1 0 0 1 .29-1.2 2 2 0 0 1 2.26-.46c1.16.48 1.45 2.34 1.4 3z"/><use xlink:href="#Af" x="-114"/><use xlink:href="#Ag" x="-114"/><use xlink:href="#Ah" x="-114"/><path d="M409 27.8c.65.14-.06 1-.6 1a.68.68 0 0 1-.65-.81c.17-.63 1.5-.75 1.44 0m-22.4 4.54c.33.4 1 .9.22 1.26a1.37 1.37 0 0 1-1.62-.47c-.5-1 .85-1.2 1.4-.74"/></g><g class="W"><use xlink:href="#Ai" x="-114"/><use xlink:href="#Aj" x="-114"/><use xlink:href="#Ak" x="-114"/><use xlink:href="#Al" x="-114"/><use xlink:href="#Am" x="-114"/><use xlink:href="#e" x="222.82" y="-0.24"/><use xlink:href="#V" x="222.6" y="-29.95"/></g><g class="Z"><use xlink:href="#An" x="-114"/><path d="M369.23 44.1c.9.42 1.07 1.62-.1 1.77a1.09 1.09 0 0 1-1.3-.92c-.08-.85.8-1.12 1.4-.85z"/><use xlink:href="#Ao" x="-114"/><path d="M358.9 25c.88.8-.16 2-.67.9-.3-.64.5-1.4.7-.8"/><use xlink:href="#Ap" x="-114"/><path d="M369.36 38.83c1.1.33-.06 1.5-.46.7-.17-.33.2-.92.54-.7"/></g><path d="M357.7 137.1l19.8.2 6.5-.27c1.4 0 2.8.24 4.2.34a80.69 80.69 0 0 0 8.23 0c2.1-.06 4.25.2 6.37.14l7.64-.22a17.84 17.84 0 0 1 2.92.05 2.84 2.84 0 0 0 3.28-2.87 14.29 14.29 0 0 0 0-2.07c-.28-4.32-.23-8.65-.3-13 0-2.94.3-5.88.22-8.83a7.31 7.31 0 0 0 0-.94 1.47 1.47 0 0 0-1.61-1.47h-2c-3.95-.18-7.88.17-11.8.07-5.24-.13-10.44 0-15.62 0l-20-.07c-2.23 0-4.45.1-6.67 0-2-.1-2.56.86-2.95 2.54s0 3.17 0 4.75c0 4 .22 8 .1 12a50.05 50.05 0 0 0-.25 6.82c0 1.94 1.02 2.82 1.94 2.83z" class="X"/><path d="M357.14 109.5a3.34 3.34 0 0 1 1.12-.25h17.15l10.87.1 20.22-.18s5.1-.1 7.65-.1a1.33 1.33 0 0 1 1.47 1.41l-.23 14.4.06 4.65a22.44 22.44 0 0 1 0 5.37c-.14 1-.6 1.4-1.67 1.4-.62 0-1.26-.06-1.88 0a98.75 98.75 0 0 1-12 .22 48.14 48.14 0 0 0-5.37-.07 35.65 35.65 0 0 1-4.84-.12 43.74 43.74 0 0 0-7.57-.36c-4.43.4-8.87.05-13.28.15-3.55.08-7.1-.1-10.66-.2-.5 0-1 .06-1.43-.56 0-1.92-.42-3.93 0-5.94a16.12 16.12 0 0 0 .25-3.11c0-2.53-.14-5.07-.15-7.6a43 43 0 0 0-.16-5.07 7.7 7.7 0 0 1 .45-4.17z" class="Y"/><g class="V"><use xlink:href="#Aq" x="-114"/><path d="M358.35 135.34c.07-2.1-.28-4.22.27-6.26a38.52 38.52 0 0 0 .25-6.34v-6.3c0-1-.13-2.2-.16-3.15a6.77 6.77 0 0 1 .54-2.83l-.35.33a3.29 3.29 0 0 1 1.52-.19h26.16c4.7-.05 9.27-.62 13.92-.55 2.34 0 4.66-.24 7-.4s4.64-.17 7-.28l-7-.18-6.95.06c-4.65-.22-9.34.1-13.93.14s-9.3-.12-13.93-.1h-12.22a8.19 8.19 0 0 0-.95 0 5 5 0 0 0-.95.25l-.26.08-.1.25a7.23 7.23 0 0 0-.58 3.33c.08 1.15.26 2.08.27 3.14l.2 6.3a48.57 48.57 0 0 1 .09 6.26c-.44 2.25.04 4.38.16 6.46zm45.4-12.9c.72-.15 1.57-.65 2.33-.5a3.24 3.24 0 0 1 1.12.68c.66.52 1.35 1.7.67 2.5-.38.43-1 .35-1.55.33-.7 0-.65-.28-1-.8s-.76-.63-1.27-1c-.32-.2-.78-.9-.3-1.2z"/><use xlink:href="#Ar" x="-114"/><use xlink:href="#As" x="-114"/><use xlink:href="#At" x="-114"/><use xlink:href="#Au" x="-114"/><use xlink:href="#o" x="223.06" y="-0.53"/><path d="M387 119.55c.32.4 1 .88.2 1.2a1.31 1.31 0 0 1-1.56-.45c-.5-1 .82-1.17 1.35-.7"/></g><g class="X"><path d="M403.56 122.7c.72-.15 1.56-.65 2.32-.5a3.28 3.28 0 0 1 1.13.68c.66.53 1.35 1.72.66 2.5-.37.43-1 .35-1.54.33-.7 0-.65-.27-1-.8s-.75-.62-1.26-1c-.33-.2-.8-.9-.3-1.2z"/><use xlink:href="#Av" x="-114"/><use xlink:href="#Aw" x="-114"/><use xlink:href="#Ax" x="-114"/><use xlink:href="#Ay" x="-114"/><path d="M408.25 115.27c.63.13-.05 1-.56 1a.65.65 0 0 1-.63-.78c.17-.6 1.44-.72 1.4 0m-21.62 4.34c.33.38 1 .87.22 1.2a1.32 1.32 0 0 1-1.56-.46c-.5-1 .8-1.16 1.34-.7"/></g><g class="Y"><use xlink:href="#Az" x="-114"/><path d="M370.1 130.7c.88.42 1 1.57-.1 1.7a1 1 0 0 1-1.25-.89.89.89 0 0 1 1.34-.82z"/><use xlink:href="#BA" x="-114"/><path d="M360.15 112.33c.85.78-.15 1.9-.64.86-.3-.62.47-1.35.68-.78"/><use xlink:href="#BB" x="-114"/><path d="M370.23 125.62c1 .32-.05 1.44-.44.68-.16-.3.18-.88.52-.68"/></g><path d="M357 165.77l20.5.2 6.72-.3c1.44 0 2.9.26 4.34.36a83.3 83.3 0 0 0 8.51 0l6.6.14 7.9-.22a19.1 19.1 0 0 1 3 0 2.94 2.94 0 0 0 3.39-3 15.29 15.29 0 0 0 0-2.14c-.3-4.48-.24-9-.3-13.44 0-3 .3-6.08.23-9.14a7.79 7.79 0 0 0 0-1 1.53 1.53 0 0 0-1.66-1.52h-2.08c-4.1-.2-8.15.17-12.2.07-5.42-.14-10.8 0-16.17 0l-20.7-.07c-2.3 0-4.6.1-6.9 0-2.1-.1-2.65.9-3.05 2.63s0 3.27 0 4.9c0 4.16.23 8.33.1 12.47-.07 2.35-.5 4.67-.26 7.06.03 2.05 1.08 2.96 2.03 2.97z" class="X"/><path d="M356.42 137.2a3.62 3.62 0 0 1 1.16-.25h17.75l11.24.1 13.16-.1 7.78-.08s5.27-.1 7.9-.1a1.38 1.38 0 0 1 1.58 1.44l-.24 14.93.06 4.8a23 23 0 0 1 0 5.56c-.15 1.06-.62 1.46-1.72 1.47-.65 0-1.3-.07-1.95-.05a101.69 101.69 0 0 1-12.46.23 49.19 49.19 0 0 0-5.56-.08 38.17 38.17 0 0 1-5-.11 43.88 43.88 0 0 0-7.84-.38c-4.58.4-9.18.05-13.74.16-3.68.08-7.36-.12-11-.2-.5 0-1.06.06-1.48-.58 0-2-.44-4.07 0-6.15a18.14 18.14 0 0 0 .26-3.21c0-2.63-.15-5.25-.16-7.88a43.83 43.83 0 0 0-.17-5.24 8 8 0 0 1 .42-4.27z" class="Y"/><g class="V"><use xlink:href="#BC" x="-114"/><path d="M357.68 164c.06-2.2-.3-4.37.27-6.48a40.09 40.09 0 0 0 .26-6.56v-6.53c0-1.08-.13-2.28-.17-3.26a7.08 7.08 0 0 1 .57-2.92l-.37.34a3.41 3.41 0 0 1 1.57-.2h27.05c4.86-.06 9.6-.65 14.4-.58 2.4 0 4.82-.24 7.2-.42s4.8-.17 7.2-.3c-2.4-.1-4.8-.2-7.2-.18s-4.8.08-7.2 0c-4.8-.23-9.67.1-14.42.15s-9.6-.13-14.42-.1H359.8a8.76 8.76 0 0 0-1 0 4.63 4.63 0 0 0-1 .26l-.27.1-.1.25a7.62 7.62 0 0 0-.61 3.45c.1 1.2.28 2.15.3 3.25l.2 6.52a46.83 46.83 0 0 1 .09 6.48c-.36 2.33.14 4.54.27 6.74z"/><use xlink:href="#BD" x="-114"/><use xlink:href="#BE" x="-114"/><path d="M413.83 156.18a5 5 0 0 1 .64 3.24c0 .88.07 2.6-1.05 2.83-1.72.34-.86-1.66-.8-2.4a4.5 4.5 0 0 0-.33-2.2c-.26-.6-.6-1-.17-1.5s1.77-.4 1.72.05z"/><use xlink:href="#BF" x="-114"/><use xlink:href="#BG" x="-114"/><path d="M409.5 142.9c.65.14-.06 1-.58 1a.66.66 0 0 1-.65-.8c.17-.63 1.5-.75 1.43-.05m-22.35 4.55c.34.4 1 .9.22 1.25a1.36 1.36 0 0 1-1.61-.47c-.5-1 .84-1.2 1.4-.73"/></g><g class="X"><use xlink:href="#BH" x="-114"/><use xlink:href="#y" x="222.88" y="-0.25"/><use xlink:href="#BI" x="-114"/><use xlink:href="#BJ" x="-114"/><use xlink:href="#BK" x="-114"/><use xlink:href="#AB" x="222.87" y="-0.25"/><path d="M387.16 147.9c.34.4 1 .9.22 1.26a1.36 1.36 0 0 1-1.61-.48c-.5-1 .85-1.2 1.4-.73"/></g><g class="Y"><use xlink:href="#BL" x="-114"/><path d="M369.84 159.15c.92.43 1.07 1.62-.1 1.77a1.09 1.09 0 0 1-1.29-.92.92.92 0 0 1 1.38-.85z"/><use xlink:href="#BM" x="-114"/><path d="M359.54 140.13c.87.82-.16 2-.67.9-.3-.63.5-1.4.7-.8"/><use xlink:href="#BN" x="-114"/><path d="M370 153.9c1.1.33-.06 1.5-.45.7-.17-.33.18-.92.53-.7"/></g><path d="M389.7 21.54h86.55V165.7H389.7z" class="d"/><g clip-path="url(#D)" class="a"><path d="M426.8 16.23l-46.28 55.7s-1.46 28.9-.5 28.1 71.3-86.7 71.3-86.7l21.92-.65L376 132.8l4.06 28.28c.32-.48 113.64-148.75 113.64-148.75l-2.65 28.8-43.95 71.38L482.82 71l3.4-62.4z"/></g><path d="M388.92 21.4h1.5v143.7h-1.5z" class="c"/><path d="M475.47 22.7h1.5v142.74h-1.5z" class="b"/><path d="M394.65 36.97h77.66v128.15h-77.66z" fill="#fff"/><path d="M398.7 40.8h70.04v124.4H398.7z" fill="#191d2b"/><g class="c"><path d="M472.6 37l-38.83.4-38.83.18.6-.6v32l-.07 32-.2 32-.36 32-.37-32-.2-32-.07-32V36.4h.6q19.4 0 38.83.18l38.9.42z"/><path d="M472.6 37l.28 16 .1 16 .08 32-.22 32-.22 16-.36 16-.28-16-.15-16-.07-32 .22-32 .22-16 .4-16z"/></g><path d="M461.82 42.4h5.44v122.6h-5.44z" fill="red"/></svg>