<svg xmlns="http://www.w3.org/2000/svg" viewBox="0 0 1920 1080"><defs><clipPath id="A"><path d="M0 0h1921v1080H0z" fill="none"/></clipPath></defs><g clip-path="url(#A)" fill="#000003"><path d="M304.83-3.52C294-38 183.66-12.4 160.57-10.28 115.15-6.1 50.65-8 5-8-11.73-8-12.4 5.52-20.2 20.2c-4.5 8.47-2.65 23.8-2.35 33 1.77 53.6 8.32 107.44 11.4 161.1 5.07 88.2 2.5 174.6 3.2 262.68.5 63.54.68 137.53 4 201 2.77 53.76-6.7 121.27-4.5 175 1.9 45.66-10.45 89.36-13.52 135.25S-6 1060.73 5.15 1106c.63-.13 4.15 0 4.88 0-.42-40.16 13.1-79.27 20.76-118.3 3.3-16.8-3.45-32.6-2.35-49.1 1.42-21.4 19.85-41.66 20.26-62.9.22-11.48-8.23-29.58-11.5-41-6.5-22.5-4-37.1 2.2-60.42 1.8-6.7 3.33-13.4 4.74-20.1.15 8 2.9 15.55 3.32 23.57.43 8.18-2.93 15.2-3.1 23.22-.13 6.27 3.56 11.2 3.7 17.13.13 5.23-3 12.48-2.6 17.92.2 2.83 1.18 10 4.65 11 2.56.72 5.63-2.43 4.65-5.93.3 3.3-2.15 6.57-5.08 4.85C46 843.8 47.1 835 47.7 831.76c.88-4.58 3-9.27 2.8-14-.2-4.53-2.58-8.8-3.08-13.24-1.55-13.8 5.44-27.76 4.88-41.9-.17-4.4-.8-8.78-.78-13.2 0-6.46 2.33-12.5 2.65-18.8.26-5.18-1.65-10.47-2-15.67a42.39 42.39 0 0 1-.08-4.2l4.15-21.8A42.12 42.12 0 0 1 62 674.84a80.82 80.82 0 0 0-.93 14.4c.5 9.3 2.07 18.42 2.08 27.77 0 6.55-1.12 13.48.1 20a42.7 42.7 0 0 0 .74 3.27c-.13 1.42-.2 2.84-.22 4.28 0 5.54 1.06 11 1.56 16.5a200.39 200.39 0 0 1 .6 20.36c0 .18.27.2.28 0 .16-5.94.3-11.9 0-17.84-.2-6.58-1.5-13.16-1.15-19.74h0c2 6.23 4.84 12.37 6.16 18.8 3 14.45 5.36 31.44 3.88 46.17 3.48-15 1.67-48.7 1.4-59.83-.3-11.62-3.27-24.18-1.5-35.7.7-4.6 2.94-8.74 4-13.25 3.6-15 3.36-33.08 4.14-48.13 1-1.64 1.4-3.16.72-4.68-10-22.54-35.95-71.1-37.14-95.77-1.33-27.65 15.1-55.56 10.52-82.67-2.82-16.62-10.2-31.57-10.58-49.44-.37-17.06 5.84-25.57 11.08-41.44 1.57-4.76 2.9-9.5 4.07-14.22a190 190 0 0 1 1.09 25.73c-.5 13.46 1.7 26.8 1.78 40.15 0-16.82 2-33.2 2.73-49.9.7-16 4.07-32.5 2.6-48.53 0-.38-.07-.82-.12-1.3 4.5-16 11.1-30.84 25.43-43.63.42-.37.8-.76 1.2-1.13v1.17c.07 2.38 1.06 4.63 1.34 7 .23 1.9.3 3.75.67 5.64l2.58 13.26a46.87 46.87 0 0 1 1.28 7.14c.17 3.07-.6 6-1 9-.6 4.36-1.57 8.75-2.5 13.06-2.08 9.55.27 17.6 2.78 26.83 0 .18.3.08.26-.1a112.73 112.73 0 0 1-3-15.3c-.68-5.32.85-10 1.8-15.15.76-4.18 1.76-8.27 2.5-12.46.84-4.68.34-8.58-.57-13.22-1.42-7.3-1.9-14.93-3.55-22.14a22.65 22.65 0 0 1-.41-6.81 96.57 96.57 0 0 0 8.27-9.17 31.71 31.71 0 0 1 .94 4.76c1.16 11.45-.6 23.05.68 34.34 1 9.27 3.8 18.37 4.93 27.7 1.87 15.72 1.32 32.7 5.33 48 0-9-.4-17.94-.66-27.08-.38-13.92 2.4-27.3 1.8-41.28-.57-13.67.08-28 .77-41.7a155.37 155.37 0 0 0-1.11-25.13c7.34-15 12.08-31.52 17.46-49.1 4.23-13.8 3.32-23.65 11.15-34.83.68-1 1.36-1.9 2-2.8-.23 7 .8 14.17 1.9 21.06 2.55 15.56-4.62 27.57-4.63 42.67 0 12 6.37 22.83 7 34.58.52 10.15-3.32 18.16-1.5 28.47.6 3.4 4.13 19.18 1.48 26.26a.88.88 0 0 0-.93.81l-.2 1.2a4 4 0 0 1-3.65 1.42c-6-.55-5.38-9.32-3.13-12.53-8 4.37-1.76 19.14 6.15 15.3a95 95 0 0 0-1 10.08c-.13 4.12 1.57 8 2 12.08a52.32 52.32 0 0 0 1 5.62 25.47 25.47 0 0 1-.48 10.67 67.53 67.53 0 0 0-1.56 15.26c0 .1.17.1.17 0 .15-5.9 1.57-11.22 2.52-17a38.61 38.61 0 0 0 .91-6.38c0-2.32-.93-4.6-1.13-6.9-.34-3.93-1.2-7.8-1.46-11.73-.2-2.9.84-5.9 1.22-8.73.22-1.62.34-3.27.46-4.9a14.14 14.14 0 0 0 1.06-1.19c4.8-6 2.73-15.94 1.73-22.67a64.58 64.58 0 0 1 .06-22.36c1.3 6 3.56 13.52 3.66 19.7 0-9.54.5-19.13-1.2-28.45-1.05-5.75-3-11.37-4.14-17-1.32-6.4.76-12.1.5-18.4-.22-5.45-1.6-10-.8-15.63.94-6.6 3.6-12.8 4.5-19.36 1.93-13.77 0-26.74 3.6-40.44-.14 6.44 1.32 13.23 1.8 19.7.58 8.1-.34 17.85 1.85 25.66-.18-11.9.32-24.1 1.18-36 .3-4.22 2.82-20.1.9-27.26l.8-1.7a147.81 147.81 0 0 0 2.88-6.9c.78 10.17 1.84 20.4 3 30.92.95 9 2.1 17.8 1 26.82-1.14 9.32-2.4 18.16-1.42 27.6 2.54 24.12-1.3 52.17 3.08 75.17l4.07-46.9c.67-6.8 1-14 1.53-21.23.48 3.23 1 6.47 1.7 9.75a73.68 73.68 0 0 1 1.44 13.1c.08 4.44-.68 8.82-.6 13.28.16 9.4.5 18.65 2.78 27.83.05.2.35.08.3-.12-2.17-9.66-2.32-19.52-2.18-29.38.06-4.47.88-8.8.86-13.3a84.12 84.12 0 0 0-1.24-13.21 151.6 151.6 0 0 1-2.15-19.59c.48-4.13 1.08-8.17 1.93-12 1.62-7.42 5.1-14.25 5.26-22 .13-6.15-1.48-12.3-1.6-18.52-.13-7.17 2.27-14.2.83-21.36a40.86 40.86 0 0 1-.64-14.28c3 12.13 7.5 24 7.75 36.93.3 16.65-.36 34.9 1.82 51.42.05-24.86 7.13-48.78 7.38-73.5.26-18.54 8.98-36.55 10.26-55.1.36-5.22 1.85-10.2 2.58-15.36l4.57-3.22c-.35.93-.67 1.87-1 2.85-2.4 8-1.77 15.7.47 23.65 1.18 4.2 2.7 8.34 3.4 12.65.78 4.75-.3 10-.67 14.82l-2.22 29.44c0 .15.2.2.22 0l2.83-31.14c.4-4 1.3-8.06 1.16-12.07s-1.4-8.14-2.53-12c-2.77-9.7-4-20.76 1-30.07 19.82-13.55 60-49.8 76-67.07zM1968.32 344c0-65.83-2.68-131.3-7-197-1.4-20.9-4.1-41-7.06-61.62-.93-6.48-14.9-99.7-19.7-94.88-1.5 1.5-417.58 6.9-417 6.76-.15.18 27.42 41.72 27.26 41.9a.42.42 0 0 0 0 .49c.4.7.77 1.42 1.15 2.14a6.46 6.46 0 0 0-.14 1.18 4.51 4.51 0 0 0 0 1.31 1.09 1.09 0 0 0 1.19.93 9.45 9.45 0 0 0-.72 6 1.07 1.07 0 0 0 1.08.68 2.71 2.71 0 0 0 2.14-1.24 1 1 0 0 0 .18-.5 119.73 119.73 0 0 1 4.74 15c1.1 4.47 2.45 8.8 3.7 13.23a11.85 11.85 0 0 0 4.45 6.81c3.4 2.73 7 4.64 9.63 8.26a34.48 34.48 0 0 1 5.08 11.79 159.12 159.12 0 0 0 3.84 12.84c1.26 3.67 2.15 7.93 4.44 11.12a21 21 0 0 0 2.48 2.79c.7 13.7 2.1 27.4 3.6 41.58.92 8.7 2 17.17 1 25.86-1.1 9-2.33 17.5-1.37 26.6 2.45 23.24-1.24 50.27 3 72.45l3.92-45.2c.65-6.54 1-13.5 1.48-20.46.45 3.12 1 6.24 1.63 9.4a70.26 70.26 0 0 1 1.39 12.62c.08 4.28-.66 8.5-.58 12.8.15 9.07.48 18 2.68 26.8 0 .2.34.1.3-.1-2.1-9.3-2.23-18.8-2.1-28.3.06-4.32.85-8.5.83-12.8a81.51 81.51 0 0 0-1.1-12.76 146.24 146.24 0 0 1-2-18.87c.46-4 1-7.87 1.85-11.6 1.57-7.15 4.92-13.74 5.07-21.2.13-5.93-1.42-11.87-1.53-17.85-.12-6.92 2.2-13.7.8-20.6a38.84 38.84 0 0 1-.93-8.4l2 .9c2.65 9.54 5.63 19.06 5.82 29.32.28 16-.35 33.63 1.75 49.56 0-24 6.87-47 7.1-70.83 0-.82.06-1.64.1-2.46 1 .3 2 .63 3 1 7.38 2.9 10.18 11.83 16.45 16.43 6 4.43 12.6 5.18 19.77 4 3.13-.5 7.4-1.53 9.85 1.1 1.06 1.14 1.75 2.77 2.72 4a65.58 65.58 0 0 0 8.27 8.79 71.24 71.24 0 0 1 7.69 8.36c.72 8.73 1.62 17.52 2.57 26.52.9 8.68 2 17.17.95 25.85-1.1 9-2.33 17.5-1.37 26.6 2.45 23.24-1.24 50.27 3 72.45l3.92-45.2c.65-6.55 1-13.5 1.48-20.46.46 3.12 1 6.24 1.63 9.4a69.36 69.36 0 0 1 1.39 12.62c.08 4.28-.65 8.5-.58 12.8.16 9.07.48 18 2.68 26.82 0 .2.34.08.3-.1-2.1-9.3-2.24-18.8-2.1-28.32.06-4.3.85-8.5.83-12.8a81.61 81.61 0 0 0-1.1-12.76 147.68 147.68 0 0 1-2-18.86c.3-2.7.72-5.36 1.18-8a5.47 5.47 0 0 0 .41.71c1.85 2.7 7 4.44 13 5.8.07.54.1 1.08.18 1.6v-1.56c3.83.86 8 1.57 11.92 2.3 0 .25-.16.33-.43.17-2.46 9.76-1 20.07.6 29.88 2.45 15-4.46 26.57-4.47 41.12 0 11.58 6.14 22 6.73 33.33.5 9.78-3.2 17.5-1.44 27.44.6 3.3 4 18.48 1.43 25.3a.84.84 0 0 0-.9.78l-.18 1.16a3.89 3.89 0 0 1-3.52 1.37c-5.8-.54-5.18-9-3-12.08-7.7 4.2-1.7 18.45 5.94 14.75a90.68 90.68 0 0 0-1 9.71c-.13 4 1.5 7.74 1.93 11.64a51.54 51.54 0 0 0 .93 5.42 24.67 24.67 0 0 1-.46 10.29 65.53 65.53 0 0 0-1.51 14.7.09.09 0 0 0 .17 0c.15-5.7 1.5-10.8 2.43-16.36a38 38 0 0 0 .87-6.15c0-2.24-.9-4.42-1.08-6.66-.33-3.8-1.16-7.53-1.4-11.3-.18-2.8.8-5.68 1.17-8.42.2-1.56.33-3.14.45-4.73a13 13 0 0 0 1-1.14c4.62-5.76 2.63-15.36 1.66-21.85a62.63 62.63 0 0 1 .06-21.55c1.26 5.83 3.43 13 3.53 19 0-9.2.5-18.43-1.16-27.4-1-5.55-2.87-11-4-16.4-1.27-6.16.73-11.65.5-17.74-.22-5.25-1.55-9.66-.78-15.06.92-6.35 3.47-12.34 4.35-18.67 1.8-12.85.1-25 3.17-37.72l.3.12c.07 5.8 1.3 11.84 1.7 17.6.56 7.8-.32 17.2 1.8 24.73-.18-11.5.3-23.22 1.14-34.7.07-1 .28-2.75.52-4.87 5.76 3.56 6.27 5.63 12.33 12.72 9.65 11.28 17.52 16.12 31.22 23.8 13.38 7.5 20.5 10.2 25.86 23.83 5 12.8 5.78 28.68 10.54 41.8 6.7 18.45 10 37.83 14.18 57.06 5.32 24.64.82 34.74-6.4 58.9-10.92 36.5 22.9 70.65 26.46 108.1 3.5 37 11 75.45 8.52 112.72-2.72 41.2-21 81.54-10.4 122.85 19 73.9 1.6 143.77 1.5 218.2 0 13.4-2.15 29.15 8.6 34.52 6.43 3.2 31.2-.9 39.73-.13 9 .8 17.94 2.2 26.93 2.2 2.93-46.7 12.4-92.2 12.6-139.53.26-64-2.94-128.2 2.84-192.15 6.36-70.47 18.05-139.48 18.24-210.54l-.2-203.62z"/></g></svg>