<svg xmlns="http://www.w3.org/2000/svg" xmlns:xlink="http://www.w3.org/1999/xlink" viewBox="0 0 1920 1080"><style>.B{isolation:isolate}.u{mix-blend-mode:darken}</style><defs><clipPath id="A"><path d="M0 0h1921v1080H0z" fill="none"/></clipPath><radialGradient id="B" cx="1051.08" cy="989.13" r="925.41" gradientTransform="translate(-342.86) scale(1.23 1)" xlink:href="#k"><stop offset="0" stop-color="#713228"/><stop offset="1" stop-color="#322a42"/></radialGradient><linearGradient id="C" x1="951.93" y1="191.28" x2="951.93" y2="312.76" xlink:href="#k"><stop offset="0" stop-color="#b8daf2" stop-opacity=".5"/><stop offset="1" stop-color="#b5d4eb" stop-opacity="0"/></linearGradient><linearGradient id="D" x1="966.141" y1="147.172" x2="944.574" y2="806.396" xlink:href="#C"/><linearGradient id="E" x1="1016.204" y1="140.97" x2="1162.592" y2="790.799" xlink:href="#C"/><linearGradient id="F" x1="939.346" y1="144.585" x2="790.082" y2="820.991" xlink:href="#C"/><radialGradient id="G" cx="1025.39" cy="230.16" r="577" gradientTransform="translate(-194.27) scale(1.15 1)" xlink:href="#k"><stop offset="0" stop-color="#7f4032"/><stop offset="1" stop-color="#322a42"/></radialGradient><linearGradient id="H" x1="150.322" y1="368.301" x2="204.024" y2="432.345" xlink:href="#k"><stop offset="0" stop-color="#b8daf2"/><stop offset="1" stop-color="#4a363d"/></linearGradient><linearGradient id="I" x1="109.938" y1="419.493" x2="160.214" y2="423.91" xlink:href="#k"><stop offset="0" stop-color="#4a363d"/><stop offset=".35" stop-color="#4c373d"/><stop offset="1" stop-color="#7f4032"/></linearGradient><linearGradient id="J" x1="111.839" y1="457.505" x2="161.976" y2="461.909" xlink:href="#I"/><linearGradient id="K" x1="185.31" y1="369.065" x2="215.962" y2="371.758" xlink:href="#k"><stop offset="0" stop-color="#7f4032"/><stop offset=".68" stop-color="#4a363d"/></linearGradient><linearGradient id="L" x1="223.286" y1="369.63" x2="281.93" y2="374.782" xlink:href="#K"/><linearGradient id="M" x1="163.307" y1="387.44" x2="459.002" y2="977.016" xlink:href="#C"/><linearGradient id="N" x1="204.333" y1="358.099" x2="643.14" y2="859.253" xlink:href="#C"/><linearGradient id="O" x1="1648.009" y1="268.734" x2="1603.094" y2="346.544" xlink:href="#H"/><linearGradient id="P" x1="1700.307" y1="315.403" x2="1647.898" y2="329.45" xlink:href="#I"/><linearGradient id="Q" x1="1705.378" y1="356.005" x2="1653.115" y2="370.014" xlink:href="#I"/><linearGradient id="R" x1="1611.108" y1="276.057" x2="1579.156" y2="284.621" xlink:href="#K"/><linearGradient id="S" x1="1571.008" y1="283.738" x2="1509.878" y2="300.124" xlink:href="#K"/><linearGradient id="T" x1="1637.828" y1="291.415" x2="1434.666" y2="970.735" xlink:href="#C"/><linearGradient id="U" x1="1583.438" y1="263.893" x2="1215.287" y2="874.595" xlink:href="#C"/><radialGradient id="V" cx="813.94" cy="939.41" r="158.47" gradientTransform="matrix(1, 0, 0, 1, 0, 0)" xlink:href="#G"/><radialGradient id="W" cx="1104.33" cy="991.93" r="112.82" gradientTransform="matrix(1, 0, 0, 1, 0, 0)" xlink:href="#G"/><linearGradient id="X" x1="677.67" y1="978.7" x2="801.03" y2="978.7" xlink:href="#k"><stop offset="0" stop-color="#b5d4eb" stop-opacity="0"/><stop offset="1" stop-color="#9cd1f1"/></linearGradient><linearGradient id="Y" x1="1009.807" y1="1020.703" x2="1089.904" y2="1024.354" xlink:href="#X"/><linearGradient id="Z" x1="1292.99" y1="1039.5" x2="1352.1" y2="1042.96" xlink:href="#X"/><radialGradient id="a" cx="262.2" cy="975.39" r="83.32" gradientTransform="matrix(1, 0, 0, 1, 0, 0)" xlink:href="#G"/><linearGradient id="b" x1="397.69" y1="1032.1" x2="462.6" y2="1032.1" xlink:href="#X"/><linearGradient id="c" x1="175.37" y1="999.22" x2="267.58" y2="999.22" xlink:href="#X"/><radialGradient id="d" cx="1290.46" cy="123.35" r="62.18" gradientTransform="translate(0 -54.52) scale(1 1.37)" xlink:href="#G"/><radialGradient id="e" cx="555.44" cy="111.58" r="101.44" gradientTransform="matrix(1, -0.04, 0.03, 1.28, -0.23, 59.61)" xlink:href="#G"/><linearGradient id="f" x1="552.96" y1="363.82" x2="552.96" y2="169.18" xlink:href="#k"><stop offset="0" stop-color="#9cd1f1"/><stop offset="1" stop-color="#b5d4eb" stop-opacity="0"/></linearGradient><radialGradient id="g" cx="1328.33" cy="160.86" r="87.5" gradientTransform="translate(0 -54.52) scale(1 1.37)" xlink:href="#G"/><linearGradient id="h" x1="1324.99" y1="341.39" x2="1324.99" y2="162.96" xlink:href="#f"/><radialGradient id="i" cx="5064.95" cy="385.94" r="62.18" gradientTransform="matrix(-0.99, -0.17, -0.13, 1.27, 5567.72, 468.25)" xlink:href="#G"/><linearGradient id="j" x1="492.61" y1="240.11" x2="492.61" y2="104.95" xlink:href="#f"/><linearGradient id="k" gradientUnits="userSpaceOnUse"/></defs><g class="B"><g><g clip-path="url(#A)"><path d="M2.78 89.43h1913.7v991.72H2.78z" fill="url(#B)"/><g fill="#1a1226"><path d="M42.76 791.57c26.35-90 104.34-170.28 190.16-236.2a898.08 898.08 0 0 1 172.26-104c45.8-21 94.23-42.78 146.43-54.37-40.9 12.85-81 27.7-117.13 46.8-50.6 26.72-108.43 60.8-142.65 99.4 35.22-18.1 66.74-38.55 104.14-54.85A693.61 693.61 0 0 1 469 460.85c13.54-4.16 30.4-11.6 45.44-11.68-6.5 5.47-17.6 8.2-26.28 11.66-18.4 7.36-35.38 16.07-52.35 25.06-56.73 30-108.84 66.1-152.54 106-63 57.57-114.5 126.62-139.62 198.37 15.24-18.2 24.3-38.4 40.47-56.54 34-38.13 74.5-72.63 119-104.53a927.77 927.77 0 0 1 136.47-81.68c20.26-9.8 44.4-24 68.72-26.93-30.67 20.44-65.48 37-95.68 58.2-53.8 37.72-102 82.17-137.78 130-39.66 53.1-70 106.23-88.46 164.9 19.53-42 44.78-93.44 94-122.66-5.23 16.2-20.7 32.43-28.74 48.18-9.78 19.2-17.14 38.8-25.57 58.28 8.3-7.66 11.34-19.45 17.65-28.35 17-24.05 37.68-46.73 59.93-68.38 32-31.15 72.65-71.63 121-90.53-15.45 18.32-36.4 33.86-52.6 51.88a542.26 542.26 0 0 0-57.4 75.37c-25.2 40.3-47.47 86.5-51.82 131.1 11.2-8.06 14.53-24.6 20.8-35a607 607 0 0 1 62.83-85.9c31.68-36.4 70.16-81 117.74-107.74-42.68 47.7-82.75 95.87-109.6 149.63-22.24 44.52-33.42 89.42-39.5 136.27-3.14 24.25-6.15 49.28-5.94 73.62 0 4.9 6.06 15.4 4.16 20-3.84 9.22-34.4 8.72-46.7 9.4-43.13 2.36-86.67 3.7-129.9 3.83l-59.23.84c-9.7.3-26.76 3.6-35.95.8-8.26-2.5-8.84-7-10.75-13.37-7.54-25-5.5-52.2-7-77.56-3.1-53.93 3.9-108.6 7.32-162.53 1.32-20.18 7.88-37.78 11.64-49.3z" opacity=".75"/><path d="M64 660.42c12.7-37.75 51.37-70.57 85.47-99.46 55.58-47.1 120.34-90.18 190-126 62.25-32 129.36-57 198.94-79.4 44.2-14.2 90-24.1 134.53-37.35-12.7-1-26.47 2.5-38.77 4.6-27.45 4.7-55.06 10-82.16 15.66-44.4 9.27-86.7 24.46-131.64 32C555 311 710.7 277.7 866.93 265c-46.36.8-92.84.3-139.1 2.95a1402.58 1402.58 0 0 0-239.49 34.85c-78.34 18.33-156.7 39.64-229.3 68.1-29.68 11.64-58.63 25.14-86.6 38.85-19.06 9.35-37.47 21.62-57.57 29.57 9.14-9.16 25.6-17.4 37.84-25.3 36.63-23.6 76.2-43.77 117.22-63.12 57.86-27.3 119.5-47.72 180.27-70.36-109.1 21.58-220.54 47.32-317 91.18-16.8 7.65-56.4 18.52-66 32.1-3.42 4.84-2.12 14.7-2.9 20.13-1.92 13.22-3.1 26.43-4.34 39.7C55.18 515.85 44.12 567 37.8 619c-2.53 20.77-6.35 44.44-.14 64.55 8.47-4.63 17.17-14.24 26.34-23.13z"/><path d="M337.14 1086.65C337.08 981.8 406.37 887.28 486 803.08 468 824 452.33 845.22 439.26 868c-17.08 29.8-46.42 83.6-40.92 92.24 3.64-25.17 71.86-101.9 87-115.7 6.8-6.17 14.32-15.08 24.32-18.48C444.4 898.6 396.84 984.27 396.82 1072c0 6.16 1.37 8.63-4.23 12-12.24 7.24-38.44-1.27-55.45 2.65zm7.96-149.47c37.13-94.5 140-200.13 166.33-228.93 28.8-31.5 64.05-56.77 99.46-84 30.1-23.2 65.37-48.68 104.1-64.2-25.8 19.45-55.18 36.6-78.45 57.88 48.14-24 88.87-60.08 144.93-75.23-67.72 35.5-130.3 80.18-189.17 123.12-26.2 19.1-66.85 37.75-83.35 61.48 9-.84 16.34-7.4 25.42-7.28-1.53 2.53-28.7 26.46-36.75 33.94C440.57 807 377.23 871.9 345.1 937.18zM373 739.5c45.28-48.67 90.7-92.8 151-132.18 33.35-21.78 73.77-39.53 105-62.76-24.63 6.08-49.57 20.28-70.3 31.1-27.88 14.57-56.7 29.4-82 46.2 34.88-28.17 76.05-54.45 117.6-77.18 25.37-13.87 50.76-27.58 77-40.6 16.18-8.05 35.46-15.92 49.33-26-32.66 3-68.32 22.24-97 32.86-44.1 16.33-87.86 36.66-124.15 61.25-35.93 24.35-78.36 56.7-93.5 91.82 11.46-9.2 27.2-19.13 42.6-24.44-27.2 17.86-46.3 47.12-62.3 71-5.34 8-9.37 14.7-12.26 23.2-.78 2.16-1.66 9.75-1 5.74z" opacity=".5"/><path d="M483 1092.44c0-16.48.48-32.48 3.46-48.88 4.1-22.68 6.47-54.9 22.95-74.93-2.58 16.16-2.2 33.43-.95 49.67 9.4-26.14 11.22-51.8 24.7-77.77 10.92-21 21.42-47.63 41.25-65.23-11.87 32.58-25.75 64.43-34.5 97.8-7 26.77-5.12 54.5-11.63 81 10.83-33 27.52-61.9 50.14-91.86-16 39.66-22 81.47-28 122.36-18.7-.25-45.58-.6-67.42 7.83zm-14.58-152.36c17.54-42.87 40.75-82.5 75.86-119.52 16.27-17.16 33.56-33.68 53.4-48.74 6.2-4.7 15.44-13.65 23.4-15.32-40.88 38.74-79 80.45-111 123.4-12.28 16.5-38.7 40-41.66 60.2z" opacity=".35"/><path d="M1851.7 791.57c-26.35-90-104.34-170.28-190.16-236.2a897.77 897.77 0 0 0-172.26-104c-45.8-21-94.22-42.78-146.43-54.37 40.9 12.85 81 27.7 117.13 46.8 50.6 26.72 108.44 60.8 142.66 99.4-35.23-18.1-66.74-38.55-104.15-54.85a692 692 0 0 0-73.06-27.48c-13.54-4.16-30.4-11.6-45.43-11.68 6.48 5.47 17.6 8.2 26.27 11.66 18.4 7.36 35.38 16.07 52.35 25.06 56.73 30 108.85 66.1 152.54 106 63 57.57 114.52 126.62 139.63 198.37-15.25-18.2-24.3-38.4-40.48-56.54-34-38.13-74.48-72.63-119-104.53a928.18 928.18 0 0 0-136.46-81.68c-20.26-9.8-44.42-24-68.72-26.93 30.66 20.44 65.48 37 95.67 58.2 53.8 37.72 102 82.17 137.78 130 39.67 53.1 70 106.23 88.46 164.9-19.53-42-44.78-93.44-94-122.66 5.23 16.2 20.7 32.43 28.74 48.18 9.78 19.2 17.14 38.8 25.56 58.28-8.3-7.66-11.34-19.45-17.64-28.35-17-24.05-37.68-46.73-59.94-68.38-32-31.15-72.65-71.63-121-90.53 15.45 18.32 36.4 33.86 52.6 51.88a542.18 542.18 0 0 1 57.39 75.37c25.2 40.3 47.47 86.5 51.82 131.1-11.18-8.06-14.53-24.6-20.8-35a606.24 606.24 0 0 0-62.83-85.9c-31.68-36.4-70.15-81-117.74-107.74 42.68 47.7 82.76 95.87 109.6 149.63 22.2 44.45 33.4 89.35 39.46 136.2 3.14 24.25 6.15 49.28 6 73.62 0 4.9-6.06 15.4-4.17 20 3.84 9.22 34.4 8.72 46.7 9.4 43.13 2.36 86.67 3.7 129.9 3.83l59.23.84c9.7.3 26.76 3.6 36 .8 8.25-2.5 8.84-7 10.75-13.37 7.53-25 5.5-52.2 7-77.56 3.1-53.93-3.9-108.6-7.32-162.53-1.38-20.1-7.87-37.7-11.67-49.24z" opacity=".75"/><path d="M1830.5 660.42c-12.7-37.75-51.36-70.57-85.46-99.46-55.6-47.1-121-90.18-190.7-126-62.25-32-128.7-57-198.28-79.4-44.2-14.2-90-24.1-134.52-37.35 12.68-1 26.47 2.5 38.76 4.6 27.46 4.7 55.06 10 82.17 15.66 44.4 9.27 86.7 24.46 131.63 32C1339.53 311 1183.78 277.7 1027.54 265c46.36.8 92.85.3 139.1 2.95a1402.44 1402.44 0 0 1 239.49 34.88c78.36 18.33 156.7 39.64 229.3 68.1 29.67 11.64 58.62 25.14 86.6 38.85 19.06 9.35 37.48 21.62 57.57 29.57-9.13-9.16-25.6-17.4-37.84-25.3-36.63-23.6-76.2-43.77-117.22-63.12-57.85-27.3-119.5-47.72-180.27-70.36 109.1 21.58 220.54 47.32 317 91.18 16.82 7.65 56.4 18.52 66 32.1 3.42 4.84 2.12 14.7 2.9 20.13 1.92 13.22 3.1 26.43 4.34 39.7 4.82 52.2 15.88 103.33 22.2 155.32 2.52 20.77 6.34 44.44.13 64.55-8.5-4.62-17.2-14.23-26.36-23.12z"/><path d="M1549.38 937.18c-37.13-94.5-140-200.13-166.33-228.93-28.8-31.5-64.06-56.77-99.47-84-30.12-23.18-65.36-48.66-104.06-64.18 25.8 19.45 55.18 36.6 78.44 57.88-48.13-24-88.86-60.08-144.93-75.23 67.72 35.5 130.3 80.18 189.18 123.12 26.2 19.1 66.85 37.75 83.34 61.48-9-.84-16.33-7.4-25.42-7.28 1.54 2.53 28.7 26.46 36.75 33.94 57.02 53.02 120.36 117.93 152.5 183.2zm-27.85-197.68c-45.34-48.67-90.76-92.8-151.06-132.18-33.35-21.78-73.77-39.53-105-62.76 24.62 6.08 49.57 20.28 70.3 31.1 27.9 14.57 56.7 29.4 82 46.2-34.88-28.17-76-54.45-117.6-77.18-25.36-13.87-50.76-27.58-77-40.6-16.17-8.05-35.46-15.92-49.32-26 32.66 3 68.3 22.24 97 32.86 44.1 16.33 87.86 36.66 124.15 61.25 35.93 24.35 78.36 56.7 93.5 91.82-11.45-9.2-27.2-19.13-42.6-24.44 27.2 17.86 46.3 47.12 62.3 71 5.34 8 9.36 14.7 12.26 23.2.77 2.16 1.65 9.75 1.05 5.74z" opacity=".5"/><path d="M1411.47 1092.44c0-16.48-.5-32.48-3.46-48.88-4.1-22.68-6.47-54.9-23-74.93 2.6 16.16 2.2 33.43 1 49.67-9.4-26.14-11.22-51.8-24.7-77.77-10.92-21-21.42-47.63-41.24-65.23 11.87 32.58 25.75 64.43 34.5 97.8 7 26.77 5.1 54.5 11.62 81-10.83-33-27.52-61.9-50.13-91.86 16 39.66 22 81.47 28 122.36 18.7-.25 45.57-.6 67.4 7.83zm14.58-152.36c-17.53-42.87-40.74-82.5-75.86-119.52-16.27-17.16-33.56-33.68-53.4-48.74-6.2-4.7-15.45-13.65-23.4-15.32 40.9 38.74 79 80.45 111 123.4 12.3 16.5 38.7 40 41.66 60.2z" opacity=".35"/></g><path d="M1914.63 425.26c-4.9-53.7 1.64-108.9-8.88-162.22-11.93-60.4-37.3-85.6-108-101.5-181.2-40.77-382.53-38.24-568.54-41.9-237.7-4.68-470.48-9.38-707.77 7.7-147.66 10.62-296.3 25.7-443.1 42.7-30.2 3.5-47.68 2-45.46 29 5.6 68.15 12.53 131.78 6.48 200.72-14.22 162-4.77 324.58-20.88 486.4-4.23 42.42-6.3 85-7 127.5-.42 24.14-8.16 48.86-6 72.9 52.1 20.38 121.52 3.93 177.34 3.7 25.1-.1 61 5.3 84.8 0-3.72-3.16-7.78-6-6.1-5.1-33.94-41.8-63.95-95-85.2-142.26-21.9-48.72-9.45-95-6.2-144.58 6-91.8 6.1-178.18 65-259.43 19-26.22 43.88-49 67-72.6 25.58-26.1 49.84-57.52 84.54-76.08 20.1-10.74 42.05-17.08 62.48-27 14.1-6.8 29.87-15.86 45.87-16.6 1.1 16.8 2.35 33.46 4.37 50.27 1.8 15-2.43 35.25 4.17 49-1.35-32.77 5.77-65.08 16.67-96 9.13 11.07 10.1 28 19.93 39.94-.83-10.13-2.2-34.1 3.87-42.62 5.65-7.93 24.8-9.58 36.65-11 23.82-2.86 48.6-7.75 72.56-9.38 21.5-1.46 41.08 5.52 61.74 9.05 11.8 2 28.3 3.3 39.1 7.48 17.26 6.68 21.54 21.2 36.9 30.84 15.53 9.76 25.48 4.38 42.56 7.73 13.63 2.67 19.55 9.24 37.72 8.36 21.63-1.06 35.8-9.42 45.94 5.45 10.4 15.24 2.4 37.5 13.35 53.44 3.4-16.05 8.76-54 24.76-65.18 10.05-7 24.06-.28 34.16 1 13.73 1.7 34.84-1.17 44.75 8 15.8 14.6 5.16 48.77 11.73 65.18.56-16 6.9-55.65 25.8-65.06 14-6.95 47-3 62 .34 12.25 2.7 26.78 22.86 38.76 36.72 5.74 6.63 17.92 6 22.43-1.25 12-19.35 46-42.74 64.92-41.82 11.8.58 17.25 9.26 28.47 11.6 8.55 1.78 18.24.1 26.85 1.44 23.4 3.67 37.15 7.65 45.85 26.27 26.14 56 38.42 116 39.14 176.27l4.06 180.55c.36 61.22-15.7 117.5-35.66 175.92-14.2 41.6-44.88 77-69.77 112.3 26-7.35 67.12-1.18 95.07.2 53.3 2.6 105.33 2.92 158.8 3.44l170.86 1.62c46.78 1.4 98.27-1 144 4.56.33-20.72 6.53-41.4 6.68-62.38.3-47.43.7-90 10-137.25 19.3-98.43 34.82-195.07 34.53-295.18-.12-53.54.8-107.8-4.07-161.13zM161.93 608.9c-9.5 75.48-13.8 153.06-26 228.86-4.8 30.08 6.56 227.92-46.3 220.34-26.36-3.77-23.83-52.25-25.48-67.17-3-26.8-8.4-53.3-7-80.25 1.65-32.87 12.32-65.34 12.8-98 .45-31.26-5.1-58.43-.1-90.48 4.55-29.13 3.8-60.6 10.57-89.06 5.26-22.16 22.44-56.43 40.37-73.1 2.44 24.92-2.42 63.5 8.6 85.78 6.17-27.55 2.86-65.4 16.2-90.87 3.4-6.58 18.4 37.96 16.34 53.96zM1751.9 692c-6.35 89.42-16.1 179.78-35.55 268.14-4.14 18.8-32.72 107.4-61.77 64.92-5.67-8.3-29.93-73.12-42.42-40.4-13.56-27.16-1.44-64.9-16.78-90.32-12.07 8.44-10.63 28.63-12.2 41.1-3.15 25-3.9 76.2-26.5 96.2-28.56 25.25-74.4 6.9-91-17.66-35-51.64-35.8-111.45-39-168.86-4.2-75.66-.7-148.9 14.58-223.9 13.16-64.6 29.74-147.67 72.75-203.72 11.62-.18 28 8.67 34.76 15.87 14.78 15.7 7 39.28 16 55.3 5.3-8.56 10.1-29.42 20-32 10.25 30.4 13.83 65.9 15 98.22 22.5-31.74 4-78 24.5-110.12 14.65 8.63 28.45 19.8 46.66 24.86 22.94 6.36 44 4.46 56.07 24.06 35.7 58.15 29.3 135.94 24.87 198.34z" opacity=".35" fill="#111017"/><path d="M42.5 174.87h1818.84v144.46H42.5z" fill="url(#C)"/><path d="M956.02 147.5l-84.08 668.47 144.47 8.38L973.5 145.9l-17.47 1.62z" opacity=".5" fill="url(#D)"/><path d="M979.24 147.73l170.17 662.2 51.97-18.36-214.83-645.32-7.3 1.48z" opacity=".7" fill="url(#E)"/><path d="M942.66 143.7L712.74 820.73 864.2 834.2l85.72-688.72-7.25-1.76z" opacity=".7" fill="url(#F)"/><path d="M52.58 328.86c13.94-16.57 50-27.73 70.57-37 23.74-10.7 34.82-13.92 59.22-13 13.65.54 26.07-2.5 39.44-3.63 23.62-2 46 8.28 68.7 7.5 32-1.1 55.73-32.48 88.27-23.73 30.87 8.3 66.45 11.35 96.56-.17 25-9.57 43.64-24.06 71.6-29.28 27.5-5.15 55.07-13.3 83-17.47 16.63-2.48 27.64-5.75 42.4 1.7 24.22 12.23 33.92 16.6 63.67 16.56 25.8 0 51.53-2.26 77-.15 6.7.56 16-.07 22.23 1.57 12.13 3.23 12.82 9.53 22.84 15.7 17.75 10.92 49.1 8.73 70.27 9.63 31.85 1.36 49 2.2 76.7-10.7 17.33-8.08 49.17-17.38 67.8-11.33 9 2.94 14.06 11 24.94 12.92s22.6-1 33.25-3c21.86-4.15 43.57-1.1 64.07-4.93 27.18-5.08 42.63-25.56 73.24-23 26.95 2.28 51.38 2.86 78.7 2.87 24.13 0 28 6.52 48.07 14.25 28 10.8 55.45-4.28 83.66-6.56 19.54-1.58 36.4 4.83 55.12 8.72 9.72 2 21.26 2.34 30.4 6.13 11.87 4.93 19.06 15.08 31.1 19.36 28.52 10.14 60.78-7.13 89.9-.94 30.86 6.55 48.72 32 78.44 39.6 18.16 4.63 35.44-.4 53.83-1.4 21.64-1.18 45.8 3.33 67.13-.08 14.08-2.25 11.2 1.5 16.1-10.94 7.65-19.38 7.58-53.43 5.2-73.26-2.5-20.8-10.83-40-16.37-59.83-1.9-6.75.72-17.68-6.56-22-6.7-4-27.08 1.54-35.37 2.26-39 3.38-78.2 5.2-117.36 7.12-92.6 4.54-183.87 2.62-276.32-3.68-210.2-14.33-418.73 10-629 4-102.72-2.92-205.88-9.55-308.65-9.35-88.13.17-181.6-6-269 3l-124 11.18c-8.76.9-27.15.68-31.68 7.47-3.32 5 1.94 31.48 1.87 37.9-.2 16-2.86 31.06-7.3 46.48a390.45 390.45 0 0 1-20.07 54.48c-4.55 9.86-10.3 18.9-13.88 29.14 1.2 3.14 1.5-.06.26 5.9z" fill="url(#G)"/><path d="M57.7 264.7c15.38-14.1 75.4-11.2 99.8-13.43 30.33-2.76 60.68 3.78 91.05 3-9.8-4.34-17.84-13.17-26.2-19.6a239.14 239.14 0 0 0 43.7 13.43c22.5-16.4 78-15.95 105.27-11.8 13.4 2 25.5 10 37.75 11.7 11.94 1.65 39.47-2.5 51.4-6.07-22.05-13.53-48.15-21.1-69.83-34.83 26.1 6.17 55.18 9.13 80 18.64 18.74-21.44 42.53-9.8 66.27-11.93 16.3-1.47 32-8.78 48.7-10.33 16.47-1.53 33.1-1.6 49.7-3 18.77-1.6 34.58-1.44 51.56 4.15 7.62 2.5 16.1 8.48 24.35 9.37 15.18 1.65 29.3-8.62 44.54-6.07 15.5 2.6 14.54 7.36 32.95 3.8 33.4-6.46 72-7.83 104.1-17.35-13.08 7.56-28.8 10.68-43.52 15.18 15.42-.24 30.44 1.67 45.43 1.68-4.27 6.78-14.95 10.47-9.74 20.5 11.6 1.27 20.23 7.32 32.35 7.26 16.77-.08 37.18-1.2 53.87-3.8 9.48-1.48 21.13-3.42 29.85-7.8 13.8-6.94 21.88-20.8 37.25-26.34-3.7 6.52-8.1 13-10.06 20.26 14-.18 28.47-5.78 42.1-1.14-2.34-6.3-5.33-13.13-11.25-17.7 7.76 6.9 20.6 10 29 15.85 10.92 7.65 9.7 14 27.2 7.7-2.65-5.3-7.08-10.68-10-16.1 20.5 12.55 44.54 14.9 68.84 13.33 10.52-.67 22.2 1 32.38-.3 11.88-1.46 16.86-7.8 28.48-11.2 23.45-6.86 47.76.18 71.52-4.63 33.58-6.8 67.8-17.42 100.82-26.24-16.1 8.37-34.3 13.28-50.7 21.24 18.5-.73 35.25-9.6 54-9.2-9.88 4.9-17.67 12.64-28.24 16.47 20.13 11.1 27.05 15.3 53 5.82 10.8-3.95 17.32-10.18 29.35-11.73 9.12-1.17 18.86.48 28.07-.32 18.58-1.6 28-3.53 45 5.67 5.68 3.07 15.5 11.37 21.46 12.72 16.32 3.7 38.92-1 56.78 1.18 12.08-18.76 36.34-13 56.06-18.07-8.5-3.8-17.55-6.94-26.42-10.2 20.55.28 41.52 1.35 61.75-1.3 21.38-2.8 37.8-10.8 57.88-14 19.44-3.08 33.06-12.32 52.82-16.44 26.56-5.55 57.35-10 84.84-10.2.07-7.5 6.22-22.36.33-27.94-3.8-3.6-12.1-1.3-17.14-1.62-31.54-2.07 43.37-37.75 11.73-37.62-116.13.48-234-91.92-366.83-91.15C1400-5 796.63-11.6 665.48-8 557.56-5.1 295.4 6 187.62-1.27 109-6.6 172.66 111.9 94 115.4c-11.9 37.1-8.4 76.9-18.18 114.6-3 11.53-4.97 23.82-18.1 34.7z" fill="#1a1226"/><path d="M216.85 357.13c-7 4.9-17.68 18.67-24.86 26.8 27.8-14.2 59.24-25.86 91.05-26.42-15.32 5.13-34.9 18.75-46.88 30.27 9.1-2.47 20.07-3.6 29.66-2-30.52 19-86.37 69.4-115.66 88.44l12.78-27.88c-15.45 8.57-41.4 29.73-53.27 42.6 3.1-13.57 44.65-63.62 51-75.13-17.62 8.92-33.34 17.1-53.36 30.66 21.1-43.66 83.63-77.14 109.54-87.33z" fill="url(#H)"/><path d="M161.07 414l-12.5-16.5c-17 13.48-32.3 29.5-40.85 47.2 20-13.57 35.74-21.7 53.36-30.7z" fill="url(#I)"/><path d="M109 490.26c11.85-12.86 38.9-35.1 54.36-43.7l-12-18.58c-21.23 24.8-40.05 51.95-42.36 62.27z" fill="url(#J)"/><path d="M192.37 384.15c7.18-8.12 17.87-21.9 24.85-26.78a265.21 265.21 0 0 0-32.28 15.77c2.86 4.7 7.2 11.64 7.43 11z" fill="url(#K)"/><path d="M223.2 370.38L236.53 388c12-11.52 31.57-25.14 46.9-30.27-20.52.36-40.88 5.35-60.2 12.65z" fill="url(#L)"/><path d="M277.37 358l-5.94.56-5.92.77-5.9.9-2.94.54-2.92.55-5.85 1.28-5.8 1.4-5.76 1.58-5.72 1.75-5.67 1.9-1.33.48-.64.23h-.1l-3.55 1.3-5.55 2.2-5.48 2.38-5.42 2.5-10.2 4.08-1.24-2-1.44-1.8a19.47 19.47 0 0 0-1.52-1.77l-1.65-1.64-.9-.76c-.24-.24-.55-.4-.77-.66 10.65-6.4 28.7-15.37 31.4-16.5-2.76 1-19.23 8.64-32.66 15.95l-3.92 2-3.88 2.1-7.65 4.43c-5 3.05-10 6.3-14.72 9.73s-9.34 7.2-13.74 11.1a158.54 158.54 0 0 0-12.55 12.45 151.08 151.08 0 0 0-11 13.8l-2.44 3.68-2.35 3.74-2.22 3.8-2.1 3.9 2.2-3.8 2.36-3.73 2.45-3.63 2.58-3.58a149.3 149.3 0 0 1 11.25-13.48c4-4.26 8.2-8.36 12.6-12.2 2.48-2.2 5-4.3 7.62-6.3h0c-.3.73.4 1.7 1 2l.3.57 1.77 3.05c.57 1 1.25 2 1.9 3l2 2.9 2.15 2.76 1.67 2.06.63 1.45-8.23 11-1.27 1.47-.1-.13.08.15c-2.4 2.72-4.73 5.5-7.05 8.27q-4.1 4.95-8.1 10l-7.68 10.32c-1.25 1.74-2.45 3.52-3.67 5.27-.62.9-1.2 1.8-1.78 2.7l-1.75 2.7c-2.25 3.63-4.42 7.35-6.44 11.13-1 1.9-1.88 3.85-2.83 5.77s-1.15 4-2 6c.95-1.92 1.33-3.9 2.3-5.8a92.78 92.78 0 0 1 3.1-5.61 193.49 193.49 0 0 1 6.74-10.9l1.8-2.64 1.8-2.65 3.7-5.2c2.52-3.45 5.12-6.85 7.75-10.2l8-10 6.7-8c.05.08.1.17.15.25l.8 1.4 1.68 2.78c.53.94 1.17 1.82 1.74 2.73l1.77 2.7 1.88 2.6 1.42 2 .5.63 1.7 2.15a2 2 0 0 0-.11.2l-.54 1.08-11.63 27.34 12.18-27.15.26-1.17a.21.21 0 0 1 0-.06l.12.15.2.25.06-.24a.8.8 0 0 1-.07-.39l.1-1-1.08-1.94-.4-.7-.43-.7-.9-1.36-1.78-2.72-2-2.6c-.66-.85-1.28-1.73-2-2.54l-2.12-2.46-1.12-1.2a3 3 0 0 1-.25-.26l1.32-1.58 9.74-11.57-.33-.48-.74-1.47-.5-.73-.5-.67-1-1.4-2-2.85-2.24-2.74c-.7-.92-1.38-1.88-2.14-2.77l-2.2-2.74-.37-.44a.34.34 0 0 0-.16-.3 2.53 2.53 0 0 1-.32-.27l-.4-.5a.5.5 0 0 1-.08-.2.23.23 0 0 0 .13-.08l.05-.07a.35.35 0 0 0 0-.41.47.47 0 0 0-.27-.25l-.1-.12a189.41 189.41 0 0 1 5.58-4.21q7.08-5.16 14.58-9.76 3.76-2.3 7.58-4.45l3.85-2.13 4.62-2.47c.2.27.3.62.48.9l.55 1 1.12 2c.35.66.8 1.3 1.2 1.95l1.2 1.93 1.33 1.87.66.9v.06c.54-.3 1.1-.56 1.66-.8l-.13-.24 4.4-2.14 5.43-2.43 5.48-2.33 5.53-2.2 5.57-2.1 3.43-1.2v.1c.8 1.34 1.65 2.62 2.5 3.92l2.55 3.9 2.67 3.8 1.34 1.9.68.95.7.92 1.58 2a4.53 4.53 0 0 1 1.28-.1l-.12-.2c.3-.07.6-.14.92-.2l1.9-.3c1.26-.2 2.5-.33 3.77-.46s2.52-.2 3.78-.3 2.54-.1 3.8-.16l3.8-.15h3.86l3.83-.14 1.92-.12 1.9-.1-1.9-.24-1.92-.27-3.83-.37-.94-.06h-6.78c-1.3 0-2.56.2-3.85.35s-2.55.32-3.82.6a66.27 66.27 0 0 0-3.75.94l-1.83.6-.92.34-1.47-2.4-.62-1-.63-1-1.3-1.94-2.6-3.86-2.72-3.77c-.86-1.2-1.7-2.4-2.63-3.55l1-.35 5.66-1.84 5.7-1.67 5.7-1.6 5.77-1.44 5.8-1.32 2.9-.6 2.9-.6 5.85-1.1 5.88-.93 5.9-.85 5.93-.73z" fill="#b8daf2"/><path d="M154.53 392.6l245.16 627.55 130.96-61.6L169.1 382.84l-14.58 9.76z" opacity=".5" fill="url(#M)"/><path d="M175.04 381.72l465.6 500.7 36.9-40.94-496.78-464.55-5.72 4.8z" opacity=".7" fill="url(#N)"/><path d="M1569.23 270.14c8.26 3.87 22.07 16.42 31.14 23.66-31.94-9.86-67.23-16.36-100.88-11.1 17.1 2.6 40.26 13.35 55 23.3-10.06-.93-21.83-.1-31.65 3.36 35.7 14.46 103.86 57.27 138.25 72l-18.6-27c17.88 6.2 49.15 23.72 64 35.1-5.76-13.74-58.8-58.85-67.64-69.82 20.23 6.16 38.3 11.88 61.92 22.5-30.23-42.25-102.34-66.03-131.53-72z" fill="url(#O)"/><path d="M1638.53 319.88l10.14-19.75c20.37 11.08 39.5 25.15 51.77 42.24-23.6-10.62-41.7-16.37-61.9-22.5z" fill="url(#P)"/><path d="M1707.52 390.65c-14.87-11.38-47.5-29.86-65.37-36.06l9.2-21.8c26.95 22.2 51.8 47.4 56.18 57.86z" fill="url(#Q)"/><path d="M1600 294.12c-9.07-7.24-22.88-19.8-31.14-23.67a284.92 284.92 0 0 1 36.94 10.69c-2.13 5.48-5.42 13.6-5.8 12.98z" fill="url(#R)"/><path d="M1565 285.28l-10.8 21c-14.75-9.94-37.9-20.7-55-23.3 21.65-3.36 44.04-1.85 65.8 2.3z" fill="url(#S)"/><path d="M1505.56 282.16l6.37-.5 6.38-.28 6.4-.13h6.38l6.4.28 6.37.42 6.37.6 6.35.8 6.32 1 1.5.27.7.12h.12l.36.06 3.6.66 6.26 1.3 6.22 1.5 6.18 1.65 11.5 2.42.94-2.3 1.17-2.2a19.42 19.42 0 0 1 1.27-2.14l1.44-2 .8-1c.2-.3.5-.54.7-.84-12.4-4.8-33.1-10.92-36.15-11.6 3.1.56 21.87 5.56 37.37 10.8l4.52 1.4 4.47 1.5c3 1 5.93 2.13 8.88 3.26 5.87 2.3 11.66 4.8 17.32 7.55s11.18 5.86 16.54 9.18a168.12 168.12 0 0 1 15.52 10.82 160.18 160.18 0 0 1 14.16 12.52l3.26 3.4 3.16 3.5 3 3.6 2.92 3.7-3-3.6-3.18-3.5-3.25-3.37-3.38-3.3a158.4 158.4 0 0 0-14.35-12.16c-5-3.75-10.18-7.3-15.54-10.55a167.39 167.39 0 0 0-9.2-5.24v.06c.44.7-.1 1.87-.72 2.34l-.2.65-1.3 3.54c-.43 1.18-1 2.3-1.46 3.48l-1.54 3.42-1.77 3.32-.9 1.64-.47.83-.4 1.65 10.7 10.05 1.6 1.3c0-.05.06-.1.1-.15l-.06.17 9 7.42q5.23 4.47 10.4 9l10 9.47c1.64 1.6 3.24 3.26 4.85 4.9.8.8 1.58 1.66 2.37 2.5l2.34 2.54c3 3.4 6 6.93 8.84 10.55 1.4 1.8 2.7 3.7 4.05 5.56s1.95 4 3.18 5.92c-1.35-1.85-2.1-3.87-3.5-5.7s-2.8-3.62-4.3-5.35q-4.38-5.27-9.12-10.25l-4.76-4.92-4.88-4.8c-3.28-3.17-6.65-6.27-10-9.33l-10.27-9.12-8.52-7.25c-.05.1-.08.2-.12.3l-.58 1.63-1.26 3.25c-.4 1.1-.9 2.13-1.34 3.2l-1.36 3.18-1.5 3.1-.76 1.57-.37.8-.4.76-1.4 2.58.15.18.77 1 17.16 26.8-17.84-26.38-.5-1.18a.11.11 0 0 0 0-.07l-.1.2-.18.3a2.56 2.56 0 0 1-.11-.24.85.85 0 0 0 0-.42l-.3-1.07.8-2.25.3-.8.33-.8.7-1.6 1.38-3.2 1.6-3.1c.54-1 1-2.06 1.64-3.05l1.8-3 1-1.48c.08-.1.16-.22.22-.32l-1.68-1.43-10.53-8.83-1-.8-.93-.8.26-.56.68-1.52.4-.85.4-.85.84-1.67 1.6-3.38 1.76-3.3c.58-1.1 1.1-2.24 1.74-3.32l1.8-3.3.3-.53a.38.38 0 0 1 .11-.35 3.37 3.37 0 0 0 .28-.34l.35-.6a1.06 1.06 0 0 0 .05-.23.26.26 0 0 1-.15-.07l-.07-.05a.4.4 0 0 1-.13-.43.45.45 0 0 1 .24-.31c0-.05 0-.1.08-.15-2.2-1.18-4.4-2.32-6.65-3.4-5.6-2.76-11.36-5.3-17.18-7.6-2.92-1.15-5.86-2.24-8.8-3.3l-4.46-1.53-4.46-1.47-.86-.28c-.15.32-.2.7-.34 1l-.4 1.2c-.28.77-.56 1.55-.8 2.34a23.43 23.43 0 0 1-.92 2.27l-.92 2.27-1.06 2.2-.52 1.08v.07a17.06 17.06 0 0 0-1.89-.54l.1-.28-5-1.45-6.17-1.56-6.2-1.45-6.24-1.3-6.26-1.18-3.83-.64v.12c-.6 1.56-1.26 3.07-1.9 4.6l-2 4.58-2.12 4.5-1.07 2.25-.54 1.12-.56 1.1-1.3 2.45a4.57 4.57 0 0 0-1.37.12l.1-.24h-3.06c-1.37 0-2.7.1-4.07.2l-4 .38c-1.34.15-2.7.35-4 .53l-4 .55-2 .3-1 .16-1 .15-4.06.56-2 .22-2 .27 2-.6 2-.63 4-1.1 1-.24 1-.22 2-.4 4.08-.68c1.37-.2 2.73-.26 4.1-.35s2.76-.13 4.14-.06 2.76.15 4.13.3l2.05.3 1 .2 1.1-2.82.46-1.16.5-1.13 3-6.84 2.18-4.47c.7-1.4 1.36-2.84 2.12-4.23l-1.1-.18-6.3-.9-6.33-.7-6.32-.63-6.35-.47-6.37-.32-3.18-.08-3.18-.1-6.37-.07-6.37.1-6.37.2-6.4.32z" fill="#b8daf2"/><path d="M1641.48 296.06l-142.95 706.9-149.44-40.83 275.2-673.7 17.18 7.6z" opacity=".7" fill="url(#T)"/><path d="M1617.84 288.36L1219.1 902.1l-46.46-36.38 438.3-581.35 6.9 4z" opacity=".7" fill="url(#U)"/><path d="M659.52 1068.74c17.15-12.5 35.5-18.48 51.17-33.23 23-21.64 41.9-35.4 54.9-65.93 9.13-21.42 8.12-47.43 26-64.87 13.8-13.5 16.83 1.38 20.74 13.94 4.4 14.2 13.15 14.56 20.9 26.07 9.46 14.08 8.32 32 11.32 48.1 3.42 18.42 15.42 41.07 28.34 54.52 4.26 4.44 10.53 13.38 15.63 16.48 5.95 3.62 14.56 4.62 21.35 8.53 18.2 10.48 42 17.73 63.1 13 29.42-6.66 48.44-12.66 64.65-39.18 11.9-19.46 13.46-43.5 26.08-62.22 6.8-10.1 11.2-12 19-12.78 7.5-.77 25.42-3.2 31.93 2.12 10 8.2 5.63 33.28 24.47 31.1 5.93-.7 8.17-9.05 16.2-7 3.3.85 11 11.13 13.1 14.16 4.58 6.5 6.8 14.25 11.3 20.85 6.92 10.18 7.44 25.83 16.23 34.1 11.85 11.15 25.65 6 39.34 6.86 12.35.8 22 9.14 34.7 8.37 18.47-1.12 34.48-13.24 45.4-27.2 9.9-12.66 15.26-32.35 26.13-43.43 19.27-19.63 28.86 29.4 39.64 39.88 17.73 17.24 45.68 17.64 68.24 17.8 20.1.13 33.74-3 48.63-17.25 10.83-10.4 19.45-25.85 31.62-34.2 7.6 9.4 7.6 27.43 15.48 36.83 20.86 24.84 73.82 38.67 68.2 45.13-3.84 4.4-89.36-1.23-94.94-.94-25.6 1.33-51.45.23-77.08.23-80.54 0-161-1.27-241.48-2.2-94.8-1.08-189.34 10.85-284.13 10.66-68.53-.13-136.68-10.13-205.1-9.65-26.28.2-96.05 3.93-121.74-1.48-4.2-.92 47.34-10.17 70.68-27.18z" fill="#1a1226"/><path d="M803.46 904.46c-9.6 1.5-7.62 20.67-8.27 28.2-1 11.86-5 20.36-3.13 32.57a44.23 44.23 0 0 1-1.53 20.55c-2 7-5.75 15.48-2.2 22.65 3.83 7.72 12.53 9.58 15.07 18.7 2.38 8.6 1.18 18.45 6.87 26.1 6.92 9.3 20.74 9.92 31.3 10.74 9.24.72 27 3.84 35-1.77-5.77-16.8-20.16-28.5-25.9-44.52-2-5.7-2.63-8-7.77-8.88-4.25-.7-11.87 2.15-16.76 2.06a88.48 88.48 0 0 1-14.77-1.27c10.12 2.07 21.68-2.08 29.17-9.37-5.58 1.2-13.73 2-19 .23 18.6.07 16-17.7 15.33-30.27-.23-4.07-.46-17.86-4.3-20.4-4.33-2.88-17.33 3.77-24.1 3.3 8-1.22 13.42-7.2 16.88-13.74-5-.53-12.46-9.57-14.84-13.95-2.84-5.12-2.74-16.78-7.03-20.9z" fill="url(#V)"/><path d="M1073.67 983.16c7.58-9.86 28.37-15.26 38.27-6.35 9.6 8.66 5.62 24.36 20 30.3 11.24 4.65 18.93-8.65 26.57-2 5.06 4.42 12.35 19.22 14.35 25.24 1.22 3.67 3.73 30.63 1.4 31.88-8.48 4.6-14.73-23.53-18.72-27-9-7.68-28.22 4.1-39.5 3.1 7-5.8 15.8-12.8 17.94-22.42-4.9 6.83-15.7 12.45-23.72 14.4 4.36-6.37 12.15-10.53 14.6-18.6a18.06 18.06 0 0 1-8.88 1.33c-6.37-.92-3.92-3.76-7.3-6-9.28-6-20.94 8.13-33.43 6.84 4.2-5.58 12.88-10.06 18.07-15.85-4.27 2.75-8.6 5.46-13.94 4.45 3.84-4.55 10.63-9.5 11.26-16.1a39.75 39.75 0 0 1-9.6 3.71c.77-2.36 3.2-5 4.76-7.07-3.1.4-7.8 2.2-12.14.16z" fill="url(#W)"/><path d="M677.67 1057.3q13.17-10.07 25.9-20.67 12.84-10.44 25.23-21.42c8.3-7.22 16.42-14.7 23.3-23.15a92.27 92.27 0 0 0 9.16-13.43 99 99 0 0 0 6.54-14.9l.9-2.63a166.14 166.14 0 0 0 2.21-7c1.76-5.85 3.75-13.78 5.94-21.72 1.12-4 2.3-7.93 3.54-11.6l1.92-5.3a39.07 39.07 0 0 1 2.2-4.67 30.32 30.32 0 0 1 4.56-6.38 20.64 20.64 0 0 1 1.67-1.54l.63-.52a11.56 11.56 0 0 1 7.25-2.22 5.15 5.15 0 0 1 1.85.42c.4.17.57.32.55.47s-.23.28-.62.4-.94.2-1.64.43a13.16 13.16 0 0 0-5.44 3c-3.9 3.1-6.53 7.94-8.36 12.84-1.86 5.06-3.4 10.26-4.84 15.5-2.87 10.5-5.27 21.23-9 31.68a101.13 101.13 0 0 1-7 15.34 94.73 94.73 0 0 1-9.66 13.79c-7.2 8.6-15.5 16.07-23.95 23.23s-17.15 14-25.94 20.7-17.8 13.1-26.9 19.33z" fill="url(#X)"/><path d="M1092.37 970.74a20.67 20.67 0 0 0-11 1 28.7 28.7 0 0 0-9.38 5.76 35.72 35.72 0 0 0-7 8.41 59.59 59.59 0 0 0-4.73 10c-2.7 6.93-4.53 14.26-7.1 21.46a126.65 126.65 0 0 1-9.66 20.8l-1 1.65c-.66 1.05-1.6 2.57-2.8 4.3a120.65 120.65 0 0 1-9.57 12.33 129.84 129.84 0 0 1-11 11c-3.2 2.8-5.48 4.53-5.48 4.53-3.62 2.33-5.7 3-6 2.58s1.06-2.16 4-5.1a121.37 121.37 0 0 0 28.86-33.16 123 123 0 0 0 9.77-20c2.63-7 4.6-14.3 7.5-21.4a63 63 0 0 1 5.22-10.22 37.84 37.84 0 0 1 7.82-8.54 30 30 0 0 1 10.23-5.26 21.06 21.06 0 0 1 11.32-.16z" fill="url(#Y)"/><path d="M1354.13 1008.37c-.38-.45-.8-.2-.73-1.14-12.7-5.14-23 23.5-27.66 32-8.77 16.14-18.9 27.44-34.86 36.38 5.2-3.54 11.25-5.52 16.27-9.72s9.35-9.8 13.54-15.1c7.43-9.38 12.17-20.2 18.68-29.83 3.1-4.6 8.27-10.9 14.18-12.38-.5.57-1.13.9.58-.2z" fill="url(#Z)"/><g fill="#1a1226"><path d="M1103.17 990.4a1 1 0 0 0-.78-.14.83.83 0 0 0-1.11.37 3.51 3.51 0 0 0-.4 2.51 4.87 4.87 0 0 0 2 4.47.86.86 0 0 0 1.31-.29 5.12 5.12 0 0 0 .53-1.36 4.51 4.51 0 0 0-1.55-5.56zm4.73-10.68a.64.64 0 0 0-.39-.07h0a.86.86 0 0 0-1.2.1 7.21 7.21 0 0 0-.44 8.14 8 8 0 0 0 2.25 2.69.87.87 0 0 0 1.31-.29l.16-.35a.66.66 0 0 0 .44-.27 6.91 6.91 0 0 0-2.13-9.95zm48.74 38.38a6.25 6.25 0 0 0-2.69-5.66 5.61 5.61 0 0 0-7 .9 7.87 7.87 0 0 0-2 6.54c.2 2.34.87 4.9 3.2 6a5.52 5.52 0 0 0 5.77-1 6 6 0 0 0 2.22-4.58 6.85 6.85 0 0 0 .49-2.2zm3.68 3.7c-4.36 0-3.75 6.76.6 6.76s3.74-6.76-.6-6.76zM813.9 977.28a11.53 11.53 0 0 0-4.37-5.39c-2.18-1.44-4.83-.66-5.5 2a13.6 13.6 0 0 0 5.09 14.11c1.66 1.2 4.37 1 5.24-1.15a11.49 11.49 0 0 0-.45-9.57zm2.95-12.73c-4.36 0-3.75 6.75.6 6.75s3.74-6.75-.6-6.75zm-8-31.3a9.43 9.43 0 0 0-1.35-1.91c-2-2.15-5.35-1.68-6.1 1.34a8.69 8.69 0 0 0 .19 4.66 6.85 6.85 0 0 0 1.46 2.94 4.57 4.57 0 0 0 6 1.59 4 4 0 0 0 1.27-2 7.51 7.51 0 0 0-1.47-6.62z" opacity=".6"/><path d="M126.27 1078.6c11.45-4.18 22.83-6.94 33.64-13 20.55-11.53 27.08-32.8 42.3-49.22 11.76-12.66 25.4-21.5 35.25-36.36 5.28-8 11.5-29.8 23.2-30.26 24.27-.92 40.7 57.55 48 73 10.44 22 27.36 50.3 55.28 48.56 22.62-1.4 41.15-16.93 56.46-32 7.56-7.44 28.4-37.53 41.9-32.76 8.64 3.05 16.17 20.3 17.94 28 7.14 31 56 47.53 56.16 54.63.56 24.44-77.56-6.6-92.54-7-58-1.63-118.36 6.82-175.82-4.5-35.23-6.95-65.23-2.32-100.3 1.13-11.93 1.1-31.96-5.58-41.47-.2z"/></g><path d="M243.14 986.08c6.17-16.93 18.4-41.53 32.38-16.5l15.67 28.75c4.1 7.18 17.47 28.8 14.68 36.53-8.24-5.75-13.33-18.77-18.34-27.47-6.5-11.28-7.4-3.58-18.16-3.3 4.14-2.5 6.92-9.4 7-14a51.22 51.22 0 0 1-14.27 9.06c7.73-3.62 12.2-17.85 3.84-23.33-5.2-3.4-4.54-2.36-8.6 4.5-2.92 4.95-4.74 9.14-9.45 12.8 2.55-4.07 2.8-8.65 2.62-13.3a67.88 67.88 0 0 1-7.38 6.28z" fill="url(#a)"/><path d="M397.7 1057.48a105.55 105.55 0 0 0 10.72-8.29 102.63 102.63 0 0 0 9.72-9.27 107.13 107.13 0 0 0 8.65-10.24c2.7-3.6 5.33-7.32 8.3-10.87 0 0 1.1-1.3 3-3.15a40.91 40.91 0 0 1 7.53-6 20.37 20.37 0 0 1 9.56-2.89 12.39 12.39 0 0 1 3.46.38 5.55 5.55 0 0 1 1 .3l.34.13a6 6 0 0 1 2.44 2.28c.33.7.35 1.1.13 1.3-.48.45-1.64-.28-3.74-.6a10.22 10.22 0 0 0-5.72-.25 18 18 0 0 0-5.7 2.27 42.5 42.5 0 0 0-9.52 8.61c-3 3.3-5.67 6.9-8.52 10.46a109.82 109.82 0 0 1-9.19 10.23 103.88 103.88 0 0 1-10.6 8.73 107.29 107.29 0 0 1-11.87 6.87z" fill="url(#b)"/><path d="M175.37 1049.27q8.2-7.55 15.93-15.55c5.2-5.26 10.23-10.7 15.1-16.26a337.29 337.29 0 0 0 27.25-34.93s6.32-8.95 12-18.36l4.2-7a21.32 21.32 0 0 1 5-5.75 11.45 11.45 0 0 1 2.86-1.61 11.08 11.08 0 0 1 2.49-.6 9.68 9.68 0 0 1 2.24 0 6.83 6.83 0 0 1 4.71 2.78c.65 1.07.57 1.74.34 1.86-.56.36-1.82-1.6-5.33-1.44a7.5 7.5 0 0 0-4.34 1 13 13 0 0 0-3.57 3.32 38.89 38.89 0 0 0-2.86 4.44l-2.8 4.77c-3.8 6.33-7.73 12.58-11.94 18.65a341.59 341.59 0 0 1-28.15 34.73c-5.16 5.4-10.45 10.64-15.92 15.7s-11.34 9.68-17.2 14.26z" fill="url(#c)"/><path d="M1283.14 14.62c-4.15 13.5-1.6 40.6.24 56.53 2.7 23.64 4.78 47.53 6.36 71.38 1.9 28.58-5.94 66-.58 93 .18.93 1.16.85 1.27-.1 4.2-36.13 13-71.16 18.24-106.9 2.68-18.2 4.87-33.8 9.08-51.4 4.06-17 2.36-34 5-51.35 2.82-18.67 8.6-28.07-8.32-30.73-10.4-1.63-22.8-1.26-32 4.93a1 1 0 0 0-.37.68c-1.22 10.14-.5 19.83 1.08 13.97z" fill="#111017"/><path d="M1291.65 193.43l1.92-19.46c.75-5.95 4-8.4 4.78-13.95a5.64 5.64 0 0 1-4.72 1.61c.2-2.86.87-6.38 1.1-9 2.07-3.6 5-5.4 5.3-10.32a12 12 0 0 1-4.46 4.38c-3.75-10.74.1-27.3 3.66-36.87-1.14.44-2.57.22-3.68 1.1.9-1.9 2.22-3.94 3.22-5.62-7.7.7-3.25-38.7-2.8-46.32 1.18-20.4 4.3-42.56 2.37-63.1a3.42 3.42 0 0 0 0-1.31A35.18 35.18 0 0 0 1282.46 0a1 1 0 0 0-.37.68c-1.25 10.13-.52 19.82 1.05 14-4.15 13.5-1.6 40.6.24 56.53 2.7 23.64 4.78 47.53 6.36 71.38 1.85 27.8-5.5 63.94-1 90.8.37-5.55.28-11.54.54-14.95l2.37-25z" fill="url(#d)"/><path d="M506.76 67.4c3.17 32.72 12.55 64.06 14.4 97.64 1 18.5-.63 34.88 3 52.6 2.8 13.7 2.9 23.55 2.25 37.43-.93 19.62 2.35 40.4 3.54 59.7.9 14.8 2.8 35.65 6.66 48.6 4.53-19 2.72-37.44 3.9-56.77 1.5-24.75 7.1-45.48 13.57-68.4 3.62-12.84 3.15-26.64 6-39.62 3.37-15.28 9.14-26.1 10.95-42l6.92-67.14c1.9-23.6 2.67-46.38 3.92-69.48.9-16.58 1-19.53-12.48-20.92S542.47 1.58 529 2.1c-13.7.53-22.12-.4-24.66 17.82-2.7 19.36 3.32 43.82 2.42 47.47z" fill="#111017"/><path d="M577.94 89.42c1.9-23.6 2.67-46.38 3.92-69.48.9-16.58 1-19.53-12.48-20.92a66.31 66.31 0 0 0-10.73-.13c-.3 2.83-.47 5.54-.6 7.78-.58 11-.17 20.46-2.23 31.24-2.15 11.3-1.75 20-1.87 31.24-.08 6.64-1.7 13-1.46 19.6.35 9.7 3.66 24.18-.68 33-4.1 8.33-8.6 4.5-14.33 7.17 2.9 3 7.08 3.74 10.72 3.2-2.45 2.83-5.36 3.67-8.22 5.43 1.86 4.53 6 1.5 8.66 3.87 4.3 3.9 1.4 12.93.7 18.26-1 7.4 2.13 14.2-1.83 20.9-3.8 6.42-7.65 3.1-12.92 4.28 4.07 5.7 9.42 2.65 14.22 5-1.1 4.75-9.67 4.47-13.12 6.1 2.56 2.6 7.72 2.7 9.7 4.94s.1 7.73-.3 11.1c-1.2 10.43-.82 19.4-8.83 23.6 1.85 3.27 5.58.93 5.36 5.32 0 .76-2.65 1.8-3 3-.4 1.58 1 2.4.73 3.8a203.13 203.13 0 0 0-2.14 29.25c-.13 9-1.85 16.64-3.08 25.38-1.1 7.9 1.06 15.68 1 23.66-.08 10.33-1.5 26 1.44 35.7a5.4 5.4 0 0 0 .48-.56c3.87-18.18 2.27-35.93 3.4-54.48 1.5-24.75 7.1-45.48 13.57-68.4 3.62-12.84 3.15-26.64 6-39.62 3.37-15.28 9.14-26.1 10.95-42l6.98-67.22z" fill="url(#e)"/><path d="M568.55 169.18c-3 9.9-6 19.86-8 30.16s-2.9 20.85-4.52 31.36-4.5 20.66-7.08 30.72a246 246 0 0 0-6 30.75s-.55 3.86-1.17 9.7-1.24 13.65-1.62 21.5a649.4 649.4 0 0 0-.67 21.64l-.1 9.88c-.54 11.9-1.5 11.92-2.08 0 0-21.08.58-42.3 3.36-63.22a247.41 247.41 0 0 1 6.33-31.08c2.68-10.1 5.6-20 7.28-30.36s2.9-20.94 5.17-31.27 5.75-20.05 9.1-29.78z" fill="url(#f)"/><path d="M1318 25.4c-5.84 19-2.24 57.14.34 79.54 3.82 33.27 6.72 66.9 9 100.44 2.67 40.22-8.35 92.84-.82 130.9.26 1.3 1.64 1.2 1.8-.15 5.9-50.84 18.26-100.13 25.67-150.44 3.77-25.6 6.85-47.56 12.77-72.33 5.72-23.9 3.33-47.82 7-72.27 4-26.26 12.1-39.5-11.7-43.23-14.64-2.3-32.07-1.78-45 6.94a1.33 1.33 0 0 0-.51 1c-1.75 14.2-.7 27.85 1.47 19.6z" fill="#111017"/><path d="M1330 277l2.7-27.4c1-8.37 5.65-11.82 6.73-19.63a7.93 7.93 0 0 1-6.65 2.26c.28-4 1.23-9 1.54-12.7 2.9-5.06 7-7.6 7.46-14.53-1.78 2.62-3.84 5.08-6.3 6.17-5.27-15.1.15-38.43 5.16-51.9-1.6.62-3.6.3-5.2 1.56 1.26-2.66 3.14-5.55 4.54-7.92-10.82 1-4.58-54.46-4-65.17 1.67-28.7 6.06-59.9 3.34-88.78a4.64 4.64 0 0 0 0-1.85c-8 .9-15.76 3.2-22.36 7.65a1.33 1.33 0 0 0-.51 1c-1.77 14.26-.73 27.9 1.47 19.65-5.84 19-2.24 57.14.34 79.54 3.82 33.27 6.72 66.9 9 100.44 2.6 39.14-7.72 90-1.33 127.76.52-7.8.4-16.24.75-21 .93-12 2.06-23.35 3.3-35.17z" fill="url(#g)"/><path d="M1322.34 163l3.8 28.25a264.22 264.22 0 0 1 1.53 28.75c-.1 9.67-1.1 19.22-1.93 28.7s-1.37 18.94-1.5 28.45c0 0-.33 14.12.6 28.2.42 7 1.08 14 1.7 19.27l1.13 8.7c1.1 10.55.17 10.93-2.05.55a356 356 0 0 1-3.68-56.79c.2-9.62.83-19.23 1.78-28.73s2-18.92 2.2-28.4a266 266 0 0 0-.88-28.5c-.66-9.54-1.67-19-2.67-28.44z" fill="url(#h)"/><path d="M512.12 25.8c2.88 13.27-2.27 38.2-5.6 52.7-4.94 21.6-9.25 43.56-13.08 65.55-4.6 26.35-.37 62.54-8.24 86.9-.27.83-1.24.6-1.25-.3-.74-34.4-6.12-68.56-8-102.8-.93-17.4-1.62-32.34-4.12-49.47-2.42-16.52.88-32.1-.08-48.75-1-17.88-5.83-27.6 11.24-27.28 10.47.2 22.72 2.6 31.23 9.92a.94.94 0 0 1 .29.69c.25 9.67-1.4 18.6-2.4 12.86z" fill="#111017"/><path d="M486.73 191.23l-.06-18.48c-.18-5.68-3.18-8.5-3.42-13.82a6.23 6.23 0 0 0 4.53 2.29c.08-2.7-.26-6.1-.22-8.6-1.72-3.7-4.4-5.86-4.28-10.52a12.84 12.84 0 0 0 4 4.84c4.74-9.4 2.48-25.5-.14-35 1.1.6 2.53.63 3.55 1.64-.7-1.9-1.83-4-2.66-5.78 7.56 1.93 6.9-35.57 7.18-42.75.8-19.25-.2-40.46 3.64-59.3a2.93 2.93 0 0 1 .09-1.23 39.21 39.21 0 0 1 15.25 7.72.94.94 0 0 1 .29.69c.3 9.67-1.36 18.6-2.36 12.86 2.88 13.27-2.27 38.2-5.6 52.7-4.94 21.6-9.25 43.56-13.08 65.55-4.47 25.64-.62 60.58-7.67 84.87.16-5.24.82-10.8.9-14 .17-8.06.14-15.72.06-23.7z" fill="url(#i)"/><path d="M500.85 105c-1.38 7.07-2.6 14.2-3.64 21.36l-2.78 21.52c-1.64 14.4-2.34 28.92-3.26 43.48 0 0-.7 10.8-1.86 21.57s-2.72 21.45-2.72 21.45c-1.7 7.92-2.65 7.65-2-.5 2-14.16 3.4-28.44 4.32-42.8 1.1-14.5 2-29.1 3.8-43.55q1.44-10.83 3.43-21.5 2-10.67 4.7-21.04z" fill="url(#j)"/></g></g><g><g class="u" opacity=".3"><path d="M10.5 11.5H1921.5V1079.5H10.5z" fill="#1b1464"/><path d="M1921,12V1079H11V12H1921m1-1H10V1080H1922V11Z"/></g></g></g></svg>