<svg xmlns="http://www.w3.org/2000/svg" xmlns:xlink="http://www.w3.org/1999/xlink" viewBox="0 0 1920 1080"><defs><path id="A" d="M0 1h1921v1080H0z"/></defs><clipPath id="B"><use xlink:href="#A"/></clipPath><g clip-path="url(#B)"><g fill-rule="evenodd"><path d="M-24.4-10.7c2.3 0 370.6 7.7 371.6 7.3 2.2-.7 74.4-1.4 76.7-.6-1 3.8-66.2 97.3-69.8 97.4-6.8 3.8-12 9-18.7 13.2-2 1.3-4 3.2-6 4.3-3.6 1.9-8.3 1.9-12.2 3.5-6.2 2.5-7.2 10.1-11.7 14.3.9 2.2 2 4.3 1.3 7.5-.5 2.3-3 3.3-4.9 5.5-3.3 3.9-4.8 9.8-9 13.2-5 4-13.6 5.2-20.8 3.6.1 5.3-2 9.3-4.8 13.3-8 11.4-20.4 20.8-39.1 20.1.7 4.9-1.7 8.3-3.6 13-1.2 3-1.7 6.5-2.9 8.3-1.3 1.9-4.4 3.2-6.7 5.2-7.6 6.5-19.7 9.9-26.6 17.8-4.7 5.4-4.3 13.9-8.9 21.3-8.6 5.7-16.4 12.4-19.6 23.9-2.8 5-9.2 6.2-13.9 9.2 1.6.8 3.8 1 4.7 2.5-2.5 6-3.7 13.4-5.3 20.8-1 4.4-2.7 8.4-3.6 12.5-.9 3.9-.8 8.2-1.2 12.2-.8 8-1.8 15.2-3.3 22.3-2.4 2.2-4.8 4.5-7 7 6.5 2.2.5 9.5-1.6 14.6-1.9 4.5-3.3 7.6-5.3 10.6-6 8.8-11.2 18-16.5 30-3.4 7.7-7.1 15.8-11.3 23.9-1.5 2.8-3.6 5.5-3.8 7.7-.1 1.2.6 2.7.8 4.2.3 2.9-.4 6.3-.3 9 .2 4.3 1.3 7.9-1.8 10.4 2.6 10.3 5.3 22.3 1.4 32.9-1 2.8-3.1 4.8-4.7 7.9-1.9 3.9-2.1 8.9-3.3 13.7-1.1 4.3-3.3 8-4.8 11.8-.7 1.9-.8 4.1-1.6 5.9-1.2 2.7-3 5-4.1 7.7-3.3 8-5.6 17.2-8.4 26.4-1.9 6.1-2.9 12-6.1 17.2-2.8 4.5-7.1 8.3-9.6 13.5-1.9 4-3 9-4.8 13.6s-4.2 9.6-4.8 13.6c-.9 5.6-.1 12.3 1 18.3 2.1 11.5 3.6 23 5 34.8 1.2 10.9 5.1 23 3.2 35.1-.9 5.6-2 11.1-3.4 16.3-2.7 10.6-8.5 19.5-9.8 31.1-.5 4.5.3 10.3.5 15 .2 6.1.3 14.2.3 20 .1 7.8-1.5 15.7.3 21.2.9 2.7 4.3 4.3 4.2 7.9-.1 2.6-2.4 3.7-2.8 6.5 1.9 1.6 4.4 1.6 5.2 3.7.7 1.9.5 5.3.7 7.8.2 2.6.2 5.4.4 7.8.3 5.3-1 11.6.1 16.4.3 1.5 1.2 3.1 1.9 4.8s1.1 3.5 1.6 4.8c.8 2.2 3.2 5 3.4 6.4.4 3.9-2.1 9.2-3 13.4l-3 13.4c-2.2 8.6-6.6 17-1.9 25.7 9.6-.4 12 6.7 15 13.3 1.7 3.8 3.6 7.5 5.6 10.3 5.7 7.7 13 12.4 16.9 19.9 12.3 5.2 19.9 14.9 24.1 27.9 4 3.4 10.5 4.3 14.9 7.3 4.1.4 8.2-.7 11.5 0 3.2.7 6.7 3.3 9.6 5.4 7.3 5.3 14 12.4 17.2 21.1 7.9 4.8 16.8 8.1 25.1 13 8.1 4.8 17.8 6.8 24.5 13.3 2.5 1 5.3 1.8 5.8 4.7-25.2-1.3-53 .3-80 2.2-18.9 1.3-38.4.6-54.5 1.7-4 .3-8 .7-12.4-.1-1.3-.2-2.8-.9-4.1-1-2-.2-4.4.4-6.5.4-9.7-.1-21 .9-30.8-.9-2.1-.4-4.1-.6-6.2-1.1-1.8-.4-3.6-1.2-5.6-1.7-11.5-2.4-25.3-.6-36.3-5.8-6.9-2.7-16.2.3-24.9-.4-.3-1.6-1-2.9-.7-5.1-3.6-1.8 21.7-1061.2 23.8-1088z" fill="#192021"/><g fill="#333"><path d="M-43.4 72.9l4.9.1-5.3 259.5.4-259.6z"/><path d="M-43.8 332.5L-38.5 73c44.6 1.1 377.7 12.8 391.9 18-7.5 3.3-12.8 8.8-19.6 13.2-2.2 1.4-4.2 3.5-6.3 4.6-3.5 1.8-8.1 1.7-11.9 3.2-6 2.4-7.6 9.6-11.4 14-1.7-.8-2.2-2.9-4-4-1-.6-2.7-.6-4.1-1.3-2.9-1.4-4.7-4.9-7.8-6.8-9.8-6-28-4-33.9 3.5-2.5 3.2-4.9 8.5-4.9 15.1-26.4-2.8-46.5 6.2-50.6 29.3-.6 1.2-1.7-2-3.5-1.6-1.9-3-4.5-3.3-9.7-4.2-3.4-.6-5.7-1.6-8.9-1.2-4.5.7-7.9 3.8-10.8 5.4-6 13.1 7.1 25.7 21 21.5-1.9 4-.8 5.3 1.5 8.4 1.9 2.5 3.9 5.4 7.8 5.9 7.9 1.1 15.6-3.6 16-11.8.9-.3 1.9 1.9 3.2 3.1 2.5 2.3 5.2 4.7 10.2 4.8-.4 3.3-2.2 6.1-3.5 9.2-1.3 3-1.6 6.6-3.2 9.5-.8 1.4-3.3 2.9-5.5 4.6-2.1 1.7-3.7 3.7-5.2 4.6-3.1 2-8.1 3.7-12 6.2-5.7 3.8-9.4 9.7-17.1 7 1 1.6 3.1 2.1 5.6 2.3-.9 3-2.4 6.4-3.8 10.1-1.2 3.2-2.3 7.4-4.1 9.7-1.3 1.6-4.1 2.8-5.7 4.3-4.7 4.3-10.5 9.6-13.2 16.4-1.3 3.2-1.4 5.6-4.4 7.6-1.5 1-4.4 2.1-6.9 3.4s-5.4 3.2-6.6 3.4c-3.4.4-8.9-1.7-12.7-2.5-7.5-1.4-14.1-2-18.5-5.9-1.1-.9-1.7-2.4-2.6-3.4-2.9-2.9-6.1-5.5-10.5-7.5-1.6-5.7-1-12.1-2.2-17.7-1.7 4.5-.6 11.4.1 16.1-6.2.9-7.9-4.8-11.6-7.8-2.5-2-6-2.6-8.5-4.4-2.4-1.8-7.1-8.3-8.6-11.3-2-4-2.6-8.7-4.4-12.4-.3 2.3.4 6.6 2.2 7.5.3 7.1 5.8 11.7 8.7 17.3 6.7 2.3 12.1 6 15.1 11.8 6.4 1.5 12 3.8 16.1 7.3 2.1 1.8 2.7 3.8 4.6 5.5 7.2 6.8 18.8 6 31.7 8.7 2.3.5 4.3 2 7.7 1.7-2.6 8.1-3.7 17.2-6.1 25.8-.7 2.7-2.2 5.3-2.6 8-1.1 7.2-1.1 15.3-2.4 22.9-.4 2.5-1 6.5-2 8.9-1.2 2.9-4.6 4.5-6.7 7-3.6-1.4-6.8-2.7-10.3-3.9-3.6-1.3-7.6-1.4-10.9-3-5.3-2.6-8.6-7.9-13.9-10.3-3.5-1.6-8.1-.8-12.1-2.4-1.1-.5-1.8-1.9-3.2-2.8-1.6-1.1-3.9-1.6-5.3-2.5-1.4-1-1.9-2.3-3.2-3.1.2 3.8 5.3 5.4 8.1 7.7-3.9 0-7.1-.4-10.3-1.2s-5.2-2.4-7.9-3.8c-3.7-1.9-7.2-3.1-10.2-5.7-2.9-2.5-4.8-5.6-8.1-7.7 1.9 2.4 3.7 5 6 7.3 3 3 7.1 4.3 10.8 6.6 1.6 1 2.9 2.8 4.6 3.7 8.4 4.2 20.6 1.4 29.5 5.6 5.2 2.5 10.5 8.5 15.1 10.6 2.9 1.3 6.2 1.4 9.1 2.4 5.8 1.9 10.8 4.3 15.2 7-2.3 6.1-5.1 11.5-7.3 17.7-4.3.4-8.9 1.2-13.3.5 2.5 2.4 7.1 1.7 11.2 1.5 1 .7-1.3 2.9-1.9 3.8-3.4.7-8.2-.2-10.7 1.5 1.8.2 6.1.8 8.6.2.3 2-1.6 3.7-2.5 5.3-7.2 12.2-13.7 28-20.7 41-1.8 3.4-5 7.4-5.4 11.5-.1 1.6.6 2.9.8 4.5.3 4.1-1.1 8.5.3 12-3.6 1.8-7.9 2.9-12 4.1 3.4 1.1 8.3-1.4 11.9-2-1 4.5-3.8 7-6.5 9.7-7.4.8-15.4 6.9-22.2 1.1 3.1 8.7 16.3.7 23.1 1.3 2.4-.1 3.7-3.1 5.1-3.1 1 8.6 3.4 16.7 1.4 25.7-.8 3.4-3 6.6-4.7 10-3.5 7-3.3 15.4-6.6 22.5-.8 1.7-1.8 3.1-2.5 4.7-.8 1.8-.9 3.9-1.6 5.6-.8 1.8-2.3 3.2-3.1 5-4.2 8.9-6.9 19.8-10 30.2-1.3 4.3-2 8.5-3.9 12.1-3.5 6.9-9.3 12.2-12.1 20-1.4 3.8-3 7.6-4.5 11.5-2.7 7.4-5.4 14-4.5 24.1.5 5.5 2.1 11 2.8 16.8l2.1 18.6c2.1 15.2 6.7 29.2 4.1 44.1-1 5.5-2.1 11.7-4 17.5-1.3 4-3.3 7.8-4.8 11.8-1.3 3.7-2.8 7.7-3.6 11.6-2.3 11.4.1 26.4 0 40.7 0 7.5-1.5 15.3.3 20.9.9 2.7 3.1 3.6 4 6.7-1.3 2.3-3.9 2.5-5.5 4.6-2.5 3.4-2.8 8.7-5.4 12.7-.6.9-1.8 1.4-2.4 2.3-1.8 2.5-3.3 6.9-5.6 8.8-3.1 2.7-8 2.6-12 4.4-3.4 1.6-6.3 4.9-10.2 5.4-7.1.8-10.9-4.6-15.9-4.6 4.6 2.3 8.1 5.7 14 6.7 1 1.1-2.9 2.2-3.4 3.8 2 .2 4-2.3 5.4-3.7 4.3-1.2 7.6-4.3 11.1-6 4.7-2.1 8-2 11.1-4.2 3.2-2.3 4.2-5.8 6.8-9.4 2.8-4 6.4-7.3 9.8-11.7.9 1 3.4.6 4.4 1.6.8 4.9 1 9.8 1.4 15.3.4 5.3-.8 11-.2 16.4.7 5.8 5.8 10.9 6.4 16-4 6.3-10.8 9.6-16.7 13.9 6.9-2.3 11.8-6.7 16.9-10.9-1.1 4.6-1.4 7.8-2.4 12.8-1.9 8.6-5.9 17.8-6.9 25.2-.7 5.5.6 11.4 3.5 13.9-6.9 3-16.5 3.6-24.7 4.4 8.1.9 20.8-.5 27.7-4 1.1.6 3.2.3 4.1 1-2.6 1.7-6.3 2.3-9.3 3.6 4.2.9 7.8-1.5 11.3-2.4 3.5 5.9 5.6 13 9.6 18.5-5.5 5.6-12.9 9.2-21.6 11.3 8.8-.1 16.4-5.3 22.8-9.8 2.6 3.6 6.2 6 9.2 9.5 3.1 3.7 5.6 9.5 10 12.2 3.3 2.1 6.5 3 9.3 5.7 4.3 4 8.7 9.5 10.5 16.4-8.8-.6-18 3.2-25.3 6.1 3.6-.8 9-2.2 14.3-3.5 4-.9 12.7-3.3 13.3 2.2-11.6 2.3-21.4 6.7-31.4 10.7 4.9-.8 10.2-2.9 16.1-4.9 5.4-1.9 11.7-5.1 17.3-4.3 3.7.6 8.2 3.8 12 4.8-3.2 2.8-7.5 4.6-11.2 7.7-1 .9-2 2.6-3.7 4.1-1.5 1.3-3.4 2.4-3.7 3.8-.9 4.7 4 10.2 7.7 12.2 1.6.8 3.8.8 5.6 1.7 2.3 1.1 3.5 3.4 5.5 3.7 2.2.4 5-.6 7.7-.4 6 .5 10.9 2.7 17.7 2 2.2-.2 5.2-1.4 7.2-2.5 2.1-1.1 4.6-4.5 6.3-4.6 3.5-.3 8.8 5.2 12 6 9.8 2.6 17 7.6 25.7 11.2 6.4 2.6 12.3 6.1 16.9 9.5-3.3-1.3-7-.1-10.4 0-15.6.3-32.7-.8-48.3.4-7 .6-14 2-21.1 2.4-14.7.8-29.4 0-44.5 1.1-1.2 0-1.2 0-.9-.9-6.3 2.1-13 0-19.5-.6-2.2-.2-4.4.6-6.5.7-3.5.2-7.1-.7-10.6-.6-5.2.2-10.4 1.6-15.4 1-13.4-1.4-25.9-5.5-39.5-6.5-3.2-.2-6.5.1-9.5-.6-4.1-1-7.9-3.6-12.3-4.2-6.4-.9-12.3 2.3-18.7.7-.7-2-.7-4.8.5-6.3.3-8.3 1.8-446.9 2.6-740.5z"/></g><path d="M161.2 195.1c5.8-.8 16.4 4.2 17.2 10.4.4 3 0 10.9-.6 12.5-2.8 7.6-21.1 8.1-26.7 1.6-3.1-3.6-6.7-12.8-2.5-17.7.8-1 4.2-3.6 5.5-4.3 1.9-1.2 4.8-2.2 7.1-2.5z" fill="#192021"/><g fill="#333"><path d="M153.4 219.1c6.1 5.5 16.5 4 22.5-.8.8-3.9-.5-8.8.4-12.8-2.6-6.2-11.8-10.9-19.3-7.1-.4.8 1.5.8.6 1.2-12.8.3-10.1 14.1-4.2 19.5zm118.5-63.2c7.1 1.4 14.8.6 19.3-3.3 2.7-2.4 4.1-6 6.2-9.1 1.5-2.2 6.1-5.9 6.8-8.5.9-3.7-1.9-8.4-3.3-9.7-1.6-1.4-4.3-1.5-6.1-2.6-3-1.7-4.9-5-7.8-6.8-9.1-5.7-22.2-3.3-30.3 3-1.8 4.2-5.4 8.8-4.2 14.2 11.3 3 14.1 14.1 19.4 22.8zm-34-21.9c-4.3.3-9.3 1.7-13.1 2.9-8.7 2.8-12.4 5.7-17.5 12-4.6 5.7-8.5 12.5-5.6 19.9 1 2.5 5.2 5.2 7.5 7.7 4.4 4.9 7.8 12.7 15.3 13.3 2.7.2 6.6-.8 10.1-1.2 8.9-1 12.4-2.5 18.2-6.3 5.3-3.5 8.5-6.6 11.9-11.9 2-3.2 4-5.6 4.4-8.8.7-6-2-8.6-3.8-12.4-1.2-2.4-1.7-5.2-3.1-7-2.3-2.9-5.7-4-7.8-5.6-1.1-.7-1.1.3-2.4.2-2.7-3-10-3.1-14.1-2.8zm-41.1 29c-3-3.9-12.2-7.4-19.7-6.5-4.2.5-9.6 4.2-10.5 6.3-3.1 6.8 3 15.2 9 17.6 6.9 2.8 13.9-1.1 19.7-4.2.7-.7 1-1.8 2.1-2 .6-2.4 1.4-4.5 2.3-6.5-1.3-1.5-2.8-2.4-2.9-4.7z"/><path d="M198.8 175c-2.9 4.7-12.9 4.4-11 11.9.3 1.1 3.8 5.6 4.6 6.1 3.5 2.5 8.7 1.7 12.1.4 4.3-1.7 6.6-6.3 6.3-12.4-3.5-3.6-6.6-7.5-10.4-10.8-.9 1.8-.8 3.5-1.6 4.8zM30.6 853.8c1.2-1.9 2.7-3.5 4.3-5 0-1.4.7-2.1 1-3.3-3.2.9-5.1 6.3-5.3 8.3zm122 199.9c-1.1-1.7-1.5-3.4-2.5-5.2-1.6-2.8-4.9-4.8-8.1-7.1-2.9-2.1-6.1-5.4-9-6.5-4.9-2-10.1 1-14.5-.7-3.7 1.7-6.5 3.7-10 6.6-1.9 1.6-8.1 6-8.5 8.4-.7 3.5 3.6 8.7 6.5 10.4 1.2.7 3.3.6 5 1.3 1.7.8 3 2.5 4.4 3.1 2.7 1.2 4.8.1 8 .2 6.4.3 12.4 2.7 18 2 6.2-.8 9.8-4.5 13.2-7.7-.7-1.6-1.5-3.2-2.5-4.8zM353.4 91c-7.5 3.3-12.8 8.8-19.6 13.2-2.2 1.4-4.2 3.5-6.3 4.6-3.5 1.8-8.1 1.7-11.9 3.2-6 2.4-7.6 9.6-11.4 14-1.7-.8-2.2-2.9-4-4-1-.6-2.7-.6-4.1-1.3-2.9-1.4-4.7-4.9-7.8-6.8-9.8-6-28-4-33.9 3.5-2.5 3.2-4.9 8.5-4.9 15.1-26.4-2.8-46.5 6.2-50.6 29.3-.6 1.2-1.7-2-3.5-1.6-1.9-3-4.5-3.3-9.7-4.2-3.4-.6-5.7-1.6-8.9-1.2-4.5.7-7.9 3.8-10.8 5.4-6 13.1 7.1 25.7 21 21.5-1.9 4-.8 5.3 1.5 8.4 1.9 2.5 3.9 5.4 7.8 5.9 7.9 1.1 15.6-3.6 16-11.8.9-.3 1.9 1.9 3.2 3.1 2.5 2.3 5.2 4.7 10.2 4.8-.4 3.3-2.2 6.1-3.5 9.2-1.3 3-1.6 6.6-3.2 9.5-.8 1.4-3.3 2.9-5.5 4.6-2.1 1.7-3.7 3.7-5.2 4.6-3.1 2-8.1 3.7-12 6.2-5.7 3.8-9.4 9.7-17.1 7 1 1.6 3.1 2.1 5.6 2.3-.9 3-2.4 6.4-3.8 10.1-1.2 3.2-2.3 7.4-4.1 9.7-1.3 1.6-4.1 2.8-5.7 4.3-4.7 4.3-10.5 9.6-13.2 16.4-1.3 3.2-1.4 5.6-4.4 7.6-1.5 1-4.4 2.1-6.9 3.4s-5.4 3.2-6.6 3.4c-3.4.4-8.9-1.7-12.7-2.5-7.5-1.4-14.1-2-18.5-5.9-1.1-.9-1.7-2.4-2.6-3.4-2.9-2.9-6.1-5.5-10.5-7.5-1.6-5.7-1-12.1-2.2-17.7-1.7 4.5-.6 11.4.1 16.1-6.2.9-7.9-4.8-11.6-7.8-2.5-2-6-2.6-8.5-4.4-2.4-1.8-7.1-8.3-8.6-11.3-2-4-2.6-8.7-4.4-12.4-.3 2.3.4 6.6 2.2 7.5.3 7.1 5.8 11.7 8.7 17.3 6.7 2.3 12.1 6 15.1 11.8 6.4 1.5 12 3.8 16.1 7.3 2.1 1.8 2.7 3.8 4.6 5.5 7.2 6.8 18.8 6 31.7 8.7 2.3.5 4.3 2 7.7 1.7-2.6 8.1-3.7 17.2-6.1 25.8-.7 2.7-2.2 5.3-2.6 8-1.1 7.2-1.1 15.3-2.4 22.9-.4 2.5-1 6.5-2 8.9-1.2 2.9-4.6 4.5-6.7 7-3.6-1.4-6.8-2.7-10.3-3.9-3.6-1.3-7.6-1.4-10.9-3-5.3-2.6-8.6-7.9-13.9-10.3-3.5-1.6-8.1-.8-12.1-2.4-1.1-.5-1.8-1.9-3.2-2.8-1.6-1.1-3.9-1.6-5.3-2.5-1.4-1-1.9-2.3-3.2-3.1.2 3.8 5.3 5.4 8.1 7.7-3.9 0-7.1-.4-10.3-1.2s-5.2-2.4-7.9-3.8c-3.7-1.9-7.2-3.1-10.2-5.7-2.9-2.5-4.8-5.6-8.1-7.7 1.9 2.4 3.7 5 6 7.3 3 3 7.1 4.3 10.8 6.6 1.6 1 2.9 2.8 4.6 3.7 8.4 4.2 20.6 1.4 29.5 5.6 5.2 2.5 10.5 8.5 15.1 10.6 2.9 1.3 6.2 1.4 9.1 2.4 5.8 1.9 10.8 4.3 15.2 7-2.3 6.1-5.1 11.5-7.3 17.7-4.3.4-8.9 1.2-13.3.5 2.5 2.4 7.1 1.7 11.2 1.5 1 .7-1.3 2.9-1.9 3.8-3.4.7-8.2-.2-10.7 1.5 1.8.2 6.1.8 8.6.2.3 2-1.6 3.7-2.5 5.3-7.2 12.2-13.7 28-20.7 41-1.8 3.4-5 7.4-5.4 11.5-.1 1.6.6 2.9.8 4.5.3 4.1-1.1 8.5.3 12-3.6 1.8-7.9 2.9-12 4.1 3.4 1.1 8.3-1.4 11.9-2-1 4.5-3.8 7-6.5 9.7-7.4.8-15.4 6.9-22.2 1.1 3.1 8.7 16.3.7 23.1 1.3 2.4-.1 3.7-3.1 5.1-3.1 1 8.6 3.4 16.7 1.4 25.7-.8 3.4-3 6.6-4.7 10-3.5 7-3.3 15.4-6.6 22.5-.8 1.7-1.8 3.1-2.5 4.7-.8 1.8-.9 3.9-1.6 5.6-.8 1.8-2.3 3.2-3.1 5-4.2 8.9-6.9 19.8-10 30.2-1.3 4.3-2 8.5-3.9 12.1-3.5 6.9-9.3 12.2-12.1 20-1.4 3.8-3 7.6-4.5 11.5-2.7 7.4-5.4 14-4.5 24.1.5 5.5 2.1 11 2.8 16.8l2.1 18.6c2.1 15.2 6.7 29.2 4.1 44.1-1 5.5-2.1 11.7-4 17.5-1.3 4-3.3 7.8-4.8 11.8-1.3 3.7-2.8 7.7-3.6 11.6-2.3 11.4.1 26.4 0 40.7 0 7.5-1.5 15.3.3 20.9.9 2.7 3.1 3.6 4 6.7-1.3 2.3-3.9 2.5-5.5 4.6-2.5 3.4-2.8 8.7-5.4 12.7-.6.9-1.8 1.4-2.4 2.3-1.8 2.5-3.3 6.9-5.6 8.8-3.1 2.7-8 2.6-12 4.4-3.4 1.6-6.3 4.9-10.2 5.4-7.1.8-10.9-4.6-15.9-4.6 4.6 2.3 8.1 5.7 14 6.7 1 1.1-2.9 2.2-3.4 3.8 2 .2 4-2.3 5.4-3.7 4.3-1.2 7.6-4.3 11.1-6 4.7-2.1 8-2 11.1-4.2 3.2-2.3 4.2-5.8 6.8-9.4 2.8-4 6.4-7.3 9.8-11.7.9 1 3.4.6 4.4 1.6.8 4.9 1 9.8 1.4 15.3.4 5.3-.8 11-.2 16.4.7 5.8 5.8 10.9 6.4 16-4 6.3-10.8 9.6-16.7 13.9 6.9-2.3 11.8-6.7 16.9-10.9-1.1 4.6-1.4 7.8-2.4 12.8-1.9 8.6-5.9 17.8-6.9 25.2-.7 5.5.6 11.4 3.5 13.9-6.9 3-16.5 3.6-24.7 4.4 8.1.9 20.8-.5 27.7-4 1.1.6 3.2.3 4.1 1-2.6 1.7-6.3 2.3-9.3 3.6 4.2.9 7.8-1.5 11.3-2.4 3.5 5.9 5.6 13 9.6 18.5-5.5 5.6-12.9 9.2-21.6 11.3 8.8-.1 16.4-5.3 22.8-9.8 2.6 3.6 6.2 6 9.2 9.5 3.1 3.7 5.6 9.5 10 12.2 3.3 2.1 6.5 3 9.3 5.7 4.3 4 8.7 9.5 10.5 16.4-8.8-.6-18 3.2-25.3 6.1 3.6-.8 9-2.2 14.3-3.5 4-.9 12.7-3.3 13.3 2.2-11.6 2.3-21.4 6.7-31.4 10.7 4.9-.8 10.2-2.9 16.1-4.9 5.4-1.9 11.7-5.1 17.3-4.3 3.7.6 8.2 3.8 12 4.8-3.2 2.8-7.5 4.6-11.2 7.7-1 .9-2 2.6-3.7 4.1-1.5 1.3-3.4 2.4-3.7 3.8-.9 4.7 4 10.2 7.7 12.2 1.6.8 3.8.8 5.6 1.7 2.3 1.1 3.5 3.4 5.5 3.7 2.2.4 5-.6 7.7-.4 6 .5 10.9 2.7 17.7 2 2.2-.2 5.2-1.4 7.2-2.5 2.1-1.1 4.6-4.5 6.3-4.6 3.5-.3 8.8 5.2 12 6 9.8 2.6 17 7.6 25.7 11.2 6.4 2.6 12.3 6.1 16.9 9.5-3.3-1.3-7-.1-10.4 0-15.6.3-32.7-.8-48.3.4-7 .6-14 2-21.1 2.4-14.7.8-29.4 0-44.5 1.1-1.2 0-1.2 0-.9-.9-6.3 2.1-13 0-19.5-.6-2.2-.2-4.4.6-6.5.7-3.5.2-7.1-.7-10.6-.6-5.2.2-10.4 1.6-15.4 1-13.4-1.4-25.9-5.5-39.5-6.5-3.2-.2-6.5.1-9.5-.6-4.1-1-37.5 11.2-42 10.6-.2 0-.4 0-.6-.1 16.9-339.1 9.4-769.2 20.3-1109.6L418.6-9c13.9 2-67.1 99.3-65.2 100z"/></g></g><radialGradient id="C" cx="1905.168" cy="632.597" r="777.121" gradientTransform="matrix(-0.9996 2.844826e-02 -2.871623e-02 -1.009 2265.3379 1065.4326)" gradientUnits="userSpaceOnUse"><stop offset="0" stop-color="#67cdf5" stop-opacity=".7"/><stop offset="1" stop-color="#2f3a30"/></radialGradient><path d="M127.1 366.3c-3.6-1.4-6.8-2.7-10.3-3.9-3.6-1.3-7.6-1.4-10.9-3-3.2-1.6-5.8-4.2-8.4-6.5 22.2 11.8 22.7-12.7 23.3-32.6.6-22.1-11-27.9-21.4-45 .1 0 .2.1.3.1 1.1.7 2.2 1.5 3.2 2.3 2.1 1.8 2.7 3.8 4.6 5.5 7.2 6.8 18.8 6 31.7 8.7 2.3.5 4.3 2 7.7 1.7-2.6 8.1-3.7 17.2-6.1 25.8-.7 2.7-2.2 5.3-2.6 8-1.1 7.2-1.1 15.3-2.4 22.9-.4 2.5-1 6.5-2 8.9-1.2 3-4.6 4.7-6.7 7.1zm-4.2 22.3c2.2-6.2 5-11.6 7.3-17.7-4.4-2.7-9.4-5.2-15.2-7-2.9-.9-6.2-1.1-9.1-2.3 2.1 2.4 3.6 5 3.7 7.6.3 9.1-15.2 27.2-21 33.7-6 6.7-11.6 12.3-13.8 21-1.7 6.6 1.7 14.5-3.8 20-9.4 9.4-32.9 1.8-44.3 2.2 6.5 5.9 18.4 5.3 23.2 11.1-7.5.7-15.1 1-22.6 1 6.6 9.7 22.7 7.4 28.3 15 4.5 6.2-1.8 18.1-.9 25.1.7 5.1 4.3 8.7 4.5 14.2.3 6.3-3.1 12.7-3.9 18.9-1.7 13.6.3 26.5-2.5 39.6-2.3 10.7-1.6 22.4-5.1 32.4-2 5.8-6.6 11.1-9.4 16.3s-5.8 12.4-10 17.2c-7.6 8.7-14 7.6-17.5 20.7-5.7 21.1-6.1 43.3-4 64.3 2.3 23.7-13.5 38.1 17 26.2-2.5 6.8-8.1 13.4-13.7 18.5 6.2-1 11.3-5.6 15.9-10.1-5.2 14-14.9 25.2-25.6 35.3 11.1 14.4 1.7 41.3 2.8 57.9 2-.4 5.5.7 7 .5-2.8 5.3-11 11.6-7.3 17.5 9.4-2.5 17.8-11.1 24.3-18-.7 5-1.9 9-3.5 12.6.2-.2.3-.5.5-.7.6-.9 1.9-1.4 2.4-2.3 2.6-4 2.8-9.3 5.4-12.7 1.6-2.1 4.2-2.4 5.5-4.6-.8-3.1-3.1-4-4-6.7-1.8-5.7-.3-13.5-.3-20.9 0-14.3-2.4-29.2 0-40.7.8-3.9 2.2-7.9 3.6-11.6 1.5-4 3.5-7.8 4.8-11.8 1.9-5.9 3.1-12.1 4-17.5 2.6-14.9-2-28.9-4.1-44.1-.9-6.2-1.4-12.5-2.1-18.6-.7-5.8-2.3-11.4-2.8-16.8-.9-10.1 1.8-16.6 4.5-24.1 1.4-3.9 3.1-7.8 4.5-11.5 2.9-7.8 8.6-13.1 12.1-20 1.9-3.6 2.6-7.9 3.9-12.1 3.1-10.4 5.8-21.4 10-30.2.8-1.8 2.3-3.2 3.1-5 .7-1.7.8-3.8 1.6-5.6.7-1.6 1.7-3 2.5-4.7 3.2-7.1 3.1-15.5 6.6-22.5 1.7-3.4 4-6.6 4.7-10 2.1-9.1-.4-17.2-1.4-25.7-1.5.1-2.7 3-5.1 3.1-6.7-.6-20 7.5-23.1-1.3 6.8 5.8 14.8-.4 22.2-1.1 2.7-2.7 5.5-5.2 6.5-9.7-3.6.7-8.5 3.2-11.9 2 4.1-1.3 8.4-2.3 12-4.1-1.4-3.4.1-7.8-.3-12-.1-1.6-.9-2.9-.8-4.5.3-4.1 3.5-8.1 5.4-11.5 7-13 13.5-28.7 20.7-41 .9-1.6 2.8-3.3 2.5-5.3-2.5.6-6.8 0-8.6-.2 2.5-1.7 7.3-.8 10.7-1.5.6-.9 2.9-3.2 1.9-3.8-4.1.2-8.7.9-11.2-1.5 4.5.3 9-.5 13.3-.9zm103-196.4c-5-.1-7.7-2.5-10.2-4.8-1.3-1.2-2.3-3.4-3.2-3.1-.3 6.6-5.4 10.9-11.5 11.8-6.2 9.3-18.8 15.2-25.3 25-5.1 7.7-2.9 11.5-14 11.2-12.5-.4-22.6-13.9-31.9-21.1 4.1 11.6 13.1 20.9 20.7 30.1-14.6 1.2-27.4-14.7-37.4-23.4 7 9.5 18.5 25.3 22.9 36.2 1.8 4.4 5.2 17.3 5 22-8.2 4-11.4 5.7-20.3 5-6.3-.5-10.8-2.7-16.4-4.5.8.7 1.5 1.4 2.2 2.1.9.9 1.5 2.4 2.6 3.4 4.4 3.9 11 4.5 18.5 5.9 3.8.7 9.3 2.9 12.7 2.5 1.2-.2 4.1-2.1 6.6-3.4 2.6-1.3 5.4-2.4 6.9-3.4 2.9-2 3.1-4.5 4.4-7.6 2.7-6.8 8.5-12 13.2-16.4 1.6-1.5 4.4-2.7 5.7-4.3 1.8-2.3 2.9-6.6 4.1-9.7 1.4-3.6 3-7.1 3.8-10.1-2.5-.2-4.6-.7-5.6-2.3 7.6 2.7 11.4-3.2 17.1-7 3.9-2.6 8.9-4.2 12-6.2 1.5-1 3.1-3 5.2-4.6 2.1-1.7 4.7-3.2 5.5-4.6 1.6-2.9 1.9-6.5 3.2-9.5 1.3-3.1 3.1-5.9 3.5-9.2zM98.3 1048.6c.3-1.4 2.2-2.5 3.7-3.8 1.6-1.4 2.6-3.2 3.7-4.1 3.7-3.1 8-4.9 11.2-7.7-3.8-1-8.3-4.3-12-4.8-5.6-.9-11.9 2.4-17.3 4.3-5.9 2.1-11.2 4.1-16.1 4.9 10-4 19.8-8.4 31.4-10.7-.6-5.5-9.2-3.1-13.3-2.2-5.3 1.2-10.7 2.7-14.3 3.5 7.3-3 16.6-6.8 25.3-6.1-1.8-6.9-6.2-12.4-10.5-16.4-2.8-2.6-6-3.6-9.3-5.7-4.4-2.8-6.9-8.5-10-12.2-3-3.6-6.6-5.9-9.2-9.5-6.4 4.6-14 9.7-22.8 9.8 8.7-2.1 16.1-5.7 21.6-11.3-3.9-5.5-6.1-12.6-9.6-18.5-3.5.8-7.1 3.3-11.3 2.4 3-1.3 6.7-1.9 9.3-3.6-.9-.7-3-.4-4.1-1-4.9 2.5-12.9 3.9-20 4.2-5.7 9.9-15 17.1-18.3 28.2 8.3 1.7 16.6 1.5 24.9 2.4-1.3 1.2-2.4 4.2-3.5 5.4 7.8 5.4 17.5 1.6 26 4.9-2.8 9-14.1 16.9-21.6 22.1 9.9 4.9 26.8 3.7 34 11.8 4.8 5.4 3.3 14 10.2 18.5 8.6 5.8 15.2 1.8 22.1-1.7-.3-1-.4-2.1-.2-3.1zM343.9 87.4c-5.4 6.1-30.6 13-36.7 17.2-6.3 4.3-14.1 4-20.3 8.4l-.2.2c.5.3 1 .5 1.5.8 3.1 1.9 4.9 5.4 7.8 6.8 1.4.7 3.1.7 4.1 1.3 1.8 1.1 2.3 3.2 4 4 3.8-4.5 5.3-11.6 11.4-14 3.8-1.5 8.4-1.4 11.9-3.2 2.1-1.1 4.2-3.2 6.3-4.6 7.7-4.9 11.8-8.3 19.6-13.2 8-8.1 58.6-80.4 58.2-79.7-6.7 10-40 50.6-67.6 76zm-160.1 985.8c-4.9-2.5-9.9-4.9-15.8-6.5-3.2-.9-8.4-6.3-12-6-1.8.1-4.2 3.5-6.3 4.6-.4.2-.8.4-1.3.6 4.3 1.7 8.7 3.2 12.7 4.5 7.2 2.2 15 2.4 22.7 2.8zM27.4 923.8c-2.5 13.3-10.5 26-15.4 38.4 5.9-5.2 11.8-11.4 17-17.4-.3 5.4-1.8 9.9-3.9 14 5.9-.6 11.9-1.5 16.6-3.6-2.9-2.5-4.2-8.3-3.5-13.9 1-7.4 5.1-16.6 6.9-25.2 1.1-5 1.3-8.2 2.4-12.8-5.1 4.2-10 8.6-16.9 10.9 5.9-4.3 12.7-7.6 16.7-13.9-.6-5.2-5.7-10.2-6.4-16-.6-5.4.5-11.1.2-16.4-.4-5.4-.6-10.4-1.4-15.3-1-1-3.5-.6-4.4-1.6-3.5 4.4-7 7.7-9.8 11.7-2.6 3.6-3.6 7.1-6.8 9.4-.5.3-.9.6-1.4.8-3.5 5.1-7.4 10.2-10.6 17.5-6.5 14.6.5 32.1-6.1 47.3 10.3-.4 17.9-10 26.8-13.9zm270-780.3c1.5-2.2 6.1-5.9 6.8-8.5.9-3.7-1.9-8.4-3.3-9.7-1.6-1.4-4.3-1.5-6.1-2.6-.9-.5-1.7-1.2-2.5-2-10.4 7.5-20.1 19.3-13.3 28 1 2.2 5.4 3.8 10.2 5.2a14.29 14.29 0 0 0 2-1.4c2.7-2.3 4.1-5.9 6.2-9zm-32.7 26.8c2-3.2 4-5.6 4.4-8.8.7-6-2-8.6-3.8-12.4-1.2-2.4-1.7-5.2-3.1-7-2.3-2.9-9.7-8.5-18.5-8.2-12.1 12.3-20.6 33.2-13.2 46 4.6 5.9 12.4 6 20.3 3.5.6-.4 1.2-.8 1.9-1.2 5.4-3.5 8.6-6.6 12-11.9zm-67.4 3.7c.6-2.4 1.4-4.5 2.3-6.5-1.2-1.3-2.7-2.2-2.8-4.6-2.6-3.3-9.6-6.4-16.3-6.7-3.6 4.5-4.9 10.6-3.9 15.2 2.2 3.5 6.7 7.1 11.5 8.1 6.9-1.9 8.1-5.2 9.2-5.5zm4.2 15.4c1 1.7 2.6 2.6 4.5 3.3 3.4-2.1 5.1-6.3 4.8-11.6-2-2.1-4-4.3-6-6.5-5.1 4.2-7.9 11.1-3.3 14.8zm-48.9 864.3c-1.1-1.7-1.5-3.4-2.5-5.2-1.6-2.8-4.9-4.8-8.1-7.1-2.9-2.1-6.1-5.4-9-6.5-4.9-2-10.1 1-14.5-.7-3.7 1.7-6.5 3.7-10 6.6-1.9 1.6-8.1 6-8.5 8.4-.7 3.5 3.6 8.7 6.5 10.4 1.2.7 3.3.6 5 1.3 1.7.8 3 2.5 4.4 3.1 2.7 1.2 4.8.1 8 .2 6.4.3 12.4 2.7 18 2 6.2-.8 9.8-4.5 13.2-7.7-.7-1.6-1.5-3.2-2.5-4.8z" fill="url(#C)"/></g><defs><path id="D" d="M0 1h1921v1080H0z"/></defs><clipPath id="E"><use xlink:href="#D"/></clipPath><g clip-path="url(#E)"><g fill-rule="evenodd"><path d="M1928.6-6c-1.8 0-279 7.7-279.8 7.3-1.7-.7-56.1-1.4-57.8-.6.7 3.8 49.8 97.3 52.5 97.4 5.1 3.8 9.1 9 14.1 13.2 1.5 1.3 3 3.2 4.6 4.3 2.7 1.9 6.2 1.9 9.2 3.5 4.6 2.5 5.5 10.1 8.8 14.3-.7 2.2-1.5 4.3-1 7.5.4 2.3 2.3 3.3 3.7 5.5 2.5 3.9 2.1 5.1 5.3 8.4 3.8 4 11.1 5.6 16.6 4-.8 7 2.1 13.6 4.2 17.6 6 11.4 15.4 20.8 29.4 20.1-.6 4.9 1.3 8.3 2.7 13 .9 3 1.3 6.5 2.2 8.3.9 1.9 3.3 3.2 5 5.2 5.7 6.5 14.9 9.9 20 17.8 3.5 5.4 3.2 13.9 6.7 21.3 6.5 5.7 12.3 12.4 14.8 23.9 2.1 5 6.9 6.2 10.5 9.2-1.2.8-2.9 1-3.5 2.5 1.9 6 2.8 13.4 4 20.8.7 4.4 2 8.4 2.7 12.5.7 3.9.6 8.2.9 12.2.6 8 1.3 15.2 2.5 22.3 1.8 2.2 3.6 4.5 5.3 7-4.9 2.2-.4 9.5 1.2 14.6 1.4 4.5 2.5 7.6 4 10.6 4.5 8.8 8.4 18 12.5 30 2.6 7.7 5.3 15.8 8.5 23.9 1.1 2.8 2.7 5.5 2.8 7.7.1 1.2-.5 2.7-.6 4.2-.2 2.9.3 6.3.2 9-.2 4.3-.9 7.9 1.3 10.4-2 10.3-4 22.3-1.1 32.9.8 2.8 2.3 4.8 3.5 7.9 1.5 3.9 1.6 8.9 2.5 13.7.8 4.3 2.5 8 3.6 11.8.6 1.9.6 4.1 1.2 5.9.9 2.7 2.3 5 3.1 7.7 2.5 8 4.2 17.2 6.4 26.4 1.4 6.1 2.2 12 4.6 17.2 2.1 4.5 5.3 8.3 7.2 13.5 1.5 4 2.3 9 3.6 13.6s3.2 9.6 3.6 13.6c.7 5.6.1 12.3-.7 18.3-1.6 11.5-2.7 23-3.7 34.8-.9 10.9-3.8 23-2.4 35.1.7 5.6 1.5 11.1 2.6 16.3 2.1 10.6 6.4 19.5 7.3 31.1.4 4.5-.2 10.3-.4 15-.2 6.1-.2 14.2-.2 20-.1 7.8 1.1 15.7-.2 21.2-.7 2.7-3.2 4.3-3.2 7.9.1 2.6 1.8 3.7 2.1 6.5-1.4 1.6-3.3 1.6-3.9 3.7-.5 1.9-.4 5.3-.5 7.8l-.3 7.8c-.3 5.3.7 11.6-.1 16.4-.2 1.5-.9 3.1-1.5 4.8-.5 1.7-.9 3.5-1.2 4.8-.6 2.2-2.4 5-2.5 6.4-.3 3.9 1.6 9.2 2.3 13.4l2.3 13.4c1.7 8.6 4.9 17 1.4 25.7-7.2-.4-9.1 6.7-11.3 13.3-1.3 3.8-2.7 7.5-4.2 10.3-4.3 7.7-9.8 12.4-12.7 19.9-9.3 5.2-15 14.9-18.1 27.9-3 3.4-7.9 4.3-11.2 7.3-3.1.4-6.2-.7-8.7 0-2.4.7-5 3.3-7.2 5.4-5.5 5.3-10.5 12.4-12.9 21.1-6 4.8-12.7 8.1-18.9 13-6.1 4.8-13.4 6.8-18.5 13.3-1.9 1-4 1.8-4.4 4.7 19-1.3 39.9.3 60.3 2.2 14.2 1.3 28.9.6 41.1 1.7 3 .3 6 .7 9.4-.1.9-.2 2.1-.9 3.1-1 1.5-.2 3.3.4 4.9.4 7.3-.1 15.8.9 23.2-.9 1.6-.4 3.1-.6 4.7-1.1 1.4-.4 2.7-1.2 4.2-1.7 8.6-2.4 19.1-.6 27.3-5.8 5.2-2.7 12.2.3 18.7-.4.2-1.6.7-2.9.6-5.1 2.4-1.6-16.7-1061.1-18.3-1087.9z" fill="#192021"/><g fill="#333"><path d="M1942.9 77.7l-3.7.1 4 259.5-.3-259.6z"/><path d="M1943.2 337.3l-4-259.5c-33.6 1.1-284.4 12.8-295.1 18 5.6 3.3 9.6 8.8 14.8 13.2 1.6 1.4 3.2 3.5 4.8 4.6 2.7 1.8 6.1 1.7 9 3.2 4.5 2.4 5.7 9.6 8.5 14 1.3-.8 1.7-2.9 3-4 .7-.6 2.1-.6 3.1-1.3 2.2-1.4 3.5-4.9 5.9-6.8 7.4-6 21.1-4 25.5 3.5 1.9 3.2 3.7 8.5 3.7 15.1 19.9-2.8 35 6.2 38.1 29.3.5 1.2 1.3-2 2.6-1.6 1.5-3 3.4-3.3 7.3-4.2 2.6-.6 4.3-1.6 6.7-1.2 3.4.7 5.9 3.8 8.1 5.4 4.5 13.1-5.3 25.7-15.8 21.5 1.4 4 .6 5.3-1.2 8.4-1.4 2.5-2.9 5.4-5.9 5.9-5.9 1.1-11.7-3.6-12.1-11.8-.7-.3-1.4 1.9-2.4 3.1-1.9 2.3-3.9 4.7-7.7 4.8.3 3.3 1.6 6.1 2.6 9.2 1 3 1.2 6.6 2.4 9.5.6 1.4 2.5 2.9 4.1 4.6s2.8 3.7 3.9 4.6c2.4 2 6.1 3.7 9.1 6.2 4.3 3.8 7.1 9.7 12.9 7-.8 1.6-2.3 2.1-4.2 2.3.7 3 1.8 6.4 2.9 10.1.9 3.2 1.7 7.4 3.1 9.7 1 1.6 3.1 2.8 4.3 4.3 3.5 4.3 7.9 9.6 9.9 16.4.9 3.2 1.1 5.6 3.3 7.6 1.1 1 3.3 2.1 5.2 3.4s4.1 3.2 5 3.4c2.5.4 6.7-1.7 9.5-2.5 5.6-1.4 10.6-2 13.9-5.9.8-.9 1.3-2.4 1.9-3.4 2.2-2.9 4.6-5.5 7.9-7.5 1.2-5.7.8-12.1 1.6-17.7 1.3 4.5.4 11.4-.1 16.1 4.6.9 5.9-4.8 8.8-7.8 1.9-2 4.5-2.6 6.4-4.4 1.8-1.8 5.3-8.3 6.5-11.3 1.5-4 1.9-8.7 3.3-12.4.2 2.3-.3 6.6-1.6 7.5-.2 7.1-4.4 11.7-6.5 17.3-5.1 2.3-9.1 6-11.3 11.8-4.8 1.5-9 3.8-12.1 7.3-1.5 1.8-2.1 3.8-3.5 5.5-5.4 6.8-14.2 6-23.9 8.7-1.8.5-3.3 2-5.8 1.7 2 8.1 2.8 17.2 4.6 25.8.6 2.7 1.6 5.3 2 8 .8 7.2.8 15.3 1.8 22.9.3 2.5.8 6.5 1.5 8.9.9 2.9 3.5 4.5 5.1 7l7.7-3.9c2.7-1.3 5.7-1.4 8.2-3 4-2.6 6.5-7.9 10.5-10.3 2.7-1.6 6.1-.8 9.1-2.4.8-.5 1.4-1.9 2.4-2.8 1.2-1.1 2.9-1.6 4-2.5 1-1 1.4-2.3 2.4-3.1-.1 3.8-4 5.4-6.1 7.7 2.9 0 5.4-.4 7.8-1.2s3.9-2.4 5.9-3.8c2.8-1.9 5.4-3.1 7.7-5.7 2.2-2.5 3.6-5.6 6.1-7.7-1.5 2.4-2.8 5-4.5 7.3-2.3 3-5.3 4.3-8.1 6.6-1.2 1-2.2 2.8-3.5 3.7-6.3 4.2-15.5 1.4-22.2 5.6-3.9 2.5-7.9 8.5-11.4 10.6-2.2 1.3-4.7 1.4-6.9 2.4-4.4 1.9-8.1 4.3-11.4 7 1.7 6.1 3.9 11.5 5.5 17.7 3.2.4 6.7 1.2 10 .5-1.9 2.4-5.4 1.7-8.4 1.5-.8.7.9 2.9 1.4 3.8 2.5.7 6.2-.2 8.1 1.5-1.3.2-4.6.8-6.5.2-.2 2 1.2 3.7 1.9 5.3 5.4 12.2 10.3 28 15.6 41 1.4 3.4 3.8 7.4 4 11.5.1 1.6-.5 2.9-.6 4.5-.3 4.1.8 8.5-.2 12 2.7 1.8 5.9 2.9 9 4.1-2.6 1.1-6.2-1.4-9-2 .7 4.5 2.9 7 4.9 9.7 5.6.8 11.6 6.9 16.7 1.1-2.3 8.7-12.3.7-17.4 1.3-1.8-.1-2.8-3.1-3.9-3.1-.7 8.6-2.6 16.7-1 25.7.6 3.4 2.3 6.6 3.6 10 2.6 7 2.5 15.4 4.9 22.5.6 1.7 1.4 3.1 1.9 4.7.6 1.8.7 3.9 1.2 5.6.6 1.8 1.7 3.2 2.3 5 3.2 8.9 5.2 19.8 7.5 30.2 1 4.3 1.5 8.5 2.9 12.1 2.7 6.9 7 12.2 9.1 20 1 3.8 2.3 7.6 3.4 11.5 2.1 7.4 4.1 14 3.4 24.1-.4 5.5-1.6 11-2.1 16.8l-1.6 18.6c-1.6 15.2-5.1 29.2-3.1 44.1.7 5.5 1.6 11.7 3 17.5 1 4 2.5 7.8 3.6 11.8 1 3.7 2.1 7.7 2.7 11.6 1.8 11.4 0 26.4 0 40.7 0 7.5 1.2 15.3-.2 20.9-.7 2.7-2.3 3.6-3 6.7 1 2.3 2.9 2.5 4.1 4.6 1.9 3.4 2.1 8.7 4.1 12.7.4.9 1.4 1.4 1.8 2.3 1.4 2.5 2.5 6.9 4.2 8.8 2.4 2.7 6 2.6 9 4.4 2.6 1.6 4.7 4.9 7.7 5.4 5.3.8 8.2-4.6 11.9-4.6-3.5 2.3-6.1 5.7-10.6 6.7-.7 1.1 2.2 2.2 2.5 3.8-1.5.2-3-2.3-4.1-3.7-3.2-1.2-5.8-4.3-8.4-6-3.5-2.1-6-2-8.3-4.2-2.4-2.3-3.2-5.8-5.1-9.4-2.1-4-4.8-7.3-7.4-11.7-.7 1-2.6.6-3.3 1.6-.6 4.9-.7 9.8-1 15.3-.3 5.3.6 11 .1 16.4-.5 5.8-4.3 10.9-4.8 16 3 6.3 8.1 9.6 12.6 13.9-5.2-2.3-8.9-6.7-12.7-10.9.8 4.6 1 7.8 1.8 12.8 1.4 8.6 4.5 17.8 5.2 25.2.6 5.5-.5 11.4-2.6 13.9 5.2 3 12.4 3.6 18.6 4.4-6.1.9-15.7-.5-20.8-4-.8.6-2.4.3-3.1 1 2 1.7 4.7 2.3 7 3.6-3.2.9-5.9-1.5-8.5-2.4-2.6 5.9-4.2 13-7.2 18.5 4.2 5.6 9.7 9.2 16.3 11.3-6.6-.1-12.4-5.3-17.2-9.8-2 3.6-4.7 6-6.9 9.5-2.3 3.7-4.2 9.5-7.5 12.2-2.5 2.1-4.9 3-7 5.7-3.2 4-6.5 9.5-7.9 16.4 6.6-.6 13.6 3.2 19.1 6.1-2.7-.8-6.8-2.2-10.8-3.5-3-.9-9.5-3.3-10 2.2 8.8 2.3 16.1 6.7 23.6 10.7-3.7-.8-7.7-2.9-12.1-4.9-4.1-1.9-8.8-5.1-13-4.3-2.8.6-6.2 3.8-9 4.8 2.4 2.8 5.7 4.6 8.4 7.7.8.9 1.5 2.6 2.8 4.1 1.1 1.3 2.5 2.4 2.8 3.8.7 4.7-3 10.2-5.8 12.2-1.2.8-2.9.8-4.2 1.7-1.7 1.1-2.6 3.4-4.2 3.7-1.6.4-3.8-.6-5.8-.4-4.5.5-8.2 2.7-13.3 2-1.7-.2-3.9-1.4-5.4-2.5-1.6-1.1-3.5-4.5-4.8-4.6-2.7-.3-6.6 5.2-9 6-7.3 2.6-12.8 7.6-19.4 11.2-4.8 2.6-9.2 6.1-12.7 9.5 2.5-1.3 5.2-.1 7.8 0 11.7.3 24.6-.8 36.4.4 5.3.6 10.6 2 15.9 2.4 11.1.8 22.2 0 33.5 1.1.9 0 .9 0 .6-.9 4.7 2.1 9.8 0 14.7-.6 1.6-.2 3.3.6 4.9.7 2.7.2 5.4-.7 8-.6 3.9.2 7.8 1.6 11.6 1 10.1-1.4 19.5-5.5 29.7-6.5 2.4-.2 4.9.1 7.1-.6 3.1-1 5.9-3.6 9.3-4.2 4.9-.9 9.2 2.3 14.1.7.5-2 .5-4.8-.4-6.3.2-8.3-1-446.9-1.6-740.5z"/></g><path d="M1788.8 199.9c-4.4-.8-12.3 4.2-12.9 10.4-.3 3 0 10.9.5 12.5 2.1 7.6 15.9 8.1 20.1 1.6 2.4-3.6 5-12.8 1.9-17.7-.6-1-3.1-3.6-4.1-4.3-1.5-1.2-3.7-2.2-5.5-2.5z" fill="#192021"/><g fill="#333"><path d="M1794.7 223.9c-4.6 5.5-12.4 4-17-.8-.6-3.9.4-8.8-.3-12.8 2-6.2 8.9-10.9 14.6-7.1.3.8-1.2.8-.4 1.2 9.6.3 7.6 14.1 3.1 19.5zm-88.4-66.9c-3.8 1-11.7 1-15.1-3-2-2.4-3.4-2.7-4.9-5.8-1.1-2.2-4.6-5.9-5.1-8.5-.7-3.7 1.5-8.4 2.5-9.7 1.2-1.4 3.2-1.5 4.6-2.6 2.2-1.7 3.7-5 5.9-6.8 6.9-5.7 16.7-3.3 22.8 3 1.3 4.2 4.1 8.8 3.2 14.2-8.6 3-9.9 10.5-13.9 19.2zm24.8-18.3c3.2.3 7 1.7 9.9 2.9 6.5 2.8 9.3 5.7 13.2 12 3.5 5.7 6.4 12.5 4.2 19.9-.8 2.5-3.9 5.2-5.6 7.7-3.3 4.9-5.9 12.7-11.5 13.3-2.1.2-5-.8-7.6-1.2-6.7-1-9.3-2.5-13.7-6.3-4-3.5-6.4-6.6-8.9-11.9-1.5-3.2-3-5.6-3.3-8.8-.5-6 1.5-8.6 2.9-12.4.9-2.4 1.3-5.2 2.3-7 1.7-2.9 4.3-4 5.9-5.6.9-.7.8.3 1.8.2 1.8-2.9 7.3-3 10.4-2.8zm31 29c2.3-3.9 9.2-7.4 14.8-6.5 3.2.5 7.2 4.2 7.9 6.3 2.4 6.8-2.3 15.2-6.8 17.6-5.2 2.8-10.5-1.1-14.8-4.2-.5-.7-.8-1.8-1.6-2-.4-2.4-1-4.5-1.7-6.5.9-1.4 2.1-2.3 2.2-4.7zm-1.6 12c2.2 4.7 9.7 4.4 8.3 11.9-.2 1.1-2.9 5.6-3.4 6.1-2.7 2.5-6.6 1.7-9.1.4-3.2-1.7-5-6.3-4.7-12.4 2.6-3.6 5-7.5 7.8-10.8.6 1.9.5 3.5 1.1 4.8zm126.7 678.8c-.9-1.9-2-3.5-3.2-5 0-1.4-.5-2.1-.7-3.3 2.3 1 3.7 6.4 3.9 8.3zm-91.9 200c.8-1.7 1.1-3.4 1.9-5.2 1.2-2.8 3.7-4.8 6.1-7.1 2.2-2.1 4.6-5.4 6.8-6.5 3.7-2 7.6 1 10.9-.7 2.8 1.7 4.9 3.7 7.5 6.6 1.4 1.6 6.1 6 6.4 8.4.5 3.5-2.7 8.7-4.9 10.4-.9.7-2.5.6-3.8 1.3-1.3.8-2.3 2.5-3.3 3.1-2 1.2-3.6.1-6 .2-4.9.3-9.4 2.7-13.6 2-4.7-.8-7.4-4.5-10-7.7.7-1.6 1.3-3.3 2-4.8z"/><path d="M1644.2 95.7c5.6 3.3 9.6 8.8 14.8 13.2 1.6 1.4 3.2 3.5 4.8 4.6 2.7 1.8 6.1 1.7 9 3.2 4.5 2.4 5.7 9.6 8.5 14 1.3-.8 1.7-2.9 3-4 .7-.6 2.1-.6 3.1-1.3 2.2-1.4 3.5-4.9 5.9-6.8 7.4-6 21.1-4 25.5 3.5 1.9 3.2 3.7 8.5 3.7 15.1 19.9-2.8 35 6.2 38.1 29.3.5 1.2 1.3-2 2.6-1.6 1.5-3 3.4-3.3 7.3-4.2 2.6-.6 4.3-1.6 6.7-1.2 3.4.7 5.9 3.8 8.1 5.4 4.5 13.1-5.3 25.7-15.8 21.5 1.4 4 .6 5.3-1.2 8.4-1.4 2.5-2.9 5.4-5.9 5.9-5.9 1.1-11.7-3.6-12.1-11.8-.7-.3-1.4 1.9-2.4 3.1-1.9 2.3-3.9 4.7-7.7 4.8.3 3.3 1.6 6.1 2.6 9.2 1 3 1.2 6.6 2.4 9.5.6 1.4 2.5 2.9 4.1 4.6s2.8 3.7 3.9 4.6c2.4 2 6.1 3.7 9.1 6.2 4.3 3.8 7.1 9.7 12.9 7-.8 1.6-2.3 2.1-4.2 2.3.7 3 1.8 6.4 2.9 10.1.9 3.2 1.7 7.4 3.1 9.7 1 1.6 3.1 2.8 4.3 4.3 3.5 4.3 7.9 9.6 9.9 16.4.9 3.2 1.1 5.6 3.3 7.6 1.1 1 3.3 2.1 5.2 3.4s4.1 3.2 5 3.4c2.5.4 6.7-1.7 9.5-2.5 5.6-1.4 10.6-2 13.9-5.9.8-.9 1.3-2.4 1.9-3.4 2.2-2.9 4.6-5.5 7.9-7.5 1.2-5.7.8-12.1 1.6-17.7 1.3 4.5.4 11.4-.1 16.1 4.6.9 5.9-4.8 8.8-7.8 1.9-2 4.5-2.6 6.4-4.4 1.8-1.8 5.3-8.3 6.5-11.3 1.5-4 1.9-8.7 3.3-12.4.2 2.3-.3 6.6-1.6 7.5-.2 7.1-4.4 11.7-6.5 17.3-5.1 2.3-9.1 6-11.3 11.8-4.8 1.5-9 3.8-12.1 7.3-1.5 1.8-2.1 3.8-3.5 5.5-5.4 6.8-14.2 6-23.9 8.7-1.8.5-3.3 2-5.8 1.7 2 8.1 2.8 17.2 4.6 25.8.6 2.7 1.6 5.3 2 8 .8 7.2.8 15.3 1.8 22.9.3 2.5.8 6.5 1.5 8.9.9 2.9 3.5 4.5 5.1 7l7.7-3.9c2.7-1.3 5.7-1.4 8.2-3 4-2.6 6.5-7.9 10.5-10.3 2.7-1.6 6.1-.8 9.1-2.4.8-.5 1.4-1.9 2.4-2.8 1.2-1.1 2.9-1.6 4-2.5 1-1 1.4-2.3 2.4-3.1-.1 3.8-4 5.4-6.1 7.7 2.9 0 5.4-.4 7.8-1.2s3.9-2.4 5.9-3.8c2.8-1.9 5.4-3.1 7.7-5.7 2.2-2.5 3.6-5.6 6.1-7.7-1.5 2.4-2.8 5-4.5 7.3-2.3 3-5.3 4.3-8.1 6.6-1.2 1-2.2 2.8-3.5 3.7-6.3 4.2-15.5 1.4-22.2 5.6-3.9 2.5-7.9 8.5-11.4 10.6-2.2 1.3-4.7 1.4-6.9 2.4-4.4 1.9-8.1 4.3-11.4 7 1.7 6.1 3.9 11.5 5.5 17.7 3.2.4 6.7 1.2 10 .5-1.9 2.4-5.4 1.7-8.4 1.5-.8.7.9 2.9 1.4 3.8 2.5.7 6.2-.2 8.1 1.5-1.3.2-4.6.8-6.5.2-.2 2 1.2 3.7 1.9 5.3 5.4 12.2 10.3 28 15.6 41 1.4 3.4 3.8 7.4 4 11.5.1 1.6-.5 2.9-.6 4.5-.3 4.1.8 8.5-.2 12 2.7 1.8 5.9 2.9 9 4.1-2.6 1.1-6.2-1.4-9-2 .7 4.5 2.9 7 4.9 9.7 5.6.8 11.6 6.9 16.7 1.1-2.3 8.7-12.3.7-17.4 1.3-1.8-.1-2.8-3.1-3.9-3.1-.7 8.6-2.6 16.7-1 25.7.6 3.4 2.3 6.6 3.6 10 2.6 7 2.5 15.4 4.9 22.5.6 1.7 1.4 3.1 1.9 4.7.6 1.8.7 3.9 1.2 5.6.6 1.8 1.7 3.2 2.3 5 3.2 8.9 5.2 19.8 7.5 30.2 1 4.3 1.5 8.5 2.9 12.1 2.7 6.9 7 12.2 9.1 20 1 3.8 2.3 7.6 3.4 11.5 2.1 7.4 4.1 14 3.4 24.1-.4 5.5-1.6 11-2.1 16.8l-1.6 18.6c-1.6 15.2-5.1 29.2-3.1 44.1.7 5.5 1.6 11.7 3 17.5 1 4 2.5 7.8 3.6 11.8 1 3.7 2.1 7.7 2.7 11.6 1.8 11.4 0 26.4 0 40.7 0 7.5 1.2 15.3-.2 20.9-.7 2.7-2.3 3.6-3 6.7 1 2.3 2.9 2.5 4.1 4.6 1.9 3.4 2.1 8.7 4.1 12.7.4.9 1.4 1.4 1.8 2.3 1.4 2.5 2.5 6.9 4.2 8.8 2.4 2.7 6 2.6 9 4.4 2.6 1.6 4.7 4.9 7.7 5.4 5.3.8 8.2-4.6 11.9-4.6-3.5 2.3-6.1 5.7-10.6 6.7-.7 1.1 2.2 2.2 2.5 3.8-1.5.2-3-2.3-4.1-3.7-3.2-1.2-5.8-4.3-8.4-6-3.5-2.1-6-2-8.3-4.2-2.4-2.3-3.2-5.8-5.1-9.4-2.1-4-4.8-7.3-7.4-11.7-.7 1-2.6.6-3.3 1.6-.6 4.9-.7 9.8-1 15.3-.3 5.3.6 11 .1 16.4-.5 5.8-4.3 10.9-4.8 16 3 6.3 8.1 9.6 12.6 13.9-5.2-2.3-8.9-6.7-12.7-10.9.8 4.6 1 7.8 1.8 12.8 1.4 8.6 4.5 17.8 5.2 25.2.6 5.5-.5 11.4-2.6 13.9 5.2 3 12.4 3.6 18.6 4.4-6.1.9-15.7-.5-20.8-4-.8.6-2.4.3-3.1 1 2 1.7 4.7 2.3 7 3.6-3.2.9-5.9-1.5-8.5-2.4-2.6 5.9-4.2 13-7.2 18.5 4.2 5.6 9.7 9.2 16.3 11.3-6.6-.1-12.4-5.3-17.2-9.8-2 3.6-4.7 6-6.9 9.5-2.3 3.7-4.2 9.5-7.5 12.2-2.5 2.1-4.9 3-7 5.7-3.2 4-6.5 9.5-7.9 16.4 6.6-.6 13.6 3.2 19.1 6.1-2.7-.8-6.8-2.2-10.8-3.5-3-.9-9.5-3.3-10 2.2 8.8 2.3 16.1 6.7 23.6 10.7-3.7-.8-7.7-2.9-12.1-4.9-4.1-1.9-8.8-5.1-13-4.3-2.8.6-6.2 3.8-9 4.8 2.4 2.8 5.7 4.6 8.4 7.7.8.9 1.5 2.6 2.8 4.1 1.1 1.3 2.5 2.4 2.8 3.8.7 4.7-3 10.2-5.8 12.2-1.2.8-2.9.8-4.2 1.7-1.7 1.1-2.6 3.4-4.2 3.7-1.6.4-3.8-.6-5.8-.4-4.5.5-8.2 2.7-13.3 2-1.7-.2-3.9-1.4-5.4-2.5-1.6-1.1-3.5-4.5-4.8-4.6-2.7-.3-6.6 5.2-9 6-7.3 2.6-12.8 7.6-19.4 11.2-4.8 2.6-9.2 6.1-12.7 9.5 2.5-1.3 5.2-.1 7.8 0 11.7.3 24.6-.8 36.4.4 5.3.6 10.6 2 15.9 2.4 11.1.8 22.2 0 33.5 1.1.9 0 .9 0 .6-.9 4.7 2.1 9.8 0 14.7-.6 1.6-.2 3.3.6 4.9.7 2.7.2 5.4-.7 8-.6 3.9.2 7.8 1.6 11.6 1 10.1-1.4 19.5-5.5 29.7-6.5 2.4-.2 4.9.1 7.1-.6 3.1-1 28.3 11.2 31.6 10.6.1 0 .3 0 .5-.1-12.7-339.1-7.1-769.2-15.2-1109.6-75.9 3-291.9 2.8-344 7.3-10.2 2 50.8 99.3 49.4 100z"/></g></g><radialGradient id="F" cx="1357.205" cy="591.642" r="774.113" gradientTransform="matrix(0.753 0 0 -1 636.564 1078.6614)" gradientUnits="userSpaceOnUse"><stop offset="0" stop-color="#67cdf5" stop-opacity=".7"/><stop offset="1" stop-color="#2f3a30"/></radialGradient><path d="M1814.5 371.1l7.7-3.9c2.7-1.3 5.7-1.4 8.2-3 2.4-1.6 4.3-4.2 6.4-6.5-16.7 11.8-17.1-12.7-17.5-32.6-.5-22.1 8.3-27.9 16.1-45-.1 0-.2.1-.2.1-.9.7-1.7 1.5-2.4 2.3-1.5 1.8-2.1 3.8-3.5 5.5-5.4 6.8-14.2 6-23.9 8.7-1.8.5-3.3 2-5.8 1.7 2 8.1 2.8 17.2 4.6 25.8.6 2.7 1.6 5.3 2 8 .8 7.2.8 15.3 1.8 22.9.3 2.5.8 6.5 1.5 8.9.9 3 3.5 4.6 5 7.1zm3.2 22.3c-1.6-6.2-3.8-11.6-5.5-17.7 3.3-2.7 7.1-5.2 11.4-7 2.2-.9 4.7-1.1 6.8-2.3-1.6 2.4-2.7 5-2.8 7.6-.2 9.1 11.5 27.2 15.8 33.7 4.5 6.7 8.8 12.3 10.4 21 1.3 6.6-1.3 14.5 2.9 20 7.1 9.4 24.7 1.8 33.4 2.2-4.9 5.9-13.9 5.3-17.5 11.1 5.7.7 11.3 1 17 1-5 9.7-17.1 7.4-21.3 15-3.4 6.2 1.4 18.1.6 25.1-.5 5.1-3.2 8.7-3.4 14.2-.2 6.3 2.4 12.7 2.9 18.9 1.3 13.6-.2 26.5 1.9 39.6 1.7 10.7 1.2 22.4 3.8 32.4 1.5 5.8 5 11.1 7.1 16.3s4.4 12.4 7.5 17.2c5.7 8.7 10.5 7.6 13.2 20.7 4.3 21.1 4.6 43.3 3 64.3-1.7 23.7 10.2 38.1-12.8 26.2 1.9 6.8 6.1 13.4 10.3 18.5-4.7-1-8.5-5.6-12-10.1 4 14 11.2 25.2 19.3 35.3-8.3 14.4-1.2 41.3-2.1 57.9-1.5-.4-4.2.7-5.2.5 2.1 5.3 8.3 11.6 5.5 17.5-7.1-2.5-13.4-11.1-18.3-18 .5 5 1.4 9 2.6 12.6-.1-.2-.2-.5-.4-.7-.5-.9-1.4-1.4-1.8-2.3-2-4-2.1-9.3-4.1-12.7-1.2-2.1-3.1-2.4-4.1-4.6.6-3.1 2.3-4 3-6.7 1.4-5.7.2-13.5.2-20.9 0-14.3 1.8-29.2 0-40.7-.6-3.9-1.7-7.9-2.7-11.6-1.1-4-2.6-7.8-3.6-11.8-1.4-5.9-2.3-12.1-3-17.5-2-14.9 1.5-28.9 3.1-44.1.7-6.2 1.1-12.5 1.6-18.6.5-5.8 1.7-11.4 2.1-16.8.7-10.1-1.3-16.6-3.4-24.1l-3.4-11.5c-2.1-7.8-6.4-13.1-9.1-20-1.4-3.6-2-7.9-2.9-12.1-2.4-10.4-4.4-21.4-7.5-30.2-.6-1.8-1.7-3.2-2.3-5-.6-1.7-.6-3.8-1.2-5.6-.5-1.6-1.3-3-1.9-4.7-2.4-7.1-2.3-15.5-4.9-22.5-1.3-3.4-3-6.6-3.6-10-1.5-9.1.3-17.2 1-25.7 1.1.1 2.1 3 3.9 3.1 5.1-.6 15 7.5 17.4-1.3-5.1 5.8-11.2-.4-16.7-1.1-2-2.7-4.2-5.2-4.9-9.7 2.7.7 6.4 3.2 9 2-3.1-1.3-6.3-2.3-9-4.1 1-3.4-.1-7.8.2-12 .1-1.6.7-2.9.6-4.5-.3-4.1-2.7-8.1-4-11.5-5.3-13-10.2-28.7-15.6-41-.7-1.6-2.1-3.3-1.9-5.3 1.9.6 5.1 0 6.5-.2-1.9-1.7-5.5-.8-8.1-1.5-.5-.9-2.2-3.2-1.4-3.8 3.1.2 6.6.9 8.4-1.5-3.3.2-6.8-.5-10-.9zM1740.2 197c3.8-.1 5.8-2.5 7.7-4.8 1-1.2 1.7-3.4 2.4-3.1.3 6.6 4.1 10.9 8.6 11.8 4.6 9.3 14.2 15.2 19.1 25 3.8 7.7 2.1 11.5 10.6 11.2 9.4-.4 17-13.9 24-21.1-3.1 11.6-9.9 20.9-15.6 30.1 11 1.2 20.7-14.7 28.2-23.4-5.3 9.5-13.9 25.3-17.3 36.2-1.3 4.4-3.9 17.3-3.8 22 6.1 4 8.6 5.7 15.3 5 4.7-.5 8.1-2.7 12.3-4.5-.6.7-1.1 1.4-1.6 2.1-.7.9-1.1 2.4-1.9 3.4-3.3 3.9-8.3 4.5-13.9 5.9-2.9.7-7 2.9-9.5 2.5-.9-.2-3.1-2.1-5-3.4s-4.1-2.4-5.2-3.4c-2.2-2-2.3-4.5-3.3-7.6-2-6.8-6.4-12-9.9-16.4-1.2-1.5-3.3-2.7-4.3-4.3-1.4-2.3-2.2-6.6-3.1-9.7-1.1-3.6-2.2-7.1-2.9-10.1 1.9-.2 3.4-.7 4.2-2.3-5.7 2.7-8.5-3.2-12.9-7-2.9-2.6-6.7-4.2-9.1-6.2-1.1-1-2.3-3-3.9-4.6-1.6-1.7-3.5-3.2-4.1-4.6-1.2-2.9-1.4-6.5-2.4-9.5-1.1-3.1-2.5-5.9-2.7-9.2zm96 856.3c-.2-1.4-1.6-2.5-2.8-3.8-1.2-1.4-2-3.2-2.8-4.1-2.8-3.1-6-4.9-8.4-7.7 2.9-1 6.2-4.3 9-4.8 4.2-.9 8.9 2.4 13 4.3 4.4 2.1 8.5 4.1 12.1 4.9-7.6-4-14.9-8.4-23.6-10.7.5-5.5 7-3.1 10-2.2 4 1.2 8 2.7 10.8 3.5-5.5-3-12.5-6.8-19.1-6.1 1.4-6.9 4.7-12.4 7.9-16.4 2.1-2.6 4.5-3.6 7-5.7 3.3-2.8 5.2-8.5 7.5-12.2 2.2-3.6 4.9-5.9 6.9-9.5 4.8 4.6 10.5 9.7 17.2 9.8-6.6-2.1-12.1-5.7-16.3-11.3 3-5.5 4.6-12.6 7.2-18.5 2.7.8 5.3 3.3 8.5 2.4-2.3-1.3-5-1.9-7-3.6.7-.7 2.3-.4 3.1-1 3.7 2.5 9.7 3.9 15.1 4.2 4.2 10.3 11.2 17.5 13.7 28.6-6.3 1.7-12.5 1.5-18.8 2.4.9 1.2 1.8 4.2 2.7 5.4-5.9 5.4-13.2 1.6-19.6 4.9 2.1 9 10.6 16.9 16.3 22.1-7.4 4.9-20.1 3.7-25.6 11.8-3.6 5.4-2.5 14-7.7 18.5-6.5 5.8-11.4 1.8-16.7-1.7.5-1.4.6-2.5.4-3.5zM1651.3 92.1c4.1 6.1 23 13 27.6 17.2 4.7 4.3 10.6 4 15.3 8.4l.2.2c-.4.3-.8.5-1.1.8-2.3 1.9-3.7 5.4-5.9 6.8-1 .7-2.3.7-3.1 1.3-1.3 1.1-1.7 3.2-3 4-2.8-4.5-4-11.6-8.5-14-2.9-1.5-6.3-1.4-9-3.2-1.6-1.1-3.1-3.2-4.8-4.6-5.8-4.9-8.9-8.3-14.8-13.2-6-8.1-44.1-80.4-43.8-79.7 5 10.1 30.1 50.7 50.9 76zm120.5 985.9c3.7-2.5 7.5-4.9 11.9-6.5 2.4-.8 6.4-6.3 9-6 1.3.1 3.2 3.5 4.8 4.6l.9.6c-3.3 1.7-6.5 3.2-9.6 4.5-5.3 2.1-11.2 2.4-17 2.8zm117.8-149.5c1.9 13.3 7.9 26 11.6 38.4-4.4-5.2-8.9-11.4-12.8-17.4.3 5.4 1.4 9.9 3 14-4.5-.6-8.9-1.5-12.5-3.6 2.2-2.5 3.2-8.3 2.6-13.9-.7-7.4-3.8-16.6-5.2-25.2-.8-5-1-8.2-1.8-12.8 3.8 4.2 7.5 8.6 12.7 10.9-4.4-4.3-9.6-7.6-12.6-13.9.5-5.2 4.3-10.2 4.8-16 .5-5.4-.4-11.1-.1-16.4.3-5.4.4-10.4 1-15.3.8-1 2.6-.6 3.3-1.6 2.6 4.4 5.2 7.7 7.4 11.7 1.9 3.6 2.7 7.1 5.1 9.4.3.3.7.6 1 .8 2.6 5.1 5.6 10.2 8 17.5 4.9 14.6-.4 32.1 4.6 47.3-7.7-.3-13.4-9.9-20.1-13.9zm-203.3-780.3c-1.1-2.2-4.6-5.9-5.1-8.5-.7-3.7 1.5-8.4 2.5-9.7 1.2-1.4 3.2-1.5 4.6-2.6.7-.5 1.3-1.2 1.9-2 7.8 7.5 15.1 19.3 10 28-3 5.6-12.4-2.1-13.9-5.2zm24.6 26.9c-1.5-3.2-3-5.6-3.3-8.8-.5-6 1.5-8.6 2.9-12.4.9-2.4 1.3-5.2 2.3-7 1.7-2.9 7.3-8.5 13.9-8.2 9.1 12.3 15.5 33.2 9.9 46-3.4 5.9-9.4 6-15.3 3.5-.5-.4-.9-.8-1.4-1.2-4-3.5-6.4-6.6-9-11.9zm50.7 3.7c-.4-2.4-1-4.5-1.7-6.5.9-1.3 2.1-2.2 2.1-4.6 1.9-3.3 7.3-6.4 12.3-6.7 2.7 4.5 3.7 10.6 2.9 15.2-1.6 3.5-5 7.1-8.6 8.1-5.2-1.9-6.1-5.2-7-5.5zm-3.1 15.3c-.8 1.7-2 2.6-3.4 3.3-2.5-2.1-3.9-6.3-3.6-11.6l4.5-6.5c3.8 4.3 6 11.1 2.5 14.8zm36.8 864.4c.8-1.7 1.1-3.4 1.9-5.2 1.2-2.8 3.7-4.8 6.1-7.1 2.2-2.1 4.6-5.4 6.8-6.5 3.7-2 7.6 1 10.9-.7 2.8 1.7 4.9 3.7 7.5 6.6 1.4 1.6 6.1 6 6.4 8.4.5 3.5-2.7 8.7-4.9 10.4-.9.7-2.5.6-3.8 1.3-1.3.8-2.3 2.5-3.3 3.1-2 1.2-3.6.1-6 .2-4.9.3-9.4 2.7-13.6 2-4.7-.8-7.4-4.5-10-7.7.7-1.6 1.3-3.3 2-4.8z" fill="url(#F)"/></g></svg>