<svg xmlns="http://www.w3.org/2000/svg" xmlns:xlink="http://www.w3.org/1999/xlink" viewBox="0 0 1920 1080"><style><![CDATA[.B{isolation:isolate}.w,.E{mix-blend-mode:multiply}.BA{fill:#fff}.BB{opacity:.5}.BC{fill-rule:evenodd}.BD{fill:#c7e0ea}.BE{fill:#92c1c6}.BF{fill:#808061}.BG{fill:#5b979e}]]></style><defs><linearGradient id="A" x1="961.15" y1="1080" x2="961.15" y2="-.76" xlink:href="#Aq"><stop offset="0" stop-color="#dcd3a3"/><stop offset="1" stop-color="#4b8a8d"/></linearGradient><clipPath id="B"><path d="M-.1-.76h1922.5V1080H-.1z" fill="none"/></clipPath><linearGradient id="C" x1="180.15" y1="915.32" x2="180.15" y2="457.68" xlink:href="#Aq"><stop offset="0" stop-color="#8c977e" stop-opacity="0"/><stop offset="1" stop-color="#89947b"/></linearGradient><linearGradient id="D" x1="563.98" y1="898.93" x2="563.98" y2="769.52" xlink:href="#Aq"><stop offset="0" stop-color="#808061" stop-opacity="0"/><stop offset=".61" stop-color="#808061"/></linearGradient><linearGradient id="E" x1="563.98" y1="898.93" x2="563.98" y2="766.34" xlink:href="#Aq"><stop offset="0" stop-color="#dcc87a" stop-opacity="0"/><stop offset=".63" stop-color="#dcc87a"/></linearGradient><linearGradient id="F" x1="571.91" y1="892.39" x2="571.91" y2="783.99" xlink:href="#Aq"><stop offset="0" stop-color="#5b979e" stop-opacity="0"/><stop offset=".58" stop-color="#5b979e"/></linearGradient><linearGradient id="G" x1="529.95" y1="891.57" x2="529.95" y2="774.92" xlink:href="#Aq"><stop offset="0" stop-color="#b7dadd" stop-opacity="0"/><stop offset=".58" stop-color="#b7dadd"/></linearGradient><linearGradient id="H" x1="878.59" y1="900.95" x2="878.59" y2="764.86" xlink:href="#D"/><linearGradient id="I" x1="878.59" y1="900.95" x2="878.59" y2="763.84" xlink:href="#E"/><linearGradient id="J" x1="883.43" y1="895.12" x2="883.43" y2="774.58" xlink:href="#Aq"><stop offset="0" stop-color="#5b979e" stop-opacity="0"/><stop offset=".89" stop-color="#5b979e"/></linearGradient><linearGradient id="K" x1="732.99" y1="908.92" x2="732.99" y2="654.09" xlink:href="#D"/><linearGradient id="L" x1="700.28" y1="908.92" x2="700.28" y2="654.12" xlink:href="#E"/><linearGradient id="M" x1="732.98" y1="908.93" x2="732.98" y2="670.52" xlink:href="#Aq"><stop offset="0" stop-color="#5b979e" stop-opacity="0"/><stop offset=".83" stop-color="#5b979e"/></linearGradient><linearGradient id="N" x1="737.99" y1="908.94" x2="737.99" y2="670.76" xlink:href="#M"/><linearGradient id="O" x1="747.69" y1="908.95" x2="747.69" y2="671.24" xlink:href="#M"/><linearGradient id="P" x1="728.47" x2="728.47" y2="670.3" xlink:href="#M"/><linearGradient id="Q" x1="765.66" y1="908.97" x2="765.66" y2="672.13" xlink:href="#M"/><linearGradient id="R" x1="752.25" y1="908.95" x2="752.25" y2="671.46" xlink:href="#M"/><linearGradient id="S" x1="770.26" y1="908.97" x2="770.26" y2="672.35" xlink:href="#M"/><linearGradient id="T" x1="775.13" y1="908.98" x2="775.13" y2="672.59" xlink:href="#M"/><linearGradient id="U" x1="757.08" y1="908.96" x2="757.08" y2="671.7" xlink:href="#M"/><linearGradient id="V" x1="699.18" y1="908.92" x2="699.18" y2="671.96" xlink:href="#Aq"><stop offset="0" stop-color="#b7dadd" stop-opacity="0"/><stop offset=".78" stop-color="#b7dadd"/></linearGradient><linearGradient id="W" x1="694.03" x2="694.03" y2="672.43" xlink:href="#V"/><linearGradient id="X" x1="702.1" x2="702.1" y2="671.69" xlink:href="#V"/><linearGradient id="Y" x1="691.29" x2="691.29" y2="672.68" xlink:href="#V"/><linearGradient id="Z" x1="688.41" x2="688.41" y2="672.94" xlink:href="#V"/><linearGradient id="a" x1="713.83" x2="713.83" y2="670.62" xlink:href="#V"/><linearGradient id="b" x1="716.66" x2="716.66" y2="670.36" xlink:href="#V"/><linearGradient id="c" x1="704.89" x2="704.89" y2="671.44" xlink:href="#V"/><linearGradient id="d" x1="710.86" x2="710.86" y2="670.89" xlink:href="#V"/><linearGradient id="e" x1="197.23" y1="963.5" x2="197.23" y2="756.4" xlink:href="#D"/><linearGradient id="f" x1="138.02" y1="849.61" x2="257.34" y2="849.61" xlink:href="#E"/><linearGradient id="g" x1="153.97" y1="731.58" x2="243.21" y2="731.58" xlink:href="#E"/><linearGradient id="h" x1="166.1" y1="694.24" x2="233.85" y2="694.24" xlink:href="#E"/><linearGradient id="i" x1="197.48" y1="954.19" x2="197.48" y2="767.71" xlink:href="#J"/><linearGradient id="j" x1="363.91" y1="687.96" x2="363.91" y2="607.46" xlink:href="#E"/><linearGradient id="k" x1="389.89" y1="934.41" x2="389.89" y2="675.92" xlink:href="#D"/><linearGradient id="l" x1="351.31" y1="934.41" x2="351.31" y2="675.92" xlink:href="#E"/><linearGradient id="m" x1="352.29" y1="761.38" x2="435.76" y2="761.38" xlink:href="#E"/><linearGradient id="n" x1="393.49" y1="934.97" x2="393.49" y2="684.58" xlink:href="#F"/><linearGradient id="o" x1="1765.16" x2="1765.16" xlink:href="#C"/><linearGradient id="p" x1="1251.45" y1="953.75" x2="1251.45" y2="698.92" xlink:href="#D"/><linearGradient id="q" x1="1218.74" y1="953.75" x2="1218.74" y2="698.95" xlink:href="#E"/><linearGradient id="r" x1="1251.45" y1="953.76" x2="1251.45" y2="715.35" xlink:href="#M"/><linearGradient id="s" x1="1256.45" y1="953.77" x2="1256.45" y2="715.59" xlink:href="#M"/><linearGradient id="t" x1="1266.16" y1="953.78" x2="1266.16" y2="716.07" xlink:href="#M"/><linearGradient id="u" x1="1246.93" y1="953.76" x2="1246.93" y2="715.13" xlink:href="#M"/><linearGradient id="v" x1="1284.12" y1="953.8" x2="1284.12" y2="716.96" xlink:href="#M"/><linearGradient id="w" x1="1270.72" y1="953.78" x2="1270.72" y2="716.29" xlink:href="#M"/><linearGradient id="x" x1="1288.73" y1="953.8" x2="1288.73" y2="717.18" xlink:href="#M"/><linearGradient id="y" x1="1293.6" y1="953.81" x2="1293.6" y2="717.43" xlink:href="#M"/><linearGradient id="z" x1="1275.54" y1="953.79" x2="1275.54" y2="716.53" xlink:href="#M"/><linearGradient id="AA" x1="1217.65" y1="953.75" x2="1217.65" y2="716.79" xlink:href="#V"/><linearGradient id="AB" x1="1212.5" y1="953.75" x2="1212.5" y2="717.26" xlink:href="#V"/><linearGradient id="AC" x1="1220.57" y1="953.75" x2="1220.57" y2="716.52" xlink:href="#V"/><linearGradient id="AD" x1="1209.76" y1="953.75" x2="1209.76" y2="717.51" xlink:href="#V"/><linearGradient id="AE" x1="1206.88" y1="953.75" x2="1206.88" y2="717.77" xlink:href="#V"/><linearGradient id="AF" x1="1232.29" y1="953.75" x2="1232.29" y2="715.45" xlink:href="#V"/><linearGradient id="AG" x1="1235.12" y1="953.75" x2="1235.12" y2="715.19" xlink:href="#V"/><linearGradient id="AH" x1="1223.35" y1="953.75" x2="1223.35" y2="716.27" xlink:href="#V"/><linearGradient id="AI" x1="1229.32" y1="953.75" x2="1229.32" y2="715.72" xlink:href="#V"/><linearGradient id="AJ" x1="1413.01" y1="911.55" x2="1413.01" y2="461.51" xlink:href="#D"/><linearGradient id="AK" x1="1442.24" y1="912.94" x2="1442.24" y2="461.55" xlink:href="#E"/><linearGradient id="AL" x1="1382.4" y1="867.23" x2="1382.4" y2="474.63" xlink:href="#F"/><linearGradient id="AM" x1="1378.52" y1="867.72" x2="1378.52" y2="475.28" xlink:href="#F"/><linearGradient id="AN" x1="1374.46" y1="867.59" x2="1374.46" y2="476.39" xlink:href="#F"/><linearGradient id="AO" x1="1393.74" y1="863.96" x2="1393.74" y2="472.9" xlink:href="#F"/><linearGradient id="AP" x1="1389.63" y1="863.83" x2="1389.63" y2="473.51" xlink:href="#F"/><linearGradient id="AQ" x1="1397.67" y1="863.47" x2="1397.67" y2="472.33" xlink:href="#F"/><linearGradient id="AR" x1="1410.51" y1="863.73" x2="1410.51" y2="470.58" xlink:href="#F"/><linearGradient id="AS" x1="1414.41" y1="863.23" x2="1414.41" y2="470.04" xlink:href="#F"/><linearGradient id="AT" x1="1406.4" y1="863.6" x2="1406.4" y2="471.15" xlink:href="#F"/><linearGradient id="AU" x1="1441.33" y1="670.7" x2="1454.45" y2="670.7" xlink:href="#G"/><linearGradient id="AV" x1="1443.61" y1="670.97" x2="1457.47" y2="670.97" xlink:href="#G"/><linearGradient id="AW" x1="1446.04" y1="671.02" x2="1460.58" y2="671.02" xlink:href="#G"/><linearGradient id="AX" x1="1434.67" y1="668.88" x2="1445.57" y2="668.88" xlink:href="#G"/><linearGradient id="AY" x1="1437.13" y1="668.73" x2="1448.79" y2="668.73" xlink:href="#G"/><linearGradient id="AZ" x1="1432.36" y1="668.64" x2="1442.51" y2="668.64" xlink:href="#G"/><linearGradient id="Aa" x1="1424.89" y1="669.03" x2="1432.66" y2="669.03" xlink:href="#G"/><linearGradient id="Ab" x1="1422.54" y1="668.8" x2="1429.55" y2="668.8" xlink:href="#G"/><linearGradient id="Ac" x1="1427.36" y1="668.87" x2="1435.93" y2="668.87" xlink:href="#G"/><linearGradient id="Ad" x1="1579.49" y1="906.66" x2="1579.49" y2="748.84" xlink:href="#D"/><linearGradient id="Ae" x1="1579.49" y1="906.56" x2="1579.49" y2="748.84" xlink:href="#E"/><linearGradient id="Af" x1="1569.83" y1="898.59" x2="1569.83" y2="766.47" xlink:href="#F"/><linearGradient id="Ag" x1="1620.46" y1="896.57" x2="1620.46" y2="759.84" xlink:href="#G"/><linearGradient id="Ah" x1="1765.19" y1="687.96" x2="1765.19" y2="607.46" xlink:href="#E"/><linearGradient id="Ai" x1="1791.17" y1="934.41" x2="1791.17" y2="675.92" xlink:href="#D"/><linearGradient id="Aj" x1="1752.58" y1="934.41" x2="1752.58" y2="675.92" xlink:href="#E"/><linearGradient id="Ak" x1="1753.56" y1="761.38" x2="1837.03" y2="761.38" xlink:href="#E"/><linearGradient id="Al" x1="1794.76" y1="934.97" x2="1794.76" y2="684.58" xlink:href="#F"/><linearGradient id="Am" x1="1068.31" y1="912.54" x2="1068.31" y2="665.77" xlink:href="#D"/><linearGradient id="An" x1="1038.57" y1="912.54" x2="1038.57" y2="665.81" xlink:href="#E"/><linearGradient id="Ao" x1="1089.42" y1="912.06" x2="1089.42" y2="677.18" xlink:href="#F"/><linearGradient id="Ap" x1="1038.53" y1="906.86" x2="1038.53" y2="676.22" xlink:href="#G"/><linearGradient id="Aq" gradientUnits="userSpaceOnUse"/></defs><g class="B"><g><path d="M-.1-.76h1922.5V1080H-.1z" fill="url(#A)"/><g clip-path="url(#B)"><path class="E" d="M927.74 667.58l-.08-56.48-35.66 1.65V538.6h-5.6v-24.54H882l-3.25-22.55-3 22.55h-5.25v24.54h-5.62v47.78h-28.8l-3.4-41.2-89.88-1.65-1.7 42.84-47.3-.53-1.74 76.24-43.54-.23 2-80.53-30.3-9.25-33.8 5.9-1.73 47.1-16.94 25.5 3.08-112.15-12.12-5.9-.87-26.08-23.38-10.1-31.18 7.6-1.2 26.7-16.56 5.27-.95-58.78-28.9-13.56-52.83 9.25-1.12 126.57-7.15 1.88.48-25.87-9.52-2.63v-32.7l-24.25-10.93-38.1 6.73v33.64L311 572.1l1.73 67.3-21.65 9.25V530.87l-8.66-4.2v-34.5L263.4 480.4l-23.4 6.73v48l-16.45 7.57v90l-39.88 12.12v-29.64h-5.62v-24.54h-4.38l-3.25-22.55-3 22.55h-5.25v24.54h-5.62V653L143 657.14c-7.13-60.76-20.37-108-45.9-127.95 0 0-26.92 18.25-35.25 91.42l-27.45-.5-1.52 38.43-12.46-.07-104.3-31.7v-90l-16.45-7.57v-48l-23.38-6.73-19 11.78v34.5l-8.66 4.2v117.8L-173 633.5l1.73-67.3-12.12-2.52V530l-38.1-6.73-24.26 10.93v32.7l-9.52 2.63.5 25.87-7.16-1.88-1.12-126.62-52.82-9.25-28.9 13.56-.95 58.78-16.56-5.27-1.2-26.7-31.18-7.57-23.38 10.1-.86 26.08-12.13 5.9 3.06 112.2-16.94-25.5-1.73-47.1-33.78-5.9-30.3 9.25 2 80.16-44.42-.24-.17 1.07-7.6-.23-5.36 11.37h-46v247.74h1585V667.58z" opacity=".35" fill="url(#C)"/><path d="M606.58 773.6l-22.96-4.08-62.24.08 1.2 129.33 82.32-1.17 1.67-124.16z" fill="url(#D)"/><path d="M538.3 774.2l1.33 124.5-17.04.23-1.2-132.5 62.24-.08 22.96 7.26-68.28.6z" fill="url(#E)"/><path d="M554.66 880.45h5.48v-6.76h-5.5zm0 5h5.48v6.84l-5.48.06zm8.76-90.34l5.58.1v6.2l-5.58-.1zm-.06-10.66l5.58.13v6.13l-5.58-.13zm-9 54.36h5.5v6.52h-5.5zm.08 11.45h5.5v6.6h-5.5zm.07 11.5h5.5v6.68h-5.5zm9.23-11.46h5.57v6.58h-5.56zm.07 11.45h5.56v6.66h-5.56zm-.3-55.74l5.57.1v6.27l-5.58-.08zm.2 32.87h5.57v6.5h-5.56zm-9.4-11.27h5.5v6.45l-5.5-.05zm9.32.1l5.57.06v6.42h-5.57zm.34 57.7h5.55v6.82l-5.55.06zm-.4-68.46l5.57.08v6.35l-5.57-.07zm-18.7 10.58l5.43.06v6.46h-5.43zm.08 11.24h5.42v6.54h-5.42zm-.15-22.07l5.43.07v6.4l-5.43-.07zm-.08-11l5.44.1v6.3l-5.44-.08zM544.6 784l5.45.13v6.16l-5.44-.12zm.08 10.72l5.44.12v6.23l-5.44-.1zm.37 55.5h5.43v6.62h-5.42zm9.08-55.3l5.5.1v6.22l-5.5-.1zm-.07-10.7l5.5.13v6.15l-5.5-.12zm.2 32.57l5.5.08v6.37l-5.5-.07zm-9.14 45h5.42l.05 6.7h-5.42zm9.07-55.9l5.5.1v6.3l-5.5-.08zm-8.9 79.68h5.42v6.87h-5.4zm-.08-11.8h5.42v6.78h-5.4zm18.7-.08h5.56v6.74h-5.55zm29.1-88.54l5.8.14v6.07l-5.8-.13zm0 10.56l5.8.12v6.15l-5.8-.1zm-9.52 89.52l5.7-.05v6.8h-5.7zm-.1-23.5h5.7v6.62h-5.7zm.06 11.82h5.7v6.7h-5.7zm-.12-23.2h5.72v6.54h-5.7zm9.74-43.85l5.8.1v6.2l-5.8-.1zm.34 78.64h5.78v6.76l-5.78.06zm-.3-67.82l5.8.07v6.3l-5.8-.06zM583.28 839h5.7v6.46h-5.7zm10 22.73h5.78v6.6h-5.78zm.05 11.8h5.78v6.68h-5.78zm-20.27-88.84l5.66.13v6.1l-5.65-.12zm20.17 65.7h5.8v6.5h-5.78zm0-11.32h5.8v6.44h-5.8zm-.07-11.07l5.8.06v6.36h-5.8zm-19.78 10.94h5.64v6.48h-5.63zm-.06-11.15l5.65.06v6.4h-5.64zm.12 22.53h5.64v6.56h-5.63zm-.23-44.15l5.65.1v6.25l-5.65-.1zm-.06-10.86l5.65.1v6.18l-5.65-.1zm.12 21.74l5.64.08v6.33l-5.64-.07zm.23 44.7h5.64v6.64h-5.63zm9.57-66.23l5.73.12v6.16l-5.73-.1zm.16 32.4l5.7.05v6.4l-5.7-.05zm-.1-21.56l5.73.1v6.23l-5.72-.1zm0 10.85l5.73.08v6.3l-5.72-.07zm-9.6 56.4h5.63v6.72h-5.63zm.06 11.7h5.63v6.8l-5.62.05zM583 784.9l5.73.14v6.1L583 791z" fill="url(#F)"/><path d="M526 873.53l1.33.76-.06-6.8-1.33-.76zm0 5l1.33.76.06 6.86-1.33-.75zm1.5-90l1.37.82.05 6.32-1.36-.83zm-.1-10.87l1.37.84v6.25l-1.37-.83zm-1.8 53.92l1.34.8v6.58l-1.33-.78zm.1 11.55l1.33.78.06 6.65-1.33-.77zm.1 11.56l1.33.77.06 6.72-1.33-.76zm2.2-10.2l1.36.8.05 6.65-1.35-.8zm.1 11.55l1.35.78.06 6.72-1.36-.78zm-.47-56.4l1.36.82.05 6.38-1.36-.8zm.27 33.3l1.36.8.06 6.58-1.36-.8zm-2.36-12.65l1.34.8.05 6.52-1.33-.8zm2.27 1.34l1.36.8v6.5l-1.36-.8zm.5 58.17l1.35.77.05 6.86-1.35-.76zm-.58-69.08l1.36.8V818l-1.36-.8zm-4.44 8.26l1.32.78.06 6.52-1.32-.78zm.1 11.33l1.32.77.06 6.6-1.32-.77zm-.2-22.27l1.32.78.06 6.46-1.32-.78zm-.1-11.1l1.3.8.06 6.4-1.32-.8zm-.2-22l1.32.8.06 6.26-1.32-.8zm.1 10.9l1.32.8.05 6.32-1.32-.8zm.5 56l1.3.77.06 6.66-1.3-.76zm1.8-54.65l1.35.8v6.32l-1.34-.8zm-.1-10.88l1.35.82.05 6.26-1.35-.8zm.3 33.06l1.34.8v6.45l-1.34-.8zm-1.9 44l1.3.76.06 6.73-1.3-.75zm1.8-55.13l1.34.8.06 6.4-1.34-.8zm-1.58 79l1.3.74.06 6.88-1.3-.74zm-.1-11.82l1.3.75.06 6.8-1.3-.74zm4.53 2.6l1.35.78.06 6.78-1.35-.77zm6.53-85.87l1.44.87v6.23l-1.44-.87zm.08 10.82l1.44.87.05 6.3-1.44-.86zm-1.75 89.56l1.4.8v6.84l-1.4-.8zm-.18-23.73l1.4.8.05 6.7-1.4-.8zm.1 12l1.4.8.05 6.77-1.4-.8zm-.18-23.48l1.4.82v6.63l-1.4-.8zm2.1-43.32l1.43.86v6.36l-1.44-.86zm.6 79.9l1.43.8v6.84l-1.43-.8zm-.52-68.83l1.43.85v6.42l-1.43-.85zm-2.28 20.7l1.4.83v6.56l-1.4-.83zm2.62 24.44l1.42.83.05 6.7-1.42-.82zm.1 11.95l1.42.8v6.77l-1.42-.82zm-5.6-93l1.4.85v6.25l-1.4-.85zm5.4 69.56l1.43.83v6.62l-1.43-.83zm-.1-11.5l1.44.84v6.55l-1.43-.83zM535.1 826l1.43.84.05 6.5-1.43-.84zm-4.8 8.4l1.38.82.05 6.56-1.38-.8zm-.1-11.3l1.38.82v6.5l-1.38-.82zm.18 22.82l1.38.8.05 6.64-1.37-.8zm-.36-44.8l1.4.83.05 6.37-1.4-.83zm-.1-11.13l1.4.84v6.3l-1.4-.84zm.18 22.14l1.4.83v6.43l-1.4-.82zm.36 45.26l1.38.8.06 6.7-1.38-.8zm1.9-65.92l1.42.86v6.3l-1.4-.86zm.26 33l1.4.83.05 6.5-1.4-.83zm-.17-22l1.4.85v6.37l-1.4-.85zm.08 11.06l1.4.84v6.43l-1.36-.8zm-2 55.78l1.38.8v6.78l-1.37-.8zm.1 11.78l1.37.78.06 6.85-1.38-.77zm1.62-100.5l1.4.87v6.23l-1.4-.86z" fill="url(#G)"/><path d="M920.1 769.15l-24.16-4.3-52.85.06-6 136.03 76.14-1.15 6.88-130.65z" fill="url(#H)"/><path d="M848.25 769.8l-3.16 131-8.02.17 6.02-137.04 52.85-.06 24.16 5.3-71.85.64z" fill="url(#I)"/><path d="M853.2 785.56l62.3-1.33-.25 4.44L853.1 790l.1-4.44zm-.4 19l-.1 4.5 61.43-1 .26-4.58zm61.88-6.1l.26-4.56-61.94 1.2-.1 4.5zm-.87 15.3l-61.22.95-.1 4.42 61.06-.9zm-62 40.22q0 2.25-.1 4.47l59.6-.4.26-4.52zm.1-4.9l60-.52.26-4.52-60.17.57-.13 4.46zm1.44-68.65l62.48-1.4.25-4.43-62.68 1.4q-.04 2.13-.1 4.4zM852.4 824l-.1 4.43 60.72-.78.26-4.5zm-.3 15l60.33-.65.26-4.6-60.5.7-.1 4.5zm-.9 38.38l59.93-.86.24-4.14-60.08.9-.1 4.03zm-.28 13.6l-.1 4.2 59.27-.64.24-4.26zm59.7-5.37l.24-4.24-59.75.8-.08 4.2zm-59.22-17.1l60.26-1 .23-4.12-60.4 1-.1 4.06z" fill="url(#J)"/><g class="BB BE"><path d="M852.5 819.1l14.2-.2 4.46-4.5-18.58.3zm.2-10.04l24.14-.4 4.57-4.6-24.8.43-3.9 4.33zm33.75-10.1l4.58-4.63-25.73.5-4.14 4.58 25.3-.46zm9.8-9.9l4.48-4.52-26.66.57-4.05 4.5 26.23-.54zm18.42 9.38l.26-4.56-4.28.08-4.2 4.63 8.23-.15zM852.4 824l-.1 4.43 5.07-.06 4.46-4.5zm26.44-44.16l27.16-.6 4.48-4.52-27.6.64-4.05 4.5zm13.56 34.22l-4.1 4.52 9.84-.15 4.25-4.53-9.98.16zm-8.62 9.47l-4.1 4.5 9.53-.12 4.25-4.53-9.68.14zm18.04-19.83l-4.2 4.63 10.16-.18 4.36-4.64-10.3.2zm-36.95 50.15l-8.7.07-4.1 4.5 8.57-.06 4.23-4.5zm-9.8 10.45l-3.6.06-.08 3.85zm5.6-15.32l8.86-.07 4.24-4.52-9 .1-4.1 4.5zm13.5-14.85l-4.2 4.62 9.2-.1 4.34-4.63-9.34.1z"/></g><path d="M786.72 657.6l-65.27-3.5-42.2 9.2 9 245.63h87.4z" fill="url(#K)"/><path d="M721.3,654.12l-42,4.47,9,250.33h32.18Z" fill="url(#L)"/><path d="M731.8 670.52l.47 238.4h1.9v-238.3z" fill="url(#M)"/><path d="M737.08 670.76l-.55 238.18h1.9l1-238.08z" fill="url(#N)"/><path d="M747.8 671.24L745.2 909h1.92l3.06-237.6z" fill="url(#O)"/><path d="M726.8,670.3l1.44,238.63h1.9l-1-238.53Z" fill="url(#P)"/><path d="M767.66,672.13,761.25,909h1.94l6.87-236.74Z" fill="url(#Q)"/><path d="M752.85,671.46,749.27,909h1.93l4-237.38Z" fill="url(#R)"/><path d="M772.75 672.35L765.37 909h1.94l7.84-236.5z" fill="url(#S)"/><path d="M778.13 672.6l-8.4 236.4h1.95l8.86-236.28z" fill="url(#T)"/><path d="M758.18 671.7L753.6 909h1.93l5.05-237.15z" fill="url(#U)"/><path d="M696.08,672.08l5.08,236.84h1.13l-4.74-237Z" fill="url(#V)"/><path d="M690.24 672.55l6.46 236.37h1.12l-6.1-236.5z" fill="url(#W)"/><path d="M699.4 671.8l4.3 237.1h1.13l-4-237.23z" fill="url(#X)"/><path d="M687.14 672.8l7.2 236.12h1.1l-6.84-236.24z" fill="url(#Y)"/><path d="M683.88,673.06l8,235.86H693l-7.62-236Z" fill="url(#Z)"/><path d="M712.68 670.74l1.15 238.18H715l-.8-238.3z" fill="url(#a)"/><path d="M715.9 670.48l.38 238.44h1.15V670.36z" fill="url(#b)"/><path d="M702.54,671.56l3.55,237.36h1.14L704,671.44Z" fill="url(#c)"/><path d="M709.32 671l1.94 237.9h1.15l-1.6-238z" fill="url(#d)"/><g class="BB BE"><path d="M754.64 706.66l-2.36 2.52-.52 34.82 2.28-2.45zm-15.42 16.48l-2.22 2.42-.08 34.38 2.2-2.36zm-9.82 10.48l-2.13 2.28-.08.1.2 34.1 2.15-2.3zm4.76-5.07l-2.24 2.4.06 34.24 2.18-2.34zm15.5-16.55l-2.33 2.5-.33 34.64 2.26-2.42zm25.07-26.8l-2.46 2.63-1.1 35.32 2.4-2.56zm5.57-5.95l-2.5 2.66-1.26 35.47 2.42-2.6zM760 701l-2.38 2.54-.68 34.94 2.26-2.48zm9.52-10.24l-2.43 2.6-1 35.2 2.36-2.54z"/></g><path d="M138.02 756.4h118.43v207.1H138.02z" fill="url(#e)"/><g class="BF"><path d="M153.8 705.94h89v73.6h-89z"/><path d="M166 681.76h67.47v41H166z"/><path d="M173.2 656.53h14.36v36.8H173.2z"/></g><path d="M138 756.4l29.6-.5 29.6-.3 59.93-.26-.06 94.76-.16 46.87-.32 46.86-.4-46.86-.24-46.86-.23-93.73.7 1.03-59.22-.25-29.6-.3-29.6-.5z" fill="url(#f)"/><path d="M154 706.6l44.27-.67 44.97-.14v1l-.1 12.63-.14 12.63-.25 12.63-.4 12.63-.32-12.63-.16-12.64V706.8l.7 1-44.27-.36-44.32-.82z" fill="url(#g)"/><path d="M166.1 682.5l16.72-.5 16.72-.34 16.7-.27 17.6-.15v.87l-.07 6.3-.2 6.3-.3 6.28-.48 6.3-.4-6.3-.2-6.3-.1-6.3v-6.3l.86.87h-16.72c-5.57 0-11.14 0-16.72-.06l-16.72-.14-16.7-.26z" fill="url(#h)"/><path d="M147.67 781.6H248v6.46H147.6l.06-6.46zm-.25 28.18q0 3.36-.06 6.8h100.5v-6.8zm100.5-7.4v-6.7H147.5v6.7zm-.1 22.77H147.3v6.75h100.53zm-101 61.26q0 3.62-.06 7.18l100.74.1v-7.2zm.06-7.8l100.7.1v-7.08l-100.67-.1zm.9-104.53h100.3v-6.37H147.8l-.06 6.37zm-.56 65.23q0 3.42 0 6.85l100.58.07v-6.86zm-.2 23.3l100.64.07v-7.13L147 855.5zm-.68 61.8l102.5-1v-6.74l-102.48 1-.05 6.74zm-.2 22.66l-.07 7.1 102.63-.94v-7.1zm102.63-8.7v-7l-102.54 1q0 3.43-.06 7zm-102.33-28.54l102.45-1v-6.64l-102.42 1q0 3.18-.03 6.64z" fill="url(#i)"/><g class="BG"><path d="M180.9 728.67l5.57.14v7.7l-5.56-.13zm-.06-13.26l5.57.16v7.62l-5.56-.15zm.13 26.8l5.56.12v7.8L181 750zm-18.72-.4l5.42.12v7.84l-5.42-.1zm-.15-27l5.43.16v7.67l-5.42-.15zm.08 13.34l5.42.14v7.75l-5.42-.12zm9.42.24l5.5.14v7.73l-5.5-.13zm-.07-13.3l5.5.17v7.64l-5.5-.15zm.14 26.88l5.5.12v7.82l-5.48-.1zm38.67-25.73l5.8.18v7.54l-5.8-.15zm0 13.14l5.8.15v7.63l-5.8-.13zm.05 13.42l5.78.12v7.73l-5.78-.1zm-19.88-27.1l5.64.16v7.6l-5.63-.15zm.12 26.72l5.63.12v7.77l-5.63-.1zm-.06-13.5l5.64.15v7.68l-5.64-.13zm9.9.26l5.7.14v7.66l-5.7-.13zm.05 13.46l5.7.12v7.75l-5.7-.1zm-.1-26.64l5.7.17v7.57l-5.7-.15zm29.35.3l5.8.18V724l-5.8-.15zm0 13.14l5.8.15v7.63l-5.78-.13zm.05 13.42l5.78.12v7.73l-5.8-.1zm-10-13.67l5.7.14V737l-5.7-.13zm0 13.46l5.7.12v7.75l-5.7-.1zm.02-26.63l5.72.17v7.57l-5.72-.15zm-29.3-25.32l5.57.17v7.62l-5.56-.15zm-18.74-.55l5.43.16v7.66l-5.42-.14zm9.43.28l5.5.16v7.64l-5.5-.15zm38.77 1.15l5.8.17v7.55l-5.8-.16zm-19.8-.58l5.64.17v7.6l-5.63-.15zm9.9.3l5.7.16v7.58l-5.7-.16z"/></g><path d="M366.42 607.46l54.64.84-2.43 81.53c-18.44-1.3-36.9-1.77-55.33-1.92l-3.94-76.9z" class="BF"/><path d="M366.42 607.46l1.73 80.5c1.58-.38-3.23 0-4.85-.05l-3.94-76.9z" fill="url(#j)"/><path d="M429.92 933.84l5.85-256.58-84.28-1.34L344 680l8.1 254.4 77.8-.56z" fill="url(#k)"/><path d="M351.5 675.92L344 680l8.1 254.4 6.5-.04-7.12-258.44z" fill="url(#l)"/><path d="M352.3 675.68l20.72.13 20.73.27 42.02.75-.01.68-1.6 84.8-.9 42.4-1.05 42.4.45-42.4.58-42.4 1.38-84.8.57.7-41.44-1.08-20.72-.64-20.7-.78z" fill="url(#m)"/><path d="M414.83 911.12l-5.83.07v-13.65l5.9-.06zm-.06 9.87l-5.78.08v13.3l5.73-.08zm-10.3-207h-6.92l.12 16.43h6.84zm-.07-29.1h-7.06l.12 16.9 7 .05zm10.95 137.38h-6.26v14.75h6.2zm-.15 25.7h-6.13v14.37h6.07zm-.14 24.75h-6v14l6-.06zM404.78 848h-6.27l.1 14.38 6.2-.05zm.06 24.77l-6.15.06.1 14 6.07-.06zm-.3-130.2h-6.78l.12 16h6.7zm.2 79.76h-6.4l.1 14.77h6.3zm10.77-26.13h-6.38v15.14h6.32zm-10.83 0h-6.52l.1 15.16h6.44zm.34 124.93l-5.9.08.1 13.32 5.84-.1zm-.36-151H398l.1 15.56h6.57zm21.8 26.1h-6.26l-.17 15.13h6.2zm-.43 26.05h-6.14l-.1 14.74h6.06zm.72-52.14h-6.38l-.14 15.53h6.3zm.38-27.47h-6.5l-.15 16h6.43zm.8-57.54l-6.77-.05-.13 16.86h6.7zm-.4 29h-6.64l-.15 16.4h6.56zm-1.86 133.75h-6l-.13 14.36h5.94zM416 714.08h-6.78v16.4h6.7zm.16-29.06h-6.92v16.88h6.84zm-.5 85.1h-6.5v15.55h6.43zm9.68 102.5h-5.9l-.13 14 5.83-.06zm-9.52-130h-6.64v16h6.57zm8.85 178.24l-5.68.07-.12 13.3 5.6-.08zm.32-23.5l-5.78.06-.12 13.64 5.7-.07zm-20.07.22l-6 .06.1 13.66 6-.07zm-38.3-213l-7.54-.06.57 17 7.45.05zm.83 29.2h-7.38l.55 16.48h7.3zm16.65 207.56l-6.17.08.33 13.34 6.1-.08zm-.95-48.4l-6.4.06.34 14 6.34-.06zm.48 24.83l-6.28.07.34 13.68 6.2-.07zm-1-49.64h-6.54l.36 14.4h6.46zm-14.4-105.64H361l.54 16h7.15zm5.1 179l-6.3.08.45 13.36 6.23-.1zM369 770.1h-7.1l.53 15.6h7zm13.1 52.34h-6.66l.36 14.8h6.6zM372 873.1l-6.55.06.47 14.05 6.48-.06zm.7 24.85l-6.42.07.46 13.7 6.35-.08zm19.43-213.1l-7.2-.06.27 16.92h7.12zm-20.9 163.4h-6.68l.5 14.42 6.6-.06zm-.73-25.74h-6.82l.5 14.8h6.74zm-.75-26.2h-6.95l.5 15.2h6.87zm23.83 26.08h-6.53l.23 14.78h6.46zm-.3-26.13h-6.66l.25 15.17h6.58zm.56 51.83h-6.4l.22 14.4h6.33zm-1.14-105.54h-6.93l.26 16h6.84zm-.3-28.6h-7.07l.26 16.46h7zm.6 56.15h-6.8l.25 15.57h6.7zm1.1 102.8l-6.27.05.22 14 6.2-.06zM380 713.9h-7.22l.4 16.47h7.14zm1.62 82.4h-6.8l.37 15.2h6.73zm-1.05-53.78h-7.08l.4 16h7zm.54 27.6h-6.94l.4 15.6h6.85zm13.3 127.6l-6.15.07.22 13.67 6.08-.07zm.26 23.55l-6 .08.2 13.33 6-.08zm-15.25-236.5l-7.37-.06.42 16.94h7.28z" fill="url(#n)"/><path d="M407.37 637h-5.23l.1 12.4h5.17zm-.05-22H402l.1 12.76h5.27zm.1 43.54h-5.12l.1 12.07h5.06zm8.64-21.54h-5.12v12.4H416zm.12-21.94L411 615v12.75h5.16zm-.25 43.5h-5v12.06h5zm-37.16-43.77h-5.7l.43 12.8h5.62zm.63 22h-5.58l.42 12.45h5.5zm.6 21.64h-5.46l.4 12.1h5.4zm18-43.54h-5.45l.2 12.78h5.38zm.47 43.6h-5.23l.2 12.1h5.17zm-.24-21.6h-5.33l.2 12.42h5.28zm-9.38 0h-5.45l.3 12.44h5.4zm.43 21.6H384l.3 12.1h5.28zm-.86-43.63h-5.57l.32 12.8h5.5z" class="BG"/><g class="BC"><path d="M271.35 250.6c-22.85-15-49.17-26.6-76.22-23.07.2-5.73-1.9-11.1-8.9-12.14a16.53 16.53 0 0 0-3.45-.14c6.74-10.13 3.36-27.17-9.27-31-13.42-4.1-23.27 5.7-24.87 17.3-9.28-3.58-21.6-3.2-28.57 2.84a14.28 14.28 0 0 0-3.41 16.86c-6.2.42-12.34 1.72-17.2 6a18.65 18.65 0 0 0-4.59 6.24 99.25 99.25 0 0 0-59.28 16.75c-.6.4 60.1.2 118.8.26l116.97.1z" class="BA"/><path d="M272 251.1c-9.23-7-22.46-11.5-33.64-14.07-13.84-3.17-31-7.37-45-4.46 1.4-7.62-2.6-10.8-5.5-12.65-7.2-4.65-9.65-1.62-16.5 6 2.73-6.93 4.7-15.77-3.78-18.7-7.3-2.52-13.16.43-13.93 8.5 2.73-1.7 9.6 1.78 12.85 2.6-9.6-2.07-19.06-.47-23.84 7.48.6-4.83 3.17-7.53 6.9-10.9-9.56-14.25-27.78-6.87-26.6 4.74 3.67.62 7.4.95 11.08 1.4-11.08-1.3-24.42 4.77-28.78 15.24a145.36 145.36 0 0 0-34.25.27L60.86 238a99.14 99.14 0 0 0-25.32 12.18c-1.2.82 233.68.57 236.46.92z" class="BD"/><g class="BB"><path d="M412.6 408.1c-15.15-10-32.6-17.65-50.56-15.3.13-3.8-1.27-7.36-5.9-8.06a11.65 11.65 0 0 0-2.29-.09c4.47-6.7 2.23-18-6.15-20.58-8.9-2.72-15.44 3.78-16.5 11.48-6.16-2.37-14.32-2.12-19 1.9A9.48 9.48 0 0 0 310 388.6c-4.12.28-8.18 1.14-11.4 3.95a12.4 12.4 0 0 0-3 4.14 65.94 65.94 0 0 0-39.33 11.11c-.4.28 39.87.13 78.8.18l77.54.1z" class="BA"/><path d="M413.06 408.42c-6.12-4.66-14.9-7.63-22.3-9.33-9.18-2.1-20.57-4.9-29.84-3 .93-5.06-1.73-7.17-3.64-8.4-4.8-3.1-6.4-1.07-10.95 4 1.8-4.6 3.13-10.46-2.5-12.4-4.85-1.67-8.73.3-9.24 5.64 1.8-1.14 6.37 1.17 8.53 1.72-6.37-1.37-12.65-.3-15.82 5 .4-3.2 2.1-5 4.6-7.23-6.34-9.45-18.43-4.56-17.65 3.15 2.43.4 4.9.62 7.35.9-7.36-.85-16.2 3.17-19.1 10.12a96 96 0 0 0-22.72.18c-2.27.3-4.5.6-6.74 1a66 66 0 0 0-16.8 8.07c-.82.5 155 .34 156.85.57z" class="BD"/><path d="M809.1 338.53c-14-9.25-30.22-16.35-46.84-14.18.12-3.52-1.18-6.82-5.47-7.46a10 10 0 0 0-2.12-.09c4.14-6.22 2.06-16.7-5.7-19.06-8.25-2.53-14.3 3.5-15.28 10.63-5.7-2.2-13.27-2-17.56 1.75a8.79 8.79 0 0 0-2.1 10.36c-3.8.26-7.58 1.06-10.57 3.66a11.4 11.4 0 0 0-2.81 3.83 61.13 61.13 0 0 0-36.44 10.3c-.37.25 36.93.12 73 .16l71.9.1z" class="BA"/><path d="M809.52 338.83c-5.67-4.3-13.8-7.06-20.67-8.64-8.5-1.95-19.06-4.53-27.64-2.74.86-4.7-1.6-6.64-3.38-7.78-4.43-2.86-5.92-1-10.13 3.7 1.67-4.26 2.9-9.7-2.33-11.5-4.5-1.54-8.08.27-8.56 5.22 1.68-1 5.9 1.1 7.9 1.6-5.9-1.27-11.7-.3-14.65 4.6.37-3 2-4.63 4.24-6.7-5.87-8.75-17.07-4.22-16.34 2.92 2.25.38 4.54.58 6.8.85-6.8-.8-15 2.93-17.68 9.37a88.77 88.77 0 0 0-21.05.17 154.08 154.08 0 0 0-6.25.88 61.15 61.15 0 0 0-15.56 7.49c-.76.5 143.58.35 145.3.56z" class="BD"/></g></g><path class="w" d="M2512.75 667.58l-.08-56.48-35.6 1.65V538.6h-5.62v-24.54h-4.38l-3.25-22.55-3 22.55h-5.25v24.54h-5.62v47.78h-28.83l-3.4-41.2-89.9-1.65-1.7 42.84-47.3-.53-1.74 76.24-43.55-.23 2-80.53-30.3-9.25-33.8 5.9-1.73 47.1-16.94 25.5 3.08-112.15-12.12-5.9-.87-26.08-23.38-10.1-31.17 7.6-1.22 26.7-16.56 5.27-1-58.78-28.9-13.56-52.82 9.25-1.12 126.62-7.16 1.88.48-25.87-9.52-2.63v-32.7l-24.25-10.93-38.1 6.73v33.64L1896 572.1l1.74 67.3-21.65 9.25V530.87l-8.66-4.2v-34.5l-19-11.78-23.43 6.73v48l-16.45 7.57v90l-39.88 12.12v-29.64h-5.6v-24.54h-4.4l-3.25-22.55-3 22.55h-5.25v24.54h-5.63V653l-13.5 4.1c-7.13-60.76-20.37-108-45.9-127.95 0 0-26.92 18.25-35.25 91.42l-27.45-.5-1.52 38.43-12.46-.07-104.3-31.7v-90l-16.46-7.57v-48l-23.38-6.73-19 11.78v34.5l-8.66 4.2v117.83L1412 633.5l1.73-67.3-12.12-2.52V530l-38.1-6.73-24.25 10.93v32.7l-9.52 2.63.48 25.87-7.16-1.88-1.12-126.62-52.82-9.25-28.9 13.56-1 58.78-16.56-5.27-1.22-26.7-31.17-7.57-23.38 10.1-.87 26.08-12.12 5.9 3.1 112.2-16.94-25.5-1.73-47.1-33.77-5.9-30.3 9.25 2 80.16-44.42-.24-.16 1.07-7.62-.23-5.36 11.37h-46v247.74h1585V667.58z" opacity=".35" fill="url(#o)"/><path d="M1305.2 702.43l-65.27-3.5-42.2 9.2 9 245.63h87.4z" fill="url(#p)"/><path d="M1239.76,699l-42,4.47,9,250.33h32.18Z" fill="url(#q)"/><path d="M1250.26 715.35l.47 238.4h1.9v-238.3z" fill="url(#r)"/><path d="M1255.54 715.6l-.54 238.18h1.9l1-238.08z" fill="url(#s)"/><path d="M1266.27 716.07l-2.6 237.7h1.92l3.07-237.6z" fill="url(#t)"/><path d="M1245.27,715.13l1.43,238.63h1.9l-1-238.53Z" fill="url(#u)"/><path d="M1286.13 717l-6.4 236.83h1.94l6.86-236.74z" fill="url(#v)"/><path d="M1271.32 716.3l-3.58 237.5h1.93l4-237.38z" fill="url(#w)"/><path d="M1291.22 717.18l-7.38 236.62h1.94l7.84-236.5z" fill="url(#x)"/><path d="M1296.6 717.43l-8.4 236.37h2l8.8-236.27z" fill="url(#y)"/><path d="M1276.65 716.53l-4.6 237.25h1.95l5-237.14z" fill="url(#z)"/><path d="M1214.54 716.9l5.08 236.84h1.13l-4.73-237z" fill="url(#AA)"/><path d="M1208.7 717.38l6.46 236.37h1.12l-6.12-236.5z" fill="url(#AB)"/><path d="M1217.85 716.64l4.3 237.1h1.14l-4-237.23z" fill="url(#AC)"/><path d="M1205.6 717.63l7.2 236.12h1.12l-6.84-236.24z" fill="url(#AD)"/><path d="M1202.34 717.9l8 235.86h1.1l-7.6-236z" fill="url(#AE)"/><path d="M1231.15,715.57l1.14,238.18h1.15l-.78-238.3Z" fill="url(#AF)"/><path d="M1234.36 715.3l.37 238.44h1.16V715.2z" fill="url(#AG)"/><path d="M1221 716.4l3.55 237.36h1.14l-3.2-237.48z" fill="url(#AH)"/><path d="M1227.78 715.84l2 237.9h1.14l-1.6-238z" fill="url(#AI)"/><g class="BB BE"><path d="M1273.1 751.5l-2.35 2.52-.52 34.8 2.28-2.45zm-15.4 16.5l-2.27 2.42-.08 34.38 2.2-2.36zm-9.82 10.45l-2.14 2.28-.08.1.2 34.1 2.15-2.3zm4.74-5.07l-2.24 2.4.07 34.24 2.18-2.34zm15.5-16.58l-2.33 2.5-.38 34.66 2.26-2.42zm25.07-26.8l-2.47 2.63-1.1 35.32 2.4-2.56zm5.56-5.92l-2.5 2.66-1.26 35.47 2.43-2.6zm-20.36 21.74l-2.38 2.54-.67 34.94 2.3-2.48zm9.6-10.22l-2.44 2.6-1 35.2 2.36-2.54z"/></g><path d="M1374.55 911.55l-13.58-440.3 63.35-9.73 40.73 9.73-16.17 440.18-74.33.13z" fill="url(#AJ)"/><path d="M1419.44 912.47l29.44.47 16.17-441.7-40.58-9.7-5.03 450.92z" fill="url(#AK)"/><path d="M1377.63 474.93l8.1 390.86 1.42 1.44-7.26-392.6z" fill="url(#AL)"/><path d="M1372.82,475.6l10,390.68,1.43,1.44-9.13-392.44Z" fill="url(#AM)"/><path d="M1367.82 478.34l11.85 387.82 1.43 1.43-11.07-391.2-2.2 1.95z" fill="url(#AN)"/><path d="M1391.7 473.17l2.65 389.34 1.4 1.45L1394 472.9z" fill="url(#AO)"/><path d="M1386.63 473.8l4.6 388.6 1.42 1.45-3.74-390.32z" fill="url(#AP)"/><path d="M1396.53,472.6l.8,389.42,1.4,1.45.08-391.14Z" fill="url(#AQ)"/><path d="M1411.94,470.83l-5.15,391.45,1.38,1.45,6-393.15Z" fill="url(#AR)"/><path d="M1416.78 470.3l-7 391.5 1.37 1.45 7.9-393.23z" fill="url(#AS)"/><path d="M1406.85 471.4l-3.18 390.74 1.38 1.45 4.07-392.45z" fill="url(#AT)"/><path d="M1454.45,476.45l-12,386.72-1.14,2L1453,476.23Z" fill="url(#AU)"/><path d="M1457.47,477l-12.72,386.25-1.14,2,12.44-388.5Z" fill="url(#AV)"/><path d="M1460.58 479.13l-13.4 383.34-1.14 2 13.17-386.9 1.37 1.56z" fill="url(#AW)"/><path d="M1445.57 475.12l-9.75 385.7-1.15 2 9.46-387.92z" fill="url(#AX)"/><path d="M1448.8 475.6l-10.52 384.48-1.14 2 10.22-386.7z" fill="url(#AY)"/><path d="M1442.5 474.7l-9 386.08-1.14 2 8.7-388.3z" fill="url(#AZ)"/><path d="M1432.66 473.35L1426 862.87l-1.13 2 6.3-391.75z" fill="url(#Aa)"/><path d="M1429.55,472.93l-5.87,389.9-1.14,2,5.54-392.12Z" fill="url(#Ab)"/><path d="M1435.93 473.78l-7.43 388.34-1.14 2 7.1-390.56z" fill="url(#Ac)"/><path d="M1527.57 753.82l28-4.98 75.85.1-5.35 157.62-94.6.1-3.9-152.84z" fill="url(#Ad)"/><path d="M1610.8 754.55l-1.62 151.73 16.9.28 5.35-157.62-75.85-.1-28 4.98 83.22.73z" fill="url(#Ae)"/><path d="M1590.85 884h-6.68v-8.24h6.68zm0 6.1h-6.68l-.05 8.34 6.68.07zM1580.13 780l-6.8.14v7.56l6.8-.13zm.08-13l-6.8.16v7.47l6.8-.15zm11 66.25l-6.7.05v7.94h6.7zm-.1 14h-6.7l-.05 8h6.62zm-.08 14h-6.7v8.14h6.68zm-11.26-14H1573v8h6.78zm-.08 14h-6.78v8.12h6.77zm.4-67.94l-6.8.12v7.64l6.8-.1zm-.23 40.06h-6.78v7.92h6.8zm11.44-13.74l-6.7.07v7.85h6.7zm-11.36.12l-6.8.07v7.83l6.78-.06zm-.4 70.3h-6.77v8.32l6.76.07zm.5-83.43l-6.8.1v7.74l6.8-.08zm22.78 12.9l-6.62.07-.05 7.87h6.6zm-.1 13.7h-6.6v8h6.6zm.2-26.9l-6.62.1-.06 7.78 6.62-.08zm.1-13.4l-6.63.1v7.7l6.63-.1zm.18-26.43l-6.64.16v7.5l6.64-.14zm-.1 13.08l-6.63.13-.05 7.6 6.63-.12zm-.46 67.65h-6.6v8.06h6.6zm-11.06-67.42l-6.72.14v7.58l6.7-.13zm.08-13l-6.72.16v7.5l6.7-.15zm-.25 39.7l-6.7.1v7.76l6.7-.08zm11.13 54.8h-6.6v8.16h6.6zm-11-68.13l-6.7.1v7.67l6.7-.1zm10.86 97.1l-6.6-.05v8.37l6.6.06zm.1-14.4h-6.6v8.26h6.6zm-22.8-.1h-6.77V884h6.77zm-35.42-107.85l-7.08.16v7.4l7.08-.15zm-.06 12.87l-7.07.15v7.48l7.07-.13zm11.6 109.1l-7-.05v8.26l7 .07zm.14-28.63h-7v8.06h7zm-.07 14.4h-7v8.16l7 .05zm.13-28.28h-7v8h7zm-12-53.5l-7 .1v7.57l7.07-.1zm-.4 95.85l-7-.06v8.24l7 .07zm.36-82.67l-7.07.1v7.66l7.06-.08zm12 26.42h-7v7.87h7zm-12.23 27.7h-7v8h7zm-.06 14.38h-7v8.14h7.05zm24.7-108.3l-6.9.16v7.45l6.9-.15zm-24.58 80.1h-7v7.94h7zm.06-13.8h-7.06v7.85h7.06zm.06-13.5l-7.06.07v7.76l7.06-.06zm24.1 13.33l-6.87.05v7.9h6.87zm.07-13.58l-6.88.07v7.8l6.87-.05zm-.14 27.46h-6.87v8h6.86zm.28-53.82l-6.88.12v7.62l6.88-.1zm.07-13.23l-6.9.14v7.53l6.88-.13zm-.14 26.5l-6.88.1v7.72l6.88-.08zm-.3 54.46H1561v8.1h6.86zm-11.66-80.72l-7 .15v7.5l7-.13zm-.2 39.5l-7 .08v7.77l7-.05zm.13-26.27l-7 .12v7.6l7-.1zm-.06 13.23l-7 .1v7.7l7-.08zm11.7 68.75h-6.87v8.2h6.86zm-.08 14.26l-6.86-.05v8.3l6.86.07zm-11.44-122.35l-7 .16v7.43l7-.16z" fill="url(#Af)"/><path d="M1623 877.17l-1.25.9.17-6.94 1.26-.88zm-.13 5l-1.24.9-.16 6.75 1.23-.9zm.27-105.1l-1.5.67-.18 8.6 1.5-.7zm.34-15.2l-1.54.62-.18 8.86 1.53-.65zm.7 70l-1.35.8-.18 7.58 1.33-.82zm-.34 13.14l-1.32.82-.18 7.35 1.3-.84zm-.33 12.64l-1.3.85-.17 7.14 1.27-.86zm-1.9-11.24l-1.36.85-.15 7.38 1.34-.87zm-.3 12.68l-1.3.9-.15 7.17 1.32-.9zm1.5-67.12l-1.48.7-.16 8.32 1.46-.74zm-.92 41.25l-1.4.82-.15 7.6 1.37-.83zm2.64-14.75l-1.38.76-.15 7.77 1.36-.78zm-2.34 1.3l-1.42.78-.15 7.84 1.4-.8zm-1.43 64l-1.28.92-.13 6.77 1.26-.93zm1.73-77.47l-1.44.75-.17 8.07 1.43-.77zm4.36 10.93l-1.33.74-.2 7.76 1.3-.75zm-.4 13.34l-1.3.77-.2 7.55 1.3-.8zm.8-26.74l-1.36.7-.22 8 1.34-.73zm.42-14.15l-1.4.67-.23 8.24 1.37-.7zm.88-29.78l-1.45.58-.24 8.77 1.43-.6zm-.45 15l-1.4.62-.24 8.5 1.4-.65zm-2 68.7l-1.28.8-.2 7.33 1.26-.82zm-.44-67.62l-1.46.65-.2 8.54 1.44-.67zm.4-15.13l-1.5.6-.2 8.82 1.48-.63zm-1.17 44.14l-1.4.73-.2 8 1.4-.75zm.82 51.2l-1.26.83-.2 7.12 1.24-.84zm-.45-65.4l-1.43.7-.2 8.28 1.38-.75zm-.28 89.88l-1.2.87-.2 6.73 1.2-.88zm.36-11.9l-1.23.85-.2 6.92 1.2-.86zm-4.3 3l-1.3.9-.14 7 1.3-.9zm-5.93-106.5l-1.7.7-.07 9 1.7-.7zm-.16 15.46l-1.67.74-.07 8.73 1.65-.77zM1616.2 887l-1.37 1-.08 6.8 1.35-1zm.35-24.8l-1.42.94-.08 7.22 1.4-1zm-.18 12.74l-1.4 1-.1 7 1.38-1zm.37-25.52l-1.45.9-.1 7.44 1.43-.93zm-2-53.6l-1.64.8-.07 8.44 1.62-.8zm-1 92.9l-1.4 1-.05 6.83 1.4-1zm.8-78.4l-1.6.83-.07 8.18 1.58-.85zm2.3 25.8l-1.48.87-.1 7.67 1.46-.9zm-2.86 27.7l-1.46 1-.06 7.25 1.45-1zm-.13 12.78l-1.43 1-.06 7 1.42-1zM1620.8 763l-1.6.64-.15 8.9 1.58-.67zm-6.57 88l-1.5.94-.06 7.47 1.48-.95zm.13-13.35l-1.53.9-.06 7.7 1.52-.93zm.14-13.63l-1.56.87-.06 7.94 1.54-.9zm5 10.6l-1.44.85-.12 7.63 1.42-.86zm.25-13.5l-1.47.8-.12 7.87 1.44-.83zm-.5 26.75l-1.4.88-.12 7.4 1.4-.9zm1-54.68l-1.52.74-.14 8.36 1.5-.76zm.28-15l-1.56.7-.14 8.63 1.54-.72zm-.54 29.3l-1.5.78-.13 8.1 1.48-.8zm-1 53.07l-1.38.9-.12 7.2 1.36-.92zm-1.23-81.15l-1.62.7-.1 8.68 1.6-.74zm-.62 43.1l-1.52.84-.1 7.9 1.5-.86zm.4-28.06l-1.58.76-.1 8.4 1.56-.78zm-.2 14.42l-1.54.8-.1 8.14 1.53-.83zm1.42 64.4l-1.34.93-.12 7 1.33-1zm-.22 12l-1.32 1-.1 6.8 1.3-1zM1618 764.1l-1.65.67-.1 9 1.63-.7z" fill="url(#Ag)"/><path d="M1767.7 607.46l54.64.84-2.43 81.53c-18.45-1.3-36.9-1.77-55.34-1.92l-3.94-76.9z" class="BF"/><path d="M1767.7 607.46l1.72 80.5c1.6-.38-3.23 0-4.85-.05l-3.94-76.9z" fill="url(#Ah)"/><path d="M1831.2 933.84l5.86-256.58-84.3-1.34-7.47 4.08 8.1 254.4 77.8-.56z" fill="url(#Ai)"/><path d="M1752.76 675.92l-7.47 4.08 8.1 254.4 6.5-.04-7.12-258.44z" fill="url(#Aj)"/><path d="M1753.56 675.68l20.73.13 20.72.27 42.03.75-.02.68-1.6 84.8-.9 42.4-1.05 42.4.45-42.4.58-42.4 1.38-84.8.57.7-41.44-1.08-20.7-.64-20.72-.78z" fill="url(#Ak)"/><path d="M1816.1 911.12l-5.84.07v-13.65l5.9-.06zm-.06 9.87l-5.8.08v13.3l5.72-.08zm-10.3-207h-6.92l.12 16.43h6.83zm-.07-29.1h-7.07l.13 16.9 7 .05zm10.95 137.38h-6.27v14.75h6.2zm-.15 25.65h-6.14v14.37h6.07zm-.14 24.75h-6v14l6-.06zM1806.05 848h-6.26l.1 14.38 6.2-.05zm.06 24.77l-6.14.06.1 14 6.07-.06zm-.3-130.2h-6.78l.12 16h6.7zm.2 79.76h-6.4l.1 14.77h6.32zm10.78-26.13h-6.4v15.14h6.3zm-10.84 0h-6.52l.1 15.16h6.45zm.3 124.87l-5.9.08.1 13.32 5.85-.1zm-.35-151h-6.65l.12 15.56h6.56zm21.78 26.1h-6.25l-.14 15.13h6.18zm-.36 26.06h-6.13L1821 837h6.07zm.73-52.14h-6.38l-.15 15.53h6.3zm.38-27.47h-6.5l-.15 16h6.44zm.8-57.54l-6.78-.05-.15 16.86h6.7zm-.4 29h-6.64l-.15 16.44h6.57zm-1.86 133.75h-6l-.13 14.36h5.94zm-9.7-133.8h-6.78v16.4h6.7zm.17-29.06h-6.92v16.88h6.84zm-.5 85.1h-6.5v15.55h6.44zm9.67 102.5h-5.9l-.13 14 5.84-.06zm-9.52-130h-6.64v16h6.57zm8.85 178.24l-5.67.07-.13 13.3 5.6-.08zm.33-23.5l-5.8.06-.12 13.64 5.72-.07zm-20.08.22l-6 .06.1 13.66 6-.07zm-38.3-213l-7.53-.06.57 17 7.44.05zm.83 29.2h-7.38l.56 16.48h7.3zm16.65 207.56l-6.16.08.33 13.34 6.1-.08zm-.95-48.4l-6.4.06.35 14 6.33-.06zm.5 24.83l-6.3.07.34 13.68 6.2-.07zm-1-49.64h-6.54l.36 14.4h6.46zm-14.4-105.7h-7.23l.54 16h7.2zm5.1 179l-6.3.08.45 13.36 6.23-.1zm-4.3-151.42h-7.1l.52 15.6h7zm13.1 52.34h-6.67l.36 14.8h6.6zm-10.17 50.64l-6.55.06.47 14.05 6.48-.06zm.7 24.85l-6.42.07.46 13.7 6.35-.08zm19.43-213.1l-7.2-.06.27 16.92h7.13zm-20.85 163.4h-6.68l.5 14.42 6.6-.06zm-.73-25.74h-6.82l.5 14.8h6.74zm-.75-26.2h-7l.5 15.2h6.88zm23.83 26.08h-6.53l.24 14.78h6.45zm-.3-26.13h-6.65l.24 15.17h6.58zm.57 51.83h-6.4l.23 14.4h6.32zM1794 742.56h-6.92l.25 16h6.85zm-.3-28.6h-7.07l.26 16.46h7zm.6 56.15h-6.8l.25 15.57h6.7zm1.12 102.8l-6.28.05.23 14 6.2-.06zm-14.15-159h-7.23l.4 16.47h7.14zm1.6 82.4h-6.8l.38 15.2h6.72zm-1.05-53.78h-7.08l.4 16h7zm.54 27.6h-6.94l.4 15.6h6.86zm13.32 127.6l-6.15.07.2 13.67 6.08-.07zm.25 23.55l-6 .08.2 13.33 6-.08zm-15.25-236.5l-7.37-.06.42 16.94h7.3z" fill="url(#Al)"/><path d="M1808.64 637h-5.22l.1 12.4h5.16zm-.05-22h-5.33l.1 12.76h5.27zm.1 43.54h-5.12l.1 12.07h5.06zm8.64-21.53h-5.12v12.4h5.06zm.13-21.94h-5.23v12.75h5.16zm-.25 43.5h-5v12.06h5zM1780 614.8h-5.7l.44 12.8h5.62zm.63 22h-5.57l.42 12.45h5.5zm.62 21.64h-5.46l.4 12.1h5.4zm18-43.54h-5.45l.2 12.78h5.4zm.47 43.6h-5.23l.2 12.1h5.17zm-.23-21.6h-5.34l.2 12.42h5.27zm-9.38 0h-5.46l.3 12.44h5.4zm.42 21.6h-5.34l.3 12.1h5.28zm-.86-43.63h-5.56l.3 12.8h5.5z" class="BG"/><path d="M1118.4 669.17l-59.33-3.4-40.86 8.9 8.78 237.86h84.64z" fill="url(#Am)"/><path d="M1058.93 665.8l-40.7 4.32 8.78 242.4h31.16z" fill="url(#An)"/><path d="M1073.33 876l4.3.07-.05 13.08-4.25-.08zm0 35.37l4.2.08v-12.8l-4.23-.08zm8.18-192.23l4.88.07.13-15.12-4.93-.07zm.14-26.32l5 .07.14-15.46-5-.06zm-8.3 125.72l4.48.08v-13.9l-4.52-.07zm0 23.94l4.4.07v-13.62l-4.45-.07zm0 23.22l4.33.08v-13.35l-4.38-.07zm7.48-23.1l4.48.07.12-13.62-4.53-.07zm-.13 23.22l4.4.08.12-13.34-4.46-.08zm.67-120.67l4.8.07.13-14.8-4.85-.07zm-.4 73.5l4.56.08.13-13.9-4.6-.08zm-7.6-24.33l4.55.08v-14.2l-4.6-.07zm7.73.13l4.64.07.12-14.2-4.7-.08zm-.66 117l4.27.08.1-12.82-4.3-.08zm.8-141.13l4.72.07.13-14.5-4.77-.07zm-15.64 23.84l4.47.07v-14.2l-4.5-.08zm.13 24.2l4.4.07v-13.9l-4.43-.08zm-.25-48.3l4.54.07v-14.48l-4.6-.07zm-.13-25.2l4.62.07v-14.8l-4.67-.07zm-.27-52.33l4.78.07v-15.45l-4.83-.07zm.14 26.32l4.7.07v-15.12l-4.75-.07zm.63 123.44l4.32.07v-13.62l-4.36-.07zM1073.4 719l4.8.07v-15.12l-4.84-.07zm0-26.32l4.88.06v-15.45l-4.92-.06zm0 77.55l4.64.07v-14.5l-4.67-.07zm-7.4 95.3l4.25.08v-13.35l-4.3-.07zM1073.4 745l4.7.07v-14.8l-4.76-.07zm-7.2 166.2l4.1.08v-12.82l-4.14-.08zm-.1-22.3l4.18.07V875.9l-4.22-.07zm14.5.26l4.33.08.12-13.07-4.38-.08zm27.64-196l5.27.08.4-15.46-5.32-.08zm-.6 26.34l5.18.07.4-15.13-5.23-.07zm-12.1 192.27l4.43.08.26-12.8-4.48-.1zm.77-45.68l4.6.08.27-13.35-4.63-.08zm-.4 23.37l4.52.1.26-13.08-4.55-.08zm.8-46.6l4.67.08.28-13.62-4.72-.08zm10.3-97.28l5.1.08.4-14.8-5.15-.07zM1103.2 912l4.52.08.34-12.82-4.57-.08zm3.2-141.17l5 .08.38-14.5-5.06-.07zm-9.36 48.17l4.75.08.28-13.9-4.8-.08zm7.2 47.3l4.68.1.35-13.35-4.73-.1zm-.53 23.38l4.6.08.34-13.08-4.65-.08zM1090.3 693l5.07.07.22-15.46-5.12-.07zm14.5 150.08l4.76.08.35-13.62-4.8-.08zm.54-23.94l4.84.08.37-13.9-4.9-.08zm.55-24.2l4.93.08.37-14.2-5-.07zm-17 23.93l4.66.08.2-13.9-4.7-.07zm.27-24.2l4.74.07.2-14.2-4.78-.08zm-.54 48.14l4.58.08.2-13.62-4.62-.08zm1.1-97.46l4.9.08.2-14.8-4.94-.07zm.3-26l5 .07.22-15.13-5-.07zm-.57 51.24l4.8.07.2-14.5-4.86-.08zm-1.06 95.42l4.5.08.2-13.35-4.55-.08zm10.4-146.58l5.08.07.3-15.12-5.13-.07zm-1.28 75.34l4.83.08.3-14.2-4.88-.08zm.83-49.32l5 .08.3-14.8-5-.07zm-.42 25.23l4.9.07.3-14.5-5-.08zm-9.8 118.7l4.43.08.2-13.07-4.47-.08zm-.25 22.3l4.35.08.2-12.82-4.4-.08zm11.35-218.6l5.17.07.3-15.46-5.22-.07z" fill="url(#Ao)"/><path d="M1050.3 875.22l-2.66-.07.1 11.73 2.62.1zm.16 31.45l-2.55-.1-.1-11.26 2.6.1zm-6.35-184.57l-3.26.2-.23-16 3.3-.2zm-.3-28.1l-3.36.24-.24-16.82 3.4-.28zm6.2 127.8h-2.86l-.1-13.36h2.9zm.1 22.62h-2.77l-.1-12.78h2.82zm.1 21.44l-2.7-.05-.1-12.25h2.74zm-4.8-21.5h-2.8l-.2-12.75h2.86zm.23 21.4l-2.73-.06-.18-12.2h2.78zm-1.28-116.63l-3.15.13-.2-15.27 3.2-.16zm.8 72.68h-2.9l-.2-13.33h2.94zm4.73-23.43l-2.94.05-.12-14 3-.07zm-5 .08h-3l-.2-13.93 3-.07zm1.2 108l-2.6-.1-.16-11.24 2.63.1zm-1.45-131.82l-3.06.1-.2-14.57 3.1-.1zM1055 798.3l-2.9.05v-14l3-.07zm0 23.48h-2.82v-13.4h2.86zm0-47.4l-3 .08V759.8l3-.1zm0-25.7l-3.07.13v-15.36l3.13-.16zm.07-55.5l-3.27.24V676.5l3.33-.27zm0 28.3l-3.18.18v-16.12l3.22-.2zm-.15 123h-2.74v-12.82h2.8zm-5.36-122.66l-3.22.18-.13-16.07 3.27-.22zm-.14-28.2l-3.3.24-.15-16.88 3.37-.27zm.4 80.93l-3 .08-.12-14.6 3.07-.1zm5.08 91.43l-2.67-.05v-12.28h2.7zm-5.2-117.05l-3.1.13-.14-15.3 3.17-.16zm5.16 158l-2.52-.1v-11.28l2.56.1zm0-19.75l-2.6-.08v-11.76l2.62.06zm-8.94-.3l-2.66-.08-.18-11.7 2.7.07zm-19.9-191.6l-3.48.26-.57-16.63 3.55-.3zm.84 27.8l-3.38.2-.54-15.85 3.44-.22zm10.15 183l-2.66-.1-.33-11.17 2.7.1zm-1-40.53l-2.8-.05-.34-12.16h2.86zm.5 21l-2.74-.1-.32-11.65 2.78.07zm-1-42.24h-2.9l-.35-12.68h2.94zm-7.87-94.45l-3.28.14-.52-15.1 3.34-.17zm4.7 156.07l-2.7-.12-.38-11.16 2.75.1zm-4-130.77l-3.2.1-.5-14.43 3.25-.12zm6.58 46.7h-3l-.37-13.25h3zm-3.85 43.62l-2.86-.06-.4-12.12h2.9zm.63 20.9l-2.78-.1-.4-11.62 2.82.08zm6.3-191.96l-3.4.24-.35-16.76 3.46-.28zm-7.44 149.8h-2.94l-.43-12.65h3zm-.68-22.37h-3l-.45-13.22h3.06zm-.7-23.15h-3.1l-.47-13.8 3.16-.07zm11 23.1h-2.93l-.28-13.28h3zm-.4-23.28l-3 .05-.3-13.9 3.07-.07zm.8 45.78h-2.85l-.27-12.7h2.9zm-1.64-95l-3.2.13-.32-15.2 3.26-.16zm-.47-26.94l-3.3.18-.33-16 3.35-.22zm.9 52.4l-3.1.1-.3-14.52 3.16-.1zm1.57 90.85h-2.78l-.25-12.2h2.82zm-8.26-142.92l-3.34.2-.43-15.9 3.4-.22zm1.8 75.9h-3.06l-.38-13.85 3.1-.07zm-1.16-49l-3.24.14-.42-15.16 3.3-.17zm.6 25.38l-3.15.1-.4-14.47 3.2-.12zm7.38 111.7l-2.7-.1-.24-11.68 2.74.07zm.34 19.62l-2.63-.1-.23-11.22 2.67.1zM1032 694.85l-3.44.25-.46-16.7 3.5-.3z" fill="url(#Ap)"/><g class="BC"><path d="M1790.5 261.43c-22.85-15-49.17-26.6-76.22-23.07.2-5.73-1.9-11.1-8.9-12.14a16.47 16.47 0 0 0-3.44-.14c6.73-10.13 3.35-27.16-9.28-31-13.42-4.1-23.27 5.7-24.87 17.3-9.28-3.58-21.6-3.2-28.57 2.84a14.3 14.3 0 0 0-3.41 16.86c-6.2.42-12.34 1.72-17.2 6a18.65 18.65 0 0 0-4.59 6.24 99.39 99.39 0 0 0-59.28 16.68c-.6.4 60.1.2 118.8.27l116.97.16z" class="BA"/><path d="M1791.17 261.93c-9.23-7-22.45-11.5-33.64-14.06-13.83-3.18-31-7.38-45-4.47 1.4-7.62-2.6-10.8-5.5-12.65-7.2-4.65-9.65-1.6-16.5 6 2.73-6.93 4.7-15.77-3.78-18.7-7.3-2.5-13.16.43-13.93 8.5 2.73-1.7 9.6 1.78 12.85 2.6-9.6-2.07-19.06-.46-23.84 7.5.6-4.84 3.18-7.54 6.9-10.9-9.55-14.24-27.78-6.87-26.6 4.75 3.66.6 7.38.94 11.08 1.38-11.1-1.3-24.43 4.77-28.8 15.24a145.27 145.27 0 0 0-34.24.28c-3.43.43-6.8.9-10.17 1.44a99.64 99.64 0 0 0-25.3 12.17c-1.24.84 233.63.6 236.44.93z" class="BD"/></g><g opacity=".7" class="BC"><path d="M1284.42 400.26c-14.72-9.7-31.67-17.14-49.1-14.87.13-3.7-1.23-7.15-5.73-7.82a10.27 10.27 0 0 0-2.22-.08c4.34-6.53 2.16-17.5-6-20-8.64-2.64-15 3.67-16 11.15-6-2.3-13.9-2.06-18.4 1.83a9.2 9.2 0 0 0-2.2 10.86c-4 .27-8 1.1-11.08 3.84a11.88 11.88 0 0 0-3 4 64 64 0 0 0-38.12 10.83c-.4.27 38.7.13 76.5.17l75.34.1z" class="BA"/><path d="M1284.85 400.58c-5.94-4.53-14.46-7.4-21.66-9.06-8.9-2-20-4.75-29-2.88.9-4.9-1.68-6.95-3.54-8.15-4.65-3-6.22-1-10.63 3.87 1.76-4.47 3-10.16-2.43-12-4.7-1.62-8.48.27-9 5.47 1.76-1.1 6.2 1.14 8.28 1.67-6.18-1.33-12.27-.3-15.35 4.82.38-3.1 2-4.85 4.45-7-6.16-9.18-17.9-4.43-17.14 3.05 2.36.4 4.76.6 7.14.9-7.14-.83-15.73 3.08-18.54 9.82a93.57 93.57 0 0 0-22.06.18c-2.2.28-4.4.57-6.55.93a63.93 63.93 0 0 0-16.3 7.84c-.75.5 150.53.32 152.33.55z" class="BD"/></g></g><path d="M-2.1.55h1924.5v1078.27H-2.1z" opacity=".2" class="BA"/></g></g></svg>