<svg xmlns="http://www.w3.org/2000/svg" viewBox="0 0 508.5 75.9"><g fill="maroon"><path d="M470.8 75.9l-4.4-5.7-2.6-3.3c-.6-.8-.6-1 .4-1.4l6.5-2.9v-2.4l-17.3 4.4c-.3-.3-.2-.5-.2-.8V17.5c0-.6.2-.9.8-.9l11.1-1.6c.5-.1.9-.2 1.5 0v37.5l4.1-.7V16.7l13.4-1.9v51.5c0 .6-.2 1-.7 1.4l-11.9 8.1-.3.3c-.1-.2-.3-.2-.4-.2zM1.5 5.9c.1-.1.2-.3.3-.4l7.1-.7 13.3-1.2 3.6-.3c.4 0 .6.2.5.5l-2 13.8c-2.2.3-4.4 0-6.7.1v12.1h6.1l-.9 6.3h-5.2v14.6l9.1 1.2c.2.9-.1 1.8-.2 2.6-.4 3.6-.9 7.2-1.4 10.8-.1.7-.3.9-1 .8-4-.6-8-1.1-12-1.6L2 63.2c-.2 0-.3-.2-.5-.3v-57zM505 4c-.3.8-.2 1.6-.2 2.3l-.5 9c-.2 4.2-.5 8.5-.8 12.7l-.7 12.3c-.1 1.3-.1 2.5-.2 3.8 0 .2-.1.4-.1.6h-12.7c-.1-1.7-.2-3.4-.2-5l-.7-14.6-.4-9.2-.6-11.8c0-.4-.2-.8.2-1.2h16.1c.3 0 .6 0 .8.2V4zM314.3 16.9l17.3-2.3V69l-13.4-1.9V22.8l-3.9.5v41.1h-13.4V8.2l13.4-1.9v10.6zm-155.1-2.1v45.9c0 .7-.2 1-.9 1.1l-15.9 2.8c-.2 0-.4.1-.6.1v10.1L128.7 73c-.3-.3-.3-.5-.3-.8V19.4c0-.6.2-.9.9-1l29.1-3.6c.3-.1.5 0 .8 0zm-17.3 8.6v31.3l3.8-.6V22.7l-3.8.7zm120.6 41c-.3.2-.5.2-.7.2h-29.6c-.6 0-.8-.2-.8-.8v-46c0-.3 0-.6.3-.8l30.8-2.3v49.7zM245 55.3l4.2-.8V22.7l-4.2.7v31.9zM163.4 66V16.4l30.5-1.7c.4.3.4.6.4.9v29.8c0 .5-.1.8-.7.8l-11 1-5.7.5v10.8l4.1-.8v-5.9h13.4v11.5l-31 2.7zm17.3-24.4V23l-3.9.6v18.6l3.9-.6zm154.9-25.2l6-.3 20-1.1 4.2-.2c.4 0 .6.2.6.6v30.3c0 .1 0 .1-.1.4L349 47.7v10.8l4.1-.8.1-6h13.1c.4.4.4 11 .1 11.5l-30.8 2.7V16.4zM353 23l-3.9.6v18.6l3.9-.6V23zm-241.9 9.5v-9.9l-4.1.8-.1 5.5H93.8c-.4-.4-.4-11-.1-11.5l30.8-2.7v49c0 .6-.1.8-.8.8h-11.9c-.2 0-.5.1-.8-.2v-2L93.7 66V34l17.4-1.5zm-3.9 6.1v16.1l3.9-.6V37.9c-1.3.3-2.6.5-3.9.7zM61.1 27l-13.2 1.9c-.3-1.1 0-2.2-.2-3.4l-3.9.8v8.9l17.3-2.4v30.9L30.3 66V48.8l13.3-1.9v8.7l4-.6V41.2l-17.3 2.4V16.7L61 14.8c.1 4.1.1 8.1.1 12.2zM396 17.8v32.8l11.4.9-1.8 14.1c-1.1.2-2.1-.1-3.1-.2l-12.4-1.6-9.5-1.2c-.4 0-.6-.2-.6-.6V7.1c0-1.5 0-1.5 1.5-1.6l10.5-.8 14.7-1.2h.8c.2.9-.1 1.7-.2 2.5l-1.6 11.2c-.1.5-.3.7-.8.7l-8.9-.1zM78.6 53.4h12.8l-2 12.4c-.4.3-.8.2-1.2.2l-9.4-.7-13.1-.9c-.5 0-.6-.4-.6-.8V17.5c0-.8.3-1 1-1l12.2-1 7.8-.6 3.5-.3-1.9 12.8h-9.1v26zm351.9-26.1l-3.9.4c-.2-1.2 0-2.2.1-3.3l.4-5.7c0-.6.1-1.2.1-1.8a.47.47 0 0 1 .5-.5l2.7-.3V8.5l13.4-1.9v8.6l6.4-.4-.4 5.6-.4 5.1c0 .6-.5.6-.9.6l-4.7.4v38.2c-.3 0-.5.1-.7.1h-12c-.6 0-.7-.2-.7-.8V28.2c.1-.4.1-.6.1-.9zm-220.4 0l-4 .4.8-11.1c1-.4 2.1-.3 3.2-.6V8.4l13.4-1.9v8.6l6.4-.4-.8 11.3-5.5.5v37.4c0 .6-.2.9-.8.9h-12.6l-.1-37.5zm81.6-20.9V15l6.4-.4-.8 11.3-5.5.5v38c-.5.4-12.9.4-13.5 0v-37l-4 .3.8-11.1c1-.5 2.1-.3 3.2-.6V8.4l13.4-2zm119.2 11.1l13.1-1.9c.3.4.2.6.2.8v47.4c0 .6-.2.8-.8.8h-12.6l.1-47.1z"/><path d="M504.4 49.6v14.2c0 .6-.2.8-.8.8h-14.7c-.6 0-.7-.2-.7-.8V50c0-.5.2-.8.7-.8h14.7c.3.1.6.1.8.4zM424.2 4.2v8l-13.3 1.9v-8l13.3-1.9z"/></g><path d="M474.3 74.1l-4.4-5.7-2.6-3.3c-.6-.8-.6-1 .4-1.4l6.5-2.9v-2.4l-17.3 4.4c-.3-.3-.2-.5-.2-.8V15.7c0-.6.2-.9.8-.9l11.1-1.6c.5-.1.9-.2 1.5 0v37.5l4.1-.7V14.9l13.4-1.9v51.5c0 .6-.2 1-.7 1.4L475 74l-.3.3c-.1-.2-.2-.2-.4-.2zM5 4.1c.1-.1.2-.3.3-.4l7.1-.7 13.3-1.2 3.6-.3c.4 0 .6.2.5.5l-2 13.8c-2.2.3-4.4 0-6.7.1V28h6.1l-.9 6.3h-5.2v14.6l9.1 1.2c.2.9-.1 1.8-.2 2.6-.4 3.6-.9 7.2-1.4 10.8-.1.7-.3.9-1 .8-4-.6-8-1.1-12-1.6L5.5 61.4c-.2 0-.3-.2-.5-.3v-57zm503.5-1.9c-.3.8-.2 1.6-.2 2.3l-.5 9c-.2 4.2-.5 8.5-.8 12.7l-.7 12.3c-.1 1.3-.1 2.5-.2 3.8 0 .2-.1.4-.1.6h-12.7c-.1-1.7-.2-3.4-.2-5l-.7-14.6-.4-9.2-.6-11.8c0-.4-.2-.8.2-1.2h16.1c.3 0 .6 0 .8.2v.9zm-190.6 13l17.3-2.3v54.4l-13.4-1.9V21.1l-3.9.5v41.1h-13.4V6.5l13.4-1.9v10.6zM162.8 13v45.9c0 .7-.2 1-.9 1.1L146 62.8c-.2 0-.4.1-.6.1V73l-13.1-1.8c-.3-.3-.3-.5-.3-.8V17.6c0-.6.2-.9.9-1L162 13h.8zm-17.3 8.7V53l3.8-.6V21l-3.8.7zm120.6 40.9c-.3.2-.5.2-.7.2h-29.6c-.6 0-.8-.2-.8-.8V16c0-.3 0-.6.3-.8l30.8-2.3v49.7zm-17.6-9.1l4.2-.8V20.9l-4.2.7v31.9zm-81.6 10.7V14.6l30.5-1.7c.4.3.4.6.4.9v29.8c0 .5-.1.8-.7.8l-11 1-5.7.5v10.8l4.1-.8V50h13.4v11.5l-31 2.7zm17.3-24.4V21.2l-3.9.6v18.6l3.9-.6zm155-25.2l6-.3 20-1.1 4.2-.2c.4 0 .6.2.6.6v30.3c0 .1 0 .1-.1.4l-17.3 1.6v10.8l4.1-.8.1-6h13.1c.4.4.4 11 .1 11.5l-30.8 2.7V14.6zm17.3 6.6l-3.9.6v18.6l3.9-.6V21.2zm-241.8 9.5v-9.9l-4.1.8-.1 5.5H97.4c-.4-.4-.4-11-.1-11.5l30.8-2.7v49c0 .6-.1.8-.8.8h-11.9c-.2 0-.5.1-.8-.2v-2l-17.3 3.7v-32c5.8-.4 11.6-1 17.4-1.5zm-4 6.1v16.1l3.9-.6V36.1c-1.3.3-2.6.5-3.9.7zM64.6 25.2l-13.2 1.9c-.3-1.1 0-2.2-.2-3.4l-3.9.8v8.9L64.6 31v30.9l-30.8 2.3V47l13.3-1.9v8.7l4-.6V39.4l-17.3 2.4V14.9L64.5 13c.1 4.1.1 8.1.1 12.2zM399.5 16v32.8l11.4.9-1.8 14.1c-1.1.2-2.1-.1-3.1-.2L393.6 62l-9.5-1.2c-.4 0-.6-.2-.6-.6V5.3c0-1.5 0-1.5 1.5-1.6l10.5-.8 14.7-1.2h.8c.2.9-.1 1.7-.2 2.5l-1.6 11.2c-.1.5-.3.7-.8.7l-8.9-.1zM82.2 51.6H95L93 64c-.4.3-.8.2-1.2.2l-9.4-.7-13.1-.9c-.5 0-.6-.4-.6-.8V15.7c0-.8.3-1 1-1l12.2-1 7.8-.6 3.5-.3-1.9 12.8h-9.1v26zm351.9-26.1l-3.9.4c-.2-1.2 0-2.2.1-3.3l.4-5.7c0-.6.1-1.2.1-1.8a.47.47 0 0 1 .5-.5l2.7-.3V6.7l13.4-1.9v8.6l6.4-.4-.4 5.6-.4 5.1c0 .6-.5.6-.9.6l-4.7.4v38.2c-.3 0-.5.1-.7.1h-12c-.6 0-.7-.2-.7-.8V26.4c.1-.3.1-.6.1-.9zm-220.5 0l-4 .4.8-11.1c1-.4 2.1-.3 3.2-.6V6.6L227 4.7v8.6l6.4-.4-.8 11.3-5.5.5v37.4c0 .6-.2.9-.8.9h-12.6l-.1-37.5zm81.6-20.9v8.6l6.4-.4-.8 11.3-5.5.5v38c-.5.4-12.9.4-13.5 0v-37l-4 .3.8-11.1c1-.5 2.1-.3 3.2-.6V6.6l13.4-2zm119.2 11.1l13.1-1.9c.3.4.2.6.2.8V62c0 .6-.2.8-.8.8h-12.6l.1-47.1zM508 47.9v14.2c0 .6-.2.8-.8.8h-14.7c-.6 0-.7-.2-.7-.8V48.3c0-.5.2-.8.7-.8h14.7c.3 0 .5 0 .8.4zM427.8 2.4v8l-13.3 1.9v-8l13.3-1.9z" fill="#ed1c24"/></svg>