<svg xmlns="http://www.w3.org/2000/svg" xmlns:xlink="http://www.w3.org/1999/xlink" viewBox="0 0 99.3 99.3"><style><![CDATA[.m{fill-rule:evenodd}.n{stroke:#000}.o{stroke-miterlimit:10}.p{fill:none}.q{fill:#b5bbd4}.r{fill:#fff}.s{stroke-width:.68}.t{fill:#808285}.u{fill:#006cb7}.v{fill:#a7a9ac}.w{stroke:#474a4c}.x{clip-path:url(#E)}.y{clip-path:url(#I)}.z{clip-path:url(#Q)}.AA{clip-path:url(#S)}.AB{clip-path:url(#U)}]]></style><circle cx="40.9" cy="69.2" r="29" fill="#eb740d"/><circle cx="40.9" cy="63" r="29" fill="#ffe81f"/><linearGradient id="A" gradientUnits="userSpaceOnUse" x1="40.933" y1="71.432" x2="40.933" y2="38.115"><stop offset="0" stop-color="#fff" stop-opacity="0"/><stop offset=".91" stop-color="#fff" stop-opacity=".93"/><stop offset=".979" stop-color="#fff"/></linearGradient><path d="M65.6 63c0 2.4-.3 4.7-1 6.8C61.6 59.5 52.2 52 40.9 52c-11.2 0-20.7 7.5-23.7 17.8-.6-2.2-1-4.5-1-6.8 0-13.6 11-24.6 24.6-24.6 13.7 0 24.8 11 24.8 24.6z" fill="url(#A)"/><path d="M80.2 30.6c-.2 0-.5-.1-.8-.1-1.7-1.8-4.6-2.6-7-2.4-1.3.1-3.8.3-5.9.8 1.5-3 1.9-6.3.4-10-1.5-3.8-4.8-7-9-7.6-3.2-.5-6.6.2-9.6 1.4-.7-2.3-.3-4.1 0-5.1v-.1s.1 0 .1-.1c.5-.3.6-1 .3-1.5-.2-.2-.4-.4-.7-.5s-.6 0-.8.1c-.5.3-.6.9-.4 1.4V7c-.4 1.2-.8 3.5 0 6.2-1.9 1-3.6 2.1-5.1 3.7.6.2 1.3.4 1.8.8-1.6.7-3 1.3-4 1.9l-.3.2c-3.5 2.1-10.8 6.5-10.2 10.9.5 3.2 3.4 8.4 6.7 10.7 0 0 4.7 6.2 11.2 2 .1 0 .2-.1.3-.1-1.4 3.3-1.4 7.3.3 11 .5 1.1 1.2 2.2 2 3.1l-3.2 2.7c-1.6-.3-3.9.4-7 2.1-.3.1-.5.3-.8.5 0-.3-.1-.6-.1-.9 0-.2-.2-.3-.4-.3s-.4.2-.3.4c0 .4.1.9.1 1.3-.7.5-1.4 1-2.1 1.6.2-.3.3-.6.4-.9-1.8.2-3.8 1.3-5 2.6-.8.8-1.4 1.8-1.7 2.8-1.5-.1-2.6-.1-2.9 0 .1-.9-.8-1.7-1.1-.5-.1.4-.1.9-.2 1.4-.1.1-.1.2-.1.3-.1.3-.1.7.1 1.3.1 3.9 1.7 8.4 5.3 9.4.1 0 .2 0 .3.1 1.3 2.9 3.4 5.4 6.3 5.6.4 0 .8 0 1.2-.1.8.7 1.9 1 3.1.8 4.8-.8 9.2-6.1 11.4-10.3 1.3-2.4 2.7-6.2 1.2-8.9l7-5.4c.5 0 1-.1 1.5-.2 3.9-.8 8.1-3.8 10.2-7.2 2.5-3.9 1.8-8.3-.1-12.3-.6-1.4-1.4-2.8-2.4-4.2.3.1.5.2.9.3.4.9 1.1 1.4 1.8 1.4h.1c.6 0 1-.3 1.4-.7h.1c.8.7 2.4 1.9 4.1 2.6.1.7.4 1.4 1.3 1.8.4.2.8.3 1.1.3a1.92 1.92 0 0 0 1.2-.4l.3-.3h.1c.2 0 .5 0 .7-.1 1.7-.3 2.7-1.8 2.4-3.7.4-.5.7-1.1.9-1.8 1.3-3.9-2.7-7.2-6.4-7.9zM51.6 64.5a4.2 4.2 0 0 0-1.9.1c-.1-.2-.2-.5-.3-.7l4.2-3.4c.4.2.9.5 1.4.7.1.1.2.1.4.1l-3.8 3.2z" opacity=".7"/><defs><path id="B" d="M33.3 76.2c-1 2-4-.3-5.1-1.3-2.3-2.3-7-7.2-4.2-7.8.6-.1 7 0 9.4 2 1.7 1.4 1.5 5.5 0 7.1 0-.3 0-.3-.1 0z"/></defs><use xlink:href="#B" class="m q"/><clipPath id="C"><use xlink:href="#B"/></clipPath><path d="M32.3 66.7c.7 1-.7 5-1.9 5.1-2.1.2-6.2-4.1-6.5-5.5-.2-.9 2.8-1.8 2.7-2.8 0-.2.1-1-.1-1.1-.2-.3-.9-.1-1.2-.1-1.4.4-2.2 2.1-2.5 3.3-.9 4.2.5 11.6 5.3 12.9 4.6 1.3 10.3-3.8 9.1-8.6-.6-2.1-2.8-3.8-4.9-3.2z" clip-path="url(#C)" class="m q"/><use xlink:href="#B" class="n o p"/><defs><path id="D" d="M46 59.7c2.7 2.8-4.5 13.1-8.2 15.8-1.3 1-4.4 3.4-5.7 1.2-1.1-1.8-.2-4 .1-5.9.1-.9.6-2.6-.5-3.1-.7-.2-1.7.4-1.7-.8s1.9-2.8 2.7-3.6c1.5-1.4 3-2.6 4.7-3.5s8-4.3 8.6-.1z"/></defs><use xlink:href="#D" class="m q"/><clipPath id="E"><use xlink:href="#D"/></clipPath><path d="M44.4 59.3c-.4 3.1-3.3 6.5-5.3 8.6-.6.6-4.1 4.4-5.3 3.1-.8-.8.6-6.7-2.2-5-.1-2 1.9-3.5 2.3-5.3-1.9.2-3.9 1.4-5.2 2.7-2.3 2.3-2.4 5.4-1.9 8.5.5 3.2 1.8 8.3 5.9 7.9 5.1-.4 10.1-5.5 12.8-9.6 1.7-2.7 3.7-7 1.5-10.1-.7-.7-1.6-1.6-2.6-.8z" class="m q x"/><g class="n o p"><path d="M44.2 69.1c-1.9.2-4-.9-5.3-2.3-2.2-2.4-2.8-5-3.1-8.1" stroke-width=".51" class="x"/><use xlink:href="#D"/></g><path d="M55.3 53.5l-8.5 6.9c-.3.3-.8.3-1.1.2-.9-.3-1.5-.8-1.7-1.8-.1-.3.1-.5.3-.7l9.2-7.8c2.2 0 2.6 1.2 1.8 3.2z" fill="#d0d2e3" class="m n o"/><path d="M52 53l-.8.4-.9.6c-.3.2-.5.4-.8.6l-.8.6-.7.6-.4.3-1.1 1.1-.6.8.5-.2.4-.2.8-.5.4-.2 1.2-.9.7-.7c.2-.2.5-.4.7-.7l.6-.7.3-.4.5-.5z" class="r"/><defs><path id="F" d="M39.6 81c-.5 2.2-4 .5-5.2-.2-2.7-1.7-8.4-5.5-5.8-6.7.5-.2 6.8-1.5 9.6-.1 2 1 2.7 5 1.5 6.9-.1-.2-.1-.2-.1.1z"/></defs><use xlink:href="#F" class="m r"/><clipPath id="G"><use xlink:href="#F"/></clipPath><path d="M36.6 72c.9.9.4 5-.8 5.4-2 .7-6.9-2.7-7.5-4-.4-.9 2.4-2.4 2.1-3.3-.1-.2-.2-.9-.4-1.1-.3-.2-.9.1-1.2.2-1.3.7-1.7 2.5-1.7 3.8.1 4.3 3 11.2 7.9 11.5 4.8.3 9.2-5.9 7-10.3-1-2.1-3.5-3.3-5.4-2.2z" clip-path="url(#G)" class="m q"/><use xlink:href="#F" class="n o p"/><defs><path id="H" d="M51.1 64.1c2.9 2.6-3.4 13.4-6.7 16.4-1.3 1.1-4.1 3.8-5.6 1.7-1.2-1.7-.6-4-.4-5.9.1-.9.4-2.7-.8-3-.7-.2-1.6.5-1.7-.7s1.7-3 2.4-3.8c1.3-1.5 2.7-2.8 4.4-3.9 1.4-1 7.4-5 8.4-.8z"/></defs><use xlink:href="#H" class="m r"/><clipPath id="I"><use xlink:href="#H"/></clipPath><path d="M49.4 63.8c-.1 3.1-2.7 6.7-4.6 9.1-.5.7-3.7 4.7-5 3.6-.9-.7 0-6.7-2.7-4.8-.3-2 1.6-3.7 1.9-5.5-1.8.3-3.8 1.7-4.9 3.1-2.1 2.5-2 5.6-1.2 8.6.8 3.2 2.5 8.1 6.6 7.4 5-.9 9.6-6.4 11.9-10.7 1.5-2.8 3.1-7.3.6-10.2-.6-.6-1.6-1.4-2.6-.6z" class="m q y"/><g class="n o p"><path d="M50.1 73.6c-1.8.4-4.1-.6-5.4-1.8-2.4-2.2-3.3-4.7-3.8-7.8" stroke-width=".51" class="y"/><use xlink:href="#H"/></g><defs><ellipse id="J" transform="matrix(.6916 -.7223 .7223 .6916 -.8312 53.7301)" cx="62.5" cy="27.8" rx="1.8" ry="1.3"/></defs><use xlink:href="#J" class="m r"/><clipPath id="K"><use xlink:href="#J"/></clipPath><path d="M61.1 30c-.5-1.1.8-2.5 1.7-2.8.7-.2 2 .2 2.3-.6.2-.7-.7-1.4-1.2-1.6-1-.3-2.1.4-2.7 1.2-1 1.1-1.5 3.3-.1 3.8z" clip-path="url(#K)" class="m q"/><g class="n"><use xlink:href="#J" class="o p s"/><circle cx="57.5" cy="38.9" r="2.1" class="m t"/></g><path d="M56.4 39.7c0 .1.1.1.1.2l.2.2c.1.1.3.2.5.2a.9.9 0 0 0 .5.1c.2 0 .4 0 .5-.1.2-.1.3-.2.4-.3l.4-.4c.1-.2.1-.3.1-.5v-.3c0-.1 0-.2-.1-.2l-.2.2c-.1.1-.1.1-.2.1-.1.1-.2.2-.3.2h-.1l-.2.2c-.1.1-.2.1-.3.1-.1.1-.2.1-.3.1s-.2 0-.3.1h-.6c.1.1 0 .1-.1.1z" class="v"/><defs><path id="L" d="M57 38.1c.5-2.5 4-9.4 5.5-11 1.1-.3-1.4 1.3 1.1 3.9l-5.4 8c-.6.5-1.4.2-1.2-.9z"/></defs><use xlink:href="#L" class="m r"/><clipPath id="M"><use xlink:href="#L"/></clipPath><path d="M57.3 40.4c.1-2.3 1.6-5 2.6-7 .6-1.2 1.4-2.2 2.1-3.3.4-.6 1.3-1.5 1.3-2.3-.1-1.8-2.6-1.3-3.5-.6-2.4 1.7-3.6 4.6-4 7.4-.2 1.2-.7 4.8.6 5.7.5.3.8.4.9.1z" clip-path="url(#M)" class="m q"/><use xlink:href="#L" class="n o p"/><defs><path id="N" d="M63 26.8s5.5-2.4 10.6-.1 5.4 6 3.2 7.9-6.5.4-8.8-.8-4.5-3.1-4.5-3.1c-1.3-1.3-1.3-2.6-.5-3.9z"/></defs><use xlink:href="#N" class="m r"/><clipPath id="O"><use xlink:href="#N"/></clipPath><path d="M63.1 29.1c3.2-.9 6.8-1.1 9.8.6 2.1 1.1 3.8 3.3 3.1 5.8 2.3-1 3.9-2.8 3.9-5.5 0-4.4-4.9-6.7-8.8-6.3-3.2.2-13.7 1.1-8 5.4z" clip-path="url(#O)" class="m q"/><g class="n o"><use xlink:href="#N" class="p"/><g class="m t"><path d="M77.7 32.8c.7.3.6 1.5-.6 2.7-.9.9-2.3.8-3.2-.1-.7-.7-.8-1.5 0-2.1.7-.5 1.3-.3 2-.2a6.11 6.11 0 0 0 1.3.3c.4 0 .4-.3.5-.6z"/><path d="M70.5 35.1c.2.7.8 1.2 1.3 1.2.7 0 1.3-.7 1.6-1.4.4-.9 0-3-1.5-2.5-.9.3-1.5 2-1.4 2.7zm7.2-5c.8.2 1.7 1.7.1 3.1-1 .9-1.8 1-2.9.2-.8-.6-.9-1.7-.1-2.4.6-.6.6-.2 1.4-.1.3 0 1.2.2 1.4.2.4-.2 0-.6.1-1z"/></g></g><defs><ellipse id="P" transform="matrix(.907 -.4211 .4211 .907 -13.89 28.31)" cx="57.1" cy="45.6" rx="11.9" ry="12.8"/></defs><use xlink:href="#P" class="m r"/><clipPath id="Q"><use xlink:href="#P"/></clipPath><path d="M44.6 36.5c2.2 2.3 6.2 2.5 9 1.4.7-.3 2.8-1.1 3.5-1.8.4-.4 7.4 2.4 7.8 12.4.1 2.6-1.2 5-2.9 6.8-1 1-2.1 1.9-3.3 2.6-1.1.6-2.3.7-3.4 1.3.4 0 .8.2 1.2.3 1.5.5 2.9.5 4.4.2 4-.9 8.4-4 10.6-7.5 2.6-4 1.8-8.6-.1-12.8-1.4-3-3.4-6.2-6.1-8.2-.6-.4-1-.6-1.7-.7-1.4-.3-2.9-.7-4.3-.9-3.9-.3-7 2.4-10.4 3.8-1.3.7-4.4 1.5-4.3 3.1z" class="m q z"/><g class="z"><path d="M68.2 41.1c-.2.5-.6.9-.9 1.3l-1.2 1.1-2.6 1.8c-.9.6-1.8 1-2.8 1.5s-2 .8-3 1.2l-3.1.8-1.6.3-1.6.2c-1.1.1-2.1.1-3.2.1-.5 0-1.1-.1-1.6-.1s-1-.1-1.6-.2h1.6c.5 0 1 0 1.6-.1l3.1-.3 1.6-.2 1.5-.3c1-.2 2-.5 3-.9 1-.3 2-.7 2.9-1.1 1-.4 1.9-.9 2.8-1.4l2.7-1.6 1.3-.9c.5-.4.8-.8 1.1-1.2z" fill="#202020"/></g><g class="n"><use xlink:href="#P" class="o p"/><ellipse transform="matrix(.9203 -.3911 .3911 .9203 -14.5341 24.3006)" cx="52.4" cy="47.8" rx="6.4" ry="8.9" class="m s u"/></g><path d="M49.4 41.6c-1.1.3-2 1.2-2.5 2.2-.7 1.4-.4 3 .2 4.4.5 1.4 1.5 3.8 2.9 4.4-.9-1-.3-2.7.3-3.7.6-1.2 1.8-1.7 2.8-2.6 1.5-1.6-.1-5.8-3.7-4.7z" fill="#2e95ce" class="m"/><path d="M48.8 44.6c.3.9 1 1.7 1.8 1.4.9-.4.8-2.1 0-2.9-.3-.3-1-.8-1.4-.6-.7.3-.7 1.2-.4 2.1z" fill="#fff200" class="m"/><path d="M51.2 43.7c.3 1 1.1 1.7 2.1 1.3 1.1-.5 1.2-2.3.2-3-.3-.3-1.1-.7-1.6-.5-.8.3-.9 1.3-.7 2.2z" fill="#ed1846" class="m"/><path d="M50.3 48.5c.3.9 1 1.8 1.8 1.4.9-.3.8-2.1 0-2.9-.3-.3-1-.8-1.4-.6-.6.4-.7 1.3-.4 2.1zm1.8 4c.3.9 1.1 1.8 1.9 1.5.9-.3.9-2 0-2.9-.3-.3-1-.8-1.4-.6-.7.2-.8 1.1-.5 2zm.8-4.9c.3 1 1.1 1.8 2.1 1.4 1.1-.4 1.2-2.2.2-3-.3-.3-1.1-.7-1.7-.5-.8.2-.9 1.2-.6 2.1zm-5.1 1.8c.3.9 1 1.7 1.7 1.5.7-.3.6-1.9-.1-2.8-.3-.3-.9-.8-1.2-.7-.6.3-.6 1.1-.4 2z" fill="#fff200" class="m"/><path d="M46.4 45.6c.3.9 1 1.7 1.7 1.4s.6-2-.2-2.8c-.3-.3-.9-.8-1.2-.6-.6.3-.6 1.1-.3 2zm8.2 6.1c.3 1 1.1 1.8 2.2 1.4s1.2-2.2.2-3c-.4-.3-1.1-.8-1.7-.6-.9.3-1 1.3-.7 2.2zm-5 1.4c.3.9 1 1.8 1.7 1.5.8-.3.7-1.9-.1-2.8-.3-.3-.9-.8-1.3-.7-.6.3-.6 1.2-.3 2z" fill="#ed1846" class="m"/><ellipse transform="matrix(.9072 -.4207 .4207 .9072 -9.8596 25.7134)" cx="53.3" cy="35.2" rx="3.6" ry="1.7" class="m n u"/><defs><path id="R" d="M49.4 30.3c.2-.8 1.5-1.3 2.1-1.5 1.2-.5 1.4 1.2 1.4 1.2v-.1c.9 1.8 2.7 4.8.2 5.5-1 .3-1.5-.1-2-1-.4-.9-2-3.2-1.7-4.1z"/></defs><use xlink:href="#R" class="m t"/><clipPath id="S"><use xlink:href="#R"/></clipPath><path d="M48.3 34c1.1-2 3.1-3.8 4.3-.7 1.5 3.7-4.5 3-4.3.7z" class="m v AA"/><g class="o p"><path d="M54.4 32.1c-.2 2-3.5 3.2-4.7 1.4m4.2-2.5c-.2 2-3.5 3.2-4.7 1.4m4.2-2.5c-.2 2-3.5 3.2-4.7 1.4m4.2-2.5c-.2 2-3.5 3.2-4.7 1.4" class="AA s w"/><use xlink:href="#R" class="n"/></g><path d="M54.5 35.4l-.2.1H54c-.1 0-.3.1-.4.1s-.3.1-.4.1-.3.1-.4.1-.3.1-.4.1l-.2.1H52c-.1.1-.3.1-.4.2l-.4.2.4.2c.2 0 .3.1.5.1h.4c.2 0 .3 0 .5-.1s.3-.1.5-.2.3-.1.4-.3l.4-.4.1-.2.1-.1z" fill="#2e95ce"/><g class="n"><path d="M45.6 2.1c-.7 2.2-.8 5.3 1.3 8.7" stroke-linecap="round" stroke-linejoin="round" class="o p"/><circle cx="47.1" cy="11.7" r="1.4" class="m u"/></g><defs><path id="T" d="M59.7 9.9c2 1.3 4 4.1 4.4 6.5.4 2.6-4.9 9.1-14.6 16.1C46.1 35 42 37.1 37.9 38c-4.8 1-9.9-7.6-10.6-11.7-.6-4.2 7.3-8.9 10.5-10.7 5.5-3.4 19.8-7.4 21.9-5.7z"/></defs><use xlink:href="#T" class="m r"/><clipPath id="U"><use xlink:href="#T"/></clipPath><path d="M39.6 12.1c3.9 1.1 6.9 4.6 9 7.9 1.1 1.6 2.1 3.4 2.8 5.2.2.6 1 2.2.8 2.9-.3 1-2.3 3-8.2 6.3-1.7 1-8.4 3.6-14.4 3.6-.3 1.1 3.4 1.1 4.2 1.8 3.1 2.8 7.9 1.4 11.3-.1 9.6-4.3 25.5-12.8 20.5-25.6-1.6-4-5-7.2-9.3-7.9-3.3-.5-7 .2-10.1 1.6-2.6 1-4.7 2.3-6.6 4.3z" class="m q AB"/><g class="AB"><path d="M49.4 10c.4.2.8.3 1.1.5l1.1.6c.7.5 1.3 1 2 1.6.6.6 1.2 1.2 1.7 1.9l1.4 2.1c.4.7.8 1.5 1.1 2.3.2.4.3.8.4 1.2l.4 1.2.5 2.5c.1.4.1.8.1 1.2s0 .8.1 1.2c-.2-.3-.3-.7-.3-1.1l-.3-1.2-.7-2.4-.4-1.2c-.1-.4-.3-.8-.5-1.1a22.56 22.56 0 0 0-1.1-2.2L54.7 15c-.5-.7-1-1.3-1.6-1.9-.5-.6-1.1-1.2-1.8-1.7-.3-.3-.6-.5-1-.8-.2-.1-.5-.3-.9-.6z" fill="#202020"/></g><g class="n"><use xlink:href="#T" class="o p"/><circle cx="45.9" cy="1.3" r=".6" class="m s u"/></g><g fill="#1c1c45" class="m"><ellipse transform="matrix(.8436 -.537 .537 .8436 -7.9994 24.2948)" cx="37.7" cy="25.9" rx="2" ry="3"/><ellipse transform="matrix(.8436 -.537 .537 .8436 -10.1175 22.2687)" cx="33.2" cy="28.5" rx="1.7" ry="2.7"/></g><g class="r m"><ellipse transform="matrix(.8436 -.537 .537 .8436 -7.8506 23.5661)" cx="36.5" cy="25.3" rx=".6" ry=".8"/><ellipse transform="matrix(.8436 -.537 .537 .8436 -9.9991 21.6846)" cx="32.2" cy="28" rx=".6" ry=".8"/></g><defs><path id="V" d="M82.2 33.3c1.2.2 2 2.2 2.1 3.3.2 1.5-.3 2.8-1.9 3.1-3.8.7-1.6-5.3-.2-6.4z"/></defs><use xlink:href="#V" class="m t"/><clipPath id="W"><use xlink:href="#V"/></clipPath><g class="o p"><path d="M83.7 34.2c.1.9-1.4 2.3-2.3 2.3m2.9-1c-.1 1.1-2.5 2.6-3.4 2.2m3.7-.5c-1 1-2.4 1.9-3.9 1.7" clip-path="url(#W)" class="s w"/><use xlink:href="#V" class="n"/></g><defs><path id="X" d="M78.4 35.5c.8 1.5-.9 3.8.9 4.7s2.9-1.2 2.8-2.7c-.1-1-.6-2.6-1.5-3.2s-2.6.2-2.2 1.2z"/></defs><use xlink:href="#X" class="m t"/><clipPath id="Y"><use xlink:href="#X"/></clipPath><g class="o p"><path d="M78.5 38.7c1 1 3.1.6 3.5-.9m-4.3-.7c.3.7 1.2.8 1.9.8 1.4 0 1.9-.9 2.5-1.9m-4.2-.7c0 2.2 4.6.4 4.8-1.5" clip-path="url(#Y)" class="s w"/><use xlink:href="#X" class="n"/></g><defs><path id="Z" d="M70.5 27.2s6-.8 10.2 2.8 3.6 7.2 1 8.5-6.4-1.3-8.3-3.1-3.4-4.3-3.4-4.3c-1-1.7-.6-3 .5-3.9z"/></defs><use xlink:href="#Z" class="m r"/><clipPath id="a"><use xlink:href="#Z"/></clipPath><path d="M70 29.4c3.3 0 6.8.8 9.3 3.2 1.7 1.7 2.8 4.2 1.4 6.4 2.5-.4 4.5-1.7 5.3-4.2 1.2-4.3-3-7.8-6.7-8.5-3.3-.6-13.7-2.6-9.3 3.1z" clip-path="url(#a)" class="m q"/><g class="n"><use xlink:href="#Z" class="o p"/><circle cx="62" cy="37.3" r="2.1" class="m t"/></g><path d="M60.7 37.8c0 .1 0 .2.1.2 0 .1.1.2.1.2.1.1.2.3.4.4.1.1.3.2.5.2s.4.1.5 0c.2 0 .4-.1.5-.2.1 0 .2-.1.2-.1l.2-.2c.1-.1.2-.3.3-.4v-.6c-.1 0-.1.1-.2.1s-.1.1-.2.1c-.1.1-.2.1-.3.2h-.2c-.1 0-.1 0-.2.1h-.9c-.1 0-.2 0-.4-.1h-.2c-.1.2-.2.1-.2.1z" class="v"/><defs><path id="b" d="M61.6 36.4c1.1-2.3 3.1-5.1 5.8-7.8 1.1 0 1.9.3 2.3 1 .5.9.2 2-.6 2.6l-6.5 5.4c-.7.3-1.4-.2-1-1.2z"/></defs><use xlink:href="#b" class="m r"/><clipPath id="c"><use xlink:href="#b"/></clipPath><path d="M61.4 38.7c.7-2.2 2.8-4.4 4.3-6 .9-1 1.9-1.8 2.9-2.6.5-.4 1.7-1.1 1.8-1.8.3-1.7-2.2-1.9-3.2-1.5-2.8 1-4.7 3.5-5.8 6.1-.5 1.1-2 4.5-.9 5.7.4.2.7.4.9.1z" clip-path="url(#c)" class="m q"/><use xlink:href="#b" class="n o p"/><defs><ellipse id="d" transform="matrix(.7854 -.619 .619 .7854 -2.8877 48.8125)" cx="68.9" cy="28.6" rx="1.8" ry="1.3"/></defs><use xlink:href="#d" class="m r"/><clipPath id="e"><use xlink:href="#d"/></clipPath><path d="M67.3 30.5c-.4-1.1 1.1-2.4 2.1-2.5.7-.1 2 .5 2.3-.3.3-.6-.5-1.5-1-1.7-1-.5-2.1.1-2.9.8-1 .9-1.9 3-.5 3.7z" clip-path="url(#e)" class="m q"/><g class="n o"><use xlink:href="#d" class="p s"/><path d="M60.6 57.9l-8.6 7c-.3.3-.8.3-1.1.2-.9-.3-1.5-.8-1.7-1.8-.1-.3.1-.5.3-.7l9.2-7.8c2.2 0 2.7 1.1 1.9 3.1z" fill="#d0d2e3" class="m"/></g><path d="M57.3 57.4l-.8.4-.8.5c-.3.2-.5.4-.8.6l-.8.6-.7.6-.4.5-1 1-.6.8.5-.2.4-.2.8-.5.4-.2 1.2-.9.7-.7c.2-.2.5-.4.7-.7l.6-.7.3-.4.3-.5z" class="r"/></svg>