<svg id="Layer_1" data-name="Layer 1" xmlns="http://www.w3.org/2000/svg" xmlns:xlink="http://www.w3.org/1999/xlink" viewBox="0 0 26 16"><defs><style>.cls-1{fill:none;}.cls-2{clip-path:url(#clip-path);}.cls-3{fill:#cdae7a;}.cls-4{fill:#e9d7b6;}.cls-5{fill:#a68f6d;}.cls-6{fill:#c39025;}.cls-7{fill:#e3ae3f;}.cls-8{fill:#f9c54e;}.cls-9{fill:#957548;}</style><clipPath id="clip-path"><rect class="cls-1" width="26" height="16"/></clipPath></defs><g class="cls-2"><path class="cls-3" d="M20.75,394.59c-.78,0-1.4-.92-1.4-2.07V-12c0-1.14.62-2.07,1.4-2.07s1.4.93,1.4,2.07V392.52C22.15,393.67,21.52,394.59,20.75,394.59Z"/><path class="cls-4" d="M21.06,394c-.27,0-.49-.32-.49-.72V-12.57c0-.4.22-.72.49-.72s.49.32.49.72v405.8C21.55,393.63,21.34,394,21.06,394Z"/><path class="cls-5" d="M19.34,9.15V6.38h0A4.12,4.12,0,0,0,20.9,9.58l.24.23a5.59,5.59,0,0,1,1,1.19v2.58a4.4,4.4,0,0,0-1.47-2.91l-.23-.22A5,5,0,0,1,19.34,9.15ZM21.14,2,20.9,1.8a4.14,4.14,0,0,1-1.52-3.21h0V1.37a5,5,0,0,0,1.1,1.3l.23.22A4.37,4.37,0,0,1,22.14,5.8V3.22A5.59,5.59,0,0,0,21.14,2Zm-1.8-8a5,5,0,0,0,1.1,1.3l.23.21A4.43,4.43,0,0,1,22.14-1.5V-4.08a5.59,5.59,0,0,0-1-1.19L20.9-5.5a4.14,4.14,0,0,1-1.52-3.21h0Zm2.8,24.23a5.86,5.86,0,0,0-1-1.19l-.24-.22a4.15,4.15,0,0,1-1.52-3.22h0v2.78a5.41,5.41,0,0,0,1.1,1.3l.23.21a4.4,4.4,0,0,1,1.47,2.91Zm-1.7,21.57.23.21A4.43,4.43,0,0,1,22.14,43V40.42a6,6,0,0,0-1-1.2L20.9,39a4.15,4.15,0,0,1-1.52-3.22h0v2.78A5,5,0,0,0,20.44,39.87Zm.7-8.43-.24-.22A4.15,4.15,0,0,1,19.38,28h0v2.78a5.22,5.22,0,0,0,1.1,1.3l.23.21a4.4,4.4,0,0,1,1.47,2.92V32.64A5.7,5.7,0,0,0,21.14,31.44Zm-1.8-8a5.41,5.41,0,0,0,1.1,1.3l.23.21a4.4,4.4,0,0,1,1.47,2.92V25.33a5.86,5.86,0,0,0-1-1.19l-.24-.22a4.15,4.15,0,0,1-1.52-3.22h0Zm2.8,24.23a5.59,5.59,0,0,0-1-1.19l-.24-.23a4.14,4.14,0,0,1-1.52-3.21h0v2.78a5,5,0,0,0,1.1,1.3l.23.21a4.43,4.43,0,0,1,1.47,2.92ZM19.34,67.8V65h0a4.15,4.15,0,0,0,1.52,3.22l.24.22a5.86,5.86,0,0,1,1,1.19v2.58a4.4,4.4,0,0,0-1.47-2.91l-.23-.21A5.41,5.41,0,0,1,19.34,67.8Zm1.8-7.13-.24-.23a4.14,4.14,0,0,1-1.52-3.21h0V60a5,5,0,0,0,1.1,1.3l.23.22a4.37,4.37,0,0,1,1.47,2.91V61.86A5.59,5.59,0,0,0,21.14,60.67Zm-1.8-8a5,5,0,0,0,1.1,1.3l.23.22a4.37,4.37,0,0,1,1.47,2.91V54.56a5.59,5.59,0,0,0-1-1.19l-.24-.23a4.14,4.14,0,0,1-1.52-3.21h0Zm2.8,24.23a5.86,5.86,0,0,0-1-1.19l-.24-.22a4.15,4.15,0,0,1-1.52-3.22h0V75.1a5.41,5.41,0,0,0,1.1,1.3l.23.21a4.4,4.4,0,0,1,1.47,2.91Zm-1.7,21.57.23.22a4.37,4.37,0,0,1,1.47,2.91V99.06a5.59,5.59,0,0,0-1-1.19l-.24-.23a4.14,4.14,0,0,1-1.52-3.21h0v2.78A5,5,0,0,0,20.44,98.51Zm.7-8.43-.24-.22a4.15,4.15,0,0,1-1.52-3.22h0v2.78a5.22,5.22,0,0,0,1.1,1.3l.23.21a4.4,4.4,0,0,1,1.47,2.92V91.28A6,6,0,0,0,21.14,90.08Zm-1.8-8a5.22,5.22,0,0,0,1.1,1.3l.23.21a4.4,4.4,0,0,1,1.47,2.92V84a5.7,5.7,0,0,0-1-1.2l-.24-.22a4.15,4.15,0,0,1-1.52-3.22h0Zm2.8,24.23a5.59,5.59,0,0,0-1-1.19l-.24-.23a4.14,4.14,0,0,1-1.52-3.21h0v2.77a5,5,0,0,0,1.1,1.3l.23.22a4.37,4.37,0,0,1,1.47,2.91Zm-2.8,21v-2.78h0a4.15,4.15,0,0,0,1.52,3.22l.24.22a5.86,5.86,0,0,1,1,1.19v2.58a4.4,4.4,0,0,0-1.47-2.91l-.23-.21A5.41,5.41,0,0,1,19.34,127.31Zm1.8-7.13L20.9,120a4.14,4.14,0,0,1-1.52-3.21h0v2.77a5,5,0,0,0,1.1,1.3l.23.22A4.37,4.37,0,0,1,22.14,124v-2.58A5.59,5.59,0,0,0,21.14,120.18Zm-1.8-8a5,5,0,0,0,1.1,1.3l.23.22a4.37,4.37,0,0,1,1.47,2.91v-2.58a5.59,5.59,0,0,0-1-1.19l-.24-.23a4.14,4.14,0,0,1-1.52-3.21h0Zm2.8,24.23a5.86,5.86,0,0,0-1-1.19L20.9,135a4.15,4.15,0,0,1-1.52-3.22h0v2.78a5.41,5.41,0,0,0,1.1,1.3l.23.21A4.4,4.4,0,0,1,22.14,139ZM20.44,158l.23.22a4.37,4.37,0,0,1,1.47,2.91v-2.58a5.59,5.59,0,0,0-1-1.19l-.24-.23a4.14,4.14,0,0,1-1.52-3.21h0v2.78A5,5,0,0,0,20.44,158Zm.7-8.43-.24-.22a4.15,4.15,0,0,1-1.52-3.22h0v2.78a5,5,0,0,0,1.1,1.3l.23.21a4.4,4.4,0,0,1,1.47,2.92v-2.58A6,6,0,0,0,21.14,149.59Zm-1.8-8a5.22,5.22,0,0,0,1.1,1.3l.23.21a4.4,4.4,0,0,1,1.47,2.92v-2.58a5.7,5.7,0,0,0-1-1.2l-.24-.22a4.15,4.15,0,0,1-1.52-3.22h0Zm2.8,24.23a5.59,5.59,0,0,0-1-1.19l-.24-.23a4.14,4.14,0,0,1-1.52-3.21h0V164a5,5,0,0,0,1.1,1.3l.23.22a4.37,4.37,0,0,1,1.47,2.91Zm-2.8,21v-2.78h0a4.15,4.15,0,0,0,1.52,3.22l.24.22a5.7,5.7,0,0,1,1,1.2v2.58a4.4,4.4,0,0,0-1.47-2.92l-.23-.21A5.22,5.22,0,0,1,19.34,186.89Zm1.8-7.13-.24-.22a4.15,4.15,0,0,1-1.52-3.22h0v2.78a5.41,5.41,0,0,0,1.1,1.3l.23.21a4.4,4.4,0,0,1,1.47,2.91V181A5.86,5.86,0,0,0,21.14,179.76Zm-1.8-7.95a5.41,5.41,0,0,0,1.1,1.3l.23.21a4.4,4.4,0,0,1,1.47,2.91v-2.58a5.86,5.86,0,0,0-1-1.19l-.24-.22A4.15,4.15,0,0,1,19.38,169h0ZM22.14,196a5.7,5.7,0,0,0-1-1.2l-.24-.22a4.15,4.15,0,0,1-1.52-3.22h0v2.78a5.22,5.22,0,0,0,1.1,1.3l.23.21a4.4,4.4,0,0,1,1.47,2.92Zm-1.7,21.56.23.22a4.4,4.4,0,0,1,1.47,2.91v-2.58a5.59,5.59,0,0,0-1-1.19l-.24-.23a4.12,4.12,0,0,1-1.52-3.21h0v2.77A5,5,0,0,0,20.44,217.6Zm.7-8.42L20.9,209a4.14,4.14,0,0,1-1.52-3.21h0v2.78a5,5,0,0,0,1.1,1.3l.23.21A4.43,4.43,0,0,1,22.14,213v-2.58A5.59,5.59,0,0,0,21.14,209.18Zm-1.8-8a5,5,0,0,0,1.1,1.3l.23.21a4.43,4.43,0,0,1,1.47,2.92v-2.58a5.59,5.59,0,0,0-1-1.19l-.24-.23a4.14,4.14,0,0,1-1.52-3.21h0Zm2.8,24.23a5.86,5.86,0,0,0-1-1.19L20.9,224a4.17,4.17,0,0,1-1.52-3.22h0v2.77a5,5,0,0,0,1.1,1.3l.23.22A4.4,4.4,0,0,1,22.14,228Zm-2.8,20.26v-2.78h.05a4.12,4.12,0,0,0,1.52,3.22l.24.22a6.23,6.23,0,0,1,1,1.19v2.59a4.4,4.4,0,0,0-1.46-2.92l-.23-.21A5.66,5.66,0,0,1,19.34,245.71Zm1.81-7.13-.24-.23a4.09,4.09,0,0,1-1.52-3.21h-.05v2.77a5.27,5.27,0,0,0,1.11,1.3l.23.22a4.4,4.4,0,0,1,1.46,2.91v-2.58A6.23,6.23,0,0,0,21.15,238.58Zm-1.81-8a5.27,5.27,0,0,0,1.11,1.3l.23.22a4.4,4.4,0,0,1,1.46,2.91v-2.58a5.93,5.93,0,0,0-1-1.19l-.24-.23a4.09,4.09,0,0,1-1.52-3.21h-.05Zm2.8,24.23a6.23,6.23,0,0,0-1-1.19l-.24-.22a4.12,4.12,0,0,1-1.52-3.22h-.05V253a5.66,5.66,0,0,0,1.11,1.3l.23.21a4.4,4.4,0,0,1,1.46,2.92Zm-1.69,21.57.23.22a4.37,4.37,0,0,1,1.46,2.91V277a5.93,5.93,0,0,0-1-1.19l-.24-.23a4.11,4.11,0,0,1-1.52-3.21h-.05v2.77A5.27,5.27,0,0,0,20.45,276.42Zm.7-8.43-.24-.22a4.12,4.12,0,0,1-1.52-3.22h-.05v2.78a5.27,5.27,0,0,0,1.11,1.3l.23.21a4.43,4.43,0,0,1,1.46,2.92v-2.58A6.37,6.37,0,0,0,21.15,268ZM19.34,260a5.27,5.27,0,0,0,1.11,1.3l.23.21a4.43,4.43,0,0,1,1.46,2.92v-2.58a6.37,6.37,0,0,0-1-1.2l-.24-.22a4.12,4.12,0,0,1-1.52-3.22h-.05Zm2.8,24.23a5.93,5.93,0,0,0-1-1.19l-.24-.23a4.11,4.11,0,0,1-1.52-3.21h-.05v2.77a5.27,5.27,0,0,0,1.11,1.3l.23.22a4.37,4.37,0,0,1,1.46,2.91Zm-2.8,20.08v-2.78h.05a4.12,4.12,0,0,0,1.52,3.22l.24.22a6.05,6.05,0,0,1,1,1.2v2.58a4.4,4.4,0,0,0-1.46-2.92l-.23-.21A5.46,5.46,0,0,1,19.34,304.35Zm1.81-7.13-.24-.22a4.12,4.12,0,0,1-1.52-3.22h-.05v2.78a5.66,5.66,0,0,0,1.11,1.3l.23.21A4.4,4.4,0,0,1,22.14,301v-2.58A6.23,6.23,0,0,0,21.15,297.22Zm-1.81-8a5.66,5.66,0,0,0,1.11,1.3l.23.21a4.4,4.4,0,0,1,1.46,2.91v-2.58a6.23,6.23,0,0,0-1-1.19l-.24-.22a4.12,4.12,0,0,1-1.52-3.22h-.05Zm2.8,24.23a6.05,6.05,0,0,0-1-1.2l-.24-.22a4.12,4.12,0,0,1-1.52-3.22h-.05v2.78a5.46,5.46,0,0,0,1.11,1.3l.23.21a4.4,4.4,0,0,1,1.46,2.92Zm-1.69,21.56.23.22a4.4,4.4,0,0,1,1.46,2.91v-2.58a5.93,5.93,0,0,0-1-1.19l-.24-.23A4.09,4.09,0,0,1,19.39,331h-.05v2.77A5.27,5.27,0,0,0,20.45,335.06Zm.7-8.42-.24-.23a4.11,4.11,0,0,1-1.52-3.21h-.05V326a5.27,5.27,0,0,0,1.11,1.3l.23.22a4.37,4.37,0,0,1,1.46,2.91v-2.58A5.93,5.93,0,0,0,21.15,326.64Zm-1.81-8a5.27,5.27,0,0,0,1.11,1.3l.23.21a4.43,4.43,0,0,1,1.46,2.92v-2.58a5.93,5.93,0,0,0-1-1.19l-.24-.23a4.11,4.11,0,0,1-1.52-3.21h-.05Zm2.8,24.23a6.23,6.23,0,0,0-1-1.19l-.24-.22a4.12,4.12,0,0,1-1.52-3.22h-.05v2.78a5.66,5.66,0,0,0,1.11,1.3l.23.21a4.4,4.4,0,0,1,1.46,2.91Zm-2.8,20.95v-2.78h.05a4.12,4.12,0,0,0,1.52,3.22l.24.22a6.05,6.05,0,0,1,1,1.2v2.58a4.4,4.4,0,0,0-1.46-2.92l-.23-.21A5.46,5.46,0,0,1,19.34,363.86Zm1.81-7.13-.24-.22a4.12,4.12,0,0,1-1.52-3.22h-.05v2.78a5.66,5.66,0,0,0,1.11,1.3l.23.21a4.4,4.4,0,0,1,1.46,2.91v-2.58A6.23,6.23,0,0,0,21.15,356.73Zm-1.81-8a5.66,5.66,0,0,0,1.11,1.3l.23.21a4.4,4.4,0,0,1,1.46,2.91v-2.58a6.23,6.23,0,0,0-1-1.19l-.24-.22A4.12,4.12,0,0,1,19.39,346h-.05ZM22.14,373a6.05,6.05,0,0,0-1-1.2l-.24-.22a4.12,4.12,0,0,1-1.52-3.22h-.05v2.78a5.46,5.46,0,0,0,1.11,1.3l.23.21a4.4,4.4,0,0,1,1.46,2.92Zm-1,13.14-.24-.23a4.11,4.11,0,0,1-1.52-3.21h-.05v2.78a5.27,5.27,0,0,0,1.11,1.3l.23.22a4.37,4.37,0,0,1,1.46,2.91v-2.58A5.93,5.93,0,0,0,21.15,386.15Zm-1.81-8a5.27,5.27,0,0,0,1.11,1.3l.23.21a4.43,4.43,0,0,1,1.46,2.92V380a5.93,5.93,0,0,0-1-1.19l-.24-.23a4.11,4.11,0,0,1-1.52-3.21h-.05Z"/><path class="cls-3" d="M4.51,394.41c-.77,0-1.4-.92-1.4-2.06V-12.2c0-1.14.63-2.06,1.4-2.06s1.41.92,1.41,2.06V392.35C5.92,393.49,5.29,394.41,4.51,394.41Z"/><path class="cls-4" d="M4.83,393.77c-.27,0-.49-.32-.49-.72V-12.74c0-.4.22-.73.49-.73s.49.33.49.73V393.05C5.32,393.45,5.1,393.77,4.83,393.77Z"/><path class="cls-5" d="M3.11,9V6.2h0A4.15,4.15,0,0,0,4.67,9.41l.24.22a5.86,5.86,0,0,1,1,1.19v2.59a4.4,4.4,0,0,0-1.47-2.92l-.23-.21A5.41,5.41,0,0,1,3.11,9Zm1.8-7.13-.24-.22A4.15,4.15,0,0,1,3.15-1.59h0V1.19a5,5,0,0,0,1.1,1.3l.23.22A4.4,4.4,0,0,1,5.91,5.62V3A5.86,5.86,0,0,0,4.91,1.85Zm-1.8-8a5,5,0,0,0,1.1,1.3l.23.22A4.4,4.4,0,0,1,5.91-1.68V-4.26a5.59,5.59,0,0,0-1-1.19l-.24-.23A4.12,4.12,0,0,1,3.15-8.89h0Zm2.8,24.24a5.7,5.7,0,0,0-1-1.2l-.24-.22a4.15,4.15,0,0,1-1.52-3.22h0v2.78a5.22,5.22,0,0,0,1.1,1.3l.23.21a4.4,4.4,0,0,1,1.47,2.92ZM4.21,39.69l.23.22a4.37,4.37,0,0,1,1.47,2.91V40.24a5.59,5.59,0,0,0-1-1.19l-.24-.23a4.14,4.14,0,0,1-1.52-3.21h0v2.77A5,5,0,0,0,4.21,39.69Zm.7-8.43L4.67,31a4.14,4.14,0,0,1-1.52-3.21h0v2.78a5,5,0,0,0,1.1,1.3l.23.21A4.43,4.43,0,0,1,5.91,35V32.46A6,6,0,0,0,4.91,31.26Zm-1.8-8a5,5,0,0,0,1.1,1.3l.23.21a4.43,4.43,0,0,1,1.47,2.92V25.16a6,6,0,0,0-1-1.2l-.24-.22a4.15,4.15,0,0,1-1.52-3.22h0Zm2.8,24.23a5.59,5.59,0,0,0-1-1.19l-.24-.23a4.12,4.12,0,0,1-1.52-3.21h0v2.77A5,5,0,0,0,4.21,47l.23.22a4.4,4.4,0,0,1,1.47,2.91ZM3.11,67.62V64.84h0a4.15,4.15,0,0,0,1.52,3.22l.24.22a5.7,5.7,0,0,1,1,1.2v2.58a4.4,4.4,0,0,0-1.47-2.92l-.23-.21A5.22,5.22,0,0,1,3.11,67.62Zm1.8-7.13-.24-.22a4.15,4.15,0,0,1-1.52-3.22h0v2.78a5.41,5.41,0,0,0,1.1,1.3l.23.21a4.4,4.4,0,0,1,1.47,2.91V61.68A5.86,5.86,0,0,0,4.91,60.49Zm-1.8-8a5.41,5.41,0,0,0,1.1,1.3l.23.21A4.4,4.4,0,0,1,5.91,57V54.38a5.86,5.86,0,0,0-1-1.19L4.67,53a4.15,4.15,0,0,1-1.52-3.22h0Zm2.8,24.23a6,6,0,0,0-1-1.2l-.24-.22a4.15,4.15,0,0,1-1.52-3.22h0v2.78a5.22,5.22,0,0,0,1.1,1.3l.23.21a4.4,4.4,0,0,1,1.47,2.92ZM4.21,98.33l.23.22a4.4,4.4,0,0,1,1.47,2.91V98.88a5.86,5.86,0,0,0-1-1.19l-.24-.22a4.17,4.17,0,0,1-1.52-3.22h0V97A5,5,0,0,0,4.21,98.33Zm.7-8.42-.24-.23a4.14,4.14,0,0,1-1.52-3.21h0v2.77a5,5,0,0,0,1.1,1.3l.23.22a4.37,4.37,0,0,1,1.47,2.91V91.1A5.59,5.59,0,0,0,4.91,89.91Zm-1.8-8a5,5,0,0,0,1.1,1.3l.23.21a4.43,4.43,0,0,1,1.47,2.92V83.8a5.59,5.59,0,0,0-1-1.19l-.24-.23a4.14,4.14,0,0,1-1.52-3.21h0Zm2.8,24.23a5.86,5.86,0,0,0-1-1.19l-.24-.22a4.15,4.15,0,0,1-1.52-3.22h0v2.78a5.41,5.41,0,0,0,1.1,1.3l.23.21a4.4,4.4,0,0,1,1.47,2.91Zm-2.8,20.95v-2.78h0a4.15,4.15,0,0,0,1.52,3.22l.24.22a5.7,5.7,0,0,1,1,1.2v2.58a4.4,4.4,0,0,0-1.47-2.92l-.23-.21A5.22,5.22,0,0,1,3.11,127.13ZM4.91,120l-.24-.22a4.15,4.15,0,0,1-1.52-3.22h0v2.78a5.41,5.41,0,0,0,1.1,1.3l.23.21a4.4,4.4,0,0,1,1.47,2.91v-2.58A5.86,5.86,0,0,0,4.91,120Zm-1.8-8a5.41,5.41,0,0,0,1.1,1.3l.23.21a4.4,4.4,0,0,1,1.47,2.91v-2.58a5.86,5.86,0,0,0-1-1.19l-.24-.22a4.15,4.15,0,0,1-1.52-3.22h0Zm2.8,24.23a6,6,0,0,0-1-1.2l-.24-.22a4.15,4.15,0,0,1-1.52-3.22h0v2.78a5.22,5.22,0,0,0,1.1,1.3l.23.21a4.4,4.4,0,0,1,1.47,2.92Zm-1.7,21.56.23.22A4.4,4.4,0,0,1,5.91,161v-2.58a5.86,5.86,0,0,0-1-1.19L4.67,157a4.15,4.15,0,0,1-1.52-3.22h0v2.77A5,5,0,0,0,4.21,157.84Zm.7-8.42-.24-.23A4.14,4.14,0,0,1,3.15,146h0v2.77a5,5,0,0,0,1.1,1.3l.23.22a4.37,4.37,0,0,1,1.47,2.91v-2.58A5.59,5.59,0,0,0,4.91,149.42Zm-1.8-8a5,5,0,0,0,1.1,1.3l.23.22a4.37,4.37,0,0,1,1.47,2.91v-2.58a5.59,5.59,0,0,0-1-1.19l-.24-.23a4.14,4.14,0,0,1-1.52-3.21h0Zm2.8,24.23a5.86,5.86,0,0,0-1-1.19l-.24-.22a4.15,4.15,0,0,1-1.52-3.22h0v2.78a5.41,5.41,0,0,0,1.1,1.3l.23.21a4.4,4.4,0,0,1,1.47,2.91Zm-2.8,21v-2.78h0a4.15,4.15,0,0,0,1.52,3.22l.24.22a6,6,0,0,1,1,1.2v2.58a4.43,4.43,0,0,0-1.47-2.92L4.21,188A5,5,0,0,1,3.11,186.71Zm1.8-7.13-.24-.22a4.15,4.15,0,0,1-1.52-3.22h0v2.78a5.22,5.22,0,0,0,1.1,1.3l.23.21a4.4,4.4,0,0,1,1.47,2.92v-2.58A5.7,5.7,0,0,0,4.91,179.58Zm-1.8-8a5.22,5.22,0,0,0,1.1,1.3l.23.21a4.4,4.4,0,0,1,1.47,2.92v-2.58a5.7,5.7,0,0,0-1-1.2l-.24-.22a4.15,4.15,0,0,1-1.52-3.22h0Zm2.8,24.23a5.59,5.59,0,0,0-1-1.19l-.24-.23a4.14,4.14,0,0,1-1.52-3.21h0V194a5,5,0,0,0,1.1,1.3l.23.21a4.43,4.43,0,0,1,1.47,2.92Zm-1.7,21.57.23.21a4.4,4.4,0,0,1,1.47,2.92V218a5.86,5.86,0,0,0-1-1.19l-.24-.22a4.15,4.15,0,0,1-1.52-3.22h0v2.78A5.41,5.41,0,0,0,4.21,217.43Zm.7-8.43-.24-.23a4.12,4.12,0,0,1-1.52-3.21h0v2.77a5,5,0,0,0,1.1,1.3l.23.22a4.4,4.4,0,0,1,1.47,2.91v-2.58A5.86,5.86,0,0,0,4.91,209Zm-1.8-8a5,5,0,0,0,1.1,1.3l.23.22a4.4,4.4,0,0,1,1.47,2.91v-2.58a5.59,5.59,0,0,0-1-1.19l-.24-.23a4.12,4.12,0,0,1-1.52-3.21h0Zm2.8,24.23a5.86,5.86,0,0,0-1-1.19l-.24-.22a4.15,4.15,0,0,1-1.52-3.22h0v2.78a5.41,5.41,0,0,0,1.1,1.3l.23.21a4.4,4.4,0,0,1,1.47,2.92Zm-2.8,20.26v-2.78h.05A4.12,4.12,0,0,0,4.68,246l.23.22a6,6,0,0,1,1,1.2V250A4.4,4.4,0,0,0,4.44,247l-.22-.21A5.06,5.06,0,0,1,3.11,245.53Zm1.8-7.13-.23-.22A4.12,4.12,0,0,1,3.16,235H3.11v2.78a5.43,5.43,0,0,0,1.11,1.3l.22.21a4.4,4.4,0,0,1,1.47,2.92v-2.59A5.86,5.86,0,0,0,4.91,238.4Zm-1.8-8a5.43,5.43,0,0,0,1.11,1.3l.22.21a4.4,4.4,0,0,1,1.47,2.92v-2.59a5.86,5.86,0,0,0-1-1.19l-.23-.22a4.12,4.12,0,0,1-1.52-3.22H3.11Zm2.8,24.23a6,6,0,0,0-1-1.2l-.23-.22A4.12,4.12,0,0,1,3.16,250H3.11v2.78a5.06,5.06,0,0,0,1.11,1.3l.22.21a4.43,4.43,0,0,1,1.47,2.92ZM4.22,276.25l.22.21a4.4,4.4,0,0,1,1.47,2.91v-2.58a5.86,5.86,0,0,0-1-1.19l-.23-.22a4.12,4.12,0,0,1-1.52-3.22H3.11V275A5.43,5.43,0,0,0,4.22,276.25Zm.69-8.43-.23-.23a4.11,4.11,0,0,1-1.52-3.21H3.11v2.77a5.06,5.06,0,0,0,1.11,1.3l.22.22a4.37,4.37,0,0,1,1.47,2.91V269A5.59,5.59,0,0,0,4.91,267.82Zm-1.8-8a5.06,5.06,0,0,0,1.11,1.3l.22.22a4.37,4.37,0,0,1,1.47,2.91v-2.58a5.59,5.59,0,0,0-1-1.19l-.23-.23a4.11,4.11,0,0,1-1.52-3.21H3.11Zm2.8,24.23a5.86,5.86,0,0,0-1-1.19l-.23-.22a4.12,4.12,0,0,1-1.52-3.22H3.11v2.78a5.43,5.43,0,0,0,1.11,1.3l.22.21a4.4,4.4,0,0,1,1.47,2.91Zm-2.8,20.08v-2.78h.05a4.11,4.11,0,0,0,1.52,3.21l.23.23a5.59,5.59,0,0,1,1,1.19v2.58a4.43,4.43,0,0,0-1.47-2.92l-.22-.21A5.06,5.06,0,0,1,3.11,304.17ZM4.91,297l-.23-.22a4.12,4.12,0,0,1-1.52-3.22H3.11v2.78a5.24,5.24,0,0,0,1.11,1.3l.22.21a4.4,4.4,0,0,1,1.47,2.92v-2.58A5.7,5.7,0,0,0,4.91,297Zm-1.8-8a5.24,5.24,0,0,0,1.11,1.3l.22.21a4.4,4.4,0,0,1,1.47,2.92v-2.58a5.7,5.7,0,0,0-1-1.2l-.23-.22a4.12,4.12,0,0,1-1.52-3.22H3.11Zm2.8,24.23a5.59,5.59,0,0,0-1-1.19l-.23-.23a4.11,4.11,0,0,1-1.52-3.21H3.11v2.78a5.06,5.06,0,0,0,1.11,1.3l.22.21a4.43,4.43,0,0,1,1.47,2.92ZM4.22,334.89l.22.21A4.4,4.4,0,0,1,5.91,338v-2.59a5.86,5.86,0,0,0-1-1.19L4.68,334a4.12,4.12,0,0,1-1.52-3.22H3.11v2.78A5.43,5.43,0,0,0,4.22,334.89Zm.69-8.43-.23-.22A4.12,4.12,0,0,1,3.16,323H3.11v2.77a5.06,5.06,0,0,0,1.11,1.3l.22.22a4.4,4.4,0,0,1,1.47,2.91v-2.58A5.86,5.86,0,0,0,4.91,326.46Zm-1.8-8a5.06,5.06,0,0,0,1.11,1.3l.22.22a4.4,4.4,0,0,1,1.47,2.91v-2.58a5.59,5.59,0,0,0-1-1.19l-.23-.23a4.09,4.09,0,0,1-1.52-3.21H3.11Zm2.8,24.24a5.7,5.7,0,0,0-1-1.2l-.23-.22a4.12,4.12,0,0,1-1.52-3.22H3.11v2.78a5.24,5.24,0,0,0,1.11,1.3l.22.21a4.4,4.4,0,0,1,1.47,2.92Zm-2.8,20.94V360.9h.05a4.11,4.11,0,0,0,1.52,3.21l.23.23a5.59,5.59,0,0,1,1,1.19v2.58a4.43,4.43,0,0,0-1.47-2.92L4.22,365A5.06,5.06,0,0,1,3.11,363.68Zm1.8-7.13-.23-.22a4.12,4.12,0,0,1-1.52-3.22H3.11v2.78a5.24,5.24,0,0,0,1.11,1.3l.22.21a4.4,4.4,0,0,1,1.47,2.92v-2.58A5.7,5.7,0,0,0,4.91,356.55Zm-1.8-7.95a5.24,5.24,0,0,0,1.11,1.3l.22.21A4.4,4.4,0,0,1,5.91,353v-2.58a5.7,5.7,0,0,0-1-1.2L4.68,349a4.12,4.12,0,0,1-1.52-3.22H3.11Zm2.8,24.23a5.59,5.59,0,0,0-1-1.19l-.23-.23a4.11,4.11,0,0,1-1.52-3.21H3.11V371a5.06,5.06,0,0,0,1.11,1.3l.22.22a4.37,4.37,0,0,1,1.47,2.91ZM4.91,386l-.23-.22a4.12,4.12,0,0,1-1.52-3.22H3.11v2.78a5.43,5.43,0,0,0,1.11,1.3l.22.21a4.4,4.4,0,0,1,1.47,2.91v-2.58A5.86,5.86,0,0,0,4.91,386Zm-1.8-8a5.06,5.06,0,0,0,1.11,1.3l.22.22a4.4,4.4,0,0,1,1.47,2.91v-2.58a5.59,5.59,0,0,0-1-1.19l-.23-.23a4.09,4.09,0,0,1-1.52-3.21H3.11Z"/><path class="cls-6" d="M23.77,5H2.16a2.07,2.07,0,0,1,0-4.14H23.77a2.07,2.07,0,1,1,0,4.14Z"/><path class="cls-7" d="M23.77.86H2.16A2.07,2.07,0,0,0,.09,2.93a2,2,0,0,0,.25,1H25.59a2.08,2.08,0,0,0,.25-1A2.07,2.07,0,0,0,23.77.86Z"/><path class="cls-8" d="M24.06,3.06H3.25a.77.77,0,0,1-.83-.69.77.77,0,0,1,.83-.69H24.06a.77.77,0,0,1,.83.69A.77.77,0,0,1,24.06,3.06Z"/><path class="cls-9" d="M6.19,5.89h0a.42.42,0,0,1-.38-.45C5.9,4,4,1.25,2.5,1.06A.42.42,0,0,1,2.13.6.42.42,0,0,1,2.59.24c2,.24,4.17,3.44,4,5.27A.42.42,0,0,1,6.19,5.89Z"/><path class="cls-9" d="M2.82,5.75h0a.41.41,0,0,1-.39-.43A6.3,6.3,0,0,1,6.4.26a.43.43,0,0,1,.53.25A.42.42,0,0,1,6.68,1,5.48,5.48,0,0,0,3.23,5.35.42.42,0,0,1,2.82,5.75Z"/><path class="cls-9" d="M22.48,5.73h0a.42.42,0,0,1-.38-.45C22.18,3.85,20.3,1.09,18.78.9a.4.4,0,0,1-.36-.46.41.41,0,0,1,.46-.36c2,.24,4.16,3.44,4,5.27A.42.42,0,0,1,22.48,5.73Z"/><path class="cls-9" d="M19.1,5.59h0a.41.41,0,0,1-.4-.43,6.3,6.3,0,0,1,4-5.06.42.42,0,0,1,.53.26A.4.4,0,0,1,23,.88a5.52,5.52,0,0,0-3.45,4.31A.41.41,0,0,1,19.1,5.59Z"/></g></svg>