<svg xmlns="http://www.w3.org/2000/svg" viewBox="0 0 26 16"><defs><clipPath id="A"><path d="M0 0h26v16H0z" fill="none"/></clipPath><linearGradient id="B" x1=".1" y1="1.73" x2="25.89" y2="1.73" gradientUnits="userSpaceOnUse"><stop offset="0" stop-color="#2a2e3a"/><stop offset=".71" stop-color="#65677d"/><stop offset="1" stop-color="#2a2e3a"/></linearGradient></defs><g clip-path="url(#A)"><path d="M20.82 316.8a1.76 1.76 0 0 1-1.5-1.93v-378.6a1.76 1.76 0 0 1 1.5-1.94 1.77 1.77 0 0 1 1.5 1.94v378.6a1.77 1.77 0 0 1-1.5 1.93z" fill="#363b49"/><path d="M21.16 316.2a.63.63 0 0 1-.53-.68V-64.23a.63.63 0 0 1 .53-.68.63.63 0 0 1 .53.68v379.76a.63.63 0 0 1-.53.68z" fill="#515763"/><path d="M5.06 316.55a1.75 1.75 0 0 1-1.5-1.93V-64a1.75 1.75 0 0 1 1.5-1.93A1.75 1.75 0 0 1 6.57-64v378.6a1.77 1.77 0 0 1-1.51 1.95z" fill="#363b49"/><path d="M5.43 316a.62.62 0 0 1-.53-.67V-64.5a.61.61 0 0 1 .53-.65.6.6 0 0 1 .52.67v379.75a.6.6 0 0 1-.52.72z" fill="#515763"/><g fill="#363b49"><path d="M4.58 3.26V5.4a1.05 1.05 0 0 1 .81-.3 1.54 1.54 0 0 1 .84.35v-2zM20.36 3v2.1a1 1 0 0 1 .8-.3 1.48 1.48 0 0 1 .85.34v-2z"/></g><path d="M.1 2.9L2 4.45h1.5c.73-1 2.5-1.07 3 0h12.85a1.94 1.94 0 0 1 2.74-.29 1.59 1.59 0 0 1 .29.29h1.53l2-1.5-.8-.82-24.7.04z" fill="#0c0d12"/><path d="M.1.54h25.8v2.38H.1z" fill="url(#B)"/><path d="M.1 2.9l6.44-.14h12.9l6.44.14q-3.2.12-6.44.16L13 3.1H6.55Q3.33 3 .1 2.9z" fill="#7f8897"/><path d="M.1.6L6.54.45 13 .4h6.44l6.45.14q-3.2.12-6.45.16L13 .8 6.54.75Q3.3.7.1.6z" fill="#6d707f"/></g></svg>