<svg xmlns="http://www.w3.org/2000/svg" width="26" height="16" viewBox="0 0 56.54 35.05"><defs><linearGradient id="A" y1="3.78" x2="56.54" y2="3.78" gradientUnits="userSpaceOnUse"><stop offset="0" stop-color="#8895b7"/><stop offset=".71" stop-color="#d0d4fa"/><stop offset="1" stop-color="#8895b7"/></linearGradient></defs><path d="M7.6 0h6.6v35.05H7.6z" fill="#96a4c6"/><path d="M10.48 0h2.3v35.04h-2.3z" fill="#bec9e0"/><path d="M42.13 0h6.6v35.05h-6.6z" fill="#96a4c6"/><path d="M45.02 0h2.3v35.04h-2.3z" fill="#bec9e0"/><path d="M9.83 7.14v4.7a2.25 2.25 0 0 1 1.77-.67 3.39 3.39 0 0 1 1.84.75V7.47zm34.6-.67v4.7a2.31 2.31 0 0 1 1.77-.67 3.41 3.41 0 0 1 1.85.76V6.8z" fill="#96a4c6"/><path d="M0 6.38l4.2 3.36h3.28c1.6-2.17 5.46-2.34 6.64 0l28-.05a4.26 4.26 0 0 1 6.63 0h3.37L56.5 6.4 54.8 4.65.62 4.73z" fill="#5e6c8f"/><path d="M0 1.18h56.54v5.2H0z" fill="url(#A)"/><path d="M0 6.38l14.13-.32 14.14-.1 14.13.1q7.06.1 14.14.33-7.08.24-14.14.33l-14.13.1-14.14-.1Q7.06 6.62 0 6.38z" fill="#dfeaff"/><path d="M0 1.3q7.06-.22 14.13-.32l14.13-.1 14.14.1q7.06.1 14.13.32-7.06.24-14.13.33l-14.14.1-14.13-.1Q7.06 1.53 0 1.3z" fill="#dfe4fc"/></svg>