<svg id="Layer_1" data-name="Layer 1" xmlns="http://www.w3.org/2000/svg" xmlns:xlink="http://www.w3.org/1999/xlink" viewBox="0 0 26 16"><defs><style>.cls-1{fill:none;}.cls-2{clip-path:url(#clip-path);}.cls-3{fill:#363b49;}.cls-4{fill:#515763;}.cls-5{fill:#0c0d12;}.cls-6{fill:url(#linear-gradient);}.cls-7{fill:#7f8897;}.cls-8{fill:#6d707f;}</style><clipPath id="clip-path"><rect class="cls-1" width="26" height="16"/></clipPath><linearGradient id="linear-gradient" x1="0.1" y1="16.27" x2="25.89" y2="16.27" gradientTransform="matrix(1, 0, 0, -1, 0, 18)" gradientUnits="userSpaceOnUse"><stop offset="0" stop-color="#2a2e3a"/><stop offset="0.71" stop-color="#65677d"/><stop offset="1" stop-color="#2a2e3a"/></linearGradient></defs><title>ladder_level8</title><g class="cls-2"><path class="cls-3" d="M20.82,316.81a1.76,1.76,0,0,1-1.5-1.93V-63.72a1.76,1.76,0,0,1,1.5-1.94,1.77,1.77,0,0,1,1.5,1.94v378.6A1.77,1.77,0,0,1,20.82,316.81Z"/><path class="cls-4" d="M21.16,316.21a.63.63,0,0,1-.53-.68V-64.23a.63.63,0,0,1,.53-.68.63.63,0,0,1,.53.68V315.53A.63.63,0,0,1,21.16,316.21Z"/><path class="cls-3" d="M5.06,316.55a1.75,1.75,0,0,1-1.5-1.93V-64a1.75,1.75,0,0,1,1.5-1.93A1.75,1.75,0,0,1,6.57-64v378.6A1.77,1.77,0,0,1,5.06,316.55Z"/><path class="cls-4" d="M5.43,316a.62.62,0,0,1-.53-.67V-64.49a.61.61,0,0,1,.53-.65.6.6,0,0,1,.52.67V315.28A.6.6,0,0,1,5.43,316Z"/><path class="cls-3" d="M4.58,3.26V5.4a1.05,1.05,0,0,1,.81-.3,1.54,1.54,0,0,1,.84.35v-2Z"/><path class="cls-3" d="M20.36,3V5.1a1,1,0,0,1,.8-.3,1.48,1.48,0,0,1,.85.34v-2Z"/><path class="cls-5" d="M.1,2.91,2,4.45h1.5c.73-1,2.49-1.07,3,0H19.35a1.94,1.94,0,0,1,2.74-.29,1.59,1.59,0,0,1,.29.29h1.53l2-1.5-.81-.82L.39,2.17Z"/><rect class="cls-6" x="0.1" y="0.54" width="25.79" height="2.38"/><path class="cls-7" d="M.1,2.91c2.15-.06,4.3-.12,6.44-.14l6.45,0,6.45,0c2.14,0,4.3.08,6.44.14q-3.19.12-6.44.16L13,3.11l-6.45,0Q3.33,3,.1,2.91Z"/><path class="cls-8" d="M.09.59C2.25.52,4.4.48,6.54.45L13,.4l6.44,0c2.15,0,4.3.08,6.45.14q-3.19.12-6.45.16L13,.79,6.54.75Q3.31.71.09.59Z"/></g></svg>