<svg xmlns="http://www.w3.org/2000/svg" xmlns:xlink="http://www.w3.org/1999/xlink" viewBox="0 0 51.1 99.6"><path d="M26.7 21.4c2.1-5.1 7.6-6.3 10.4-11 1.7-2.8.3-7.9-2.9-9.2-2.9-1.1-6.7 2.6-6.9 5.3-.2-1.3-1.2-3.4-2.2-4.4-2-2-4.9.1-6.2 1.9-2.1 2.8-2.5 6.6-.9 9.9 3.4 3.7 6.8 3.3 8.7 7.5z" fill="red"/><path d="M50.1 71l-.2-.1v-.2c.1-2-.8-4-2.7-6-.6-.6-1.4-1.3-2.5-2-.4-.2-.8-.5-1.2-.7-.6-.3-1.2-.6-1.7-1-.8-.6-1.3-1.4-1.8-2.2l-.6-.9-.4-.7c-.5-.8-1-1.5-1.7-2.2l-.2-.2.1-.3c.3-.6.3-1.1 0-1.5-.3-.5-1.1-.9-1.9-.9-.3 0-.7.1-1 .2l-.3.2-.2-.2-1.8-1.4c-1-.6-2.6-1.5-4.3-1.8h-.3l-.1-.3c-.1-.5-.3-1.5-.3-2.4v-.3l.3-.1c1-.5 1.2-.9 1.3-1.2.1-.2.2-.4.5-.4 1.7-.1 9.6-1.2 12-3 1.5-4.4.7-10.8-1.7-13.8-3.9-1.3-7.9-2-11.9-2-3.5 0-6.9.5-10.3 1.5l-.3.1-.2-.2c-.2-.2-.4-.3-.6-.4-.3-.9-.5-1.7-1-2.5-.3-.5-.6-1-.8-1.5-.2-.2-.3-.5-.4-.7-.4-.7-1-1.3-1.6-1.8v-.8c-.1-.2-.2-.3-.3-.4h0c-.1 0-.1-.1-.2-.1s-.1-.1-.2-.1H11c-.8.1-1.3 1.2-.6 1.9h.1c.1.1.2.1.3.2h0c.1 0 .2.1.3.1h.2c.2 0 .4-.1.5-.2.5.4 1 .9 1.3 1.5.1.3.3.5.5.8.3.4.6.9.8 1.4.4.7.6 1.5.9 2.3-.4.3-.7.6-.6.9v.3l-.2.1c-1.6.6-2.7 1.2-3 1.4-.5 1.5-.7 3.9-.5 6.6 0 .3 0 .7.1 1.1.1 1.7.2 3.9.9 4.8 1.2 1.5 2.7 1.8 10.7 2.5h.3l.1.2c.3.6.9 1.1 1.7 1.5l.3.1v.3c.1.6 0 1.1-.1 1.6 0 .2-.1.4-.1.7v.4h-.4c-2.4.2-4.4 1.3-6 3.2l-.2.3-.3-.1c-.3-.1-.6-.2-.9-.2-.8 0-1.5.4-1.9.9-.3.4-.3.9 0 1.5l.1.3-.2.2c-.7.7-1.2 1.4-1.8 2.3l-1 1.5c-.5.8-1 1.6-1.7 2.2-.5.4-1.1.7-1.7 1-.4.2-.8.4-1.2.7-1 .7-1.8 1.3-2.5 2-1.8 1.9-2.7 3.9-2.7 6v.2l-.2.1C1.5 71.8.9 73 1 73.9c0 .4.4.9.7 1 .2 0 .7-.2 1-.4l1.1-.7-.4 1.3c-.1.4 0 .8.3 1.1.2.3.5.4.9.4.1 0 .3 0 .4-.1.4-.1.6-.7.9-1.3.2-.4.4-.8.6-1.1l.1-.1h.1c.6-.2 2-.7 2.6-1.3 3.4-3.5 3.9-7 4.3-9.4.1-.5.1-.9.2-1.3.2-1 .7-1.9 1.3-2.9l.7-1.3.2 1.5c.3 2.8 1.7 4.9 2.5 5.9.4.5.8 1 1.4 1.4l.3.2-.2.4c-.1.4-.1.9.1 1.2l.2.2-.1.2c-.2.6-.2 1.4-.3 2.3 0 .6-.1 1.3-.2 2v.2l-.1.1c-.8.7-1.3 1.5-1.8 2.8-.1.3-.2.5-.4.8-.2.5-.5 1-.6 1.5-.6 1.8-.9 4.2-1 7.1-.1 2.2.1 4.2.5 6.2l.1.3-.3.2c-3.5 2.2-4.3 4.4-4.3 4.9 0 .2 1 .9 5.8.9h1.9c1.8 0 3.5-.1 4.8-.4.3-.5.3-1.9 0-2.6l-.1-.3.3-.2c.8-.6.9-1.9 1-3.2V91c.1-.7.1-1.5.1-2.2v-1c0-2.1-.1-4.3-.4-6.2 0-.6-.2-1.6-.2-1.6-.3-2.1-.6-4.2-1.6-5.5l-.5-.5c-.3-.3-.7-.6-.8-1s0-.9.1-1.4c0-.2.1-.4.1-.6s0-.4.1-.6c.1-.4.1-.7.1-1v-.2l.2-.2c.1-.1.1-.2.2-.3l.2-.4.4.1c1.1.3 2.2.5 3.4.5h.3c.8 0 1.6-.1 2.5-.4l.4-.1.2.3c0 .1.1.1.1.2l.2.2v.2c0 .3 0 .6.1 1 0 .2.1.4.1.6s.1.4.1.6c.1.5.2 1 .1 1.4s-.4.7-.8 1c-.2.2-.4.3-.5.4-1 1.4-1.3 3.4-1.6 5.5-.1.5-.1.9-.2 1.4-.3 1.9-.5 4.1-.4 6.2v1c0 .7 0 1.5.1 2.2v.4c.1 1.3.2 2.6 1 3.2l.3.2-.4.6c-.3.8-.3 2.1 0 2.6 1.3.3 3 .4 4.8.4h1.8c4.8 0 5.8-.7 5.8-.9 0-.4-.7-2.7-4.3-4.9l-.3-.2.1-.3c.4-2 .6-4.1.5-6.2-.1-3-.4-5.3-1-7.1l-.6-1.5c-.1-.3-.3-.6-.4-.8-.5-1.3-1.1-2.1-1.8-2.8l-.1-.1V73c-.1-.6-.1-1.3-.2-2 0-.8-.1-1.6-.3-2.3l-.1-.2.2-.2c.2-.2.2-.6.2-.9v-.3l.2-.1a9.46 9.46 0 0 0 3.2-4.4c.3-.8.5-1.6.6-2.4l.2-1.7.7 1.5c.3.7.5 1.2.7 1.8.1.4.1.8.2 1.3.3 2.3.9 5.8 4.2 9.3.6.6 2 1.1 2.6 1.4h.1l.1.1c.2.3.4.7.6 1.1.3.6.5 1.2.9 1.3.1.1.3.1.4.1.3 0 .6-.2.9-.4.3-.3.4-.7.2-1.2l-.4-1.3 1.1.8c.3.2.8.4 1 .4h0c.3-.1.7-.6.7-1 .4-1-.2-2.2-.9-2.7z" fill="#fff"/><g fill-rule="evenodd"><path d="M21.9 55c-.8 1.3-1.4 2.9-1.2 4.5.2 1.2 1.7 4.8 5.9 5.1 1.5.1 3.4-.5 4.3-1.4 1.3-1.3 2.1-3.6 1.5-5.8-1.3-5.5-6.9-6.3-10.5-2.4z" fill="#006cb6"/><path d="M21.7 57.3c.6-3.2 4.7-5.8 7.6-3.3 1.1 1 1.7 2.3 2 3.7.4 1.8-.2 3.3-.8 4.9.4-1.1.1-2.7-.8-3.6-.8-.9-2.3-.6-3.4-.6-1.2 0-4.6.7-4.6-1.1z" fill="#2e94ce"/><path d="M24.9 32.2c.2 1.3-.3 3.7-1.6 3.6-.5 0-1.1-.7-1.3-1.2-.4-1-.3-2.7.4-3.6.2-.3.9-.9 1.5-.7.5.2.9 1.1 1 1.9z" fill="#1c1b45"/><ellipse cx="23.9" cy="32.1" rx=".4" ry=".7" fill="#fff"/><path d="M30.6 31.9c.2 1.3-.3 3.7-1.6 3.6-.5 0-1.1-.7-1.3-1.2-.4-1-.3-2.7.4-3.6.2-.3.9-.9 1.5-.7.5.2.9 1.1 1 1.9z" fill="#1c1b45"/><ellipse cx="29.7" cy="31.8" rx=".4" ry=".7" fill="#fff"/><path d="M24.8 55.4c.1.7-.3 1.4-1.1 1.4-.9 0-1.5-1.2-1-1.9.2-.3.6-.8 1-.8.6 0 1 .6 1.1 1.3z" fill="#ec1846"/><use xlink:href="#B" fill="#fff200"/><path d="M24.8 61.5c.1.7-.3 1.5-1.1 1.5-.9 0-1.5-1.1-1.1-1.9.2-.3.6-.8 1-.8.8-.1 1.1.5 1.2 1.2z" fill="#ec1846"/><g fill="#fff200"><path d="M27.9 55.3c.1.7-.3 1.4-1.1 1.4-.9 0-1.5-1.2-1-1.9.2-.3.6-.8 1-.8.7 0 1 .6 1.1 1.3zm0 3c.1.7-.3 1.5-1.1 1.5-.9 0-1.5-1.1-1.1-1.9.2-.3.6-.8 1-.8.8-.1 1.1.5 1.2 1.2z"/><use xlink:href="#B" x="3.2" y="3"/></g><path d="M31.1 55.2c.1.7-.3 1.4-1.1 1.4-.9 0-1.5-1.2-1-1.9.2-.3.6-.8 1-.8.6 0 1 .6 1.1 1.3z" fill="#ec1846"/><use xlink:href="#B" x="6.3" y="-0.2" fill="#fff200"/><path d="M31.1 61.3c.1.7-.3 1.5-1.1 1.5-.9 0-1.5-1.1-1.1-1.9.2-.3.6-.8 1-.8.8 0 1.1.5 1.2 1.2z" fill="#ec1846"/></g><defs ><path id="B" d="M24.8 58.4c.1.7-.3 1.5-1.1 1.5-.9 0-1.5-1.1-1.1-1.9.2-.3.6-.8 1-.8.7-.1 1.1.5 1.2 1.2z"/></defs></svg>