<?xml version="1.0" encoding="utf-8"?>
<!-- Generator: Adobe Illustrator 24.0.1, SVG Export Plug-In . SVG Version: 6.00 Build 0)  -->
<svg version="1.1" id="Layer_1" xmlns="http://www.w3.org/2000/svg" xmlns:xlink="http://www.w3.org/1999/xlink" x="0px" y="0px"
	 viewBox="0 0 33.4 51.4" style="enable-background:new 0 0 33.4 51.4;" xml:space="preserve">
<style type="text/css">
	.st0{display:none;}
	.st1{display:inline;fill:#CBD4DB;}
	.st2{display:inline;}
	.st3{fill:#FF0000;}
	.st4{fill:#00FF00;}
</style>
<g class="st0">
	<path class="st1" d="M103.4-24.6"/>
	<g class="st2">
		<path class="st3" d="M31.9,26.2c-0.4-1.2-1.5-2-2.7-2H4.6c-1.1,0-2.2,0.7-2.6,1.7c-2.8,7.3-2.5,15,0.1,23c0.4,1.1,1.4,1.8,2.5,1.9
			c7.8,0.4,15.9,0.4,24.5,0c1.2-0.1,2.3-0.9,2.6-2.1C33.8,40.5,34.1,32.9,31.9,26.2z M19.7,45h-5.6l1-7.7c-1.2-0.6-2-1.9-2-3.3
			c0-2.1,1.7-3.7,3.7-3.7s3.7,1.7,3.7,3.7c0,1.5-0.9,2.8-2.2,3.4L19.7,45z"/>
		<g>
			<path class="st3" d="M9.3,43.7c-0.6,0-1.1-0.3-1.5-0.8c-1.3-1.9-2-4.1-2-6.5V20.8c0-6.3,5.1-11.4,11.4-11.4s11.4,5.1,11.4,11.4
				v3.7c0,1-0.8,1.8-1.8,1.8S25,25.5,25,24.5v-3.7c0-4.3-3.5-7.8-7.8-7.8s-7.8,3.5-7.8,7.8v15.7c0,1.6,0.5,3.1,1.4,4.4
				c0.6,0.8,0.4,1.9-0.5,2.5C10,43.6,9.7,43.7,9.3,43.7z"/>
		</g>
	</g>
</g>
<g>
	<path class="st4" d="M31.9,26.2c-0.4-1.2-1.5-2-2.7-2H4.6c-1.1,0-2.2,0.7-2.6,1.7c-2.8,7.3-2.5,15,0.1,23c0.4,1.1,1.4,1.8,2.5,1.9
		c7.8,0.4,15.9,0.4,24.5,0c1.2-0.1,2.3-0.9,2.6-2.1C33.8,40.5,34.1,32.9,31.9,26.2z M19.7,45h-5.6l1-7.7c-1.2-0.6-2-1.9-2-3.3
		c0-2.1,1.7-3.7,3.7-3.7s3.7,1.7,3.7,3.7c0,1.5-0.9,2.8-2.2,3.4L19.7,45z"/>
	<g>
		<path class="st4" d="M10,34.7c-0.6,0-1.1-0.3-1.5-0.8c-1.3-1.9-2-4.1-2-6.5V11.7c0-6.3,5.1-11.4,11.4-11.4s11.4,5.1,11.4,11.4v3.7
			c0,1-0.8,1.8-1.8,1.8s-1.8-0.8-1.8-1.8v-3.7c0-4.3-3.5-7.7-7.8-7.7s-7.8,3.5-7.8,7.8v15.7c0,1.6,0.5,3.1,1.4,4.4
			c0.6,0.8,0.4,1.9-0.5,2.5C10.7,34.6,10.3,34.7,10,34.7z"/>
	</g>
</g>
</svg>
