<svg xmlns="http://www.w3.org/2000/svg" xmlns:xlink="http://www.w3.org/1999/xlink" viewBox="0 0 187.6 51.4"><g fill="#0f0"><path d="M32.2 26.2c-.4-1.2-1.5-2-2.7-2H4.9c-1.1 0-2.2.7-2.6 1.7-2.8 7.3-2.5 15 .1 23 .4 1.1 1.4 1.8 2.5 1.9 7.8.4 15.9.4 24.5 0 1.2-.1 2.3-.9 2.6-2.1 2.1-8.2 2.4-15.8.2-22.5zM20 45h-5.6l1-7.7c-1.2-.6-2-1.9-2-3.3 0-2.1 1.7-3.7 3.7-3.7a3.76 3.76 0 0 1 3.7 3.7c0 1.5-.9 2.8-2.2 3.4L20 45z"/><path d="M10.3 34.7c-.6 0-1.1-.3-1.5-.8-1.3-1.9-2-4.1-2-6.5V11.7C6.8 5.4 11.9.3 18.2.3s11.4 5.1 11.4 11.4v3.7a1.8 1.8 0 1 1-3.6 0v-3.7C26 7.4 22.5 4 18.2 4s-7.8 3.5-7.8 7.8v15.7c0 1.6.5 3.1 1.4 4.4.6.8.4 1.9-.5 2.5a1.93 1.93 0 0 1-1 .3zm60-8.5c-.4-1.2-1.5-2-2.7-2H43.1c-1.1 0-2.2.7-2.6 1.7-2.8 7.3-2.5 15 .1 23 .4 1.1 1.4 1.8 2.5 1.9 7.8.4 15.9.4 24.5 0 1.2-.1 2.3-.9 2.6-2.1 2.1-8.2 2.4-15.8.1-22.5zM58.2 45h-5.6l1-7.7c-1.2-.6-2-1.9-2-3.3 0-2.1 1.7-3.7 3.7-3.7S59 31.9 59 34c0 1.5-.9 2.8-2.2 3.4l1.4 7.6z"/><path d="M48.5 34.7c-.6 0-1.1-.3-1.5-.8-1.3-1.9-2-4.1-2-6.5V11.7C45 5.4 50.1.3 56.4.3s11.4 5.1 11.4 11.4v3.7a1.8 1.8 0 1 1-3.6 0v-3.7c0-4.3-3.5-7.8-7.8-7.8s-7.8 3.5-7.8 7.8v15.7c0 1.6.5 3.1 1.4 4.4.6.8.4 1.9-.5 2.5-.3.3-.7.4-1 .4zm60-8.5c-.4-1.2-1.5-2-2.7-2H81.3c-1.1 0-2.2.7-2.6 1.7-2.8 7.3-2.5 15 .1 23 .4 1.1 1.4 1.8 2.5 1.9 7.8.4 15.9.4 24.5 0 1.2-.1 2.3-.9 2.6-2.1 2.1-8.2 2.4-15.9.1-22.5zM96.4 44.9h-5.6l1-7.7c-1.2-.6-2-1.9-2-3.3 0-2.1 1.7-3.7 3.7-3.7 2.1 0 3.7 1.7 3.7 3.7 0 1.5-.9 2.8-2.2 3.4l1.4 7.6z"/><path d="M86.7 34.7c-.6 0-1.1-.3-1.5-.8-1.3-1.9-2-4.1-2-6.5V11.7C83.2 5.4 88.3.3 94.6.3S106 5.4 106 11.7v3.7a1.79 1.79 0 1 1-3.6 0v-3.7c0-4.3-3.5-7.8-7.8-7.8s-7.8 3.5-7.8 7.8v15.7c0 1.6.5 3.1 1.4 4.4.6.8.4 1.9-.5 2.5-.3.2-.7.4-1 .4z"/><use xlink:href="#B"/><path d="M124.7 34.7c-.6 0-1.1-.3-1.5-.8-1.3-1.9-2-4.1-2-6.5V11.7c0-6.3 5.1-11.4 11.4-11.4S144 5.4 144 11.7v3.7a1.79 1.79 0 1 1-3.6 0v-3.7c0-4.3-3.5-7.8-7.8-7.8s-7.8 3.5-7.8 7.8v15.7c0 1.6.5 3.1 1.4 4.4.6.8.4 1.9-.5 2.5-.3.2-.6.4-1 .4z"/><use xlink:href="#B" x="38.8"/><path d="M163.5 34.7c-.6 0-1.1-.3-1.5-.8-1.3-1.9-2-4.1-2-6.5V11.7C160 5.4 165.1.3 171.4.3s11.4 5.1 11.4 11.4v3.7a1.79 1.79 0 1 1-3.6 0v-3.7c0-4.3-3.5-7.8-7.8-7.8s-7.8 3.5-7.8 7.8v15.7c0 1.6.5 3.1 1.4 4.4.6.8.4 1.9-.5 2.5-.3.2-.6.4-1 .4z"/></g><defs ><path id="B" d="M146.6 26.2c-.4-1.2-1.5-2-2.7-2h-24.6c-1.1 0-2.2.7-2.6 1.7-2.8 7.3-2.5 15 .1 23 .4 1.1 1.4 1.8 2.5 1.9 7.8.4 15.9.4 24.5 0 1.2-.1 2.3-.9 2.6-2.1 2.1-8.2 2.4-15.9.2-22.5zm-12.2 18.7h-5.6l1-7.7c-1.2-.6-2-1.9-2-3.3 0-2.1 1.7-3.7 3.7-3.7 2.1 0 3.7 1.7 3.7 3.7 0 1.5-.9 2.8-2.2 3.4l1.4 7.6z"/></defs></svg>