<svg xmlns="http://www.w3.org/2000/svg" viewBox="0 0 33.4 51.4" fill="red"><path d="M31.9 26.2c-.4-1.2-1.5-2-2.7-2H4.6c-1.1 0-2.2.7-2.6 1.7-2.8 7.3-2.5 15 .1 23 .4 1.1 1.4 1.8 2.5 1.9 7.8.4 15.9.4 24.5 0 1.2-.1 2.3-.9 2.6-2.1 2.1-8.2 2.4-15.8.2-22.5zM19.7 45h-5.6l1-7.7c-1.2-.6-2-1.9-2-3.3 0-2.1 1.7-3.7 3.7-3.7a3.76 3.76 0 0 1 3.7 3.7c0 1.5-.9 2.8-2.2 3.4l1.4 7.6z"/><path d="M9.3 43.7c-.6 0-1.1-.3-1.5-.8-1.3-1.9-2-4.1-2-6.5V20.8c0-6.3 5.1-11.4 11.4-11.4s11.4 5.1 11.4 11.4v3.7a1.79 1.79 0 1 1-3.6 0v-3.7c0-4.3-3.5-7.8-7.8-7.8s-7.8 3.5-7.8 7.8v15.7c0 1.6.5 3.1 1.4 4.4.6.8.4 1.9-.5 2.5a1.69 1.69 0 0 1-1 .3z"/></svg>