<svg xmlns="http://www.w3.org/2000/svg" xmlns:xlink="http://www.w3.org/1999/xlink" viewBox="0 0 1036.926 308.249"><defs><symbol id="A" viewBox="0 0 958.093 223.985"><g fill="#006"><path d="M400.98 171.9h-27.482l-13.1-67.4-24.587 57.957h-12.4l-22.345-55.62L287.75 171.9H261.8l26.828-120.85h10.464l32.1 71.36 31.863-71.36h11.093zm96.693-77.726l-36.948 75.582q-7.318 15.04-11.84 20.865-4.523 5.826-9.558 6.93h-27.27q6.45-1.58 14.477-12.56 8.027-10.98 10.856-17.302l-36.642-73.513 21.76-10.314 26.773 60.064 27.902-60.064zM635.9 171.9h-27.482l-13.1-67.4-24.587 57.957h-12.4l-22.345-55.62L522.68 171.9h-25.95l26.83-120.85h10.464l32.1 71.36 31.863-71.36h11.093zm98.042-12.983l-18.96 15.5a19.714 19.714 0 0 1-7.554-4.486 14.635 14.635 0 0 1-4.247-7.002l-14.8 8.417a13.499 13.499 0 0 1-2.952.985 15.194 15.194 0 0 1-3.501.512q-17.076 0-28.205-11.724-11.134-11.723-11.132-32.572 0-19.824 11.565-32.7 11.565-12.864 29.503-12.863a31.895 31.895 0 0 1 13.375 2.832q6.214 2.83 8.183 5.035l13.7-4.956 4.8 1.415v53.974q0 7.08 2.48 11.25a15.656 15.656 0 0 0 7.748 6.373zm-33.28-11.8v-36.9a20.514 20.514 0 0 0-6.177-5.053 19.048 19.048 0 0 0-9.325-2.109 17.002 17.002 0 0 0-13.179 5.794q-5.233 5.793-5.232 19.2 0 10.64 4.876 17.06 4.88 6.423 13.7 6.423a27.865 27.865 0 0 0 9.442-1.574 21.031 21.031 0 0 0 5.903-2.829zm85.208 10l-17.466 16.444q-10.858-4.476-16.287-13.07-5.43-8.594-5.428-20.53v-36.896h-8.027V87.32h8.027V59.4l24.075-1.73V87.4h12.587v15.58h-12.587v30.125q0 9.02 4.1 14.982a25.554 25.554 0 0 0 11.016 9.023zm89.377 14.793h-24.075v-53.1a11.78 11.78 0 0 0-3.305-8.223q-3.305-3.577-10.15-3.578a21.041 21.041 0 0 0-10.424 2.479 39.005 39.005 0 0 0-7.512 5.311v57.12h-24.076V51.05h24.075v42.8l10.006-5.744a34.955 34.955 0 0 1 9.335-3.817 40.054 40.054 0 0 1 9.18-1.062q12.525 0 19.736 7.75 7.2 7.75 7.2 20.417V171.9zm82.846-29.034q0 13.85-9.912 22.265-9.914 8.418-24.548 8.42a117.68 117.68 0 0 1-16.404-1.378 51.399 51.399 0 0 1-16.953-5.311V145.62a71.31 71.31 0 0 0 13.216 5.704 55.572 55.572 0 0 0 17.153 2.4q7 0 11.3-2.046 4.286-2.044 4.3-7.395 0-3.46-3.62-5.625-3.618-2.163-12.587-2.952-16.05-1.335-22.5-7.788-6.45-6.45-6.45-17.3 0-12.275 9.874-20.22 9.874-7.946 24.27-7.948a88.825 88.825 0 0 1 13.455 1.102 77.347 77.347 0 0 1 12.194 2.753v21.48a62.486 62.486 0 0 0-12.55-4.17 64.593 64.593 0 0 0-13.492-1.338q-5.822 0-9.086 2.007-3.268 2.007-3.265 4.682a6.141 6.141 0 0 0 4.643 6.333 38.354 38.354 0 0 0 9.755 1.85q15.576 1.022 23.406 7.7 7.822 6.692 7.823 18.018z"/><circle cx="111.993" cy="111.993" r="111.993"/></g><circle cx="60.48" cy="60.477" r="17.542" fill="#db0066"/><circle cx="111.937" cy="60.477" r="17.542" fill="#ff0"/><circle cx="163.395" cy="60.477" r="17.542" fill="#db0066"/><circle cx="60.48" cy="111.934" r="17.542" fill="#ff0"/><circle cx="111.937" cy="111.934" r="17.542" fill="#db0066"/><circle cx="163.395" cy="111.934" r="17.542" fill="#ff0"/><circle cx="60.48" cy="163.392" r="17.542" fill="#db0066"/><circle cx="111.937" cy="163.392" r="17.542" fill="#ff0"/><circle cx="163.395" cy="163.392" r="17.542" fill="#db0066"/></symbol></defs><use width="958.093" height="223.985" xlink:href="#A" x="34.771" y="50.11"/></svg>