<svg xmlns="http://www.w3.org/2000/svg" width="495.938" height="117.127"><path fill="#003b7d" d="M97.72 48.863c0 26.982-21.875 48.855-48.86 48.855S0 75.846 0 48.863 21.875 0 48.86 0s48.86 21.875 48.86 48.863z"/><path fill="#ec008c" d="M35 27.488c0 4.3-3.488 7.8-7.793 7.8s-7.793-3.5-7.793-7.8c0-4.307 3.5-7.793 7.793-7.793S35 23.182 35 27.488zm43.306 0c0 4.3-3.488 7.8-7.792 7.8s-7.793-3.5-7.793-7.8c0-4.307 3.5-7.793 7.794-7.793s7.792 3.487 7.792 7.793z"/><path fill="#ff0" d="M56.652 27.488c0 4.3-3.488 7.8-7.792 7.8s-7.792-3.5-7.792-7.8a7.79 7.79 0 0 1 7.792-7.793c4.304 0 7.792 3.487 7.792 7.793zM35 48.863c0 4.3-3.488 7.8-7.793 7.8s-7.793-3.5-7.793-7.8c0-4.307 3.5-7.793 7.793-7.793S35 44.557 35 48.863zm43.306 0c0 4.3-3.488 7.8-7.792 7.8s-7.793-3.5-7.793-7.8c0-4.307 3.5-7.793 7.794-7.793s7.792 3.487 7.792 7.793z"/><path fill="#ec008c" d="M56.652 48.863c0 4.3-3.488 7.8-7.792 7.8s-7.792-3.5-7.792-7.8a7.79 7.79 0 0 1 7.792-7.793c4.304 0 7.792 3.487 7.792 7.793zM35 70.238c0 4.3-3.488 7.8-7.793 7.8s-7.793-3.5-7.793-7.8c0-4.307 3.5-7.793 7.793-7.793S35 65.932 35 70.238zm43.306 0c0 4.3-3.488 7.8-7.792 7.8s-7.793-3.5-7.793-7.8c0-4.307 3.5-7.793 7.794-7.793s7.792 3.487 7.792 7.793z"/><path fill="#ff0" d="M56.652 70.238c0 4.3-3.488 7.8-7.792 7.8s-7.792-3.5-7.792-7.8a7.79 7.79 0 0 1 7.792-7.793c4.304 0 7.792 3.487 7.792 7.793z"/><linearGradient id="A" gradientUnits="userSpaceOnUse" x1="17.727" y1="16.07" x2="41.689" y2="41.488"><stop offset="0" stop-color="#fff" stop-opacity=".38"/><stop offset="1" stop-color="#fff" stop-opacity="0"/></linearGradient><path fill="url(#A)" d="M62.795 64.188c-14.65 13.6-36.705 13.67-49.27.144S2.65 28.812 17.297 15.207s36.707-13.67 49.27-.145 10.875 35.52-3.773 49.126z"/><linearGradient id="B" gradientUnits="userSpaceOnUse" x1="79.27" y1="81.605" x2="57.733" y2="55.668"><stop offset="0" stop-color="#fff" stop-opacity=".38"/><stop offset=".539" stop-color="#fff" stop-opacity="0"/></linearGradient><path fill="url(#B)" d="M88.588 49.848c7.036 8.562 3.27 23.3-8.413 32.895-11.685 9.6-26.86 10.453-33.9 1.893s-3.27-23.287 8.413-32.895 26.86-10.453 33.9-1.892z"/><path fill="#003b7d" d="M166.22 71.395h-11.052L149.896 44.3l-9.888 23.308h-4.983L126.04 45.23l-5.356 26.165h-10.436l10.8-48.6h4.207l12.9 28.698 12.813-28.698h4.46l10.792 48.6zm38.886-31.258l-14.86 30.396c-1.96 4.032-3.548 6.83-4.76 8.4S183 81.415 181.64 81.71h-10.966c1.73-.423 3.67-2.106 5.822-5.05s3.607-5.263 4.366-6.958L166.127 40.14l8.75-4.148 10.768 24.155 11.22-24.155 8.242 4.147z"/><path fill="#7183b1" d="M260.7 71.395h-11.053L244.375 44.3l-9.888 23.308h-4.983l-8.986-22.368-5.355 26.165h-10.436l10.8-48.6h4.207l12.9 28.698 12.813-28.698h4.46l10.792 48.6zm39.423-5.22l-7.625 6.233c-1.16-.38-2.173-.98-3.038-1.804s-1.435-1.76-1.708-2.816l-5.948 3.385c-.232.127-.628.258-1.187.396s-1.028.206-1.408.206c-4.58 0-8.36-1.57-11.344-4.715s-4.477-7.5-4.477-13.1c0-5.315 1.55-9.698 4.65-13.146s7.056-5.173 11.865-5.173c1.92 0 3.712.38 5.38 1.14s2.762 1.435 3.3 2.025l5.505-1.993 1.93.57v21.705c0 1.898.332 3.407.997 4.524s1.702 1.973 3.116 2.564zm-13.384-4.746v-14.84c-.634-.8-1.462-1.466-2.485-2.032s-2.273-.848-3.75-.848c-2.13 0-3.897.777-5.3 2.33s-2.104 4.125-2.104 7.717c0 2.853.654 5.14 1.962 6.86s3.143 2.584 5.506 2.584c1.35 0 2.615-.212 3.797-.634s1.973-.8 2.374-1.138zm34.267 4.018l-7.024 6.613c-2.9-1.2-5.094-2.953-6.55-5.257s-2.183-5.057-2.183-8.256V43.7h-3.23v-6.33h3.23V26.15l9.68-.696v11.96h5.063v6.265h-5.062v12.115c0 2.418.55 4.427 1.646 6.025s2.573 2.8 4.43 3.63zm35.944 5.95h-9.682V50.037c0-1.244-.443-2.346-1.33-3.307s-2.245-1.44-4.08-1.44c-1.604 0-3.002.333-4.193.998s-2.2 1.376-3.02 2.136v22.97h-9.683v-48.6h9.682v17.213l4.024-2.3c1.288-.738 2.54-1.25 3.754-1.535a16.11 16.11 0 0 1 3.692-.427c3.358 0 6.004 1.04 7.937 3.117s2.9 4.815 2.9 8.2v24.333zm33.317-11.675c0 3.712-1.33 6.696-3.986 8.953s-5.948 3.386-9.87 3.386c-1.836 0-4.035-.186-6.598-.555s-4.836-1.08-6.818-2.136v-8.544c1.56.886 3.333 1.65 5.315 2.294s4.28.965 6.897.965c1.877 0 3.4-.274 4.54-.823s1.725-1.54 1.725-2.974c0-.928-.485-1.682-1.456-2.262s-2.658-.976-5.062-1.187c-4.303-.36-7.32-1.403-9.05-3.133s-2.593-4.05-2.593-6.96c0-3.292 1.324-6.002 3.972-8.133s5.9-3.196 9.76-3.196c1.7 0 3.492.148 5.412.443s3.554.665 4.904 1.108v8.638c-1.688-.76-3.37-1.318-5.047-1.677s-3.485-.54-5.425-.54c-1.56 0-2.78.27-3.654.808s-1.312 1.166-1.312 1.883c0 1.288.622 2.137 1.867 2.548s2.552.66 3.923.744c4.176.274 7.314 1.308 9.413 3.1s3.147 4.2 3.147 7.247z"/><path fill="#003b7d" d="M399.506 71.395h-5.015v-5.142h5.016v5.142zm17.75-1.393c-.348.348-.98.723-1.898 1.123s-2.073.6-3.465.6c-2.626 0-4.75-.747-6.368-2.243s-2.428-3.768-2.428-6.813c0-2.435.833-4.587 2.5-6.458s3.792-2.806 6.375-2.806c1.065 0 2.03.1 2.895.27s1.524.374 1.978.584v5.046c-.823-.57-1.574-.96-2.254-1.17s-1.44-.316-2.285-.316c-1.318 0-2.347.413-3.085 1.24s-1.107 2.072-1.107 3.735c0 1.58.438 2.76 1.313 3.538s1.9 1.17 3.1 1.17c1.056 0 1.947-.162 2.675-.484s1.414-.742 2.058-1.258V70zm19.728-7.435c0 2.795-.8 5.02-2.402 6.676s-3.8 2.483-6.6 2.483c-3.004 0-5.254-.833-6.75-2.5s-2.245-3.886-2.245-6.66c0-2.52.806-4.677 2.418-6.47s3.804-2.7 6.576-2.7c2.783 0 4.977.828 6.584 2.484s2.4 3.882 2.4 6.677zm-4.904 0c0-1.382-.36-2.6-1.083-3.686s-1.722-1.613-2.998-1.613c-1.467 0-2.516.5-3.15 1.47s-.948 2.258-.948 3.83c0 1.466.38 2.716 1.14 3.75s1.776 1.55 3.053 1.55c1.424 0 2.444-.42 3.06-1.258s.925-2.187.925-4.043zm13.526 8.828h-5.015v-5.142h5.016v5.142zm20.41 0h-4.842v-1.93l-2 1.14c-.56.315-1.144.56-1.755.735a7.2 7.2 0 0 1-1.978.26c-1.677 0-2.998-.518-3.963-1.557s-1.448-2.413-1.448-4.12V54.387h4.84v10.44c0 .624.22 1.172.665 1.647s1.123.712 2.04.712c.855 0 1.588-.182 2.2-.546s1.08-.698 1.408-1.004V54.388h4.842v17.007zm20.185 0h-5.797l-4.777-7.477-1 .917v6.56h-4.84v-24.3h4.84v13.1l6.514-6.535 3.216 2.15-5.185 4.8 7.02 10.775z"/><path d="M206.482 86.72h10.048c2.74 0 4.687.813 5.845 2.438.68.96 1.02 2.067 1.02 3.322 0 1.466-.418 2.668-1.25 3.607-.434.496-1.056.95-1.868 1.36 1.192.455 2.083.966 2.674 1.535 1.045 1.013 1.567 2.4 1.567 4.192 0 1.498-.472 2.854-1.417 4.066-1.412 1.814-3.656 2.72-6.733 2.72h-9.885V86.72zm8.872 9.825c1.343 0 2.387-.185 3.133-.554 1.172-.58 1.758-1.623 1.758-3.13 0-1.52-.623-2.543-1.87-3.07-.704-.295-1.748-.443-3.133-.443h-5.675v7.198h5.787zm1.064 10.726c1.948 0 3.337-.558 4.168-1.676.52-.707.783-1.56.783-2.563 0-1.687-.762-2.836-2.285-3.448-.8-.327-1.88-.5-3.2-.5h-6.308v8.178h6.85zm11.452-14.253h2.706v2.927c.222-.57.765-1.263 1.63-2.08s1.86-1.227 3-1.227a3.5 3.5 0 0 1 .268.016l.648.063v3.006c-.17-.032-.324-.053-.467-.063l-.466-.016c-1.436 0-2.538.46-3.308 1.384a4.83 4.83 0 0 0-1.155 3.188v9.745h-2.848V93.02zm10.712-6.298h2.895v3.23h-2.895v-3.23zm0 6.377h2.895v16.864h-2.895V93.098zm7.198-.08h2.705v2.404c.8-1 1.65-1.703 2.547-2.136s1.893-.648 3-.648c2.405 0 4.03.838 4.873 2.516.464.917.696 2.23.696 3.94v10.868h-2.894v-10.68c0-1.034-.153-1.867-.46-2.5-.505-1.055-1.423-1.582-2.75-1.582-.676 0-1.23.07-1.662.206-.78.232-1.466.696-2.057 1.392-.475.56-.783 1.137-.926 1.732s-.212 1.448-.212 2.555v8.875h-2.848V93.018zm27.44.68c.535.37 1.08.907 1.638 1.614v-2.136h2.626v15.4c0 2.15-.315 3.85-.946 5.093-1.177 2.298-3.4 3.448-6.67 3.448-1.817 0-3.347-.4-4.587-1.226s-1.933-2.096-2.08-3.836h2.894c.136.76.4 1.345.818 1.756.64.633 1.647.95 3.02.95 2.172 0 3.594-.77 4.265-2.3.398-.908.582-2.527.55-4.858-.566.865-1.25 1.5-2.048 1.93s-1.855.633-3.168.633c-1.828 0-3.427-.65-4.798-1.954s-2.057-3.457-2.057-6.463c0-2.837.7-5.052 2.072-6.645s3.048-2.4 5.002-2.4c1.323.002 2.48.33 3.467.983zm.347 3.053c-.86-1.012-1.957-1.518-3.3-1.518-1.994 0-3.358.938-4.092 2.816-.388 1.002-.583 2.315-.583 3.94 0 1.908.386 3.36 1.157 4.358s1.806 1.495 3.107 1.495c2.036 0 3.468-.92 4.297-2.768.462-1.044.692-2.262.692-3.654 0-2.1-.43-3.654-1.3-4.667zm8.253-10.03h2.894v3.23h-2.895v-3.23zm0 6.377h2.894v16.864h-2.895V93.098zm7.197-.08h2.705v2.404c.8-1 1.65-1.703 2.547-2.136s1.892-.648 3-.648c2.404 0 4.028.838 4.872 2.516.464.917.696 2.23.696 3.94v10.868h-2.895v-10.68c0-1.034-.153-1.867-.46-2.5-.505-1.055-1.423-1.582-2.75-1.582-.676 0-1.23.07-1.662.206-.78.232-1.465.696-2.056 1.392-.475.56-.783 1.137-.926 1.732s-.213 1.448-.213 2.555v8.875h-2.848V93.018zm27.44.68c.536.37 1.082.907 1.64 1.614v-2.136h2.625v15.4c0 2.15-.314 3.85-.945 5.093-1.177 2.298-3.4 3.448-6.67 3.448-1.817 0-3.347-.4-4.587-1.226s-1.934-2.096-2.082-3.836h2.895c.137.76.4 1.345.82 1.756.64.633 1.646.95 3.02.95 2.17 0 3.593-.77 4.264-2.3.398-.908.582-2.527.55-4.858-.566.865-1.25 1.5-2.048 1.93s-1.854.633-3.167.633c-1.83 0-3.428-.65-4.8-1.954s-2.056-3.457-2.056-6.463c0-2.837.7-5.052 2.072-6.645s3.05-2.4 5.003-2.4c1.322.002 2.478.33 3.466.983zm.348 3.053c-.86-1.012-1.957-1.518-3.3-1.518-1.994 0-3.358.938-4.092 2.816-.388 1.002-.583 2.315-.583 3.94 0 1.908.385 3.36 1.156 4.358s1.807 1.495 3.108 1.495c2.036 0 3.468-.92 4.297-2.768.463-1.044.693-2.262.693-3.654.002-2.1-.428-3.654-1.3-4.667zm17.254-3.733h2.816v2.404c.675-.833 1.287-1.44 1.835-1.82.938-.642 2.003-.964 3.195-.964 1.35 0 2.437.332 3.26.997.463.38.885.94 1.265 1.677.633-.907 1.376-1.58 2.23-2.017s1.814-.657 2.88-.657c2.277 0 3.828.823 4.65 2.468.443.886.665 2.078.665 3.576v11.28h-2.958V98.2c0-1.128-.282-1.903-.846-2.325s-1.25-.633-2.063-.633a4.1 4.1 0 0 0-2.887 1.123c-.807.75-1.2 2-1.2 3.75v9.856h-2.895V98.903c0-1.15-.137-1.988-.4-2.515-.434-.8-1.24-1.187-2.422-1.187-1.076 0-2.054.417-2.935 1.25s-1.32 2.342-1.32 4.525v8.986h-2.85V93.02zm36.07 6.69c.654-.084 1.092-.358 1.313-.82.127-.255.2-.62.2-1.097 0-.974-.345-1.68-1.034-2.12s-1.676-.66-2.96-.66c-1.484 0-2.537.404-3.158 1.2-.348.444-.574 1.107-.68 1.986h-2.657c.054-2.094.73-3.55 2.032-4.37s2.8-1.23 4.527-1.23c2 0 3.607.38 4.85 1.14 1.232.758 1.85 1.94 1.85 3.543v9.76c0 .296.06.534.18.712s.378.27.768.27c.127 0 .27-.01.427-.024l.506-.07v2.103l-1.012.238c-.232.03-.548.047-.95.047-.98 0-1.7-.348-2.135-1.044-.232-.368-.396-.9-.5-1.565-.58.76-1.414 1.418-2.5 1.978s-2.284.838-3.6.838c-1.573 0-2.856-.476-3.853-1.43s-1.495-2.145-1.495-3.578c0-1.57.5-2.786 1.47-3.65s2.27-1.396 3.86-1.596l4.543-.57zm-5.996 7.693c.6.474 1.313.7 2.136.7 1.002 0 1.972-.23 2.9-.695 1.583-.77 2.374-2.027 2.374-3.775v-2.3c-.347.22-.794.407-1.342.555s-1.084.254-1.6.317l-1.72.22c-1.032.138-1.808.354-2.328.648-.88.495-1.32 1.284-1.32 2.368-.002.82.3 1.468.9 1.942zm15.504-19.113h2.88v4.73h2.704v2.325h-2.705v11.06c0 .6.2.985.6 1.186.223.116.592.174 1.108.174l.443-.01c.158-.007.343-.024.554-.053v2.26c-.327.096-.667.165-1.02.207s-.736.063-1.147.063c-1.33 0-2.23-.34-2.706-1.02s-.712-1.564-.712-2.65V95.342h-2.294v-2.325h2.295v-4.73zm8.434-1.645h2.847v8.67c.675-.854 1.28-1.456 1.82-1.804.916-.6 2.06-.902 3.432-.902 2.456 0 4.123.86 4.998 2.58.475.938.712 2.24.712 3.907v10.87h-2.927v-10.68c0-1.245-.158-2.158-.475-2.738-.517-.928-1.487-1.392-2.9-1.392-1.182 0-2.253.406-3.212 1.218s-1.44 2.348-1.44 4.605v8.986h-2.847v-23.32zm19.7 18.004c.087.95.33 1.677.727 2.183.732.916 2.002 1.375 3.8 1.375 1.077 0 2.024-.23 2.843-.688s1.227-1.168 1.227-2.128c0-.73-.327-1.282-.98-1.662-.42-.23-1.244-.5-2.477-.807l-2.3-.568c-1.467-.358-2.55-.76-3.247-1.203-1.243-.77-1.865-1.836-1.865-3.197 0-1.603.585-2.9 1.756-3.892s2.744-1.486 4.722-1.486c2.586 0 4.452.75 5.595 2.247.717.95 1.064 1.974 1.043 3.07h-2.7c-.053-.64-.285-1.222-.695-1.747-.67-.745-1.83-1.117-3.482-1.117-1.1 0-1.936.205-2.502.615a1.91 1.91 0 0 0-.85 1.625c0 .736.372 1.324 1.117 1.766.43.264 1.064.495 1.903.695l1.918.46c2.086.495 3.482.975 4.192 1.438 1.107.728 1.66 1.873 1.66 3.433 0 1.508-.578 2.8-1.737 3.908s-2.923 1.645-5.293 1.645c-2.552 0-4.36-.573-5.422-1.717s-1.63-2.56-1.706-4.248h2.737zm34.212-4.94c.654-.084 1.092-.358 1.313-.82.126-.255.2-.62.2-1.097 0-.974-.346-1.68-1.035-2.12s-1.676-.66-2.96-.66c-1.484 0-2.537.404-3.158 1.2-.348.444-.574 1.107-.68 1.986h-2.657c.053-2.094.73-3.55 2.03-4.37s2.8-1.23 4.528-1.23c2 0 3.608.38 4.85 1.14 1.233.758 1.85 1.94 1.85 3.543v9.76c0 .296.06.534.182.712s.377.27.767.27c.127 0 .27-.01.427-.024l.505-.07v2.103l-1.013.238c-.233.03-.548.047-.95.047-.98 0-1.7-.348-2.135-1.044-.232-.368-.396-.9-.5-1.565-.58.76-1.414 1.418-2.5 1.978s-2.284.838-3.6.838c-1.573 0-2.856-.476-3.853-1.43s-1.495-2.145-1.495-3.578c0-1.57.5-2.786 1.47-3.65s2.268-1.396 3.86-1.596l4.542-.57zm-5.996 7.693c.6.474 1.313.7 2.136.7 1.002 0 1.972-.23 2.9-.695 1.583-.77 2.374-2.027 2.374-3.775v-2.3c-.347.22-.794.407-1.342.555s-1.084.254-1.6.317l-1.72.22c-1.032.138-1.808.354-2.328.648-.88.495-1.32 1.284-1.32 2.368-.002.82.3 1.468.9 1.942zM451 86.72h2.847v23.24h-2.848V86.72zm7.118 0h2.895v3.23h-2.895v-3.23zm0 6.377h2.895v16.864h-2.895V93.098zm8.6-.08l4.524 13.795 4.716-13.795h3.117l-6.38 16.943h-3.034l-6.25-16.942h3.307zm25.265.466c1.122.564 1.976 1.295 2.563 2.2.566.855.943 1.852 1.132 3 .167.782.25 2.026.25 3.735h-12.322c.052 1.723.455 3.106 1.208 4.147s1.92 1.562 3.5 1.562c1.477 0 2.654-.494 3.533-1.48a5.04 5.04 0 0 0 1.045-1.985h2.802c-.074.622-.32 1.315-.736 2.08s-.88 1.4-1.395 1.875c-.856.844-1.92 1.413-3.186 1.708-.68.168-1.45.253-2.308.253-2.097 0-3.873-.766-5.33-2.3s-2.186-3.685-2.186-6.448c0-2.72.734-4.93 2.2-6.63s3.387-2.546 5.756-2.546c1.196.002 2.354.284 3.476.848zm1.02 6.653c-.114-1.234-.382-2.22-.8-2.958-.773-1.372-2.065-2.058-3.875-2.058-1.297 0-2.384.472-3.262 1.416s-1.345 2.144-1.396 3.6h9.333z" fill="#db0065"/></svg>