<svg xmlns="http://www.w3.org/2000/svg" xmlns:xlink="http://www.w3.org/1999/xlink" viewBox="0 0 137.7 139.1"><radialGradient id="A" cx="68.923" cy="70.555" r="68.558" gradientUnits="userSpaceOnUse"><stop offset=".114" stop-color="#fff" stop-opacity="0"/><stop offset=".489" stop-color="#f2e7e2"/><stop offset=".7" stop-color="#f3e9e5" stop-opacity=".585"/><stop offset=".855" stop-color="#f8f1ee" stop-opacity=".28"/><stop offset=".992" stop-color="#fffefe" stop-opacity=".01"/><stop offset=".997" stop-color="#fff" stop-opacity="0"/></radialGradient><path d="M127.5 34.9c-6.1-10-14.6-18.3-24.8-24C92.7 5.2 81.2 2 68.9 2c-11.7 0-22.8 2.9-32.5 8.2C15 21.7.4 44.4.4 70.5c0 11.2 2.7 21.8 7.5 31.1C19.2 123.8 42.4 139 69 139c37.9 0 68.6-30.7 68.6-68.6-.1-12.9-3.8-25.1-10.1-35.5zm-58.6 99.9c-25 0-46.6-14.2-57.2-35.1-4.5-8.8-7-18.7-7-29.2C4.7 35 33.5 6.3 68.9 6.3c23.2 0 43.6 12.3 54.8 30.8 5.9 9.7 9.4 21.2 9.4 33.4 0 35.5-28.7 64.3-64.2 64.3z" fill="url(#A)"/><g opacity=".5"><linearGradient id="B" gradientUnits="userSpaceOnUse" x1="68.923" y1="0" x2="68.923" y2="137.11"><stop offset="0" stop-color="#fff"/><stop offset="0" stop-color="#90551d"/><stop offset="1" stop-color="#4c2609" stop-opacity=".75"/></linearGradient><use xlink:href="#F" fill="url(#B)"/><linearGradient id="C" gradientUnits="userSpaceOnUse" x1="68.923" y1="0" x2="68.923" y2="137.11"><stop offset="0" stop-color="#fff"/><stop offset="0" stop-color="#f29c61"/><stop offset="1" stop-color="#4c2609" stop-opacity=".75"/></linearGradient><use xlink:href="#F" fill="url(#C)"/><use xlink:href="#G" fill="#845124"/><radialGradient id="D" cx="68.933" cy="68.548" r="86.87" gradientUnits="userSpaceOnUse"><stop offset="0" stop-color="#ff9a21"/><stop offset=".135" stop-color="#dd8520"/><stop offset=".295" stop-color="#bc701f"/><stop offset=".46" stop-color="#a2601e"/><stop offset=".629" stop-color="#90541d"/><stop offset=".805" stop-color="#854d1d"/><stop offset="1" stop-color="#814b1d"/></radialGradient><use xlink:href="#G" fill="url(#D)"/><defs><filter id="E" filterUnits="userSpaceOnUse" x="-34" y="16.2" width="205.6" height="104.2"><feColorMatrix values="1 0 0 0 0 0 1 0 0 0 0 0 1 0 0 0 0 0 1 0"/></filter><path id="F" d="M137.5 68.5c0 37.9-30.7 68.6-68.6 68.6-26.7 0-49.8-15.2-61.1-37.4C3 90.4.3 79.8.3 68.6.4 42.4 15 19.7 36.5 8.2 46.1 2.9 57.2 0 68.9 0c12.2 0 23.8 3.2 33.7 8.8 10.2 5.8 18.8 14 24.8 24 6.4 10.5 10.1 22.7 10.1 35.7z"/><path id="G" d="M131.4 68.5c0 34.5-28 62.5-62.5 62.5-24.3 0-45.3-13.9-55.7-34.1-4.3-8.5-6.8-18.1-6.8-28.4C6.4 34 34.4 6 68.9 6c22.6 0 42.4 12 53.3 29.9a61.85 61.85 0 0 1 9.2 32.6z"/></defs><mask maskUnits="userSpaceOnUse" x="-34" y="16.2" width="205.6" height="104.2" id="H"><g filter="url(#E)"><path d="M133.7 68.6c0 35.5-28.8 64.2-64.2 64.2-25 0-46.6-14.2-57.2-35.1-4.5-8.7-7-18.7-7-29.2C5.2 33.2 34 4.4 69.4 4.4c23.2 0 43.6 12.3 54.8 30.8a63.46 63.46 0 0 1 9.5 33.4z" fill="#fff"/></g></mask><g mask="url(#H)" fill="#764314"><path d="M.7 19.1c20.3.8 40.6.7 60.9.7h60.9c11.5 0 23 .3 34.4-.3 1.9-.1 1.9-2.9 0-3-10.1-.5-20.3-.2-30.4-.1l-30.4.2-60.9.5A987.22 987.22 0 0 0 .8 18a.56.56 0 0 0-.1 1.1h0zm-8.6 25.4l17.5.4 17.5.1 35 .1 69.4.1 39.5-.5c.8 0 .8-1.2 0-1.2-23.3-.9-46.6-.5-70-.5l-69.4.1-19.7.1-19.7.5c-.6 0-.6.8-.1.8h0zm161.2 20c-29-1.8-58.2-2-87.2-1.6-8.1.1-16.4 0-24.4 1-.7.1-.7 1 0 1.1 7.3.6 14.6.4 21.9.3l21.7-.1 43.6.3 24.4.1c.7 0 .7-1.1 0-1.1h0zM-33.1 80.9c16.7.5 33.5.4 50.2.5l50.2.1 14.2-.1c4.8-.1 9.5-.1 14.2-.6a.7.7 0 0 0 0-1.4c-8.3-1-16.9-.7-25.2-.7h-25l-50.2.1-28.5.4c-1.1-.1-1.1 1.6.1 1.7h0zm186.9 18.3l-14.5-.5c-4.7-.1-9.5 0-14.2-.1-9.6 0-19.1 0-28.7-.1l-57.3.3-32.4.7c-.8 0-.8 1.2 0 1.2 19.1.7 38.2.9 57.3 1h57.3l16.2-.1c5.4 0 10.8-.3 16.2-.5 1.3 0 1.3-1.8.1-1.9h0zM5.3 119.8c9.1.9 18.4.5 27.5.5l81.9-.3c10.3-.1 20.7.2 31-.9.9-.1 1-1.4 0-1.5-9.1-.9-18.4-.7-27.5-.6l-81.9.6c-10.3.1-20.7-.3-31 .8-1 .1-1 1.3 0 1.4h0z"/></g><radialGradient id="I" cx="68.933" cy="97.575" r="69.672" gradientUnits="userSpaceOnUse"><stop offset="0" stop-color="#ff9a21"/><stop offset=".135" stop-color="#dd8520"/><stop offset=".295" stop-color="#bc701f"/><stop offset=".46" stop-color="#a2601e"/><stop offset=".629" stop-color="#90541d"/><stop offset=".805" stop-color="#854d1d"/><stop offset="1" stop-color="#814b1d"/></radialGradient><path d="M131.4 68.5c0 34.5-28 62.5-62.5 62.5-24.3 0-45.3-13.8-55.7-34.1-4.3-8.5-6.8-18.1-6.8-28.4 0-1.5.1-2.9.2-4.3.6 8.6 2.9 16.7 6.6 24 10.3 20.2 31.4 34.1 55.7 34.1 33 0 60.1-25.7 62.3-58.2.1 1.5.2 3 .2 4.4z" opacity=".5" fill="url(#I)"/></g><linearGradient id="J" gradientUnits="userSpaceOnUse" x1="69.273" y1="61.791" x2="69.273" y2="-41.636"><stop offset="0" stop-color="#fff" stop-opacity="0"/><stop offset=".384" stop-color="#f9f5f2" stop-opacity=".384"/><stop offset="1" stop-color="#f2e7e2"/></linearGradient><path d="M128.3 59.3c-5.6-3.1-12-5.8-19.2-8-6.6-15.5-22-26.4-40-26.4-17 0-31.7 9.8-38.8 24-7.3 1.7-14.1 3.8-20.1 6.4C15.9 28.1 40 7.6 68.9 7.6c21.7 0 40.7 11.5 51.2 28.7 4.2 6.9 7.1 14.7 8.2 23z" opacity=".8" fill="url(#J)"/><g fill="#8e8e8e"><path d="M78.7 120.8l-6.5 8.3c-1.8 2.4-5.3 2.5-7.2.3l-6.5-7.9c-.7-.8-.8-1.9-.5-2.8.4-1 1.3-1.8 2.6-1.8h16.2c1 0 1.8.6 2.2 1.4.3.9.3 1.8-.3 2.5zm48.4-46.6l-8.3 6.5a2.35 2.35 0 0 1-3.8-1.9V62.6c0-2.3 2.8-3.6 4.6-2.1l7.9 6.5a4.7 4.7 0 0 1 1.5 2.5c.3 1.7-.3 3.6-1.9 4.7zm-105-11.6v16.2c0 2-2.3 3.1-3.8 1.9L10 74.2c-1.5-1.1-2.1-3-1.8-4.7A4.7 4.7 0 0 1 9.7 67l7.9-6.5c1.7-1.5 4.4-.3 4.5 2.1zm54.7-38.5H60.6c-2 0-3.3-2-2.6-3.8.1-.3.3-.6.5-.8l6.5-7.9c1.9-2.2 5.4-2.1 7.2.2l6.5 8.3c.1.2.2.3.3.5.6 1.6-.5 3.5-2.2 3.5z"/><path d="M78.7 118.9l-6.5 8.3c-1.8 2.4-5.3 2.5-7.2.3l-6.5-7.9c-.7-.8-.8-1.9-.5-2.8.4-1 1.3-1.8 2.6-1.8h16.2c1 0 1.8.6 2.2 1.4.3.8.3 1.7-.3 2.5zm48.4-46.6l-8.3 6.5a2.35 2.35 0 0 1-3.8-1.9V60.7c0-2.3 2.8-3.6 4.6-2.1l7.9 6.5a4.7 4.7 0 0 1 1.5 2.5c.3 1.7-.3 3.5-1.9 4.7zm-105-11.7v16.2c0 2-2.3 3.1-3.8 1.9L10 72.2c-1.5-1.1-2.1-3-1.8-4.7A4.7 4.7 0 0 1 9.7 65l7.9-6.5c1.7-1.5 4.4-.2 4.5 2.1zm54.7-38.5H60.6c-2 0-3.3-2-2.6-3.8.1-.3.3-.6.5-.8L65 9.7c1.9-2.2 5.4-2.1 7.2.2l6.5 8.3c.1.2.2.3.3.5.6 1.6-.5 3.4-2.2 3.4z"/></g><radialGradient id="K" cx="67.715" cy="119.545" r="15.858" gradientUnits="userSpaceOnUse"><stop offset="0" stop-color="#dbdbdb"/><stop offset="1" stop-color="#8e8e8e"/></radialGradient><path d="M78.9 116.5c-.1.2-.1.3-.3.5l-6.5 8.3c-1.8 2.4-5.3 2.5-7.2.2l-6.5-7.9c-.2-.3-.4-.5-.5-.8.4-1 1.3-1.8 2.6-1.8h16.2c1.1 0 1.9.6 2.2 1.5z" fill="url(#K)"/><radialGradient id="L" cx="120.197" cy="66.843" r="14.557" gradientUnits="userSpaceOnUse"><stop offset="0" stop-color="#dbdbdb"/><stop offset="1" stop-color="#8e8e8e"/></radialGradient><path d="M128.9 67.6c-.2 1.1-.8 2-1.7 2.7l-8.3 6.5a2.35 2.35 0 0 1-3.8-1.9V60.6c0-2.3 2.8-3.6 4.6-2.1l7.9 6.5c.6.8 1.1 1.7 1.3 2.6z" fill="url(#L)"/><radialGradient id="M" cx="15.088" cy="67.601" r="13.095" gradientUnits="userSpaceOnUse"><stop offset="0" stop-color="#dbdbdb"/><stop offset="1" stop-color="#8e8e8e"/></radialGradient><path d="M22.1 60.6v14.3c0 2-2.3 3.1-3.8 1.9L10 70.3c-1-.7-1.5-1.7-1.8-2.8A4.7 4.7 0 0 1 9.7 65l7.9-6.5c1.7-1.5 4.4-.2 4.5 2.1z" fill="url(#M)"/><radialGradient id="N" cx="69.05" cy="14.988" r="18.089" gradientUnits="userSpaceOnUse"><stop offset="0" stop-color="#dbdbdb"/><stop offset=".285" stop-color="#c9c9c9"/><stop offset=".852" stop-color="#9b9b9b"/><stop offset="1" stop-color="#8e8e8e"/></radialGradient><path d="M78.9 18.7c-.4.8-1.2 1.4-2.2 1.4H60.5c-1.3 0-2.2-.8-2.6-1.8.1-.3.3-.6.5-.8L65 9.7c1.9-2.2 5.4-2.1 7.2.2l6.5 8.3c.1.2.2.4.2.5z" fill="url(#N)"/><linearGradient id="O" gradientUnits="userSpaceOnUse" x1="68.075" y1="11.39" x2="68.075" y2="7.037"><stop offset="0" stop-color="#fff" stop-opacity="0"/><stop offset=".068" stop-color="#fbf8f6" stop-opacity=".068"/><stop offset=".216" stop-color="#f6eeeb" stop-opacity=".216"/><stop offset=".423" stop-color="#f3e9e4" stop-opacity=".423"/><stop offset="1" stop-color="#f2e7e2"/></linearGradient><ellipse cx="68.1" cy="10.2" rx="1.4" ry="1.1" fill="url(#O)"/><linearGradient id="P" gradientUnits="userSpaceOnUse" x1="12.841" y1="67.297" x2="12.841" y2="62.944"><stop offset="0" stop-color="#fff" stop-opacity="0"/><stop offset=".068" stop-color="#fbf8f6" stop-opacity=".068"/><stop offset=".216" stop-color="#f6eeeb" stop-opacity=".216"/><stop offset=".423" stop-color="#f3e9e4" stop-opacity=".423"/><stop offset="1" stop-color="#f2e7e2"/></linearGradient><ellipse cx="12.8" cy="66.1" rx="1.4" ry="1.1" fill="url(#P)"/><linearGradient id="Q" gradientUnits="userSpaceOnUse" x1="67.034" y1="124.31" x2="67.034" y2="119.957"><stop offset="0" stop-color="#fff" stop-opacity="0"/><stop offset=".068" stop-color="#fbf8f6" stop-opacity=".068"/><stop offset=".216" stop-color="#f6eeeb" stop-opacity=".216"/><stop offset=".423" stop-color="#f3e9e4" stop-opacity=".423"/><stop offset="1" stop-color="#f2e7e2"/></linearGradient><ellipse cx="67" cy="123.1" rx="1.4" ry="1.1" fill="url(#Q)"/><linearGradient id="R" gradientUnits="userSpaceOnUse" x1="124.634" y1="67.297" x2="124.634" y2="62.944"><stop offset="0" stop-color="#fff" stop-opacity="0"/><stop offset=".068" stop-color="#fbf8f6" stop-opacity=".068"/><stop offset=".216" stop-color="#f6eeeb" stop-opacity=".216"/><stop offset=".423" stop-color="#f3e9e4" stop-opacity=".423"/><stop offset="1" stop-color="#f2e7e2"/></linearGradient><ellipse cx="124.6" cy="66.1" rx="1.4" ry="1.1" fill="url(#R)"/><radialGradient id="S" cx="68.923" cy="68.555" r="68.558" gradientUnits="userSpaceOnUse"><stop offset="0" stop-color="#fff" stop-opacity="0"/><stop offset=".119" stop-color="#faf5f3" stop-opacity=".244"/><stop offset=".31" stop-color="#f4ebe6" stop-opacity=".633"/><stop offset=".489" stop-color="#f2e7e2"/><stop offset=".784" stop-color="#f3e9e4" stop-opacity=".423"/><stop offset=".89" stop-color="#f6eeeb" stop-opacity=".216"/><stop offset=".965" stop-color="#fbf8f6" stop-opacity=".068"/><stop offset="1" stop-color="#fff" stop-opacity="0"/></radialGradient><path d="M127.5 32.9c-6.1-10-14.6-18.3-24.8-24C92.7 3.2 81.2 0 68.9 0 57.2 0 46.1 2.9 36.5 8.2 15 19.7.4 42.4.4 68.5c0 11.2 2.7 21.8 7.5 31.1C19.2 121.8 42.4 137 69 137c37.9 0 68.6-30.7 68.6-68.6-.1-12.9-3.8-25.1-10.1-35.5zM68.9 131c-24.3 0-45.3-13.9-55.7-34.1-4.3-8.5-6.8-18.2-6.8-28.4 0-34.5 28-62.4 62.5-62.4 22.6 0 42.4 12 53.3 30 5.8 9.5 9.1 20.6 9.1 32.5.1 34.4-27.9 62.4-62.4 62.4z" fill="url(#S)"/></svg>