<svg xmlns="http://www.w3.org/2000/svg" xmlns:xlink="http://www.w3.org/1999/xlink" viewBox="0 0 1852.21 766.6"><style><![CDATA[.P{fill:#fff200}.Q{fill:#0f536d}.R{fill:#c39d58}.S{fill:#a46f1c}]]></style><defs><clipPath id="A"><path d="M348.03 547.38h1441.23v58H348.03z" fill="none"/></clipPath><clipPath id="B"><path d="M2024.34 579.42l-.57-16.7-902.55 1.13-391-.12-392.22-1 1.18 16.22 1171.54-.06z" class="R"/></clipPath><clipPath id="C"><path d="M278.17 209.34H1583v51.9H278.17z" fill="none"/></clipPath><clipPath id="D"><path d="M1589.23 232.45l-.57-16.7-390.15.88-194.93.25h-195.5l-391.56-.12-392.18-1L25.52 232l1171.54-.06z" class="R"/></clipPath><clipPath id="E"><path d="M581.3 0h685.66v51.9H581.3z" fill="none"/></clipPath><clipPath id="F"><path d="M2023.42 23.12l-.57-16.7-390.15.87-195.5.26h-195.5l-391-.12-392.17-1 1.18 16.2 1171.54-.06z" class="R"/></clipPath><clipPath id="G"><path d="M165.7 381.66h1625.52v51.9H165.7z" fill="none"/></clipPath><clipPath id="H"><path d="M1791.23 404.77l-.6-16.7-405.8.88-203.34.25-203.33.05-406.67-.12-407.9-1.06 1.23 16.22 1218.54-.1z" class="R"/></clipPath><clipPath id="I"><path d="M1852.2 758.34l-.63-16.7-990.44 1.13-429.07-.12-430.37-1 1.3 16.2 1285.62-.06z" class="R"/></clipPath><path id="J" d="M217.36 572.25l18.8.07 10.45-10.54-18.66-.07-10.6 10.54z"/><path id="K" d="M236.16 572.28l18.8.06 10.45-10.54-18.66-.06-10.6 10.54z"/><path id="L" d="M348.92 572.38l18.8.07 10.45-10.55-18.66-.06-10.6 10.54z"/><path id="M" d="M837.35 572.9l18.8.07 10.45-10.54-18.66-.06-10.6 10.53z"/><path id="N" d="M1025.23 573.13l18.82.07 10.45-10.54-18.66-.07-10.6 10.54z"/><path id="O" d="M1250.62 573.2l18.8.06 10.46-10.54-18.66-.06-10.6 10.54z"/><path id="P" d="M1269.3 573.3l18.8.07 10.46-10.54-18.67-.07-10.6 10.54z"/><path id="Q" d="M1306.94 573.28l18.82.07 10.45-10.55-18.66-.06-10.6 10.54z"/><path id="R" d="M1325.74 573.3l18.8.06 10.45-10.54-18.66-.07-10.6 10.55z"/><path id="S" d="M655.1 226.15l18.8.07 10.46-10.54-18.66-.07-10.6 10.54z"/><path id="T" d="M824.15 226.12l18.82.06 10.45-10.54-18.66-.06-10.6 10.54z"/><path id="U" d="M1134.8 752.2l18.8.06 10.46-10.54-18.67-.06-10.6 10.54z"/></defs><g opacity=".1"><g clip-path="url(#A)"><g class="S"><path d="M2024.12 587.68H337.8l-.48-8.42 1686.65-.34.16 8.76z"/><path d="M1903.48 579.58l-389.82.56-391.3.2-391.84-.33c-130.56-.25-260.8 0-391.3.1h-1.92l.1-19.1 392.8.66 782 .18q195.5.3 391 .63h.85v.25z"/></g><path d="M2024.34 579.42l-.57-16.7-902.55 1.13-391-.12-392.22-1 1.18 16.22 1171.54-.06z" class="R"/><g clip-path="url(#B)"><use xlink:href="#J" class="P"/><use xlink:href="#K" class="Q"/><path d="M255 572.24l18.8.06 10.45-10.54-18.66-.06-10.6 10.54z" class="P"/><path d="M273.8 572.26l18.8.07 10.45-10.54-18.66-.07-10.6 10.54z" class="Q"/><path d="M292.5 572.37l18.8.06 10.45-10.54-18.66-.06-10.6 10.54z" class="P"/><path d="M311.28 572.4l18.8.07 10.45-10.54-18.66-.07-10.6 10.54z" class="Q"/><path d="M330.12 572.35l18.8.07 10.45-10.54-18.66-.07-10.6 10.54z" class="P"/><use xlink:href="#L" class="Q"/><path d="M367.6 572.48l18.8.07L396.88 562l-18.67-.07-10.6 10.54z" class="P"/><path d="M386.4 572.5l18.8.07 10.45-10.55-18.66-.06-10.6 10.54z" class="Q"/><path d="M405.25 572.47l18.8.06L434.5 562l-18.66-.06-10.6 10.54z" class="P"/><path d="M424.04 572.5l18.8.06 10.45-10.54-18.66-.06-10.6 10.54z" class="Q"/><path d="M442.74 572.45l18.8.07L472 561.98l-18.66-.07-10.6 10.54z" class="P"/><path d="M461.54 572.48l18.8.07L490.8 562l-18.66-.06-10.6 10.54z" class="Q"/><path d="M480.37 572.44l18.8.06 10.45-10.54-18.66-.06-10.6 10.54z" class="P"/><path d="M499.17 572.47l18.8.06L528.43 562l-18.66-.07-10.6 10.55z" class="Q"/><path d="M517.87 572.42l18.8.07 10.45-10.54-18.66-.07-10.6 10.54z" class="P"/><path d="M536.66 572.45l18.8.07 10.45-10.54-18.66-.07-10.6 10.54z" class="Q"/><path d="M555.5 572.4l18.8.07 10.45-10.55-18.66-.06-10.6 10.54z" class="P"/><path d="M574.3 572.44l18.8.06 10.45-10.54-18.66-.06-10.6 10.54z" class="Q"/><path d="M593 572.54l18.8.07 10.45-10.54-18.65-.07-10.6 10.54z" class="P"/><path d="M611.8 572.57l18.8.06 10.45-10.54-18.66-.06-10.6 10.54z" class="Q"/><path d="M630.63 572.53l18.8.06 10.45-10.54-18.66-.06-10.6 10.54z" class="P"/><path d="M649.42 572.55l18.8.07 10.45-10.54-18.66-.07-10.6 10.54z" class="Q"/><path d="M668.12 572.66l18.8.06 10.45-10.54-18.66-.06-10.6 10.54z" class="P"/><path d="M686.92 572.68l18.8.07 10.45-10.54-18.66-.07-10.6 10.54z" class="Q"/><path d="M705.75 572.64l18.8.07L735 562.17l-18.66-.07-10.6 10.54z" class="P"/><path d="M724.55 572.67l18.8.06 10.45-10.54-18.66-.06-10.6 10.54z" class="Q"/><path d="M743.25 572.63l18.8.06 10.45-10.54-18.66-.06-10.6 10.54z" class="P"/><path d="M762.04 572.65l18.8.07 10.45-10.54-18.66-.07-10.6 10.54z" class="Q"/><path d="M780.88 572.6l18.8.07 10.45-10.54-18.66-.07-10.6 10.54z" class="P"/><path d="M799.68 572.64l18.8.06 10.45-10.54-18.66-.06-10.6 10.54z" class="Q"/><path d="M818.55 572.9l18.8.07 10.46-10.55-18.67-.06-10.6 10.54z" class="P"/><use xlink:href="#M" class="Q"/><path d="M856.18 572.88l18.82.06 10.45-10.54-18.66-.07-10.6 10.55z" class="P"/><path d="M874.98 572.9l18.8.07 10.45-10.55-18.66-.06-10.6 10.54z" class="Q"/><path d="M893.68 573l18.8.07 10.45-10.54-18.66-.06-10.6 10.53z" class="P"/><path d="M912.48 573.03l18.8.07 10.45-10.54-18.66-.07-10.6 10.54z" class="Q"/><path d="M931.3 573l18.8.07 10.45-10.55-18.66-.06L931.3 573z" class="P"/><path d="M950.1 573.02l18.8.06 10.45-10.54-18.66-.06-10.6 10.54z" class="Q"/><path d="M968.8 573.12l18.8.07 10.45-10.54-18.66-.07-10.6 10.54z" class="P"/><path d="M987.6 573.15l18.8.06 10.45-10.54-18.66-.06-10.6 10.54z" class="Q"/><path d="M1006.44 573.1l18.8.06 10.45-10.54-18.66-.06-10.6 10.54z" class="P"/><use xlink:href="#N" class="Q"/><path d="M1043.93 573.1l18.8.07 10.45-10.54-18.65-.07-10.6 10.54z" class="P"/><path d="M1062.73 573.12l18.8.06 10.45-10.54-18.66-.06-10.6 10.54z" class="Q"/><path d="M1081.57 573.08l18.8.06 10.45-10.54-18.66-.06-10.6 10.54z" class="P"/><path d="M1100.36 573.1l18.8.07 10.45-10.54-18.66-.07-10.6 10.54z" class="Q"/><path d="M1119.06 573.06l18.8.07 10.45-10.54-18.66-.07-10.6 10.54z" class="P"/><path d="M1137.86 573.1l18.8.06 10.45-10.54-18.66-.06-10.6 10.54z" class="Q"/><path d="M1156.7 573.05l18.8.06 10.45-10.54-18.66-.06-10.6 10.54z" class="P"/><path d="M1175.5 573.07l18.8.07 10.45-10.54-18.66-.07-10.6 10.54z" class="Q"/><path d="M1194.2 573.18l18.8.06 10.45-10.54-18.66-.06-10.6 10.54z" class="P"/><path d="M1212.98 573.2l18.8.07 10.45-10.54-18.66-.07-10.6 10.54z" class="Q"/><path d="M1231.82 573.16l18.8.07 10.45-10.54-18.66-.07-10.6 10.54z" class="P"/><use xlink:href="#O" class="Q"/><use xlink:href="#P" class="P"/><path d="M1288.1 573.32l18.8.07 10.45-10.54-18.66-.07-10.6 10.54z" class="Q"/><use xlink:href="#Q" class="P"/><use xlink:href="#R" class="Q"/><path d="M1344.44 573.26l18.8.07 10.45-10.54-18.66-.07-10.6 10.54z" class="P"/><path d="M1363.24 573.3l18.8.07 10.45-10.54-18.66-.07-10.6 10.54z" class="Q"/><path d="M1382.07 573.25l18.8.07 10.45-10.55-18.66-.06-10.6 10.54z" class="P"/><path d="M1400.87 573.28l18.8.06 10.45-10.54-18.66-.06-10.6 10.54z" class="Q"/><path d="M1419.65 573.28l18.8.06 10.45-10.54-18.66-.06-10.6 10.54z" class="P"/><path d="M1438.44 573.3l18.82.07 10.45-10.54-18.66-.07-10.6 10.54z" class="Q"/><path d="M1457.28 573.26l18.8.07 10.45-10.54-18.66-.07-10.6 10.54z" class="P"/><path d="M1476.08 573.3l18.8.06 10.45-10.54-18.66-.06-10.6 10.54z" class="Q"/><path d="M1494.78 573.4l18.8.07 10.45-10.54-18.66-.07-10.6 10.54z" class="P"/><path d="M1513.57 573.42l18.8.06 10.45-10.54-18.66-.06-10.6 10.54z" class="Q"/><path d="M1532.4 573.38l18.8.06 10.45-10.54-18.66-.06-10.6 10.54z" class="P"/><path d="M1551.2 573.4l18.82.07 10.45-10.54-18.66-.07-10.6 10.54z" class="Q"/><path d="M1569.9 573.5l18.8.06 10.45-10.54-18.66-.06-10.6 10.54z" class="P"/><path d="M1588.7 573.53l18.8.07 10.45-10.54-18.66-.07-10.6 10.54z" class="Q"/><path d="M1607.54 573.5l18.8.07 10.45-10.54-18.66-.07-10.6 10.54z" class="P"/><path d="M1626.33 573.52l18.8.07 10.45-10.55-18.66-.06-10.6 10.54z" class="Q"/><path d="M1645.03 573.48l18.8.06L1674.3 563l-18.66-.06-10.6 10.54z" class="P"/><path d="M1663.83 573.5l18.8.07 10.45-10.54-18.66-.07-10.6 10.54z" class="Q"/><path d="M1682.66 573.46l18.8.07 10.45-10.54-18.66-.07-10.6 10.54z" class="P"/><path d="M1701.46 573.5l18.8.06 10.45-10.54-18.66-.06-10.6 10.54z" class="Q"/><path d="M1720.16 573.45l18.8.06 10.45-10.54-18.66-.06-10.6 10.54z" class="P"/><path d="M1738.95 573.48l18.8.06L1768.2 563l-18.66-.07-10.6 10.55z" class="Q"/><path d="M1757.8 573.43l18.8.07 10.45-10.54-18.66-.07-10.6 10.54z" class="P"/><path d="M1776.6 573.46l18.8.06 10.46-10.53-18.66-.07-10.6 10.54z" class="Q"/><path d="M1795.28 573.56l18.8.07 10.46-10.54-18.67-.07-10.6 10.54z" class="P"/><path d="M1814.08 573.6l18.8.07 10.45-10.54-18.66-.07-10.6 10.54z" class="Q"/><path d="M1832.9 573.55l18.82.07 10.45-10.55-18.66-.06-10.6 10.54z" class="P"/><path d="M1851.7 573.58l18.8.06 10.45-10.54-18.66-.06-10.6 10.54z" class="Q"/></g></g><g clip-path="url(#C)"><g class="S"><path d="M1583.13 239.52l-1550.5.58-8.45-7.8 1566.68-.34-7.73 7.57z"/><path d="M1589.78 232.6l-389.82.56-391.3.2-391.84-.36c-130.57-.25-260.8 0-391.3.1H23.6v-.58l-.17-17.4h2.1l978.06-.5 194.93.25q195.5.3 391 .63h.86v.25z"/></g><path d="M1589.23 232.45l-.57-16.7-390.15.88-194.93.25h-195.5l-391.56-.12-392.18-1L25.52 232l1171.54-.06z" class="R"/><g clip-path="url(#D)"><path d="M-21.2 225.4l18.8.06 10.45-10.54-18.66-.06-10.6 10.54z" class="P"/><path d="M-2.42 225.42l18.8.07 10.45-10.54-18.66-.07-10.6 10.54z" class="Q"/><path d="M16.42 225.38l18.8.07 10.45-10.54-18.66-.07-10.6 10.54z" class="P"/><path d="M35.2 225.4l18.8.06 10.46-10.54-18.66-.06-10.6 10.54z" class="Q"/><path d="M53.9 225.5l18.8.07 10.45-10.54-18.66-.07-10.6 10.54z" class="P"/><path d="M72.7 225.54l18.8.07 10.45-10.55L83.3 215l-10.6 10.54z" class="Q"/><path d="M91.55 225.5l18.8.06 10.45-10.54-18.66-.06-10.6 10.54z" class="P"/><path d="M110.34 225.53l18.8.06 10.45-10.54-18.66-.06-10.6 10.54z" class="Q"/><path d="M129.04 225.5l18.8.06L158.3 215l-18.66-.07-10.6 10.55z" class="P"/><path d="M147.84 225.5l18.8.07 10.45-10.55-18.66-.06-10.6 10.54z" class="Q"/><path d="M166.67 225.47l18.8.07L195.93 215l-18.66-.07-10.6 10.54z" class="P"/><path d="M185.47 225.5l18.8.06 10.45-10.54-18.66-.06-10.6 10.54z" class="Q"/><path d="M204.17 225.46l18.8.06 10.45-10.54-18.66-.07-10.6 10.55z" class="P"/><path d="M222.96 225.48l18.8.07L252.22 215l-18.66-.07-10.6 10.54z" class="Q"/><path d="M241.8 225.44l18.8.07 10.45-10.54-18.66-.07-10.6 10.54z" class="P"/><path d="M260.6 225.47l18.8.06L289.86 215l-18.66-.06-10.6 10.54z" class="Q"/><path d="M279.3 225.57l18.8.07 10.45-10.54-18.66-.07-10.6 10.54z" class="P"/><path d="M298.1 225.6l18.8.06 10.45-10.54-18.66-.06-10.6 10.54z" class="Q"/><path d="M316.93 225.56l18.8.06 10.45-10.54-18.66-.06-10.6 10.54z" class="P"/><path d="M335.72 225.58l18.8.07 10.45-10.54-18.66-.07-10.6 10.54z" class="Q"/><path d="M354.42 225.7l18.8.06 10.45-10.54-18.66-.06-10.6 10.54z" class="P"/><path d="M373.2 225.7l18.82.07 10.45-10.54-18.66-.07-10.6 10.54z" class="Q"/><path d="M392.05 225.67l18.8.07 10.45-10.54-18.66-.07-10.6 10.54z" class="P"/><path d="M410.85 225.7l18.8.06 10.45-10.54-18.66-.06-10.6 10.54z" class="Q"/><path d="M429.55 225.66l18.8.06 10.45-10.54-18.66-.06-10.6 10.54z" class="P"/><path d="M448.34 225.68l18.8.07 10.45-10.54-18.66-.07-10.6 10.54z" class="Q"/><path d="M467.18 225.64l18.8.07 10.45-10.54-18.66-.07-10.6 10.54z" class="P"/><path d="M485.98 225.67l18.8.07 10.45-10.55-18.66-.06-10.6 10.54z" class="Q"/><path d="M504.85 225.92l18.8.07 10.45-10.55-18.66-.06-10.6 10.54z" class="P"/><path d="M523.65 225.95l18.8.06 10.45-10.54-18.66-.06-10.6 10.54z" class="Q"/><path d="M542.48 225.9l18.8.06 10.46-10.54-18.66-.06-10.6 10.54z" class="P"/><path d="M561.28 225.93l18.8.07 10.45-10.54-18.66-.07-10.6 10.54z" class="Q"/><path d="M579.98 226.04l18.8.06 10.45-10.54-18.66-.06-10.6 10.54z" class="P"/><path d="M598.77 226.06l18.82.07 10.45-10.54-18.66-.07-10.6 10.54z" class="Q"/><path d="M617.6 226.02l18.8.07 10.45-10.54-18.66-.07-10.6 10.54z" class="P"/><path d="M636.4 226.05l18.8.06 10.45-10.54-18.66-.06-10.6 10.54z" class="Q"/><use xlink:href="#S" class="P"/><path d="M673.9 226.18l18.8.06 10.45-10.54-18.66-.06-10.6 10.54z" class="Q"/><path d="M692.74 226.14l18.8.06L722 215.66l-18.66-.06-10.6 10.54z" class="P"/><path d="M711.53 226.16l18.8.07 10.45-10.54-18.66-.07-10.6 10.54z" class="Q"/><path d="M730.23 226.12l18.8.07 10.45-10.54-18.66-.07-10.6 10.54z" class="P"/><path d="M749.03 226.15l18.8.06 10.45-10.54-18.66-.06-10.6 10.54z" class="Q"/><path d="M767.86 226.1l18.8.06 10.46-10.54-18.66-.06-10.6 10.54z" class="P"/><path d="M786.66 226.13l18.8.07 10.45-10.54-18.66-.07-10.6 10.54z" class="Q"/><path d="M805.36 226.1l18.8.07 10.45-10.54-18.66-.07-10.6 10.54z" class="P"/><use xlink:href="#T" class="Q"/><path d="M843 226.08l18.8.06 10.45-10.54-18.66-.06-10.6 10.54z" class="P"/><path d="M861.8 226.1l18.8.07 10.45-10.54-18.66-.07-10.6 10.54z" class="Q"/><path d="M880.5 226.2l18.8.06 10.45-10.54-18.66-.06-10.6 10.54z" class="P"/><path d="M899.28 226.24l18.8.06 11.02-10.54-19.23-.07-10.6 10.55z" class="Q"/><path d="M918.12 226.2l19.37.07 10.46-10.54-18.67-.07-11.16 10.54z" class="P"/><path d="M937.48 226.22l18.8.07 9.9-10.54-18.1-.07-10.6 10.54z" class="Q"/><path d="M956.18 226.32l18.24.07 10.45-10.54-18.66-.07-10.03 10.54z" class="P"/><path d="M974.4 226.35l18.8.07 10.45-10.54-18.66-.07-10.6 10.54z" class="Q"/><path d="M993.24 226.3l18.8.07 10.46-10.54-18.66-.07-10.6 10.54z" class="P"/><path d="M1012.04 226.34l18.8.06 10.45-10.54-18.66-.06-10.6 10.54z" class="Q"/><path d="M1030.74 226.3l18.8.07 10.45-10.54-18.66-.07-10.6 10.54z" class="P"/><path d="M1049.54 226.32l18.8.07 10.45-10.54-18.66-.07-10.6 10.54z" class="Q"/><path d="M1068.37 226.28l18.8.07 10.45-10.54-18.66-.07-10.6 10.54z" class="P"/><path d="M1087.17 226.3l18.8.06 10.45-10.54-18.66-.06-10.6 10.54z" class="Q"/><path d="M1105.95 226.3l18.8.06 10.45-10.54-18.66-.06-10.6 10.54z" class="P"/><path d="M1124.74 226.33l18.82.07 10.45-10.54-18.66-.07-10.6 10.54z" class="Q"/><path d="M1143.58 226.3l18.8.07 10.45-10.54-18.66-.07-10.6 10.54z" class="P"/><path d="M1162.38 226.32l18.8.06 10.45-10.54-18.66-.06-10.6 10.54z" class="Q"/><path d="M1181.08 226.42l18.8.07 10.46-10.54-18.66-.07-10.6 10.54z" class="P"/><path d="M1199.87 226.45l18.8.06 10.45-10.54-18.66-.06-10.6 10.54z" class="Q"/><path d="M1218.7 226.4l18.8.06 10.45-10.54-18.66-.06-10.6 10.54z" class="P"/><path d="M1237.5 226.43l18.8.07 10.46-10.54-18.66-.07-10.6 10.54z" class="Q"/><path d="M1256.2 226.54l18.8.06 10.45-10.54-18.66-.06-10.6 10.54z" class="P"/><path d="M1275 226.56l18.8.07 10.45-10.54-18.66-.07-10.6 10.54z" class="Q"/><path d="M1293.83 226.52l18.8.07 10.46-10.54-18.67-.07-10.6 10.54z" class="P"/><path d="M1312.63 226.55l18.8.07 10.45-10.55-18.66-.06-10.6 10.54z" class="Q"/><path d="M1331.33 226.5l18.8.06 10.45-10.54-18.66-.06-10.6 10.54z" class="P"/><path d="M1350.13 226.53l18.8.07 10.46-10.54-18.66-.07-10.6 10.54z" class="Q"/><path d="M1368.96 226.5l18.8.07 10.45-10.54-18.66-.07-10.6 10.54z" class="P"/><path d="M1387.76 226.52l18.8.07 10.45-10.55-18.66-.06-10.6 10.54z" class="Q"/><path d="M1406.45 226.48l18.82.06 10.45-10.54-18.66-.06-10.6 10.54z" class="P"/><path d="M1425.25 226.5l18.8.07 10.45-10.54-18.66-.06-10.6 10.53z" class="Q"/><path d="M1444.1 226.46l18.8.07 10.45-10.54-18.66-.07-10.6 10.54z" class="P"/><path d="M1462.88 226.5l18.8.07 10.46-10.55-18.66-.06-10.6 10.54z" class="Q"/><path d="M1481.58 226.6l18.8.07 10.45-10.54-18.66-.06-10.6 10.53z" class="P"/><path d="M1500.38 226.62l18.8.07 10.45-10.54-18.66-.07-10.6 10.54z" class="Q"/><path d="M1519.2 226.58l18.82.07 10.45-10.55-18.66-.06-10.6 10.54z" class="P"/><path d="M1538 226.6l18.8.06 10.45-10.54-18.66-.06-10.6 10.54z" class="Q"/><path d="M1556.7 226.7l18.8.07 10.45-10.54-18.66-.07-10.6 10.54z" class="P"/><path d="M1575.5 226.74l18.8.06 10.45-10.54-18.66-.06-10.6 10.54z" class="Q"/><path d="M1594.34 226.7l18.8.06 10.45-10.54-18.66-.06-10.6 10.54z" class="P"/><path d="M1613.14 226.72l18.8.07 10.45-10.54-18.66-.07-10.6 10.54z" class="Q"/><path d="M1631.84 226.68l18.8.07 10.45-10.54-18.66-.07-10.6 10.54z" class="P"/><path d="M1650.63 226.7l18.8.06 10.45-10.54-18.66-.06-10.6 10.54z" class="Q"/><path d="M1669.47 226.67l18.8.06 10.45-10.54-18.66-.06-10.6 10.54z" class="P"/><path d="M1688.26 226.7l18.8.07 10.46-10.54-18.66-.07-10.6 10.54z" class="Q"/></g></g><g clip-path="url(#E)"><g class="S"><path d="M2017.3 30.18l-1550.5.6-9-7.8 1566.68-.35-7.17 7.57z"/><path d="M2024 23.28l-389.8.55-391.3.2-391.9-.35c-130.57-.26-260.82 0-391.3.1h-1.93v-.57l-.17-17.42h2.1l977.5-.56 195.5.26q195.5.3 391 .62h.85v.25z"/></g><path d="M2023.42 23.12l-.57-16.7-390.15.87-195.5.26h-195.5l-391-.12-392.17-1 1.18 16.2 1171.54-.06z" class="R"/><g clip-path="url(#F)"><path d="M337.28 15.95l18.8.06 10.45-10.54-18.66-.06-10.6 10.54z" class="P"/><path d="M356.08 15.97l18.8.07L385.34 5.5l-18.66-.07-10.6 10.54z" class="Q"/><path d="M374.9 15.93l18.8.07 11.02-10.54-19.23-.07-10.6 10.54z" class="P"/><path d="M393.7 15.96l19.37.06 10.46-10.54-18.66-.06-11.17 10.54z" class="Q"/><path d="M412.97 16.06l18.8.07L442.23 5.6l-18.66-.07-10.6 10.54z" class="P"/><path d="M431.77 16.1l18.8.06L461.03 5.6l-18.66-.06-10.6 10.54z" class="Q"/><path d="M450.6 16.05l18.8.06 10.45-10.54-18.66-.06-10.6 10.54z" class="P"/><path d="M469.4 16.07l18.8.07L498.66 5.6 480 5.53l-10.6 10.54z" class="Q"/><path d="M488.1 16.18l18.8.06L517.36 5.7l-18.66-.06-10.6 10.54z" class="P"/><path d="M506.9 16.2l18.82.07 10.45-10.54-18.66-.07-10.6 10.54z" class="Q"/><path d="M525.73 16.16l18.8.07L555 5.7l-18.66-.07-10.6 10.54z" class="P"/><path d="M544.53 16.2l18.8.07L573.8 5.7l-18.66-.06-10.6 10.54z" class="Q"/><path d="M563.23 16.15l18.8.06L592.5 5.67l-18.66-.06-10.6 10.54z" class="P"/><path d="M582.02 16.18l18.8.06L611.28 5.7l-18.66-.07-10.6 10.55z" class="Q"/><path d="M600.86 16.14l18.8.06 10.45-10.54-18.66-.07-10.6 10.55z" class="P"/><path d="M619.65 16.16l18.82.07 10.45-10.55-18.66-.06-10.6 10.54z" class="Q"/><path d="M638.35 16.12l18.8.06L667.6 5.64l-18.66-.06-10.6 10.54z" class="P"/><path d="M657.15 16.15l18.8.06L686.4 5.67l-18.66-.06-10.6 10.54z" class="Q"/><path d="M676 16.1l18.8.06 10.46-10.54-18.66-.07L676 16.1z" class="P"/><path d="M694.78 16.13l18.8.07 10.45-10.54-18.66-.07-10.6 10.54z" class="Q"/><path d="M713.48 16.23l18.8.07 10.45-10.54-18.66-.06-10.6 10.53z" class="P"/><path d="M732.27 16.26l18.82.07L761.54 5.8l-18.66-.07-10.6 10.54z" class="Q"/><path d="M751.1 16.22l18.8.07 10.45-10.54-18.66-.07-10.6 10.54z" class="P"/><path d="M769.9 16.25l18.8.06 10.45-10.54-18.66-.06-10.6 10.54z" class="Q"/><path d="M788.6 16.35l18.8.07 10.45-10.54-18.66-.07-10.6 10.54z" class="P"/><path d="M807.4 16.38l18.8.06L836.66 5.9 818 5.84l-10.6 10.54z" class="Q"/><path d="M826.24 16.34l18.8.06L855.5 5.86l-18.66-.06-10.6 10.54z" class="P"/><path d="M845.03 16.36l18.82.07L874.3 5.9l-18.66-.07-10.6 10.54z" class="Q"/><path d="M863.73 16.32l18.8.07L893 5.85l-18.67-.07-10.6 10.54z" class="P"/><path d="M882.53 16.35l18.8.06L911.8 5.87l-18.66-.06-10.6 10.54z" class="Q"/><path d="M901.37 16.3l18.8.06 10.45-10.54-18.66-.06-10.6 10.54z" class="P"/><path d="M920.16 16.33l18.8.07 10.45-10.54-18.66-.07-10.6 10.54z" class="Q"/><path d="M939.04 16.58l18.8.07L968.3 6.1l-18.66-.07-10.6 10.54z" class="P"/><path d="M957.84 16.6l18.8.07L987.1 6.13l-18.66-.06-10.6 10.54z" class="Q"/><path d="M976.67 16.57l18.8.07 10.45-10.55-18.66-.06-10.6 10.54z" class="P"/><path d="M995.47 16.6l18.8.06 10.45-10.54-18.66-.07-10.6 10.55z" class="Q"/><path d="M1014.16 16.7l18.8.07 10.46-10.55-18.66-.06-10.6 10.54z" class="P"/><path d="M1032.96 16.73l18.8.06 10.45-10.54-18.66-.06-10.6 10.54z" class="Q"/><path d="M1051.8 16.7l18.8.06 10.45-10.54-18.66-.07-10.6 10.55z" class="P"/><path d="M1070.6 16.7l18.8.07 10.46-10.54-18.67-.07-10.6 10.54z" class="Q"/><path d="M1089.3 16.82l18.8.06 10.45-10.54-18.66-.06-10.6 10.54z" class="P"/><path d="M1108.1 16.84l18.8.07 10.45-10.54-18.66-.07-10.6 10.54z" class="Q"/><path d="M1126.92 16.8l18.8.07 10.46-10.54-18.66-.07-10.6 10.54z" class="P"/><path d="M1145.72 16.83l18.8.06 10.45-10.54-18.66-.06-10.6 10.54z" class="Q"/><path d="M1164.42 16.8l18.8.06 10.45-10.54-18.66-.06-10.6 10.54z" class="P"/><path d="M1183.2 16.8l18.82.07 10.45-10.54-18.66-.07-10.6 10.54z" class="Q"/><path d="M1202.05 16.77l18.8.07L1231.3 6.3l-18.66-.07-10.6 10.54z" class="P"/><path d="M1220.85 16.8l18.8.06 10.45-10.54-18.66-.06-10.6 10.54z" class="Q"/><path d="M1239.55 16.76l18.8.06 10.45-10.54-18.66-.06-10.6 10.54z" class="P"/><path d="M1258.34 16.78l18.8.07L1287.6 6.3l-18.66-.07-10.6 10.54z" class="Q"/><path d="M1277.18 16.74l18.8.07 10.45-10.54-18.66-.07-10.6 10.54z" class="P"/><path d="M1295.97 16.77l18.8.06 10.46-10.54-18.66-.06-10.6 10.54z" class="Q"/><path d="M1314.67 16.87l18.8.07 10.45-10.54-18.66-.07-10.6 10.54z" class="P"/><path d="M1333.47 16.9l18.8.06 10.45-10.54-18.66-.06-10.6 10.54z" class="Q"/><path d="M1352.3 16.86l18.8.06 10.45-10.54-18.66-.06-10.6 10.54z" class="P"/><path d="M1371.1 16.9l18.8.06 10.45-10.54-18.66-.07-10.6 10.55z" class="Q"/><path d="M1389.8 17l18.8.06 10.45-10.54-18.66-.06L1389.8 17z" class="P"/><path d="M1408.6 17.02l18.8.06 10.46-10.54-18.66-.07-10.6 10.55z" class="Q"/><path d="M1427.43 16.98l18.8.06L1456.7 6.5l-18.66-.07-10.6 10.55z" class="P"/><path d="M1446.23 17l18.8.07 10.45-10.54-18.66-.07-10.6 10.54z" class="Q"/><path d="M1464.93 16.96l18.8.06 10.45-10.54-18.66-.06-10.6 10.54z" class="P"/><path d="M1483.72 17l18.8.06 10.45-10.54-18.66-.06-10.6 10.54z" class="Q"/><path d="M1502.56 16.95l18.8.06 10.45-10.54-18.66-.06-10.6 10.54z" class="P"/><path d="M1521.35 16.97l18.8.07 10.46-10.54-18.66-.07-10.6 10.54z" class="Q"/><path d="M1540.13 16.97l18.8.07L1569.4 6.5l-18.66-.07-10.6 10.54z" class="P"/><path d="M1558.93 17l18.8.06 10.45-10.54-18.66-.06-10.6 10.54z" class="Q"/><path d="M1577.77 16.96l18.8.06 10.45-10.54-18.66-.06-10.6 10.54z" class="P"/><path d="M1596.56 16.98l18.8.07 10.46-10.54-18.67-.07-10.6 10.54z" class="Q"/><path d="M1615.26 17.1l18.8.06 10.45-10.54-18.66-.06-10.6 10.54z" class="P"/><path d="M1634.06 17.1l18.8.07 10.45-10.54-18.66-.07-10.6 10.54z" class="Q"/><path d="M1652.9 17.07l18.8.07 10.46-10.54-18.66-.07-10.6 10.54z" class="P"/><path d="M1671.7 17.1l18.8.06 10.45-10.54-18.66-.06-10.6 10.54z" class="Q"/><path d="M1690.4 17.2l18.8.07 10.45-10.54-18.66-.07-10.6 10.54z" class="P"/><path d="M1709.18 17.23l18.8.06 10.46-10.54-18.66-.06-10.6 10.54z" class="Q"/><path d="M1728.02 17.2l18.8.06 10.45-10.54-18.66-.06-10.6 10.54z" class="P"/><path d="M1746.82 17.2l18.8.07 10.45-10.54-18.66-.07-10.6 10.54z" class="Q"/><path d="M1765.52 17.17l18.8.07 10.45-10.54-18.66-.07-10.6 10.54z" class="P"/><path d="M1784.3 17.2l18.8.06 10.45-10.54-18.66-.06-10.6 10.54z" class="Q"/><path d="M1803.15 17.16l18.8.06 10.45-10.54-18.66-.06-10.6 10.54z" class="P"/><path d="M1821.94 17.18l18.8.07L1851.2 6.7l-18.65-.07-10.6 10.54z" class="Q"/><path d="M1840.64 17.14l18.8.07 10.45-10.54-18.66-.07-10.6 10.54z" class="P"/></g></g><g clip-path="url(#G)"><g class="S"><path d="M1791.98 411.84l-1627.63.58-9.1-7.8 1644-.34-7.25 7.57z"/><path d="M1781.4 404.93l-389.8.56-391.3.2-391.85-.36c-130.56-.25-311.8 0-442.3.1h-1.93v-.58l-.16-17.4h2.1l833-.56 195.5.05 195.5.25q195.5.3 391 .63h.85v.25z"/></g><path d="M1791.23 404.77l-.6-16.7-405.8.88-203.34.25-203.33.05-406.67-.12-407.9-1.06 1.23 16.22 1218.54-.1z" class="R"/><g clip-path="url(#H)"><path d="M95.28 397.6l18.8.07 10.45-10.54-18.66-.07-10.6 10.54z" class="P"/><path d="M114.08 397.63l18.8.06 10.45-10.54-18.66-.06-10.6 10.54z" class="Q"/><path d="M132.9 397.6l18.8.06 10.46-10.54-18.66-.06-10.6 10.54z" class="P"/><path d="M151.7 397.6l18.8.07 10.45-10.54-18.66-.07-10.6 10.54z" class="Q"/><path d="M170.4 397.72l18.8.06 10.45-10.54-18.66-.06-10.6 10.54z" class="P"/><path d="M189.2 397.75l18.8.06 10.45-10.54-18.66-.07-10.6 10.55z" class="Q"/><path d="M208.04 397.7l18.8.07 10.45-10.54-18.66-.07-10.6 10.54z" class="P"/><path d="M226.84 397.73l18.8.07 10.45-10.55-18.66-.06-10.6 10.54z" class="Q"/><path d="M245.54 397.83l18.8.07 10.45-10.54-18.66-.07-10.6 10.54z" class="P"/><path d="M264.33 397.86l18.8.07 10.45-10.55-18.66-.06-10.6 10.54z" class="Q"/><path d="M283.17 397.82l18.8.06 10.45-10.53-18.66-.07-10.6 10.54z" class="P"/><path d="M301.96 397.85l18.8.06 10.46-10.54-18.66-.06-10.6 10.54z" class="Q"/><path d="M320.66 397.8l18.8.06 10.45-10.54-18.66-.07-10.6 10.55z" class="P"/><path d="M339.46 397.83l18.8.07 10.45-10.54-18.66-.07-10.6 10.54z" class="Q"/><path d="M358.3 397.8l18.8.07 10.45-10.55-18.66-.06-10.6 10.54z" class="P"/><path d="M377.1 397.82l18.8.06 10.45-10.54-18.66-.06-10.6 10.54z" class="Q"/><path d="M395.8 397.77l18.8.07 10.45-10.54-18.66-.06-10.6 10.53z" class="P"/><path d="M414.6 397.8l18.8.07 10.45-10.54-18.66-.07-10.6 10.54z" class="Q"/><path d="M433.42 397.76l18.8.07 10.45-10.54-18.66-.07-10.6 10.54z" class="P"/><path d="M452.22 397.8l18.8.06 10.45-10.54-18.66-.06-10.6 10.54z" class="Q"/><path d="M470.92 397.9l18.8.07 10.45-10.54-18.66-.07-10.6 10.54z" class="P"/><path d="M489.7 397.92l18.8.06 10.45-10.54-18.66-.06-10.6 10.54z" class="Q"/><path d="M508.55 397.88l18.8.06 10.45-10.54-18.66-.06-10.6 10.54z" class="P"/><path d="M527.35 397.9l18.8.07 10.46-10.54-18.66-.07-10.6 10.54z" class="Q"/><path d="M546.04 398l18.8.06 10.45-10.54-18.66-.06-10.6 10.54z" class="P"/><path d="M564.84 398.03l18.8.07 10.45-10.54-18.66-.07-10.6 10.54z" class="Q"/><path d="M583.67 398l18.82.07 10.45-10.54-18.66-.07-10.6 10.54z" class="P"/><path d="M602.47 398.02l18.8.06 10.45-10.54-18.66-.06-10.6 10.54z" class="Q"/><path d="M621.17 397.98l18.8.06 10.45-10.54-18.66-.06-10.6 10.54z" class="P"/><path d="M639.97 398l18.8.07 10.45-10.54-18.66-.07-10.6 10.54z" class="Q"/><path d="M658.8 397.96l18.8.07 10.45-10.54-18.66-.07-10.6 10.54z" class="P"/><path d="M677.6 398l18.8.07 10.45-10.55-18.66-.06L677.6 398z" class="Q"/><path d="M696.48 398.24l18.8.07 10.45-10.55-18.66-.06-10.6 10.54z" class="P"/><path d="M715.27 398.27l18.8.06 10.45-10.54-18.66-.06-10.6 10.54z" class="Q"/><path d="M734.1 398.23l18.8.06 10.45-10.54-18.66-.06-10.6 10.54z" class="P"/><path d="M752.9 398.25l18.8.07 10.46-10.54-18.66-.07-10.6 10.54z" class="Q"/><path d="M771.6 398.36l18.8.06 10.45-10.54-18.66-.06-10.6 10.54z" class="P"/><path d="M790.4 398.38l18.8.07 10.45-10.54-18.66-.07-10.6 10.54z" class="Q"/><path d="M809.23 398.34l18.8.07 10.46-10.54-18.66-.07-10.6 10.54z" class="P"/><path d="M828.03 398.37l18.8.06 10.45-10.54-18.66-.06-10.6 10.54z" class="Q"/><path d="M846.73 398.47l18.8.07L876 388l-18.66-.07-10.6 10.54z" class="P"/><path d="M865.52 398.5l18.82.06 10.45-10.54-18.66-.06-10.6 10.54z" class="Q"/><path d="M884.36 398.46l18.8.06 10.45-10.54-18.66-.06-10.6 10.54z" class="P"/><path d="M903.16 398.48l18.8.07L932.42 388l-18.66-.07-10.6 10.54z" class="Q"/><path d="M921.86 398.44l18.8.07 10.45-10.54-18.66-.07-10.6 10.54z" class="P"/><path d="M940.65 398.47l18.8.06L969.9 388l-18.66-.06-10.6 10.54z" class="Q"/><path d="M959.5 398.43l18.8.06 10.45-10.54-18.66-.06-10.6 10.54z" class="P"/><path d="M978.28 398.45l18.8.07 10.46-10.54-18.66-.07-10.6 10.54z" class="Q"/><path d="M996.98 398.4l18.8.07 10.45-10.54-18.66-.07-10.6 10.54z" class="P"/><path d="M1015.78 398.44l18.8.06 10.45-10.54-18.66-.06-10.6 10.54z" class="Q"/><path d="M1034.62 398.4l18.8.06 10.46-10.54-18.66-.06-10.6 10.54z" class="P"/><path d="M1053.4 398.42l18.8.07 10.45-10.54-18.66-.07-10.6 10.54z" class="Q"/><path d="M1072.1 398.53l18.8.06 10.45-10.54-18.66-.06-10.6 10.54z" class="P"/><path d="M1090.9 398.56l18.8.06 10.46-10.54-18.66-.07-10.6 10.55z" class="Q"/><path d="M1109.74 398.5l18.8.07 10.45-10.54-18.66-.07-10.6 10.54z" class="P"/><path d="M1128.54 398.54l18.8.07 10.45-10.55-18.66-.06-10.6 10.54z" class="Q"/><path d="M1147.24 398.64l18.8.07 10.45-10.54-18.66-.06-10.6 10.53z" class="P"/><path d="M1166.03 398.67l18.8.07 10.45-10.54-18.66-.07-10.6 10.54z" class="Q"/><path d="M1184.87 398.63l18.8.07 10.45-10.55-18.66-.06-10.6 10.54z" class="P"/><path d="M1203.66 398.66l18.8.06 10.46-10.54-18.66-.06-10.6 10.54z" class="Q"/><path d="M1222.36 398.62l18.8.06 10.45-10.54-18.66-.07-10.6 10.55z" class="P"/><path d="M1241.16 398.64l18.8.07 10.45-10.54-18.66-.07-10.6 10.54z" class="Q"/><path d="M1260 398.6l18.82.07 10.45-10.54-18.66-.07-10.6 10.54z" class="P"/><path d="M1278.8 398.63l18.8.06 10.45-10.54-18.66-.06-10.6 10.54z" class="Q"/><path d="M1297.57 398.63l18.8.06 10.45-10.54-18.66-.06-10.6 10.54z" class="P"/><path d="M1316.37 398.65l18.8.07 10.45-10.54-18.66-.07-10.6 10.54z" class="Q"/><path d="M1335.2 398.6l18.82.07 10.45-10.54-18.66-.07-10.6 10.54z" class="P"/><path d="M1354 398.64l18.8.06 10.45-10.54-18.66-.06-10.6 10.54z" class="Q"/><path d="M1372.7 398.74l18.8.07 10.45-10.54-18.66-.07-10.6 10.54z" class="P"/><path d="M1391.5 398.77l18.82.06 10.45-10.54-18.66-.06-10.6 10.54z" class="Q"/><path d="M1410.33 398.73l18.8.06 10.45-10.54-18.66-.06-10.6 10.54z" class="P"/><path d="M1429.13 398.75l18.8.07 10.45-10.54-18.66-.07-10.6 10.54z" class="Q"/><path d="M1447.83 398.86l18.8.06 10.46-10.54-18.66-.06-10.6 10.54z" class="P"/><path d="M1466.62 398.88l18.8.07 10.45-10.54-18.66-.07-10.6 10.54z" class="Q"/><path d="M1485.46 398.84l18.8.07 10.45-10.54-18.66-.07-10.6 10.54z" class="P"/><path d="M1504.25 398.87l18.8.07 10.46-10.55-18.66-.06-10.6 10.54z" class="Q"/><path d="M1522.95 398.83l18.8.06 10.45-10.54-18.66-.06-10.6 10.54z" class="P"/><path d="M1541.75 398.86l18.8.06 10.45-10.54-18.66-.07-10.6 10.55z" class="Q"/><path d="M1560.58 398.8l18.8.07 10.46-10.54-18.66-.07-10.6 10.54z" class="P"/><path d="M1579.38 398.84l18.8.07 10.45-10.54-18.66-.07-10.6 10.54z" class="Q"/><path d="M1598.08 398.8l18.8.07 10.45-10.55-18.66-.06-10.6 10.54z" class="P"/><path d="M1616.88 398.82l18.8.07 10.46-10.54-18.66-.06-10.6 10.53z" class="Q"/><path d="M1635.7 398.8l18.8.06 10.45-10.54-18.66-.07-10.6 10.55z" class="P"/><path d="M1654.5 398.8l18.8.07 10.45-10.55-18.66-.06-10.6 10.54z" class="Q"/><path d="M1673.2 398.92l18.82.06 10.45-10.54-18.66-.06-10.6 10.54z" class="P"/><path d="M1692 398.94l18.8.07 10.45-10.54-18.66-.07-10.6 10.54z" class="Q"/><path d="M1710.84 398.9l18.8.07 10.45-10.54-18.66-.07-10.6 10.54z" class="P"/><path d="M1729.63 398.93l18.8.06 10.46-10.54-18.66-.06-10.6 10.54z" class="Q"/><path d="M1748.33 399.03l18.8.07 10.45-10.54-18.66-.07-10.6 10.54z" class="P"/><path d="M1767.13 399.06l18.8.06 10.45-10.54-18.66-.06-10.6 10.54z" class="Q"/><path d="M1785.96 399.02l18.82.06 10.45-10.54-18.66-.06-10.6 10.54z" class="P"/><path d="M1804.76 399.04l18.8.07 10.45-10.54-18.66-.07-10.6 10.54z" class="Q"/><path d="M1823.46 399l18.8.07 10.45-10.54-18.66-.07-10.6 10.54z" class="P"/><path d="M1842.26 399.03l18.8.06 10.45-10.54-18.66-.06-10.6 10.54z" class="Q"/></g></g><g class="S"><path d="M1851.98 766.6H.52L0 758.18l1851.82-.35.16 8.77z"/><path d="M1265 740.6l-106.7-.12H927.44l-461.75.1-463.85-.7L1.7 759H4q231.14-.1 462.1-.1l462.74.35q206.48.27 411.64-.14H1852v-18.5z"/></g><path d="M1852.2 758.34l-.63-16.7-990.44 1.13-429.07-.12-430.37-1 1.3 16.2 1285.62-.06z" class="R"/><g clip-path="url(#I)"><path d="M45.23 751.17l18.8.06L74.5 740.7l-18.66-.06-10.6 10.54z" class="P"/><path d="M64.03 751.2l18.8.06 10.46-10.54-18.66-.07-10.6 10.55z" class="Q"/><path d="M82.86 751.15l18.8.07 10.45-10.54-18.66-.07-10.6 10.54z" class="P"/><g class="Q"><path d="M101.66 751.18l18.8.07 10.45-10.54-18.66-.07-10.6 10.54zm-113.06.02l18.8.06 10.45-10.54-18.66-.07-10.6 10.55z"/></g><path d="M7.45 751.15l18.8.07 10.45-10.54-18.66-.07-10.6 10.54z" class="P"/><path d="M26.24 751.18l18.8.07L55.5 740.7l-18.66-.07-10.6 10.54z" class="Q"/><path d="M120.36 751.28l18.8.07 10.46-10.54-18.66-.07-10.6 10.54z" class="P"/><path d="M139.15 751.3l18.8.07 10.45-10.54-18.66-.07-10.6 10.54z" class="Q"/><path d="M158 751.27l18.8.07 10.45-10.55-18.66-.06-10.6 10.54z" class="P"/><path d="M176.78 751.3l18.8.06 10.45-10.54-18.66-.06-10.6 10.54z" class="Q"/><path d="M195.48 751.4l18.8.07 10.45-10.55-18.66-.06-10.6 10.54z" class="P"/><path d="M214.28 751.43l18.8.06 10.45-10.54-18.66-.06-10.6 10.54z" class="Q"/><path d="M233.1 751.4l18.8.06 10.46-10.54-18.66-.06-10.6 10.54z" class="P"/><path d="M251.9 751.4l18.8.07 10.45-10.54-18.66-.07-10.6 10.54z" class="Q"/><path d="M270.6 751.37l18.8.07 10.45-10.54-18.66-.07-10.6 10.54z" class="P"/><path d="M289.4 751.4l18.8.06 10.46-10.54-18.66-.06-10.6 10.54z" class="Q"/><path d="M308.24 751.36l18.8.06 10.45-10.54-18.66-.06-10.6 10.54z" class="P"/><path d="M327.04 751.38l18.8.07 10.45-10.54-18.66-.07-10.6 10.54z" class="Q"/><path d="M345.74 751.34l18.8.07L375 740.87l-18.66-.07-10.6 10.54z" class="P"/><path d="M364.53 751.37l18.8.06 10.45-10.54-18.66-.06-10.6 10.54z" class="Q"/><path d="M383.37 751.33l18.8.06 10.45-10.54-18.66-.06-10.6 10.54z" class="P"/><path d="M402.16 751.35l18.8.07 10.46-10.54-18.66-.07-10.6 10.54z" class="Q"/><path d="M420.86 751.46l18.8.06 10.45-10.54-18.66-.06-10.6 10.54z" class="P"/><path d="M439.66 751.48l18.8.07L468.92 741l-18.66-.07-10.6 10.54z" class="Q"/><path d="M458.5 751.44l18.82.07 10.45-10.54-18.66-.07-10.6 10.54z" class="P"/><path d="M477.3 751.47l18.8.06L506.55 741l-18.66-.06-10.6 10.54z" class="Q"/><path d="M496 751.57l18.8.07 10.45-10.54-18.66-.07-10.6 10.54z" class="P"/><path d="M514.78 751.6l18.82.06 10.45-10.54-18.66-.06-10.6 10.54z" class="Q"/><path d="M533.62 751.56l18.8.07 10.45-10.55-18.66-.06-10.6 10.54z" class="P"/><path d="M552.42 751.6l18.8.06 10.45-10.54-18.66-.07-10.6 10.55z" class="Q"/><path d="M571.12 751.54l18.8.07 10.45-10.54-18.66-.07-10.6 10.54z" class="P"/><path d="M589.9 751.57l18.8.07 10.45-10.54-18.66-.07-10.6 10.54z" class="Q"/><path d="M608.75 751.53l18.8.07L638 741.05l-18.66-.06-10.6 10.54z" class="P"/><path d="M627.54 751.56l18.8.06 10.46-10.54-18.66-.07-10.6 10.55z" class="Q"/><path d="M646.42 751.8l18.8.06 10.45-10.54-18.66-.06-10.6 10.54z" class="P"/><path d="M665.22 751.83l18.8.07 10.45-10.54-18.66-.07-10.6 10.54z" class="Q"/><path d="M684.05 751.8l18.8.07 10.46-10.54-18.67-.07-10.6 10.54z" class="P"/><path d="M702.85 751.82l18.8.06 10.45-10.54-18.66-.06-10.6 10.54z" class="Q"/><path d="M721.55 751.92l18.8.07 10.45-10.54-18.66-.07-10.6 10.54z" class="P"/><path d="M740.34 751.95l18.8.06 10.46-10.54-18.66-.06-10.6 10.54z" class="Q"/><path d="M759.18 751.9l18.8.06 10.45-10.54-18.66-.06-10.6 10.54z" class="P"/><path d="M777.98 751.93l18.8.07 10.45-10.54-18.66-.07-10.6 10.54z" class="Q"/><path d="M796.67 752.04l18.82.06 10.45-10.54-18.66-.06-10.6 10.54z" class="P"/><path d="M815.47 752.06l18.8.07 10.45-10.54-18.66-.07-10.6 10.54z" class="Q"/><path d="M834.3 752.02l18.8.07 10.45-10.54-18.66-.07-10.6 10.54z" class="P"/><path d="M853.1 752.05l18.8.07 10.46-10.55-18.67-.06-10.6 10.54z" class="Q"/><path d="M871.8 752l18.8.06 10.45-10.54-18.66-.06L871.8 752z" class="P"/><path d="M890.6 752.03l18.8.07 10.45-10.54-18.66-.07-10.6 10.54z" class="Q"/><path d="M909.43 752l18.8.07 10.46-10.54-18.67-.07-10.6 10.54z" class="P"/><path d="M928.23 752.02l18.8.07 10.45-10.55-18.66-.06-10.6 10.54z" class="Q"/><path d="M946.93 751.98l18.8.06 10.45-10.54-18.66-.06-10.6 10.54z" class="P"/><path d="M965.72 752l18.8.07L995 741.53l-18.66-.06-10.6 10.53z" class="Q"/><path d="M984.56 751.97l18.8.06 10.45-10.54-18.66-.07-10.6 10.55z" class="P"/><path d="M1003.36 752l18.8.07 10.45-10.55-18.66-.06-10.6 10.54z" class="Q"/><path d="M1022.05 752.1l18.82.06 10.45-10.54-18.66-.07-10.6 10.55z" class="P"/><path d="M1040.85 752.12l18.8.07 10.45-10.54-18.66-.07-10.6 10.54z" class="Q"/><path d="M1059.7 752.08l18.8.07 10.45-10.54-18.66-.07-10.6 10.54z" class="P"/><path d="M1078.48 752.1l18.8.06 10.45-10.54-18.65-.06-10.6 10.54z" class="Q"/><path d="M1097.18 752.2l18.8.07 10.45-10.54-18.66-.07-10.6 10.54z" class="P"/><path d="M1115.98 752.24l18.8.06 10.45-10.54-18.66-.06-10.6 10.54z" class="Q"/><use xlink:href="#U" class="P"/><path d="M1153.6 752.22l18.8.07 10.45-10.54-18.66-.07-10.6 10.54z" class="Q"/><path d="M1172.3 752.18l18.8.07 10.45-10.54-18.66-.07-10.6 10.54z" class="P"/><path d="M1191.1 752.2l18.8.06 10.46-10.54-18.66-.06-10.6 10.54z" class="Q"/><path d="M1209.94 752.17l18.8.06 10.45-10.54-18.66-.06-10.6 10.54z" class="P"/><path d="M1228.74 752.2l18.8.07 10.45-10.54-18.66-.07-10.6 10.54z" class="Q"/><path d="M1247.52 752.2l18.8.07 10.45-10.54-18.66-.07-10.6 10.54z" class="P"/><path d="M1266.3 752.22l18.8.06 10.46-10.54-18.67-.06-10.6 10.54z" class="Q"/><path d="M1285.15 752.18l18.8.06 10.45-10.54-18.66-.06-10.6 10.54z" class="P"/><path d="M1303.95 752.2l18.8.07 10.45-10.54-18.66-.07-10.6 10.54z" class="Q"/><path d="M1322.64 752.3l18.8.06 10.46-10.54-18.66-.06-10.6 10.54z" class="P"/><path d="M1341.44 752.34l18.8.06 10.45-10.54-18.66-.07-10.6 10.55z" class="Q"/><path d="M1360.28 752.3l18.8.07 10.45-10.54-18.66-.07-10.6 10.54z" class="P"/><path d="M1379.07 752.32l18.8.06 10.45-10.53-18.66-.07-10.6 10.54z" class="Q"/><path d="M1397.77 752.42l18.8.07 10.45-10.54-18.66-.07-10.6 10.54z" class="P"/><path d="M1416.57 752.45l18.8.07 10.45-10.54-18.66-.07-10.6 10.54z" class="Q"/><path d="M1435.4 752.4l18.8.07 10.45-10.55-18.65-.06-10.6 10.54z" class="P"/><path d="M1454.2 752.44l18.8.06 10.45-10.54-18.66-.06-10.6 10.54z" class="Q"/><path d="M1472.9 752.4l18.8.07 10.45-10.54-18.66-.07-10.6 10.54z" class="P"/><path d="M1491.7 752.42l18.8.07 10.46-10.54-18.66-.07-10.6 10.54z" class="Q"/><path d="M1510.53 752.38l18.8.07 10.45-10.55-18.66-.06-10.6 10.54z" class="P"/><path d="M1529.33 752.4l18.8.06 10.45-10.54-18.66-.06-10.6 10.54z" class="Q"/><path d="M1548.03 752.37l18.8.06 10.45-10.54-18.66-.06-10.6 10.54z" class="P"/><path d="M1566.82 752.4l18.8.07 10.45-10.54-18.66-.07-10.6 10.54z" class="Q"/><path d="M1585.66 752.35l18.8.07 10.45-10.54-18.66-.07-10.6 10.54z" class="P"/><path d="M1604.45 752.38l18.8.06 10.45-10.54-18.65-.06-10.6 10.54z" class="Q"/><path d="M1623.15 752.48l18.8.07L1652.4 742l-18.66-.07-10.6 10.54z" class="P"/><path d="M1641.95 752.5l18.8.06 10.45-10.54-18.66-.06-10.6 10.54z" class="Q"/><path d="M1660.78 752.47l18.8.06 10.46-10.54-18.67-.06-10.6 10.54z" class="P"/><path d="M1679.58 752.5l18.8.07 10.45-10.54-18.66-.07-10.6 10.54z" class="Q"/><path d="M1698.28 752.6l18.8.06 10.45-10.54-18.66-.06-10.6 10.54z" class="P"/><path d="M1717.07 752.62l18.8.07 10.46-10.54-18.66-.07-10.6 10.54z" class="Q"/><path d="M1735.9 752.58l18.8.07 10.45-10.54-18.66-.07-10.6 10.54z" class="P"/><path d="M1754.7 752.6l18.8.06 10.45-10.54-18.66-.06-10.6 10.54z" class="Q"/><path d="M1773.4 752.57l18.8.06 10.46-10.54-18.66-.06-10.6 10.54z" class="P"/><path d="M1792.2 752.6l18.8.07 10.45-10.54-18.66-.07-10.6 10.54z" class="Q"/><path d="M1811.04 752.55l18.8.07 10.45-10.54-18.66-.07-10.6 10.54z" class="P"/><path d="M1829.83 752.58l18.8.06 10.46-10.54-18.67-.06-10.6 10.54z" class="Q"/></g></g></svg>