<svg xmlns="http://www.w3.org/2000/svg" xmlns:xlink="http://www.w3.org/1999/xlink" width="63" height="60" viewBox="0 0 101 96"><style><![CDATA[.R{fill:#4e576b}.S{fill:#ed1c24}.T{fill:#ce181e}.U{fill:#99743b}]]></style><defs><linearGradient id="A" x1="88.46" y1="30.42" x2="90.16" y2="2.86" gradientUnits="userSpaceOnUse"><stop offset="0" stop-color="#b5b7b9" stop-opacity="0"/><stop offset="1" stop-color="#b5b7b9"/></linearGradient><linearGradient id="B" x1="38.16" y1="47.87" x2="38.16" y2="5.79" gradientUnits="userSpaceOnUse"><stop offset="0" stop-color="#fff" stop-opacity="0"/><stop offset="1" stop-color="#fff" stop-opacity=".5"/></linearGradient><linearGradient id="C" x1="86.57" y1="24.27" x2="86.99" y2=".52" xlink:href="#A"/><path id="D" d="M42.3 64c-.2.22-.55.5-.13.7a.76.76 0 0 0 .89-.26c.28-.57-.46-.66-.76-.4"/></defs><path d="M87.47 30.1L85.9 30l-.1 1.8 1.56.1z" class="R"/><path d="M87.38,31.93l-1.56-.1-.13,1.8,1.56.13Z" class="S"/><path d="M87.07 35.48l.18-1.72-1.56-.13q-.07.85-.18 1.7a4.24 4.24 0 0 1 1.56.14z" class="R"/><path d="M87.07 35.48a4.24 4.24 0 0 0-1.56-.14l-.27 1.83 1.54.27.3-1.96zm-.67 3.84a13.81 13.81 0 0 0-1.54-.32l-.44 1.56 1.5.47c.2-.54.35-1.12.5-1.7z" class="S"/><path d="M85.9 41.07l-1.5-.47c-.17.57-.4 1.1-.6 1.66l1.45.6.63-1.78z" class="R"/><path d="M84.56 44.4l.7-1.54-1.45-.6-.7 1.53a15.43 15.43 0 0 1 1.45.6z" class="S"/><path d="M84.56 44.4a15.43 15.43 0 0 0-1.45-.6l-.58 1.1 1.35.78c.26-.4.46-.85.68-1.27z" class="R"/><path d="M83.88 45.66l-1.35-.78-.94 1.5 1.3.88a17.63 17.63 0 0 0 1-1.59z" class="S"/><path d="M82.88 47.25l-1.3-.88-1 1.42 1.22 1 1.07-1.54z" class="R"/><path d="M81.77 48.76l-1.22-1-1.15 1.33 1.14 1.06c.46-.43.84-.9 1.23-1.4z" class="S"/><path d="M80.54 50.18l-1.14-1.06-1.25 1.23 1 1.15c.53-.4.95-.87 1.4-1.32z" class="R"/><path d="M79.2 51.5l-1-1.15c-.43.4-.9.78-1.34 1.15l1 1.22 1.34-1.22z" class="S"/><path d="M77.78 52.72l-1-1.22c-.46.37-.94.7-1.42 1l.87 1.3c.54-.32 1.06-.67 1.55-1.07z" class="R"/><path d="M76.26 53.83l-.87-1.3-1.5.92.77 1.36c.55-.3 1.07-.65 1.6-1z" class="S"/><path d="M74.66 54.82l-.77-1.36a15.97 15.97 0 0 1-2.09 1l.62 1.44a23.39 23.39 0 0 0 2.24-1.08z" class="R"/><path d="M71.8 54.5a23.47 23.47 0 0 1-2.3.85l.45 1.5 2.47-.9-.62-1.44z" class="S"/><path d="M85.24 37.17l-.4 1.87a13.81 13.81 0 0 1 1.54.28l.4-1.88z" class="R"/><path d="M87.53 28.58h-1.57v1.5l1.56.06z" class="S"/><path d="M87.53 28.58h-.83v1.5h.82z" class="T"/><path d="M87.47 30.1h-.82l-.1 1.82.82.05z"/><path d="M87.38 31.93l-.82-.05-.13 1.8.82.07z" class="T"/><path d="M87.07 35.48l.18-1.72-.82-.07-.17 1.65a2.33 2.33 0 0 1 .81.14z"/><path d="M87.07 35.48a2.33 2.33 0 0 0-.81-.14l-.3 2 .8.14.3-2zm-.67 3.84a4.83 4.83 0 0 0-.81-.17l-.46 1.68.78.24.5-1.75z" class="T"/><path d="M85.9 41.07l-.78-.24-.62 1.7.77.3.63-1.78z"/><path d="M84.56 44.4l.7-1.54-.77-.3-.7 1.52a8.15 8.15 0 0 1 .75.33z" class="T"/><path d="M84.56 44.4a8.15 8.15 0 0 0-.75-.33l-.64 1.2.7.4c.26-.4.46-.85.68-1.27z"/><path d="M81.77 48.76l-.64-.5-1.2 1.37.6.56c.46-.46.84-.93 1.23-1.42z" class="T"/><path d="M80.54 50.18l-.6-.56-1.3 1.28.55.6c.48-.4.9-.87 1.34-1.32z"/><path d="M79.2 51.5l-.55-.6c-.44.42-.9.8-1.38 1.18l.5.64 1.42-1.22zm-2.94 2.33l-.46-.68-1.55 1 .4.72 1.6-1.04z" class="T"/><path d="M74.66 54.82l-.4-.72a20.72 20.72 0 0 1-2.16 1.08l.33.76a23.39 23.39 0 0 0 2.24-1.12z"/><path d="M72.1 55.18c-.78.34-1.57.62-2.37.88l.23.8 2.47-.9z" class="T"/><path d="M77.78 52.72l-.5-.64-1.47 1.07.46.68 1.52-1.1zm5.1-5.47l-.68-.46-1.07 1.46.64.5 1.1-1.5z"/><path d="M83.88 45.66l-.7-.4-1 1.54.68.46a17.63 17.63 0 0 0 1.03-1.59z" class="T"/><path d="M86 37.3l-.4 1.85a4.83 4.83 0 0 1 .81.17l.4-1.88z"/><path d="M85.34 25.44l-1.56-.06-.1 1.8 1.56.1z" class="R"/><path d="M85.25 27.27l-1.56-.1-.13 1.82 1.56.14z" class="S"/><path d="M84.94 30.83l.18-1.72-1.56-.1q-.07.87-.18 1.7a4.24 4.24 0 0 1 1.56.12z" class="R"/><path d="M84.94 30.83a4.24 4.24 0 0 0-1.56-.15l-.27 1.83 1.54.27.3-1.95zm-.68 3.83a13.93 13.93 0 0 0-1.54-.27l-.44 1.56 1.5.47c.23-.58.35-1.17.5-1.76z" class="S"/><path d="M83.77 36.42l-1.5-.42-.6 1.65 1.45.6.63-1.82z" class="R"/><path d="M82.43 39.74c.27-.5.47-1 .7-1.55l-1.45-.6-.7 1.53 1.45.6z" class="S"/><path d="M82.43 39.74c-.5-.25-1-.42-1.45-.6l-.58 1.1 1.36.78.67-1.27z" class="R"/><path d="M81.76 41l-1.36-.78-.94 1.48 1.3.9c.37-.5.7-1.04 1-1.6z" class="S"/><path d="M80.75 42.6l-1.3-.9c-.3.5-.68.95-1 1.42l1.22 1c.32-.52.73-1 1.07-1.53z" class="R"/><path d="M79.64 44.1l-1.22-1-1.15 1.33 1.14 1.07c.43-.44.84-.92 1.23-1.4z" class="S"/><path d="M78.4 45.53l-1.14-1.07-1.25 1.24 1 1.15a9.73 9.73 0 0 0 1.39-1.32z" class="R"/><path d="M77.07 46.85L76 45.7c-.43.4-.9.77-1.34 1.14l1 1.23 1.4-1.22z" class="S"/><path d="M75.65 48.07l-1-1.23c-.46.37-.94.7-1.42 1l.87 1.3c.54-.32 1.06-.68 1.55-1.07z" class="R"/><path d="M74.13 49.18l-.87-1.3-1.5.92.77 1.36c.56-.3 1.07-.65 1.6-.98z" class="S"/><path d="M72.53 50.16l-.77-1.36a22.67 22.67 0 0 1-2.09 1.05l.62 1.43a23.39 23.39 0 0 0 2.24-1.12z" class="R"/><path d="M69.67 49.85c-.75.32-1.52.6-2.3.84l.46 1.5 2.46-.9-.62-1.43z" class="S"/><path d="M83.1 32.5l-.4 1.88a13.93 13.93 0 0 1 1.54.27l.4-1.88z" class="R"/><path d="M85.4 23.93l-1.57-.05v1.5l1.56.06z" class="S"/><path d="M85.4 23.93h-.83v1.5h.82z" class="T"/><path d="M85.34 25.44h-.82l-.1 1.8.82.05z"/><path d="M85.25,27.27l-.82-.05L84.3,29l.82.07Z" class="T"/><path d="M84.94 30.83l.18-1.72-.82-.1-.17 1.64a2.12 2.12 0 0 1 .81.19z"/><path d="M84.94 30.83a2.12 2.12 0 0 0-.81-.15l-.3 2 .8.14.3-2zm-.68 3.83a6.11 6.11 0 0 0-.81-.16L83 36.17l.78.25c.23-.58.35-1.17.5-1.76z" class="T"/><path d="M83.77 36.42l-.77-.25-.62 1.7.77.3.62-1.77z"/><path d="M82.43 39.74c.27-.5.47-1 .7-1.55l-.77-.3-.7 1.52.75.34z" class="T"/><path d="M82.43 39.74c-.25-.13-.5-.24-.75-.34l-.64 1.2.72.42.67-1.27z"/><path d="M79.64 44.1L79 43.6l-1.2 1.38.6.56 1.23-1.42z" class="T"/><path d="M78.4 45.53l-.6-.56-1.3 1.27.55.6c.48-.4.93-.85 1.34-1.32z"/><path d="M77.07 46.85l-.55-.6c-.44.42-.9.8-1.38 1.18l.5.65 1.42-1.22zm-2.94 2.33l-.46-.68-1.55.94.4.72c.56-.3 1.07-.65 1.6-.98z" class="T"/><path d="M72.53 50.16l-.4-.72A20.79 20.79 0 0 1 70 50.53l.33.75a23.39 23.39 0 0 0 2.2-1.12z"/><path d="M70 50.53l-2.37.87.24.8 2.46-.9z" class="T"/><path d="M75.65 48.07l-.5-.65-1.47 1.08.46.68 1.52-1.1zm5.1-5.47l-.68-.47c-.32.5-.7 1-1.07 1.46l.64.52 1.1-1.5z"/><path d="M81.76 41l-.76-.4a17.37 17.37 0 0 1-1 1.54l.68.47c.44-.5.76-1.05 1.08-1.6z" class="T"/><path d="M83.84 32.64q-.16.93-.4 1.86a6.11 6.11 0 0 1 .81.16l.4-1.88z"/><rect x="76.88" y=".8" width="24.38" height="30.53" rx="4.14" fill="#6d6e71"/><path d="M90.3 2.25C86.42 8.67 82.1 14.86 78 21.2V15c1.88-4.28 4-8.47 6.2-12.73zm6 0h-.42c-5.4 9.2-9.5 18.4-14.44 27.6h3.87l14.72-24.1a3.75 3.75 0 0 0-3.68-3.5zm-2 27.62h2a3.74 3.74 0 0 0 3.75-3.74v-7.07l-5.75 10.8z" fill="url(#A)"/><path d="M87.56 24.86A2.32 2.32 0 0 1 85.8 24a2.56 2.56 0 0 1-.56-1.95l.55-4.46a5.44 5.44 0 0 1-1.3-3.55 5.05 5.05 0 1 1 10.09 0 5.45 5.45 0 0 1-1.38 3.66l.72 4.3a2.59 2.59 0 0 1-.51 2 2.29 2.29 0 0 1-1.79.88z" fill="#a7a9ac"/><path d="M87.56 24a1.46 1.46 0 0 1-1.12-.53 1.66 1.66 0 0 1-.36-1.24l.6-4.9a4.52 4.52 0 0 1-1.35-3.24 4.2 4.2 0 1 1 8.39 0 4.52 4.52 0 0 1-1.44 3.33l.8 4.73a1.63 1.63 0 0 1-.32 1.28 1.45 1.45 0 0 1-1.14.56z" fill="#58595b"/><path d="M91.88 22.73H87.3l.8-6.24a3 3 0 0 1-1.64-2.68 3.06 3.06 0 1 1 4.31 2.77z"/><path d="M47 73.74a29 29 0 0 1-3.12 0c-.8 0-1.58.14-2.38.2a22.57 22.57 0 0 1-3.22.07 41.74 41.74 0 0 1-4.28-.16 11.53 11.53 0 0 0-1.66 0 1.61 1.61 0 0 1-1.85-1.62 9.3 9.3 0 0 1 0-1.18l.17-7.35-.13-5a4.58 4.58 0 0 1 0-.53.83.83 0 0 1 .91-.83h1.13c2.24-.1 7.55.06 10.5 0a28.56 28.56 0 0 0 3.34 0c1.15-.05 1.45.5 1.67 1.44a12.1 12.1 0 0 1 0 2.69C48.1 63.75 48 66 48 68.3a27.57 27.57 0 0 1 .14 3.86c0 1.07-.58 1.57-1.14 1.58z" class="U"/><path d="M47.36 58.1a1.89 1.89 0 0 0-.64-.14l-4.1.06c-2.4 0-5 0-6.42-.1s-2.88 0-4.33-.06a.75.75 0 0 0-.83.8l.13 8.17v2.63a13.44 13.44 0 0 0 0 3c.08.58.34.8.95.8h1.06l6.5.08a2.92 2.92 0 0 0 1.06-.06 9.25 9.25 0 0 1 2.61-.21 15.14 15.14 0 0 0 3.47 0c.28 0 .58 0 .8-.32a17.22 17.22 0 0 0 0-3.37 10.16 10.16 0 0 1-.14-1.75l.1-4.3a22.94 22.94 0 0 1 .09-2.87 4.39 4.39 0 0 0-.32-2.34z" fill="#ba8f47"/><path d="M37.78 65.43c-.4-.1-.9-.37-1.32-.28a1.94 1.94 0 0 0-.64.39c-.37.3-.76 1-.37 1.4.2.24.58.2.87.2s.37-.16.55-.46.43-.36.72-.55.46-.53.2-.7zm1.62 5.7c0 .35.17.45.5.58s.72.23.9 0a2 2 0 0 0 .23-.6 1.54 1.54 0 0 1 .16-.47c.1-.12.27-.12.35-.26a.55.55 0 0 0-.15-.65 1.08 1.08 0 0 0-1.23-.26c-.63.32-.8 1.33-.77 1.66zm-6.65-2.62a2.73 2.73 0 0 0-.34 1.77c0 .48 0 1.43.57 1.55.94.2.47-.9.44-1.32a2.53 2.53 0 0 1 .18-1.2c.14-.33.33-.54.1-.83s-.96-.2-.94.03zM44 68a1 1 0 0 0-.77.48c-.12.23-.35.63-.25.9s.58.42.93.42c.58 0 .7-.14 1-.56s.8-1.14 0-1.27c-.3-.04-.56.03-.9.03zm-11.2-7.2c0 .38-.18 1 .12 1.26a1.8 1.8 0 0 0 1.16.29 1 1 0 0 0 .3-.3c.22-.35-.1-.53-.06-.84.07-.64 1.54-.74 1.35-1.6-.1-.36-.63-.43-.94-.46-.65-.07-1.82.05-1.85.9a4 4 0 0 1-.08.74zm2.32.42c-.36.07 0 .55.32.54a.36.36 0 0 0 .35-.44c-.1-.34-.8-.4-.78 0m7.2 2.48c-.18.2-.54.5-.12.68a.76.76 0 0 0 .89-.25c.28-.57-.47-.67-.77-.4" fill="#edc180"/><g class="U"><path d="M37.88 65.58c-.4-.08-.88-.37-1.32-.28a1.89 1.89 0 0 0-.63.39c-.38.3-.77 1-.38 1.42.2.24.6.2.88.18s.37-.15.54-.46.43-.35.72-.54.46-.53.2-.7zm1.62 5.7c0 .34.18.44.5.57s.72.23.92 0a2.66 2.66 0 0 0 .22-.6 1.94 1.94 0 0 1 .16-.48c.1-.12.27-.12.36-.25a.56.56 0 0 0-.16-.65 1 1 0 0 0-1.22-.26c-.64.32-.8 1.4-.78 1.67zm-6.6-2.66a2.66 2.66 0 0 0-.35 1.77c0 .48 0 1.42.57 1.54.95.2.48-.9.45-1.3a2.36 2.36 0 0 1 .18-1.21c.14-.32.33-.54.1-.83s-.97-.2-.94.04zm11.2-.46a1 1 0 0 0-.76.47c-.13.23-.36.63-.26.9s.58.42.94.42c.58 0 .7-.14 1-.55s.8-1.14 0-1.27a7 7 0 0 0-.92.03zM32.9 61c0 .37-.18 1 .12 1.25a1.83 1.83 0 0 0 1.16.3 1.11 1.11 0 0 0 .31-.3c.2-.35-.1-.54-.07-.84.07-.65 1.55-.75 1.35-1.6-.08-.37-.62-.44-.93-.47-.66-.06-1.83.05-1.85.9a4.94 4.94 0 0 1-.09.75zm2.32.37c-.35.08 0 .56.32.55a.37.37 0 0 0 .36-.44c-.1-.35-.82-.4-.8 0"/><use xlink:href="#D"/></g><path d="M47 89.64h-3.12c-.8 0-1.58.14-2.38.2a22.57 22.57 0 0 1-3.22.07c-1.44 0-2.9.06-4.33-.12a10.25 10.25 0 0 0-1.66 0 1.61 1.61 0 0 1-1.85-1.63 9.11 9.11 0 0 1 0-1.17l.17-7.36-.13-5a4.58 4.58 0 0 1 0-.53.82.82 0 0 1 .91-.83h1.13c2.24-.1 7.55.06 10.5.05a32.21 32.21 0 0 0 3.34-.05c1.15 0 1.45.5 1.67 1.44a12.1 12.1 0 0 1 0 2.69c0 2.28-.13 4.56-.06 6.82a27.77 27.77 0 0 1 .14 3.87c.04 1.05-.54 1.55-1.1 1.56z" fill="#806130"/><path d="M47.36 74a1.89 1.89 0 0 0-.64-.14l-4.1.06c-2.4 0-5 0-6.42-.1s-2.88 0-4.33-.06a.75.75 0 0 0-.83.8l.13 8.17v2.63a13.44 13.44 0 0 0 0 3c.08.58.34.8.95.8h1.06l6.5.08c1 .08.15 0 1.06-.06a8.89 8.89 0 0 1 2.56-.17 15.14 15.14 0 0 0 3.47 0c.28 0 .58 0 .8-.32a17.22 17.22 0 0 0 0-3.37 10.24 10.24 0 0 1-.14-1.75l.1-4.32a22.84 22.84 0 0 1 .09-2.86 4.39 4.39 0 0 0-.27-2.38z" fill="#a27d3d"/><path d="M37.78 81.33c-.4-.1-.9-.37-1.32-.28a1.91 1.91 0 0 0-.64.38c-.37.3-.76 1-.37 1.42.2.24.58.2.87.2s.37-.16.55-.46.43-.36.72-.55.46-.53.2-.7zM39.4 87c0 .35.17.45.5.57s.72.24.9 0A2 2 0 0 0 41 87a1.54 1.54 0 0 1 .16-.47c.1-.13.27-.12.35-.26a.55.55 0 0 0-.15-.65 1.08 1.08 0 0 0-1.23-.26c-.6.3-.76 1.33-.74 1.64zm-6.65-2.6a2.72 2.72 0 0 0-.34 1.77c0 .48 0 1.43.57 1.55.94.2.47-.9.44-1.32a2.53 2.53 0 0 1 .18-1.2c.14-.33.33-.54.1-.83s-.96-.2-.94.03zM44 83.9a1 1 0 0 0-.77.48c-.12.23-.35.63-.25.9s.58.42.93.4a1 1 0 0 0 1-.55c.3-.4.8-1.14 0-1.27-.3-.04-.56.05-.9.03zm-11.2-7.2c0 .37-.18 1 .12 1.26a1.87 1.87 0 0 0 1.16.29 1 1 0 0 0 .3-.3c.22-.35-.1-.53-.06-.84.07-.65 1.54-.74 1.35-1.6-.1-.37-.63-.43-.94-.47-.65-.06-1.82 0-1.85.92a4 4 0 0 1-.08.74zm2.32.4c-.36.08 0 .56.32.55a.36.36 0 0 0 .35-.44c-.1-.35-.8-.4-.78 0m7.2 2.5c-.18.2-.54.5-.12.68a.75.75 0 0 0 .89-.26c.28-.56-.47-.66-.77-.4" fill="#d5ad75"/><g fill="#806130"><path d="M37.88 81.48c-.4-.08-.88-.37-1.32-.28a1.89 1.89 0 0 0-.63.39c-.38.3-.77 1-.38 1.42.2.24.6.2.88.18s.37-.15.54-.46.43-.35.72-.55.46-.53.2-.7zm1.62 5.7c0 .34.18.44.5.57s.72.23.92 0a2.66 2.66 0 0 0 .22-.6 1.81 1.81 0 0 1 .16-.48c.1-.12.27-.12.36-.25a.58.58 0 0 0-.16-.66 1.06 1.06 0 0 0-1.22-.25c-.64.32-.8 1.33-.78 1.67zm-6.6-2.68a2.7 2.7 0 0 0-.35 1.78c0 .48 0 1.42.57 1.54.95.2.48-.9.45-1.3a2.34 2.34 0 0 1 .18-1.21c.14-.32.33-.54.1-.83s-.97-.2-.94.03zm11.2-.45a1.07 1.07 0 0 0-.76.48c-.13.23-.36.63-.26.9s.58.42.94.42c.58 0 .7-.14 1-.55s.8-1.15 0-1.28c-.3-.02-.58.05-.92.03zm-11.2-7.2c0 .37-.18 1 .12 1.25a1.89 1.89 0 0 0 1.16.3 1.11 1.11 0 0 0 .31-.3c.2-.36-.1-.54-.07-.84.07-.65 1.55-.75 1.35-1.6-.08-.37-.62-.44-.93-.47-.66-.07-1.83 0-1.85.9a4.94 4.94 0 0 1-.09.75zm2.32.4c-.35.07 0 .56.32.55a.37.37 0 0 0 .36-.45c-.1-.34-.82-.4-.8 0"/><use xlink:href="#D" y="15.85"/></g><path d="M51.18 92.94a9 9 0 0 0 0-2.69c-.3-1-.7-1.5-2.26-1.44s.63 0-4.5 0c-4 0-11.14-.15-14.17 0h-1.53c-.76 0-1.14.27-1.23.82a3.26 3.26 0 0 0 0 .54c-.05 1.67.2 3.34.17 5v.54h23.48c.03-.92.05-1.84.04-2.77z" class="U"/><path d="M50.48 94.77a17.28 17.28 0 0 1 .12-2.87 3.37 3.37 0 0 0-.39-2.34 3.82 3.82 0 0 0-.86-.13h-5.53c-3.23 0-6.75 0-8.66-.1s-3.9 0-5.85-.06c-.7 0-1.14.32-1.13.8l.15 5.6h22.12z" fill="#ba8f47"/><g fill="#edc180"><path d="M33.68 92.68c-.48.08 0 .56.43.55s.56-.2.48-.44-1.1-.4-1.06 0m10.75-2.15c.37-.56-.63-.66-1-.4h0c-.16.14-.42.3-.42.46h1.42s-.01-.04 0-.06z"/><path d="M42.82,90.68c0,.08.06.16.26.22a1.28,1.28,0,0,0,1.16-.22Z"/></g><g class="U"><path d="M33.82 92.84c-.48.07 0 .56.43.54s.56-.2.48-.44-1.1-.4-1.06 0m9.7-2.54h0c-.1.1-.25.2-.34.3h1.43c.15-.5-.7-.55-1.1-.3z"/><path d="M43,90.68c-.12.13-.14.27.18.38a1.25,1.25,0,0,0,1.2-.26,1,1,0,0,0,0-.12Z"/></g><rect x="-.48" y=".49" width="77.74" height="58.31" rx="2.04" fill="#6d6e71"/><path d="M2.1 2.96H74.8v53.48H2.1z" fill="#58595b"/><path d="M3.3 4.26h69.97V54.9H3.3z"/><path d="M4.7 5.8l66.8.2.12 41.82S48.76 48.9 40.5 37.6s-9.2-16.83-20.14-17.9C4.82 18.16 4.7 5.8 4.7 5.8z" fill="url(#B)"/><path d="M74.8 1.2l-18.1.2-18.1.1-36.22.13a2.12 2.12 0 0 0-1.27.7 2.13 2.13 0 0 0-.31 1.45v3.45l-.1 6.9L.5 28 .1 55.62.08 14.17V3.78a2.81 2.81 0 0 1 .54-1.84A2.75 2.75 0 0 1 2.31 1h54.37z" fill="#c7c8ca"/><path d="M74.8 2.7l-31 .13q-15.5.06-31 .26 15.52.15 31 .13h30.78L74.6 29l.18 26q.15-13 .18-26l.1-26.3z" fill="#626e83" opacity=".7"/><path d="M78.06 26.1c-.22-3.37-.33-6.74-.42-10.12l-.12-10.14a4.26 4.26 0 0 1 3.55-4 21.09 21.09 0 0 1 2.61-.05c.85 0 1.7 0 2.53.06l10.13.42c-3.38.23-6.75.34-10.13.42-1.64.1-3.46 0-5 .13a3.24 3.24 0 0 0-2.62 3.05l-.14 10.1-.4 10.13z" fill="url(#C)"/></svg>