<svg width="63px" height="60px" xmlns="http://www.w3.org/2000/svg" xmlns:xlink="http://www.w3.org/1999/xlink" viewBox="0 0 121.99 121.75"><defs><style>.cls-1{fill:#865a33;}.cls-2{fill:#af7147;}.cls-3{fill:#ba7e49;}.cls-4{fill:#eab370;}.cls-5{fill:#776b5e;}.cls-6{fill:#b7aea6;}.cls-7{fill:#ded9d3;}.cls-8{fill:#fff8f3;}.cls-9{fill:#4d576b;}.cls-10{fill:red;}.cls-11{fill:#ce181e;}.cls-12{fill:#9d9da0;}.cls-13{fill:#6d6e71;}.cls-14{fill:url(#linear-gradient);}.cls-15{fill:#fff;}.cls-16{fill:#626e84;opacity:0.7;}.cls-17{fill:url(#linear-gradient-2);}.cls-18{fill:url(#linear-gradient-3);}.cls-19{fill:#a7a9ac;}.cls-20{fill:#58595b;}</style><linearGradient id="linear-gradient" x1="46.33" y1="56.82" x2="46.33" y2="6.36" gradientUnits="userSpaceOnUse"><stop offset="0" stop-color="#fff" stop-opacity="0"/><stop offset="1" stop-color="#fff" stop-opacity="0.5"/></linearGradient><linearGradient id="linear-gradient-2" x1="106.66" y1="35.89" x2="108.69" y2="2.85" gradientUnits="userSpaceOnUse"><stop offset="0" stop-color="#b5b7b9" stop-opacity="0"/><stop offset="1" stop-color="#b5b7b9"/></linearGradient><linearGradient id="linear-gradient-3" x1="104.38" y1="28.52" x2="104.89" y2="0.05" xlink:href="#linear-gradient-2"/></defs><title>Wrong Answer</title><g id="Layer_2" data-name="Layer 2"><g id="Layer_1-2" data-name="Layer 1"><path class="cls-1" d="M39.42,117a4,4,0,0,0,2.35.23c.39-.06.37-.51.66-.8.2,1.06,1,.9,1.77,1a5.57,5.57,0,0,0,1.25,0c.35-.16.3-.45.44-.64.19,0,.16.19.19.3a.68.68,0,0,0,.68.52,7.11,7.11,0,0,1,1.77.34c.7.23.95.1,1.35-.54.1-.15.15-.33.34-.44.22,0,.22.39.49.38.45,0,.49-.47.77-.72.52.21.64.74.87,1.21.48.09.88-.18,1.32-.25s.89-.16,1.35-.25a2.7,2.7,0,0,0,.1-1.23c-.21-3.06-.17-21.47-.31-24.2-.08-1.59.23-13.37.28-15,0-1.8,0-3.61.15-5.41.06-.89,0-1.77,0-2.65a.72.72,0,0,0,0-.43c-1-.59-1.38-.5-1.92.49l-.64.34c-.23-1.76-1.33-2.14-2.9-1.8-.4.29-.53.81-.85,1.22-.24,0-.45-.07-.68-.08-.08-.2-.13-.38-.21-.53a1,1,0,0,0-1-.63,12.48,12.48,0,0,1-3-.1,9.17,9.17,0,0,0-2.39.21c-.5.1-.44.55-.54.89-.3.14-.64,0-.93.16s-.18.49-.2.75c-.18,2.68-.13,5.36-.19,8,0,1.93-.47,14.06-.45,16,0,5.69,0,7.05-.24,12.74-.11,3.33.14,6.63.21,9.94A8.18,8.18,0,0,0,39.42,117Z"/><path class="cls-2" d="M53.46,70.33c.52,3.18.23,16.57.19,19.79s-.09,6.6-.14,9.9,0,2.32,0,5.64,0,6.8-.22,10.18c0,.66-1.15.66-1.17,0-.11-3.22.06-6.46.11-9.68s0-2.32.06-5.64c.11-6.6.8-23.48.38-30.07C52.59,69.9,53.41,69.79,53.46,70.33Z"/><path class="cls-3" d="M47.92,69.15l1.1.24c.49-.15.51-.7.83-.93.81,1,.73,2.15.77,3.3l.14,0,.1-1.74,2.06-.12c.06,1.67.21,3.29.17,4.91C53,77,52.65,89.47,52.62,91.71c-.06,4.6,0,9.19-.13,13.78-.14,4.94-.1,5.57-.36,10.5,0,.07,0,.15-.12.17s-.45-.37-.77-.22-.27.34-.48.49a1.12,1.12,0,0,0-.51-.21c-.45.06-.64.45-.86.8s-.26.52-.67.27c0-2.78.17-5.58,0-8.38-.07,2.76-.18,5.51-.33,8.3a9.74,9.74,0,0,0-1.65-.25c-.31-.35-.14-1-.82-1a1.92,1.92,0,0,0-.68,1,4.39,4.39,0,0,1-1.73,0c.15-4.44-.19-8.82-.2-13.2-.17,4.35.08,8.71-.19,13.06-.29-.32-.3-.83-.8-.93-.45.06-.44.55-.74.79-.51-.27-1.07-.1-1.67-.22-.46-13.8.39-33.46.58-47.15.39-.31.73,0,1-.19a1.72,1.72,0,0,0,.48-1l.76-.11,0,1.45c.32-.46.06-1,.27-1.46a1.06,1.06,0,0,1,.63.18c.12,1.64.12,3.29.36,4.93.14-1.63,0-3.27,0-4.94a6.05,6.05,0,0,0,1.64.07c.26,1.07,1.29.55,1.86.94.08,2.62.09,5.21.16,7.8C47.92,74.39,47.94,71.8,47.92,69.15Z"/><path class="cls-4" d="M54.71,69a2.51,2.51,0,0,0-.1.93c0,1.69-.07,3.38-.08,5.07,0,2.5-.33,15.19-.28,17.69.08,3.88,0,7.76,0,11.64,0,2.85.33,11.78.28,12.46l-1.76.38a1.54,1.54,0,0,1-.35-1c0-2.46.21-4.91.24-7.37,0-4.12.1-3.92.14-8,0-4,.26-18.14.4-22.12a64.33,64.33,0,0,0,0-6.66c0-.71-.08-1.41-.11-2.14.6,0,.82-.47,1.06-.91Z"/><path class="cls-4" d="M50.73,68.32a1.28,1.28,0,0,1,1-.1l.43,1.1a4.91,4.91,0,0,1-1,0Z"/><path class="cls-4" d="M47.26,67.91c.21.16.43.25.37.57-.43-.1-.91,0-1.26-.44Z"/><path class="cls-1" d="M46.63,84.12a1,1,0,0,0-.93.47,3.92,3.92,0,0,0-.81,1.88,9.35,9.35,0,0,0,.31,4.75,3.76,3.76,0,0,0,.44.93c.21.3.41.64.84.59s.58-.41.71-.76a5.51,5.51,0,0,0,.27-1.33,10,10,0,0,0-.35-4.06c-.1-.3-.18-.64-.51-.8a.46.46,0,0,0-.46.39,8.21,8.21,0,0,0-.08,3.94.42.42,0,0,0,.23.29c.46-.32.52-1.58.09-2.38a8.26,8.26,0,0,1,0,2,6.31,6.31,0,0,1,.12-4c1,1.1,1,5.78-.11,6.34-.39-.11-.54-.46-.69-.78a6.49,6.49,0,0,1-.65-2.52,9.59,9.59,0,0,1,.19-2.93A3.06,3.06,0,0,1,46.63,84.12Z"/><path class="cls-1" d="M50.94,85.75a15.56,15.56,0,0,1-.54,8.5,5.89,5.89,0,0,1-2,2.74,2.16,2.16,0,0,0,1.17-.81A7.85,7.85,0,0,0,51.08,93a15,15,0,0,0,.11-6.72c0-.19,0-.41-.24-.52Z"/><path class="cls-1" d="M43.15,85.48c-.1,2.94,0,5.84,1.35,8.54C43.44,91.27,43.34,88.37,43.15,85.48Z"/><path class="cls-1" d="M49.58,86.43c.43,2.67.59,5.31-.77,7.79a.5.5,0,0,0-.08.31h0a4.62,4.62,0,0,0,1.08-2.26,12.57,12.57,0,0,0,0-5.56.31.31,0,0,0-.16-.26Z"/><path class="cls-1" d="M43.3,103v-.19h0v.2Z"/><path class="cls-1" d="M48.81,93.2v0Z"/><path class="cls-1" d="M48,101.29c-.12,0-.12,0-.06.13s.08-.08,0-.14Z"/><path class="cls-1" d="M50.17,92.51s0-.06,0-.09a.29.29,0,0,0,0,.09Z"/><path class="cls-2" d="M50.82,74.77c0-1-.09-2-.16-3l.1,0,.1-1.74.44,0C51.22,71.58,51.06,73.18,50.82,74.77Z"/><path class="cls-2" d="M50.47,69.76a6.88,6.88,0,0,1,.13,1.29C50.56,70.62,50.52,70.19,50.47,69.76Z"/><path class="cls-2" d="M39.92,116.43c-.46-13.8.39-33.46.58-47.15.39-.31.73,0,1-.19a1.72,1.72,0,0,0,.48-1l.76-.11c0,.51,0,1,0,1.45.32-.46.06-1,.27-1.46a1.06,1.06,0,0,1,.63.18c0,.25,0,.51,0,.76l-.09-.2c-.37,1.09.06,2.55-.49,3.65-.18-.46-.21-2.2-.66-2.48-1-.62-1.39.89-1.42,1.5-.1,2.41.34,4.86.32,7.28,0,2.16-1.08,21.1-.1,27.14a59.63,59.63,0,0,1,.55,6.26A18.29,18.29,0,0,0,42,115c.67-2,.45-4.66.65-6.76.15-1.54,0-3.55.56-4.94a41.58,41.58,0,0,1,.7,7,32.14,32.14,0,0,1,.19,5.19,4.13,4.13,0,0,1,1,.53c.58-1.8.61-3.76,1.14-5.59.75,1.06.45,3.7.57,5.07a11.38,11.38,0,0,1,.34-3.45c.72.92.79,2.73,1.09,3.88a17.19,17.19,0,0,0,.37-2.52c0,1.29-.11,2.57-.18,3.87a9.74,9.74,0,0,0-1.65-.25c-.31-.35-.14-1-.82-1a1.92,1.92,0,0,0-.68,1,4.39,4.39,0,0,1-1.73,0c.15-4.44-.19-8.82-.2-13.2-.17,4.35.08,8.71-.19,13.06-.29-.32-.3-.83-.8-.93-.45.06-.44.55-.74.79C41.08,116.38,40.52,116.55,39.92,116.43Z"/><path class="cls-2" d="M48.79,110.31c0-.43.06-.86.11-1.29.08-.77,0-5.07.61-5.32a65.56,65.56,0,0,1,.66,10.84c.22-.42.91-.25,1.2,0,.44.46,0,0,.23.7.07.23.14.49.22.77a.56.56,0,0,0-.58-.12c-.23.09-.27.34-.48.49a1.12,1.12,0,0,0-.51-.21c-.45.06-.64.45-.86.8s-.26.52-.67.27C48.74,115,48.84,112.65,48.79,110.31Z"/><path class="cls-2" d="M47.54,69.16h0v.27Z"/><path class="cls-2" d="M44.74,70.58c-.09,1.19-.14,2.41-.34,3.6a11.49,11.49,0,0,0-.32-4.32c0-.57,0-1.13,0-1.7a6.26,6.26,0,0,0,.73.08C44.74,69.15,44.78,70.17,44.74,70.58Z"/><path class="cls-2" d="M47.91,72.47c0-1.1,0-2.2,0-3.32l.69.15a36.89,36.89,0,0,1-.5,7.86A32.19,32.19,0,0,0,47.91,72.47Z"/><path class="cls-1" d="M44.47,96.69c-.49-.62-1.37-.83-1.67-1.62,0-.23.15-.37.19-.62-.83.36-.92-.4-1.2-.71s0-.4-.07-.57c-.19.06-.3.27-.52.27A2.25,2.25,0,0,1,40.3,92l3.54-3.23c2.22-2,4.42-4,6.52-6.18a81.12,81.12,0,0,1,7-6.21c1.39-1.11,2.65-2.38,4-3.56,3.92-3.4,7.62-7,11.38-10.63,2-1.86,3.81-3.86,5.71-5.79.68-.7,1.4-1.35,2.14-2,.17-.15.35-.27.56-.14s.06.37.11.53l.61.46.71-.16a2.63,2.63,0,0,1,.66.45c.14.29,0,.5-.05.73s.25.25.42.38a.82.82,0,0,1,1.05.47.83.83,0,0,0,.19.23,2.5,2.5,0,0,1,.74,1.58L82,62.24c-.48.43-1,.84-1.42,1.31-2.72,2.81-5.74,5.28-8.66,7.87-1.34,1.19-2.59,2.46-3.87,3.7-3.79,3.67-7.56,7.36-11.63,10.73-2.08,1.74-4,3.64-6,5.47-1.84,1.68-3.73,3.31-5.47,5.11A.66.66,0,0,1,44.47,96.69Z"/><path class="cls-2" d="M81.2,56.45l0-.13v0l0-.06a.15.15,0,0,0-.07-.27l-.19,0h0a.39.39,0,0,0-.44,0,24.36,24.36,0,0,0-2.19,2c-.81.73-1.61,1.47-2.41,2.21-1.61,1.49-3.19,3-4.79,4.49l-9.42,8.85c-3.13,3-6.36,5.8-9.53,8.7l-4.85,4.42a41,41,0,0,0-4.57,4.27c-.25.31.16.7.48.49A42.73,42.73,0,0,0,48.19,87L53,82.58c3.13-2.87,6.19-5.79,9.33-8.65s6.26-5.7,9.35-8.59c1.6-1.49,3.21-3,4.79-4.49.72-.69,1.44-1.37,2.15-2.07.43-.42.85-.89,1.28-1.34a.39.39,0,0,0,.36-.14,6.2,6.2,0,0,1,.6-.55A.37.37,0,0,0,81.2,56.45Z"/><path class="cls-3" d="M44.58,96.1c.39-.42.76-.83,1.14-1.21,1.61-1.58,3.33-3,5-4.56s3.26-3.11,5-4.53c3.7-3,7.1-6.39,10.58-9.67,1.66-1.56,3.22-3.24,4.91-4.76,2.16-2,4.42-3.8,6.54-5.79s4.09-4,6.26-5.79a6.08,6.08,0,0,0,1.08-1,1.92,1.92,0,0,1-.23-.75l-.47-.4c-.49.31-.78.83-1.38,1.08.33-.57.87-.85,1.18-1.32-.09-.29-.31-.24-.5-.21s-.36-.17-.53-.13c-1,.74-1.83,1.64-2.82,2.35a33.34,33.34,0,0,1,2.49-2.55c-.22-.41-.22-.41-.06-1.06-.39-.31-.75.08-1.09,0-1.12,1-2.2,2-3.33,2.87s-2.1,2-3.17,3c-1.29,1.19-2.63,2.33-3.83,3.6-2.85,3-6,5.65-9,8.47-1.71,1.6-3.55,3.07-5.19,4.76a67.89,67.89,0,0,1-5,4.65c-3.14,2.67-6.07,5.56-9,8.37,0,.87-.75,1.3-1,2a1.75,1.75,0,0,0,.48.53,2,2,0,0,0,1-.52C45.22,92,47,90.61,48.62,89c.11-.11.2-.28.47-.26-1.8,1.72-3.56,3.41-5.41,5,.3.49-.4.83-.22,1.43,1.51-1.2,2.67-2.63,4.06-3.81l-3.77,4Z"/><path class="cls-2" d="M45.88,93c-.29.25-.59.49-.9.71.29-.73,1.51-1.63,2.05-2.17.8-.8,1.54-1.6,2.27-2.46a45.81,45.81,0,0,0,3.45-4c-2,1.46-3.7,3.46-5.69,5A30.65,30.65,0,0,1,43.15,93a8.56,8.56,0,0,0,.64-1.5l-.72.52c-.21.56-.73.94-1,1.48a1.75,1.75,0,0,0,.48.53,2,2,0,0,0,1-.52C45.22,92,47,90.61,48.62,89c.11-.11.2-.28.47-.26-1.8,1.72-3.56,3.41-5.41,5,.3.49-.4.83-.22,1.43A27.59,27.59,0,0,0,45.88,93Z"/><path class="cls-2" d="M84,59.79a6.08,6.08,0,0,0,1.08-1,1.92,1.92,0,0,1-.23-.75l-.47-.4c-.49.31-.78.83-1.38,1.08.33-.57.87-.85,1.18-1.32-.09-.29-.31-.24-.5-.21s-.36-.17-.53-.13c-1,.74-1.83,1.64-2.82,2.35a33.34,33.34,0,0,1,2.49-2.55,1.24,1.24,0,0,1-.17-.4C81.21,58,79.8,59.49,78.4,61c.77-.63,1.57-1.23,2.38-1.81a11.89,11.89,0,0,1,2.14-1.54c.34-.11.43-.38.79,0a13.39,13.39,0,0,1-1.79,1.9,11.73,11.73,0,0,1,1.75-.93,13.32,13.32,0,0,1-1.62,1.91,38.56,38.56,0,0,1-2.86,3.14c-4,3.76-8.22,7.27-12.28,11-2.25,2-4.35,4.2-6.68,6.17s-4.95,3.57-7.08,5.71c-2.62,2.63-4.87,5.57-7.83,7.85A34.37,34.37,0,0,0,48,91.19c-.41.32-.82.67-1.21,1l-3,3.21.83.69c.39-.42.76-.83,1.14-1.21,1.61-1.58,3.33-3,5-4.56s3.26-3.11,5-4.53c3.7-3,7.1-6.39,10.58-9.67,1.66-1.56,3.22-3.24,4.91-4.76,2.16-2,4.42-3.8,6.54-5.79S81.81,61.62,84,59.79Z"/><path class="cls-4" d="M80.7,55.06c-1.28,1.07-2.44,2.2-3.6,3.33-1.35,1.31-2.59,2.74-3.94,4-3.8,3.66-7.58,7.34-11.54,10.82-1.31,1.15-2.53,2.38-3.89,3.47a84.69,84.69,0,0,0-7.87,7c-1.11,1.13-2.25,2.23-3.44,3.29-1.87,1.67-3.63,3.45-5.61,5l.44.6a.76.76,0,0,0,.57-.29l4.81-4.58c.85-.81,1.69-1.62,2.58-2.39,2.35-2,4.73-4,6.91-6.25,2-2,4.19-3.9,6.31-5.82q2.87-2.6,5.71-5.21c1.19-1.09,2.22-2.32,3.4-3.41,3-2.77,5.88-5.66,9-8.26a5.49,5.49,0,0,0,.94-.87C81.31,55.31,81,55.25,80.7,55.06Z"/><path class="cls-1" d="M64.53,74.6c1,0,3.18-2,3.16-2.93a1.27,1.27,0,0,0-1.12.13A7.48,7.48,0,0,0,63.91,74l-.26.37h-.07a1.49,1.49,0,0,1,.43-.81,7,7,0,0,1,2.44-1.92,2.31,2.31,0,0,1,.9-.24c.5,0,.7.24.53.72a1.42,1.42,0,0,1-.23.44,8.71,8.71,0,0,1-2.51,2.13.83.83,0,0,1-.79.12c-.11-.76,1.64-2.3,2.48-2.2a.26.26,0,0,1-.17.34c0-.06,0-.14-.08-.17A4.14,4.14,0,0,0,64.53,74.6Z"/><path class="cls-1" d="M74.5,63.61a2.13,2.13,0,0,1,.56-1.31,5.39,5.39,0,0,1,3.26-2.1.92.92,0,0,1,.85.09c.13,1-2.86,3.79-3.79,3.51-.1-.66,1.42-2.3,2.5-2.67a9.52,9.52,0,0,0-2.45,2.53c.94,0,3.38-2.24,3.61-3.24a.84.84,0,0,0-.8,0A5.22,5.22,0,0,0,74.88,63c-.12.22-.26.42-.39.63Z"/><path class="cls-1" d="M59,79.55a85.42,85.42,0,0,1-8.61,7C53.27,84.25,56.17,82,59,79.55Z"/><path class="cls-1" d="M52.15,86.56a.74.74,0,0,1,.55-.21c-.13.71-1.76,1.83-2.34,1.61-.07-.24.11-.37.22-.52a13.77,13.77,0,0,1,3.47-2.6,20.31,20.31,0,0,0-3.61,3C51.2,87.79,52.24,87,52.15,86.56Z"/><path class="cls-1" d="M62.53,76.81a22.57,22.57,0,0,0,2.83-1.7,10.45,10.45,0,0,0,2.12-1.8.56.56,0,0,1-.25.52,17.18,17.18,0,0,1-4.4,3c-.11.06-.21.09-.3,0Z"/><path class="cls-1" d="M69.55,69.83c0,1.06-1.56,3.19-2.91,4A11.45,11.45,0,0,0,69.55,69.83Z"/><path class="cls-1" d="M80.21,61.16a11.53,11.53,0,0,1-2.73,2.53C78.4,62.85,79.35,62.05,80.21,61.16Z"/><path class="cls-1" d="M65.69,71.49a6.81,6.81,0,0,1,2.48-1.9A17.53,17.53,0,0,0,65.69,71.49Z"/><polygon class="cls-1" points="59.39 79.31 59.37 79.34 59.35 79.32 59.39 79.31"/><path class="cls-1" d="M74.49,63.61l0,.09c-.06-.06,0-.07,0-.09Z"/><path class="cls-1" d="M62.53,76.81l0,.14h0l.06-.13Z"/><path class="cls-2" d="M55.41,89.08h0"/><path class="cls-1" d="M77.89,121.26a3.91,3.91,0,0,0,.2-2.36c-.06-.39-.51-.37-.8-.64,1.06-.22.89-1.06,1-1.78a5.57,5.57,0,0,0-.06-1.26c-.16-.34-.45-.29-.64-.43,0-.19.19-.16.29-.19a.69.69,0,0,0,.52-.69,7.08,7.08,0,0,1,.32-1.77c.22-.71.09-1-.55-1.35a1,1,0,0,1-.45-.33c0-.22.39-.23.38-.5,0-.45-.48-.49-.73-.76.21-.52.73-.65,1.19-.88.1-.48-.19-.88-.26-1.32s-.17-.89-.26-1.35a2.72,2.72,0,0,0-1.23-.08c-3.06.24-25.79.35-28.52.51-1.59.1-18.42-.15-20-.18-1.81,0-3.61,0-5.41-.1-.89,0-1.77,0-2.65,0a.63.63,0,0,0-.43,0c-.58,1-.49,1.38.51,1.91l.34.64c-1.75.25-2.12,1.36-1.77,2.92.3.39.83.52,1.23.84.06.24-.06.45-.06.68a4.65,4.65,0,0,0-.54.22,1,1,0,0,0-.61,1,12.47,12.47,0,0,1-.07,3,8.68,8.68,0,0,0,.24,2.38c.1.51.56.45.9.53.14.31,0,.65.16.93s.49.19.76.2c2.68.14,5.36.07,8,.1,1.93,0,19.11.39,21,.35,5.69-.11,11.38,0,17.06.16,3.33.07,6.63-.22,9.94-.32A8.42,8.42,0,0,0,77.89,121.26Z"/><path class="cls-2" d="M21.71,107.6c3.17-.56,21.61-.34,24.82-.34s6.6,0,9.9,0l10,0c3.38,0,6.8-.09,10.18.1a.59.59,0,0,1,0,1.17c-3.22.14-6.46,0-9.68,0l-10-.06c-6.6,0-28.53-.62-35.12-.12C21.28,108.48,21.16,107.66,21.71,107.6Z"/><path class="cls-3" d="M20.58,113.15l.23-1.1c-.15-.49-.7-.51-.93-.82a5,5,0,0,1,3.29-.81l0-.14-1.74-.08-.14-2c1.66-.09,3.28-.25,4.9-.23,2.24,0,19.73.35,22,.36,4.59,0,9.19-.11,13.78,0,4.94.08,9.88.11,14.82.31.07,0,.15,0,.17.11s-.36.46-.22.77.35.28.5.48a1.12,1.12,0,0,0-.2.51c.06.46.45.64.81.85s.52.26.28.68c-2.78,0-5.58-.12-8.38.08,2.76,0,5.51.12,8.3.24a10.51,10.51,0,0,0-.23,1.65c-.35.31-1,.15-1,.82a1.9,1.9,0,0,0,1,.68,4.38,4.38,0,0,1,0,1.73c-4.45-.11-8.82.28-13.2.34,4.35.12,8.7-.17,13.06,0-.32.3-.83.31-.92.81.06.45.55.44.79.73-.25.51-.08,1.07-.2,1.68-13.79.6-42.82-.16-56.51-.2-.31-.39,0-.73-.2-1a1.74,1.74,0,0,0-1-.47l-.12-.75,1.45,0c-.46-.31-1,0-1.46-.26a.94.94,0,0,1,.18-.63c1.64-.13,3.29-.16,4.92-.41-1.64-.13-3.26.07-4.94,0a6.48,6.48,0,0,0,.06-1.64c1.05-.27.52-1.29.92-1.87,2.61-.11,5.2-.14,7.79-.25C25.83,113.09,23.24,113.11,20.58,113.15Z"/><path class="cls-4" d="M20.37,106.37a2.68,2.68,0,0,0,.93.09c1.69,0,3.38,0,5.06,0,2.5,0,20.24.23,22.74.16,3.88-.13,7.76-.13,11.64-.14,2.84,0,16.09-.4,16.78-.36l.4,1.76a1.63,1.63,0,0,1-1,.36c-2.46,0-4.92-.16-7.38-.16-4.12,0-8.24-.12-12.36-.11s-23.19-.13-27.16-.24c-2.22,0-4.44-.14-6.66,0l-2.14.14c-.05-.6-.48-.82-.92-1Z"/><path class="cls-4" d="M19.73,110.35c-.12-.36-.27-.65-.11-1l1.09-.45a5,5,0,0,1,0,1Z"/><path class="cls-4" d="M19.35,113.82c.16-.21.25-.43.57-.37-.09.43,0,.9-.43,1.27Z"/><path class="cls-1" d="M40.61,114.35a1,1,0,0,0,.48.92,3.87,3.87,0,0,0,1.89.79,9.31,9.31,0,0,0,4.74-.36,3.48,3.48,0,0,0,.93-.45c.3-.21.64-.42.58-.85s-.41-.57-.77-.69a6,6,0,0,0-1.33-.27,9.91,9.91,0,0,0-4.05.41c-.3.1-.64.17-.8.5a.48.48,0,0,0,.39.47,8.37,8.37,0,0,0,3.95,0,.36.36,0,0,0,.28-.24c-.32-.44-1.58-.49-2.37,0a8.23,8.23,0,0,1,2,0,6.32,6.32,0,0,1-4-.07c1.08-1,5.76-1,6.33,0-.1.4-.45.55-.77.71a6.64,6.64,0,0,1-2.51.67,9.36,9.36,0,0,1-2.94-.16A3.05,3.05,0,0,1,40.61,114.35Z"/><path class="cls-1" d="M42.19,110a15.59,15.59,0,0,1,8.51.45,5.94,5.94,0,0,1,2.76,2,2.17,2.17,0,0,0-.82-1.17,7.86,7.86,0,0,0-3.21-1.45,15,15,0,0,0-6.72,0c-.19,0-.41,0-.51.24Z"/><path class="cls-1" d="M42,117.81c2.94.07,5.84-.07,8.53-1.44C47.8,117.46,44.9,117.59,42,117.81Z"/><path class="cls-1" d="M42.89,111.38c2.66-.47,5.3-.66,7.8.68a.42.42,0,0,0,.31.07h0a4.65,4.65,0,0,0-2.27-1,12.58,12.58,0,0,0-5.56.11c-.11,0-.21,0-.26.17Z"/><path class="cls-1" d="M63.89,117.53H63.7v0h.2Z"/><path class="cls-1" d="M49.66,112.07h0Z"/><path class="cls-1" d="M57.76,112.83c0,.11.06.12.14,0a.12.12,0,0,0-.15,0Z"/><path class="cls-1" d="M49,110.71h-.09l.09,0Z"/><path class="cls-2" d="M26.18,110.19c-1,0-2,.11-3,.19v-.1l-1.74-.08,0-.43C23,109.83,24.59,110,26.18,110.19Z"/><path class="cls-2" d="M21.17,110.6a6.89,6.89,0,0,1,1.29-.15Q21.82,110.51,21.17,110.6Z"/><path class="cls-2" d="M77.31,120.77c-13.79.6-42.82-.16-56.51-.2-.31-.39,0-.73-.2-1a1.74,1.74,0,0,0-1-.47l-.12-.75,1.45,0c-.46-.31-1,0-1.46-.26a.94.94,0,0,1,.18-.63l.75-.06-.2.09c1.09.36,2.55-.08,3.66.46-.46.18-2.2.23-2.47.69-.62,1,.9,1.38,1.52,1.4,2.41.07,4.85-.39,7.27-.41,2.16,0,19.54.59,21.7.64a49.39,49.39,0,0,0,8-.63c2.34-.32,4.5.33,6.84-.07a62.08,62.08,0,0,1,6.25-.62,18.2,18.2,0,0,0,2.88-.17c-2-.65-4.66-.4-6.77-.58-1.54-.13-3.55,0-4.94-.51a41.53,41.53,0,0,1,7-.77,33.36,33.36,0,0,1,5.19-.25,3.77,3.77,0,0,1,.52-1c-1.81-.56-3.77-.57-5.61-1.08,1-.76,3.7-.49,5.07-.63a11.68,11.68,0,0,1-3.45-.29c.91-.74,2.71-.83,3.87-1.14a19,19,0,0,0-2.53-.35l3.87.15a10.51,10.51,0,0,0-.23,1.65c-.35.31-1,.15-1,.82a1.9,1.9,0,0,0,1,.68,4.38,4.38,0,0,1,0,1.73c-4.45-.11-8.82.28-13.2.34,4.35.12,8.7-.17,13.06,0-.32.3-.83.31-.92.81.06.45.55.44.79.73C77.26,119.6,77.43,120.16,77.31,120.77Z"/><path class="cls-2" d="M71.1,112l-1.29-.1c-.77-.07-5.08.08-5.33-.56a66.65,66.65,0,0,1,10.83-.78c-.42-.21-.26-.91,0-1.19.45-.45,0,0,.7-.24l.76-.23a.56.56,0,0,0-.12.57c.1.23.35.28.5.48a1.12,1.12,0,0,0-.2.51c.06.46.45.64.81.85s.52.26.28.68C75.77,112,73.43,111.88,71.1,112Z"/><path class="cls-2" d="M20.6,113.53l0,0h.26Z"/><path class="cls-2" d="M22.05,116.31c1.2.08,2.42.12,3.6.3a11.46,11.46,0,0,0-4.31.38c-.57,0-1.13,0-1.7,0a6.21,6.21,0,0,0,.07-.73C20.62,116.33,21.64,116.28,22.05,116.31Z"/><path class="cls-2" d="M23.91,113.12l-3.33,0,.15-.69a38.21,38.21,0,0,1,7.86.41A33.53,33.53,0,0,0,23.91,113.12Z"/><path class="cls-5" d="M44.94,90.77a2,2,0,0,1,1.77-2.17h.15a1,1,0,0,1,.39.08,2.13,2.13,0,0,1,1.33,2.49,1.8,1.8,0,0,1-1.77,1.39,2.18,2.18,0,0,1-.51-.09l-.15,0A1.87,1.87,0,0,1,44.94,90.77Z"/><path class="cls-6" d="M47.08,92c-.12,0-.14.06-.18.14S47,92,47.07,92l0-.15C47,91.89,47,91.94,47.08,92Z"/><path class="cls-7" d="M45.94,90a1.93,1.93,0,0,0,.06.63,1.31,1.31,0,0,0,1.81.88.62.62,0,0,0,.33-.38,1.43,1.43,0,0,0,0-1,1.86,1.86,0,0,0-1-1,.8.8,0,0,0-1.17.68C46,89.85,46,89.93,45.94,90Z"/><path class="cls-6" d="M45.86,89.56c-.44.13-.55,1-.43,1.59a1.3,1.3,0,0,0,1.06.94,1.33,1.33,0,0,0,.21-.39A1.83,1.83,0,0,1,45.86,89.56Z"/><path class="cls-6" d="M46.79,91.76c0,.13-.17.23-.17.38.16,0,.37-.25.35-.35A.21.21,0,0,0,46.79,91.76Z"/><path class="cls-6" d="M47.15,92.09c.13,0,.19-.14.22-.3A.43.43,0,0,0,47.15,92.09Z"/><path class="cls-8" d="M47.61,90.22a.83.83,0,0,0-.09-.7.7.7,0,0,0-.15-.19.53.53,0,0,0-.21-.11.44.44,0,0,0-.37,0,.31.31,0,0,0-.11.09.62.62,0,0,0-.11.84.68.68,0,0,0,.35.28.45.45,0,0,0,.36,0h0l.2-.07a.17.17,0,0,0,.09-.2Z"/><path class="cls-8" d="M47.5,91.07a.19.19,0,0,0-.07-.18A.3.3,0,0,0,47,91a.22.22,0,0,0,0,.08.2.2,0,0,0,0,.15l0,0a.22.22,0,0,0,.18.14.34.34,0,0,0,.35-.16A.26.26,0,0,0,47.5,91.07Z"/><path class="cls-7" d="M46,91.15,46,91a.2.2,0,0,0-.06-.09l0-.05v0a.1.1,0,0,0,0-.11.19.19,0,0,0-.11-.09.19.19,0,0,0-.29.1.4.4,0,0,0,0,.22.29.29,0,0,1,0,.09.13.13,0,0,0,0,.06.39.39,0,0,0,0,.21.16.16,0,0,0,.28,0h0A.18.18,0,0,0,46,91.15Z"/><path class="cls-5" d="M40.47,109.53a2,2,0,0,1,1.78-2.18h.14a.93.93,0,0,1,.39.08,2.15,2.15,0,0,1,1.34,2.49,1.8,1.8,0,0,1-1.78,1.39,2.26,2.26,0,0,1-.51-.08.66.66,0,0,0-.15,0A1.88,1.88,0,0,1,40.47,109.53Z"/><path class="cls-6" d="M42.61,110.75c-.12,0-.13,0-.17.14s.09-.13.17-.15l0-.15A.11.11,0,0,0,42.61,110.75Z"/><path class="cls-7" d="M41.48,108.76a1.92,1.92,0,0,0,.05.63,1.32,1.32,0,0,0,1.82.88.63.63,0,0,0,.33-.37,1.46,1.46,0,0,0,0-1,2,2,0,0,0-1-1,.81.81,0,0,0-1.18.68C41.49,108.6,41.48,108.68,41.48,108.76Z"/><path class="cls-6" d="M41.4,108.32c-.44.12-.55,1-.43,1.58a1.29,1.29,0,0,0,1.06.94,2,2,0,0,0,.21-.38A1.82,1.82,0,0,1,41.4,108.32Z"/><path class="cls-6" d="M42.32,110.52c0,.12-.16.22-.16.37.16,0,.37-.25.34-.35S42.41,110.5,42.32,110.52Z"/><path class="cls-6" d="M42.69,110.84c.12,0,.18-.14.22-.3A.42.42,0,0,0,42.69,110.84Z"/><path class="cls-8" d="M43.14,109a.8.8,0,0,0-.09-.7.66.66,0,0,0-.15-.19.49.49,0,0,0-.2-.11.44.44,0,0,0-.37,0,.31.31,0,0,0-.11.09.62.62,0,0,0-.11.85.67.67,0,0,0,.35.27.44.44,0,0,0,.36.05l0,0a.8.8,0,0,0,.2-.07.16.16,0,0,0,.08-.2Z"/><path class="cls-8" d="M43,109.82a.21.21,0,0,0-.06-.18.3.3,0,0,0-.46.1.18.18,0,0,0,0,.07.16.16,0,0,0,0,.15s0,0,0,0a.22.22,0,0,0,.18.14A.33.33,0,0,0,43,110,.2.2,0,0,0,43,109.82Z"/><path class="cls-7" d="M41.55,109.9l0-.13a.22.22,0,0,0-.07-.09s0,0,0,0v0a.13.13,0,0,0-.05-.11.18.18,0,0,0-.1-.09.19.19,0,0,0-.29.1.36.36,0,0,0,0,.23s0,.05,0,.08a.13.13,0,0,0,0,.06.57.57,0,0,0,0,.22.18.18,0,0,0,.29.05h0A.19.19,0,0,0,41.55,109.9Z"/><path class="cls-5" d="M49.25,109.4A2,2,0,0,1,51,107.23h.15a1,1,0,0,1,.39.09,2.13,2.13,0,0,1,1.33,2.49,1.78,1.78,0,0,1-1.77,1.38,1.75,1.75,0,0,1-.51-.08l-.15,0A1.88,1.88,0,0,1,49.25,109.4Z"/><path class="cls-6" d="M51.39,110.62c-.12,0-.14.06-.18.14s.09-.12.17-.14l0-.15C51.35,110.52,51.35,110.57,51.39,110.62Z"/><path class="cls-7" d="M50.25,108.64a1.84,1.84,0,0,0,.06.62,1.3,1.3,0,0,0,1.81.89.65.65,0,0,0,.33-.38,1.43,1.43,0,0,0,0-1,1.91,1.91,0,0,0-1-1,.8.8,0,0,0-1.17.68C50.26,108.48,50.26,108.56,50.25,108.64Z"/><path class="cls-6" d="M50.17,108.19c-.44.13-.55,1-.43,1.59a1.28,1.28,0,0,0,1.06.93,1.17,1.17,0,0,0,.21-.38A1.83,1.83,0,0,1,50.17,108.19Z"/><path class="cls-6" d="M51.1,110.39c-.05.13-.17.22-.17.38.16,0,.37-.25.35-.35A.18.18,0,0,0,51.1,110.39Z"/><path class="cls-6" d="M51.46,110.72a.34.34,0,0,0,.22-.3A.43.43,0,0,0,51.46,110.72Z"/><path class="cls-8" d="M51.92,108.84a.81.81,0,0,0-.09-.69.7.7,0,0,0-.15-.19.45.45,0,0,0-.21-.12.54.54,0,0,0-.37,0L51,108a.63.63,0,0,0-.11.85.68.68,0,0,0,.35.28.45.45,0,0,0,.36,0h0l.2-.07a.17.17,0,0,0,.09-.2Z"/><path class="cls-8" d="M51.81,109.7a.19.19,0,0,0-.07-.18.3.3,0,0,0-.46.09.22.22,0,0,0-.05.08.2.2,0,0,0,0,.15s0,0,0,0a.23.23,0,0,0,.18.15.35.35,0,0,0,.35-.17A.22.22,0,0,0,51.81,109.7Z"/><path class="cls-7" d="M50.32,109.78l0-.13a.16.16,0,0,0-.07-.09.09.09,0,0,0,0,0v0a.13.13,0,0,0,0-.12.21.21,0,0,0-.11-.08.18.18,0,0,0-.29.1.41.41,0,0,0,0,.22.31.31,0,0,1,0,.08.2.2,0,0,0,0,.07.39.39,0,0,0,0,.21.16.16,0,0,0,.28,0h0A.17.17,0,0,0,50.32,109.78Z"/><path class="cls-9" d="M105.46,35.5l-1.87-.07-.11,2.16,1.88.11Z"/><path class="cls-10" d="M105.36,37.7l-1.88-.11-.15,2.15,1.87.16Z"/><path class="cls-9" d="M105,42c.09-.69.16-1.38.22-2.07l-1.87-.16c-.06.69-.13,1.37-.22,2A5,5,0,0,1,105,42Z"/><path class="cls-10" d="M105,42a5,5,0,0,0-1.87-.18c-.08.74-.2,1.47-.32,2.2l1.85.32C104.77,43.53,104.89,42.75,105,42Z"/><path class="cls-10" d="M104.17,46.56a14.44,14.44,0,0,0-1.85-.32c-.16.63-.33,1.25-.53,1.87l1.79.56C103.81,48,104,47.27,104.17,46.56Z"/><path class="cls-9" d="M103.58,48.67l-1.79-.56c-.2.67-.47,1.32-.71,2l1.74.7C103.08,50.09,103.37,49.39,103.58,48.67Z"/><path class="cls-10" d="M102,52.65c.31-.6.56-1.24.84-1.86l-1.74-.7c-.28.61-.52,1.24-.84,1.84A18.45,18.45,0,0,1,102,52.65Z"/><path class="cls-9" d="M102,52.65a18.45,18.45,0,0,0-1.74-.72c-.24.43-.44.89-.7,1.31l1.62.93C101.47,53.68,101.7,53.15,102,52.65Z"/><path class="cls-10" d="M101.16,54.17l-1.62-.93c-.36.6-.72,1.21-1.13,1.78L100,56.08C100.4,55.46,100.78,54.82,101.16,54.17Z"/><path class="cls-9" d="M100,56.08,98.41,55c-.38.59-.82,1.14-1.25,1.7l1.47,1.17C99.08,57.29,99.56,56.71,100,56.08Z"/><path class="cls-10" d="M98.63,57.89l-1.47-1.17c-.44.54-.9,1.08-1.38,1.59l1.37,1.28C97.66,59,98.15,58.47,98.63,57.89Z"/><path class="cls-9" d="M97.15,59.59l-1.37-1.28c-.49.51-1,1-1.5,1.49l1.27,1.38C96.12,60.68,96.63,60.13,97.15,59.59Z"/><path class="cls-10" d="M95.55,61.18,94.28,59.8c-.51.49-1.06.93-1.6,1.37l1.16,1.47C94.42,62.17,95,61.7,95.55,61.18Z"/><path class="cls-9" d="M93.84,62.64l-1.16-1.47c-.55.44-1.13.84-1.7,1.24L92,64C92.64,63.54,93.25,63.11,93.84,62.64Z"/><path class="cls-10" d="M92,64l-1-1.56c-.6.38-1.18.78-1.8,1.11l.92,1.63C90.77,64.8,91.39,64.37,92,64Z"/><path class="cls-9" d="M90.1,65.15l-.92-1.63a26.65,26.65,0,0,1-2.51,1.25c.23.55.5,1.16.74,1.72A29.29,29.29,0,0,0,90.1,65.15Z"/><path class="cls-10" d="M86.67,64.77c-.9.39-1.82.72-2.75,1l.54,1.79a30.64,30.64,0,0,0,3-1.09C87.17,65.93,86.9,65.32,86.67,64.77Z"/><path class="cls-9" d="M102.79,44c-.14.75-.29,1.5-.47,2.25a14.44,14.44,0,0,1,1.85.32c.18-.74.33-1.5.47-2.25Z"/><path class="cls-10" d="M105.53,33.69l-1.88-.06-.06,1.8,1.87.07Z"/><path class="cls-11" d="M105.53,33.69l-1,0-.06,1.8,1,0Z"/><path d="M105.46,35.5l-1,0-.11,2.18,1,.06Z"/><path class="cls-11" d="M105.36,37.7l-1-.06-.16,2.18,1,.08Z"/><path d="M105,42c.09-.69.16-1.38.22-2.07l-1-.08-.2,2A2.54,2.54,0,0,1,105,42Z"/><path class="cls-11" d="M105,42a2.54,2.54,0,0,0-1-.18c-.09.79-.22,1.57-.35,2.35l1,.17C104.77,43.53,104.89,42.75,105,42Z"/><path class="cls-11" d="M104.17,46.56a6.94,6.94,0,0,0-1-.19c-.17.67-.35,1.34-.56,2l.94.3C103.81,48,104,47.27,104.17,46.56Z"/><path d="M103.58,48.67l-.94-.3c-.21.7-.49,1.37-.74,2.05l.92.37C103.08,50.09,103.37,49.39,103.58,48.67Z"/><path class="cls-11" d="M102,52.65c.31-.6.56-1.24.84-1.86l-.92-.37c-.28.61-.52,1.24-.83,1.83C101.37,52.37,101.68,52.5,102,52.65Z"/><path d="M102,52.65c-.3-.15-.61-.28-.91-.4-.26.47-.48,1-.76,1.43l.85.49C101.47,53.68,101.7,53.15,102,52.65Z"/><path class="cls-11" d="M98.63,57.89l-.77-.62c-.46.57-.94,1.12-1.43,1.65l.72.67C97.66,59,98.15,58.47,98.63,57.89Z"/><path d="M97.15,59.59l-.72-.67c-.51.52-1,1-1.55,1.53.23.24.45.49.67.73C96.12,60.68,96.63,60.13,97.15,59.59Z"/><path class="cls-11" d="M95.55,61.18c-.22-.24-.44-.49-.67-.73-.52.5-1.09,1-1.65,1.41l.61.78C94.42,62.17,95,61.7,95.55,61.18Z"/><path class="cls-11" d="M92,64l-.55-.82c-.61.39-1.21.8-1.86,1.14l.49.86C90.77,64.8,91.39,64.37,92,64Z"/><path d="M90.1,65.15l-.49-.86A27.23,27.23,0,0,1,87,65.59l.39.9A29.29,29.29,0,0,0,90.1,65.15Z"/><path class="cls-11" d="M87,65.59c-.93.4-1.88.74-2.85,1l.29.94a30.64,30.64,0,0,0,3-1.09Z"/><path d="M93.84,62.64l-.61-.78c-.57.46-1.17.87-1.76,1.29L92,64C92.64,63.54,93.25,63.11,93.84,62.64Z"/><path d="M100,56.08l-.81-.56c-.4.61-.85,1.18-1.29,1.75l.77.62C99.08,57.29,99.56,56.71,100,56.08Z"/><path class="cls-11" d="M101.16,54.17l-.85-.49c-.37.62-.74,1.25-1.16,1.84l.81.56C100.4,55.46,100.78,54.82,101.16,54.17Z"/><path d="M103.66,44.14c-.13.75-.28,1.49-.46,2.23a6.94,6.94,0,0,1,1,.19c.18-.74.33-1.5.47-2.25Z"/><path class="cls-9" d="M102.91,29.92,101,29.85,100.93,32l1.87.11Z"/><path class="cls-10" d="M102.8,32.12,100.93,32l-.16,2.15,1.87.16Z"/><path class="cls-9" d="M102.43,36.38c.09-.68.15-1.37.21-2.06l-1.87-.16c0,.69-.12,1.37-.21,2.05A5.28,5.28,0,0,1,102.43,36.38Z"/><path class="cls-10" d="M102.43,36.38a5.28,5.28,0,0,0-1.87-.17c-.09.74-.2,1.47-.32,2.19l1.84.33C102.21,38,102.34,37.17,102.43,36.38Z"/><path class="cls-10" d="M101.61,41a15.92,15.92,0,0,0-1.85-.33c-.15.63-.32,1.26-.52,1.87l1.79.57C101.25,42.39,101.44,41.69,101.61,41Z"/><path class="cls-9" d="M101,43.09l-1.79-.57c-.2.68-.47,1.32-.71,2l1.74.71C100.52,44.51,100.81,43.81,101,43.09Z"/><path class="cls-10" d="M99.42,47.07c.32-.61.56-1.24.85-1.86l-1.74-.71c-.29.62-.52,1.25-.84,1.84C98.23,46.56,98.84,46.77,99.42,47.07Z"/><path class="cls-9" d="M99.42,47.07c-.58-.3-1.19-.51-1.73-.73-.24.44-.44.89-.71,1.31l1.63.94C98.91,48.1,99.15,47.57,99.42,47.07Z"/><path class="cls-10" d="M98.61,48.59,97,47.65a20.63,20.63,0,0,1-1.12,1.79l1.55,1.05C97.85,49.88,98.23,49.23,98.61,48.59Z"/><path class="cls-9" d="M97.41,50.49l-1.55-1.05c-.38.59-.82,1.14-1.25,1.7l1.46,1.17C96.53,51.71,97,51.13,97.41,50.49Z"/><path class="cls-10" d="M96.07,52.31l-1.46-1.17c-.44.54-.9,1.08-1.38,1.59L94.6,54C95.11,53.46,95.6,52.89,96.07,52.31Z"/><path class="cls-9" d="M94.6,54l-1.37-1.28c-.49.5-1,1-1.5,1.48.4.45.85.93,1.27,1.38C93.56,55.1,94.08,54.55,94.6,54Z"/><path class="cls-10" d="M93,55.59c-.42-.45-.87-.93-1.27-1.38-.51.49-1.06.93-1.61,1.38l1.17,1.47C91.87,56.59,92.45,56.11,93,55.59Z"/><path class="cls-9" d="M91.29,57.06l-1.17-1.47c-.54.44-1.12.84-1.7,1.24l1,1.56C90.08,58,90.7,57.53,91.29,57.06Z"/><path class="cls-10" d="M89.47,58.39l-1-1.56a20.6,20.6,0,0,1-1.8,1.1l.93,1.64C88.21,59.22,88.83,58.79,89.47,58.39Z"/><path class="cls-9" d="M87.55,59.57l-.93-1.64a22.63,22.63,0,0,1-2.51,1.26l.75,1.72C85.77,60.5,86.68,60.07,87.55,59.57Z"/><path class="cls-10" d="M84.11,59.19c-.89.39-1.82.71-2.75,1L81.91,62a30.64,30.64,0,0,0,3-1.09Z"/><path class="cls-9" d="M100.24,38.4c-.14.76-.29,1.51-.48,2.25a15.92,15.92,0,0,1,1.85.33c.19-.75.34-1.5.47-2.25Z"/><path class="cls-10" d="M103,28.11l-1.88-.06-.06,1.8,1.87.07Z"/><path class="cls-11" d="M103,28.11l-1,0-.07,1.8,1,0Z"/><path d="M102.91,29.92l-1,0-.1,2.18,1,.06Z"/><path class="cls-11" d="M102.8,32.12l-1-.06-.16,2.18,1,.08Z"/><path d="M102.43,36.38c.09-.68.15-1.37.21-2.06l-1-.08-.21,2A2.8,2.8,0,0,1,102.43,36.38Z"/><path class="cls-11" d="M102.43,36.38a2.8,2.8,0,0,0-1-.17c-.09.79-.21,1.57-.34,2.35l1,.17C102.21,38,102.34,37.17,102.43,36.38Z"/><path class="cls-11" d="M101.61,41a6.37,6.37,0,0,0-1-.2c-.16.68-.34,1.35-.55,2l.94.3C101.25,42.39,101.44,41.69,101.61,41Z"/><path d="M101,43.09l-.94-.3c-.21.7-.49,1.37-.74,2.05l.92.37C100.52,44.51,100.81,43.81,101,43.09Z"/><path class="cls-11" d="M99.42,47.07c.32-.61.56-1.24.85-1.86l-.92-.37c-.28.61-.52,1.23-.83,1.83A7.08,7.08,0,0,1,99.42,47.07Z"/><path d="M99.42,47.07a7.08,7.08,0,0,0-.9-.4c-.26.47-.48,1-.77,1.43l.86.49C98.91,48.1,99.15,47.57,99.42,47.07Z"/><path class="cls-11" d="M96.07,52.31l-.77-.62c-.46.56-.93,1.11-1.42,1.65l.72.67C95.11,53.46,95.6,52.89,96.07,52.31Z"/><path d="M94.6,54l-.72-.67c-.51.52-1,1-1.55,1.53l.67.72C93.56,55.1,94.08,54.55,94.6,54Z"/><path class="cls-11" d="M93,55.59l-.67-.72c-.53.5-1.09,1-1.66,1.41l.62.78C91.87,56.59,92.45,56.11,93,55.59Z"/><path class="cls-11" d="M89.47,58.39c-.18-.27-.37-.54-.55-.82-.62.38-1.22.8-1.86,1.14l.49.86C88.21,59.22,88.83,58.79,89.47,58.39Z"/><path d="M87.55,59.57l-.49-.86A28.38,28.38,0,0,1,84.47,60l.39.91C85.77,60.5,86.68,60.07,87.55,59.57Z"/><path class="cls-11" d="M84.47,60a29.53,29.53,0,0,1-2.85,1l.29,1a30.64,30.64,0,0,0,3-1.09Z"/><path d="M91.29,57.06l-.62-.78c-.56.46-1.16.87-1.75,1.29.18.28.37.55.55.82C90.08,58,90.7,57.53,91.29,57.06Z"/><path d="M97.41,50.49l-.82-.55c-.39.61-.85,1.17-1.29,1.75l.77.62C96.53,51.71,97,51.13,97.41,50.49Z"/><path class="cls-11" d="M98.61,48.59l-.86-.49c-.37.62-.73,1.25-1.16,1.84l.82.55C97.85,49.88,98.23,49.23,98.61,48.59Z"/><path d="M101.11,38.56c-.14.74-.28,1.49-.47,2.22a6.37,6.37,0,0,1,1,.2c.19-.75.34-1.5.47-2.25Z"/><rect class="cls-12" width="93.22" height="69.92" rx="2.45"/><rect class="cls-13" x="3.11" y="2.97" width="87.15" height="64.13"/><rect x="4.52" y="4.52" width="83.9" height="60.74"/><path class="cls-14" d="M6.22,6.36l80.09.28.14,50.14S59,58.05,49.16,44.49,38.11,24.31,25,23C6.36,21.19,6.22,6.36,6.22,6.36Z"/><path class="cls-15" d="M90.26.85,68.54,1.1l-21.71.12c-14.48,0-29,.23-43.44.15h0a2.51,2.51,0,0,0-1.52.84A2.58,2.58,0,0,0,1.5,4L1.45,8.09l-.08,8.29L1.19,33C1.11,44,.91,55.06.71,66.11.65,55.05.6,44,.67,33l0-16.57,0-8.29L.76,4a3.23,3.23,0,0,1,.57-2.2,3.17,3.17,0,0,1,2-1.14h.05c14.48-.12,29,0,43.43,0l21.72,0Z"/><path class="cls-16" d="M90.26,2.65,53,2.8q-18.61.08-37.22.31,18.62.18,37.22.16l36.9,0L90,34.18c0,10.41.11,20.81.22,31.22.11-10.41.21-20.81.22-31.22L90.58,3V2.65Z"/><rect class="cls-13" x="92.76" y="0.38" width="29.23" height="36.6" rx="4.97"/><path class="cls-17" d="M108.86,2.12C104.21,9.81,99,17.23,94.15,24.82V17.38C96.41,12.25,99,7.22,101.58,2.12Zm7.25,0h-.5c-6.49,11-11.38,22.06-17.31,33.08.11,0,.23,0,.35,0h4.28c5.89-9.63,11.77-19.35,17.65-28.89A4.48,4.48,0,0,0,116.11,2.12Zm-2.46,33.12h2.46a4.5,4.5,0,0,0,4.5-4.49V22.28C118.18,26.62,115.85,30.92,113.65,35.24Z"/><path class="cls-18" d="M94.18,30.72c-.27-4-.4-8.09-.5-12.14s-.11-8.06-.15-12.16a5.13,5.13,0,0,1,4.26-4.79,27.76,27.76,0,0,1,3.13,0c1,0,2,0,3,.06,4,.11,8.1.24,12.14.51-4,.28-8.09.4-12.14.51-2,.11-4.15,0-6,.16a3.86,3.86,0,0,0-3.14,3.65c-.07,4,0,8.08-.16,12.11S94.45,26.67,94.18,30.72Z"/><path class="cls-19" d="M105.57,29.23a2.76,2.76,0,0,1-2.11-1,3.06,3.06,0,0,1-.67-2.34l.66-5.34a6.59,6.59,0,0,1-1.56-4.26,6.06,6.06,0,1,1,12.1,0,6.59,6.59,0,0,1-1.65,4.37l.86,5.1a3.07,3.07,0,0,1-.62,2.42,2.73,2.73,0,0,1-2.15,1.06Z"/><path class="cls-20" d="M105.57,28.15a1.74,1.74,0,0,1-1.34-.64A2,2,0,0,1,103.8,26l.73-5.86a5.41,5.41,0,0,1-1.62-3.88,5,5,0,1,1,10.06,0,5.42,5.42,0,0,1-1.73,4l1,5.67a2,2,0,0,1-.39,1.54,1.77,1.77,0,0,1-1.37.67Z"/><path d="M110.76,26.67h-5.49l1-7.47a3.65,3.65,0,1,1,3.21.1Z"/><path class="cls-10" d="M62.32,33.8a2.86,2.86,0,0,0-2.69-2H35.05a2.77,2.77,0,0,0-2.6,1.74c-2.77,7.32-2.51,15,.09,23a2.8,2.8,0,0,0,2.51,1.9c7.76.39,15.94.35,24.46,0a2.82,2.82,0,0,0,2.6-2.08C64.26,48.08,64.58,40.47,62.32,33.8ZM50.15,52.57H44.52l1-7.66a3.74,3.74,0,1,1,3.28.1Z"/><path class="cls-10" d="M39.78,51.3a1.81,1.81,0,0,1-1.49-.77,11.31,11.31,0,0,1-2-6.46V28.35a11.4,11.4,0,0,1,22.79,0V32a1.81,1.81,0,0,1-3.61,0V28.35a7.79,7.79,0,1,0-15.57,0V44.07a7.7,7.7,0,0,0,1.38,4.4A1.8,1.8,0,0,1,40.8,51,1.76,1.76,0,0,1,39.78,51.3Z"/></g></g></svg>