<svg xmlns="http://www.w3.org/2000/svg" viewBox="0 0 122.09 114.29"><style><![CDATA[.S{fill:#4e576b}.T{fill:#ed1c24}.U{fill:#ce181e}.V{fill:#a46f1c}.W{fill:#e0af68}]]></style><defs><linearGradient id="A" x1="106.74" y1="35.92" x2="108.77" y2="2.85" gradientUnits="userSpaceOnUse"><stop offset="0" stop-color="#b5b7b9" stop-opacity="0"/><stop offset="1" stop-color="#b5b7b9"/></linearGradient><linearGradient id="B" x1="46.37" y1="56.86" x2="46.37" y2="6.36" gradientUnits="userSpaceOnUse"><stop offset="0" stop-color="#fff" stop-opacity="0"/><stop offset="1" stop-color="#fff" stop-opacity=".5"/></linearGradient></defs><path d="M105.54 35.53l-1.87-.08-.1 2.17 1.87.1z" class="S"/><path d="M105.43 37.73l-1.87-.1-.15 2.15 1.87.16z" class="T"/><path d="M105.06 42l.22-2.07-1.87-.16-.22 2.06a5 5 0 0 1 1.87.17z" class="S"/><path d="M105.06 42a5 5 0 0 0-1.87-.17l-.32 2.2 1.84.33.35-2.35zm-.8 4.6a16.51 16.51 0 0 0-1.86-.33l-.52 1.87 1.8.57.6-2.1z" class="T"/><path d="M103.66 48.7l-1.8-.57c-.2.68-.47 1.32-.7 2l1.74.7.76-2.14z" class="S"/><path d="M102.05 52.7c.32-.6.56-1.24.85-1.86l-1.74-.7-.85 1.84 1.74.73z" class="T"/><path d="M102.05 52.7c-.58-.3-1.2-.5-1.74-.73l-.7 1.32 1.63.93c.3-.5.54-1.02.8-1.52z" class="S"/><path d="M101.24 54.2l-1.63-.93-1.12 1.78 1.5 1.06c.47-.6.86-1.26 1.24-1.9z" class="T"/><path d="M100 56.12l-1.55-1.06c-.38.6-.83 1.14-1.25 1.7l1.46 1.17c.5-.6.97-1.18 1.34-1.8z" class="S"/><path d="M98.7 57.93l-1.46-1.17-1.4 1.6 1.38 1.28q.77-.82 1.47-1.7z" class="T"/><path d="M97.23 59.64l-1.38-1.28-1.5 1.48 1.27 1.38c.57-.5 1.08-1.04 1.6-1.58z" class="S"/><path d="M95.62 61.22l-1.27-1.38c-.5.5-1.06.93-1.6 1.37l1.16 1.48 1.7-1.47z" class="T"/><path d="M93.9 62.7l-1.16-1.48c-.55.45-1.13.85-1.7 1.25l1 1.56 1.87-1.33z" class="S"/><path d="M92.1 64l-1-1.56-1.8 1.1.92 1.64c.62-.33 1.23-.76 1.87-1.18z" class="T"/><path d="M90.17 65.2l-.92-1.64a23.69 23.69 0 0 1-2.52 1.26l.75 1.72 2.7-1.34z" class="S"/><path d="M86.73 64.82a25.14 25.14 0 0 1-2.75 1l.54 1.8 3-1.1c-.3-.52-.52-1.15-.8-1.7z" class="T"/><path d="M102.87 44l-.48 2.25a16.51 16.51 0 0 1 1.86.33l.46-2.25z" class="S"/><path d="M105.6 33.72l-1.88-.07-.06 1.8 1.87.08z" class="T"/><path d="M105.6 33.72h-1l-.07 1.8h1z" class="U"/><path d="M105.54 35.53h-1l-.1 2.18 1 .06z"/><path d="M105.43,37.73l-1-.06-.16,2.18,1,.08Z" class="U"/><path d="M105.06 42l.22-2.07-1-.08-.2 2a2.58 2.58 0 0 1 .98.15z"/><path d="M105.06 42a2.58 2.58 0 0 0-1-.18l-.35 2.35 1 .18.35-2.35zm-.8 4.6a6.92 6.92 0 0 0-1-.2l-.56 2 .94.3c.26-.7.44-1.4.62-2.1z" class="U"/><path d="M103.66 48.7l-.94-.3c-.2.7-.5 1.37-.74 2.05l.92.37.76-2.12z"/><path d="M102.05 52.7c.32-.6.56-1.24.85-1.86l-.92-.37-.83 1.83a8.85 8.85 0 0 1 .9.4z" class="U"/><path d="M102.05 52.7a8.85 8.85 0 0 0-.9-.4l-.77 1.43.86.5c.3-.5.54-1.02.8-1.52z"/><path d="M98.7 57.93l-.77-.6-1.43 1.64.73.68q.77-.82 1.47-1.7z" class="U"/><path d="M97.23 59.64L96.5 59l-1.55 1.53.67.73 1.6-1.62z"/><path d="M95.62 61.22L95 60.5a19.71 19.71 0 0 1-1.65 1.42l.6.78 1.66-1.47zM92.1 64l-.55-.82-1.86 1.14.5.86c.67-.33 1.28-.76 1.92-1.18z" class="U"/><path d="M90.17 65.2l-.5-.86a27.32 27.32 0 0 1-2.6 1.29l.4.9 2.7-1.34z"/><path d="M87.08 65.63a29.42 29.42 0 0 1-2.84 1.06l.28.94 3-1.1z" class="U"/><path d="M93.9 62.7l-.6-.78-1.76 1.3.55.82 1.82-1.33zm6.1-6.58l-.82-.56-1.3 1.76.77.6c.5-.6.97-1.18 1.34-1.8z"/><path d="M101.24 54.2l-.86-.5-1.16 1.84.82.56c.43-.6.82-1.26 1.2-1.9z" class="U"/><path d="M103.74 44.17l-.46 2.23a6.92 6.92 0 0 1 1 .2l.46-2.25z"/><path d="M103 29.94l-1.88-.07L101 32l1.87.1z" class="S"/><path d="M102.88,32.14,101,32l-.16,2.15,1.87.17Z" class="T"/><path d="M102.5 36.4l.2-2.06-1.87-.17-.2 2.06a5.05 5.05 0 0 1 1.87.17z" class="S"/><path d="M102.5 36.4a5.05 5.05 0 0 0-1.87-.17l-.33 2.2 1.85.33.35-2.35zm-.8 4.6a16.31 16.31 0 0 0-1.85-.33l-.52 1.88 1.78.56.6-2.1z" class="T"/><path d="M101.1 43.12l-1.78-.56-.72 2 1.74.7.76-2.15z" class="S"/><path d="M99.5 47.1c.3-.6.56-1.24.84-1.85l-1.74-.7-.84 1.84 1.74.72z" class="T"/><path d="M99.5 47.1c-.6-.3-1.2-.5-1.74-.72l-.7 1.3 1.62.93c.32-.5.54-1 .82-1.52z" class="S"/><path d="M98.68 48.62l-1.62-.93-1.13 1.8 1.55 1.05c.44-.6.82-1.26 1.2-1.9z" class="T"/><path d="M97.48 50.53l-1.55-1.05c-.38.6-.82 1.14-1.25 1.7l1.47 1.18 1.33-1.82z" class="S"/><path d="M96.15 52.35l-1.47-1.18-1.38 1.6 1.37 1.28 1.48-1.7z" class="T"/><path d="M94.67 54.05l-1.37-1.28-1.5 1.5 1.27 1.38c.56-.5 1.08-1.05 1.6-1.6z" class="S"/><path d="M93.07 55.64l-1.27-1.38c-.5.48-1.06.92-1.6 1.37l1.16 1.47 1.72-1.46z" class="T"/><path d="M91.35 57.1l-1.16-1.47-1.7 1.25 1.05 1.55 1.8-1.33z" class="S"/><path d="M89.54 58.43l-1.05-1.55-1.8 1.1.92 1.63c.67-.35 1.3-.78 1.93-1.18z" class="T"/><path d="M87.6 59.6L86.7 58a26.65 26.65 0 0 1-2.51 1.25l.74 1.73a26 26 0 0 0 2.69-1.37z" class="S"/><path d="M84.18 59.23a27.72 27.72 0 0 1-2.76 1l.55 1.8 3-1.1c-.3-.55-.56-1.16-.8-1.7z" class="T"/><path d="M100.3 38.43l-.47 2.25a16.31 16.31 0 0 1 1.85.33l.47-2.25z" class="S"/><path d="M103.05,28.13l-1.87-.06-.07,1.8,1.88.07Z" class="T"/><path d="M103.05 28.13h-1L102 29.9h1z" class="U"/><path d="M103 29.94h-1l-.1 2.18 1 .06z"/><path d="M102.88 32.14l-1-.06-.16 2.18 1 .1z" class="U"/><path d="M102.5 36.4l.2-2.06-1-.1-.2 2a2.8 2.8 0 0 1 .99.15z"/><path d="M102.5 36.4a2.8 2.8 0 0 0-1-.17l-.35 2.35 1 .17.35-2.35zm-.8 4.6a6.64 6.64 0 0 0-1-.2l-.56 2 .94.3c.26-.68.45-1.38.62-2.1z" class="U"/><path d="M101.1 43.12l-.94-.3c-.2.7-.5 1.37-.73 2l.9.38.76-2.08z"/><path d="M99.5 47.1c.3-.6.56-1.24.84-1.85l-.9-.38-.84 1.83.9.4z" class="U"/><path d="M99.5 47.1l-.9-.4-.76 1.43.85.5c.32-.5.54-1 .82-1.52z"/><path d="M96.15 52.35l-.78-.62-1.42 1.65.72.67 1.48-1.7z" class="U"/><path d="M94.67 54.05l-.67-.67-1.55 1.53.67.73 1.55-1.6z"/><path d="M93.07 55.64l-.67-.73c-.53.5-1.1 1-1.66 1.4l.6.78 1.72-1.46zm-3.53 2.8L89 57.6l-1.85 1.14.48.86c.65-.35 1.27-.78 1.9-1.18z" class="U"/><path d="M87.6 59.6l-.48-.86a28.65 28.65 0 0 1-2.6 1.3l.4.9a26 26 0 0 0 2.69-1.35z"/><path d="M84.53 60.05c-.93.4-1.9.74-2.85 1.05l.3.95 3-1.1z" class="U"/><path d="M91.35 57.1l-.6-.78c-.56.46-1.16.87-1.76 1.3l.56.82 1.8-1.33zm6.13-6.57l-.8-.53c-.4.6-.86 1.17-1.3 1.75l.78.62 1.33-1.84z"/><path d="M98.68 48.62l-.85-.5-1.16 1.85.8.55c.44-.6.82-1.26 1.2-1.9z" class="U"/><path d="M101.18 38.6l-.46 2.22a6.64 6.64 0 0 1 1 .2l.47-2.25z"/><rect x="92.83" y=".38" width="29.25" height="36.63" rx="4.97" fill="#6d6e71"/><path d="M108.94 2.12c-4.65 7.7-9.85 15.13-14.72 22.72V17.4c2.26-5.13 4.84-10.16 7.44-15.27zm7.26 0h-.5c-6.5 11-11.38 22.07-17.32 33.1H103l17.66-28.9a4.49 4.49 0 0 0-4.46-4.2zm-2.46 33.15h2.46a4.51 4.51 0 0 0 4.5-4.5V22.3c-2.43 4.35-4.77 8.7-6.96 12.98z" fill="url(#A)"/><path d="M105.65 29.25a2.74 2.74 0 0 1-2.11-1 3.06 3.06 0 0 1-.67-2.34l.66-5.35a6.53 6.53 0 0 1-1.53-4.27 6.06 6.06 0 1 1 12.1 0 6.54 6.54 0 0 1-1.65 4.37l.86 5.1a3.06 3.06 0 0 1-.61 2.42 2.76 2.76 0 0 1-2.15 1.06z" fill="#c5c7c9"/><path d="M105.65,28.17a1.74,1.74,0,0,1-1.34-.64,2,2,0,0,1-.43-1.49l.73-5.87A5.39,5.39,0,0,1,103,16.29a5,5,0,1,1,10.06,0,5.46,5.46,0,0,1-1.73,4l1,5.67a2,2,0,0,1-.39,1.54,1.75,1.75,0,0,1-1.37.67Z" fill="#58595b"/><path d="M110.84 26.7h-5.5l1-7.48a3.65 3.65 0 1 1 3.21.1z"/><path d="M57 87.9h-3.75c-1 0-1.9.16-2.85.23a29 29 0 0 1-3.87.08 50.16 50.16 0 0 1-5.2-.14 13.13 13.13 0 0 0-2 0 1.93 1.93 0 0 1-2.23-2 10.9 10.9 0 0 1 0-1.4l.2-8.83-.15-6a4.57 4.57 0 0 1 0-.64 1 1 0 0 1 1.09-1h1.36c2.7-.12 9.07.07 12.6.06a37.87 37.87 0 0 0 4-.06c1.38-.07 1.74.6 2 1.72a14.54 14.54 0 0 1 0 3.23c0 2.74-.15 5.47-.07 8.2a32.67 32.67 0 0 1 .25 4.66c-.02 1.3-.72 1.9-1.37 1.9z" class="V"/><path d="M57.4 69.14a2.43 2.43 0 0 0-.76-.17l-4.92.07c-2.87 0-6 0-7.7-.13s-3.46-.06-5.2-.07a.91.91 0 0 0-1 1l.16 9.8v3.16a15.37 15.37 0 0 0 0 3.65c.1.7.4 1 1.14 1 .43 0 .86-.05 1.28 0l7.8.1a3.65 3.65 0 0 0 1.27-.08c1.72-.16 1.43-.4 3.13-.24 3 .26 1.75 0 4.16 0 .34 0 .7 0 1-.38a20.17 20.17 0 0 0 0-4 11.48 11.48 0 0 1-.17-2.11l.1-5.18a28.35 28.35 0 0 1 .1-3.44 5.2 5.2 0 0 0-.41-2.99z" fill="#b17a1a"/><path d="M45.9 77.93c-.5-.1-1.06-.44-1.58-.33a2.13 2.13 0 0 0-.76.46c-.45.36-.92 1.17-.46 1.7.26.3.7.24 1 .22s.45-.18.66-.55.5-.42.86-.66.6-.63.28-.84zm1.94 6.83c0 .42.2.54.6.7s.86.28 1.1 0a2.69 2.69 0 0 0 .27-.72 1.75 1.75 0 0 1 .2-.57c.1-.15.32-.15.42-.3a.67.67 0 0 0-.19-.78 1.27 1.27 0 0 0-1.47-.31c-.77.4-.95 1.6-.93 2zm-7.96-3.16a3.27 3.27 0 0 0-.42 2.12c0 .58 0 1.7.7 1.86 1.13.23.57-1.1.53-1.58a2.88 2.88 0 0 1 .22-1.44c.17-.4.4-.66.1-1s-1.16-.25-1.13.04zM53.4 81a1.23 1.23 0 0 0-.92.57c-.15.28-.43.76-.3 1.08.18.5.7.5 1.12.5a1.19 1.19 0 0 0 1.21-.66c.36-.47 1-1.37 0-1.53-.37-.03-.7.04-1.1.04zm-13.46-8.62c-.07.45-.22 1.15.14 1.5a2.2 2.2 0 0 0 1.39.35 1.41 1.41 0 0 0 .37-.36c.25-.42-.12-.64-.08-1 .08-.78 1.85-.9 1.62-1.93-.1-.44-.75-.52-1.12-.56-.8-.08-2.2.06-2.22 1.1a6.75 6.75 0 0 1-.1.89zm2.78.5c-.43.1 0 .67.38.65a.44.44 0 0 0 .43-.53c-.1-.4-1-.5-.94 0m8.63 3c-.22.27-.66.6-.15.83a.92.92 0 0 0 1.07-.31c.33-.68-.56-.8-.92-.48" class="W"/><path d="M46 78.12c-.5-.1-1.07-.45-1.6-.34a2.24 2.24 0 0 0-.76.47c-.45.35-.92 1.16-.45 1.7.25.3.7.23 1 .22s.44-.2.65-.55.52-.43.86-.66.65-.64.3-.84zM48 85c0 .42.22.54.6.7s.86.28 1.1 0a2.83 2.83 0 0 0 .26-.71 1.9 1.9 0 0 1 .2-.58c.12-.14.32-.14.42-.3a.67.67 0 0 0-.18-.79 1.28 1.28 0 0 0-1.5-.32c-.76.34-.9 1.55-.9 2zm-7.93-3.24a3.26 3.26 0 0 0-.42 2.12c0 .58 0 1.7.7 1.86 1.13.23.56-1.1.53-1.58a3.05 3.05 0 0 1 .21-1.45c.18-.4.4-.65.1-1s-1.2-.24-1.12.05zm13.43-.56a1.25 1.25 0 0 0-.91.58c-.16.27-.43.75-.32 1.08.2.5.7.5 1.13.5.7 0 .83-.17 1.2-.67s1-1.37 0-1.52c-.37-.05-.7.06-1.1.03zm-13.44-8.63c-.06.44-.22 1.15.15 1.5a2.24 2.24 0 0 0 1.38.36 1.16 1.16 0 0 0 .37-.36c.26-.42-.1-.64-.08-1 .08-.78 1.86-.9 1.62-1.92-.1-.44-.75-.52-1.12-.56-.78-.08-2.2.06-2.22 1.1a5.39 5.39 0 0 1-.1.89zm2.78.5c-.42.1 0 .67.4.66a.43.43 0 0 0 .42-.53c-.1-.42-1-.5-.94 0m8.62 2.97c-.22.26-.65.6-.14.82a.89.89 0 0 0 1.06-.31c.34-.68-.56-.8-.92-.48" fill="#93611a"/><g class="V"><path d="M57 107a33.39 33.39 0 0 1-3.75 0c-1 0-1.9.17-2.85.24a29 29 0 0 1-3.87.08 50.16 50.16 0 0 1-5.2-.14 13.13 13.13 0 0 0-2 0 1.93 1.93 0 0 1-2.23-2 11.06 11.06 0 0 1 0-1.41l.2-8.83-.15-6a4.57 4.57 0 0 1 0-.64 1 1 0 0 1 1.09-1h1.36c2.7-.13 9.07.07 12.6.06a37.87 37.87 0 0 0 4-.06c1.38-.07 1.74.58 2 1.72a14.54 14.54 0 0 1 0 3.23c0 2.73-.15 5.47-.07 8.2a32.62 32.62 0 0 1 .17 4.64c.06 1.3-.64 1.92-1.3 1.92z"/><path d="M57.4 88.2a2.41 2.41 0 0 0-.76-.16l-4.92.07c-2.87 0-6-.05-7.7-.13l-5.2-.07a.91.91 0 0 0-1 1l.16 9.8v3.15a15.45 15.45 0 0 0 0 3.66c.1.7.4 1 1.14 1h1.28l7.8.1a3.65 3.65 0 0 0 1.27-.08c1.72-.16 1.43-.4 3.13-.24 3 .26 1.75 0 4.16 0 .34 0 .7 0 1-.38a20.27 20.27 0 0 0 0-4.05 11.3 11.3 0 0 1-.17-2.1l.1-5.18a28.3 28.3 0 0 1 .1-3.44 5.25 5.25 0 0 0-.41-2.96z"/></g><path d="M45.9 97c-.5-.1-1.06-.44-1.58-.33a2.13 2.13 0 0 0-.76.46c-.45.35-.92 1.16-.46 1.7.26.3.7.24 1 .22s.45-.2.66-.55.5-.43.86-.66.6-.62.28-.84zm1.94 6.84c0 .42.2.54.6.7s.86.28 1.1 0a2.69 2.69 0 0 0 .27-.72 1.9 1.9 0 0 1 .2-.58c.1-.14.32-.14.42-.3a.67.67 0 0 0-.19-.78 1.27 1.27 0 0 0-1.47-.31c-.77.4-.95 1.6-.93 2zm-7.96-3.14a3.26 3.26 0 0 0-.42 2.12c0 .58 0 1.7.7 1.86 1.13.23.57-1.1.53-1.58a2.94 2.94 0 0 1 .22-1.45c.17-.4.4-.65.1-1s-1.16-.24-1.13.05zm13.52-.6a1.23 1.23 0 0 0-.92.57c-.15.27-.43.76-.3 1.08.18.5.7.5 1.12.5a1.19 1.19 0 0 0 1.21-.66c.36-.47 1-1.37 0-1.53-.37-.06-.7.06-1.1.04zm-13.46-8.64c-.07.45-.22 1.15.14 1.5a2.15 2.15 0 0 0 1.39.36 1.41 1.41 0 0 0 .37-.36c.25-.42-.12-.64-.08-1 .08-.78 1.85-.9 1.62-1.92-.1-.44-.75-.52-1.12-.56-.8-.08-2.2.06-2.22 1.1a6.74 6.74 0 0 1-.1.89zm2.78.54c-.43.1 0 .67.38.66a.44.44 0 0 0 .43-.53c-.1-.4-1-.5-.94 0m8.63 2.92c-.22.26-.66.6-.15.83a.92.92 0 0 0 1.07-.31c.33-.68-.56-.8-.92-.48" class="W"/><path d="M46 97.2c-.5-.1-1.07-.44-1.6-.33a2.38 2.38 0 0 0-.76.46c-.45.36-.92 1.17-.45 1.7.25.3.7.24 1 .23s.44-.2.65-.55.52-.43.86-.66.65-.64.3-.85zm2 6.8c0 .4.22.54.6.7s.86.28 1.1 0a2.91 2.91 0 0 0 .26-.72 1.94 1.94 0 0 1 .2-.57c.12-.15.32-.14.42-.3a.67.67 0 0 0-.18-.79 1.28 1.28 0 0 0-1.47-.3c-.8.4-.94 1.62-.94 2zm-7.93-3.17a3.3 3.3 0 0 0-.42 2.13c0 .58 0 1.7.7 1.86 1.13.22.56-1.1.53-1.58a3.05 3.05 0 0 1 .21-1.45c.18-.4.4-.65.1-1s-1.2-.25-1.12.04zm13.43-.55a1.27 1.27 0 0 0-.91.57c-.16.28-.43.76-.32 1.1.2.5.7.5 1.13.5.7 0 .83-.17 1.2-.67s1-1.37 0-1.52c-.37-.05-.7.05-1.1.03zm-13.44-8.64c-.06.45-.22 1.16.15 1.5a2.17 2.17 0 0 0 1.38.35 1 1 0 0 0 .37-.35c.26-.43-.1-.65-.08-1 .08-.78 1.86-.9 1.62-1.92-.1-.44-.75-.52-1.12-.56-.78-.08-2.2.06-2.22 1.1a5.12 5.12 0 0 1-.1.88zm2.78.5c-.42.1 0 .67.4.66a.44.44 0 0 0 .42-.53c-.1-.42-1-.5-.94 0m8.62 2.97c-.22.26-.65.6-.14.82a.89.89 0 0 0 1.06-.31c.34-.68-.56-.8-.92-.48" fill="#8b5c16"/><path d="M62 110.94a11.28 11.28 0 0 0 0-3.23c-.35-1.14-.84-1.8-2.7-1.72-2 .07.75 0-5.4.06-4.76 0-13.36-.18-17-.06h-1.84c-.9 0-1.37.33-1.48 1v.64c-.06 2 .24 4 .2 6v.65h28.17c.06-1.1.06-2.22.06-3.34z" class="V"/><path d="M61.15 113.14a22.05 22.05 0 0 1 .14-3.44 4 4 0 0 0-.46-2.8 3.89 3.89 0 0 0-1-.17l-6.64.07c-3.88 0-8.1 0-10.4-.13s-4.68-.06-7-.07c-.85 0-1.37.4-1.35 1l.18 6.74h26.5l.03-1.2z" fill="#b17a1a"/><g class="W"><path d="M41 110.63c-.57.1 0 .68.52.66s.68-.25.58-.53-1.33-.5-1.28 0m12.88-2.56c.45-.68-.75-.8-1.24-.48h0c-.2.17-.5.37-.5.55h1.7s.04-.05.05-.07z"/><path d="M52 108.23c0 .1.07.2.3.27a1.54 1.54 0 0 0 1.39-.27z"/></g><g fill="#93611a"><path d="M41.16 110.82c-.58.1.05.67.52.66s.67-.26.57-.53c-.15-.42-1.32-.5-1.27 0m11.66-3.05h0a5 5 0 0 0-.42.37h1.72c.18-.58-.85-.66-1.3-.37z"/><path d="M52.22,108.23c-.14.16-.17.33.22.46a1.51,1.51,0,0,0,1.44-.31,1.56,1.56,0,0,0,.06-.15Z"/></g><rect width="93.29" height="69.97" rx="2.45" fill="#9d9da0"/><path d="M3.1 2.97h87.22v64.18H3.1z" fill="#6d6e71"/><path d="M4.52 4.52H88.5V65.3H4.52z"/><path d="M6.22 6.36l80.15.28.14 50.2S59.1 58.1 49.2 44.53 38.13 24.33 25 23C6.36 21.2 6.22 6.36 6.22 6.36z" fill="url(#B)"/><path d="M90.33.85L68.6 1.1l-21.73.12-43.47.16a2.55 2.55 0 0 0-1.52.85A2.54 2.54 0 0 0 1.5 4v4.15l-.1 8.3L1.2 33 .7 66.16.67 16.4v-8.3L.76 4a3.23 3.23 0 0 1 .57-2.2 3.21 3.21 0 0 1 2-1.14h65.25z" fill="#fff"/><path d="M90.33 2.65l-37.25.15q-18.63.08-37.25.3 18.63.18 37.25.16L90 3.3l.1 30.92.22 31.24.2-31.24.12-31.56z" fill="#626e83" opacity=".7"/><path d="M94.25 30.74c-.27-4-.4-8.1-.5-12.14L93.6 6.42a5.13 5.13 0 0 1 4.26-4.79 27.91 27.91 0 0 1 3.14 0c1 0 2 0 3 .07 4 .1 8.1.23 12.15.5-4.05.28-8.1.4-12.15.5-2 .1-4.15 0-6 .16a3.87 3.87 0 0 0-3.15 3.66l-.16 12.12c-.16 4.04-.16 8.04-.44 12.1z" fill="#c2c2c4"/><g fill="red"><path d="M61.64 34.9a2.84 2.84 0 0 0-2.68-2h-24.6a2.76 2.76 0 0 0-2.6 1.74c-2.76 7.3-2.5 15 .1 23a2.75 2.75 0 0 0 2.5 1.89c7.76.4 16 .36 24.46 0a2.82 2.82 0 0 0 2.61-2.08c2.14-8.28 2.46-15.88.2-22.55zM49.47 53.66h-5.62l1-7.65a3.75 3.75 0 1 1 3.28.1z"/><path d="M39.1 52.4a1.79 1.79 0 0 1-1.48-.78 11.28 11.28 0 0 1-2-6.45V29.45a11.4 11.4 0 1 1 22.79 0v3.68a1.81 1.81 0 0 1-3.61 0v-3.68a7.79 7.79 0 1 0-15.57 0v15.72a7.69 7.69 0 0 0 1.37 4.4 1.8 1.8 0 0 1-1.5 2.83z"/></g></svg>