<svg xmlns="http://www.w3.org/2000/svg" xmlns:xlink="http://www.w3.org/1999/xlink" preserveAspectRatio="none" viewBox="0 0 835.03 306.46"><defs><style>.cls-1{fill:#808285;}.cls-2{fill:#c7c8ca;}.cls-3{fill:#fff;}.cls-4{fill:#58595b;}.cls-5{fill:#6d6e71;stroke:#000;stroke-width:1.53px;}.cls-14,.cls-5{stroke-miterlimit:10;}.cls-6{fill:#d4d5d7;}.cls-7{fill:#cecfd1;}.cls-8{fill:#7c7e83;stroke:#333435;stroke-linecap:round;stroke-linejoin:round;}.cls-14,.cls-8{stroke-width:2.04px;}.cls-9{fill:#666869;}.cls-10{fill:#4a4b4d;}.cls-11{fill:url(#radial-gradient);}.cls-12{fill:url(#radial-gradient-2);}.cls-13{fill:#999;}.cls-14{fill:none;stroke:#999;}.cls-15{fill:#83888c;}.cls-16{fill:#c4c4c4;}.cls-17{fill:#4f576b;}.cls-18{fill:#ed1c24;}.cls-19{fill:#ce181e;}</style><radialGradient id="radial-gradient" cx="479.83" cy="80.74" r="220.41" gradientTransform="matrix(1, 0, 0, 1.04, 1.57, -68.9)" gradientUnits="userSpaceOnUse"><stop offset="0" stop-color="#939a94"/><stop offset="1" stop-color="#5d6162"/></radialGradient><radialGradient id="radial-gradient-2" cx="1611.11" cy="1502.43" r="221.52" gradientTransform="matrix(-1, 0, 0, -1.04, 2092.28, 1858.91)" xlink:href="#radial-gradient"/></defs><title>Tug-O-War-Secondary-Question-Box</title><g id="Layer_2" data-name="Layer 2"><g id="Layer_1-2" data-name="Layer 1"><path class="cls-1" d="M830.27,149.27l-171.57-.14v13.28l172.93.14a16.47,16.47,0,0,0,1.87-2.6C834.24,156.83,833.31,152,830.27,149.27Z"/><path class="cls-2" d="M831.36,150.45l-173.25-.14v7.11l175.63.15A12.14,12.14,0,0,0,831.36,150.45Z"/><path class="cls-3" d="M831.51,153.4l-5.58-.06-11.15-.12q-11.16-.1-22.32-.17l-22.31-.1-22.32,0H725.52l-22.31.07q-11.16,0-22.32.13l-11.15.1-5.58,0-5.58.07,5.58.08,5.58.07,11.15.12q11.16.09,22.32.16l22.31.1,22.31,0h22.32l22.31-.06q11.16,0,22.31-.13l11.16-.11,5.58,0,1.51,0s0-.07,0-.11Z"/><path class="cls-2" d="M658.87,161.11v1.19l172.84.14c.33-.38.63-.78.93-1.18Z"/><path class="cls-3" d="M668.22,161.9c-1.07-.46-2.81-1.89-2.81-6.34,0-3.93,1.66-5.64,2.76-6.13l.07-.06-.7-.05a4.55,4.55,0,0,0-1.07,1,8.35,8.35,0,0,0-1.46,5.23c0,4.72,1.9,6.24,3.08,6.73l.47,0Z"/><path class="cls-4" d="M669,162.6c-.88-.17-3.74-1.19-3.73-7a8.52,8.52,0,0,1,1.46-5.3,3.33,3.33,0,0,1,2.31-1.49v.42c-.9,0-3.36,1.51-3.37,6.37,0,5.52,2.6,6.46,3.4,6.61Z"/><path class="cls-3" d="M678.36,161.9c-1.08-.45-2.82-1.88-2.81-6.33,0-3.94,1.66-5.64,2.75-6.13l.08-.06-.71,0a4.5,4.5,0,0,0-1.06,1,8.33,8.33,0,0,0-1.47,5.23c0,4.71,1.91,6.24,3.09,6.73l.47,0C678.58,162.2,678.47,162.05,678.36,161.9Z"/><path class="cls-4" d="M679.16,162.6c-.88-.17-3.74-1.18-3.74-7a8.64,8.64,0,0,1,1.47-5.31,3.34,3.34,0,0,1,2.31-1.48v.42c-.9,0-3.37,1.5-3.37,6.37,0,5.52,2.6,6.46,3.4,6.61Z"/><path class="cls-3" d="M688.31,161.91c-1.07-.45-2.81-1.88-2.81-6.33,0-3.94,1.66-5.65,2.76-6.13l.07-.06c-.23,0-.47,0-.7-.06a4.61,4.61,0,0,0-1.07,1,8.4,8.4,0,0,0-1.47,5.23c0,4.71,1.91,6.23,3.09,6.72l.47,0C688.53,162.21,688.42,162.06,688.31,161.91Z"/><path class="cls-4" d="M689.11,162.61c-.88-.17-3.74-1.18-3.73-7a8.56,8.56,0,0,1,1.46-5.31,3.33,3.33,0,0,1,2.31-1.49v.42c-.9,0-3.37,1.51-3.37,6.38,0,5.52,2.6,6.46,3.4,6.61Z"/><path class="cls-3" d="M698.45,161.92c-1.08-.46-2.82-1.88-2.81-6.33,0-3.94,1.66-5.65,2.75-6.13l.08-.06c-.24,0-.47-.05-.71-.06a4.78,4.78,0,0,0-1.06,1,8.33,8.33,0,0,0-1.47,5.23c0,4.71,1.91,6.23,3.09,6.72l.47,0C698.67,162.21,698.56,162.07,698.45,161.92Z"/><path class="cls-4" d="M699.24,162.62c-.87-.17-3.73-1.18-3.73-7a8.62,8.62,0,0,1,1.47-5.31,3.33,3.33,0,0,1,2.31-1.49v.42c-.89,0-3.36,1.51-3.36,6.38,0,5.52,2.6,6.45,3.4,6.61Z"/><path class="cls-3" d="M708.71,161.93c-1.07-.46-2.81-1.89-2.81-6.33,0-3.94,1.67-5.65,2.76-6.13,0,0,.05,0,.07-.06-.23,0-.46,0-.7-.06a4.41,4.41,0,0,0-1.07,1,8.41,8.41,0,0,0-1.46,5.23c0,4.71,1.91,6.23,3.08,6.72l.48,0Z"/><path class="cls-4" d="M709.51,162.63c-.87-.17-3.73-1.18-3.73-7a8.54,8.54,0,0,1,1.47-5.3,3.32,3.32,0,0,1,2.3-1.49v.42c-.9,0-3.36,1.51-3.36,6.37,0,5.53,2.6,6.46,3.4,6.62Z"/><path class="cls-3" d="M718.85,161.94c-1.07-.46-2.81-1.89-2.81-6.34,0-3.93,1.67-5.64,2.76-6.13l.07-.06-.7,0a4.55,4.55,0,0,0-1.07,1,8.37,8.37,0,0,0-1.46,5.23c0,4.72,1.91,6.24,3.08,6.73l.47,0Z"/><path class="cls-4" d="M719.65,162.64c-.88-.17-3.74-1.18-3.73-7a8.62,8.62,0,0,1,1.46-5.3,3.33,3.33,0,0,1,2.31-1.49v.42c-.9,0-3.36,1.51-3.37,6.37,0,5.52,2.61,6.46,3.4,6.62Z"/><path class="cls-3" d="M728.8,162c-1.07-.46-2.81-1.89-2.81-6.34,0-3.94,1.67-5.64,2.76-6.13l.07-.06-.7,0a4.55,4.55,0,0,0-1.07,1,8.41,8.41,0,0,0-1.46,5.23c0,4.71,1.91,6.24,3.08,6.73l.47,0Z"/><path class="cls-4" d="M729.6,162.65c-.88-.18-3.74-1.19-3.73-7a8.59,8.59,0,0,1,1.46-5.3,3.33,3.33,0,0,1,2.31-1.49v.42c-.9,0-3.36,1.5-3.37,6.37,0,5.52,2.61,6.46,3.41,6.61Z"/><path class="cls-3" d="M738.94,162c-1.07-.45-2.81-1.88-2.81-6.33,0-3.94,1.67-5.64,2.76-6.13l.07-.06-.7-.05a4.35,4.35,0,0,0-1.07,1,8.35,8.35,0,0,0-1.46,5.23c0,4.71,1.9,6.24,3.08,6.73l.47,0Z"/><path class="cls-4" d="M739.74,162.65c-.88-.17-3.74-1.18-3.73-7a8.65,8.65,0,0,1,1.46-5.31,3.34,3.34,0,0,1,2.31-1.48v.41c-.9,0-3.36,1.51-3.37,6.38,0,5.52,2.6,6.46,3.4,6.61Z"/><path class="cls-3" d="M749.21,162c-1.07-.45-2.81-1.88-2.81-6.33,0-3.94,1.67-5.65,2.76-6.13l.07-.06c-.23,0-.46,0-.7-.06a4.61,4.61,0,0,0-1.07,1,8.41,8.41,0,0,0-1.46,5.23c0,4.71,1.91,6.23,3.08,6.72l.47.05Z"/><path class="cls-4" d="M750,162.66c-.88-.17-3.73-1.18-3.73-7a8.63,8.63,0,0,1,1.46-5.31,3.33,3.33,0,0,1,2.31-1.49v.42c-.9,0-3.36,1.51-3.36,6.38,0,5.52,2.6,6.45,3.4,6.61Z"/><path class="cls-3" d="M759.35,162c-1.07-.46-2.81-1.88-2.81-6.33,0-3.94,1.67-5.65,2.76-6.13l.07-.06c-.23,0-.47,0-.7-.06a4.61,4.61,0,0,0-1.07,1,8.35,8.35,0,0,0-1.46,5.23c0,4.71,1.91,6.23,3.08,6.72l.47,0C759.58,162.26,759.46,162.12,759.35,162Z"/><path class="cls-4" d="M760.15,162.67c-.88-.17-3.74-1.18-3.73-7a8.63,8.63,0,0,1,1.46-5.31,3.33,3.33,0,0,1,2.31-1.49v.42c-.9,0-3.36,1.51-3.37,6.38,0,5.52,2.6,6.45,3.4,6.61Z"/><path class="cls-3" d="M769.3,162c-1.07-.46-2.81-1.89-2.81-6.33,0-3.94,1.67-5.65,2.76-6.13,0,0,0,0,.07-.06-.23,0-.47-.05-.7-.06a4.41,4.41,0,0,0-1.07,1,8.31,8.31,0,0,0-1.46,5.22c0,4.72,1.91,6.24,3.08,6.73l.47,0C769.53,162.27,769.41,162.13,769.3,162Z"/><path class="cls-4" d="M770.1,162.68c-.88-.17-3.74-1.18-3.73-7a8.62,8.62,0,0,1,1.46-5.3,3.33,3.33,0,0,1,2.31-1.49v.42c-.9,0-3.36,1.51-3.37,6.37,0,5.52,2.61,6.46,3.4,6.62Z"/><path class="cls-3" d="M779.44,162c-1.07-.46-2.81-1.89-2.81-6.34,0-3.93,1.66-5.64,2.76-6.13l.07-.06-.7-.05a4.55,4.55,0,0,0-1.07,1,8.42,8.42,0,0,0-1.47,5.23c0,4.72,1.91,6.24,3.09,6.73l.47,0C779.66,162.28,779.55,162.13,779.44,162Z"/><path class="cls-4" d="M780.24,162.69c-.88-.17-3.74-1.18-3.73-7a8.52,8.52,0,0,1,1.46-5.3,3.33,3.33,0,0,1,2.31-1.49v.42c-.9,0-3.36,1.51-3.37,6.37,0,5.52,2.6,6.46,3.4,6.62Z"/><path class="cls-3" d="M789.71,162c-1.08-.46-2.82-1.89-2.81-6.34,0-3.94,1.66-5.64,2.75-6.13l.08-.06-.71-.05a4.72,4.72,0,0,0-1.06,1,8.33,8.33,0,0,0-1.47,5.23c0,4.71,1.91,6.24,3.09,6.73l.47,0C789.93,162.29,789.82,162.14,789.71,162Z"/><path class="cls-4" d="M790.5,162.7c-.87-.18-3.73-1.19-3.73-7a8.58,8.58,0,0,1,1.47-5.3,3.33,3.33,0,0,1,2.31-1.49v.42c-.9,0-3.37,1.5-3.37,6.37,0,5.52,2.6,6.46,3.4,6.61Z"/><path class="cls-3" d="M799.84,162c-1.07-.45-2.81-1.88-2.81-6.33,0-3.94,1.67-5.64,2.76-6.13l.07-.06-.7,0a4.35,4.35,0,0,0-1.07,1,8.41,8.41,0,0,0-1.46,5.23c0,4.71,1.91,6.24,3.09,6.73l.47,0C800.07,162.3,800,162.15,799.84,162Z"/><path class="cls-4" d="M800.64,162.7c-.87-.17-3.73-1.18-3.73-7a8.57,8.57,0,0,1,1.47-5.31,3.26,3.26,0,0,1,2.3-1.48v.41c-.89,0-3.36,1.51-3.36,6.38,0,5.52,2.6,6.46,3.4,6.61Z"/><path class="cls-3" d="M809.8,162c-1.08-.46-2.82-1.88-2.81-6.33,0-3.94,1.66-5.65,2.75-6.13l.08-.06-.71-.06a4.39,4.39,0,0,0-1.06,1,8.33,8.33,0,0,0-1.47,5.23c0,4.71,1.91,6.23,3.09,6.72l.47,0Z"/><path class="cls-4" d="M810.59,162.71c-.87-.17-3.73-1.18-3.73-7a8.62,8.62,0,0,1,1.47-5.31,3.33,3.33,0,0,1,2.3-1.49v.42c-.89,0-3.36,1.51-3.36,6.38,0,5.52,2.6,6.45,3.4,6.61Z"/><path class="cls-3" d="M819.93,162c-1.07-.46-2.81-1.89-2.81-6.33,0-3.94,1.67-5.65,2.76-6.13l.07-.06c-.23,0-.46-.05-.7-.06a4.61,4.61,0,0,0-1.07,1,8.41,8.41,0,0,0-1.46,5.23c0,4.71,1.91,6.23,3.08,6.72l.48,0Z"/><path class="cls-4" d="M820.81,162.31c-.8-.16-3.41-1.09-3.4-6.61,0-4.87,2.46-6.38,3.36-6.38v-.42a3.3,3.3,0,0,0-2.3,1.49A8.55,8.55,0,0,0,817,155.7c0,5.84,2.85,6.85,3.73,7Z"/><path class="cls-3" d="M829.61,149.57l.08-.07-.71-.05a4.57,4.57,0,0,0-1.06,1,8.3,8.3,0,0,0-1.47,5.22c0,4.72,1.91,6.24,3.09,6.73l.47,0c-.12-.14-.23-.29-.34-.43-1.08-.46-2.82-1.89-2.81-6.34C826.86,151.76,828.52,150.05,829.61,149.57Z"/><path class="cls-4" d="M828.2,150.4a8.6,8.6,0,0,0-1.47,5.3c0,5.85,2.86,6.86,3.73,7l.08-.41c-.8-.16-3.41-1.1-3.4-6.62,0-4.6,2.21-6.2,3.2-6.36-.12-.11-.26-.21-.39-.32A3.9,3.9,0,0,0,828.2,150.4Z"/><path class="cls-4" d="M830.5,148.91a1.73,1.73,0,0,0-.55.11c.13.11.27.21.39.32h.16Z"/><path d="M657.93,147.61v1.69l172.52.15a7.53,7.53,0,0,0-2.82-1.7Z"/><path d="M831.77,162.36,658,162.22V164l169.88.14C828.44,163.56,831.26,163,831.77,162.36Z"/><path class="cls-5" d="M794.37,170.94h5.88a5.81,5.81,0,0,0,5.67-5.9v-2.22c-3.73-2.54-3.94-11.3,0-14.06v-1.84a5.8,5.8,0,0,0-5.66-5.91H794.4a5.81,5.81,0,0,0-5.68,5.89V165A5.81,5.81,0,0,0,794.37,170.94Z"/><path class="cls-6" d="M802.65,146.7l-.35,1.09-.3,1.08-.31,1-.22,1.05a6.84,6.84,0,0,1-.2,1l-.19,1-.11,1-.05,1-.08,1,0,1.05.06,1.05.06.52v.53l.09,1.08.17,1.07.17,1.11.21,1.14-.77-.87-.67-1-.51-1.06-.44-1.11-.18-.57-.13-.58-.17-1.19-.1-1.2V155l.16-1.2.25-1.17.32-1.15a8.89,8.89,0,0,1,.45-1.11l.57-1,.64-1,.78-.87Z"/><path d="M825.78,164.15c-1.26,0-2.22-.09-2.3-.1l.16-1.71a19,19,0,0,0,5.78-.31c3.15-1,3.86-3.23,4-6.35a5.92,5.92,0,0,0-4-5.84,22.66,22.66,0,0,0-5.81-.31l-.08-1.72c.45,0,4.52-.22,6.38.39a7.64,7.64,0,0,1,5.12,7.54c-.1,3.18-.79,6.61-5.15,7.94A14.93,14.93,0,0,1,825.78,164.15Z"/><rect class="cls-1" x="0.76" y="144.75" width="177.87" height="13.28"/><rect class="cls-2" x="0.17" y="145.93" width="179.55" height="7.11"/><path class="cls-3" d="M.65,148.88l5.58-.07,5.57-.06,11.16-.1q11.16-.08,22.31-.13l22.32-.06H89.9l22.32,0,22.31.1q11.16.06,22.31.17l11.16.12,5.58.06,5.58.08-5.58.07-5.58.06-11.16.1q-11.16.08-22.31.13l-22.32.06H89.9l-22.31,0-22.32-.1q-11.15-.06-22.31-.17L11.8,149,6.23,149Z"/><rect class="cls-2" x="0.94" y="156.73" width="179.12" height="1.19"/><path class="cls-3" d="M10.29,157.44c-1.08-.46-2.82-1.89-2.81-6.33,0-3.94,1.66-5.65,2.75-6.13l.08-.06c-.24,0-.47,0-.71-.06a4.57,4.57,0,0,0-1.06,1,8.33,8.33,0,0,0-1.47,5.23c0,4.71,1.91,6.23,3.09,6.72l.47,0C10.51,157.73,10.4,157.59,10.29,157.44Z"/><path class="cls-4" d="M11.08,158.14c-.87-.17-3.73-1.18-3.73-7a8.6,8.6,0,0,1,1.47-5.3,3.33,3.33,0,0,1,2.31-1.49v.42c-.9,0-3.37,1.51-3.37,6.37,0,5.53,2.6,6.46,3.4,6.62Z"/><path class="cls-3" d="M20.42,157.45c-1.07-.46-2.81-1.89-2.81-6.34,0-3.93,1.67-5.64,2.76-6.13l.07-.06-.7,0a4.55,4.55,0,0,0-1.07,1,8.43,8.43,0,0,0-1.46,5.23c0,4.72,1.91,6.24,3.08,6.73l.48,0Z"/><path class="cls-4" d="M21.22,158.15c-.87-.17-3.73-1.18-3.73-7a8.54,8.54,0,0,1,1.47-5.3,3.32,3.32,0,0,1,2.3-1.49v.42c-.89,0-3.36,1.51-3.36,6.37,0,5.52,2.6,6.46,3.4,6.62Z"/><path class="cls-3" d="M30.38,157.46c-1.08-.46-2.82-1.89-2.81-6.34,0-3.94,1.66-5.64,2.75-6.13l.08-.06-.71-.05a4.33,4.33,0,0,0-1.06,1,8.33,8.33,0,0,0-1.47,5.23c0,4.71,1.91,6.24,3.09,6.73l.47,0C30.6,157.75,30.49,157.6,30.38,157.46Z"/><path class="cls-4" d="M31.17,158.16c-.87-.18-3.73-1.19-3.73-7a8.51,8.51,0,0,1,1.47-5.3,3.33,3.33,0,0,1,2.3-1.49v.42c-.89,0-3.36,1.51-3.36,6.37,0,5.52,2.6,6.46,3.4,6.61Z"/><path class="cls-3" d="M40.51,157.46c-1.07-.45-2.81-1.88-2.81-6.33,0-3.94,1.67-5.64,2.76-6.13l.07-.06-.7-.05a4.35,4.35,0,0,0-1.07,1,8.41,8.41,0,0,0-1.46,5.23c0,4.71,1.91,6.24,3.08,6.73l.47,0Z"/><path class="cls-4" d="M41.31,158.16c-.88-.17-3.73-1.18-3.73-7A8.65,8.65,0,0,1,39,145.83a3.34,3.34,0,0,1,2.31-1.48v.41c-.9,0-3.36,1.51-3.36,6.38,0,5.52,2.6,6.46,3.4,6.61Z"/><path class="cls-3" d="M50.78,157.47C49.71,157,48,155.59,48,151.14c0-3.94,1.67-5.65,2.76-6.13l.07-.06c-.23,0-.47,0-.7-.06a4.61,4.61,0,0,0-1.07,1,8.35,8.35,0,0,0-1.46,5.23c0,4.71,1.91,6.23,3.08,6.72l.47,0Z"/><path class="cls-4" d="M51.58,158.17c-.88-.17-3.74-1.18-3.73-7a8.63,8.63,0,0,1,1.46-5.31,3.33,3.33,0,0,1,2.31-1.49v.42c-.9,0-3.36,1.51-3.37,6.38,0,5.52,2.6,6.46,3.4,6.61Z"/><path class="cls-3" d="M60.92,157.48c-1.07-.46-2.81-1.88-2.81-6.33,0-3.94,1.66-5.65,2.75-6.13l.08-.06c-.23,0-.47-.05-.7-.06a4.61,4.61,0,0,0-1.07,1,8.4,8.4,0,0,0-1.47,5.23c0,4.71,1.91,6.23,3.09,6.72l.47,0C61.14,157.77,61,157.63,60.92,157.48Z"/><path class="cls-4" d="M61.72,158.18c-.88-.17-3.74-1.18-3.73-7a8.56,8.56,0,0,1,1.46-5.31,3.33,3.33,0,0,1,2.31-1.49v.42c-.9,0-3.37,1.51-3.37,6.38,0,5.52,2.6,6.45,3.4,6.61Z"/><path class="cls-3" d="M70.87,157.49c-1.07-.46-2.81-1.89-2.81-6.33,0-3.94,1.66-5.65,2.76-6.13,0,0,.05,0,.07-.06-.23,0-.47-.05-.7-.06a4.41,4.41,0,0,0-1.07,1,8.38,8.38,0,0,0-1.47,5.23c0,4.71,1.91,6.23,3.09,6.72l.47,0C71.1,157.78,71,157.64,70.87,157.49Z"/><path class="cls-4" d="M71.67,158.19c-.88-.17-3.74-1.18-3.73-7a8.55,8.55,0,0,1,1.46-5.3,3.33,3.33,0,0,1,2.31-1.49v.42c-.9,0-3.36,1.51-3.37,6.37,0,5.52,2.6,6.46,3.4,6.62Z"/><path class="cls-3" d="M81,157.5c-1.08-.46-2.82-1.89-2.81-6.34,0-3.93,1.66-5.64,2.75-6.13L81,145l-.71-.05a4.72,4.72,0,0,0-1.06,1,8.36,8.36,0,0,0-1.47,5.23c0,4.72,1.91,6.24,3.09,6.73l.47,0C81.23,157.79,81.12,157.64,81,157.5Z"/><path class="cls-4" d="M81.81,158.2c-.88-.17-3.74-1.18-3.74-7a8.58,8.58,0,0,1,1.47-5.3,3.33,3.33,0,0,1,2.31-1.49v.42c-.9,0-3.37,1.51-3.37,6.37,0,5.52,2.6,6.46,3.4,6.62Z"/><path class="cls-3" d="M91.28,157.51c-1.07-.46-2.81-1.89-2.81-6.34,0-3.94,1.66-5.64,2.76-6.13l.07-.06-.7,0a4.55,4.55,0,0,0-1.07,1,8.35,8.35,0,0,0-1.46,5.23c0,4.71,1.9,6.24,3.08,6.73l.47,0Z"/><path class="cls-4" d="M92.08,158.21c-.88-.18-3.74-1.19-3.73-7a8.52,8.52,0,0,1,1.46-5.3,3.33,3.33,0,0,1,2.31-1.49v.42c-.9,0-3.36,1.5-3.37,6.37,0,5.52,2.6,6.46,3.4,6.61Z"/><path class="cls-3" d="M101.42,157.51c-1.08-.45-2.82-1.88-2.81-6.33,0-3.94,1.66-5.64,2.75-6.13l.08-.06-.71-.05a4.5,4.5,0,0,0-1.06,1,8.4,8.4,0,0,0-1.47,5.23c0,4.71,1.91,6.24,3.09,6.73l.47,0C101.64,157.81,101.53,157.66,101.42,157.51Z"/><path class="cls-4" d="M102.22,158.21c-.88-.17-3.74-1.18-3.74-7a8.64,8.64,0,0,1,1.47-5.31,3.27,3.27,0,0,1,2.31-1.48v.41c-.9,0-3.37,1.51-3.37,6.38,0,5.52,2.6,6.46,3.4,6.61Z"/><path class="cls-3" d="M111.37,157.52c-1.07-.46-2.81-1.88-2.81-6.33,0-3.94,1.66-5.65,2.76-6.13l.07-.06c-.23,0-.47,0-.7-.06a4.61,4.61,0,0,0-1.07,1,8.4,8.4,0,0,0-1.47,5.23c0,4.71,1.91,6.23,3.09,6.72l.47.05Z"/><path class="cls-4" d="M112.17,158.22c-.88-.17-3.74-1.18-3.73-7a8.56,8.56,0,0,1,1.46-5.31,3.33,3.33,0,0,1,2.31-1.49v.42c-.9,0-3.37,1.51-3.37,6.38,0,5.52,2.6,6.45,3.4,6.61Z"/><path class="cls-3" d="M121.51,157.53c-1.08-.46-2.82-1.89-2.81-6.33,0-3.94,1.66-5.65,2.75-6.13l.08-.06c-.24,0-.47,0-.71-.06a4.78,4.78,0,0,0-1.06,1,8.33,8.33,0,0,0-1.47,5.23c0,4.71,1.91,6.23,3.09,6.72l.47,0C121.73,157.82,121.62,157.68,121.51,157.53Z"/><path class="cls-4" d="M122.3,158.23c-.87-.17-3.73-1.18-3.73-7A8.62,8.62,0,0,1,120,145.9a3.33,3.33,0,0,1,2.31-1.49v.42c-.89,0-3.36,1.51-3.36,6.38,0,5.52,2.6,6.45,3.4,6.61Z"/><path class="cls-3" d="M131.77,157.54c-1.07-.46-2.81-1.89-2.81-6.33,0-3.94,1.67-5.65,2.76-6.13,0,0,.05,0,.07-.06-.23,0-.46-.05-.7-.06a4.41,4.41,0,0,0-1.07,1,8.37,8.37,0,0,0-1.46,5.22c0,4.72,1.91,6.24,3.08,6.73l.48,0Z"/><path class="cls-4" d="M132.57,158.24c-.87-.17-3.73-1.18-3.73-7a8.54,8.54,0,0,1,1.47-5.3,3.32,3.32,0,0,1,2.3-1.49v.42c-.89,0-3.36,1.51-3.36,6.37,0,5.52,2.6,6.46,3.4,6.62Z"/><path class="cls-3" d="M141.91,157.55c-1.07-.46-2.81-1.89-2.81-6.34,0-3.93,1.67-5.64,2.76-6.13l.07-.06-.7-.05a4.55,4.55,0,0,0-1.07,1,8.37,8.37,0,0,0-1.46,5.23c0,4.72,1.91,6.24,3.08,6.73l.47,0Z"/><path class="cls-4" d="M142.71,158.25c-.88-.17-3.74-1.19-3.73-7a8.59,8.59,0,0,1,1.46-5.3,3.33,3.33,0,0,1,2.31-1.49v.42c-.9,0-3.36,1.51-3.37,6.37,0,5.52,2.61,6.46,3.4,6.61Z"/><path class="cls-3" d="M151.86,157.56c-1.07-.46-2.81-1.89-2.81-6.34,0-3.94,1.67-5.64,2.76-6.13l.07-.06-.7-.05a4.35,4.35,0,0,0-1.07,1,8.41,8.41,0,0,0-1.46,5.23c0,4.71,1.91,6.24,3.08,6.73l.47,0C152.09,157.85,152,157.7,151.86,157.56Z"/><path class="cls-4" d="M152.66,158.25c-.88-.17-3.73-1.18-3.73-7a8.59,8.59,0,0,1,1.46-5.3,3.33,3.33,0,0,1,2.31-1.49v.42c-.9,0-3.36,1.5-3.37,6.37,0,5.52,2.61,6.46,3.41,6.61Z"/><path class="cls-3" d="M162,157.56c-1.07-.45-2.81-1.88-2.81-6.33,0-3.94,1.67-5.64,2.76-6.13L162,145c-.23,0-.47,0-.7,0a4.35,4.35,0,0,0-1.07,1,8.35,8.35,0,0,0-1.46,5.23c0,4.71,1.91,6.24,3.08,6.73l.47,0Z"/><path class="cls-4" d="M162.8,158.26c-.88-.17-3.74-1.18-3.73-7a8.63,8.63,0,0,1,1.46-5.31,3.33,3.33,0,0,1,2.31-1.49v.42c-.9,0-3.36,1.51-3.37,6.38,0,5.52,2.6,6.46,3.4,6.61Z"/><path class="cls-3" d="M171.73,157.57c-1.07-.46-2.81-1.88-2.81-6.33,0-3.94,1.67-5.65,2.76-6.13l.07-.06c-.23,0-.46-.05-.7-.06a4.61,4.61,0,0,0-1.07,1,8.41,8.41,0,0,0-1.46,5.23c0,4.71,1.91,6.23,3.08,6.72l.47,0Z"/><path class="cls-4" d="M172.53,158.27c-.88-.17-3.73-1.18-3.73-7a8.63,8.63,0,0,1,1.46-5.31,3.33,3.33,0,0,1,2.31-1.49v.42c-.9,0-3.36,1.51-3.36,6.38,0,5.52,2.6,6.45,3.4,6.61Z"/><rect y="143.23" width="179.12" height="1.7"/><rect x="0.05" y="157.84" width="179.12" height="1.76"/><rect class="cls-5" x="156.46" y="136.59" width="17.21" height="29.92" rx="5.78"/><path class="cls-7" d="M159,141.92l.31,1.16.26,1.15.34,2.29a22.33,22.33,0,0,1,.21,2.3l.16,2.29,0,2.3v1.72l-.06.58L160,158l-.2,1.17-.24,1.17-.37-1.13-.33-1.14-.43-2.29-.11-.58-.05-.57-.1-1.16-.18-2.31.05-2.32a19.87,19.87,0,0,1,.13-2.31l.3-2.32.26-1.15Z"/><rect class="cls-8" x="167.01" y="6.64" width="627.97" height="298.54"/><rect class="cls-9" x="182.6" y="22.85" width="595.32" height="264.58"/><rect class="cls-10" x="191.62" y="37.05" width="575.98" height="242.8" rx="4.8"/><polygon class="cls-11" points="169.67 10.24 793 10.15 778.55 21.29 183.24 20.8 169.67 10.24"/><polygon class="cls-12" points="793.92 304.21 167.52 303.47 182.15 289.29 778.91 289.78 793.92 304.21"/><polygon class="cls-10" points="174.86 13.59 183.24 20.8 182.15 289.29 174.06 297.09 174.86 13.59"/><polygon class="cls-13" points="784.33 16.49 786.41 296.99 174.06 297.09 182.15 289.29 778.91 289.78 778.55 21.29 784.33 16.49"/><rect class="cls-14" x="182.83" y="21.65" width="595.03" height="267.29"/><rect class="cls-3" x="194.24" y="33.92" width="574.38" height="242.8" rx="4.75"/><ellipse class="cls-10" cx="200.64" cy="270.08" rx="2.89" ry="3"/><ellipse class="cls-10" cx="761.6" cy="270.54" rx="2.31" ry="2.4"/><ellipse class="cls-15" cx="202.64" cy="43.13" rx="5.28" ry="5.49"/><polygon class="cls-16" points="206.46 46.66 198.52 39.93 199.4 38.77 207.33 45.35 206.46 46.66"/><path class="cls-10" d="M198.07,40.46,206,47.27A3.49,3.49,0,0,0,207,45.92l-8.12-6.61Z"/><ellipse class="cls-15" cx="201.97" cy="268.37" rx="5.28" ry="5.49"/><polygon class="cls-16" points="205.79 271.91 197.85 265.17 198.73 264.02 206.66 270.6 205.79 271.91"/><path class="cls-10" d="M197.4,265.71l7.88,6.81a3.39,3.39,0,0,0,1.06-1.35l-8.11-6.61Z"/><ellipse class="cls-15" cx="760.38" cy="42.85" rx="5.28" ry="5.49"/><polygon class="cls-16" points="764.2 46.38 756.26 39.64 757.14 38.49 765.07 45.06 764.2 46.38"/><path class="cls-10" d="M755.81,40.18,763.69,47a3.39,3.39,0,0,0,1.06-1.35L756.64,39Z"/><ellipse class="cls-15" cx="759.75" cy="268.37" rx="5.28" ry="5.49"/><polygon class="cls-16" points="763.57 271.9 755.63 265.17 756.52 264.01 764.44 270.59 763.57 271.9"/><path class="cls-10" d="M755.18,265.7l7.88,6.82a3.51,3.51,0,0,0,1.07-1.36L756,264.55Z"/><path class="cls-17" d="M781.34,6.9c.29-1.17.6-2.45.89-3.65a39.56,39.56,0,0,0-16.45-.62c.13.9.37,2.53.5,3.44C771.58,5.78,778,5.62,781.34,6.9Z"/><path class="cls-18" d="M781.33,7c.25.06.5.15.76.22l-.75-.29Z"/><path class="cls-18" d="M796.75,11.62a31,31,0,0,0-14.52-8.37c-.29,1.2-.6,2.48-.89,3.65l.75.29a27.48,27.48,0,0,1,12.08,7.18Z"/><path class="cls-17" d="M804.7,25.61a30,30,0,0,0-8-14l-2.58,2.75a26.16,26.16,0,0,1,7.05,12.57C802.26,26.21,803.32,24.64,804.7,25.61Z"/><path class="cls-18" d="M804.7,25.61c-1.38-1-2.44.6-3.48,1.33a22.12,22.12,0,0,1,.34,7.78,29.66,29.66,0,0,1-2.23,7.64l3.36,1.57a33.56,33.56,0,0,0,2.56-8.9A26.65,26.65,0,0,0,804.7,25.61Z"/><path class="cls-18" d="M794,58.62c-.79-.83-2.2-1-3.52-1.47-2.79,4.11-5.65,8.25-8.21,12.64l3.15,2C788,67.3,791,63,794,58.62Z"/><path class="cls-17" d="M785.42,71.78l-3.15-2a62.69,62.69,0,0,0-6.7,15.45l3.55,1A59.34,59.34,0,0,1,785.42,71.78Z"/><path class="cls-18" d="M778,100.19a36,36,0,0,1,1.11-13.93l-3.55-1a39,39,0,0,0-1.06,16.5A9.06,9.06,0,0,1,778,100.19Z"/><path class="cls-17" d="M778,100.19a9.06,9.06,0,0,0-3.5,1.55,32.38,32.38,0,0,0,4.34,11.42l3.13-2a33.39,33.39,0,0,1-2.57-5.28A27.25,27.25,0,0,1,778,100.19Z"/><path class="cls-18" d="M782,111.13l-3.13,2c2.94,4.86,6.55,9,9.58,13.29l3-2.27C788.21,119.64,784.67,115.59,782,111.13Z"/><path class="cls-17" d="M791.41,124.18l-3,2.27a41.41,41.41,0,0,1,4,6.69,24.43,24.43,0,0,1,2.07,7.29l3.66-.48a28.16,28.16,0,0,0-2.4-8.45A46,46,0,0,0,791.41,124.18Z"/><path class="cls-18" d="M798.12,140l-3.66.48c.61,5.06-.41,10.28-2.07,15.31l3.49,1.24C797.63,151.67,798.83,145.84,798.12,140Z"/><path class="cls-17" d="M795.88,157l-3.49-1.24c-1.67,5-3.93,10-6.09,15l3.37,1.56C791.8,167.32,794.11,162.32,795.88,157Z"/><path class="cls-18" d="M789.67,172.31l-3.37-1.56a85.78,85.78,0,0,0-5.46,15.84l3.6.82A82.68,82.68,0,0,1,789.67,172.31Z"/><path class="cls-17" d="M784.44,187.41l-3.6-.82a38.1,38.1,0,0,0-.87,8.62,31.21,31.21,0,0,0,1.39,8.64l3.51-1.17A29.79,29.79,0,0,1,784.44,187.41Z"/><path class="cls-18" d="M784.87,202.68l-3.51,1.17a51,51,0,0,0,8,14.87c.94-.74,2-1.55,2.94-2.32A47.42,47.42,0,0,1,784.87,202.68Z"/><path class="cls-17" d="M792.28,216.4c-1,.77-2,1.58-2.94,2.32,4.33,6,9.18,11.22,12.75,17.27l3.13-2a85.29,85.29,0,0,0-6.36-9.06C796.62,222.05,794.37,219.27,792.28,216.4Z"/><path class="cls-18" d="M811.1,250.86a29.58,29.58,0,0,0-1-6A44.14,44.14,0,0,0,805.22,234l-3.13,2a40.28,40.28,0,0,1,4.42,9.89,24.82,24.82,0,0,1,.91,5.23,22.07,22.07,0,0,1-.21,4.67,5.55,5.55,0,0,0,3.44-.49l.36-.22A23.7,23.7,0,0,0,811.1,250.86Z"/><path class="cls-17" d="M799.33,42.36c-2.26,5.16-5.59,10-8.85,14.79,1.32.46,2.73.64,3.52,1.47,3.1-4.63,6.33-9.3,8.69-14.69Z"/><path class="cls-18" d="M754.15,6c4,0,8.15.18,12.13,0-.13-.9-.37-2.42-.5-3.32A51.15,51.15,0,0,0,754.15,6Z"/><path class="cls-19" d="M765.78,2.63A51.15,51.15,0,0,0,754.15,6c2.34,0,4.7-.15,7.06-.31a44.94,44.94,0,0,1,4.87-1.06C766,4,765.87,3.28,765.78,2.63Z"/><path d="M765.78,2.63c.09.65.19,1.33.3,2a37.64,37.64,0,0,1,15.67.58c.16-.66.32-1.32.48-2A39.56,39.56,0,0,0,765.78,2.63Z"/><path class="cls-19" d="M790,6.41a31.78,31.78,0,0,0-7.79-3.16c-.16.64-.32,1.3-.48,2a29.23,29.23,0,0,1,13.64,7.86l1.36-1.45A32,32,0,0,0,790,6.41Z"/><path d="M804.7,25.61a30,30,0,0,0-8-14l-1.36,1.45a28.14,28.14,0,0,1,7.32,12.64A1.56,1.56,0,0,1,804.7,25.61Z"/><path class="cls-19" d="M804.7,25.61a1.56,1.56,0,0,0-2,.1,24.2,24.2,0,0,1,.63,8.85,31.15,31.15,0,0,1-2.42,8.54l1.77.83a33.56,33.56,0,0,0,2.56-8.9A26.65,26.65,0,0,0,804.7,25.61Z"/><path class="cls-19" d="M794,58.62a3.84,3.84,0,0,0-1.74-.93c-2.91,4.29-5.88,8.55-8.5,13l1.66,1C788,67.3,791,63,794,58.62Z"/><path d="M785.42,71.78l-1.66-1a61.13,61.13,0,0,0-6.51,15l1.87.54A59.34,59.34,0,0,1,785.42,71.78Z"/><path class="cls-19" d="M778,100.19a36,36,0,0,1,1.11-13.93l-1.87-.54a38,38,0,0,0-1.13,15.08A5.37,5.37,0,0,1,778,100.19Z"/><path d="M778,100.19a5.37,5.37,0,0,0-1.89.61,28.73,28.73,0,0,0,1.54,5.93,35.48,35.48,0,0,0,2.67,5.47l1.65-1.07a33.39,33.39,0,0,1-2.57-5.28A27.25,27.25,0,0,1,778,100.19Z"/><path class="cls-19" d="M798.12,140l-1.93.25c.66,5.46-.44,11-2.15,16.12l1.84.66C797.63,151.67,798.83,145.84,798.12,140Z"/><path d="M795.88,157l-1.84-.66c-1.71,5.19-4,10.15-6.15,15.17l1.78.82C791.8,167.32,794.11,162.32,795.88,157Z"/><path class="cls-19" d="M789.67,172.31l-1.78-.82A84.18,84.18,0,0,0,782.54,187l1.9.43A82.68,82.68,0,0,1,789.67,172.31Z"/><path class="cls-19" d="M784.87,202.68l-1.85.61a49.24,49.24,0,0,0,7.71,14.33l1.55-1.22A47.42,47.42,0,0,1,784.87,202.68Z"/><path d="M792.28,216.4l-1.55,1.22c4.24,5.85,9.15,11.17,12.84,17.41l1.65-1.07a85.29,85.29,0,0,0-6.36-9.06C796.62,222.05,794.37,219.27,792.28,216.4Z"/><path class="cls-19" d="M811.1,250.86a29.58,29.58,0,0,0-1-6A44.14,44.14,0,0,0,805.22,234L803.57,235a42.36,42.36,0,0,1,4.62,10.35,27.93,27.93,0,0,1,1,5.61,23.56,23.56,0,0,1-.21,4.82,5.32,5.32,0,0,0,1.69-.52l.36-.22A23.7,23.7,0,0,0,811.1,250.86Z"/><path d="M784.44,187.41l-1.9-.43a35.81,35.81,0,0,0-.83,8.19,29.33,29.33,0,0,0,1.31,8.12l1.85-.61A29.79,29.79,0,0,1,784.44,187.41Z"/><path d="M791.41,124.18l-1.57,1.2a43.68,43.68,0,0,1,4.12,7,26.29,26.29,0,0,1,2.23,7.84l1.93-.25a28.16,28.16,0,0,0-2.4-8.45A46,46,0,0,0,791.41,124.18Z"/><path class="cls-19" d="M782,111.13l-1.65,1.07c2.82,4.67,6.4,8.75,9.51,13.18l1.57-1.2C788.21,119.64,784.67,115.59,782,111.13Z"/><path d="M800.92,43.1c-2.29,5.22-5.52,9.9-8.66,14.59a3.84,3.84,0,0,1,1.74.93c3.1-4.63,6.33-9.3,8.69-14.69Z"/><path class="cls-17" d="M246.09.54c.18,1.25.38,2.58.56,3.8a45.31,45.31,0,0,1,16.87.76c.24-1.2.51-2.52.77-3.75A48.82,48.82,0,0,0,246.09.54Z"/><path class="cls-18" d="M264.29,1.35c-.26,1.23-.53,2.55-.77,3.75a94.32,94.32,0,0,1,16.4,5.68l1.41-3.55A98,98,0,0,0,264.29,1.35Z"/><path class="cls-17" d="M296.52,13.83c-5.07-2-10.07-4.39-15.19-6.6l-1.41,3.55c5.19,2.23,10.36,4.67,15.71,6.81C295.5,16.22,294.9,14.42,296.52,13.83Z"/><path class="cls-18" d="M296.52,13.83c-1.62.59-1,2.39-.89,3.76a93.19,93.19,0,0,0,17.93,5.28c.21-1.2.43-2.53.65-3.77A89.18,89.18,0,0,1,296.52,13.83Z"/><path class="cls-18" d="M331.87,20.53c-.19,1.15.57,2.43,1.08,3.8a92,92,0,0,0,16.37-2c-.24-1.24-.47-2.42-.74-3.76A89,89,0,0,1,331.87,20.53Z"/><path class="cls-17" d="M348.58,18.53c.27,1.34.5,2.52.74,3.76a172.55,172.55,0,0,0,17.22-4.8c-.36-1.21-.71-2.36-1.1-3.66A169.7,169.7,0,0,1,348.58,18.53Z"/><path class="cls-18" d="M380.55,8.69c-5.07,1.71-10.08,3.49-15.11,5.14.39,1.3.74,2.45,1.1,3.66C372,15.72,377.32,13.8,382.67,12A10.88,10.88,0,0,1,380.55,8.69Z"/><path class="cls-17" d="M380.55,8.69A10.88,10.88,0,0,0,382.67,12c3.94-1.33,7.88-2.58,11.84-3.67l-.94-3.71C389.17,5.85,384.84,7.24,380.55,8.69Z"/><path class="cls-18" d="M393.57,4.63l.94,3.71a123.47,123.47,0,0,1,17.06-3.49c-.15-1.25-.3-2.45-.46-3.8A126.24,126.24,0,0,0,393.57,4.63Z"/><path class="cls-17" d="M411.11,1.05c.16,1.35.31,2.55.46,3.8a121.23,121.23,0,0,1,17.35-1c0-1.23,0-2.58.05-3.84A125.46,125.46,0,0,0,411.11,1.05Z"/><path class="cls-18" d="M429,0c0,1.26,0,2.61-.05,3.84a122.53,122.53,0,0,1,17.32,1.47c.18-1.22.37-2.55.55-3.8A126.51,126.51,0,0,0,429,0Z"/><path class="cls-17" d="M464.25,5.58a123.47,123.47,0,0,0-17.46-4.06c-.18,1.25-.37,2.58-.55,3.8.09,0,.93.24,1,.26,5.88,0,12,0,16.91.25Z"/><path class="cls-17" d="M313.56,22.87A89.43,89.43,0,0,0,333,24.33c-.51-1.37-1.27-2.65-1.08-3.8a87.91,87.91,0,0,1-17.66-1.43C314,20.34,313.77,21.67,313.56,22.87Z"/><path class="cls-18" d="M246.09.54a32.36,32.36,0,0,0-12.51,4.67c2.69.06,5.37.22,8.06.34a29.76,29.76,0,0,1,5-1.22C246.47,3.12,246.27,1.79,246.09.54Z"/><path class="cls-19" d="M246.09.54a32.36,32.36,0,0,0-12.51,4.67c1.28,0,2.56.08,3.84.14a30.9,30.9,0,0,1,9-2.81Z"/><path d="M246.09.54l.3,2a47,47,0,0,1,17.49.79c.14-.67.27-1.33.41-2A48.82,48.82,0,0,0,246.09.54Z"/><path class="cls-19" d="M264.29,1.35c-.14.65-.27,1.31-.41,2a94.79,94.79,0,0,1,16.7,5.77l.75-1.87A98,98,0,0,0,264.29,1.35Z"/><path d="M296.52,13.83c-5.07-2-10.07-4.39-15.19-6.6l-.75,1.87c4.95,2.13,9.84,4.42,14.83,6.45A1.62,1.62,0,0,1,296.52,13.83Z"/><path class="cls-19" d="M296.52,13.83a1.62,1.62,0,0,0-1.11,1.72,91.23,91.23,0,0,0,18.46,5.54c.11-.67.23-1.34.34-2A89.18,89.18,0,0,1,296.52,13.83Z"/><path class="cls-19" d="M331.87,20.53a3.76,3.76,0,0,0,.34,2,90.84,90.84,0,0,0,16.76-2q-.18-.95-.39-2A89,89,0,0,1,331.87,20.53Z"/><path d="M348.58,18.53q.21,1,.39,2a170.93,170.93,0,0,0,17-4.75c-.19-.62-.38-1.26-.58-1.93A169.7,169.7,0,0,1,348.58,18.53Z"/><path class="cls-19" d="M380.55,8.69c-5.07,1.71-10.08,3.49-15.11,5.14.2.67.39,1.31.58,1.93,5.18-1.7,10.31-3.52,15.47-5.26A5.31,5.31,0,0,1,380.55,8.69Z"/><path d="M380.55,8.69a5.31,5.31,0,0,0,.94,1.81c4.16-1.41,8.35-2.75,12.58-3.91l-.5-2C389.17,5.85,384.84,7.24,380.55,8.69Z"/><path class="cls-19" d="M429,0c0,.66,0,1.34,0,2A124.44,124.44,0,0,1,446.5,3.52c.1-.67.2-1.34.29-2A126.51,126.51,0,0,0,429,0Z"/><path d="M464.25,5.58a123.47,123.47,0,0,0-17.46-4.06c-.09.66-.19,1.33-.29,2,3.31.52,6.59,1.19,9.84,2,2.62.07,5.23.17,7.84.33Z"/><path d="M411.11,1.05c.09.7.17,1.36.24,2a123.3,123.3,0,0,1,17.59-1c0-.68,0-1.36,0-2A125.46,125.46,0,0,0,411.11,1.05Z"/><path class="cls-19" d="M393.57,4.63l.5,2a122.86,122.86,0,0,1,17.28-3.54c-.07-.64-.15-1.3-.24-2A126.24,126.24,0,0,0,393.57,4.63Z"/><path d="M313.87,21.09a89.55,89.55,0,0,0,18.34,1.45,3.76,3.76,0,0,1-.34-2,87.91,87.91,0,0,1-17.66-1.43C314.1,19.75,314,20.42,313.87,21.09Z"/></g></g></svg>