<svg xmlns="http://www.w3.org/2000/svg" xmlns:xlink="http://www.w3.org/1999/xlink" preserveAspectRatio="none" viewBox="0 0 418.03 76.45"><defs><style>.cls-1,.cls-9{fill:none;}.cls-2{clip-path:url(#clip-path);}.cls-3{clip-path:url(#clip-path-2);}.cls-4{fill:#de5326;}.cls-5{clip-path:url(#clip-path-3);}.cls-6{fill:#fdb933;}.cls-7{fill:#9d3e23;}.cls-8{fill:#fff;}.cls-9{stroke:#000;stroke-miterlimit:10;stroke-width:2px;}.cls-10{fill:#f2ea0a;}</style><clipPath id="clip-path"><polygon class="cls-1" points="51.93 0 0 76.45 418.03 76.45 376.35 0 51.93 0"/></clipPath><clipPath id="clip-path-2"><rect class="cls-1" x="-761.45" y="-174.6" width="1923.69" height="263.37"/></clipPath><clipPath id="clip-path-3"><path class="cls-1" d="M-797.1-104.76V68.82H1238.05V-104.76ZM212.5,25C112.5,25,27.93,8.93-.64-13.23A12.21,12.21,0,0,1-.8-15.14c0-28.13,96.72-50.94,216-50.94,115.09,0,209.14,21.22,215.67,48C409.18,6.53,319.66,25,212.5,25Z"/></clipPath></defs><title>background-main-updated</title><g id="Layer_2" data-name="Layer 2"><g class="cls-2"><g id="platform"><g class="cls-3"><path class="cls-4" d="M-797.1-104.76V68.82H1238.05V-104.76ZM212.5,25C112.5,25,27.93,8.93-.64-13.23A12.21,12.21,0,0,1-.8-15.14c0-28.13,96.72-50.94,216-50.94,115.09,0,209.14,21.22,215.67,48C409.18,6.53,319.66,25,212.5,25Z"/><g class="cls-5"><rect class="cls-6" x="-138.33" y="-27.03" width="229.66" height="1.5" transform="translate(11.62 -23.23) rotate(-43.24)"/><rect class="cls-6" x="484.16" y="-140.76" width="1.5" height="228.22" transform="translate(170.84 343.77) rotate(-46.56)"/><rect class="cls-6" x="274.98" y="-106.35" width="1.5" height="159.77" transform="translate(9.29 49.29) rotate(-10.39)"/><rect class="cls-6" x="424.52" y="-127.39" width="1.5" height="201.83" transform="translate(110.88 261.13) rotate(-38.89)"/><rect class="cls-6" x="304.86" y="-108.73" width="1.5" height="164.3" transform="translate(21.37 88.79) rotate(-17.12)"/><rect class="cls-6" x="334.86" y="-112.1" width="1.5" height="171.38" transform="translate(38.09 131.11) rotate(-23.4)"/><rect class="cls-6" x="364.63" y="-116.42" width="1.5" height="179.69" transform="translate(59.15 174.51) rotate(-29.13)"/><rect class="cls-6" x="454.64" y="-133.72" width="1.5" height="215.03" transform="translate(139.98 303.31) rotate(-42.96)"/><rect class="cls-6" x="394.68" y="-121.47" width="1.5" height="190.3" transform="translate(83.56 218.21) rotate(-34.29)"/><rect class="cls-6" x="245.08" y="-105.29" width="1.5" height="157.16" transform="translate(1.99 14.36) rotate(-3.36)"/><rect class="cls-6" x="73.65" y="-27.15" width="164.87" height="1.5" transform="translate(134.33 130.4) rotate(-72.5)"/><rect class="cls-6" x="40.54" y="-27.34" width="171.5" height="1.5" transform="translate(99.76 99.71) rotate(-66.25)"/><rect class="cls-6" x="106.02" y="-27.28" width="159.94" height="1.5" transform="translate(177.17 161.13) rotate(-79.19)"/><rect class="cls-6" x="5.9" y="-27.1" width="180.65" height="1.5" transform="translate(71.86 70.39) rotate(-60.55)"/><rect class="cls-6" x="137.07" y="-27.03" width="157.72" height="1.5" transform="translate(227.8 190.92) rotate(-86.19)"/><rect class="cls-6" x="-212.93" y="-27.16" width="259.41" height="1.5" transform="translate(-1.02 -55.83) rotate(-37.3)"/><rect class="cls-6" x="-250.21" y="-27.43" width="274.79" height="1.5" transform="translate(-4.97 -69.21) rotate(-34.83)"/><rect class="cls-6" x="-175.12" y="-27.28" width="243.9" height="1.5" transform="translate(4.59 -40.48) rotate(-40.09)"/><rect class="cls-6" x="-64.89" y="-27.27" width="202.66" height="1.5" transform="translate(34.01 18.48) rotate(-50.86)"/><rect class="cls-6" x="-28.91" y="-27.29" width="190.73" height="1.5" transform="translate(50.59 43.24) rotate(-55.42)"/><rect class="cls-6" x="-100.82" y="-27.38" width="215.2" height="1.5" transform="translate(21.55 -3.46) rotate(-46.81)"/><rect class="cls-7" x="-139.32" y="-27.03" width="229.66" height="1.5" transform="translate(11.36 -23.91) rotate(-43.24)"/><rect class="cls-7" x="483.17" y="-140.76" width="1.5" height="228.22" transform="translate(170.53 343.04) rotate(-46.56)"/><rect class="cls-7" x="274" y="-106.35" width="1.5" height="159.77" transform="translate(9.28 49.12) rotate(-10.39)"/><rect class="cls-7" x="423.53" y="-127.38" width="1.5" height="201.83" transform="translate(110.66 260.51) rotate(-38.89)"/><rect class="cls-7" x="303.87" y="-108.73" width="1.5" height="164.3" transform="translate(21.32 88.5) rotate(-17.12)"/><rect class="cls-7" x="333.86" y="-112.09" width="1.5" height="171.38" transform="translate(38.01 130.72) rotate(-23.4)"/><rect class="cls-7" x="363.64" y="-116.41" width="1.5" height="179.69" transform="translate(59.02 174.02) rotate(-29.13)"/><rect class="cls-7" x="453.65" y="-133.73" width="1.5" height="215.03" transform="translate(139.72 302.64) rotate(-42.96)"/><rect class="cls-7" x="393.7" y="-121.46" width="1.5" height="190.3" transform="translate(83.38 217.65) rotate(-34.29)"/><rect class="cls-7" x="244.08" y="-105.3" width="1.5" height="157.16" transform="translate(1.99 14.3) rotate(-3.36)"/><rect class="cls-7" x="72.66" y="-27.15" width="164.87" height="1.5" transform="translate(133.63 129.46) rotate(-72.5)"/><rect class="cls-7" x="39.55" y="-27.35" width="171.5" height="1.5" transform="translate(99.18 98.8) rotate(-66.25)"/><rect class="cls-7" x="105.03" y="-27.29" width="159.94" height="1.5" transform="translate(176.38 160.16) rotate(-79.19)"/><rect class="cls-7" x="4.9" y="-27.1" width="180.65" height="1.5" transform="translate(71.35 69.53) rotate(-60.55)"/><rect class="cls-7" x="136.07" y="-27.03" width="157.72" height="1.5" transform="translate(226.87 189.92) rotate(-86.19)"/><rect class="cls-7" x="-213.91" y="-27.16" width="259.41" height="1.5" transform="translate(-1.22 -56.43) rotate(-37.3)"/><rect class="cls-7" x="-176.11" y="-27.28" width="243.9" height="1.5" transform="translate(4.36 -41.11) rotate(-40.09)"/><rect class="cls-7" x="-65.89" y="-27.26" width="202.66" height="1.5" transform="translate(33.63 17.71) rotate(-50.86)"/><rect class="cls-7" x="-29.9" y="-27.3" width="190.73" height="1.5" transform="translate(50.17 42.42) rotate(-55.42)"/><rect class="cls-7" x="-101.83" y="-27.38" width="215.2" height="1.5" transform="translate(21.24 -4.19) rotate(-46.81)"/></g><path class="cls-8" d="M212.58-90.18C82-90.18-23.84-62.64-23.84-28.64S82,32.9,212.58,32.9,449,5.36,449-28.64,343.15-90.18,212.58-90.18Zm221.9,66.85a14.33,14.33,0,0,0,1.26-7.5,14.72,14.72,0,0,0-.51-2.46,13.79,13.79,0,0,1,.5,3.61c0,3.78-1.58,7.47-4.57,11v.11l-.35.39C420.06-6,392.45,5.06,353.08,12.94c-39.77,8-90,12.33-141.43,12.33C113.44,25.27,27.54,9.82-2.1-13.16l-.31-.25-.06-.39a6.55,6.55,0,0,0-.1-.79c-5.64-4.8-8.67-9.88-8.67-15.13a14.24,14.24,0,0,1,.82-4.66,1.21,1.21,0,0,1,.15-.44,2.34,2.34,0,0,0,.11-.3,1.56,1.56,0,0,1,.11-.26A21.93,21.93,0,0,1-6.2-41.45,40.43,40.43,0,0,1-.49-46.76a80.16,80.16,0,0,1,13.26-8.08c4.65-2.29,9.43-4.29,14.28-6.11a277,277,0,0,1,29.71-8.88c10-2.44,20.18-4.49,30.36-6.25s20.41-3.23,30.67-4.4,20.58-2.16,30.87-2.9q30.89-2.3,61.9-2.39t61.91,2.13c20.6,1.45,41.17,3.59,61.56,7,10.19,1.68,20.34,3.65,30.41,6a298.85,298.85,0,0,1,29.82,8.48c9.72,3.47,19.36,7.49,28,13.25,4.26,2.92,8.35,6.31,11.15,10.73a16.69,16.69,0,0,1,2.53,7.32A14.4,14.4,0,0,1,434.48-23.33Z"/><rect class="cls-7" x="-799.09" y="46.88" width="2037.15" height="21.95"/><path class="cls-9" d="M211.92,24.27c-100,0-184.57-16.06-213.14-38.22a12.21,12.21,0,0,1-.16-1.91c0-28.13,96.72-50.94,216-50.94,115.09,0,209.14,21.22,215.67,48C408.6,5.81,319.07,24.27,211.92,24.27Z"/><polygon class="cls-10" points="40.61 -104.51 -132.85 45.26 -148.56 46.01 31.64 -103.53 40.61 -104.51"/><polygon class="cls-10" points="396.02 -103.51 543.29 44.51 558.99 45.26 404 -103.53 396.02 -103.51"/><line class="cls-9" x1="-799.76" y1="67.49" x2="1239.38" y2="67.49"/><polygon class="cls-6" points="-797.1 46.21 -542.54 45.48 -287.98 45.06 221.14 44.71 730.26 45.06 984.82 45.48 1239.38 46.21 984.82 46.95 730.26 47.36 221.14 47.71 -287.98 47.36 -542.54 46.94 -797.1 46.21"/></g></g></g></g></svg>