<svg id="Layer_1" data-name="Layer 1" xmlns="http://www.w3.org/2000/svg" xmlns:xlink="http://www.w3.org/1999/xlink" preserveAspectRatio="none" viewBox="0 0 391.45 80.54"><defs><style>.cls-1,.cls-9{fill:none;}.cls-2{clip-path:url(#clip-path);}.cls-3{clip-path:url(#clip-path-2);}.cls-4{fill:#de5326;}.cls-5{clip-path:url(#clip-path-3);}.cls-6{fill:#fdb933;}.cls-7{fill:#9d3e23;}.cls-8{fill:#fff;}.cls-9{stroke:#000;stroke-miterlimit:10;stroke-width:2px;}.cls-10{fill:#f2ea0a;}</style><clipPath id="clip-path"><rect class="cls-1" width="391.45" height="80.54"/></clipPath><clipPath id="clip-path-2"><rect class="cls-1" x="-25.88" y="-25.22" width="510.63" height="115.72"/></clipPath><clipPath id="clip-path-3"><path class="cls-1" d="M-812.06-92.7-812,80.89l2035.16-.71-.06-173.54ZM197.59,36.71C97.64,36.71,13,20.71-15.55-1.44a12.34,12.34,0,0,1-.17-1.92c0-28.14,96.71-51,216-51,115.08,0,209.14,21.15,215.68,47.9C394.27,18.17,304.75,36.64,197.59,36.71Z"/></clipPath></defs><title>Tug-O-War-Secondary-Front-Portion-02</title><g class="cls-2"><g id="Layer_1-2" data-name="Layer 1"><g class="cls-3"><path class="cls-4" d="M-812.06-92.7-812,80.89l2035.16-.71-.06-173.54ZM197.59,36.71C97.64,36.71,13,20.71-15.55-1.44a12.34,12.34,0,0,1-.17-1.92c0-28.14,96.71-51,216-51,115.08,0,209.14,21.15,215.68,47.9C394.27,18.17,304.75,36.64,197.59,36.71Z"/><g class="cls-5"><rect class="cls-6" x="-153.26" y="-15.27" width="229.66" height="1.5" transform="translate(-0.49 -30.28) rotate(-43.26)"/><rect class="cls-6" x="469.22" y="-129.16" width="1.5" height="228.22" transform="translate(157.87 336.65) rotate(-46.58)"/><rect class="cls-6" x="260.07" y="-94.67" width="1.5" height="159.77" transform="translate(6.96 46.89) rotate(-10.41)"/><rect class="cls-6" x="409.58" y="-115.79" width="1.5" height="201.83" transform="translate(100.38 254.43) rotate(-38.91)"/><rect class="cls-6" x="289.94" y="-97.06" width="1.5" height="164.3" transform="translate(17.3 85.01) rotate(-17.14)"/><rect class="cls-6" x="319.93" y="-100.39" width="1.5" height="171.38" transform="translate(32.26 126.25) rotate(-23.42)"/><rect class="cls-6" x="349.71" y="-104.8" width="1.5" height="179.69" transform="translate(51.67 168.81) rotate(-29.15)"/><rect class="cls-6" x="439.71" y="-122.16" width="1.5" height="215.03" transform="translate(128.21 296.35) rotate(-42.98)"/><rect class="cls-6" x="379.76" y="-109.89" width="1.5" height="190.3" transform="translate(74.52 211.92) rotate(-34.31)"/><rect class="cls-6" x="230.15" y="-93.59" width="1.5" height="157.16" transform="translate(1.29 13.59) rotate(-3.38)"/><rect class="cls-6" x="58.73" y="-15.42" width="164.87" height="1.5" transform="translate(112.76 124.38) rotate(-72.52)"/><rect class="cls-6" x="25.6" y="-15.63" width="171.5" height="1.5" transform="translate(80.16 93.04) rotate(-66.27)"/><rect class="cls-6" x="91.12" y="-15.54" width="159.94" height="1.5" transform="translate(153.59 156.05) rotate(-79.21)"/><rect class="cls-6" x="-9.03" y="-15.34" width="180.65" height="1.5" transform="translate(54.05 63.38) rotate(-60.57)"/><rect class="cls-6" x="122.13" y="-15.32" width="157.72" height="1.5" transform="translate(202.24 186.94) rotate(-86.21)"/><rect class="cls-6" x="-227.85" y="-15.36" width="259.41" height="1.5" transform="translate(-11.24 -62.49) rotate(-37.32)"/><rect class="cls-6" x="-190.05" y="-15.48" width="243.9" height="1.5" transform="translate(-6.53 -47.34) rotate(-40.11)"/><rect class="cls-6" x="-79.79" y="-15.43" width="202.66" height="1.5" transform="translate(19.34 11.29) rotate(-50.88)"/><rect class="cls-6" x="-43.84" y="-15.55" width="190.73" height="1.5" transform="translate(34.49 36.02) rotate(-55.44)"/><rect class="cls-6" x="-115.76" y="-15.65" width="215.2" height="1.5" transform="translate(8.29 -10.66) rotate(-46.83)"/><rect class="cls-7" x="-154.25" y="-15.28" width="229.66" height="1.5" transform="translate(-0.76 -30.96) rotate(-43.26)"/><rect class="cls-7" x="468.23" y="-129.16" width="1.5" height="228.22" transform="translate(157.56 335.94) rotate(-46.58)"/><rect class="cls-7" x="259.08" y="-94.67" width="1.5" height="159.77" transform="translate(6.95 46.71) rotate(-10.41)"/><rect class="cls-7" x="408.59" y="-115.8" width="1.5" height="201.83" transform="translate(100.17 253.8) rotate(-38.91)"/><rect class="cls-7" x="288.95" y="-97.06" width="1.5" height="164.3" transform="translate(17.26 84.71) rotate(-17.14)"/><rect class="cls-7" x="318.93" y="-100.39" width="1.5" height="171.38" transform="translate(32.18 125.85) rotate(-23.42)"/><rect class="cls-7" x="348.72" y="-104.81" width="1.5" height="179.69" transform="translate(51.55 168.33) rotate(-29.15)"/><rect class="cls-7" x="438.71" y="-122.17" width="1.5" height="215.03" transform="translate(127.95 295.67) rotate(-42.98)"/><rect class="cls-7" x="378.77" y="-109.89" width="1.5" height="190.3" transform="translate(74.35 211.36) rotate(-34.31)"/><rect class="cls-7" x="229.15" y="-93.58" width="1.5" height="157.16" transform="translate(1.28 13.53) rotate(-3.38)"/><rect class="cls-7" x="57.74" y="-15.41" width="164.87" height="1.5" transform="translate(112.05 123.44) rotate(-72.52)"/><rect class="cls-7" x="24.61" y="-15.63" width="171.5" height="1.5" transform="translate(79.57 92.13) rotate(-66.27)"/><rect class="cls-7" x="90.13" y="-15.55" width="159.94" height="1.5" transform="translate(152.79 155.06) rotate(-79.21)"/><rect class="cls-7" x="-10.02" y="-15.35" width="180.65" height="1.5" transform="translate(53.56 62.52) rotate(-60.57)"/><rect class="cls-7" x="121.13" y="-15.32" width="157.72" height="1.5" transform="translate(201.32 185.95) rotate(-86.21)"/><rect class="cls-7" x="-228.84" y="-15.36" width="259.41" height="1.5" transform="translate(-11.44 -63.09) rotate(-37.32)"/><rect class="cls-7" x="-191.04" y="-15.48" width="243.9" height="1.5" transform="translate(-6.76 -47.98) rotate(-40.11)"/><rect class="cls-7" x="-80.78" y="-15.43" width="202.66" height="1.5" transform="translate(18.97 10.52) rotate(-50.88)"/><rect class="cls-7" x="-44.53" y="-15.24" width="190.47" height="1.5" transform="translate(33.66 35.41) rotate(-55.2)"/><rect class="cls-7" x="-116.76" y="-15.64" width="215.2" height="1.5" transform="translate(7.97 -11.39) rotate(-46.83)"/></g><path class="cls-8" d="M197.63-78.47C67.06-78.42-38.78-50.83-38.76-16.84S67.11,44.64,197.68,44.64,434.09,17,434.07-17,328.2-78.51,197.63-78.47ZM419.56-11.69a14.37,14.37,0,0,0,1.26-7.51,15,15,0,0,0-.52-2.46,14.3,14.3,0,0,1,.5,3.62c0,3.78-1.57,7.47-4.56,11v.12l-.34.39c-10.72,12.22-38.33,23.28-77.69,31.17-39.77,8-90,12.36-141.43,12.38C98.57,37.05,12.66,21.64-17-1.36l-.31-.24L-17.36-2a6.31,6.31,0,0,0-.1-.79c-5.6-4.78-8.67-9.86-8.67-15.11a14.23,14.23,0,0,1,.81-4.66l.15-.44.11-.3a.82.82,0,0,1,.1-.26,22.33,22.33,0,0,1,3.9-6.07,39.81,39.81,0,0,1,5.7-5.31A79.09,79.09,0,0,1-2.1-43c4.65-2.3,9.43-4.3,14.27-6.12A274.78,274.78,0,0,1,41.88-58c10-2.45,20.18-4.5,30.36-6.26s20.41-3.24,30.67-4.42,20.55-2.17,30.85-2.94Q164.65-74,195.66-74c20.65,0,41.31.66,61.91,2.1s41.17,3.58,61.56,7c10.19,1.68,20.34,3.65,30.41,6a296.14,296.14,0,0,1,29.82,8.47c9.73,3.47,19.37,7.49,28,13.24,4.25,2.88,8.34,6.29,11.15,10.71A16.78,16.78,0,0,1,421-19.22,14.52,14.52,0,0,1,419.56-11.69Z"/><path class="cls-7" d="M197.56-72.71C74.14-72.66-25.9-48.14-25.89-17.92c0,6.46,4.59,12.65,13,18.4l-2.64-1.92a12.25,12.25,0,0,1-.19-1.92c0-28.14,96.71-51,216-51,115.08,0,209.14,21.15,215.68,47.9a45.24,45.24,0,0,1-9.49,7.84c9.39-6,14.54-12.6,14.54-19.45C421-48.29,320.94-72.75,197.56-72.71Z"/><rect class="cls-7" x="-813.99" y="58.59" width="2037.15" height="21.95"/><path class="cls-9" d="M197,36C97.06,36,12.44,20-16.13-2.16a12.22,12.22,0,0,1-.17-1.91c0-28.14,96.71-51,216-51,115.08,0,209.14,21.15,215.68,47.89C393.69,17.45,304.17,36,197,36Z"/><polygon class="cls-10" points="25.66 -92.73 -147.75 57.09 -163.45 57.85 16.69 -91.75 25.66 -92.73"/><polygon class="cls-10" points="381.07 -91.86 528.39 56.11 544.09 56.85 389.05 -91.88 381.07 -91.86"/><line class="cls-9" x1="-814.65" y1="79.56" x2="1224.49" y2="78.85"/><polygon class="cls-6" points="-811.99 58.28 -557.43 57.46 -302.87 56.95 206.25 56.42 715.37 56.59 969.93 56.92 1224.49 57.57 969.93 58.39 715.37 58.9 206.25 59.42 -302.87 59.25 -557.43 58.92 -811.99 58.28"/></g></g></g></svg>