<svg xmlns="http://www.w3.org/2000/svg" xmlns:xlink="http://www.w3.org/1999/xlink" viewBox="0 0 1920 1080"><defs><style>.cls-1{fill:none;}.cls-2{isolation:isolate;}.cls-3{fill:url(#linear-gradient);}.cls-4{clip-path:url(#clip-path);}.cls-49,.cls-5{opacity:0.35;mix-blend-mode:multiply;}.cls-5{fill:url(#linear-gradient-2);}.cls-6{fill:url(#linear-gradient-3);}.cls-7{fill:url(#linear-gradient-4);}.cls-8{fill:url(#linear-gradient-5);}.cls-9{fill:url(#linear-gradient-6);}.cls-10{fill:url(#linear-gradient-7);}.cls-11{fill:url(#linear-gradient-8);}.cls-12{fill:url(#linear-gradient-9);}.cls-13{opacity:0.5;}.cls-14{fill:#92c1c6;}.cls-15{fill:url(#linear-gradient-10);}.cls-16{fill:url(#linear-gradient-11);}.cls-17{fill:url(#linear-gradient-12);}.cls-18{fill:url(#linear-gradient-13);}.cls-19{fill:url(#linear-gradient-14);}.cls-20{fill:url(#linear-gradient-15);}.cls-21{fill:url(#linear-gradient-16);}.cls-22{fill:url(#linear-gradient-17);}.cls-23{fill:url(#linear-gradient-18);}.cls-24{fill:url(#linear-gradient-19);}.cls-25{fill:url(#linear-gradient-20);}.cls-26{fill:url(#linear-gradient-21);}.cls-27{fill:url(#linear-gradient-22);}.cls-28{fill:url(#linear-gradient-23);}.cls-29{fill:url(#linear-gradient-24);}.cls-30{fill:url(#linear-gradient-25);}.cls-31{fill:url(#linear-gradient-26);}.cls-32{fill:url(#linear-gradient-27);}.cls-33{fill:url(#linear-gradient-28);}.cls-34{fill:url(#linear-gradient-29);}.cls-35{fill:url(#linear-gradient-30);}.cls-36{fill:#808061;}.cls-37{fill:url(#linear-gradient-31);}.cls-38{fill:url(#linear-gradient-32);}.cls-39{fill:url(#linear-gradient-33);}.cls-40{fill:url(#linear-gradient-34);}.cls-41{fill:#5b979e;}.cls-42{fill:url(#linear-gradient-35);}.cls-43{fill:url(#linear-gradient-36);}.cls-44{fill:url(#linear-gradient-37);}.cls-45{fill:url(#linear-gradient-38);}.cls-46{fill:url(#linear-gradient-39);}.cls-104,.cls-47{fill:#fff;}.cls-47,.cls-48{fill-rule:evenodd;}.cls-48{fill:#c7e0ea;}.cls-49{fill:url(#linear-gradient-40);}.cls-50{fill:url(#linear-gradient-41);}.cls-51{fill:url(#linear-gradient-42);}.cls-52{fill:url(#linear-gradient-43);}.cls-53{fill:url(#linear-gradient-44);}.cls-54{fill:url(#linear-gradient-45);}.cls-55{fill:url(#linear-gradient-46);}.cls-56{fill:url(#linear-gradient-47);}.cls-57{fill:url(#linear-gradient-48);}.cls-58{fill:url(#linear-gradient-49);}.cls-59{fill:url(#linear-gradient-50);}.cls-60{fill:url(#linear-gradient-51);}.cls-61{fill:url(#linear-gradient-52);}.cls-62{fill:url(#linear-gradient-53);}.cls-63{fill:url(#linear-gradient-54);}.cls-64{fill:url(#linear-gradient-55);}.cls-65{fill:url(#linear-gradient-56);}.cls-66{fill:url(#linear-gradient-57);}.cls-67{fill:url(#linear-gradient-58);}.cls-68{fill:url(#linear-gradient-59);}.cls-69{fill:url(#linear-gradient-60);}.cls-70{fill:url(#linear-gradient-61);}.cls-71{fill:url(#linear-gradient-62);}.cls-72{fill:url(#linear-gradient-63);}.cls-73{fill:url(#linear-gradient-64);}.cls-74{fill:url(#linear-gradient-65);}.cls-75{fill:url(#linear-gradient-66);}.cls-76{fill:url(#linear-gradient-67);}.cls-77{fill:url(#linear-gradient-68);}.cls-78{fill:url(#linear-gradient-69);}.cls-79{fill:url(#linear-gradient-70);}.cls-80{fill:url(#linear-gradient-71);}.cls-81{fill:url(#linear-gradient-72);}.cls-82{fill:url(#linear-gradient-73);}.cls-83{fill:url(#linear-gradient-74);}.cls-84{fill:url(#linear-gradient-75);}.cls-85{fill:url(#linear-gradient-76);}.cls-86{fill:url(#linear-gradient-77);}.cls-87{fill:url(#linear-gradient-78);}.cls-88{fill:url(#linear-gradient-79);}.cls-89{fill:url(#linear-gradient-80);}.cls-90{fill:url(#linear-gradient-81);}.cls-91{fill:url(#linear-gradient-82);}.cls-92{fill:url(#linear-gradient-83);}.cls-93{fill:url(#linear-gradient-84);}.cls-94{fill:url(#linear-gradient-85);}.cls-95{fill:url(#linear-gradient-86);}.cls-96{fill:url(#linear-gradient-87);}.cls-97{fill:url(#linear-gradient-88);}.cls-98{fill:url(#linear-gradient-89);}.cls-99{fill:url(#linear-gradient-90);}.cls-100{fill:url(#linear-gradient-91);}.cls-101{fill:url(#linear-gradient-92);}.cls-102{fill:url(#linear-gradient-93);}.cls-103{opacity:0.7;}.cls-104{opacity:0.2;}</style><linearGradient id="linear-gradient" x1="961.15" y1="1080" x2="961.15" y2="-0.76" gradientUnits="userSpaceOnUse"><stop offset="0" stop-color="#dcd3a3"/><stop offset="1" stop-color="#4b8a8d"/></linearGradient><clipPath id="clip-path"><rect class="cls-1" x="-0.11" y="-0.76" width="1922.51" height="1080.76"/></clipPath><linearGradient id="linear-gradient-2" x1="180.15" y1="915.32" x2="180.15" y2="457.68" gradientUnits="userSpaceOnUse"><stop offset="0" stop-color="#8c977e" stop-opacity="0"/><stop offset="1" stop-color="#89947b"/></linearGradient><linearGradient id="linear-gradient-3" x1="921.04" y1="898.93" x2="921.04" y2="769.52" gradientTransform="matrix(-1, 0, 0, 1, 1485.02, 0)" gradientUnits="userSpaceOnUse"><stop offset="0" stop-color="#808061" stop-opacity="0"/><stop offset="0.61" stop-color="#808061"/></linearGradient><linearGradient id="linear-gradient-4" x1="921.04" y1="898.93" x2="921.04" y2="766.34" gradientTransform="matrix(-1, 0, 0, 1, 1485.02, 0)" gradientUnits="userSpaceOnUse"><stop offset="0" stop-color="#dcc87a" stop-opacity="0"/><stop offset="0.63" stop-color="#dcc87a"/></linearGradient><linearGradient id="linear-gradient-5" x1="913.11" y1="892.39" x2="913.11" y2="783.99" gradientTransform="matrix(-1, 0, 0, 1, 1485.02, 0)" gradientUnits="userSpaceOnUse"><stop offset="0" stop-color="#5b979e" stop-opacity="0"/><stop offset="0.58" stop-color="#5b979e"/></linearGradient><linearGradient id="linear-gradient-6" x1="955.07" y1="891.57" x2="955.07" y2="774.92" gradientTransform="matrix(-1, 0, 0, 1, 1485.02, 0)" gradientUnits="userSpaceOnUse"><stop offset="0" stop-color="#b7dadd" stop-opacity="0"/><stop offset="0.58" stop-color="#b7dadd"/></linearGradient><linearGradient id="linear-gradient-7" x1="606.43" y1="900.95" x2="606.43" y2="764.86" xlink:href="#linear-gradient-3"/><linearGradient id="linear-gradient-8" x1="606.43" y1="900.95" x2="606.43" y2="763.84" xlink:href="#linear-gradient-4"/><linearGradient id="linear-gradient-9" x1="883.43" y1="895.12" x2="883.43" y2="774.58" gradientUnits="userSpaceOnUse"><stop offset="0" stop-color="#5b979e" stop-opacity="0"/><stop offset="0.89" stop-color="#5b979e"/></linearGradient><linearGradient id="linear-gradient-10" x1="732.99" y1="908.92" x2="732.99" y2="654.09" gradientTransform="matrix(1, 0, 0, 1, 0, 0)" xlink:href="#linear-gradient-3"/><linearGradient id="linear-gradient-11" x1="700.28" y1="908.92" x2="700.28" y2="654.12" gradientTransform="matrix(1, 0, 0, 1, 0, 0)" xlink:href="#linear-gradient-4"/><linearGradient id="linear-gradient-12" x1="732.98" y1="908.93" x2="732.98" y2="670.52" gradientUnits="userSpaceOnUse"><stop offset="0" stop-color="#5b979e" stop-opacity="0"/><stop offset="0.83" stop-color="#5b979e"/></linearGradient><linearGradient id="linear-gradient-13" x1="737.99" y1="908.94" x2="737.99" y2="670.76" xlink:href="#linear-gradient-12"/><linearGradient id="linear-gradient-14" x1="747.69" y1="908.95" x2="747.69" y2="671.24" xlink:href="#linear-gradient-12"/><linearGradient id="linear-gradient-15" x1="728.47" y1="908.93" x2="728.47" y2="670.3" xlink:href="#linear-gradient-12"/><linearGradient id="linear-gradient-16" x1="765.66" y1="908.97" x2="765.66" y2="672.13" xlink:href="#linear-gradient-12"/><linearGradient id="linear-gradient-17" x1="752.25" y1="908.95" x2="752.25" y2="671.46" xlink:href="#linear-gradient-12"/><linearGradient id="linear-gradient-18" x1="770.26" y1="908.97" x2="770.26" y2="672.35" xlink:href="#linear-gradient-12"/><linearGradient id="linear-gradient-19" x1="775.13" y1="908.98" x2="775.13" y2="672.59" xlink:href="#linear-gradient-12"/><linearGradient id="linear-gradient-20" x1="757.08" y1="908.96" x2="757.08" y2="671.7" xlink:href="#linear-gradient-12"/><linearGradient id="linear-gradient-21" x1="699.18" y1="908.92" x2="699.18" y2="671.96" gradientUnits="userSpaceOnUse"><stop offset="0" stop-color="#b7dadd" stop-opacity="0"/><stop offset="0.78" stop-color="#b7dadd"/></linearGradient><linearGradient id="linear-gradient-22" x1="694.03" y1="908.92" x2="694.03" y2="672.43" xlink:href="#linear-gradient-21"/><linearGradient id="linear-gradient-23" x1="702.1" y1="908.92" x2="702.1" y2="671.69" xlink:href="#linear-gradient-21"/><linearGradient id="linear-gradient-24" x1="691.29" y1="908.92" x2="691.29" y2="672.68" xlink:href="#linear-gradient-21"/><linearGradient id="linear-gradient-25" x1="688.41" y1="908.92" x2="688.41" y2="672.94" xlink:href="#linear-gradient-21"/><linearGradient id="linear-gradient-26" x1="713.83" y1="908.92" x2="713.83" y2="670.62" xlink:href="#linear-gradient-21"/><linearGradient id="linear-gradient-27" x1="716.66" y1="908.92" x2="716.66" y2="670.36" xlink:href="#linear-gradient-21"/><linearGradient id="linear-gradient-28" x1="704.89" y1="908.92" x2="704.89" y2="671.44" xlink:href="#linear-gradient-21"/><linearGradient id="linear-gradient-29" x1="710.86" y1="908.92" x2="710.86" y2="670.89" xlink:href="#linear-gradient-21"/><linearGradient id="linear-gradient-30" x1="197.23" y1="963.5" x2="197.23" y2="756.4" gradientTransform="matrix(1, 0, 0, 1, 0, 0)" xlink:href="#linear-gradient-3"/><linearGradient id="linear-gradient-31" x1="138.02" y1="849.61" x2="257.34" y2="849.61" gradientTransform="matrix(1, 0, 0, 1, 0, 0)" xlink:href="#linear-gradient-4"/><linearGradient id="linear-gradient-32" x1="153.97" y1="731.58" x2="243.21" y2="731.58" gradientTransform="matrix(1, 0, 0, 1, 0, 0)" xlink:href="#linear-gradient-4"/><linearGradient id="linear-gradient-33" x1="166.1" y1="694.24" x2="233.85" y2="694.24" gradientTransform="matrix(1, 0, 0, 1, 0, 0)" xlink:href="#linear-gradient-4"/><linearGradient id="linear-gradient-34" x1="197.48" y1="954.19" x2="197.48" y2="767.71" xlink:href="#linear-gradient-9"/><linearGradient id="linear-gradient-35" x1="363.91" y1="687.96" x2="363.91" y2="607.46" gradientTransform="matrix(1, 0, 0, 1, 0, 0)" xlink:href="#linear-gradient-4"/><linearGradient id="linear-gradient-36" x1="421.69" y1="934.41" x2="421.69" y2="675.92" gradientTransform="matrix(-1, 0, 0, 1, 811.58, 0)" xlink:href="#linear-gradient-3"/><linearGradient id="linear-gradient-37" x1="460.27" y1="934.41" x2="460.27" y2="675.92" gradientTransform="matrix(-1, 0, 0, 1, 811.58, 0)" xlink:href="#linear-gradient-4"/><linearGradient id="linear-gradient-38" x1="352.29" y1="761.38" x2="435.76" y2="761.38" gradientTransform="matrix(1, 0, 0, 1, 0, 0)" xlink:href="#linear-gradient-4"/><linearGradient id="linear-gradient-39" x1="393.49" y1="934.97" x2="393.49" y2="684.58" gradientTransform="matrix(1, 0, 0, 1, 0, 0)" xlink:href="#linear-gradient-5"/><linearGradient id="linear-gradient-40" x1="1765.16" y1="915.32" x2="1765.16" y2="457.68" xlink:href="#linear-gradient-2"/><linearGradient id="linear-gradient-41" x1="-1390.94" y1="953.75" x2="-1390.94" y2="698.92" gradientTransform="translate(2642.39)" xlink:href="#linear-gradient-3"/><linearGradient id="linear-gradient-42" x1="-1423.65" y1="953.75" x2="-1423.65" y2="698.95" gradientTransform="translate(2642.39)" xlink:href="#linear-gradient-4"/><linearGradient id="linear-gradient-43" x1="-1390.94" y1="953.76" x2="-1390.94" y2="715.35" gradientTransform="translate(2642.39)" xlink:href="#linear-gradient-12"/><linearGradient id="linear-gradient-44" x1="-1385.94" y1="953.77" x2="-1385.94" y2="715.59" gradientTransform="translate(2642.39)" xlink:href="#linear-gradient-12"/><linearGradient id="linear-gradient-45" x1="-1376.23" y1="953.78" x2="-1376.23" y2="716.07" gradientTransform="translate(2642.39)" xlink:href="#linear-gradient-12"/><linearGradient id="linear-gradient-46" x1="-1395.46" y1="953.76" x2="-1395.46" y2="715.13" gradientTransform="translate(2642.39)" xlink:href="#linear-gradient-12"/><linearGradient id="linear-gradient-47" x1="-1358.27" y1="953.8" x2="-1358.27" y2="716.96" gradientTransform="translate(2642.39)" xlink:href="#linear-gradient-12"/><linearGradient id="linear-gradient-48" x1="-1371.67" y1="953.78" x2="-1371.67" y2="716.29" gradientTransform="translate(2642.39)" xlink:href="#linear-gradient-12"/><linearGradient id="linear-gradient-49" x1="-1353.66" y1="953.8" x2="-1353.66" y2="717.18" gradientTransform="translate(2642.39)" xlink:href="#linear-gradient-12"/><linearGradient id="linear-gradient-50" x1="-1348.79" y1="953.81" x2="-1348.79" y2="717.43" gradientTransform="translate(2642.39)" xlink:href="#linear-gradient-12"/><linearGradient id="linear-gradient-51" x1="-1366.85" y1="953.79" x2="-1366.85" y2="716.53" gradientTransform="translate(2642.39)" xlink:href="#linear-gradient-12"/><linearGradient id="linear-gradient-52" x1="-1424.74" y1="953.75" x2="-1424.74" y2="716.79" gradientTransform="translate(2642.39)" xlink:href="#linear-gradient-21"/><linearGradient id="linear-gradient-53" x1="-1429.89" y1="953.75" x2="-1429.89" y2="717.26" gradientTransform="translate(2642.39)" xlink:href="#linear-gradient-21"/><linearGradient id="linear-gradient-54" x1="-1421.82" y1="953.75" x2="-1421.82" y2="716.52" gradientTransform="translate(2642.39)" xlink:href="#linear-gradient-21"/><linearGradient id="linear-gradient-55" x1="-1432.63" y1="953.75" x2="-1432.63" y2="717.51" gradientTransform="translate(2642.39)" xlink:href="#linear-gradient-21"/><linearGradient id="linear-gradient-56" x1="-1435.51" y1="953.75" x2="-1435.51" y2="717.77" gradientTransform="translate(2642.39)" xlink:href="#linear-gradient-21"/><linearGradient id="linear-gradient-57" x1="-1410.1" y1="953.75" x2="-1410.1" y2="715.45" gradientTransform="translate(2642.39)" xlink:href="#linear-gradient-21"/><linearGradient id="linear-gradient-58" x1="-1407.27" y1="953.75" x2="-1407.27" y2="715.19" gradientTransform="translate(2642.39)" xlink:href="#linear-gradient-21"/><linearGradient id="linear-gradient-59" x1="-1419.04" y1="953.75" x2="-1419.04" y2="716.27" gradientTransform="translate(2642.39)" xlink:href="#linear-gradient-21"/><linearGradient id="linear-gradient-60" x1="-1413.07" y1="953.75" x2="-1413.07" y2="715.72" gradientTransform="translate(2642.39)" xlink:href="#linear-gradient-21"/><linearGradient id="linear-gradient-61" x1="1413.01" y1="911.55" x2="1413.01" y2="461.51" gradientTransform="matrix(1, 0, 0, 1, 0, 0)" xlink:href="#linear-gradient-3"/><linearGradient id="linear-gradient-62" x1="1442.24" y1="912.94" x2="1442.24" y2="461.55" gradientTransform="matrix(1, 0, 0, 1, 0, 0)" xlink:href="#linear-gradient-4"/><linearGradient id="linear-gradient-63" x1="1382.4" y1="867.23" x2="1382.4" y2="474.63" gradientTransform="matrix(1, 0, 0, 1, 0, 0)" xlink:href="#linear-gradient-5"/><linearGradient id="linear-gradient-64" x1="1378.52" y1="867.72" x2="1378.52" y2="475.28" gradientTransform="matrix(1, 0, 0, 1, 0, 0)" xlink:href="#linear-gradient-5"/><linearGradient id="linear-gradient-65" x1="1374.46" y1="867.59" x2="1374.46" y2="476.39" gradientTransform="matrix(1, 0, 0, 1, 0, 0)" xlink:href="#linear-gradient-5"/><linearGradient id="linear-gradient-66" x1="1393.74" y1="863.96" x2="1393.74" y2="472.9" gradientTransform="matrix(1, 0, 0, 1, 0, 0)" xlink:href="#linear-gradient-5"/><linearGradient id="linear-gradient-67" x1="1389.63" y1="863.83" x2="1389.63" y2="473.51" gradientTransform="matrix(1, 0, 0, 1, 0, 0)" xlink:href="#linear-gradient-5"/><linearGradient id="linear-gradient-68" x1="1397.67" y1="863.47" x2="1397.67" y2="472.33" gradientTransform="matrix(1, 0, 0, 1, 0, 0)" xlink:href="#linear-gradient-5"/><linearGradient id="linear-gradient-69" x1="1410.51" y1="863.73" x2="1410.51" y2="470.58" gradientTransform="matrix(1, 0, 0, 1, 0, 0)" xlink:href="#linear-gradient-5"/><linearGradient id="linear-gradient-70" x1="1414.41" y1="863.23" x2="1414.41" y2="470.04" gradientTransform="matrix(1, 0, 0, 1, 0, 0)" xlink:href="#linear-gradient-5"/><linearGradient id="linear-gradient-71" x1="1406.4" y1="863.6" x2="1406.4" y2="471.15" gradientTransform="matrix(1, 0, 0, 1, 0, 0)" xlink:href="#linear-gradient-5"/><linearGradient id="linear-gradient-72" x1="1441.33" y1="670.7" x2="1454.45" y2="670.7" gradientTransform="matrix(1, 0, 0, 1, 0, 0)" xlink:href="#linear-gradient-6"/><linearGradient id="linear-gradient-73" x1="1443.61" y1="670.97" x2="1457.47" y2="670.97" gradientTransform="matrix(1, 0, 0, 1, 0, 0)" xlink:href="#linear-gradient-6"/><linearGradient id="linear-gradient-74" x1="1446.04" y1="671.02" x2="1460.58" y2="671.02" gradientTransform="matrix(1, 0, 0, 1, 0, 0)" xlink:href="#linear-gradient-6"/><linearGradient id="linear-gradient-75" x1="1434.67" y1="668.88" x2="1445.57" y2="668.88" gradientTransform="matrix(1, 0, 0, 1, 0, 0)" xlink:href="#linear-gradient-6"/><linearGradient id="linear-gradient-76" x1="1437.13" y1="668.73" x2="1448.79" y2="668.73" gradientTransform="matrix(1, 0, 0, 1, 0, 0)" xlink:href="#linear-gradient-6"/><linearGradient id="linear-gradient-77" x1="1432.36" y1="668.64" x2="1442.51" y2="668.64" gradientTransform="matrix(1, 0, 0, 1, 0, 0)" xlink:href="#linear-gradient-6"/><linearGradient id="linear-gradient-78" x1="1424.89" y1="669.03" x2="1432.66" y2="669.03" gradientTransform="matrix(1, 0, 0, 1, 0, 0)" xlink:href="#linear-gradient-6"/><linearGradient id="linear-gradient-79" x1="1422.54" y1="668.8" x2="1429.55" y2="668.8" gradientTransform="matrix(1, 0, 0, 1, 0, 0)" xlink:href="#linear-gradient-6"/><linearGradient id="linear-gradient-80" x1="1427.36" y1="668.87" x2="1435.93" y2="668.87" gradientTransform="matrix(1, 0, 0, 1, 0, 0)" xlink:href="#linear-gradient-6"/><linearGradient id="linear-gradient-81" x1="1579.49" y1="906.66" x2="1579.49" y2="748.84" gradientTransform="matrix(1, 0, 0, 1, 0, 0)" xlink:href="#linear-gradient-3"/><linearGradient id="linear-gradient-82" x1="1579.49" y1="906.56" x2="1579.49" y2="748.84" gradientTransform="matrix(1, 0, 0, 1, 0, 0)" xlink:href="#linear-gradient-4"/><linearGradient id="linear-gradient-83" x1="1569.83" y1="898.59" x2="1569.83" y2="766.47" gradientTransform="matrix(1, 0, 0, 1, 0, 0)" xlink:href="#linear-gradient-5"/><linearGradient id="linear-gradient-84" x1="1620.46" y1="896.57" x2="1620.46" y2="759.84" gradientTransform="matrix(1, 0, 0, 1, 0, 0)" xlink:href="#linear-gradient-6"/><linearGradient id="linear-gradient-85" x1="1765.19" y1="687.96" x2="1765.19" y2="607.46" gradientTransform="matrix(1, 0, 0, 1, 0, 0)" xlink:href="#linear-gradient-4"/><linearGradient id="linear-gradient-86" x1="-979.59" y1="934.41" x2="-979.59" y2="675.92" gradientTransform="matrix(-1, 0, 0, 1, 811.58, 0)" xlink:href="#linear-gradient-3"/><linearGradient id="linear-gradient-87" x1="-941" y1="934.41" x2="-941" y2="675.92" gradientTransform="matrix(-1, 0, 0, 1, 811.58, 0)" xlink:href="#linear-gradient-4"/><linearGradient id="linear-gradient-88" x1="1753.56" y1="761.38" x2="1837.03" y2="761.38" gradientTransform="matrix(1, 0, 0, 1, 0, 0)" xlink:href="#linear-gradient-4"/><linearGradient id="linear-gradient-89" x1="1794.76" y1="934.97" x2="1794.76" y2="684.58" gradientTransform="matrix(1, 0, 0, 1, 0, 0)" xlink:href="#linear-gradient-5"/><linearGradient id="linear-gradient-90" x1="-2261.86" y1="912.54" x2="-2261.86" y2="665.77" gradientTransform="translate(3330.17)" xlink:href="#linear-gradient-3"/><linearGradient id="linear-gradient-91" x1="-2291.6" y1="912.54" x2="-2291.6" y2="665.81" gradientTransform="translate(3330.17)" xlink:href="#linear-gradient-4"/><linearGradient id="linear-gradient-92" x1="2271.65" y1="912.06" x2="2271.65" y2="677.18" gradientTransform="matrix(-1, 0, 0, 1, 3361.07, 0)" xlink:href="#linear-gradient-5"/><linearGradient id="linear-gradient-93" x1="-1682.3" y1="906.86" x2="-1682.3" y2="676.22" gradientTransform="translate(2720.83)" xlink:href="#linear-gradient-6"/></defs><title>Level08-Escape-game-background</title><g class="cls-2"><g id="background"><rect class="cls-3" x="-0.11" y="-0.76" width="1922.51" height="1080.76"/><g class="cls-4"><path class="cls-5" d="M927.74,667.58l-.08-56.48L892,612.75V538.61h-5.61V514.07h-4.38l-3.25-22.55-3,22.55h-5.25v24.54h-5.62v47.78H836.08l-3.4-41.19-89.88-1.65-1.7,42.84-47.31-.53-1.74,76.24-43.54-.23,2-80.53-30.31-9.25L586.41,578l-1.73,47.11-16.94,25.5,3.08-112.15-12.12-5.89-.87-26.08-23.38-10.09L503.27,504l-1.21,26.69-16.56,5.27-.95-58.78-28.9-13.56-52.83,9.25L401.7,599.44l-7.15,1.88.48-25.87-9.52-2.63v-32.7l-24.25-10.93-38.11,6.73v33.64L311,572.09l1.73,67.3-21.65,9.25V530.87l-8.66-4.21V492.17L263.4,480.39,240,487.12v48l-16.45,7.57v90l-39.88,12.12V615.17h-5.62V590.63h-4.38l-3.25-22.55-3,22.55h-5.25v24.54h-5.62V653L143,657.14c-7.13-60.76-20.37-108-45.9-127.95,0,0-26.92,18.25-35.25,91.42l-27.45-.5-1.52,38.43-12.46-.07-104.3-31.7v-90l-16.45-7.57v-48l-23.38-6.73-19,11.78v34.49l-8.66,4.21V642.75L-173,633.5l1.73-67.3-12.12-2.52V530l-38.1-6.73-24.26,10.93v32.7l-9.52,2.63.49,25.87-7.16-1.88-1.12-126.62-52.82-9.25-28.91,13.56-.95,58.78-16.56-5.27-1.21-26.69-31.18-7.57-23.38,10.09-.86,26.08-12.13,5.89L-428,644.71l-16.94-25.51-1.73-47.11-33.78-5.89-30.31,9.25,2,80.16-44.42-.24-.17,1.07-7.61-.23-5.36,11.37h-46V915.32h1585V667.58Z"/><polygon class="cls-6" points="606.58 773.6 583.62 769.52 521.38 769.6 522.59 898.93 604.91 897.76 606.58 773.6"/><polygon class="cls-7" points="538.3 774.21 539.63 898.7 522.59 898.93 521.38 766.42 583.62 766.34 606.58 773.6 538.3 774.21"/><path class="cls-8" d="M554.66,880.45l5.48,0,0-6.76-5.49,0Zm0,5,5.48,0,0,6.84-5.48.06Zm8.76-90.34,5.58.11,0,6.2-5.58-.1Zm-.06-10.66,5.58.13,0,6.13-5.58-.13Zm-9,54.36,5.5,0,0,6.52-5.49,0Zm.08,11.45,5.49,0,0,6.6h-5.49Zm.07,11.49H560l0,6.68-5.49,0Zm9.23-11.46,5.57,0,0,6.58h-5.56Zm.07,11.45h5.56l0,6.66h-5.56ZM563.52,806l5.57.1,0,6.27-5.58-.08Zm.19,32.87,5.57,0,0,6.5-5.56,0Zm-9.39-11.27,5.5,0,0,6.45-5.5-.05Zm9.32.09,5.57.06,0,6.42-5.57,0Zm.34,57.69,5.55,0,0,6.82-5.55.06Zm-.4-68.46,5.57.08,0,6.35-5.57-.07Zm-18.69,10.58,5.43.06,0,6.46-5.43,0Zm.08,11.24,5.42,0,0,6.54-5.42,0Zm-.15-22.07,5.43.07,0,6.39-5.43-.07Zm-.08-11,5.44.1,0,6.31-5.44-.08ZM544.59,784l5.45.13,0,6.16-5.44-.12Zm.08,10.72,5.44.12,0,6.23-5.44-.1Zm.37,55.51,5.43,0,0,6.62h-5.42Zm9.08-55.31,5.51.11,0,6.22-5.51-.1Zm-.07-10.7,5.51.13,0,6.15-5.51-.12Zm.21,32.57,5.5.08,0,6.37-5.5-.07Zm-9.14,45h5.42l.05,6.7h-5.42Zm9.07-55.91,5.5.1,0,6.29-5.5-.08Zm-8.91,79.68,5.42,0,0,6.87-5.41,0Zm-.08-11.8,5.42,0,0,6.78-5.41,0Zm18.71-.08,5.56,0,0,6.74-5.55,0ZM593,785.14l5.81.14,0,6.07-5.81-.13Zm0,10.56,5.81.12,0,6.15-5.8-.11Zm-9.52,89.52,5.7-.05,0,6.79-5.7,0Zm-.11-23.49h5.71l0,6.62-5.71,0Zm.06,11.82,5.7,0,0,6.7-5.7,0Zm-.12-23.2h5.72l0,6.54h-5.71Zm9.74-43.85,5.8.1,0,6.21-5.8-.09Zm.34,78.64,5.78,0,0,6.76-5.78.06Zm-.29-67.82,5.8.07,0,6.29-5.8-.06ZM583.28,839l5.71,0,0,6.46-5.71,0Zm10,22.73h5.78l0,6.6h-5.78Zm.05,11.79,5.78,0,0,6.68-5.78,0Zm-20.27-88.84,5.66.13,0,6.11-5.65-.12Zm20.17,65.71,5.79,0,0,6.51h-5.78Zm0-11.32,5.79,0,0,6.44-5.79,0ZM593.16,828l5.8.06,0,6.36-5.79,0Zm-19.78,10.94,5.64,0,0,6.48-5.63,0Zm-.06-11.15,5.65.06,0,6.4-5.64,0Zm.12,22.53,5.64,0,0,6.56h-5.63Zm-.23-44.15,5.65.1,0,6.25-5.65-.09Zm-.06-10.86,5.65.11,0,6.18-5.65-.1Zm.12,21.74,5.64.08,0,6.33-5.64-.07Zm.23,44.69h5.64l0,6.64h-5.63Zm9.57-66.23,5.73.12,0,6.16-5.73-.11Zm.16,32.39,5.71.05,0,6.39-5.71-.05Zm-.11-21.56,5.73.1,0,6.23-5.72-.09Zm0,10.85,5.73.08,0,6.31-5.72-.07Zm-9.6,56.41,5.63,0,0,6.72-5.63,0Zm.06,11.7,5.63,0,0,6.81-5.62.05ZM583,784.9l5.73.14,0,6.09-5.73-.13Z"/><path class="cls-9" d="M526,873.53l1.33.76-.06-6.79-1.33-.76Zm0,5,1.33.76.06,6.86-1.33-.75Zm1.49-90,1.37.82.05,6.32-1.36-.83Zm-.09-10.87,1.37.84,0,6.25-1.37-.83Zm-1.8,53.92,1.34.79,0,6.58-1.33-.78Zm.1,11.55,1.33.78.06,6.65-1.33-.77Zm.1,11.56,1.33.77.06,6.72-1.33-.76ZM528,844.5l1.36.79.05,6.65-1.35-.79Zm.1,11.55,1.35.78.06,6.72-1.36-.78Zm-.47-56.4,1.36.82.05,6.38-1.36-.81Zm.27,33.31,1.36.8.06,6.58-1.36-.8Zm-2.36-12.65,1.34.79.05,6.52-1.33-.79Zm2.27,1.34,1.36.81,0,6.51-1.36-.8Zm.49,58.17,1.35.77.05,6.86-1.35-.76Zm-.58-69.08,1.36.81,0,6.44-1.36-.81ZM523.28,819l1.32.78.06,6.52-1.32-.78Zm.1,11.33,1.32.77.06,6.59-1.32-.77Zm-.2-22.27,1.32.78.06,6.46-1.32-.78Zm-.09-11.11,1.31.79.06,6.39-1.32-.79Zm-.2-22,1.32.81.06,6.26-1.32-.8Zm.1,10.89,1.32.8.05,6.32-1.32-.79Zm.5,56,1.31.77.06,6.66-1.31-.76Zm1.79-54.65,1.35.81,0,6.32-1.34-.81Zm-.09-10.88,1.35.82.05,6.26-1.35-.81Zm.29,33.06,1.34.8,0,6.45-1.34-.79Zm-1.89,44,1.31.76.06,6.73-1.31-.75Zm1.79-55.13,1.34.8.06,6.39-1.34-.8Zm-1.58,79,1.31.74.06,6.88-1.31-.74Zm-.1-11.82,1.31.75.06,6.8-1.31-.74Zm4.53,2.6,1.35.78.06,6.78-1.35-.77Zm6.53-85.87,1.44.87,0,6.23-1.44-.87Zm.08,10.82,1.44.87.05,6.29-1.44-.86Zm-1.75,89.56,1.4.79,0,6.84-1.4-.79Zm-.18-23.73,1.4.81.05,6.7-1.4-.8Zm.09,12,1.4.8.05,6.77-1.4-.8Zm-.18-23.48,1.4.82,0,6.63-1.4-.81ZM534.93,804l1.43.86,0,6.36-1.44-.86Zm.59,79.9,1.43.81,0,6.84-1.43-.81ZM535,815.07l1.43.85,0,6.42-1.43-.85Zm-2.28,20.71,1.4.83,0,6.56-1.4-.83Zm2.62,24.44,1.42.83.05,6.69-1.42-.82Zm.09,11.95,1.42.81,0,6.77-1.42-.82Zm-5.59-93,1.39.85,0,6.25-1.39-.85Zm5.41,69.56,1.43.83,0,6.62-1.43-.83Zm-.09-11.5,1.44.84,0,6.55-1.43-.83ZM535.09,826l1.43.84.05,6.49-1.43-.84Zm-4.79,8.4,1.38.82.05,6.56-1.38-.8Zm-.09-11.29,1.38.82,0,6.5-1.38-.82Zm.18,22.82,1.38.8.05,6.64-1.37-.8Zm-.36-44.8,1.39.83.05,6.37-1.39-.83ZM529.94,790l1.39.84,0,6.31-1.39-.84Zm.18,22.14,1.39.83,0,6.43-1.39-.82Zm.36,45.26,1.38.8.06,6.71-1.38-.8Zm1.9-65.92,1.42.86,0,6.3-1.41-.86Zm.26,33,1.41.83.05,6.49-1.41-.83Zm-.17-22,1.41.85,0,6.37-1.41-.85Zm.08,11.06,1.41.84,0,6.43L532.6,820Zm-2,55.78,1.38.79,0,6.78-1.37-.79Zm.1,11.78,1.37.78.06,6.85-1.38-.77Zm1.62-100.51,1.41.87,0,6.23-1.41-.86Z"/><polygon class="cls-10" points="920.1 769.15 895.94 764.86 843.09 764.92 837.08 900.95 913.22 899.8 920.1 769.15"/><polygon class="cls-11" points="848.25 769.79 845.09 900.78 837.07 900.95 843.09 763.91 895.94 763.85 920.1 769.15 848.25 769.79"/><path class="cls-12" d="M853.2,785.56l62.29-1.33-.25,4.44L853.11,790C853.14,788.45,853.17,787,853.2,785.56Zm-.4,19c0,1.49-.06,3-.09,4.51l61.43-1,.26-4.58Zm61.88-6.11.26-4.56L853,795.08c0,1.48-.06,3-.1,4.51Zm-.87,15.29-61.22.95-.09,4.42,61.06-.89Zm-62,40.22q0,2.25-.09,4.47l59.61-.41.26-4.52Zm.1-4.89,60-.52.26-4.52L852,844.6C851.93,846.09,851.9,847.58,851.87,849.06Zm1.44-68.65,62.48-1.4.25-4.43L853.4,776Q853.36,778.13,853.31,780.41ZM852.39,824l-.09,4.43,60.72-.78.26-4.49Zm-.31,15,60.33-.65.26-4.61-60.49.71C852.15,835.91,852.11,837.42,852.08,838.94Zm-.89,38.38,59.93-.86.24-4.14-60.08.91C851.25,874.56,851.22,875.93,851.19,877.32Zm-.28,13.59c0,1.39-.06,2.79-.09,4.21l59.27-.64.24-4.26Zm59.69-5.37.24-4.24-59.75.8c0,1.37-.05,2.77-.08,4.19Zm-59.22-17.1,60.26-1,.23-4.12-60.4,1C851.44,865.67,851.41,867,851.38,868.44Z"/><g class="cls-13"><path class="cls-14" d="M852.5,819.1l14.21-.21,4.46-4.5-18.58.29Z"/><path class="cls-14" d="M852.71,809.06l24.14-.4,4.57-4.61-24.81.43-3.9,4.33Z"/><polygon class="cls-14" points="886.45 798.97 891.03 794.34 865.3 794.85 861.16 799.43 886.45 798.97"/><polygon class="cls-14" points="896.26 789.06 900.74 784.54 874.08 785.11 870.03 789.6 896.26 789.06"/><polygon class="cls-14" points="914.68 798.44 914.94 793.88 910.66 793.96 906.45 798.59 914.68 798.44"/><path class="cls-14" d="M852.39,824l-.09,4.43,5.07-.06,4.46-4.5Z"/><polygon class="cls-14" points="878.84 779.84 906 779.23 910.48 774.71 882.89 775.35 878.84 779.84"/><polygon class="cls-14" points="892.39 814.06 888.28 818.58 898.12 818.43 902.37 813.9 892.39 814.06"/><polygon class="cls-14" points="883.78 823.53 879.68 828.04 889.21 827.92 893.46 823.39 883.78 823.53"/><polygon class="cls-14" points="901.82 803.69 897.61 808.32 907.77 808.14 912.13 803.5 901.82 803.69"/><polygon class="cls-14" points="864.87 853.85 856.16 853.92 852.07 858.42 860.64 858.36 864.87 853.85"/><path class="cls-14" d="M855.06,864.31l-3.59.06c0,1.23-.06,2.51-.08,3.85Z"/><polygon class="cls-14" points="860.65 848.98 869.51 848.91 873.75 844.39 864.74 844.48 860.65 848.98"/><polygon class="cls-14" points="874.14 834.13 869.95 838.75 879.14 838.65 883.48 834.02 874.14 834.13"/></g><path class="cls-15" d="M786.72,657.6l-65.27-3.51-42.19,9.2,9,245.63h87.41Z"/><path class="cls-16" d="M721.3,654.12l-42,4.47,9,250.33h32.18Z"/><path class="cls-17" d="M731.8,670.52l.47,238.41h1.9l0-238.3Z"/><path class="cls-18" d="M737.08,670.76l-.55,238.18h1.91l1-238.08Z"/><path class="cls-19" d="M747.81,671.24,745.2,909h1.92l3.06-237.61Z"/><path class="cls-20" d="M726.8,670.3l1.44,238.63h1.9l-1-238.53Z"/><path class="cls-21" d="M767.66,672.13,761.25,909h1.94l6.87-236.74Z"/><path class="cls-22" d="M752.85,671.46,749.27,909h1.93l4-237.38Z"/><path class="cls-23" d="M772.75,672.35,765.37,909h1.94l7.84-236.51Z"/><path class="cls-24" d="M778.13,672.59,769.73,909h1.95l8.86-236.28Z"/><path class="cls-25" d="M758.18,671.7,753.59,909h1.93l5.05-237.15Z"/><path class="cls-26" d="M696.08,672.08l5.08,236.84h1.13l-4.74-237Z"/><path class="cls-27" d="M690.24,672.55l6.46,236.37h1.12l-6.11-236.49Z"/><path class="cls-28" d="M699.39,671.81l4.3,237.11h1.13l-4-237.23Z"/><path class="cls-29" d="M687.14,672.8l7.19,236.12h1.11L688.6,672.68Z"/><path class="cls-30" d="M683.88,673.06l8,235.86H693l-7.62-236Z"/><path class="cls-31" d="M712.68,670.74l1.15,238.18H715l-.79-238.3Z"/><path class="cls-32" d="M715.89,670.48l.38,238.44h1.15V670.36Z"/><path class="cls-33" d="M702.54,671.56l3.55,237.36h1.14L704,671.44Z"/><path class="cls-34" d="M709.32,671l1.94,237.91h1.15l-1.59-238Z"/><g class="cls-13"><path class="cls-14" d="M754.64,706.66l-2.36,2.52L751.76,744l2.28-2.45Z"/><path class="cls-14" d="M739.22,723.14,737,725.56l-.08,34.38,2.21-2.36Z"/><path class="cls-14" d="M729.41,733.62l-2.13,2.28-.08.11.2,34.09,2.15-2.31Z"/><path class="cls-14" d="M734.16,728.55l-2.24,2.4.06,34.24,2.18-2.34Z"/><path class="cls-14" d="M749.66,712l-2.33,2.49L747,749.13l2.26-2.42Z"/><path class="cls-14" d="M774.73,685.19l-2.46,2.63-1.1,35.32,2.39-2.56Z"/><path class="cls-14" d="M780.29,679.25l-2.49,2.66-1.26,35.47,2.42-2.61Z"/><path class="cls-14" d="M760,701l-2.38,2.54-.68,34.94L759.2,736Z"/><path class="cls-14" d="M769.52,690.76l-2.43,2.6-1,35.19c.79-.85,1.57-1.7,2.36-2.54Z"/></g><rect class="cls-35" x="138.02" y="756.4" width="118.43" height="207.1"/><rect class="cls-36" x="153.81" y="705.94" width="89" height="73.59"/><rect class="cls-36" x="166.01" y="681.76" width="67.47" height="41"/><rect class="cls-36" x="173.19" y="656.53" width="14.36" height="36.79"/><polygon class="cls-37" points="138.01 756.4 167.62 755.91 197.23 755.62 256.45 755.36 257.16 755.36 257.16 756.4 257.1 850.12 256.94 896.99 256.62 943.85 256.21 896.99 255.97 850.13 255.74 756.4 256.45 757.43 197.23 757.18 167.62 756.89 138.01 756.4"/><path class="cls-38" d="M154,706.61c14.76-.37,29.52-.54,44.27-.67s29.51-.08,44.27-.14h.7v1c0,4.21-.06,8.42-.09,12.63s-.05,8.42-.14,12.63l-.25,12.63c-.13,4.21-.22,8.42-.4,12.63-.16-4.21-.21-8.42-.32-12.63l-.16-12.64c-.06-4.21,0-8.42,0-12.63s0-8.42,0-12.63l.71,1c-14.76-.13-29.52-.12-44.27-.36S168.73,707.06,154,706.61Z"/><path class="cls-39" d="M166.1,682.51c5.57-.22,11.15-.34,16.72-.51l16.72-.34c5.57-.13,11.14-.19,16.71-.27l16.72-.15h.88v.87l-.07,6.29c-.06,2.1-.09,4.19-.19,6.29l-.3,6.28c-.16,2.1-.26,4.19-.48,6.29-.19-2.1-.26-4.2-.39-6.29l-.21-6.29c-.07-2.1-.07-4.19-.1-6.29l0-6.29.86.87-16.72,0c-5.57,0-11.14,0-16.72-.06l-16.72-.14C177.25,682.71,171.68,682.66,166.1,682.51Z"/><path class="cls-40" d="M147.67,781.61H248l0,6.46H147.61C147.63,785.86,147.65,783.7,147.67,781.61Zm-.25,28.18q0,3.36-.06,6.81l100.49,0,0-6.81Zm100.5-7.4,0-6.71-100.42,0c0,2.19,0,4.43,0,6.71Zm-.11,22.77-100.52,0c0,2.23,0,4.49,0,6.75l100.53,0Zm-101,61.26q0,3.62-.06,7.18l100.74.11,0-7.19Zm.06-7.81,100.7.1,0-7.08-100.67-.09Zm.89-104.53H248.07l0-6.37H147.79C147.77,769.75,147.75,771.86,147.73,774.08Zm-.56,65.23q0,3.42,0,6.85l100.58.07,0-6.86ZM147,862.62l100.64.07,0-7.13L147,855.49Zm-.68,61.81,102.51-1,0-6.74-102.48,1C146.34,919.88,146.32,922.13,146.3,924.43Zm-.19,22.66c0,2.34-.05,4.7-.07,7.1l102.63-.94,0-7.1Zm102.63-8.7,0-7-102.54,1q0,3.43-.06,7ZM146.43,909.85l102.45-1,0-6.64-102.42,1Q146.46,906.39,146.43,909.85Z"/><path class="cls-41" d="M180.91,728.67l5.57.14,0,7.71-5.56-.13Zm-.06-13.26,5.57.16,0,7.62-5.56-.15Zm.13,26.8,5.56.12,0,7.8L181,750Zm-18.72-.4,5.42.12,0,7.84-5.42-.1Zm-.15-27,5.43.16,0,7.67-5.42-.15Zm.08,13.34,5.42.14,0,7.75-5.42-.12Zm9.42.24,5.49.14,0,7.73-5.49-.13Zm-.07-13.3,5.5.17,0,7.64-5.49-.15Zm.14,26.88,5.49.12,0,7.82-5.48-.1Zm38.67-25.73,5.79.18,0,7.54-5.79-.15Zm0,13.14,5.79.15,0,7.63-5.79-.13Zm.05,13.42,5.78.12,0,7.73-5.78-.11ZM190.52,715.7l5.64.16,0,7.6-5.63-.15Zm.12,26.72,5.63.12,0,7.77-5.63-.1Zm-.06-13.51,5.64.15,0,7.68-5.64-.13Zm9.89.26,5.71.14,0,7.66-5.71-.13Zm.05,13.46,5.71.12,0,7.75-5.71-.11Zm-.1-26.64,5.71.17,0,7.57-5.71-.15Zm29.35.29,5.79.18,0,7.54-5.79-.15Zm0,13.14,5.79.15,0,7.63-5.78-.13Zm.05,13.42,5.78.12,0,7.73-5.79-.11Zm-10-13.67,5.71.14,0,7.66-5.7-.13Zm0,13.46,5.71.12,0,7.75-5.7-.11ZM219.84,716l5.72.17,0,7.57-5.72-.15Z"/><path class="cls-41" d="M190.54,690.7l5.57.17,0,7.62-5.56-.15Zm-18.74-.55,5.43.16,0,7.66-5.42-.14Zm9.43.28,5.5.16,0,7.64-5.49-.15ZM220,691.58l5.79.17,0,7.55-5.79-.16ZM200.21,691l5.64.17,0,7.59-5.63-.15Zm9.9.3,5.71.16,0,7.58-5.71-.16Z"/><path class="cls-36" d="M366.42,607.46l54.64.84-2.43,81.53c-18.44-1.29-36.89-1.77-55.33-1.92L359.36,611Z"/><path class="cls-42" d="M366.42,607.46s1.37,80.58,1.73,80.5c1.58-.38-3.23,0-4.85-.05L359.36,611Z"/><polygon class="cls-43" points="429.92 933.84 435.77 677.26 351.49 675.92 344.01 680 352.11 934.4 429.92 933.84"/><polygon class="cls-44" points="351.49 675.92 344.01 680 352.11 934.4 358.61 934.36 351.49 675.92"/><polygon class="cls-45" points="352.29 675.68 373.01 675.81 393.74 676.08 435.18 676.82 435.76 676.83 435.75 677.51 434.14 762.3 433.23 804.69 432.18 847.08 432.63 804.68 433.21 762.28 434.59 677.48 435.16 678.18 393.72 677.1 373 676.46 352.29 675.68"/><path class="cls-46" d="M414.83,911.12l-5.83.07V897.54l5.9-.06Zm-.06,9.87-5.78.08,0,13.3,5.73-.08ZM404.46,714l-6.92,0,.12,16.43,6.84,0Zm-.07-29.09-7.06,0,.12,16.89,7,.05Zm10.95,137.38-6.26,0v14.75l6.19,0ZM415.19,848l-6.13,0,0,14.37,6.07,0Zm-.14,24.75-6,0v14l6-.06ZM404.78,848l-6.27,0,.11,14.38,6.19-.05Zm.06,24.77-6.15.06.11,14,6.07-.06Zm-.31-130.21-6.78,0,.12,16h6.7Zm.19,79.76-6.39,0,.11,14.77,6.31,0Zm10.77-26.13-6.38,0,0,15.14,6.32,0Zm-10.83,0h-6.52l.11,15.16,6.44,0ZM405,921.12l-5.91.08.1,13.32,5.84-.09Zm-.36-151H398l.11,15.56h6.57Zm21.79,26.09h-6.26L420,811.34l6.19,0ZM426,822.26l-6.14,0L419.75,837l6.06,0Zm.72-52.14h-6.38l-.14,15.53h6.31Zm.38-27.47-6.5,0-.15,16h6.43Zm.8-57.54-6.77-.05L421,701.92l6.7,0Zm-.4,29-6.64,0-.15,16.39,6.56,0Zm-1.86,133.75-6,0-.13,14.36,5.94,0ZM416,714.08l-6.78,0,0,16.41,6.7,0Zm.16-29.06-6.92,0v16.88l6.84,0Zm-.49,85.09h-6.51v15.55h6.43Zm9.68,102.51-5.9,0-.13,14,5.83-.06Zm-9.52-130-6.64,0,0,16h6.57Zm8.85,178.24-5.68.07-.12,13.3,5.61-.08Zm.32-23.49-5.78.06-.12,13.64,5.71-.07Zm-20.07.22-6,.06.1,13.66,6-.07Zm-38.31-213-7.54-.06.57,17,7.45.05Zm.83,29.19-7.38,0,.55,16.48,7.3,0Zm16.65,207.56-6.17.08.33,13.34,6.1-.08Zm-.95-48.4-6.41.06.34,14,6.34-.06Zm.48,24.83-6.28.07.34,13.68,6.21-.07Zm-1-49.64-6.54,0,.36,14.41,6.46,0ZM368.24,742.49l-7.24,0,.54,16h7.15Zm5.1,179-6.3.08.45,13.36,6.23-.09ZM369,770.11h-7.09l.53,15.61h7Zm13.1,52.34-6.66,0,.36,14.8,6.59,0ZM372,873.09l-6.55.06.47,14.05,6.48-.06Zm.71,24.85-6.42.07.46,13.7,6.35-.08Zm19.43-213.1-7.21-.06.27,16.92,7.12,0ZM371.25,848.25l-6.68,0,.49,14.42,6.6-.06Zm-.73-25.74-6.82,0,.5,14.8,6.74,0Zm-.75-26.19-6.95,0,.51,15.2,6.87,0ZM393.6,822.4l-6.53,0,.23,14.78,6.46,0Zm-.29-26.13-6.66,0,.25,15.17,6.58,0Zm.56,51.83-6.39,0,.22,14.4,6.33,0Zm-1.14-105.54-6.93,0,.26,16h6.84Zm-.31-28.6-7.07,0,.26,16.46,7,0Zm.61,56.15h-6.79l.25,15.57h6.71Zm1.11,102.79-6.27.05.22,14,6.21-.06ZM380,713.9l-7.22,0,.41,16.47,7.14,0Zm1.62,82.4h-6.8l.37,15.19,6.73,0Zm-1.05-53.78h-7.08l.39,16h7Zm.54,27.59h-6.94l.39,15.59h6.85ZM394.41,897.7l-6.15.07.22,13.67,6.08-.07Zm.26,23.55-6,.08.21,13.33,6-.08ZM379.42,684.74l-7.37-.06.42,16.94,7.28,0Z"/><path class="cls-41" d="M407.37,637l-5.23,0,.09,12.41,5.17,0Zm-.05-22L402,615l.09,12.76,5.27,0Zm.1,43.54H402.3l.09,12.07h5.06ZM416.06,637l-5.12,0,0,12.39,5.06,0Zm.12-21.94L411,615v12.75l5.16,0Zm-.25,43.49h-5l0,12.06h5Zm-37.16-43.77-5.69,0,.43,12.81,5.62,0Zm.63,22-5.58,0,.42,12.45,5.51,0Zm.61,21.64h-5.46l.41,12.1h5.4Zm18-43.54-5.45,0,.2,12.78,5.38,0Zm.47,43.59-5.23,0,.19,12.09h5.17Zm-.24-21.6-5.33,0,.19,12.42,5.28,0Zm-9.38,0-5.45,0,.31,12.44,5.39,0Zm.43,21.61H384l.3,12.1h5.28Zm-.86-43.63-5.57,0,.32,12.79,5.5,0Z"/><path class="cls-47" d="M271.35,250.6c-22.85-15-49.17-26.6-76.22-23.07.19-5.73-1.91-11.1-8.9-12.14a16.53,16.53,0,0,0-3.45-.14c6.74-10.13,3.36-27.17-9.27-31-13.42-4.1-23.27,5.7-24.87,17.31-9.28-3.58-21.59-3.19-28.57,2.84a14.28,14.28,0,0,0-3.41,16.86c-6.21.42-12.34,1.72-17.2,6a18.65,18.65,0,0,0-4.59,6.24,99.25,99.25,0,0,0-59.28,16.75c-.61.41,60.1.19,118.79.26C214.07,250.52,271.76,250.87,271.35,250.6Z"/><path class="cls-48" d="M272,251.1c-9.23-7-22.46-11.5-33.64-14.07-13.84-3.17-31-7.37-45-4.46,1.4-7.62-2.61-10.79-5.49-12.65-7.21-4.65-9.65-1.62-16.5,6,2.73-6.93,4.71-15.77-3.78-18.69-7.31-2.52-13.16.43-13.93,8.49,2.73-1.71,9.6,1.78,12.85,2.6-9.59-2.07-19.06-.47-23.84,7.48.6-4.83,3.17-7.53,6.91-10.89-9.56-14.25-27.78-6.87-26.61,4.74,3.67.62,7.39.95,11.08,1.39-11.08-1.29-24.42,4.77-28.78,15.24a145.36,145.36,0,0,0-34.25.27c-3.42.44-6.81.9-10.16,1.45a99.14,99.14,0,0,0-25.32,12.18C34.35,251,269.22,250.75,272,251.1Z"/><g class="cls-13"><path class="cls-47" d="M412.61,408.09c-15.15-10-32.61-17.65-50.56-15.31.13-3.8-1.27-7.36-5.9-8.06a11.65,11.65,0,0,0-2.29-.09c4.47-6.71,2.23-18-6.15-20.58-8.9-2.72-15.44,3.78-16.5,11.48-6.16-2.37-14.32-2.12-19,1.89A9.48,9.48,0,0,0,310,388.6c-4.12.28-8.18,1.14-11.41,3.95a12.4,12.4,0,0,0-3,4.14,65.94,65.94,0,0,0-39.33,11.11c-.4.28,39.87.13,78.81.18C374.62,408,412.89,408.27,412.61,408.09Z"/><path class="cls-48" d="M413.06,408.42c-6.12-4.66-14.89-7.63-22.31-9.33-9.18-2.11-20.57-4.9-29.84-3,.93-5.06-1.73-7.17-3.64-8.4-4.79-3.09-6.4-1.07-10.95,4,1.81-4.6,3.13-10.46-2.51-12.4-4.85-1.67-8.73.29-9.24,5.64,1.81-1.14,6.37,1.17,8.53,1.72-6.37-1.37-12.65-.31-15.82,5,.4-3.21,2.11-5,4.59-7.23-6.34-9.45-18.43-4.56-17.65,3.15,2.43.4,4.9.62,7.35.91-7.36-.85-16.2,3.17-19.1,10.12a96,96,0,0,0-22.72.18c-2.27.29-4.51.59-6.74,1a66,66,0,0,0-16.8,8.07C255.39,408.36,411.2,408.19,413.06,408.42Z"/></g><g class="cls-13"><path class="cls-47" d="M809.11,338.53c-14-9.25-30.22-16.35-46.84-14.18.12-3.52-1.18-6.82-5.47-7.46a10,10,0,0,0-2.12-.09c4.14-6.22,2.06-16.69-5.7-19.06-8.25-2.53-14.3,3.5-15.28,10.63-5.71-2.2-13.27-2-17.56,1.75a8.79,8.79,0,0,0-2.1,10.36c-3.81.26-7.58,1.06-10.57,3.66a11.4,11.4,0,0,0-2.81,3.83,61.13,61.13,0,0,0-36.44,10.3c-.37.25,36.93.12,73,.16C773.91,338.48,809.36,338.7,809.11,338.53Z"/><path class="cls-48" d="M809.52,338.83c-5.67-4.31-13.79-7.06-20.67-8.64-8.5-1.95-19.06-4.53-27.64-2.74.86-4.69-1.6-6.64-3.38-7.78-4.43-2.86-5.92-1-10.13,3.69,1.67-4.26,2.89-9.69-2.33-11.49-4.49-1.54-8.08.27-8.56,5.22,1.68-1,5.9,1.09,7.9,1.6-5.9-1.27-11.71-.29-14.65,4.6.37-3,2-4.63,4.24-6.7-5.87-8.75-17.07-4.22-16.34,2.92,2.25.38,4.54.58,6.8.85-6.81-.79-15,2.93-17.68,9.37a88.77,88.77,0,0,0-21.05.17c-2.11.26-4.19.54-6.25.88a61.15,61.15,0,0,0-15.56,7.49C663.46,338.78,807.8,338.62,809.52,338.83Z"/></g><path class="cls-49" d="M2512.75,667.58l-.08-56.48-35.61,1.65V538.61h-5.62V514.07h-4.38l-3.25-22.55-3,22.55h-5.25v24.54h-5.62v47.78h-28.83l-3.39-41.19-89.89-1.65-1.7,42.84-47.3-.53-1.74,76.24-43.55-.23,2-80.53-30.31-9.25L2171.42,578l-1.73,47.11-16.94,25.5,3.08-112.15-12.12-5.89-.87-26.08-23.38-10.09L2088.29,504l-1.22,26.69-16.56,5.27-1-58.78-28.9-13.56-52.82,9.25-1.12,126.62-7.16,1.88.48-25.87-9.52-2.63v-32.7l-24.25-10.93-38.1,6.73v33.64L1896,572.09l1.74,67.3-21.65,9.25V530.87l-8.66-4.21V492.17l-19-11.78L1825,487.12v48l-16.45,7.57v90l-39.88,12.12V615.17h-5.61V590.63h-4.39l-3.25-22.55-3,22.55h-5.25v24.54h-5.63V653l-13.51,4.11c-7.13-60.76-20.37-108-45.9-127.95,0,0-26.92,18.25-35.25,91.42l-27.45-.5-1.52,38.43-12.46-.07-104.29-31.7v-90l-16.46-7.57v-48l-23.38-6.73-19,11.78v34.49l-8.66,4.21V642.75L1412,633.5l1.73-67.3-12.12-2.52V530l-38.1-6.73-24.25,10.93v32.7l-9.52,2.63.48,25.87-7.16-1.88-1.12-126.62-52.82-9.25-28.9,13.56-1,58.78-16.56-5.27-1.22-26.69-31.17-7.57-23.38,10.09-.87,26.08-12.12,5.89L1157,644.71l-16.94-25.51-1.73-47.11-33.77-5.89-30.31,9.25,2,80.16-44.42-.24-.16,1.07-7.62-.23-5.36,11.37h-46V915.32h1585V667.58Z"/><path class="cls-50" d="M1305.19,702.43l-65.27-3.51-42.2,9.2,9,245.63h87.41Z"/><path class="cls-51" d="M1239.76,699l-42,4.47,9,250.33h32.18Z"/><path class="cls-52" d="M1250.26,715.35l.47,238.41h1.91l0-238.3Z"/><path class="cls-53" d="M1255.54,715.59,1255,953.77h1.91l1-238.08Z"/><path class="cls-54" d="M1266.27,716.07l-2.61,237.71h1.92l3.07-237.61Z"/><path class="cls-55" d="M1245.27,715.13l1.43,238.63h1.9l-1-238.53Z"/><path class="cls-56" d="M1286.13,717l-6.41,236.83h1.94l6.86-236.74Z"/><path class="cls-57" d="M1271.32,716.29l-3.58,237.49h1.93l4-237.38Z"/><path class="cls-58" d="M1291.22,717.18l-7.38,236.62h1.94l7.84-236.51Z"/><path class="cls-59" d="M1296.6,717.43l-8.41,236.37h2L1299,717.53Z"/><path class="cls-60" d="M1276.65,716.53l-4.6,237.25H1274L1279,716.64Z"/><path class="cls-61" d="M1214.54,716.91l5.08,236.84h1.13l-4.73-237Z"/><path class="cls-62" d="M1208.71,717.38l6.46,236.37h1.12l-6.12-236.49Z"/><path class="cls-63" d="M1217.85,716.64l4.3,237.11h1.14l-4-237.23Z"/><path class="cls-64" d="M1205.6,717.63l7.19,236.12h1.12l-6.84-236.24Z"/><path class="cls-65" d="M1202.34,717.89l8,235.86h1.11l-7.61-236Z"/><path class="cls-66" d="M1231.15,715.57l1.14,238.18h1.15l-.78-238.3Z"/><path class="cls-67" d="M1234.36,715.31l.37,238.44h1.16l0-238.56Z"/><path class="cls-68" d="M1221,716.39l3.55,237.36h1.14l-3.2-237.48Z"/><path class="cls-69" d="M1227.78,715.84l2,237.91h1.14l-1.59-238Z"/><g class="cls-13"><path class="cls-14" d="M1273.1,751.49l-2.35,2.52-.52,34.79,2.28-2.45Z"/><path class="cls-14" d="M1257.69,768l-2.27,2.42-.08,34.38,2.2-2.36Z"/><path class="cls-14" d="M1247.88,778.45l-2.14,2.28-.08.11.21,34.09,2.15-2.31Z"/><path class="cls-14" d="M1252.62,773.38l-2.24,2.4.07,34.24,2.18-2.34Z"/><path class="cls-14" d="M1268.13,756.81l-2.33,2.49-.38,34.66,2.26-2.42Z"/><path class="cls-14" d="M1293.2,730l-2.47,2.63-1.1,35.32,2.39-2.56Z"/><path class="cls-14" d="M1298.76,724.08l-2.5,2.66L1295,762.21l2.43-2.61Z"/><path class="cls-14" d="M1278.41,745.82l-2.38,2.54-.67,34.94,2.31-2.48Z"/><path class="cls-14" d="M1288,735.59l-2.44,2.6-1,35.19,2.36-2.54Z"/></g><polygon class="cls-70" points="1374.55 911.55 1360.97 471.24 1424.32 461.51 1465.05 471.24 1448.88 911.42 1374.55 911.55"/><polygon class="cls-71" points="1419.44 912.47 1448.88 912.94 1465.05 471.24 1424.47 461.55 1419.44 912.47"/><path class="cls-72" d="M1377.63,474.93l8.11,390.86,1.42,1.44-7.26-392.6Z"/><path class="cls-73" d="M1372.82,475.6l10,390.68,1.43,1.44-9.13-392.44Z"/><polygon class="cls-74" points="1367.82 478.34 1379.67 866.16 1381.1 867.59 1370.03 476.39 1367.82 478.34"/><path class="cls-75" d="M1391.71,473.17l2.65,389.34,1.4,1.45L1394,472.9Z"/><path class="cls-76" d="M1386.63,473.79l4.59,388.59,1.42,1.45-3.74-390.32Z"/><path class="cls-77" d="M1396.53,472.6l.8,389.42,1.4,1.45.08-391.14Z"/><path class="cls-78" d="M1411.94,470.83l-5.15,391.45,1.38,1.45,6-393.15Z"/><path class="cls-79" d="M1416.78,470.29l-7,391.49,1.37,1.45L1419.06,470Z"/><path class="cls-80" d="M1406.85,471.41l-3.18,390.74,1.38,1.45,4.07-392.45Z"/><path class="cls-81" d="M1454.45,476.45l-12,386.72-1.14,2L1453,476.23Z"/><path class="cls-82" d="M1457.47,477l-12.72,386.25-1.14,2,12.44-388.5Z"/><polygon class="cls-83" points="1460.58 479.13 1447.18 862.47 1446.04 864.48 1459.21 477.57 1460.58 479.13"/><path class="cls-84" d="M1445.57,475.12l-9.75,385.69-1.15,2,9.46-387.92Z"/><path class="cls-85" d="M1448.79,475.59l-10.52,384.48-1.14,2,10.22-386.71Z"/><path class="cls-86" d="M1442.51,474.69l-9,386.08-1.14,2,8.7-388.31Z"/><path class="cls-87" d="M1432.66,473.35,1426,862.87l-1.13,2,6.31-391.75Z"/><path class="cls-88" d="M1429.55,472.93l-5.87,389.9-1.14,2,5.54-392.12Z"/><path class="cls-89" d="M1435.93,473.78l-7.43,388.34-1.14,2,7.11-390.56Z"/><polygon class="cls-90" points="1527.57 753.82 1555.56 748.84 1631.41 748.94 1626.06 906.56 1531.46 906.66 1527.57 753.82"/><polygon class="cls-91" points="1610.79 754.55 1609.17 906.28 1626.06 906.56 1631.41 748.94 1555.56 748.84 1527.57 753.82 1610.79 754.55"/><path class="cls-92" d="M1590.85,884l-6.68,0,0-8.24,6.68,0Zm0,6.09-6.68,0-.05,8.34,6.68.07ZM1580.13,780l-6.8.14,0,7.56,6.8-.13Zm.08-13-6.81.16,0,7.47,6.8-.15Zm11,66.25-6.7.05,0,7.94,6.7,0Zm-.09,14-6.69,0-.05,8H1591Zm-.08,14h-6.7l0,8.14h6.68Zm-11.26-14-6.78,0,0,8h6.78Zm-.08,14h-6.78l0,8.12,6.77,0Zm.39-67.94-6.79.12,0,7.64,6.79-.1Zm-.23,40.06-6.78,0,0,7.92,6.79,0Zm11.44-13.74-6.71.07,0,7.85,6.7,0Zm-11.36.12-6.79.07,0,7.83,6.78-.06Zm-.41,70.3-6.77,0,0,8.32,6.76.07Zm.49-83.43-6.8.09,0,7.74,6.79-.08Zm22.78,12.89-6.62.07-.05,7.87,6.61,0Zm-.1,13.7-6.61,0,0,8,6.61,0Zm.19-26.9-6.62.09-.06,7.78,6.62-.08Zm.09-13.39-6.63.11,0,7.7,6.63-.1Zm.18-26.43-6.64.16,0,7.51,6.64-.14Zm-.09,13.08-6.63.13-.05,7.6,6.63-.12Zm-.46,67.65-6.61,0,0,8.06h6.6Zm-11.06-67.42-6.72.14,0,7.58,6.71-.13Zm.08-13-6.72.16,0,7.49,6.71-.15Zm-.25,39.69-6.71.1,0,7.76,6.7-.08Zm11.13,54.79h-6.6l0,8.16,6.6,0Zm-11-68.13-6.71.11,0,7.67,6.71-.1Zm10.86,97.11-6.6-.05,0,8.37,6.59.06Zm.1-14.39-6.61,0,0,8.26,6.6,0Zm-22.81-.09-6.77,0,0,8.22,6.77,0Zm-35.42-107.85-7.08.16,0,7.4,7.08-.15Zm-.06,12.87-7.07.15,0,7.48,7.07-.13Zm11.61,109.1-7-.05,0,8.26,7,.07Zm.14-28.63h-7l0,8.06,7,0Zm-.07,14.41-7,0,0,8.16,7,.05Zm.13-28.28-7,0,0,8h7ZM1544,793.91,1537,794l0,7.57,7.07-.1Zm-.41,95.85-7-.06,0,8.24,7,.07Zm.36-82.67-7.07.1,0,7.66,7.06-.08Zm12,26.42-7,0,0,7.87,7,0Zm-12.23,27.7h-7l0,8,7,0Zm-.06,14.38-7,0,0,8.14,7.05,0Zm24.7-108.29-6.89.16,0,7.45,6.89-.15Zm-24.58,80.09-7,0,0,7.94h7Zm.06-13.8-7.06,0,0,7.85,7.06,0Zm.06-13.49-7.06.07,0,7.76,7.06-.06ZM1568,833.43l-6.87.05,0,7.89,6.87,0Zm.07-13.58-6.88.07,0,7.8,6.87-.05Zm-.14,27.46-6.87,0,0,8h6.86Zm.28-53.82-6.88.12,0,7.62,6.88-.1Zm.07-13.23-6.89.14,0,7.53,6.88-.13Zm-.14,26.5-6.88.09,0,7.72,6.88-.08Zm-.29,54.46H1561l0,8.09,6.86,0Zm-11.66-80.72-7,.15,0,7.51,7-.13ZM1556,820l-7,.08,0,7.77,7-.05Zm.13-26.27-7,.12,0,7.6,7-.11Zm-.06,13.23-7,.09,0,7.69,7-.08Zm11.71,68.75-6.87,0,0,8.19,6.86,0Zm-.08,14.26-6.86-.05,0,8.29,6.86.07Zm-11.44-122.35-7,.16,0,7.43,7-.16Z"/><path class="cls-93" d="M1623,877.17l-1.25.89.17-6.94,1.26-.88Zm-.13,5-1.24.9-.16,6.75,1.23-.91Zm.27-105.1-1.5.67-.18,8.59,1.49-.7Zm.34-15.2-1.54.62-.18,8.86,1.53-.65Zm.7,70-1.35.79-.18,7.58,1.33-.82Zm-.34,13.14-1.32.82-.18,7.35,1.31-.84Zm-.33,12.64-1.29.85-.17,7.14,1.27-.86Zm-1.91-11.24-1.36.85-.15,7.38,1.34-.87Zm-.29,12.68L1620,860l-.15,7.17,1.32-.89Zm1.5-67.12-1.48.71-.16,8.32,1.46-.74Zm-.92,41.25-1.39.82-.15,7.6,1.37-.83Zm2.64-14.75-1.38.76L1623,827l1.36-.78Zm-2.34,1.3-1.42.78-.15,7.84,1.4-.81Zm-1.43,64-1.28.92-.13,6.77,1.26-.93Zm1.73-77.47-1.44.75-.17,8.07,1.43-.77Zm4.36,10.93-1.33.74-.21,7.76,1.31-.75Zm-.39,13.34-1.31.77-.21,7.55,1.29-.79Zm.79-26.74-1.36.7-.22,8,1.34-.73Zm.42-14.15-1.39.67-.23,8.24,1.37-.69Zm.88-29.78-1.45.58-.24,8.77,1.43-.61Zm-.45,15-1.41.62-.24,8.5,1.4-.65Zm-2,68.71-1.28.8-.2,7.33,1.26-.82Zm-.44-67.62-1.46.65-.2,8.54,1.44-.67Zm.39-15.13-1.49.6-.21,8.82,1.48-.63ZM1624.88,805l-1.4.73-.2,8,1.39-.75Zm.82,51.19-1.26.83-.19,7.12,1.24-.84Zm-.45-65.41-1.43.69-.2,8.28L1625,799Zm-.28,89.88-1.2.87-.19,6.73,1.19-.88Zm.36-11.9-1.23.85-.19,6.92,1.21-.86Zm-4.3,3-1.31.9-.14,7,1.29-.91Zm-5.93-106.49-1.71.69-.07,9,1.69-.71Zm-.16,15.46-1.67.74-.07,8.73,1.65-.77ZM1616.21,887l-1.37,1-.08,6.81,1.35-1Zm.35-24.79-1.42.94-.08,7.22,1.4-1Zm-.18,12.74-1.39,1-.09,7,1.38-1Zm.37-25.52-1.45.91-.09,7.44,1.43-.93Zm-2-53.6-1.64.79-.07,8.44,1.62-.81Zm-1,92.89-1.41,1-.05,6.83,1.39-1Zm.81-78.39-1.6.83-.07,8.18,1.58-.85Zm2.3,25.81-1.48.87-.09,7.67,1.46-.9Zm-2.86,27.71-1.46,1-.06,7.25,1.45-1Zm-.13,12.78-1.43,1-.06,7,1.42-1ZM1620.79,763l-1.59.64-.15,8.91,1.58-.67Zm-6.57,88-1.5.94-.06,7.47,1.48-.95Zm.13-13.35-1.53.91-.06,7.7,1.52-.93Zm.14-13.63-1.56.87-.06,7.94,1.54-.89Zm5,10.61-1.44.85-.12,7.63,1.42-.86Zm.25-13.51-1.47.81-.12,7.87,1.44-.83Zm-.5,26.75-1.4.88-.12,7.41,1.39-.89Zm1-54.68-1.52.74-.14,8.36,1.51-.76Zm.28-15-1.56.69-.14,8.63,1.54-.72Zm-.54,29.3-1.5.78-.13,8.11,1.48-.8Zm-1,53.07-1.38.9-.12,7.2,1.36-.92Zm-1.23-81.15-1.62.71-.1,8.68,1.59-.74Zm-.62,43.09-1.52.84-.09,7.91,1.49-.86Zm.4-28.06-1.58.76-.1,8.4,1.56-.78Zm-.21,14.42-1.54.81-.1,8.14,1.53-.83Zm1.42,64.39-1.34.93-.12,7,1.33-1Zm-.22,12-1.32,1-.11,6.79,1.3-1ZM1618,764.09l-1.65.67-.11,9,1.63-.7Z"/><path class="cls-36" d="M1767.7,607.46l54.64.84-2.43,81.53c-18.45-1.29-36.89-1.77-55.34-1.92L1760.63,611Z"/><path class="cls-94" d="M1767.7,607.46s1.36,80.58,1.72,80.5c1.59-.38-3.23,0-4.85-.05L1760.63,611Z"/><polygon class="cls-95" points="1831.19 933.84 1837.05 677.26 1752.76 675.92 1745.29 680 1753.38 934.4 1831.19 933.84"/><polygon class="cls-96" points="1752.76 675.92 1745.29 680 1753.38 934.4 1759.88 934.36 1752.76 675.92"/><polygon class="cls-97" points="1753.56 675.68 1774.29 675.81 1795.01 676.08 1836.45 676.82 1837.04 676.83 1837.02 677.51 1835.41 762.3 1834.5 804.69 1833.45 847.08 1833.9 804.68 1834.48 762.28 1835.86 677.48 1836.43 678.18 1794.99 677.1 1774.28 676.46 1753.56 675.68"/><path class="cls-98" d="M1816.11,911.12l-5.84.07V897.54l5.9-.06Zm-.06,9.87-5.79.08v13.3l5.72-.08Zm-10.31-207-6.92,0,.12,16.43,6.83,0Zm-.07-29.09-7.07,0,.13,16.89,7,.05Zm10.95,137.38-6.27,0v14.75l6.19,0Zm-.15,25.65-6.14,0v14.37l6.07,0Zm-.14,24.75-6,0,0,14,6-.06ZM1806.05,848l-6.26,0,.1,14.38,6.2-.05Zm.06,24.77-6.14.06.1,14,6.07-.06Zm-.31-130.21-6.78,0,.12,16h6.7Zm.19,79.76-6.39,0,.11,14.77,6.32,0Zm10.78-26.13-6.39,0v15.14l6.31,0Zm-10.84,0h-6.52l.11,15.16,6.45,0Zm.29,124.87-5.9.08.09,13.32,5.85-.09Zm-.35-151h-6.65l.12,15.56h6.56Zm21.78,26.09h-6.25l-.14,15.13,6.18,0Zm-.36,26.06-6.13,0L1821,837l6.07,0Zm.73-52.14h-6.38l-.15,15.53h6.31Zm.38-27.47-6.51,0-.15,16h6.44Zm.8-57.54-6.78-.05-.15,16.86,6.69,0Zm-.41,29-6.64,0L1822,730.5l6.57,0Zm-1.86,133.75-6,0-.13,14.36,5.94,0Zm-9.69-133.81-6.78,0,0,16.41,6.7,0Zm.17-29.06-6.92,0,0,16.88,6.84,0Zm-.49,85.09h-6.51l0,15.55h6.44Zm9.67,102.51-5.9,0-.13,14,5.84-.06Zm-9.52-130-6.64,0v16H1817Zm8.85,178.24-5.67.07-.13,13.3,5.61-.08Zm.33-23.49-5.79.06-.12,13.64,5.72-.07Zm-20.08.22-6,.06.1,13.66,6-.07Zm-38.31-213-7.53-.06.57,17,7.44.05Zm.83,29.19-7.38,0,.56,16.48,7.29,0Zm16.65,207.56-6.16.08.33,13.34,6.09-.08Zm-.95-48.4-6.41.06.35,14,6.33-.06Zm.49,24.83-6.29.07.34,13.68,6.21-.07Zm-1-49.64-6.54,0,.36,14.41,6.46,0Zm-14.39-105.69-7.23,0,.54,16H1770Zm5.1,179-6.3.08.45,13.36,6.23-.09Zm-4.31-151.42h-7.09l.52,15.61h7Zm13.1,52.34-6.67,0,.36,14.8,6.6,0Zm-10.17,50.64-6.55.06.47,14.05,6.48-.06Zm.71,24.85-6.42.07.46,13.7,6.35-.08Zm19.43-213.1-7.21-.06.27,16.92,7.13,0Zm-20.85,163.41-6.68,0,.49,14.42,6.6-.06Zm-.73-25.74-6.82,0,.5,14.8,6.74,0Zm-.75-26.19-7,0,.51,15.2,6.88,0Zm23.83,26.08-6.53,0,.24,14.78,6.45,0Zm-.29-26.13-6.65,0,.24,15.17,6.58,0Zm.57,51.83-6.4,0,.23,14.4,6.32,0ZM1794,742.56l-6.92,0,.25,16h6.85Zm-.31-28.6-7.07,0,.26,16.46,7,0Zm.61,56.15h-6.79l.25,15.57h6.71Zm1.12,102.79-6.28.05.23,14,6.2-.06Zm-14.15-159-7.23,0,.41,16.47,7.14,0Zm1.61,82.4h-6.8l.38,15.19,6.72,0Zm-1.05-53.78h-7.08l.4,16h7Zm.54,27.59h-6.94l.39,15.59h6.86Zm13.32,127.59-6.15.07.21,13.67,6.08-.07Zm.25,23.55-6,.08.21,13.33,6-.08Zm-15.25-236.51-7.37-.06.42,16.94,7.29,0Z"/><path class="cls-41" d="M1808.64,637l-5.22,0,.09,12.41,5.16,0Zm-.05-22-5.33,0,.09,12.76,5.27,0Zm.1,43.54h-5.12l.09,12.07h5.06Zm8.64-21.53-5.12,0v12.39l5.06,0Zm.13-21.94-5.23,0v12.75l5.16,0Zm-.25,43.49h-5v12.06h5ZM1780,614.79l-5.69,0,.44,12.81,5.62,0Zm.63,22-5.57,0,.42,12.45,5.51,0Zm.62,21.64h-5.46l.41,12.1h5.39Zm18-43.54-5.45,0,.2,12.78,5.39,0Zm.47,43.59-5.23,0,.19,12.09h5.17Zm-.23-21.6-5.34,0,.2,12.42,5.27,0Zm-9.38,0-5.46,0,.31,12.44,5.39,0Zm.42,21.61h-5.34l.3,12.1h5.28Zm-.86-43.63-5.56,0,.31,12.79,5.51,0Z"/><path class="cls-99" d="M1118.41,669.17l-59.33-3.4-40.86,8.91L1027,912.54h84.64Z"/><path class="cls-100" d="M1058.93,665.81l-40.71,4.32L1027,912.54h31.16Z"/><path class="cls-101" d="M1073.33,876l4.3.07-.05,13.08-4.25-.08Zm0,35.37,4.19.08,0-12.81-4.23-.08Zm8.18-192.23,4.88.07.13-15.12-4.93-.07Zm.14-26.32,5,.07.14-15.46-5-.06Zm-8.3,125.72,4.48.08,0-13.91-4.52-.07Zm0,23.94,4.4.07,0-13.62-4.45-.07Zm0,23.22,4.33.08,0-13.35-4.38-.07Zm7.48-23.09,4.48.07.12-13.62-4.53-.07Zm-.13,23.22,4.41.08.12-13.34-4.46-.08Zm.67-120.67,4.8.07.13-14.8-4.85-.07Zm-.41,73.51,4.56.08.13-13.91-4.61-.08Zm-7.59-24.33,4.55.08,0-14.2-4.6-.07Zm7.73.13,4.64.07.12-14.19-4.69-.08Zm-.66,117,4.27.08.11-12.82-4.31-.08Zm.79-141.13,4.72.07.13-14.49-4.77-.07Zm-15.64,23.84,4.47.07,0-14.19-4.51-.08Zm.13,24.2,4.39.07,0-13.9-4.43-.08Zm-.25-48.29,4.54.07,0-14.48-4.59-.07Zm-.13-25.21,4.62.07,0-14.8-4.67-.07Zm-.27-52.33,4.78.07,0-15.45-4.83-.07Zm.14,26.32,4.7.07,0-15.12-4.75-.07Zm.63,123.44,4.32.07,0-13.62-4.36-.07Zm7.55-123.32,4.79.07,0-15.12-4.84-.07Zm0-26.32,4.88.06,0-15.45-4.92-.06Zm0,77.55,4.64.07,0-14.49-4.67-.07Zm-7.41,95.31,4.25.08,0-13.35-4.29-.07Zm7.42-120.53,4.71.07,0-14.8-4.76-.07Zm-7.19,166.2,4.11.08,0-12.82-4.14-.08Zm-.11-22.3,4.18.07,0-13.07-4.22-.07Zm14.49.26,4.33.08.12-13.07-4.38-.08Zm27.64-196,5.27.08.4-15.46-5.32-.08Zm-.6,26.34,5.18.07.39-15.13-5.23-.07Zm-12.1,192.27,4.43.08.26-12.81-4.48-.09Zm.77-45.68,4.59.08.27-13.35-4.63-.08Zm-.4,23.37,4.52.09.26-13.08-4.55-.08Zm.79-46.6,4.67.08.28-13.62-4.72-.08ZM1107,745.58l5.1.08.39-14.81-5.15-.07ZM1103.21,912l4.52.08.34-12.82-4.57-.08Zm3.21-141.17,5,.08.38-14.5-5.06-.07ZM1097.06,819l4.75.08.28-13.91-4.79-.08Zm7.19,47.31,4.68.09.35-13.35-4.73-.09Zm-.53,23.38,4.6.08.34-13.08-4.65-.08ZM1090.29,693l5.07.07.22-15.46-5.12-.07Zm14.49,150.08,4.76.08.35-13.62-4.8-.08Zm.54-23.94,4.84.08.37-13.91-4.89-.08Zm.55-24.21,4.93.08.37-14.21-5-.07Zm-17,23.93,4.66.08.2-13.91-4.7-.07Zm.27-24.2,4.74.07.2-14.19-4.78-.08Zm-.54,48.14,4.58.08.2-13.62-4.62-.08Zm1.09-97.46,4.9.08.21-14.81-4.94-.07Zm.29-26,5,.07.22-15.13-5-.07Zm-.57,51.24,4.81.07.21-14.49-4.86-.08ZM1088.35,866l4.5.08.2-13.35-4.55-.08Zm10.4-146.58,5.08.07.3-15.12-5.13-.07Zm-1.28,75.34,4.83.08.29-14.2-4.88-.08Zm.83-49.32,5,.08.3-14.81-5-.07Zm-.42,25.23,4.91.07.29-14.49-5-.08Zm-9.79,118.7,4.43.08.19-13.07-4.47-.08Zm-.25,22.31,4.35.08.19-12.82-4.39-.08Zm11.35-218.59,5.17.07.31-15.46-5.22-.07Z"/><path class="cls-102" d="M1050.29,875.22l-2.66-.07.1,11.73,2.62.09Zm.16,31.45-2.55-.11-.1-11.26,2.59.1ZM1044.1,722.1l-3.26.19-.23-16,3.31-.21Zm-.31-28.09-3.36.24-.24-16.82,3.41-.28ZM1050,821.8h-2.86l-.11-13.36,2.9,0Zm.11,22.62-2.77,0-.11-12.78h2.82Zm.11,21.44-2.7-.05-.1-12.25,2.74,0Zm-4.81-21.49-2.81,0-.19-12.75h2.86Zm.23,21.4-2.73-.06-.18-12.21,2.78,0Zm-1.28-116.63-3.15.13L1041,734l3.21-.16Zm.8,72.68h-2.89l-.2-13.33,2.94,0Zm4.73-23.43-2.94.05-.12-14,3-.07Zm-5,.08-3,0-.21-13.93,3-.07Zm1.19,108-2.59-.11-.16-11.24,2.63.1Zm-1.45-131.82-3.06.09-.21-14.57,3.11-.11ZM1055,798.31l-2.9.05,0-14,3-.07Zm0,23.48h-2.82l0-13.4,2.86,0Zm0-47.41-3,.08,0-14.65,3-.11Zm0-25.69-3.07.13,0-15.36,3.13-.16Zm.07-55.5-3.27.24,0-16.94,3.33-.27Zm0,28.29-3.18.18,0-16.12,3.22-.21Zm-.15,123-2.74,0,0-12.82h2.79Zm-5.36-122.66-3.22.18-.13-16.07,3.27-.22Zm-.14-28.2-3.31.24-.15-16.88,3.37-.27Zm.4,80.93-3,.08-.12-14.61,3.07-.11Zm5.08,91.43-2.67-.05,0-12.28,2.71,0Zm-5.21-117.05-3.11.13-.14-15.31,3.17-.16Zm5.16,158-2.52-.11,0-11.28,2.56.09Zm0-19.75-2.59-.08,0-11.76,2.62.06Zm-8.94-.29-2.66-.08-.18-11.71,2.71.07ZM1026,695.28l-3.48.26-.57-16.63,3.55-.29Zm.84,27.8-3.38.2-.54-15.85,3.44-.22Zm10.15,183-2.66-.11L1034,894.8l2.7.1Zm-1-40.53-2.81-.05-.34-12.16,2.86,0Zm.5,21-2.74-.09-.32-11.65,2.78.07Zm-1-42.24-2.89,0-.35-12.68h2.94Zm-7.87-94.45-3.28.14-.52-15.11,3.34-.17Zm4.71,156.07-2.71-.12-.38-11.16,2.75.1Zm-4-130.77-3.19.09-.49-14.43,3.25-.12Zm6.58,46.71h-3l-.37-13.25,3,0Zm-3.85,43.62-2.86-.06-.41-12.12,2.9,0Zm.63,20.9-2.78-.09-.39-11.62,2.82.08ZM1038,694.43l-3.4.24-.35-16.76,3.46-.28Zm-7.44,149.81-2.94,0-.43-12.65h3Zm-.68-22.37h-3l-.45-13.22,3.06,0Zm-.7-23.15-3.1,0-.47-13.81,3.16-.07Zm11,23.11h-2.93l-.28-13.28,3,0Zm-.4-23.28-3,.05-.29-13.89,3.07-.07Zm.79,45.78-2.85,0-.27-12.71h2.9Zm-1.64-95-3.2.13-.32-15.21,3.26-.16Zm-.47-26.94-3.29.18-.33-16,3.35-.22Zm.91,52.39-3.1.09-.31-14.52,3.16-.11Zm1.57,90.85-2.78,0-.25-12.19,2.82,0Zm-8.26-142.92-3.34.19-.43-15.9,3.4-.22Zm1.8,75.89-3.06,0-.38-13.85,3.11-.07Zm-1.16-49-3.24.14-.42-15.16,3.3-.17Zm.6,25.38-3.15.09-.39-14.47,3.2-.12Zm7.38,111.7-2.7-.09-.24-11.68,2.74.07Zm.34,19.62-2.63-.11-.23-11.22,2.67.1ZM1032,694.85l-3.44.25-.46-16.69,3.51-.29Z"/><path class="cls-47" d="M1790.49,261.43c-22.85-15-49.17-26.59-76.22-23.07.19-5.73-1.91-11.1-8.9-12.14a16.47,16.47,0,0,0-3.44-.14c6.73-10.13,3.35-27.16-9.28-31-13.42-4.11-23.27,5.69-24.87,17.3-9.28-3.58-21.59-3.19-28.57,2.84a14.3,14.3,0,0,0-3.41,16.86c-6.21.42-12.34,1.72-17.2,6a18.65,18.65,0,0,0-4.59,6.24A99.39,99.39,0,0,0,1554.73,261c-.61.41,60.1.19,118.79.27C1733.21,261.35,1790.9,261.71,1790.49,261.43Z"/><path class="cls-48" d="M1791.17,261.93c-9.23-7-22.45-11.5-33.64-14.06-13.83-3.18-31-7.38-45-4.47,1.41-7.62-2.61-10.79-5.49-12.65-7.21-4.65-9.65-1.61-16.5,6,2.73-6.93,4.71-15.77-3.78-18.69-7.31-2.51-13.16.43-13.93,8.49,2.73-1.71,9.6,1.78,12.85,2.6-9.59-2.07-19.06-.46-23.84,7.49.6-4.84,3.18-7.54,6.91-10.9-9.55-14.24-27.78-6.87-26.6,4.75,3.66.61,7.38.94,11.08,1.38-11.09-1.29-24.43,4.77-28.79,15.24a145.27,145.27,0,0,0-34.24.28c-3.43.43-6.81.89-10.17,1.44A99.64,99.64,0,0,0,1554.73,261C1553.49,261.84,1788.36,261.59,1791.17,261.93Z"/><g class="cls-103"><path class="cls-47" d="M1284.42,400.26c-14.72-9.7-31.67-17.14-49.1-14.87.13-3.69-1.23-7.15-5.73-7.82a10.27,10.27,0,0,0-2.22-.08c4.34-6.53,2.16-17.5-6-20-8.64-2.64-15,3.67-16,11.15-6-2.31-13.91-2.06-18.4,1.83a9.2,9.2,0,0,0-2.2,10.86c-4,.27-8,1.11-11.08,3.84a11.88,11.88,0,0,0-3,4A64,64,0,0,0,1132.57,400c-.4.27,38.7.13,76.51.17C1247.52,400.2,1284.68,400.43,1284.42,400.26Z"/><path class="cls-48" d="M1284.85,400.58c-5.94-4.53-14.46-7.41-21.66-9.06-8.91-2-20-4.75-29-2.88.9-4.91-1.68-6.95-3.54-8.15-4.65-3-6.22-1-10.63,3.87,1.76-4.47,3-10.16-2.43-12-4.71-1.62-8.48.27-9,5.47,1.76-1.1,6.19,1.14,8.28,1.67-6.18-1.33-12.27-.3-15.35,4.82.38-3.11,2-4.85,4.45-7-6.16-9.18-17.9-4.43-17.14,3.05,2.36.4,4.76.61,7.14.89-7.14-.83-15.73,3.08-18.54,9.82a93.57,93.57,0,0,0-22.06.18c-2.21.28-4.39.57-6.55.93a63.93,63.93,0,0,0-16.3,7.84C1131.77,400.52,1283.05,400.35,1284.85,400.58Z"/></g></g><rect class="cls-104" x="-2.09" y="0.55" width="1924.51" height="1078.27"/></g></g></svg>