<svg id="outer_boarder" data-name="outer boarder" xmlns="http://www.w3.org/2000/svg" xmlns:xlink="http://www.w3.org/1999/xlink" viewBox="0 0 1920 1080"><defs><style>.cls-1{fill:none;}.cls-2{clip-path:url(#clip-path);}.cls-3{fill:#000003;}</style><clipPath id="clip-path"><rect class="cls-1" width="1921" height="1080"/></clipPath></defs><title>Level07-Escape-game-outer_border</title><g class="cls-2"><path class="cls-3" d="M304.83-3.52C294-38,183.66-12.41,160.57-10.28,115.15-6.1,50.65-8,5-8-11.73-8-12.4,5.52-20.21,20.21c-4.5,8.47-2.65,23.79-2.35,33,1.77,53.6,8.32,107.44,11.41,161.11C-6.08,302.53-8.64,388.91-7.95,477c.49,63.54.68,137.53,4,201,2.77,53.76-6.71,121.27-4.49,175,1.9,45.66-10.45,89.36-13.52,135.25S-6,1060.73,5.15,1106c.63-.13,4.15,0,4.88,0-.42-40.16,13.11-79.27,20.76-118.29,3.29-16.8-3.45-32.59-2.35-49.1,1.42-21.41,19.85-41.66,20.26-62.89.22-11.48-8.23-29.58-11.51-41-6.49-22.51-4-37.11,2.2-60.42,1.79-6.69,3.33-13.4,4.74-20.1.15,8,2.89,15.55,3.32,23.57.43,8.18-2.93,15.19-3.09,23.22-.13,6.27,3.56,11.19,3.69,17.13.13,5.23-3,12.48-2.61,17.92.19,2.83,1.18,10,4.65,11,2.56.72,5.63-2.43,4.65-5.93.31,3.3-2.15,6.57-5.08,4.85C46,843.79,47.09,835,47.71,831.76c.88-4.58,3-9.27,2.79-14-.2-4.53-2.58-8.79-3.08-13.24-1.55-13.8,5.44-27.76,4.88-41.9-.17-4.41-.81-8.78-.78-13.2,0-6.46,2.33-12.49,2.65-18.8.26-5.18-1.65-10.47-2-15.67-.1-1.44-.12-2.82-.08-4.19,1.29-7.28,2.63-14.56,4.15-21.81A42.12,42.12,0,0,1,62,674.84a80.82,80.82,0,0,0-.93,14.4c.49,9.3,2.07,18.42,2.08,27.77,0,6.55-1.12,13.48.09,20,.2,1.09.45,2.18.74,3.27-.13,1.42-.21,2.84-.22,4.28,0,5.54,1.06,11,1.56,16.5a200.39,200.39,0,0,1,.6,20.36c0,.18.27.21.28,0,.16-5.94.29-11.9,0-17.84C66,757,64.7,750.42,65.05,743.84v0c2,6.23,4.84,12.37,6.16,18.8,3,14.45,5.36,31.44,3.88,46.17,3.48-15,1.67-48.71,1.4-59.83-.29-11.62-3.27-24.18-1.49-35.7.71-4.61,2.94-8.74,4-13.25,3.59-15,3.36-33.08,4.14-48.13,1-1.64,1.39-3.16.72-4.68-10-22.54-35.95-71.1-37.14-95.77-1.33-27.65,15.11-55.56,10.52-82.67-2.82-16.62-10.2-31.57-10.58-49.44-.37-17.06,5.84-25.57,11.08-41.44,1.57-4.76,2.89-9.51,4.07-14.22a190,190,0,0,1,1.09,25.73c-.51,13.46,1.71,26.8,1.78,40.15,0-16.82,2-33.2,2.73-49.91.7-16,4.07-32.5,2.61-48.53,0-.38-.07-.82-.12-1.3,4.51-16,11.1-30.84,25.43-43.63.42-.37.79-.76,1.2-1.13,0,.39,0,.78,0,1.17.07,2.38,1.06,4.63,1.34,7,.23,1.89.3,3.75.67,5.64.88,4.41,1.64,8.85,2.58,13.26a46.87,46.87,0,0,1,1.28,7.14c.17,3.07-.59,6-1,9-.61,4.36-1.57,8.75-2.5,13.06-2.08,9.55.27,17.61,2.78,26.83,0,.18.31.08.26-.09a112.73,112.73,0,0,1-3-15.3c-.68-5.32.85-10,1.79-15.15.76-4.18,1.76-8.27,2.51-12.46.84-4.68.34-8.58-.57-13.22-1.42-7.31-1.91-14.93-3.55-22.14a22.65,22.65,0,0,1-.41-6.81,96.57,96.57,0,0,0,8.27-9.17,31.71,31.71,0,0,1,.94,4.76c1.16,11.45-.59,23.05.68,34.34,1,9.27,3.81,18.37,4.93,27.71,1.87,15.72,1.32,32.71,5.33,48,0-9-.4-17.94-.66-27.08-.38-13.92,2.39-27.31,1.81-41.28-.57-13.67.08-28,.77-41.7a155.37,155.37,0,0,0-1.11-25.13c7.34-15,12.08-31.52,17.46-49.11,4.23-13.81,3.32-23.65,11.15-34.83.68-1,1.36-1.89,2-2.79-.23,7,.79,14.17,1.91,21.06,2.55,15.56-4.62,27.57-4.63,42.67,0,12,6.37,22.83,7,34.58.52,10.15-3.32,18.16-1.49,28.47.61,3.41,4.13,19.18,1.48,26.26a.88.88,0,0,0-.93.81c-.07.39-.13.8-.19,1.2a4,4,0,0,1-3.65,1.42c-6-.55-5.38-9.32-3.13-12.53-8,4.37-1.76,19.14,6.15,15.3a95,95,0,0,0-1,10.08c-.13,4.12,1.57,8,2,12.08a52.32,52.32,0,0,0,1,5.62,25.47,25.47,0,0,1-.48,10.67,67.53,67.53,0,0,0-1.56,15.26c0,.11.17.09.17,0,.15-5.91,1.57-11.22,2.52-17a38.61,38.61,0,0,0,.91-6.38c0-2.32-.93-4.59-1.13-6.91-.34-3.93-1.2-7.81-1.46-11.73-.19-2.89.84-5.89,1.22-8.73.22-1.62.34-3.27.46-4.91a14.14,14.14,0,0,0,1.06-1.19c4.79-6,2.73-15.94,1.73-22.67a64.58,64.58,0,0,1,.06-22.36c1.3,6,3.56,13.52,3.66,19.69,0-9.54.5-19.13-1.21-28.45-1.05-5.75-3-11.37-4.14-17-1.32-6.39.76-12.09.5-18.41-.22-5.45-1.61-10-.8-15.63.94-6.59,3.59-12.79,4.51-19.36,1.93-13.77,0-26.74,3.6-40.44-.14,6.44,1.32,13.23,1.79,19.69.58,8.09-.34,17.85,1.85,25.66-.18-11.91.32-24.09,1.18-36,.31-4.22,2.82-20.11.9-27.26.27-.56.55-1.12.81-1.71,1.05-2.34,2-4.64,2.88-6.89.78,10.17,1.84,20.41,3,30.92.95,9,2.1,17.81,1,26.82-1.14,9.32-2.41,18.16-1.42,27.59,2.54,24.12-1.29,52.17,3.08,75.17,1.57-15.5,2.53-31.31,4.07-46.9.67-6.79,1-14,1.53-21.23.48,3.23,1,6.47,1.7,9.75a73.68,73.68,0,0,1,1.44,13.1c.08,4.44-.68,8.82-.6,13.28.16,9.41.5,18.65,2.78,27.83.05.2.35.08.3-.12-2.17-9.66-2.32-19.52-2.18-29.38.06-4.47.88-8.81.86-13.29A84.12,84.12,0,0,0,188.15,232,151.6,151.6,0,0,1,186,212.41c.48-4.13,1.08-8.17,1.93-12,1.62-7.42,5.1-14.25,5.26-22,.13-6.15-1.48-12.31-1.59-18.52-.13-7.17,2.27-14.21.83-21.36a40.86,40.86,0,0,1-.64-14.28c3,12.13,7.51,24,7.75,36.93.3,16.65-.36,34.9,1.82,51.42.05-24.86,7.13-48.78,7.38-73.49C209,120.57,217.72,102.56,219,84c.36-5.22,1.85-10.19,2.58-15.36l4.57-3.22c-.35.93-.67,1.87-1,2.85-2.4,8-1.77,15.69.47,23.65,1.18,4.19,2.7,8.34,3.41,12.65.78,4.75-.31,10-.67,14.82-.74,9.81-1.32,19.64-2.22,29.44,0,.15.21.19.22,0,1.08-10.36,1.81-20.76,2.83-31.14.4-4,1.31-8.06,1.16-12.07s-1.41-8.14-2.53-12c-2.77-9.71-4-20.76,1-30.07C248.64,50,288.83,13.74,304.83-3.52Z"/><path class="cls-3" d="M1968.32,344c0-65.83-2.68-131.3-7-197-1.39-20.9-4.11-41-7.06-61.62-.93-6.48-14.91-99.69-19.71-94.88-1.51,1.5-417.58,6.89-417,6.76-.15.18,27.42,41.72,27.26,41.9a.42.42,0,0,0,0,.49c.4.69.77,1.42,1.15,2.14a6.46,6.46,0,0,0-.14,1.18s0,0,0,0a4.51,4.51,0,0,0,0,1.31,1.09,1.09,0,0,0,1.19.93,9.45,9.45,0,0,0-.72,6,1.07,1.07,0,0,0,1.08.68,2.71,2.71,0,0,0,2.14-1.24,1,1,0,0,0,.18-.5,119.73,119.73,0,0,1,4.74,15c1.09,4.47,2.45,8.81,3.69,13.23a11.85,11.85,0,0,0,4.45,6.81c3.4,2.73,7,4.64,9.63,8.26a34.48,34.48,0,0,1,5.08,11.79c1.09,4.35,2.38,8.6,3.84,12.84,1.26,3.67,2.15,7.93,4.44,11.12a21,21,0,0,0,2.48,2.79c.7,13.71,2.11,27.39,3.6,41.58.92,8.69,2,17.17,1,25.86-1.1,9-2.33,17.49-1.37,26.59,2.45,23.24-1.24,50.27,3,72.45,1.51-14.95,2.43-30.18,3.92-45.21.65-6.54,1-13.51,1.48-20.46.45,3.12,1,6.24,1.63,9.4a70.26,70.26,0,0,1,1.39,12.62c.08,4.28-.66,8.5-.58,12.81.15,9.07.48,18,2.68,26.81,0,.2.34.09.29-.11-2.09-9.31-2.23-18.81-2.1-28.31.06-4.32.85-8.49.83-12.81a81.51,81.51,0,0,0-1.1-12.76,146.24,146.24,0,0,1-2-18.87c.46-4,1-7.87,1.85-11.6,1.57-7.15,4.92-13.74,5.07-21.19.13-5.93-1.42-11.87-1.53-17.85-.12-6.92,2.19-13.7.8-20.59a38.84,38.84,0,0,1-.93-8.4l2,.91c2.65,9.54,5.63,19.06,5.82,29.32.28,16-.35,33.63,1.75,49.56,0-24,6.87-47,7.11-70.83,0-.82.06-1.64.1-2.46,1,.3,2,.63,3,1,7.38,2.9,10.18,11.83,16.45,16.43,6,4.43,12.59,5.18,19.77,4,3.13-.5,7.41-1.53,9.85,1.1,1.06,1.14,1.75,2.77,2.72,4a65.58,65.58,0,0,0,8.27,8.79,71.24,71.24,0,0,1,7.69,8.36c.72,8.73,1.62,17.52,2.57,26.52.91,8.68,2,17.17.95,25.85-1.1,9-2.33,17.5-1.37,26.6,2.45,23.24-1.24,50.27,3,72.45,1.51-14.95,2.43-30.18,3.92-45.21.65-6.55,1-13.51,1.48-20.46.46,3.12,1,6.24,1.63,9.4a69.36,69.36,0,0,1,1.39,12.62c.08,4.28-.65,8.5-.58,12.8.16,9.07.48,18,2.68,26.82,0,.2.34.08.3-.11-2.1-9.31-2.24-18.81-2.11-28.32.06-4.31.85-8.49.83-12.81a81.61,81.61,0,0,0-1.1-12.76,147.68,147.68,0,0,1-2-18.86c.31-2.71.72-5.36,1.18-8a5.47,5.47,0,0,0,.41.71c1.85,2.71,7,4.44,13,5.8.07.54.11,1.08.18,1.61,0-.52,0-1,0-1.56,3.83.86,8,1.57,11.92,2.3,0,.25-.16.33-.43.17-2.46,9.76-1,20.07.59,29.88,2.45,15-4.46,26.57-4.47,41.12,0,11.58,6.14,22,6.73,33.33.5,9.78-3.21,17.51-1.44,27.44.59,3.29,4,18.48,1.43,25.31a.84.84,0,0,0-.9.78l-.18,1.16a3.89,3.89,0,0,1-3.52,1.37c-5.79-.54-5.18-9-3-12.08-7.7,4.21-1.7,18.45,5.94,14.75a90.68,90.68,0,0,0-1,9.71c-.13,4,1.51,7.74,1.93,11.64a51.54,51.54,0,0,0,.93,5.42,24.67,24.67,0,0,1-.46,10.29,65.53,65.53,0,0,0-1.51,14.7.09.09,0,0,0,.17,0c.15-5.7,1.51-10.81,2.43-16.36a38,38,0,0,0,.87-6.15c0-2.24-.89-4.42-1.08-6.66-.33-3.79-1.16-7.53-1.41-11.31-.18-2.79.8-5.68,1.17-8.42.21-1.56.33-3.14.45-4.73a13,13,0,0,0,1-1.14c4.62-5.76,2.63-15.36,1.66-21.85a62.63,62.63,0,0,1,.06-21.55c1.26,5.83,3.43,13,3.53,19,0-9.19.49-18.43-1.16-27.41-1-5.55-2.87-11-4-16.41-1.27-6.16.73-11.65.49-17.74-.22-5.25-1.55-9.66-.78-15.06.92-6.35,3.47-12.34,4.35-18.67,1.8-12.85.1-25,3.17-37.72l.31.12c.07,5.79,1.3,11.84,1.71,17.61.56,7.79-.32,17.2,1.79,24.73-.18-11.49.31-23.22,1.14-34.69.07-1,.28-2.75.52-4.87,5.76,3.56,6.27,5.63,12.33,12.72,9.65,11.28,17.52,16.12,31.22,23.81,13.38,7.51,20.49,10.19,25.86,23.83,5,12.79,5.78,28.68,10.54,41.8,6.69,18.45,10,37.83,14.18,57.06,5.32,24.64.82,34.74-6.41,58.91-10.92,36.5,22.91,70.65,26.46,108.11,3.51,37,11,75.45,8.52,112.72-2.72,41.21-21,81.54-10.4,122.85,19,73.91,1.61,143.77,1.49,218.2,0,13.41-2.15,29.15,8.59,34.52,6.43,3.21,31.19-.89,39.73-.13,9,.81,17.94,2.2,26.93,2.21,2.93-46.71,12.4-92.2,12.59-139.53.26-64-2.94-128.2,2.84-192.15,6.36-70.47,18.05-139.48,18.24-210.54C1968.53,479.79,1968.33,411.88,1968.32,344Z"/></g></svg>