<svg xmlns="http://www.w3.org/2000/svg" xmlns:xlink="http://www.w3.org/1999/xlink" width="26px" height="16px" viewBox="0 0 56.54 35.05"><defs><style>.cls-1{fill:#96a4c6;}.cls-2{fill:#bec9e0;}.cls-3{fill:#5e6c8f;}.cls-4{fill:url(#linear-gradient);}.cls-5{fill:#dfeaff;}.cls-6{fill:#dfe4fc;}</style><linearGradient id="linear-gradient" y1="3.78" x2="56.54" y2="3.78" gradientUnits="userSpaceOnUse"><stop offset="0" stop-color="#8895b7"/><stop offset="0.71" stop-color="#d0d4fa"/><stop offset="1" stop-color="#8895b7"/></linearGradient></defs><title>Ladder</title><g id="Layer_2" data-name="Layer 2"><g id="Layer_1-2" data-name="Layer 1"><rect class="cls-1" x="7.59" width="6.59" height="35.05"/><rect class="cls-2" x="10.48" width="2.31" height="35.04"/><rect class="cls-1" x="42.13" width="6.59" height="35.05"/><rect class="cls-2" x="45.02" width="2.31" height="35.04"/><path class="cls-1" d="M458.56,448.91v4.7a2.25,2.25,0,0,1,1.77-.67,3.39,3.39,0,0,1,1.84.75v-4.45Z" transform="translate(-448.73 -441.77)"/><path class="cls-1" d="M493.15,448.24v4.7a2.31,2.31,0,0,1,1.77-.67,3.41,3.41,0,0,1,1.85.76v-4.45Z" transform="translate(-448.73 -441.77)"/><path class="cls-3" d="M448.73,448.15l4.2,3.36h3.28c1.6-2.17,5.46-2.34,6.64,0l28-.05a4.26,4.26,0,0,1,6.63,0h3.37l4.37-3.28-1.68-1.76-54.19.08Z" transform="translate(-448.73 -441.77)"/><rect class="cls-4" y="1.18" width="56.54" height="5.21"/><path class="cls-5" d="M448.73,448.15c4.71-.15,9.42-.27,14.13-.32l14.14-.1,14.13.09q7.06.09,14.14.33-7.08.24-14.14.33l-14.13.09-14.14-.09Q455.79,448.39,448.73,448.15Z" transform="translate(-448.73 -441.77)"/><path class="cls-6" d="M448.73,443.06q7.06-.22,14.13-.32l14.13-.1,14.14.1q7.06.09,14.13.32-7.06.24-14.13.33l-14.14.1-14.13-.1Q455.79,443.3,448.73,443.06Z" transform="translate(-448.73 -441.77)"/></g></g></svg>