<?xml version="1.0" encoding="utf-8"?>
<!-- Generator: Adobe Illustrator 24.0.1, SVG Export Plug-In . SVG Version: 6.00 Build 0)  -->
<svg version="1.1" id="Layer_1" xmlns="http://www.w3.org/2000/svg" xmlns:xlink="http://www.w3.org/1999/xlink" x="0px" y="0px"
	 viewBox="0 0 107.9 107.5" style="enable-background:new 0 0 107.9 107.5;" xml:space="preserve">
<style type="text/css">
	.st0{fill:#FFFFFF;}
	.st1{fill:none;stroke:#ED1C24;stroke-width:3.4;stroke-miterlimit:10;}
	.st2{fill:#ED1C24;stroke:#ED1C24;stroke-width:4;stroke-linecap:round;stroke-linejoin:round;stroke-miterlimit:10;}
</style>
<g>
	<circle class="st0" cx="54.3" cy="53.7" r="51.4"/>
	<circle class="st1" cx="54.3" cy="53.7" r="51.4"/>
	<path class="st2" d="M78.9,69.4c-0.6-3.7-3.2-5.3-5.8-7.8c-4-3.8-7.7-8.1-11.5-12.2c-0.4-0.4-0.7-0.8-1.1-1.2
		c2.1-2.5,4.2-4.9,6.3-7.3c3.9-4.4,5.8-9.7,10.5-13.6c1.6-1.3-0.3-3.9-2-2.9C67.4,29,60.5,34.7,54.1,41.1
		c-4.9-5.6-9.8-11.2-14.8-16.7c-2.3-2.6-6.1,0.9-3.9,3.6c4.8,5.9,9.3,12.1,13.9,18.3c-0.7,0.7-1.3,1.5-2,2.2
		c-4.1,4.8-7.7,10-10.9,15.4c-3,5-7.2,10.3-8.1,16c-1,6.3,9.2,8,11,2c1.5-5,5.5-10.5,8.1-15.1c2.5-4.3,5.2-8.4,8.2-12.4
		c5.1,6.6,10.5,12.9,16.5,18.6C75,75.7,79.5,73.4,78.9,69.4z"/>
</g>
</svg>
