<?xml version="1.0" encoding="utf-8"?>
<!-- Generator: Adobe Illustrator 23.1.1, SVG Export Plug-In . SVG Version: 6.00 Build 0)  -->
<svg version="1.1" width="1278px" height="600px" id="Layer_1" xmlns="http://www.w3.org/2000/svg" xmlns:xlink="http://www.w3.org/1999/xlink" x="0px" y="0px"
	 viewBox="0 0 2300 1080" style="enable-background:new 0 0 1920 1080;" xml:space="preserve">
<style type="text/css">
	.st0{clip-path:url(#SVGID_2_);}
	.st1{fill-rule:evenodd;clip-rule:evenodd;fill:#192021;}
	.st2{fill-rule:evenodd;clip-rule:evenodd;fill:#333333;}
	.st3{fill:url(#SVGID_3_);}
	.st4{clip-path:url(#SVGID_5_);}
	.st5{fill:url(#SVGID_6_);}
</style>
<g id="exit">
</g>
<g id="blocks_and_platforms">
</g>
<g id="ladders">
</g>
<g id="outer_boarder">
	<g>
		<g>
			<defs>
				<rect id="SVGID_1_" y="1" width="1921" height="1080"/>
			</defs>
			<clipPath id="SVGID_2_">
				<use xlink:href="#SVGID_1_"  style="overflow:visible;"/>
			</clipPath>
			<g class="st0">
				<path class="st1" d="M-24.4-10.7c2.3,0,370.6,7.7,371.6,7.3c2.2-0.7,74.4-1.4,76.7-0.6c-1,3.8-66.2,97.3-69.8,97.4
					c-6.8,3.8-12,9-18.7,13.2c-2,1.3-4,3.2-6,4.3c-3.6,1.9-8.3,1.9-12.2,3.5c-6.2,2.5-7.2,10.1-11.7,14.3c0.9,2.2,2,4.3,1.3,7.5
					c-0.5,2.3-3,3.3-4.9,5.5c-3.3,3.9-4.8,9.8-9,13.2c-5,4-13.6,5.2-20.8,3.6c0.1,5.3-2,9.3-4.8,13.3c-8,11.4-20.4,20.8-39.1,20.1
					c0.7,4.9-1.7,8.3-3.6,13c-1.2,3-1.7,6.5-2.9,8.3c-1.3,1.9-4.4,3.2-6.7,5.2c-7.6,6.5-19.7,9.9-26.6,17.8
					c-4.7,5.4-4.3,13.9-8.9,21.3c-8.6,5.7-16.4,12.4-19.6,23.9c-2.8,5-9.2,6.2-13.9,9.2c1.6,0.8,3.8,1,4.7,2.5
					c-2.5,6-3.7,13.4-5.3,20.8c-1,4.4-2.7,8.4-3.6,12.5c-0.9,3.9-0.8,8.2-1.2,12.2c-0.8,8-1.8,15.2-3.3,22.3c-2.4,2.2-4.8,4.5-7,7
					c6.5,2.2,0.5,9.5-1.6,14.6c-1.9,4.5-3.3,7.6-5.3,10.6c-6,8.8-11.2,18-16.5,30c-3.4,7.7-7.1,15.8-11.3,23.9
					c-1.5,2.8-3.6,5.5-3.8,7.7c-0.1,1.2,0.6,2.7,0.8,4.2c0.3,2.9-0.4,6.3-0.3,9c0.2,4.3,1.3,7.9-1.8,10.4
					c2.6,10.3,5.3,22.3,1.4,32.9c-1,2.8-3.1,4.8-4.7,7.9c-1.9,3.9-2.1,8.9-3.3,13.7c-1.1,4.3-3.3,8-4.8,11.8
					c-0.7,1.9-0.8,4.1-1.6,5.9c-1.2,2.7-3,5-4.1,7.7c-3.3,8-5.6,17.2-8.4,26.4c-1.9,6.1-2.9,12-6.1,17.2c-2.8,4.5-7.1,8.3-9.6,13.5
					c-1.9,4-3,9-4.8,13.6s-4.2,9.6-4.8,13.6c-0.9,5.6-0.1,12.3,1,18.3c2.1,11.5,3.6,23,5,34.8c1.2,10.9,5.1,23,3.2,35.1
					c-0.9,5.6-2,11.1-3.4,16.3c-2.7,10.6-8.5,19.5-9.8,31.1c-0.5,4.5,0.3,10.3,0.5,15c0.2,6.1,0.3,14.2,0.3,20
					c0.1,7.8-1.5,15.7,0.3,21.2c0.9,2.7,4.3,4.3,4.2,7.9c-0.1,2.6-2.4,3.7-2.8,6.5c1.9,1.6,4.4,1.6,5.2,3.7c0.7,1.9,0.5,5.3,0.7,7.8
					c0.2,2.6,0.2,5.4,0.4,7.8c0.3,5.3-1,11.6,0.1,16.4c0.3,1.5,1.2,3.1,1.9,4.8s1.1,3.5,1.6,4.8c0.8,2.2,3.2,5,3.4,6.4
					c0.4,3.9-2.1,9.2-3,13.4c-1.1,4.8-2,9.5-3,13.4c-2.2,8.6-6.6,17-1.9,25.7c9.6-0.4,12,6.7,15,13.3c1.7,3.8,3.6,7.5,5.6,10.3
					c5.7,7.7,13,12.4,16.9,19.9c12.3,5.2,19.9,14.9,24.1,27.9c4,3.4,10.5,4.3,14.9,7.3c4.1,0.4,8.2-0.7,11.5,0
					c3.2,0.7,6.7,3.3,9.6,5.4c7.3,5.3,14,12.4,17.2,21.1c7.9,4.8,16.8,8.1,25.1,13c8.1,4.8,17.8,6.8,24.5,13.3
					c2.5,1,5.3,1.8,5.8,4.7c-25.2-1.3-53,0.3-80,2.2c-18.9,1.3-38.4,0.6-54.5,1.7c-4,0.3-8,0.7-12.4-0.1c-1.3-0.2-2.8-0.9-4.1-1
					c-2-0.2-4.4,0.4-6.5,0.4c-9.7-0.1-21,0.9-30.8-0.9c-2.1-0.4-4.1-0.6-6.2-1.1c-1.8-0.4-3.6-1.2-5.6-1.7
					c-11.5-2.4-25.3-0.6-36.3-5.8c-6.9-2.7-16.2,0.3-24.9-0.4c-0.3-1.6-1-2.9-0.7-5.1C-51.8,1075.5-26.5,16.1-24.4-10.7z"/>
				<path class="st2" d="M-43.4,72.9c0.3,0,2,0,4.9,0.1c-2.8,86.5-4.3,173-5.3,259.5C-43.4,189-43.2,80.1-43.4,72.9z"/>
				<path class="st2" d="M-43.8,332.5c1-86.5,2.6-173,5.3-259.5c44.6,1.1,377.7,12.8,391.9,18c-7.5,3.3-12.8,8.8-19.6,13.2
					c-2.2,1.4-4.2,3.5-6.3,4.6c-3.5,1.8-8.1,1.7-11.9,3.2c-6,2.4-7.6,9.6-11.4,14c-1.7-0.8-2.2-2.9-4-4c-1-0.6-2.7-0.6-4.1-1.3
					c-2.9-1.4-4.7-4.9-7.8-6.8c-9.8-6-28-4-33.9,3.5c-2.5,3.2-4.9,8.5-4.9,15.1c-26.4-2.8-46.5,6.2-50.6,29.3
					c-0.6,1.2-1.7-2-3.5-1.6c-1.9-3-4.5-3.3-9.7-4.2c-3.4-0.6-5.7-1.6-8.9-1.2c-4.5,0.7-7.9,3.8-10.8,5.4c-6,13.1,7.1,25.7,21,21.5
					c-1.9,4-0.8,5.3,1.5,8.4c1.9,2.5,3.9,5.4,7.8,5.9c7.9,1.1,15.6-3.6,16-11.8c0.9-0.3,1.9,1.9,3.2,3.1c2.5,2.3,5.2,4.7,10.2,4.8
					c-0.4,3.3-2.2,6.1-3.5,9.2c-1.3,3-1.6,6.6-3.2,9.5c-0.8,1.4-3.3,2.9-5.5,4.6c-2.1,1.7-3.7,3.7-5.2,4.6c-3.1,2-8.1,3.7-12,6.2
					c-5.7,3.8-9.4,9.7-17.1,7c1,1.6,3.1,2.1,5.6,2.3c-0.9,3-2.4,6.4-3.8,10.1c-1.2,3.2-2.3,7.4-4.1,9.7c-1.3,1.6-4.1,2.8-5.7,4.3
					c-4.7,4.3-10.5,9.6-13.2,16.4c-1.3,3.2-1.4,5.6-4.4,7.6c-1.5,1-4.4,2.1-6.9,3.4s-5.4,3.2-6.6,3.4c-3.4,0.4-8.9-1.7-12.7-2.5
					c-7.5-1.4-14.1-2-18.5-5.9c-1.1-0.9-1.7-2.4-2.6-3.4c-2.9-2.9-6.1-5.5-10.5-7.5c-1.6-5.7-1-12.1-2.2-17.7
					c-1.7,4.5-0.6,11.4,0.1,16.1c-6.2,0.9-7.9-4.8-11.6-7.8c-2.5-2-6-2.6-8.5-4.4c-2.4-1.8-7.1-8.3-8.6-11.3c-2-4-2.6-8.7-4.4-12.4
					c-0.3,2.3,0.4,6.6,2.2,7.5c0.3,7.1,5.8,11.7,8.7,17.3c6.7,2.3,12.1,6,15.1,11.8c6.4,1.5,12,3.8,16.1,7.3
					c2.1,1.8,2.7,3.8,4.6,5.5c7.2,6.8,18.8,6,31.7,8.7c2.3,0.5,4.3,2,7.7,1.7c-2.6,8.1-3.7,17.2-6.1,25.8c-0.7,2.7-2.2,5.3-2.6,8
					c-1.1,7.2-1.1,15.3-2.4,22.9c-0.4,2.5-1,6.5-2,8.9c-1.2,2.9-4.6,4.5-6.7,7c-3.6-1.4-6.8-2.7-10.3-3.9c-3.6-1.3-7.6-1.4-10.9-3
					c-5.3-2.6-8.6-7.9-13.9-10.3c-3.5-1.6-8.1-0.8-12.1-2.4c-1.1-0.5-1.8-1.9-3.2-2.8c-1.6-1.1-3.9-1.6-5.3-2.5
					c-1.4-1-1.9-2.3-3.2-3.1c0.2,3.8,5.3,5.4,8.1,7.7c-3.9,0-7.1-0.4-10.3-1.2c-3.2-0.8-5.2-2.4-7.9-3.8c-3.7-1.9-7.2-3.1-10.2-5.7
					c-2.9-2.5-4.8-5.6-8.1-7.7c1.9,2.4,3.7,5,6,7.3c3,3,7.1,4.3,10.8,6.6c1.6,1,2.9,2.8,4.6,3.7c8.4,4.2,20.6,1.4,29.5,5.6
					c5.2,2.5,10.5,8.5,15.1,10.6c2.9,1.3,6.2,1.4,9.1,2.4c5.8,1.9,10.8,4.3,15.2,7c-2.3,6.1-5.1,11.5-7.3,17.7
					c-4.3,0.4-8.9,1.2-13.3,0.5c2.5,2.4,7.1,1.7,11.2,1.5c1,0.7-1.3,2.9-1.9,3.8c-3.4,0.7-8.2-0.2-10.7,1.5c1.8,0.2,6.1,0.8,8.6,0.2
					c0.3,2-1.6,3.7-2.5,5.3c-7.2,12.2-13.7,28-20.7,41c-1.8,3.4-5,7.4-5.4,11.5c-0.1,1.6,0.6,2.9,0.8,4.5c0.3,4.1-1.1,8.5,0.3,12
					c-3.6,1.8-7.9,2.9-12,4.1c3.4,1.1,8.3-1.4,11.9-2c-1,4.5-3.8,7-6.5,9.7c-7.4,0.8-15.4,6.9-22.2,1.1c3.1,8.7,16.3,0.7,23.1,1.3
					c2.4-0.1,3.7-3.1,5.1-3.1c1,8.6,3.4,16.7,1.4,25.7c-0.8,3.4-3,6.6-4.7,10c-3.5,7-3.3,15.4-6.6,22.5c-0.8,1.7-1.8,3.1-2.5,4.7
					c-0.8,1.8-0.9,3.9-1.6,5.6c-0.8,1.8-2.3,3.2-3.1,5c-4.2,8.9-6.9,19.8-10,30.2c-1.3,4.3-2,8.5-3.9,12.1
					c-3.5,6.9-9.3,12.2-12.1,20c-1.4,3.8-3,7.6-4.5,11.5c-2.7,7.4-5.4,14-4.5,24.1c0.5,5.5,2.1,11,2.8,16.8
					c0.7,6.1,1.3,12.4,2.1,18.6c2.1,15.2,6.7,29.2,4.1,44.1c-1,5.5-2.1,11.7-4,17.5c-1.3,4-3.3,7.8-4.8,11.8
					c-1.3,3.7-2.8,7.7-3.6,11.6c-2.3,11.4,0.1,26.4,0,40.7c0,7.5-1.5,15.3,0.3,20.9c0.9,2.7,3.1,3.6,4,6.7c-1.3,2.3-3.9,2.5-5.5,4.6
					c-2.5,3.4-2.8,8.7-5.4,12.7c-0.6,0.9-1.8,1.4-2.4,2.3c-1.8,2.5-3.3,6.9-5.6,8.8c-3.1,2.7-8,2.6-12,4.4
					c-3.4,1.6-6.3,4.9-10.2,5.4c-7.1,0.8-10.9-4.6-15.9-4.6c4.6,2.3,8.1,5.7,14,6.7c1,1.1-2.9,2.2-3.4,3.8c2,0.2,4-2.3,5.4-3.7
					c4.3-1.2,7.6-4.3,11.1-6c4.7-2.1,8-2,11.1-4.2c3.2-2.3,4.2-5.8,6.8-9.4c2.8-4,6.4-7.3,9.8-11.7c0.9,1,3.4,0.6,4.4,1.6
					c0.8,4.9,1,9.8,1.4,15.3c0.4,5.3-0.8,11-0.2,16.4c0.7,5.8,5.8,10.9,6.4,16c-4,6.3-10.8,9.6-16.7,13.9
					c6.9-2.3,11.8-6.7,16.9-10.9c-1.1,4.6-1.4,7.8-2.4,12.8c-1.9,8.6-5.9,17.8-6.9,25.2c-0.7,5.5,0.6,11.4,3.5,13.9
					c-6.9,3-16.5,3.6-24.7,4.4c8.1,0.9,20.8-0.5,27.7-4c1.1,0.6,3.2,0.3,4.1,1c-2.6,1.7-6.3,2.3-9.3,3.6c4.2,0.9,7.8-1.5,11.3-2.4
					c3.5,5.9,5.6,13,9.6,18.5c-5.5,5.6-12.9,9.2-21.6,11.3c8.8-0.1,16.4-5.3,22.8-9.8c2.6,3.6,6.2,6,9.2,9.5
					c3.1,3.7,5.6,9.5,10,12.2c3.3,2.1,6.5,3,9.3,5.7c4.3,4,8.7,9.5,10.5,16.4c-8.8-0.6-18,3.2-25.3,6.1c3.6-0.8,9-2.2,14.3-3.5
					c4-0.9,12.7-3.3,13.3,2.2c-11.6,2.3-21.4,6.7-31.4,10.7c4.9-0.8,10.2-2.9,16.1-4.9c5.4-1.9,11.7-5.1,17.3-4.3
					c3.7,0.6,8.2,3.8,12,4.8c-3.2,2.8-7.5,4.6-11.2,7.7c-1,0.9-2,2.6-3.7,4.1c-1.5,1.3-3.4,2.4-3.7,3.8c-0.9,4.7,4,10.2,7.7,12.2
					c1.6,0.8,3.8,0.8,5.6,1.7c2.3,1.1,3.5,3.4,5.5,3.7c2.2,0.4,5-0.6,7.7-0.4c6,0.5,10.9,2.7,17.7,2c2.2-0.2,5.2-1.4,7.2-2.5
					c2.1-1.1,4.6-4.5,6.3-4.6c3.5-0.3,8.8,5.2,12,6c9.8,2.6,17,7.6,25.7,11.2c6.4,2.6,12.3,6.1,16.9,9.5c-3.3-1.3-7-0.1-10.4,0
					c-15.6,0.3-32.7-0.8-48.3,0.4c-7,0.6-14,2-21.1,2.4c-14.7,0.8-29.4,0-44.5,1.1c-1.2,0-1.2,0-0.9-0.9c-6.3,2.1-13,0-19.5-0.6
					c-2.2-0.2-4.4,0.6-6.5,0.7c-3.5,0.2-7.1-0.7-10.6-0.6c-5.2,0.2-10.4,1.6-15.4,1c-13.4-1.4-25.9-5.5-39.5-6.5
					c-3.2-0.2-6.5,0.1-9.5-0.6c-4.1-1-7.9-3.6-12.3-4.2c-6.4-0.9-12.3,2.3-18.7,0.7c-0.7-2-0.7-4.8,0.5-6.3
					C-46.1,1064.7-44.6,626.1-43.8,332.5z"/>
				<path class="st1" d="M161.2,195.1c5.8-0.8,16.4,4.2,17.2,10.4c0.4,3,0,10.9-0.6,12.5c-2.8,7.6-21.1,8.1-26.7,1.6
					c-3.1-3.6-6.7-12.8-2.5-17.7c0.8-1,4.2-3.6,5.5-4.3C156,196.4,158.9,195.4,161.2,195.1z"/>
				<path class="st2" d="M153.4,219.1c6.1,5.5,16.5,4,22.5-0.8c0.8-3.9-0.5-8.8,0.4-12.8c-2.6-6.2-11.8-10.9-19.3-7.1
					c-0.4,0.8,1.5,0.8,0.6,1.2C144.8,199.9,147.5,213.7,153.4,219.1z"/>
				<path class="st2" d="M271.9,155.9c7.1,1.4,14.8,0.6,19.3-3.3c2.7-2.4,4.1-6,6.2-9.1c1.5-2.2,6.1-5.9,6.8-8.5
					c0.9-3.7-1.9-8.4-3.3-9.7c-1.6-1.4-4.3-1.5-6.1-2.6c-3-1.7-4.9-5-7.8-6.8c-9.1-5.7-22.2-3.3-30.3,3c-1.8,4.2-5.4,8.8-4.2,14.2
					C263.8,136.1,266.6,147.2,271.9,155.9z"/>
				<path class="st2" d="M237.9,134c-4.3,0.3-9.3,1.7-13.1,2.9c-8.7,2.8-12.4,5.7-17.5,12c-4.6,5.7-8.5,12.5-5.6,19.9
					c1,2.5,5.2,5.2,7.5,7.7c4.4,4.9,7.8,12.7,15.3,13.3c2.7,0.2,6.6-0.8,10.1-1.2c8.9-1,12.4-2.5,18.2-6.3
					c5.3-3.5,8.5-6.6,11.9-11.9c2-3.2,4-5.6,4.4-8.8c0.7-6-2-8.6-3.8-12.4c-1.2-2.4-1.7-5.2-3.1-7c-2.3-2.9-5.7-4-7.8-5.6
					c-1.1-0.7-1.1,0.3-2.4,0.2C249.3,133.8,242,133.7,237.9,134z"/>
				<path class="st2" d="M196.8,163c-3-3.9-12.2-7.4-19.7-6.5c-4.2,0.5-9.6,4.2-10.5,6.3c-3.1,6.8,3,15.2,9,17.6
					c6.9,2.8,13.9-1.1,19.7-4.2c0.7-0.7,1-1.8,2.1-2c0.6-2.4,1.4-4.5,2.3-6.5C198.4,166.2,196.9,165.3,196.8,163z"/>
				<path class="st2" d="M198.8,175c-2.9,4.7-12.9,4.4-11,11.9c0.3,1.1,3.8,5.6,4.6,6.1c3.5,2.5,8.7,1.7,12.1,0.4
					c4.3-1.7,6.6-6.3,6.3-12.4c-3.5-3.6-6.6-7.5-10.4-10.8C199.5,172,199.6,173.7,198.8,175z"/>
				<path class="st2" d="M30.6,853.8c1.2-1.9,2.7-3.5,4.3-5c0-1.4,0.7-2.1,1-3.3C32.7,846.4,30.8,851.8,30.6,853.8z"/>
				<path class="st2" d="M152.6,1053.7c-1.1-1.7-1.5-3.4-2.5-5.2c-1.6-2.8-4.9-4.8-8.1-7.1c-2.9-2.1-6.1-5.4-9-6.5
					c-4.9-2-10.1,1-14.5-0.7c-3.7,1.7-6.5,3.7-10,6.6c-1.9,1.6-8.1,6-8.5,8.4c-0.7,3.5,3.6,8.7,6.5,10.4c1.2,0.7,3.3,0.6,5,1.3
					c1.7,0.8,3,2.5,4.4,3.1c2.7,1.2,4.8,0.1,8,0.2c6.4,0.3,12.4,2.7,18,2c6.2-0.8,9.8-4.5,13.2-7.7
					C154.4,1056.9,153.6,1055.3,152.6,1053.7z"/>
				<path class="st2" d="M353.4,91c-7.5,3.3-12.8,8.8-19.6,13.2c-2.2,1.4-4.2,3.5-6.3,4.6c-3.5,1.8-8.1,1.7-11.9,3.2
					c-6,2.4-7.6,9.6-11.4,14c-1.7-0.8-2.2-2.9-4-4c-1-0.6-2.7-0.6-4.1-1.3c-2.9-1.4-4.7-4.9-7.8-6.8c-9.8-6-28-4-33.9,3.5
					c-2.5,3.2-4.9,8.5-4.9,15.1c-26.4-2.8-46.5,6.2-50.6,29.3c-0.6,1.2-1.7-2-3.5-1.6c-1.9-3-4.5-3.3-9.7-4.2
					c-3.4-0.6-5.7-1.6-8.9-1.2c-4.5,0.7-7.9,3.8-10.8,5.4c-6,13.1,7.1,25.7,21,21.5c-1.9,4-0.8,5.3,1.5,8.4c1.9,2.5,3.9,5.4,7.8,5.9
					c7.9,1.1,15.6-3.6,16-11.8c0.9-0.3,1.9,1.9,3.2,3.1c2.5,2.3,5.2,4.7,10.2,4.8c-0.4,3.3-2.2,6.1-3.5,9.2c-1.3,3-1.6,6.6-3.2,9.5
					c-0.8,1.4-3.3,2.9-5.5,4.6c-2.1,1.7-3.7,3.7-5.2,4.6c-3.1,2-8.1,3.7-12,6.2c-5.7,3.8-9.4,9.7-17.1,7c1,1.6,3.1,2.1,5.6,2.3
					c-0.9,3-2.4,6.4-3.8,10.1c-1.2,3.2-2.3,7.4-4.1,9.7c-1.3,1.6-4.1,2.8-5.7,4.3c-4.7,4.3-10.5,9.6-13.2,16.4
					c-1.3,3.2-1.4,5.6-4.4,7.6c-1.5,1-4.4,2.1-6.9,3.4s-5.4,3.2-6.6,3.4c-3.4,0.4-8.9-1.7-12.7-2.5c-7.5-1.4-14.1-2-18.5-5.9
					c-1.1-0.9-1.7-2.4-2.6-3.4c-2.9-2.9-6.1-5.5-10.5-7.5c-1.6-5.7-1-12.1-2.2-17.7c-1.7,4.5-0.6,11.4,0.1,16.1
					c-6.2,0.9-7.9-4.8-11.6-7.8c-2.5-2-6-2.6-8.5-4.4c-2.4-1.8-7.1-8.3-8.6-11.3c-2-4-2.6-8.7-4.4-12.4c-0.3,2.3,0.4,6.6,2.2,7.5
					c0.3,7.1,5.8,11.7,8.7,17.3c6.7,2.3,12.1,6,15.1,11.8c6.4,1.5,12,3.8,16.1,7.3c2.1,1.8,2.7,3.8,4.6,5.5c7.2,6.8,18.8,6,31.7,8.7
					c2.3,0.5,4.3,2,7.7,1.7c-2.6,8.1-3.7,17.2-6.1,25.8c-0.7,2.7-2.2,5.3-2.6,8c-1.1,7.2-1.1,15.3-2.4,22.9c-0.4,2.5-1,6.5-2,8.9
					c-1.2,2.9-4.6,4.5-6.7,7c-3.6-1.4-6.8-2.7-10.3-3.9c-3.6-1.3-7.6-1.4-10.9-3c-5.3-2.6-8.6-7.9-13.9-10.3
					c-3.5-1.6-8.1-0.8-12.1-2.4c-1.1-0.5-1.8-1.9-3.2-2.8c-1.6-1.1-3.9-1.6-5.3-2.5c-1.4-1-1.9-2.3-3.2-3.1c0.2,3.8,5.3,5.4,8.1,7.7
					c-3.9,0-7.1-0.4-10.3-1.2c-3.2-0.8-5.2-2.4-7.9-3.8c-3.7-1.9-7.2-3.1-10.2-5.7c-2.9-2.5-4.8-5.6-8.1-7.7c1.9,2.4,3.7,5,6,7.3
					c3,3,7.1,4.3,10.8,6.6c1.6,1,2.9,2.8,4.6,3.7c8.4,4.2,20.6,1.4,29.5,5.6c5.2,2.5,10.5,8.5,15.1,10.6c2.9,1.3,6.2,1.4,9.1,2.4
					c5.8,1.9,10.8,4.3,15.2,7c-2.3,6.1-5.1,11.5-7.3,17.7c-4.3,0.4-8.9,1.2-13.3,0.5c2.5,2.4,7.1,1.7,11.2,1.5
					c1,0.7-1.3,2.9-1.9,3.8c-3.4,0.7-8.2-0.2-10.7,1.5c1.8,0.2,6.1,0.8,8.6,0.2c0.3,2-1.6,3.7-2.5,5.3c-7.2,12.2-13.7,28-20.7,41
					c-1.8,3.4-5,7.4-5.4,11.5c-0.1,1.6,0.6,2.9,0.8,4.5c0.3,4.1-1.1,8.5,0.3,12c-3.6,1.8-7.9,2.9-12,4.1c3.4,1.1,8.3-1.4,11.9-2
					c-1,4.5-3.8,7-6.5,9.7c-7.4,0.8-15.4,6.9-22.2,1.1c3.1,8.7,16.3,0.7,23.1,1.3c2.4-0.1,3.7-3.1,5.1-3.1c1,8.6,3.4,16.7,1.4,25.7
					c-0.8,3.4-3,6.6-4.7,10c-3.5,7-3.3,15.4-6.6,22.5c-0.8,1.7-1.8,3.1-2.5,4.7c-0.8,1.8-0.9,3.9-1.6,5.6c-0.8,1.8-2.3,3.2-3.1,5
					c-4.2,8.9-6.9,19.8-10,30.2c-1.3,4.3-2,8.5-3.9,12.1c-3.5,6.9-9.3,12.2-12.1,20c-1.4,3.8-3,7.6-4.5,11.5
					c-2.7,7.4-5.4,14-4.5,24.1c0.5,5.5,2.1,11,2.8,16.8c0.7,6.1,1.3,12.4,2.1,18.6c2.1,15.2,6.7,29.2,4.1,44.1
					c-1,5.5-2.1,11.7-4,17.5c-1.3,4-3.3,7.8-4.8,11.8c-1.3,3.7-2.8,7.7-3.6,11.6c-2.3,11.4,0.1,26.4,0,40.7c0,7.5-1.5,15.3,0.3,20.9
					c0.9,2.7,3.1,3.6,4,6.7c-1.3,2.3-3.9,2.5-5.5,4.6c-2.5,3.4-2.8,8.7-5.4,12.7c-0.6,0.9-1.8,1.4-2.4,2.3c-1.8,2.5-3.3,6.9-5.6,8.8
					c-3.1,2.7-8,2.6-12,4.4c-3.4,1.6-6.3,4.9-10.2,5.4c-7.1,0.8-10.9-4.6-15.9-4.6c4.6,2.3,8.1,5.7,14,6.7c1,1.1-2.9,2.2-3.4,3.8
					c2,0.2,4-2.3,5.4-3.7c4.3-1.2,7.6-4.3,11.1-6c4.7-2.1,8-2,11.1-4.2c3.2-2.3,4.2-5.8,6.8-9.4c2.8-4,6.4-7.3,9.8-11.7
					c0.9,1,3.4,0.6,4.4,1.6c0.8,4.9,1,9.8,1.4,15.3c0.4,5.3-0.8,11-0.2,16.4c0.7,5.8,5.8,10.9,6.4,16c-4,6.3-10.8,9.6-16.7,13.9
					c6.9-2.3,11.8-6.7,16.9-10.9c-1.1,4.6-1.4,7.8-2.4,12.8c-1.9,8.6-5.9,17.8-6.9,25.2c-0.7,5.5,0.6,11.4,3.5,13.9
					c-6.9,3-16.5,3.6-24.7,4.4c8.1,0.9,20.8-0.5,27.7-4c1.1,0.6,3.2,0.3,4.1,1c-2.6,1.7-6.3,2.3-9.3,3.6c4.2,0.9,7.8-1.5,11.3-2.4
					c3.5,5.9,5.6,13,9.6,18.5c-5.5,5.6-12.9,9.2-21.6,11.3c8.8-0.1,16.4-5.3,22.8-9.8c2.6,3.6,6.2,6,9.2,9.5
					c3.1,3.7,5.6,9.5,10,12.2c3.3,2.1,6.5,3,9.3,5.7c4.3,4,8.7,9.5,10.5,16.4c-8.8-0.6-18,3.2-25.3,6.1c3.6-0.8,9-2.2,14.3-3.5
					c4-0.9,12.7-3.3,13.3,2.2c-11.6,2.3-21.4,6.7-31.4,10.7c4.9-0.8,10.2-2.9,16.1-4.9c5.4-1.9,11.7-5.1,17.3-4.3
					c3.7,0.6,8.2,3.8,12,4.8c-3.2,2.8-7.5,4.6-11.2,7.7c-1,0.9-2,2.6-3.7,4.1c-1.5,1.3-3.4,2.4-3.7,3.8c-0.9,4.7,4,10.2,7.7,12.2
					c1.6,0.8,3.8,0.8,5.6,1.7c2.3,1.1,3.5,3.4,5.5,3.7c2.2,0.4,5-0.6,7.7-0.4c6,0.5,10.9,2.7,17.7,2c2.2-0.2,5.2-1.4,7.2-2.5
					c2.1-1.1,4.6-4.5,6.3-4.6c3.5-0.3,8.8,5.2,12,6c9.8,2.6,17,7.6,25.7,11.2c6.4,2.6,12.3,6.1,16.9,9.5c-3.3-1.3-7-0.1-10.4,0
					c-15.6,0.3-32.7-0.8-48.3,0.4c-7,0.6-14,2-21.1,2.4c-14.7,0.8-29.4,0-44.5,1.1c-1.2,0-1.2,0-0.9-0.9c-6.3,2.1-13,0-19.5-0.6
					c-2.2-0.2-4.4,0.6-6.5,0.7c-3.5,0.2-7.1-0.7-10.6-0.6c-5.2,0.2-10.4,1.6-15.4,1c-13.4-1.4-25.9-5.5-39.5-6.5
					c-3.2-0.2-6.5,0.1-9.5-0.6c-4.1-1-37.5,11.2-42,10.6c-0.2,0-0.4,0-0.6-0.1c16.9-339.1,9.4-769.2,20.3-1109.6
					c100.7,3,387.7,2.8,456.8,7.3C432.5-7,351.5,90.3,353.4,91z"/>
				
					<radialGradient id="SVGID_3_" cx="1905.1678" cy="632.5966" r="777.1212" gradientTransform="matrix(-0.9996 2.844826e-02 -2.871623e-02 -1.009 2265.3379 1065.4326)" gradientUnits="userSpaceOnUse">
					<stop  offset="0" style="stop-color:#67CDF5;stop-opacity:0.7"/>
					<stop  offset="1" style="stop-color:#2F3A30"/>
				</radialGradient>
				<path class="st3" d="M127.1,366.3c-3.6-1.4-6.8-2.7-10.3-3.9c-3.6-1.3-7.6-1.4-10.9-3c-3.2-1.6-5.8-4.2-8.4-6.5
					c22.2,11.8,22.7-12.7,23.3-32.6c0.6-22.1-11-27.9-21.4-45c0.1,0,0.2,0.1,0.3,0.1c1.1,0.7,2.2,1.5,3.2,2.3
					c2.1,1.8,2.7,3.8,4.6,5.5c7.2,6.8,18.8,6,31.7,8.7c2.3,0.5,4.3,2,7.7,1.7c-2.6,8.1-3.7,17.2-6.1,25.8c-0.7,2.7-2.2,5.3-2.6,8
					c-1.1,7.2-1.1,15.3-2.4,22.9c-0.4,2.5-1,6.5-2,8.9C132.6,362.2,129.2,363.9,127.1,366.3z M122.9,388.6c2.2-6.2,5-11.6,7.3-17.7
					c-4.4-2.7-9.4-5.2-15.2-7c-2.9-0.9-6.2-1.1-9.1-2.3c2.1,2.4,3.6,5,3.7,7.6c0.3,9.1-15.2,27.2-21,33.7c-6,6.7-11.6,12.3-13.8,21
					c-1.7,6.6,1.7,14.5-3.8,20c-9.4,9.4-32.9,1.8-44.3,2.2c6.5,5.9,18.4,5.3,23.2,11.1c-7.5,0.7-15.1,1-22.6,1
					c6.6,9.7,22.7,7.4,28.3,15c4.5,6.2-1.8,18.1-0.9,25.1c0.7,5.1,4.3,8.7,4.5,14.2c0.3,6.3-3.1,12.7-3.9,18.9
					c-1.7,13.6,0.3,26.5-2.5,39.6c-2.3,10.7-1.6,22.4-5.1,32.4c-2,5.8-6.6,11.1-9.4,16.3c-2.8,5.2-5.8,12.4-10,17.2
					c-7.6,8.7-14,7.6-17.5,20.7c-5.7,21.1-6.1,43.3-4,64.3c2.3,23.7-13.5,38.1,17,26.2c-2.5,6.8-8.1,13.4-13.7,18.5
					c6.2-1,11.3-5.6,15.9-10.1c-5.2,14-14.9,25.2-25.6,35.3c11.1,14.4,1.7,41.3,2.8,57.9c2-0.4,5.5,0.7,7,0.5
					c-2.8,5.3-11,11.6-7.3,17.5c9.4-2.5,17.8-11.1,24.3-18c-0.7,5-1.9,9-3.5,12.6c0.2-0.2,0.3-0.5,0.5-0.7c0.6-0.9,1.9-1.4,2.4-2.3
					c2.6-4,2.8-9.3,5.4-12.7c1.6-2.1,4.2-2.4,5.5-4.6c-0.8-3.1-3.1-4-4-6.7c-1.8-5.7-0.3-13.5-0.3-20.9c0-14.3-2.4-29.2,0-40.7
					c0.8-3.9,2.2-7.9,3.6-11.6c1.5-4,3.5-7.8,4.8-11.8c1.9-5.9,3.1-12.1,4-17.5c2.6-14.9-2-28.9-4.1-44.1
					c-0.9-6.2-1.4-12.5-2.1-18.6c-0.7-5.8-2.3-11.4-2.8-16.8c-0.9-10.1,1.8-16.6,4.5-24.1c1.4-3.9,3.1-7.8,4.5-11.5
					c2.9-7.8,8.6-13.1,12.1-20c1.9-3.6,2.6-7.9,3.9-12.1c3.1-10.4,5.8-21.4,10-30.2c0.8-1.8,2.3-3.2,3.1-5c0.7-1.7,0.8-3.8,1.6-5.6
					c0.7-1.6,1.7-3,2.5-4.7c3.2-7.1,3.1-15.5,6.6-22.5c1.7-3.4,4-6.6,4.7-10c2.1-9.1-0.4-17.2-1.4-25.7c-1.5,0.1-2.7,3-5.1,3.1
					c-6.7-0.6-20,7.5-23.1-1.3c6.8,5.8,14.8-0.4,22.2-1.1c2.7-2.7,5.5-5.2,6.5-9.7c-3.6,0.7-8.5,3.2-11.9,2c4.1-1.3,8.4-2.3,12-4.1
					c-1.4-3.4,0.1-7.8-0.3-12c-0.1-1.6-0.9-2.9-0.8-4.5c0.3-4.1,3.5-8.1,5.4-11.5c7-13,13.5-28.7,20.7-41c0.9-1.6,2.8-3.3,2.5-5.3
					c-2.5,0.6-6.8,0-8.6-0.2c2.5-1.7,7.3-0.8,10.7-1.5c0.6-0.9,2.9-3.2,1.9-3.8c-4.1,0.2-8.7,0.9-11.2-1.5
					C114.1,389.8,118.6,389,122.9,388.6z M225.9,192.2c-5-0.1-7.7-2.5-10.2-4.8c-1.3-1.2-2.3-3.4-3.2-3.1
					c-0.3,6.6-5.4,10.9-11.5,11.8c-6.2,9.3-18.8,15.2-25.3,25c-5.1,7.7-2.9,11.5-14,11.2c-12.5-0.4-22.6-13.9-31.9-21.1
					c4.1,11.6,13.1,20.9,20.7,30.1c-14.6,1.2-27.4-14.7-37.4-23.4c7,9.5,18.5,25.3,22.9,36.2c1.8,4.4,5.2,17.3,5,22
					c-8.2,4-11.4,5.7-20.3,5c-6.3-0.5-10.8-2.7-16.4-4.5c0.8,0.7,1.5,1.4,2.2,2.1c0.9,0.9,1.5,2.4,2.6,3.4c4.4,3.9,11,4.5,18.5,5.9
					c3.8,0.7,9.3,2.9,12.7,2.5c1.2-0.2,4.1-2.1,6.6-3.4c2.6-1.3,5.4-2.4,6.9-3.4c2.9-2,3.1-4.5,4.4-7.6c2.7-6.8,8.5-12,13.2-16.4
					c1.6-1.5,4.4-2.7,5.7-4.3c1.8-2.3,2.9-6.6,4.1-9.7c1.4-3.6,3-7.1,3.8-10.1c-2.5-0.2-4.6-0.7-5.6-2.3c7.6,2.7,11.4-3.2,17.1-7
					c3.9-2.6,8.9-4.2,12-6.2c1.5-1,3.1-3,5.2-4.6c2.1-1.7,4.7-3.2,5.5-4.6c1.6-2.9,1.9-6.5,3.2-9.5
					C223.7,198.3,225.5,195.5,225.9,192.2z M98.3,1048.6c0.3-1.4,2.2-2.5,3.7-3.8c1.6-1.4,2.6-3.2,3.7-4.1c3.7-3.1,8-4.9,11.2-7.7
					c-3.8-1-8.3-4.3-12-4.8c-5.6-0.9-11.9,2.4-17.3,4.3c-5.9,2.1-11.2,4.1-16.1,4.9c10-4,19.8-8.4,31.4-10.7
					c-0.6-5.5-9.2-3.1-13.3-2.2c-5.3,1.2-10.7,2.7-14.3,3.5c7.3-3,16.6-6.8,25.3-6.1c-1.8-6.9-6.2-12.4-10.5-16.4
					c-2.8-2.6-6-3.6-9.3-5.7c-4.4-2.8-6.9-8.5-10-12.2c-3-3.6-6.6-5.9-9.2-9.5c-6.4,4.6-14,9.7-22.8,9.8c8.7-2.1,16.1-5.7,21.6-11.3
					c-3.9-5.5-6.1-12.6-9.6-18.5c-3.5,0.8-7.1,3.3-11.3,2.4c3-1.3,6.7-1.9,9.3-3.6c-0.9-0.7-3-0.4-4.1-1c-4.9,2.5-12.9,3.9-20,4.2
					c-5.7,9.9-15,17.1-18.3,28.2c8.3,1.7,16.6,1.5,24.9,2.4c-1.3,1.2-2.4,4.2-3.5,5.4c7.8,5.4,17.5,1.6,26,4.9
					c-2.8,9-14.1,16.9-21.6,22.1c9.9,4.9,26.8,3.7,34,11.8c4.8,5.4,3.3,14,10.2,18.5c8.6,5.8,15.2,1.8,22.1-1.7
					C98.2,1050.7,98.1,1049.6,98.3,1048.6z M343.9,87.4c-5.4,6.1-30.6,13-36.7,17.2c-6.3,4.3-14.1,4-20.3,8.4
					c-0.1,0.1-0.1,0.1-0.2,0.2c0.5,0.3,1,0.5,1.5,0.8c3.1,1.9,4.9,5.4,7.8,6.8c1.4,0.7,3.1,0.7,4.1,1.3c1.8,1.1,2.3,3.2,4,4
					c3.8-4.5,5.3-11.6,11.4-14c3.8-1.5,8.4-1.4,11.9-3.2c2.1-1.1,4.2-3.2,6.3-4.6c7.7-4.9,11.8-8.3,19.6-13.2
					c8-8.1,58.6-80.4,58.2-79.7C404.8,21.4,371.5,62,343.9,87.4z M183.8,1073.2c-4.9-2.5-9.9-4.9-15.8-6.5c-3.2-0.9-8.4-6.3-12-6
					c-1.8,0.1-4.2,3.5-6.3,4.6c-0.4,0.2-0.8,0.4-1.3,0.6c4.3,1.7,8.7,3.2,12.7,4.5C168.3,1072.6,176.1,1072.8,183.8,1073.2z
					 M27.4,923.8c-2.5,13.3-10.5,26-15.4,38.4c5.9-5.2,11.8-11.4,17-17.4c-0.3,5.4-1.8,9.9-3.9,14c5.9-0.6,11.9-1.5,16.6-3.6
					c-2.9-2.5-4.2-8.3-3.5-13.9c1-7.4,5.1-16.6,6.9-25.2c1.1-5,1.3-8.2,2.4-12.8c-5.1,4.2-10,8.6-16.9,10.9
					c5.9-4.3,12.7-7.6,16.7-13.9c-0.6-5.2-5.7-10.2-6.4-16c-0.6-5.4,0.5-11.1,0.2-16.4c-0.4-5.4-0.6-10.4-1.4-15.3
					c-1-1-3.5-0.6-4.4-1.6c-3.5,4.4-7,7.7-9.8,11.7c-2.6,3.6-3.6,7.1-6.8,9.4c-0.5,0.3-0.9,0.6-1.4,0.8c-3.5,5.1-7.4,10.2-10.6,17.5
					c-6.5,14.6,0.5,32.1-6.1,47.3C10.9,937.3,18.5,927.7,27.4,923.8z M297.4,143.5c1.5-2.2,6.1-5.9,6.8-8.5c0.9-3.7-1.9-8.4-3.3-9.7
					c-1.6-1.4-4.3-1.5-6.1-2.6c-0.9-0.5-1.7-1.2-2.5-2c-10.4,7.5-20.1,19.3-13.3,28c1,2.2,5.4,3.8,10.2,5.2c0.7-0.4,1.4-0.9,2-1.4
					C293.9,150.2,295.3,146.6,297.4,143.5z M264.7,170.3c2-3.2,4-5.6,4.4-8.8c0.7-6-2-8.6-3.8-12.4c-1.2-2.4-1.7-5.2-3.1-7
					c-2.3-2.9-9.7-8.5-18.5-8.2c-12.1,12.3-20.6,33.2-13.2,46c4.6,5.9,12.4,6,20.3,3.5c0.6-0.4,1.2-0.8,1.9-1.2
					C258.1,178.7,261.3,175.6,264.7,170.3z M197.3,174c0.6-2.4,1.4-4.5,2.3-6.5c-1.2-1.3-2.7-2.2-2.8-4.6c-2.6-3.3-9.6-6.4-16.3-6.7
					c-3.6,4.5-4.9,10.6-3.9,15.2c2.2,3.5,6.7,7.1,11.5,8.1C195,177.6,196.2,174.3,197.3,174z M201.5,189.4c1,1.7,2.6,2.6,4.5,3.3
					c3.4-2.1,5.1-6.3,4.8-11.6c-2-2.1-4-4.3-6-6.5C199.7,178.8,196.9,185.7,201.5,189.4z M152.6,1053.7c-1.1-1.7-1.5-3.4-2.5-5.2
					c-1.6-2.8-4.9-4.8-8.1-7.1c-2.9-2.1-6.1-5.4-9-6.5c-4.9-2-10.1,1-14.5-0.7c-3.7,1.7-6.5,3.7-10,6.6c-1.9,1.6-8.1,6-8.5,8.4
					c-0.7,3.5,3.6,8.7,6.5,10.4c1.2,0.7,3.3,0.6,5,1.3c1.7,0.8,3,2.5,4.4,3.1c2.7,1.2,4.8,0.1,8,0.2c6.4,0.3,12.4,2.7,18,2
					c6.2-0.8,9.8-4.5,13.2-7.7C154.4,1056.9,153.6,1055.3,152.6,1053.7z"/>
			</g>
		</g>
		<g>
			<defs>
				<rect id="SVGID_4_" y="1" width="1921" height="1080"/>
			</defs>
			<clipPath id="SVGID_5_">
				<use xlink:href="#SVGID_4_"  style="overflow:visible;"/>
			</clipPath>
			<g class="st4">
				<path class="st1" d="M1928.6-6c-1.8,0-279,7.7-279.8,7.3c-1.7-0.7-56.1-1.4-57.8-0.6c0.7,3.8,49.8,97.3,52.5,97.4
					c5.1,3.8,9.1,9,14.1,13.2c1.5,1.3,3,3.2,4.6,4.3c2.7,1.9,6.2,1.9,9.2,3.5c4.6,2.5,5.5,10.1,8.8,14.3c-0.7,2.2-1.5,4.3-1,7.5
					c0.4,2.3,2.3,3.3,3.7,5.5c2.5,3.9,2.1,5.1,5.3,8.4c3.8,4,11.1,5.6,16.6,4c-0.8,7,2.1,13.6,4.2,17.6c6,11.4,15.4,20.8,29.4,20.1
					c-0.6,4.9,1.3,8.3,2.7,13c0.9,3,1.3,6.5,2.2,8.3c0.9,1.9,3.3,3.2,5,5.2c5.7,6.5,14.9,9.9,20,17.8c3.5,5.4,3.2,13.9,6.7,21.3
					c6.5,5.7,12.3,12.4,14.8,23.9c2.1,5,6.9,6.2,10.5,9.2c-1.2,0.8-2.9,1-3.5,2.5c1.9,6,2.8,13.4,4,20.8c0.7,4.4,2,8.4,2.7,12.5
					c0.7,3.9,0.6,8.2,0.9,12.2c0.6,8,1.3,15.2,2.5,22.3c1.8,2.2,3.6,4.5,5.3,7c-4.9,2.2-0.4,9.5,1.2,14.6c1.4,4.5,2.5,7.6,4,10.6
					c4.5,8.8,8.4,18,12.5,30c2.6,7.7,5.3,15.8,8.5,23.9c1.1,2.8,2.7,5.5,2.8,7.7c0.1,1.2-0.5,2.7-0.6,4.2c-0.2,2.9,0.3,6.3,0.2,9
					c-0.2,4.3-0.9,7.9,1.3,10.4c-2,10.3-4,22.3-1.1,32.9c0.8,2.8,2.3,4.8,3.5,7.9c1.5,3.9,1.6,8.9,2.5,13.7c0.8,4.3,2.5,8,3.6,11.8
					c0.6,1.9,0.6,4.1,1.2,5.9c0.9,2.7,2.3,5,3.1,7.7c2.5,8,4.2,17.2,6.4,26.4c1.4,6.1,2.2,12,4.6,17.2c2.1,4.5,5.3,8.3,7.2,13.5
					c1.5,4,2.3,9,3.6,13.6c1.3,4.6,3.2,9.6,3.6,13.6c0.7,5.6,0.1,12.3-0.7,18.3c-1.6,11.5-2.7,23-3.7,34.8
					c-0.9,10.9-3.8,23-2.4,35.1c0.7,5.6,1.5,11.1,2.6,16.3c2.1,10.6,6.4,19.5,7.3,31.1c0.4,4.5-0.2,10.3-0.4,15
					c-0.2,6.1-0.2,14.2-0.2,20c-0.1,7.8,1.1,15.7-0.2,21.2c-0.7,2.7-3.2,4.3-3.2,7.9c0.1,2.6,1.8,3.7,2.1,6.5
					c-1.4,1.6-3.3,1.6-3.9,3.7c-0.5,1.9-0.4,5.3-0.5,7.8c-0.1,2.6-0.2,5.4-0.3,7.8c-0.3,5.3,0.7,11.6-0.1,16.4
					c-0.2,1.5-0.9,3.1-1.5,4.8c-0.5,1.7-0.9,3.5-1.2,4.8c-0.6,2.2-2.4,5-2.5,6.4c-0.3,3.9,1.6,9.2,2.3,13.4
					c0.8,4.8,1.5,9.5,2.3,13.4c1.7,8.6,4.9,17,1.4,25.7c-7.2-0.4-9.1,6.7-11.3,13.3c-1.3,3.8-2.7,7.5-4.2,10.3
					c-4.3,7.7-9.8,12.4-12.7,19.9c-9.3,5.2-15,14.9-18.1,27.9c-3,3.4-7.9,4.3-11.2,7.3c-3.1,0.4-6.2-0.7-8.7,0
					c-2.4,0.7-5,3.3-7.2,5.4c-5.5,5.3-10.5,12.4-12.9,21.1c-6,4.8-12.7,8.1-18.9,13c-6.1,4.8-13.4,6.8-18.5,13.3
					c-1.9,1-4,1.8-4.4,4.7c19-1.3,39.9,0.3,60.3,2.2c14.2,1.3,28.9,0.6,41.1,1.7c3,0.3,6,0.7,9.4-0.1c0.9-0.2,2.1-0.9,3.1-1
					c1.5-0.2,3.3,0.4,4.9,0.4c7.3-0.1,15.8,0.9,23.2-0.9c1.6-0.4,3.1-0.6,4.7-1.1c1.4-0.4,2.7-1.2,4.2-1.7
					c8.6-2.4,19.1-0.6,27.3-5.8c5.2-2.7,12.2,0.3,18.7-0.4c0.2-1.6,0.7-2.9,0.6-5.1C1949.3,1080.3,1930.2,20.8,1928.6-6z"/>
				<path class="st2" d="M1942.9,77.7c-0.2,0-1.5,0-3.7,0.1c2.1,86.5,3.2,173,4,259.5C1942.9,193.7,1942.8,84.9,1942.9,77.7z"/>
				<path class="st2" d="M1943.2,337.3c-0.8-86.5-1.9-173-4-259.5c-33.6,1.1-284.4,12.8-295.1,18c5.6,3.3,9.6,8.8,14.8,13.2
					c1.6,1.4,3.2,3.5,4.8,4.6c2.7,1.8,6.1,1.7,9,3.2c4.5,2.4,5.7,9.6,8.5,14c1.3-0.8,1.7-2.9,3-4c0.7-0.6,2.1-0.6,3.1-1.3
					c2.2-1.4,3.5-4.9,5.9-6.8c7.4-6,21.1-4,25.5,3.5c1.9,3.2,3.7,8.5,3.7,15.1c19.9-2.8,35,6.2,38.1,29.3c0.5,1.2,1.3-2,2.6-1.6
					c1.5-3,3.4-3.3,7.3-4.2c2.6-0.6,4.3-1.6,6.7-1.2c3.4,0.7,5.9,3.8,8.1,5.4c4.5,13.1-5.3,25.7-15.8,21.5c1.4,4,0.6,5.3-1.2,8.4
					c-1.4,2.5-2.9,5.4-5.9,5.9c-5.9,1.1-11.7-3.6-12.1-11.8c-0.7-0.3-1.4,1.9-2.4,3.1c-1.9,2.3-3.9,4.7-7.7,4.8
					c0.3,3.3,1.6,6.1,2.6,9.2c1,3,1.2,6.6,2.4,9.5c0.6,1.4,2.5,2.9,4.1,4.6c1.6,1.7,2.8,3.7,3.9,4.6c2.4,2,6.1,3.7,9.1,6.2
					c4.3,3.8,7.1,9.7,12.9,7c-0.8,1.6-2.3,2.1-4.2,2.3c0.7,3,1.8,6.4,2.9,10.1c0.9,3.2,1.7,7.4,3.1,9.7c1,1.6,3.1,2.8,4.3,4.3
					c3.5,4.3,7.9,9.6,9.9,16.4c0.9,3.2,1.1,5.6,3.3,7.6c1.1,1,3.3,2.1,5.2,3.4c1.9,1.3,4.1,3.2,5,3.4c2.5,0.4,6.7-1.7,9.5-2.5
					c5.6-1.4,10.6-2,13.9-5.9c0.8-0.9,1.3-2.4,1.9-3.4c2.2-2.9,4.6-5.5,7.9-7.5c1.2-5.7,0.8-12.1,1.6-17.7
					c1.3,4.5,0.4,11.4-0.1,16.1c4.6,0.9,5.9-4.8,8.8-7.8c1.9-2,4.5-2.6,6.4-4.4c1.8-1.8,5.3-8.3,6.5-11.3c1.5-4,1.9-8.7,3.3-12.4
					c0.2,2.3-0.3,6.6-1.6,7.5c-0.2,7.1-4.4,11.7-6.5,17.3c-5.1,2.3-9.1,6-11.3,11.8c-4.8,1.5-9,3.8-12.1,7.3
					c-1.5,1.8-2.1,3.8-3.5,5.5c-5.4,6.8-14.2,6-23.9,8.7c-1.8,0.5-3.3,2-5.8,1.7c2,8.1,2.8,17.2,4.6,25.8c0.6,2.7,1.6,5.3,2,8
					c0.8,7.2,0.8,15.3,1.8,22.9c0.3,2.5,0.8,6.5,1.5,8.9c0.9,2.9,3.5,4.5,5.1,7c2.7-1.4,5.2-2.7,7.7-3.9c2.7-1.3,5.7-1.4,8.2-3
					c4-2.6,6.5-7.9,10.5-10.3c2.7-1.6,6.1-0.8,9.1-2.4c0.8-0.5,1.4-1.9,2.4-2.8c1.2-1.1,2.9-1.6,4-2.5c1-1,1.4-2.3,2.4-3.1
					c-0.1,3.8-4,5.4-6.1,7.7c2.9,0,5.4-0.4,7.8-1.2c2.4-0.8,3.9-2.4,5.9-3.8c2.8-1.9,5.4-3.1,7.7-5.7c2.2-2.5,3.6-5.6,6.1-7.7
					c-1.5,2.4-2.8,5-4.5,7.3c-2.3,3-5.3,4.3-8.1,6.6c-1.2,1-2.2,2.8-3.5,3.7c-6.3,4.2-15.5,1.4-22.2,5.6c-3.9,2.5-7.9,8.5-11.4,10.6
					c-2.2,1.3-4.7,1.4-6.9,2.4c-4.4,1.9-8.1,4.3-11.4,7c1.7,6.1,3.9,11.5,5.5,17.7c3.2,0.4,6.7,1.2,10,0.5c-1.9,2.4-5.4,1.7-8.4,1.5
					c-0.8,0.7,0.9,2.9,1.4,3.8c2.5,0.7,6.2-0.2,8.1,1.5c-1.3,0.2-4.6,0.8-6.5,0.2c-0.2,2,1.2,3.7,1.9,5.3c5.4,12.2,10.3,28,15.6,41
					c1.4,3.4,3.8,7.4,4,11.5c0.1,1.6-0.5,2.9-0.6,4.5c-0.3,4.1,0.8,8.5-0.2,12c2.7,1.8,5.9,2.9,9,4.1c-2.6,1.1-6.2-1.4-9-2
					c0.7,4.5,2.9,7,4.9,9.7c5.6,0.8,11.6,6.9,16.7,1.1c-2.3,8.7-12.3,0.7-17.4,1.3c-1.8-0.1-2.8-3.1-3.9-3.1
					c-0.7,8.6-2.6,16.7-1,25.7c0.6,3.4,2.3,6.6,3.6,10c2.6,7,2.5,15.4,4.9,22.5c0.6,1.7,1.4,3.1,1.9,4.7c0.6,1.8,0.7,3.9,1.2,5.6
					c0.6,1.8,1.7,3.2,2.3,5c3.2,8.9,5.2,19.8,7.5,30.2c1,4.3,1.5,8.5,2.9,12.1c2.7,6.9,7,12.2,9.1,20c1,3.8,2.3,7.6,3.4,11.5
					c2.1,7.4,4.1,14,3.4,24.1c-0.4,5.5-1.6,11-2.1,16.8c-0.5,6.1-1,12.4-1.6,18.6c-1.6,15.2-5.1,29.2-3.1,44.1
					c0.7,5.5,1.6,11.7,3,17.5c1,4,2.5,7.8,3.6,11.8c1,3.7,2.1,7.7,2.7,11.6c1.8,11.4,0,26.4,0,40.7c0,7.5,1.2,15.3-0.2,20.9
					c-0.7,2.7-2.3,3.6-3,6.7c1,2.3,2.9,2.5,4.1,4.6c1.9,3.4,2.1,8.7,4.1,12.7c0.4,0.9,1.4,1.4,1.8,2.3c1.4,2.5,2.5,6.9,4.2,8.8
					c2.4,2.7,6,2.6,9,4.4c2.6,1.6,4.7,4.9,7.7,5.4c5.3,0.8,8.2-4.6,11.9-4.6c-3.5,2.3-6.1,5.7-10.6,6.7c-0.7,1.1,2.2,2.2,2.5,3.8
					c-1.5,0.2-3-2.3-4.1-3.7c-3.2-1.2-5.8-4.3-8.4-6c-3.5-2.1-6-2-8.3-4.2c-2.4-2.3-3.2-5.8-5.1-9.4c-2.1-4-4.8-7.3-7.4-11.7
					c-0.7,1-2.6,0.6-3.3,1.6c-0.6,4.9-0.7,9.8-1,15.3c-0.3,5.3,0.6,11,0.1,16.4c-0.5,5.8-4.3,10.9-4.8,16c3,6.3,8.1,9.6,12.6,13.9
					c-5.2-2.3-8.9-6.7-12.7-10.9c0.8,4.6,1,7.8,1.8,12.8c1.4,8.6,4.5,17.8,5.2,25.2c0.6,5.5-0.5,11.4-2.6,13.9
					c5.2,3,12.4,3.6,18.6,4.4c-6.1,0.9-15.7-0.5-20.8-4c-0.8,0.6-2.4,0.3-3.1,1c2,1.7,4.7,2.3,7,3.6c-3.2,0.9-5.9-1.5-8.5-2.4
					c-2.6,5.9-4.2,13-7.2,18.5c4.2,5.6,9.7,9.2,16.3,11.3c-6.6-0.1-12.4-5.3-17.2-9.8c-2,3.6-4.7,6-6.9,9.5
					c-2.3,3.7-4.2,9.5-7.5,12.2c-2.5,2.1-4.9,3-7,5.7c-3.2,4-6.5,9.5-7.9,16.4c6.6-0.6,13.6,3.2,19.1,6.1c-2.7-0.8-6.8-2.2-10.8-3.5
					c-3-0.9-9.5-3.3-10,2.2c8.8,2.3,16.1,6.7,23.6,10.7c-3.7-0.8-7.7-2.9-12.1-4.9c-4.1-1.9-8.8-5.1-13-4.3c-2.8,0.6-6.2,3.8-9,4.8
					c2.4,2.8,5.7,4.6,8.4,7.7c0.8,0.9,1.5,2.6,2.8,4.1c1.1,1.3,2.5,2.4,2.8,3.8c0.7,4.7-3,10.2-5.8,12.2c-1.2,0.8-2.9,0.8-4.2,1.7
					c-1.7,1.1-2.6,3.4-4.2,3.7c-1.6,0.4-3.8-0.6-5.8-0.4c-4.5,0.5-8.2,2.7-13.3,2c-1.7-0.2-3.9-1.4-5.4-2.5
					c-1.6-1.1-3.5-4.5-4.8-4.6c-2.7-0.3-6.6,5.2-9,6c-7.3,2.6-12.8,7.6-19.4,11.2c-4.8,2.6-9.2,6.1-12.7,9.5c2.5-1.3,5.2-0.1,7.8,0
					c11.7,0.3,24.6-0.8,36.4,0.4c5.3,0.6,10.6,2,15.9,2.4c11.1,0.8,22.2,0,33.5,1.1c0.9,0,0.9,0,0.6-0.9c4.7,2.1,9.8,0,14.7-0.6
					c1.6-0.2,3.3,0.6,4.9,0.7c2.7,0.2,5.4-0.7,8-0.6c3.9,0.2,7.8,1.6,11.6,1c10.1-1.4,19.5-5.5,29.7-6.5c2.4-0.2,4.9,0.1,7.1-0.6
					c3.1-1,5.9-3.6,9.3-4.2c4.9-0.9,9.2,2.3,14.1,0.7c0.5-2,0.5-4.8-0.4-6.3C1945,1069.5,1943.8,630.9,1943.2,337.3z"/>
				<path class="st1" d="M1788.8,199.9c-4.4-0.8-12.3,4.2-12.9,10.4c-0.3,3,0,10.9,0.5,12.5c2.1,7.6,15.9,8.1,20.1,1.6
					c2.4-3.6,5-12.8,1.9-17.7c-0.6-1-3.1-3.6-4.1-4.3C1792.8,201.2,1790.6,200.2,1788.8,199.9z"/>
				<path class="st2" d="M1794.7,223.9c-4.6,5.5-12.4,4-17-0.8c-0.6-3.9,0.4-8.8-0.3-12.8c2-6.2,8.9-10.9,14.6-7.1
					c0.3,0.8-1.2,0.8-0.4,1.2C1801.2,204.7,1799.2,218.5,1794.7,223.9z"/>
				<path class="st2" d="M1706.3,157c-3.8,1-11.7,1-15.1-3c-2-2.4-3.4-2.7-4.9-5.8c-1.1-2.2-4.6-5.9-5.1-8.5
					c-0.7-3.7,1.5-8.4,2.5-9.7c1.2-1.4,3.2-1.5,4.6-2.6c2.2-1.7,3.7-5,5.9-6.8c6.9-5.7,16.7-3.3,22.8,3c1.3,4.2,4.1,8.8,3.2,14.2
					C1711.6,140.8,1710.3,148.3,1706.3,157z"/>
				<path class="st2" d="M1731.1,138.7c3.2,0.3,7,1.7,9.9,2.9c6.5,2.8,9.3,5.7,13.2,12c3.5,5.7,6.4,12.5,4.2,19.9
					c-0.8,2.5-3.9,5.2-5.6,7.7c-3.3,4.9-5.9,12.7-11.5,13.3c-2.1,0.2-5-0.8-7.6-1.2c-6.7-1-9.3-2.5-13.7-6.3
					c-4-3.5-6.4-6.6-8.9-11.9c-1.5-3.2-3-5.6-3.3-8.8c-0.5-6,1.5-8.6,2.9-12.4c0.9-2.4,1.3-5.2,2.3-7c1.7-2.9,4.3-4,5.9-5.6
					c0.9-0.7,0.8,0.3,1.8,0.2C1722.5,138.6,1728,138.5,1731.1,138.7z"/>
				<path class="st2" d="M1762.1,167.7c2.3-3.9,9.2-7.4,14.8-6.5c3.2,0.5,7.2,4.2,7.9,6.3c2.4,6.8-2.3,15.2-6.8,17.6
					c-5.2,2.8-10.5-1.1-14.8-4.2c-0.5-0.7-0.8-1.8-1.6-2c-0.4-2.4-1-4.5-1.7-6.5C1760.8,171,1762,170.1,1762.1,167.7z"/>
				<path class="st2" d="M1760.5,179.7c2.2,4.7,9.7,4.4,8.3,11.9c-0.2,1.1-2.9,5.6-3.4,6.1c-2.7,2.5-6.6,1.7-9.1,0.4
					c-3.2-1.7-5-6.3-4.7-12.4c2.6-3.6,5-7.5,7.8-10.8C1760,176.8,1759.9,178.4,1760.5,179.7z"/>
				<path class="st2" d="M1887.2,858.5c-0.9-1.9-2-3.5-3.2-5c0-1.4-0.5-2.1-0.7-3.3C1885.6,851.2,1887,856.6,1887.2,858.5z"/>
				<path class="st2" d="M1795.3,1058.5c0.8-1.7,1.1-3.4,1.9-5.2c1.2-2.8,3.7-4.8,6.1-7.1c2.2-2.1,4.6-5.4,6.8-6.5
					c3.7-2,7.6,1,10.9-0.7c2.8,1.7,4.9,3.7,7.5,6.6c1.4,1.6,6.1,6,6.4,8.4c0.5,3.5-2.7,8.7-4.9,10.4c-0.9,0.7-2.5,0.6-3.8,1.3
					c-1.3,0.8-2.3,2.5-3.3,3.1c-2,1.2-3.6,0.1-6,0.2c-4.9,0.3-9.4,2.7-13.6,2c-4.7-0.8-7.4-4.5-10-7.7
					C1794,1061.7,1794.6,1060,1795.3,1058.5z"/>
				<path class="st2" d="M1644.2,95.7c5.6,3.3,9.6,8.8,14.8,13.2c1.6,1.4,3.2,3.5,4.8,4.6c2.7,1.8,6.1,1.7,9,3.2
					c4.5,2.4,5.7,9.6,8.5,14c1.3-0.8,1.7-2.9,3-4c0.7-0.6,2.1-0.6,3.1-1.3c2.2-1.4,3.5-4.9,5.9-6.8c7.4-6,21.1-4,25.5,3.5
					c1.9,3.2,3.7,8.5,3.7,15.1c19.9-2.8,35,6.2,38.1,29.3c0.5,1.2,1.3-2,2.6-1.6c1.5-3,3.4-3.3,7.3-4.2c2.6-0.6,4.3-1.6,6.7-1.2
					c3.4,0.7,5.9,3.8,8.1,5.4c4.5,13.1-5.3,25.7-15.8,21.5c1.4,4,0.6,5.3-1.2,8.4c-1.4,2.5-2.9,5.4-5.9,5.9
					c-5.9,1.1-11.7-3.6-12.1-11.8c-0.7-0.3-1.4,1.9-2.4,3.1c-1.9,2.3-3.9,4.7-7.7,4.8c0.3,3.3,1.6,6.1,2.6,9.2c1,3,1.2,6.6,2.4,9.5
					c0.6,1.4,2.5,2.9,4.1,4.6c1.6,1.7,2.8,3.7,3.9,4.6c2.4,2,6.1,3.7,9.1,6.2c4.3,3.8,7.1,9.7,12.9,7c-0.8,1.6-2.3,2.1-4.2,2.3
					c0.7,3,1.8,6.4,2.9,10.1c0.9,3.2,1.7,7.4,3.1,9.7c1,1.6,3.1,2.8,4.3,4.3c3.5,4.3,7.9,9.6,9.9,16.4c0.9,3.2,1.1,5.6,3.3,7.6
					c1.1,1,3.3,2.1,5.2,3.4c1.9,1.3,4.1,3.2,5,3.4c2.5,0.4,6.7-1.7,9.5-2.5c5.6-1.4,10.6-2,13.9-5.9c0.8-0.9,1.3-2.4,1.9-3.4
					c2.2-2.9,4.6-5.5,7.9-7.5c1.2-5.7,0.8-12.1,1.6-17.7c1.3,4.5,0.4,11.4-0.1,16.1c4.6,0.9,5.9-4.8,8.8-7.8c1.9-2,4.5-2.6,6.4-4.4
					c1.8-1.8,5.3-8.3,6.5-11.3c1.5-4,1.9-8.7,3.3-12.4c0.2,2.3-0.3,6.6-1.6,7.5c-0.2,7.1-4.4,11.7-6.5,17.3
					c-5.1,2.3-9.1,6-11.3,11.8c-4.8,1.5-9,3.8-12.1,7.3c-1.5,1.8-2.1,3.8-3.5,5.5c-5.4,6.8-14.2,6-23.9,8.7c-1.8,0.5-3.3,2-5.8,1.7
					c2,8.1,2.8,17.2,4.6,25.8c0.6,2.7,1.6,5.3,2,8c0.8,7.2,0.8,15.3,1.8,22.9c0.3,2.5,0.8,6.5,1.5,8.9c0.9,2.9,3.5,4.5,5.1,7
					c2.7-1.4,5.2-2.7,7.7-3.9c2.7-1.3,5.7-1.4,8.2-3c4-2.6,6.5-7.9,10.5-10.3c2.7-1.6,6.1-0.8,9.1-2.4c0.8-0.5,1.4-1.9,2.4-2.8
					c1.2-1.1,2.9-1.6,4-2.5c1-1,1.4-2.3,2.4-3.1c-0.1,3.8-4,5.4-6.1,7.7c2.9,0,5.4-0.4,7.8-1.2c2.4-0.8,3.9-2.4,5.9-3.8
					c2.8-1.9,5.4-3.1,7.7-5.7c2.2-2.5,3.6-5.6,6.1-7.7c-1.5,2.4-2.8,5-4.5,7.3c-2.3,3-5.3,4.3-8.1,6.6c-1.2,1-2.2,2.8-3.5,3.7
					c-6.3,4.2-15.5,1.4-22.2,5.6c-3.9,2.5-7.9,8.5-11.4,10.6c-2.2,1.3-4.7,1.4-6.9,2.4c-4.4,1.9-8.1,4.3-11.4,7
					c1.7,6.1,3.9,11.5,5.5,17.7c3.2,0.4,6.7,1.2,10,0.5c-1.9,2.4-5.4,1.7-8.4,1.5c-0.8,0.7,0.9,2.9,1.4,3.8c2.5,0.7,6.2-0.2,8.1,1.5
					c-1.3,0.2-4.6,0.8-6.5,0.2c-0.2,2,1.2,3.7,1.9,5.3c5.4,12.2,10.3,28,15.6,41c1.4,3.4,3.8,7.4,4,11.5c0.1,1.6-0.5,2.9-0.6,4.5
					c-0.3,4.1,0.8,8.5-0.2,12c2.7,1.8,5.9,2.9,9,4.1c-2.6,1.1-6.2-1.4-9-2c0.7,4.5,2.9,7,4.9,9.7c5.6,0.8,11.6,6.9,16.7,1.1
					c-2.3,8.7-12.3,0.7-17.4,1.3c-1.8-0.1-2.8-3.1-3.9-3.1c-0.7,8.6-2.6,16.7-1,25.7c0.6,3.4,2.3,6.6,3.6,10
					c2.6,7,2.5,15.4,4.9,22.5c0.6,1.7,1.4,3.1,1.9,4.7c0.6,1.8,0.7,3.9,1.2,5.6c0.6,1.8,1.7,3.2,2.3,5c3.2,8.9,5.2,19.8,7.5,30.2
					c1,4.3,1.5,8.5,2.9,12.1c2.7,6.9,7,12.2,9.1,20c1,3.8,2.3,7.6,3.4,11.5c2.1,7.4,4.1,14,3.4,24.1c-0.4,5.5-1.6,11-2.1,16.8
					c-0.5,6.1-1,12.4-1.6,18.6c-1.6,15.2-5.1,29.2-3.1,44.1c0.7,5.5,1.6,11.7,3,17.5c1,4,2.5,7.8,3.6,11.8c1,3.7,2.1,7.7,2.7,11.6
					c1.8,11.4,0,26.4,0,40.7c0,7.5,1.2,15.3-0.2,20.9c-0.7,2.7-2.3,3.6-3,6.7c1,2.3,2.9,2.5,4.1,4.6c1.9,3.4,2.1,8.7,4.1,12.7
					c0.4,0.9,1.4,1.4,1.8,2.3c1.4,2.5,2.5,6.9,4.2,8.8c2.4,2.7,6,2.6,9,4.4c2.6,1.6,4.7,4.9,7.7,5.4c5.3,0.8,8.2-4.6,11.9-4.6
					c-3.5,2.3-6.1,5.7-10.6,6.7c-0.7,1.1,2.2,2.2,2.5,3.8c-1.5,0.2-3-2.3-4.1-3.7c-3.2-1.2-5.8-4.3-8.4-6c-3.5-2.1-6-2-8.3-4.2
					c-2.4-2.3-3.2-5.8-5.1-9.4c-2.1-4-4.8-7.3-7.4-11.7c-0.7,1-2.6,0.6-3.3,1.6c-0.6,4.9-0.7,9.8-1,15.3c-0.3,5.3,0.6,11,0.1,16.4
					c-0.5,5.8-4.3,10.9-4.8,16c3,6.3,8.1,9.6,12.6,13.9c-5.2-2.3-8.9-6.7-12.7-10.9c0.8,4.6,1,7.8,1.8,12.8
					c1.4,8.6,4.5,17.8,5.2,25.2c0.6,5.5-0.5,11.4-2.6,13.9c5.2,3,12.4,3.6,18.6,4.4c-6.1,0.9-15.7-0.5-20.8-4
					c-0.8,0.6-2.4,0.3-3.1,1c2,1.7,4.7,2.3,7,3.6c-3.2,0.9-5.9-1.5-8.5-2.4c-2.6,5.9-4.2,13-7.2,18.5c4.2,5.6,9.7,9.2,16.3,11.3
					c-6.6-0.1-12.4-5.3-17.2-9.8c-2,3.6-4.7,6-6.9,9.5c-2.3,3.7-4.2,9.5-7.5,12.2c-2.5,2.1-4.9,3-7,5.7c-3.2,4-6.5,9.5-7.9,16.4
					c6.6-0.6,13.6,3.2,19.1,6.1c-2.7-0.8-6.8-2.2-10.8-3.5c-3-0.9-9.5-3.3-10,2.2c8.8,2.3,16.1,6.7,23.6,10.7
					c-3.7-0.8-7.7-2.9-12.1-4.9c-4.1-1.9-8.8-5.1-13-4.3c-2.8,0.6-6.2,3.8-9,4.8c2.4,2.8,5.7,4.6,8.4,7.7c0.8,0.9,1.5,2.6,2.8,4.1
					c1.1,1.3,2.5,2.4,2.8,3.8c0.7,4.7-3,10.2-5.8,12.2c-1.2,0.8-2.9,0.8-4.2,1.7c-1.7,1.1-2.6,3.4-4.2,3.7c-1.6,0.4-3.8-0.6-5.8-0.4
					c-4.5,0.5-8.2,2.7-13.3,2c-1.7-0.2-3.9-1.4-5.4-2.5c-1.6-1.1-3.5-4.5-4.8-4.6c-2.7-0.3-6.6,5.2-9,6c-7.3,2.6-12.8,7.6-19.4,11.2
					c-4.8,2.6-9.2,6.1-12.7,9.5c2.5-1.3,5.2-0.1,7.8,0c11.7,0.3,24.6-0.8,36.4,0.4c5.3,0.6,10.6,2,15.9,2.4
					c11.1,0.8,22.2,0,33.5,1.1c0.9,0,0.9,0,0.6-0.9c4.7,2.1,9.8,0,14.7-0.6c1.6-0.2,3.3,0.6,4.9,0.7c2.7,0.2,5.4-0.7,8-0.6
					c3.9,0.2,7.8,1.6,11.6,1c10.1-1.4,19.5-5.5,29.7-6.5c2.4-0.2,4.9,0.1,7.1-0.6c3.1-1,28.3,11.2,31.6,10.6c0.1,0,0.3,0,0.5-0.1
					c-12.7-339.1-7.1-769.2-15.2-1109.6c-75.9,3-291.9,2.8-344,7.3C1584.6-2.3,1645.6,95,1644.2,95.7z"/>
				
					<radialGradient id="SVGID_6_" cx="1357.2051" cy="591.6422" r="774.1131" gradientTransform="matrix(0.753 0 0 -1 636.564 1078.6614)" gradientUnits="userSpaceOnUse">
					<stop  offset="0" style="stop-color:#67CDF5;stop-opacity:0.7"/>
					<stop  offset="1" style="stop-color:#2F3A30"/>
				</radialGradient>
				<path class="st5" d="M1814.5,371.1c2.7-1.4,5.2-2.7,7.7-3.9c2.7-1.3,5.7-1.4,8.2-3c2.4-1.6,4.3-4.2,6.4-6.5
					c-16.7,11.8-17.1-12.7-17.5-32.6c-0.5-22.1,8.3-27.9,16.1-45c-0.1,0-0.2,0.1-0.2,0.1c-0.9,0.7-1.7,1.5-2.4,2.3
					c-1.5,1.8-2.1,3.8-3.5,5.5c-5.4,6.8-14.2,6-23.9,8.7c-1.8,0.5-3.3,2-5.8,1.7c2,8.1,2.8,17.2,4.6,25.8c0.6,2.7,1.6,5.3,2,8
					c0.8,7.2,0.8,15.3,1.8,22.9c0.3,2.5,0.8,6.5,1.5,8.9C1810.4,367,1813,368.6,1814.5,371.1z M1817.7,393.4
					c-1.6-6.2-3.8-11.6-5.5-17.7c3.3-2.7,7.1-5.2,11.4-7c2.2-0.9,4.7-1.1,6.8-2.3c-1.6,2.4-2.7,5-2.8,7.6
					c-0.2,9.1,11.5,27.2,15.8,33.7c4.5,6.7,8.8,12.3,10.4,21c1.3,6.6-1.3,14.5,2.9,20c7.1,9.4,24.7,1.8,33.4,2.2
					c-4.9,5.9-13.9,5.3-17.5,11.1c5.7,0.7,11.3,1,17,1c-5,9.7-17.1,7.4-21.3,15c-3.4,6.2,1.4,18.1,0.6,25.1
					c-0.5,5.1-3.2,8.7-3.4,14.2c-0.2,6.3,2.4,12.7,2.9,18.9c1.3,13.6-0.2,26.5,1.9,39.6c1.7,10.7,1.2,22.4,3.8,32.4
					c1.5,5.8,5,11.1,7.1,16.3s4.4,12.4,7.5,17.2c5.7,8.7,10.5,7.6,13.2,20.7c4.3,21.1,4.6,43.3,3,64.3
					c-1.7,23.7,10.2,38.1-12.8,26.2c1.9,6.8,6.1,13.4,10.3,18.5c-4.7-1-8.5-5.6-12-10.1c4,14,11.2,25.2,19.3,35.3
					c-8.3,14.4-1.2,41.3-2.1,57.9c-1.5-0.4-4.2,0.7-5.2,0.5c2.1,5.3,8.3,11.6,5.5,17.5c-7.1-2.5-13.4-11.1-18.3-18
					c0.5,5,1.4,9,2.6,12.6c-0.1-0.2-0.2-0.5-0.4-0.7c-0.5-0.9-1.4-1.4-1.8-2.3c-2-4-2.1-9.3-4.1-12.7c-1.2-2.1-3.1-2.4-4.1-4.6
					c0.6-3.1,2.3-4,3-6.7c1.4-5.7,0.2-13.5,0.2-20.9c0-14.3,1.8-29.2,0-40.7c-0.6-3.9-1.7-7.9-2.7-11.6c-1.1-4-2.6-7.8-3.6-11.8
					c-1.4-5.9-2.3-12.1-3-17.5c-2-14.9,1.5-28.9,3.1-44.1c0.7-6.2,1.1-12.5,1.6-18.6c0.5-5.8,1.7-11.4,2.1-16.8
					c0.7-10.1-1.3-16.6-3.4-24.1c-1.1-3.9-2.3-7.8-3.4-11.5c-2.1-7.8-6.4-13.1-9.1-20c-1.4-3.6-2-7.9-2.9-12.1
					c-2.4-10.4-4.4-21.4-7.5-30.2c-0.6-1.8-1.7-3.2-2.3-5c-0.6-1.7-0.6-3.8-1.2-5.6c-0.5-1.6-1.3-3-1.9-4.7
					c-2.4-7.1-2.3-15.5-4.9-22.5c-1.3-3.4-3-6.6-3.6-10c-1.5-9.1,0.3-17.2,1-25.7c1.1,0.1,2.1,3,3.9,3.1c5.1-0.6,15,7.5,17.4-1.3
					c-5.1,5.8-11.2-0.4-16.7-1.1c-2-2.7-4.2-5.2-4.9-9.7c2.7,0.7,6.4,3.2,9,2c-3.1-1.3-6.3-2.3-9-4.1c1-3.4-0.1-7.8,0.2-12
					c0.1-1.6,0.7-2.9,0.6-4.5c-0.3-4.1-2.7-8.1-4-11.5c-5.3-13-10.2-28.7-15.6-41c-0.7-1.6-2.1-3.3-1.9-5.3c1.9,0.6,5.1,0,6.5-0.2
					c-1.9-1.7-5.5-0.8-8.1-1.5c-0.5-0.9-2.2-3.2-1.4-3.8c3.1,0.2,6.6,0.9,8.4-1.5C1824.4,394.5,1820.9,393.8,1817.7,393.4z
					 M1740.2,197c3.8-0.1,5.8-2.5,7.7-4.8c1-1.2,1.7-3.4,2.4-3.1c0.3,6.6,4.1,10.9,8.6,11.8c4.6,9.3,14.2,15.2,19.1,25
					c3.8,7.7,2.1,11.5,10.6,11.2c9.4-0.4,17-13.9,24-21.1c-3.1,11.6-9.9,20.9-15.6,30.1c11,1.2,20.7-14.7,28.2-23.4
					c-5.3,9.5-13.9,25.3-17.3,36.2c-1.3,4.4-3.9,17.3-3.8,22c6.1,4,8.6,5.7,15.3,5c4.7-0.5,8.1-2.7,12.3-4.5
					c-0.6,0.7-1.1,1.4-1.6,2.1c-0.7,0.9-1.1,2.4-1.9,3.4c-3.3,3.9-8.3,4.5-13.9,5.9c-2.9,0.7-7,2.9-9.5,2.5c-0.9-0.2-3.1-2.1-5-3.4
					s-4.1-2.4-5.2-3.4c-2.2-2-2.3-4.5-3.3-7.6c-2-6.8-6.4-12-9.9-16.4c-1.2-1.5-3.3-2.7-4.3-4.3c-1.4-2.3-2.2-6.6-3.1-9.7
					c-1.1-3.6-2.2-7.1-2.9-10.1c1.9-0.2,3.4-0.7,4.2-2.3c-5.7,2.7-8.5-3.2-12.9-7c-2.9-2.6-6.7-4.2-9.1-6.2c-1.1-1-2.3-3-3.9-4.6
					c-1.6-1.7-3.5-3.2-4.1-4.6c-1.2-2.9-1.4-6.5-2.4-9.5C1741.8,203.1,1740.4,200.3,1740.2,197z M1836.2,1053.3
					c-0.2-1.4-1.6-2.5-2.8-3.8c-1.2-1.4-2-3.2-2.8-4.1c-2.8-3.1-6-4.9-8.4-7.7c2.9-1,6.2-4.3,9-4.8c4.2-0.9,8.9,2.4,13,4.3
					c4.4,2.1,8.5,4.1,12.1,4.9c-7.6-4-14.9-8.4-23.6-10.7c0.5-5.5,7-3.1,10-2.2c4,1.2,8,2.7,10.8,3.5c-5.5-3-12.5-6.8-19.1-6.1
					c1.4-6.9,4.7-12.4,7.9-16.4c2.1-2.6,4.5-3.6,7-5.7c3.3-2.8,5.2-8.5,7.5-12.2c2.2-3.6,4.9-5.9,6.9-9.5c4.8,4.6,10.5,9.7,17.2,9.8
					c-6.6-2.1-12.1-5.7-16.3-11.3c3-5.5,4.6-12.6,7.2-18.5c2.7,0.8,5.3,3.3,8.5,2.4c-2.3-1.3-5-1.9-7-3.6c0.7-0.7,2.3-0.4,3.1-1
					c3.7,2.5,9.7,3.9,15.1,4.2c4.2,10.3,11.2,17.5,13.7,28.6c-6.3,1.7-12.5,1.5-18.8,2.4c0.9,1.2,1.8,4.2,2.7,5.4
					c-5.9,5.4-13.2,1.6-19.6,4.9c2.1,9,10.6,16.9,16.3,22.1c-7.4,4.9-20.1,3.7-25.6,11.8c-3.6,5.4-2.5,14-7.7,18.5
					c-6.5,5.8-11.4,1.8-16.7-1.7C1836.3,1055.4,1836.4,1054.3,1836.2,1053.3z M1651.3,92.1c4.1,6.1,23,13,27.6,17.2
					c4.7,4.3,10.6,4,15.3,8.4c0.1,0.1,0.1,0.1,0.2,0.2c-0.4,0.3-0.8,0.5-1.1,0.8c-2.3,1.9-3.7,5.4-5.9,6.8c-1,0.7-2.3,0.7-3.1,1.3
					c-1.3,1.1-1.7,3.2-3,4c-2.8-4.5-4-11.6-8.5-14c-2.9-1.5-6.3-1.4-9-3.2c-1.6-1.1-3.1-3.2-4.8-4.6c-5.8-4.9-8.9-8.3-14.8-13.2
					c-6-8.1-44.1-80.4-43.8-79.7C1605.4,26.2,1630.5,66.8,1651.3,92.1z M1771.8,1078c3.7-2.5,7.5-4.9,11.9-6.5c2.4-0.8,6.4-6.3,9-6
					c1.3,0.1,3.2,3.5,4.8,4.6c0.3,0.2,0.6,0.4,0.9,0.6c-3.3,1.7-6.5,3.2-9.6,4.5C1783.5,1077.3,1777.6,1077.6,1771.8,1078z
					 M1889.6,928.5c1.9,13.3,7.9,26,11.6,38.4c-4.4-5.2-8.9-11.4-12.8-17.4c0.3,5.4,1.4,9.9,3,14c-4.5-0.6-8.9-1.5-12.5-3.6
					c2.2-2.5,3.2-8.3,2.6-13.9c-0.7-7.4-3.8-16.6-5.2-25.2c-0.8-5-1-8.2-1.8-12.8c3.8,4.2,7.5,8.6,12.7,10.9
					c-4.4-4.3-9.6-7.6-12.6-13.9c0.5-5.2,4.3-10.2,4.8-16c0.5-5.4-0.4-11.1-0.1-16.4c0.3-5.4,0.4-10.4,1-15.3c0.8-1,2.6-0.6,3.3-1.6
					c2.6,4.4,5.2,7.7,7.4,11.7c1.9,3.6,2.7,7.1,5.1,9.4c0.3,0.3,0.7,0.6,1,0.8c2.6,5.1,5.6,10.2,8,17.5c4.9,14.6-0.4,32.1,4.6,47.3
					C1902,942.1,1896.3,932.5,1889.6,928.5z M1686.3,148.2c-1.1-2.2-4.6-5.9-5.1-8.5c-0.7-3.7,1.5-8.4,2.5-9.7
					c1.2-1.4,3.2-1.5,4.6-2.6c0.7-0.5,1.3-1.2,1.9-2c7.8,7.5,15.1,19.3,10,28C1697.2,159,1687.8,151.3,1686.3,148.2z M1710.9,175.1
					c-1.5-3.2-3-5.6-3.3-8.8c-0.5-6,1.5-8.6,2.9-12.4c0.9-2.4,1.3-5.2,2.3-7c1.7-2.9,7.3-8.5,13.9-8.2c9.1,12.3,15.5,33.2,9.9,46
					c-3.4,5.9-9.4,6-15.3,3.5c-0.5-0.4-0.9-0.8-1.4-1.2C1715.9,183.5,1713.5,180.4,1710.9,175.1z M1761.6,178.8
					c-0.4-2.4-1-4.5-1.7-6.5c0.9-1.3,2.1-2.2,2.1-4.6c1.9-3.3,7.3-6.4,12.3-6.7c2.7,4.5,3.7,10.6,2.9,15.2c-1.6,3.5-5,7.1-8.6,8.1
					C1763.4,182.4,1762.5,179.1,1761.6,178.8z M1758.5,194.1c-0.8,1.7-2,2.6-3.4,3.3c-2.5-2.1-3.9-6.3-3.6-11.6
					c1.5-2.1,3-4.3,4.5-6.5C1759.8,183.6,1762,190.4,1758.5,194.1z M1795.3,1058.5c0.8-1.7,1.1-3.4,1.9-5.2c1.2-2.8,3.7-4.8,6.1-7.1
					c2.2-2.1,4.6-5.4,6.8-6.5c3.7-2,7.6,1,10.9-0.7c2.8,1.7,4.9,3.7,7.5,6.6c1.4,1.6,6.1,6,6.4,8.4c0.5,3.5-2.7,8.7-4.9,10.4
					c-0.9,0.7-2.5,0.6-3.8,1.3c-1.3,0.8-2.3,2.5-3.3,3.1c-2,1.2-3.6,0.1-6,0.2c-4.9,0.3-9.4,2.7-13.6,2c-4.7-0.8-7.4-4.5-10-7.7
					C1794,1061.7,1794.6,1060,1795.3,1058.5z"/>
			</g>
		</g>
	</g>
</g>
<g id="assets">
</g>
<g id="Sprites">
</g>
<g id="Title_bar">
</g>
</svg>
