<svg id="Lift_Slider" data-name="Lift Slider" xmlns="http://www.w3.org/2000/svg" xmlns:xlink="http://www.w3.org/1999/xlink" viewBox="0 0 149.39 71.69"><defs><style>.cls-1{fill:none;}.cls-2{fill:#c39d58;}.cls-3{clip-path:url(#clip-path);}.cls-4{fill:#a46f1c;}.cls-5{clip-path:url(#clip-path-2);}.cls-6{fill:#fff200;}</style><clipPath id="clip-path"><rect class="cls-1" width="149.39" height="71.69"/></clipPath><clipPath id="clip-path-2"><path class="cls-2" d="M1340.54,50.16l-.53-15.7s-244.07.64-366.5.83l-183.64.24-183.64,0-367.29-.11-368.4-1,1.11,15.24c122.29.07,244.8.33,367,.1l366.49-.34c121.92-.18,244.48.07,367,.18Z"/></clipPath></defs><title>Level02-Escape-game -Lift_Slider-02</title><g class="cls-3"><polygon class="cls-4" points="1334.81 60.8 -121.67 61.35 -130.14 50.01 1341.54 49.69 1334.81 60.8"/><path class="cls-1" d="M1341.05,50.31l-182.74.34-183.43.18c-122.35.11-244.64.37-367.57.18l-368.09-.33c-122.65-.24-245,0-367.57.1h-1.81v-.54l-.16-15.78v-.58h2l367.29-.42,367.29-.11,183.64,0,183.64.24q183.65.28,367.29.59h.8v.23Z"/><path class="cls-2" d="M1340.54,50.16l-.53-15.7s-244.07.64-366.5.83l-183.64.24-183.64,0-367.29-.11-368.4-1,1.11,15.24c122.29.07,244.8.33,367,.1l366.49-.34c121.92-.18,244.48.07,367,.18Z"/><g class="cls-5"><rect class="cls-6" x="-1.32" y="34" width="152.76" height="14"/></g></g></svg>