<?xml version="1.0" encoding="utf-8"?>
<!-- Generator: Adobe Illustrator 24.0.1, SVG Export Plug-In . SVG Version: 6.00 Build 0)  -->
<svg version="1.1" id="Layer_1" xmlns="http://www.w3.org/2000/svg" xmlns:xlink="http://www.w3.org/1999/xlink" x="0px" y="0px"
	 viewBox="0 0 51.1 99.6" style="enable-background:new 0 0 51.1 99.6;" xml:space="preserve">
<style type="text/css">
	.st0{fill:#FF0000;}
	.st1{fill:#FFFFFF;}
	.st2{fill-rule:evenodd;clip-rule:evenodd;fill:#006CB6;}
	.st3{fill-rule:evenodd;clip-rule:evenodd;fill:#2E94CE;}
	.st4{fill-rule:evenodd;clip-rule:evenodd;fill:#1C1B45;}
	.st5{fill-rule:evenodd;clip-rule:evenodd;fill:#FFFFFF;}
	.st6{fill-rule:evenodd;clip-rule:evenodd;fill:#EC1846;}
	.st7{fill-rule:evenodd;clip-rule:evenodd;fill:#FFF200;}
</style>
<g>
	<path class="st0" d="M26.7,21.4c2.1-5.1,7.6-6.3,10.4-11c1.7-2.8,0.3-7.9-2.9-9.2c-2.9-1.1-6.7,2.6-6.9,5.3
		c-0.2-1.3-1.2-3.4-2.2-4.4c-2-2-4.9,0.1-6.2,1.9c-2.1,2.8-2.5,6.6-0.9,9.9C21.4,17.6,24.8,17.2,26.7,21.4z"/>
	<g>
		<path class="st1" d="M50.1,71l-0.2-0.1v-0.2c0.1-2-0.8-4-2.7-6c-0.6-0.6-1.4-1.3-2.5-2c-0.4-0.2-0.8-0.5-1.2-0.7
			c-0.6-0.3-1.2-0.6-1.7-1c-0.8-0.6-1.3-1.4-1.8-2.2c-0.2-0.3-0.4-0.6-0.6-0.9L39,57.2c-0.5-0.8-1-1.5-1.7-2.2l-0.2-0.2l0.1-0.3
			c0.3-0.6,0.3-1.1,0-1.5c-0.3-0.5-1.1-0.9-1.9-0.9c-0.3,0-0.7,0.1-1,0.2L34,52.5l-0.2-0.2c-0.6-0.5-1.2-1-1.8-1.4
			c-1-0.6-2.6-1.5-4.3-1.8h-0.3l-0.1-0.3c-0.1-0.5-0.3-1.5-0.3-2.4v-0.3l0.3-0.1c1-0.5,1.2-0.9,1.3-1.2c0.1-0.2,0.2-0.4,0.5-0.4
			c1.7-0.1,9.6-1.2,12-3c1.5-4.4,0.7-10.8-1.7-13.8c-3.9-1.3-7.9-2-11.9-2c-3.5,0-6.9,0.5-10.3,1.5l-0.3,0.1L16.7,27
			c-0.2-0.2-0.4-0.3-0.6-0.4c-0.3-0.9-0.5-1.7-1-2.5c-0.3-0.5-0.6-1-0.8-1.5c-0.2-0.2-0.3-0.5-0.4-0.7c-0.4-0.7-1-1.3-1.6-1.8
			c0-0.1,0-0.2,0-0.4l0,0c0-0.1,0-0.1,0-0.2s0-0.1,0-0.2c-0.1-0.2-0.2-0.3-0.3-0.4l0,0c-0.1,0-0.1-0.1-0.2-0.1
			c-0.1,0-0.1-0.1-0.2-0.1c-0.1,0-0.1,0-0.2,0h-0.1c-0.1,0-0.1,0-0.2,0c0,0,0,0-0.1,0c-0.8,0.1-1.3,1.2-0.6,1.9c0,0,0,0,0.1,0
			c0.1,0.1,0.2,0.1,0.3,0.2l0,0c0.1,0,0.2,0.1,0.3,0.1h0.1h0.1c0.2,0,0.4-0.1,0.5-0.2c0.5,0.4,1,0.9,1.3,1.5
			c0.1,0.3,0.3,0.5,0.5,0.8c0.3,0.4,0.6,0.9,0.8,1.4c0.4,0.7,0.6,1.5,0.9,2.3c-0.4,0.3-0.7,0.6-0.6,0.9v0.3L14.5,28
			c-1.6,0.6-2.7,1.2-3,1.4C11,30.9,10.8,33.3,11,36c0,0.3,0,0.7,0.1,1.1c0.1,1.7,0.2,3.9,0.9,4.8c1.2,1.5,2.7,1.8,10.7,2.5H23
			l0.1,0.2c0.3,0.6,0.9,1.1,1.7,1.5l0.3,0.1v0.3c0.1,0.6,0,1.1-0.1,1.6c0,0.2-0.1,0.4-0.1,0.7v0.4h-0.4c-2.4,0.2-4.4,1.3-6,3.2
			l-0.2,0.3L18,52.6c-0.3-0.1-0.6-0.2-0.9-0.2c-0.8,0-1.5,0.4-1.9,0.9c-0.3,0.4-0.3,0.9,0,1.5l0.1,0.3l-0.2,0.2
			c-0.7,0.7-1.2,1.4-1.8,2.3l-0.4,0.6c-0.2,0.3-0.4,0.6-0.6,0.9c-0.5,0.8-1,1.6-1.7,2.2c-0.5,0.4-1.1,0.7-1.7,1
			c-0.4,0.2-0.8,0.4-1.2,0.7c-1,0.7-1.8,1.3-2.5,2c-1.8,1.9-2.7,3.9-2.7,6v0.2l-0.2,0.1C1.5,71.8,0.9,73,1,73.9c0,0.4,0.4,0.9,0.7,1
			c0.2,0,0.7-0.2,1-0.4l1.1-0.7l-0.4,1.3c-0.1,0.4,0,0.8,0.3,1.1c0.2,0.3,0.5,0.4,0.9,0.4c0.1,0,0.3,0,0.4-0.1
			c0.4-0.1,0.6-0.7,0.9-1.3c0.2-0.4,0.4-0.8,0.6-1.1L6.6,74h0.1c0.6-0.2,2-0.7,2.6-1.3c3.4-3.5,3.9-7,4.3-9.4
			c0.1-0.5,0.1-0.9,0.2-1.3c0.2-1,0.7-1.9,1.3-2.9l0.7-1.3l0.2,1.5c0.3,2.8,1.7,4.9,2.5,5.9c0.4,0.5,0.8,1,1.4,1.4l0.3,0.2L20,67.2
			c-0.1,0.4-0.1,0.9,0.1,1.2l0.2,0.2l-0.1,0.2c-0.2,0.6-0.2,1.4-0.3,2.3c0,0.6-0.1,1.3-0.2,2v0.2l-0.1,0.1c-0.8,0.7-1.3,1.5-1.8,2.8
			c-0.1,0.3-0.2,0.5-0.4,0.8c-0.2,0.5-0.5,1-0.6,1.5c-0.6,1.8-0.9,4.2-1,7.1c-0.1,2.2,0.1,4.2,0.5,6.2l0.1,0.3l-0.3,0.2
			c-3.5,2.2-4.3,4.4-4.3,4.9c0,0.2,1,0.9,5.8,0.9c0.3,0,0.6,0,0.8,0h1.1c1.8,0,3.5-0.1,4.8-0.4c0.3-0.5,0.3-1.9,0-2.6l-0.1-0.3
			l0.3-0.2c0.8-0.6,0.9-1.9,1-3.2V91c0.1-0.7,0.1-1.5,0.1-2.2c0-0.3,0-0.7,0-1c0-2.1-0.1-4.3-0.4-6.2C25.2,81,25,80,25,80
			c-0.3-2.1-0.6-4.2-1.6-5.5c-0.1-0.1-0.3-0.3-0.5-0.5c-0.3-0.3-0.7-0.6-0.8-1c-0.1-0.4,0-0.9,0.1-1.4c0-0.2,0.1-0.4,0.1-0.6
			s0-0.4,0.1-0.6c0.1-0.4,0.1-0.7,0.1-1v-0.2l0.2-0.2c0.1-0.1,0.1-0.2,0.2-0.3l0.2-0.4l0.4,0.1c1.1,0.3,2.2,0.5,3.4,0.5h0.3
			c0.8,0,1.6-0.1,2.5-0.4l0.4-0.1l0.2,0.3c0,0.1,0.1,0.1,0.1,0.2l0.2,0.2v0.2c0,0.3,0,0.6,0.1,1c0,0.2,0.1,0.4,0.1,0.6
			s0.1,0.4,0.1,0.6c0.1,0.5,0.2,1,0.1,1.4s-0.4,0.7-0.8,1c-0.2,0.2-0.4,0.3-0.5,0.4c-1,1.4-1.3,3.4-1.6,5.5
			c-0.1,0.5-0.1,0.9-0.2,1.4c-0.3,1.9-0.5,4.1-0.4,6.2c0,0.3,0,0.5,0,1c0,0.7,0,1.5,0.1,2.2V91c0.1,1.3,0.2,2.6,1,3.2l0.3,0.2
			L28.5,95c-0.3,0.8-0.3,2.1,0,2.6c1.3,0.3,3,0.4,4.8,0.4h1c0.2,0,0.5,0,0.8,0c4.8,0,5.8-0.7,5.8-0.9c0-0.4-0.7-2.7-4.3-4.9L36.3,92
			l0.1-0.3c0.4-2,0.6-4.1,0.5-6.2c-0.1-3-0.4-5.3-1-7.1c-0.2-0.5-0.4-1-0.6-1.5c-0.1-0.3-0.3-0.6-0.4-0.8c-0.5-1.3-1.1-2.1-1.8-2.8
			L33,73.2V73c-0.1-0.6-0.1-1.3-0.2-2c0-0.8-0.1-1.6-0.3-2.3l-0.1-0.2l0.2-0.2c0.2-0.2,0.2-0.6,0.2-0.9v-0.3L33,67
			c2-1.5,2.9-3.5,3.2-4.4c0.3-0.8,0.5-1.6,0.6-2.4l0.2-1.7l0.7,1.5c0.3,0.7,0.5,1.2,0.7,1.8c0.1,0.4,0.1,0.8,0.2,1.3
			c0.3,2.3,0.9,5.8,4.2,9.3c0.6,0.6,2,1.1,2.6,1.4h0.1l0.1,0.1c0.2,0.3,0.4,0.7,0.6,1.1c0.3,0.6,0.5,1.2,0.9,1.3
			c0.1,0.1,0.3,0.1,0.4,0.1c0.3,0,0.6-0.2,0.9-0.4c0.3-0.3,0.4-0.7,0.2-1.2l-0.4-1.3l1.1,0.8c0.3,0.2,0.8,0.4,1,0.4l0,0
			c0.3-0.1,0.7-0.6,0.7-1C51.4,72.7,50.8,71.5,50.1,71z"/>
		<path class="st2" d="M21.9,55c-0.8,1.3-1.4,2.9-1.2,4.5c0.2,1.2,1.7,4.8,5.9,5.1c1.5,0.1,3.4-0.5,4.3-1.4c1.3-1.3,2.1-3.6,1.5-5.8
			C31.1,51.9,25.5,51.1,21.9,55z"/>
		<path class="st3" d="M21.7,57.3c0.6-3.2,4.7-5.8,7.6-3.3c1.1,1,1.7,2.3,2,3.7c0.4,1.8-0.2,3.3-0.8,4.9c0.4-1.1,0.1-2.7-0.8-3.6
			c-0.8-0.9-2.3-0.6-3.4-0.6C25.1,58.4,21.7,59.1,21.7,57.3z"/>
		<path class="st4" d="M24.9,32.2c0.2,1.3-0.3,3.7-1.6,3.6c-0.5,0-1.1-0.7-1.3-1.2c-0.4-1-0.3-2.7,0.4-3.6c0.2-0.3,0.9-0.9,1.5-0.7
			C24.4,30.5,24.8,31.4,24.9,32.2z"/>
		<ellipse class="st5" cx="23.9" cy="32.1" rx="0.4" ry="0.7"/>
		<path class="st4" d="M30.6,31.9c0.2,1.3-0.3,3.7-1.6,3.6c-0.5,0-1.1-0.7-1.3-1.2c-0.4-1-0.3-2.7,0.4-3.6c0.2-0.3,0.9-0.9,1.5-0.7
			C30.1,30.2,30.5,31.1,30.6,31.9z"/>
		<ellipse class="st5" cx="29.7" cy="31.8" rx="0.4" ry="0.7"/>
		<path class="st6" d="M24.8,55.4c0.1,0.7-0.3,1.4-1.1,1.4c-0.9,0-1.5-1.2-1-1.9c0.2-0.3,0.6-0.8,1-0.8
			C24.3,54.1,24.7,54.7,24.8,55.4z"/>
		<path class="st7" d="M24.8,58.4c0.1,0.7-0.3,1.5-1.1,1.5c-0.9,0-1.5-1.1-1.1-1.9c0.2-0.3,0.6-0.8,1-0.8
			C24.3,57.1,24.7,57.7,24.8,58.4z"/>
		<path class="st6" d="M24.8,61.5c0.1,0.7-0.3,1.5-1.1,1.5c-0.9,0-1.5-1.1-1.1-1.9c0.2-0.3,0.6-0.8,1-0.8
			C24.4,60.2,24.7,60.8,24.8,61.5z"/>
		<path class="st7" d="M27.9,55.3c0.1,0.7-0.3,1.4-1.1,1.4c-0.9,0-1.5-1.2-1-1.9c0.2-0.3,0.6-0.8,1-0.8C27.5,54,27.8,54.6,27.9,55.3
			z"/>
		<path class="st7" d="M27.9,58.3c0.1,0.7-0.3,1.5-1.1,1.5c-0.9,0-1.5-1.1-1.1-1.9c0.2-0.3,0.6-0.8,1-0.8
			C27.5,57,27.8,57.6,27.9,58.3z"/>
		<path class="st7" d="M28,61.4c0.1,0.7-0.3,1.5-1.1,1.5c-0.9,0-1.5-1.1-1.1-1.9c0.2-0.3,0.6-0.8,1-0.8C27.5,60.1,27.9,60.7,28,61.4
			z"/>
		<path class="st6" d="M31.1,55.2c0.1,0.7-0.3,1.4-1.1,1.4c-0.9,0-1.5-1.2-1-1.9c0.2-0.3,0.6-0.8,1-0.8C30.6,53.9,31,54.5,31.1,55.2
			z"/>
		<path class="st7" d="M31.1,58.2c0.1,0.7-0.3,1.5-1.1,1.5c-0.9,0-1.5-1.1-1.1-1.9c0.2-0.3,0.6-0.8,1-0.8
			C30.6,56.9,31,57.5,31.1,58.2z"/>
		<path class="st6" d="M31.1,61.3c0.1,0.7-0.3,1.5-1.1,1.5c-0.9,0-1.5-1.1-1.1-1.9c0.2-0.3,0.6-0.8,1-0.8
			C30.7,60.1,31,60.6,31.1,61.3z"/>
	</g>
</g>
</svg>
