<?xml version="1.0" encoding="utf-8"?>
<!-- Generator: Adobe Illustrator 24.0.1, SVG Export Plug-In . SVG Version: 6.00 Build 0)  -->
<svg version="1.1" id="Layer_1" xmlns="http://www.w3.org/2000/svg" xmlns:xlink="http://www.w3.org/1999/xlink" x="0px" y="0px"
	 viewBox="0 0 187.6 51.4" style="enable-background:new 0 0 187.6 51.4;" xml:space="preserve">
<style type="text/css">
	.st0{fill:#CBD4DB;}
	.st1{fill:#FF0000;}
</style>
<g>
	<path class="st0" d="M103.7-24.6"/>
	<g>
		<path class="st1" d="M108.5,26.2c-0.4-1.2-1.5-2-2.7-2H81.3c-1.1,0-2.2,0.7-2.6,1.7c-2.8,7.3-2.5,15,0.1,23
			c0.4,1.1,1.4,1.8,2.5,1.9c7.8,0.4,15.9,0.4,24.5,0c1.2-0.1,2.3-0.9,2.6-2.1C110.5,40.5,110.8,32.9,108.5,26.2z M96.4,45h-5.6
			l1-7.7c-1.2-0.6-2-1.9-2-3.3c0-2.1,1.7-3.7,3.7-3.7c2.1,0,3.7,1.7,3.7,3.7c0,1.5-0.9,2.8-2.2,3.4L96.4,45z"/>
		<g>
			<path class="st1" d="M86,43.7c-0.6,0-1.1-0.3-1.5-0.8c-1.3-1.9-2-4.1-2-6.5V20.8c0-6.3,5.1-11.4,11.4-11.4
				c6.3,0,11.4,5.1,11.4,11.4v3.7c0,1-0.8,1.8-1.8,1.8c-1,0-1.8-0.8-1.8-1.8v-3.7c0-4.3-3.5-7.8-7.8-7.8c-4.3,0-7.8,3.5-7.8,7.8
				v15.7c0,1.6,0.5,3.1,1.4,4.4c0.6,0.8,0.4,1.9-0.5,2.5C86.7,43.6,86.3,43.7,86,43.7z"/>
		</g>
	</g>
	<g>
		<path class="st1" d="M146.6,26.2c-0.4-1.2-1.5-2-2.7-2h-24.6c-1.1,0-2.2,0.7-2.6,1.7c-2.8,7.3-2.5,15,0.1,23
			c0.4,1.1,1.4,1.8,2.5,1.9c7.8,0.4,15.9,0.4,24.5,0c1.2-0.1,2.3-0.9,2.6-2.1C148.5,40.5,148.8,32.9,146.6,26.2z M134.4,45h-5.6
			l1-7.7c-1.2-0.6-2-1.9-2-3.3c0-2.1,1.7-3.7,3.7-3.7c2.1,0,3.7,1.7,3.7,3.7c0,1.5-0.9,2.8-2.2,3.4L134.4,45z"/>
		<g>
			<path class="st1" d="M124,43.7c-0.6,0-1.1-0.3-1.5-0.8c-1.3-1.9-2-4.1-2-6.5V20.8c0-6.3,5.1-11.4,11.4-11.4
				c6.3,0,11.4,5.1,11.4,11.4v3.7c0,1-0.8,1.8-1.8,1.8s-1.8-0.8-1.8-1.8v-3.7c0-4.3-3.5-7.8-7.8-7.8s-7.8,3.5-7.8,7.8v15.7
				c0,1.6,0.5,3.1,1.4,4.4c0.6,0.8,0.4,1.9-0.5,2.5C124.8,43.6,124.4,43.7,124,43.7z"/>
		</g>
	</g>
	<g>
		<path class="st1" d="M185.4,26.2c-0.4-1.2-1.5-2-2.7-2h-24.6c-1.1,0-2.2,0.7-2.6,1.7c-2.8,7.3-2.5,15,0.1,23
			c0.4,1.1,1.4,1.8,2.5,1.9c7.8,0.4,15.9,0.4,24.5,0c1.2-0.1,2.3-0.9,2.6-2.1C187.3,40.5,187.6,32.9,185.4,26.2z M173.2,45h-5.6
			l1-7.7c-1.2-0.6-2-1.9-2-3.3c0-2.1,1.7-3.7,3.7-3.7c2.1,0,3.7,1.7,3.7,3.7c0,1.5-0.9,2.8-2.2,3.4L173.2,45z"/>
		<g>
			<path class="st1" d="M162.8,43.7c-0.6,0-1.1-0.3-1.5-0.8c-1.3-1.9-2-4.1-2-6.5V20.8c0-6.3,5.1-11.4,11.4-11.4s11.4,5.1,11.4,11.4
				v3.7c0,1-0.8,1.8-1.8,1.8s-1.8-0.8-1.8-1.8v-3.7c0-4.3-3.5-7.8-7.8-7.8s-7.8,3.5-7.8,7.8v15.7c0,1.6,0.5,3.1,1.4,4.4
				c0.6,0.8,0.4,1.9-0.5,2.5C163.6,43.6,163.2,43.7,162.8,43.7z"/>
		</g>
	</g>
	<g>
		<path class="st1" d="M70.3,26.2c-0.4-1.2-1.5-2-2.7-2H43.1c-1.1,0-2.2,0.7-2.6,1.7c-2.8,7.3-2.5,15,0.1,23
			c0.4,1.1,1.4,1.8,2.5,1.9c7.8,0.4,15.9,0.4,24.5,0c1.2-0.1,2.3-0.9,2.6-2.1C72.3,40.5,72.6,32.9,70.3,26.2z M58.2,45h-5.6l1-7.7
			c-1.2-0.6-2-1.9-2-3.3c0-2.1,1.7-3.7,3.7-3.7S59,32,59,34c0,1.5-0.9,2.8-2.2,3.4L58.2,45z"/>
		<g>
			<path class="st1" d="M47.8,43.7c-0.6,0-1.1-0.3-1.5-0.8c-1.3-1.9-2-4.1-2-6.5V20.8c0-6.3,5.1-11.4,11.4-11.4s11.4,5.1,11.4,11.4
				v3.7c0,1-0.8,1.8-1.8,1.8s-1.8-0.8-1.8-1.8v-3.7c0-4.3-3.5-7.8-7.8-7.8s-7.8,3.5-7.8,7.8v15.7c0,1.6,0.5,3.1,1.4,4.4
				c0.6,0.8,0.4,1.9-0.5,2.5C48.5,43.6,48.2,43.7,47.8,43.7z"/>
		</g>
	</g>
	<g>
		<path class="st1" d="M32.2,26.2c-0.4-1.2-1.5-2-2.7-2H4.9c-1.1,0-2.2,0.7-2.6,1.7c-2.8,7.3-2.5,15,0.1,23c0.4,1.1,1.4,1.8,2.5,1.9
			c7.8,0.4,15.9,0.4,24.5,0c1.2-0.1,2.3-0.9,2.6-2.1C34.1,40.5,34.4,32.9,32.2,26.2z M20,45h-5.6l1-7.7c-1.2-0.6-2-1.9-2-3.3
			c0-2.1,1.7-3.7,3.7-3.7s3.7,1.7,3.7,3.7c0,1.5-0.9,2.8-2.2,3.4L20,45z"/>
		<g>
			<path class="st1" d="M9.6,43.7c-0.6,0-1.1-0.3-1.5-0.8c-1.3-1.9-2-4.1-2-6.5V20.8c0-6.3,5.1-11.4,11.4-11.4s11.4,5.1,11.4,11.4
				v3.7c0,1-0.8,1.8-1.8,1.8c-1,0-1.8-0.8-1.8-1.8v-3.7c0-4.3-3.5-7.8-7.8-7.8s-7.8,3.5-7.8,7.8v15.7c0,1.6,0.5,3.1,1.4,4.4
				c0.6,0.8,0.4,1.9-0.5,2.5C10.3,43.6,10,43.7,9.6,43.7z"/>
		</g>
	</g>
</g>
</svg>
