<svg id="blocks_and_platforms" data-name="blocks and platforms" xmlns="http://www.w3.org/2000/svg" xmlns:xlink="http://www.w3.org/1999/xlink" viewBox="0 0 1852.21 766.6"><defs><style>.cls-1{fill:none;}.cls-2{fill:#c39d58;}.cls-3{opacity:0.1;}.cls-4{clip-path:url(#clip-path);}.cls-5{fill:#a46f1c;}.cls-6{clip-path:url(#clip-path-2);}.cls-7{fill:#fff200;}.cls-8{fill:#0f536d;}.cls-9{clip-path:url(#clip-path-3);}.cls-10{clip-path:url(#clip-path-4);}.cls-11{clip-path:url(#clip-path-5);}.cls-12{clip-path:url(#clip-path-6);}.cls-13{clip-path:url(#clip-path-7);}.cls-14{clip-path:url(#clip-path-8);}.cls-15{clip-path:url(#clip-path-9);}</style><clipPath id="clip-path"><rect class="cls-1" x="348.03" y="547.38" width="1441.23" height="58"/></clipPath><clipPath id="clip-path-2"><path class="cls-2" d="M2024.34,579.42l-.57-16.71s-381.23.67-511.56.88l-195.5.25-195.49,0-391-.12L338,562.71l1.18,16.22c130.19.07,260.6.36,390.7.1l390.15-.35c129.79-.2,260.27.07,390.69.19Z"/></clipPath><clipPath id="clip-path-3"><rect class="cls-1" x="278.17" y="209.34" width="1304.83" height="51.89"/></clipPath><clipPath id="clip-path-4"><path class="cls-2" d="M1589.23,232.45l-.57-16.71s-259.82.67-390.15.88l-194.93.25-195.5,0-391.56-.12L24.34,215.74,25.52,232c130.18.07,260.6.36,390.7.1l390.15-.35c130.35-.2,260.83.08,390.69.19Z"/></clipPath><clipPath id="clip-path-5"><rect class="cls-1" x="581.29" width="685.66" height="51.89"/></clipPath><clipPath id="clip-path-6"><path class="cls-2" d="M2023.42,23.12l-.57-16.71s-259.82.67-390.15.87l-195.5.26-195.5,0-391-.12L458.53,6.41l1.18,16.21c130.18.08,260.6.36,390.69.11l390.15-.36c129.8-.2,260.27.08,390.7.19Z"/></clipPath><clipPath id="clip-path-7"><rect class="cls-1" x="165.71" y="381.66" width="1625.52" height="51.89"/></clipPath><clipPath id="clip-path-8"><path class="cls-2" d="M1791.23,404.77l-.59-16.71s-270.24.68-405.8.88l-203.34.25-203.33.05-406.67-.12-407.91-1.06,1.23,16.22c135.4.07,271.05.36,406.36.1L977,404c135-.2,270.71.07,406.36.19Z"/></clipPath><clipPath id="clip-path-9"><path class="cls-2" d="M1852.21,758.34l-.63-16.71s-418.35.67-561.37.88l-214.54.25-214.53,0-429.07-.12L1.7,741.63,3,757.84c142.86.08,286,.36,428.74.11l428.14-.35c142.43-.2,285.61.07,428.74.18Z"/></clipPath></defs><title>Level02-Escape-game-transparent platform</title><g class="cls-3"><g class="cls-4"><polygon class="cls-5" points="2024.12 587.68 337.79 587.68 337.31 579.26 2023.96 578.92 2024.12 587.68"/><path class="cls-5" d="M1903.48,579.58l-194.54.36-195.28.2c-130.24.11-260.43.38-391.3.19L730.52,580c-130.56-.25-260.81,0-391.3.11H337.3l.11-19.09,392.81.66,391-.12,195.49.05,195.5.25q195.49.31,391,.63h.85v.25Z"/><path class="cls-2" d="M2024.34,579.42l-.57-16.71s-381.23.67-511.56.88l-195.5.25-195.49,0-391-.12L338,562.71l1.18,16.22c130.19.07,260.6.36,390.7.1l390.15-.35c129.79-.2,260.27.07,390.69.19Z"/><g class="cls-6"><polygon class="cls-7" points="217.36 572.25 236.17 572.32 246.62 561.78 227.96 561.71 217.36 572.25"/><polygon class="cls-8" points="236.16 572.28 254.97 572.34 265.42 561.8 246.76 561.74 236.16 572.28"/><polygon class="cls-7" points="254.99 572.24 273.8 572.3 284.25 561.76 265.59 561.7 254.99 572.24"/><polygon class="cls-8" points="273.79 572.26 292.6 572.33 303.05 561.79 284.39 561.72 273.79 572.26"/><polygon class="cls-7" points="292.49 572.37 311.3 572.43 321.75 561.89 303.09 561.83 292.49 572.37"/><polygon class="cls-8" points="311.28 572.39 330.09 572.46 340.54 561.92 321.88 561.85 311.28 572.39"/><polygon class="cls-7" points="330.12 572.35 348.93 572.42 359.38 561.88 340.72 561.81 330.12 572.35"/><polygon class="cls-8" points="348.92 572.38 367.73 572.45 378.18 561.9 359.52 561.84 348.92 572.38"/><polygon class="cls-7" points="367.61 572.48 386.42 572.55 396.88 562.01 378.21 561.94 367.61 572.48"/><polygon class="cls-8" points="386.41 572.51 405.22 572.58 415.67 562.03 397.01 561.97 386.41 572.51"/><polygon class="cls-7" points="405.25 572.47 424.06 572.53 434.51 561.99 415.85 561.93 405.25 572.47"/><polygon class="cls-8" points="424.04 572.5 442.85 572.56 453.3 562.02 434.64 561.96 424.04 572.5"/><polygon class="cls-7" points="442.74 572.45 461.55 572.52 472 561.98 453.34 561.91 442.74 572.45"/><polygon class="cls-8" points="461.54 572.48 480.35 572.55 490.8 562 472.14 561.94 461.54 572.48"/><polygon class="cls-7" points="480.37 572.44 499.18 572.5 509.63 561.96 490.97 561.9 480.37 572.44"/><polygon class="cls-8" points="499.17 572.47 517.98 572.53 528.43 561.99 509.77 561.92 499.17 572.47"/><polygon class="cls-7" points="517.87 572.42 536.68 572.49 547.13 561.95 528.47 561.88 517.87 572.42"/><polygon class="cls-8" points="536.66 572.45 555.47 572.52 565.92 561.98 547.26 561.91 536.66 572.45"/><polygon class="cls-7" points="555.5 572.41 574.31 572.48 584.76 561.93 566.1 561.87 555.5 572.41"/><polygon class="cls-8" points="574.3 572.44 593.11 572.5 603.56 561.96 584.9 561.9 574.3 572.44"/><polygon class="cls-7" points="592.99 572.54 611.8 572.61 622.25 562.07 603.6 562 592.99 572.54"/><polygon class="cls-8" points="611.79 572.57 630.6 572.63 641.05 562.09 622.39 562.03 611.79 572.57"/><polygon class="cls-7" points="630.63 572.53 649.44 572.59 659.89 562.05 641.23 561.99 630.63 572.53"/><polygon class="cls-8" points="649.42 572.55 668.23 572.62 678.68 562.08 660.02 562.01 649.42 572.55"/><polygon class="cls-7" points="668.12 572.66 686.93 572.72 697.38 562.18 678.72 562.12 668.12 572.66"/><polygon class="cls-8" points="686.92 572.68 705.73 572.75 716.18 562.21 697.52 562.14 686.92 572.68"/><polygon class="cls-7" points="705.75 572.64 724.56 572.71 735.01 562.17 716.35 562.1 705.75 572.64"/><polygon class="cls-8" points="724.55 572.67 743.36 572.73 753.81 562.19 735.15 562.13 724.55 572.67"/><polygon class="cls-7" points="743.25 572.63 762.06 572.69 772.51 562.15 753.85 562.09 743.25 572.63"/><polygon class="cls-8" points="762.04 572.65 780.85 572.72 791.3 562.18 772.64 562.11 762.04 572.65"/><polygon class="cls-7" points="780.88 572.61 799.69 572.68 810.14 562.14 791.48 562.07 780.88 572.61"/><polygon class="cls-8" points="799.68 572.64 818.49 572.7 828.94 562.16 810.28 562.1 799.68 572.64"/><polygon class="cls-7" points="818.55 572.89 837.36 572.96 847.82 562.41 829.15 562.35 818.55 572.89"/><polygon class="cls-8" points="837.35 572.91 856.16 572.98 866.61 562.44 847.95 562.38 837.35 572.91"/><polygon class="cls-7" points="856.18 572.88 875 572.94 885.45 562.4 866.79 562.33 856.18 572.88"/><polygon class="cls-8" points="874.98 572.9 893.79 572.97 904.24 562.42 885.58 562.36 874.98 572.9"/><polygon class="cls-7" points="893.68 573 912.49 573.07 922.94 562.53 904.28 562.47 893.68 573"/><polygon class="cls-8" points="912.48 573.03 931.29 573.1 941.74 562.56 923.08 562.49 912.48 573.03"/><polygon class="cls-7" points="931.31 572.99 950.12 573.06 960.57 562.51 941.91 562.45 931.31 572.99"/><polygon class="cls-8" points="950.11 573.02 968.92 573.08 979.37 562.54 960.71 562.48 950.11 573.02"/><polygon class="cls-7" points="968.81 573.12 987.62 573.19 998.07 562.65 979.41 562.58 968.81 573.12"/><polygon class="cls-8" points="987.6 573.15 1006.41 573.21 1016.86 562.67 998.2 562.61 987.6 573.15"/><polygon class="cls-7" points="1006.44 573.11 1025.25 573.17 1035.7 562.63 1017.04 562.57 1006.44 573.11"/><polygon class="cls-8" points="1025.23 573.13 1044.05 573.2 1054.5 562.66 1035.84 562.59 1025.23 573.13"/><polygon class="cls-7" points="1043.93 573.09 1062.74 573.16 1073.19 562.62 1054.54 562.55 1043.93 573.09"/><polygon class="cls-8" points="1062.73 573.12 1081.54 573.18 1091.99 562.64 1073.33 562.58 1062.73 573.12"/><polygon class="cls-7" points="1081.57 573.08 1100.38 573.14 1110.83 562.6 1092.17 562.54 1081.57 573.08"/><polygon class="cls-8" points="1100.36 573.1 1119.17 573.17 1129.62 562.63 1110.96 562.56 1100.36 573.1"/><polygon class="cls-7" points="1119.06 573.06 1137.87 573.13 1148.32 562.59 1129.66 562.52 1119.06 573.06"/><polygon class="cls-8" points="1137.86 573.09 1156.67 573.15 1167.12 562.61 1148.46 562.55 1137.86 573.09"/><polygon class="cls-7" points="1156.69 573.05 1175.5 573.11 1185.95 562.57 1167.29 562.51 1156.69 573.05"/><polygon class="cls-8" points="1175.49 573.07 1194.3 573.14 1204.75 562.6 1186.09 562.53 1175.49 573.07"/><polygon class="cls-7" points="1194.19 573.18 1213 573.24 1223.45 562.7 1204.79 562.64 1194.19 573.18"/><polygon class="cls-8" points="1212.98 573.2 1231.79 573.27 1242.24 562.73 1223.58 562.66 1212.98 573.2"/><polygon class="cls-7" points="1231.82 573.16 1250.63 573.23 1261.08 562.69 1242.42 562.62 1231.82 573.16"/><polygon class="cls-8" points="1250.62 573.19 1269.42 573.25 1279.88 562.71 1261.22 562.65 1250.62 573.19"/><polygon class="cls-7" points="1269.31 573.29 1288.12 573.36 1298.58 562.82 1279.91 562.75 1269.31 573.29"/><polygon class="cls-8" points="1288.11 573.32 1306.92 573.39 1317.37 562.85 1298.71 562.78 1288.11 573.32"/><polygon class="cls-7" points="1306.94 573.28 1325.76 573.35 1336.21 562.8 1317.55 562.74 1306.94 573.28"/><polygon class="cls-8" points="1325.74 573.31 1344.55 573.37 1355 562.83 1336.34 562.76 1325.74 573.31"/><polygon class="cls-7" points="1344.44 573.26 1363.25 573.33 1373.7 562.79 1355.04 562.72 1344.44 573.26"/><polygon class="cls-8" points="1363.24 573.29 1382.05 573.36 1392.5 562.82 1373.84 562.75 1363.24 573.29"/><polygon class="cls-7" points="1382.07 573.25 1400.88 573.32 1411.33 562.77 1392.67 562.71 1382.07 573.25"/><polygon class="cls-8" points="1400.87 573.28 1419.68 573.34 1430.13 562.8 1411.47 562.74 1400.87 573.28"/><polygon class="cls-7" points="1419.65 573.28 1438.46 573.34 1448.91 562.8 1430.25 562.74 1419.65 573.28"/><polygon class="cls-8" points="1438.44 573.3 1457.26 573.37 1467.71 562.83 1449.05 562.76 1438.44 573.3"/><polygon class="cls-7" points="1457.28 573.26 1476.09 573.33 1486.54 562.79 1467.88 562.72 1457.28 573.26"/><polygon class="cls-8" points="1476.08 573.29 1494.89 573.35 1505.34 562.81 1486.68 562.75 1476.08 573.29"/><polygon class="cls-7" points="1494.78 573.39 1513.59 573.46 1524.04 562.92 1505.38 562.85 1494.78 573.39"/><polygon class="cls-8" points="1513.57 573.42 1532.38 573.48 1542.83 562.94 1524.17 562.88 1513.57 573.42"/><polygon class="cls-7" points="1532.41 573.38 1551.22 573.44 1561.67 562.9 1543.01 562.84 1532.41 573.38"/><polygon class="cls-8" points="1551.2 573.4 1570.02 573.47 1580.47 562.93 1561.81 562.86 1551.2 573.4"/><polygon class="cls-7" points="1569.9 573.51 1588.71 573.57 1599.16 563.03 1580.5 562.97 1569.9 573.51"/><polygon class="cls-8" points="1588.7 573.53 1607.51 573.6 1617.96 563.06 1599.3 562.99 1588.7 573.53"/><polygon class="cls-7" points="1607.54 573.49 1626.35 573.56 1636.8 563.02 1618.14 562.95 1607.54 573.49"/><polygon class="cls-8" points="1626.33 573.52 1645.14 573.59 1655.59 563.04 1636.93 562.98 1626.33 573.52"/><polygon class="cls-7" points="1645.03 573.48 1663.84 573.54 1674.29 563 1655.63 562.94 1645.03 573.48"/><polygon class="cls-8" points="1663.83 573.5 1682.64 573.57 1693.09 563.03 1674.43 562.96 1663.83 573.5"/><polygon class="cls-7" points="1682.66 573.46 1701.47 573.53 1711.92 562.99 1693.26 562.92 1682.66 573.46"/><polygon class="cls-8" points="1701.46 573.49 1720.27 573.55 1730.72 563.01 1712.06 562.95 1701.46 573.49"/><polygon class="cls-7" points="1720.16 573.45 1738.97 573.51 1749.42 562.97 1730.76 562.91 1720.16 573.45"/><polygon class="cls-8" points="1738.95 573.48 1757.76 573.54 1768.21 563 1749.55 562.93 1738.95 573.48"/><polygon class="cls-7" points="1757.79 573.43 1776.6 573.5 1787.05 562.96 1768.39 562.89 1757.79 573.43"/><polygon class="cls-8" points="1776.59 573.46 1795.39 573.52 1805.85 562.99 1787.19 562.92 1776.59 573.46"/><polygon class="cls-7" points="1795.28 573.56 1814.09 573.63 1824.55 563.09 1805.88 563.02 1795.28 573.56"/><polygon class="cls-8" points="1814.08 573.59 1832.89 573.66 1843.34 563.12 1824.68 563.05 1814.08 573.59"/><polygon class="cls-7" points="1832.91 573.55 1851.73 573.62 1862.18 563.07 1843.52 563.01 1832.91 573.55"/><polygon class="cls-8" points="1851.71 573.58 1870.52 573.64 1880.97 563.1 1862.31 563.04 1851.71 573.58"/></g></g><g class="cls-9"><polygon class="cls-5" points="1583.13 239.52 32.63 240.1 24.18 232.29 1590.86 231.95 1583.13 239.52"/><path class="cls-5" d="M1589.78,232.61l-194.54.36-195.28.2c-130.24.11-260.43.39-391.3.19L416.82,233c-130.57-.25-260.81,0-391.3.11H23.6v-.58l-.17-16.79v-.62h2.1l391-.44,391.56-.12,195.5.05,194.93.25q195.49.31,391,.63h.86v.25Z"/><path class="cls-2" d="M1589.23,232.45l-.57-16.71s-259.82.67-390.15.88l-194.93.25-195.5,0-391.56-.12L24.34,215.74,25.52,232c130.18.07,260.6.36,390.7.1l390.15-.35c130.35-.2,260.83.08,390.69.19Z"/><g class="cls-10"><polygon class="cls-7" points="-21.21 225.4 -2.4 225.46 8.05 214.92 -10.61 214.86 -21.21 225.4"/><polygon class="cls-8" points="-2.42 225.42 16.39 225.49 26.84 214.95 8.18 214.88 -2.42 225.42"/><polygon class="cls-7" points="16.42 225.38 35.23 225.45 45.68 214.91 27.02 214.84 16.42 225.38"/><polygon class="cls-8" points="35.21 225.41 54.02 225.47 64.48 214.93 45.82 214.87 35.21 225.41"/><polygon class="cls-7" points="53.91 225.51 72.72 225.58 83.17 215.04 64.51 214.97 53.91 225.51"/><polygon class="cls-8" points="72.71 225.54 91.52 225.61 101.97 215.06 83.31 215 72.71 225.54"/><polygon class="cls-7" points="91.55 225.5 110.36 225.56 120.81 215.02 102.15 214.96 91.55 225.5"/><polygon class="cls-8" points="110.34 225.53 129.15 225.59 139.6 215.05 120.94 214.99 110.34 225.53"/><polygon class="cls-7" points="129.04 225.49 147.85 225.55 158.3 215.01 139.64 214.94 129.04 225.49"/><polygon class="cls-8" points="147.84 225.51 166.65 225.58 177.1 215.03 158.44 214.97 147.84 225.51"/><polygon class="cls-7" points="166.67 225.47 185.48 225.54 195.93 215 177.27 214.93 166.67 225.47"/><polygon class="cls-8" points="185.47 225.5 204.28 225.56 214.73 215.02 196.07 214.96 185.47 225.5"/><polygon class="cls-7" points="204.17 225.46 222.98 225.52 233.43 214.98 214.77 214.91 204.17 225.46"/><polygon class="cls-8" points="222.96 225.48 241.77 225.55 252.22 215.01 233.56 214.94 222.96 225.48"/><polygon class="cls-7" points="241.8 225.44 260.61 225.51 271.06 214.97 252.4 214.9 241.8 225.44"/><polygon class="cls-8" points="260.6 225.47 279.4 225.53 289.86 214.99 271.2 214.93 260.6 225.47"/><polygon class="cls-7" points="279.29 225.57 298.1 225.64 308.55 215.1 289.89 215.03 279.29 225.57"/><polygon class="cls-8" points="298.09 225.6 316.9 225.66 327.35 215.12 308.69 215.06 298.09 225.6"/><polygon class="cls-7" points="316.93 225.56 335.74 225.62 346.19 215.08 327.53 215.02 316.93 225.56"/><polygon class="cls-8" points="335.72 225.58 354.53 225.65 364.98 215.11 346.32 215.04 335.72 225.58"/><polygon class="cls-7" points="354.42 225.69 373.23 225.75 383.68 215.21 365.02 215.15 354.42 225.69"/><polygon class="cls-8" points="373.21 225.71 392.03 225.78 402.48 215.24 383.82 215.17 373.21 225.71"/><polygon class="cls-7" points="392.05 225.67 410.86 225.74 421.31 215.2 402.65 215.13 392.05 225.67"/><polygon class="cls-8" points="410.85 225.7 429.66 225.76 440.11 215.22 421.45 215.16 410.85 225.7"/><polygon class="cls-7" points="429.55 225.66 448.36 225.72 458.81 215.18 440.15 215.12 429.55 225.66"/><polygon class="cls-8" points="448.34 225.68 467.15 225.75 477.6 215.21 458.94 215.14 448.34 225.68"/><polygon class="cls-7" points="467.18 225.64 485.99 225.71 496.44 215.17 477.78 215.1 467.18 225.64"/><polygon class="cls-8" points="485.98 225.67 504.79 225.74 515.24 215.19 496.58 215.13 485.98 225.67"/><polygon class="cls-7" points="504.85 225.92 523.66 225.99 534.11 215.44 515.45 215.38 504.85 225.92"/><polygon class="cls-8" points="523.65 225.95 542.46 226.01 552.91 215.47 534.25 215.41 523.65 225.95"/><polygon class="cls-7" points="542.48 225.91 561.29 225.97 571.75 215.43 553.09 215.37 542.48 225.91"/><polygon class="cls-8" points="561.28 225.93 580.09 226 590.54 215.46 571.88 215.39 561.28 225.93"/><polygon class="cls-7" points="579.98 226.04 598.79 226.1 609.24 215.56 590.58 215.5 579.98 226.04"/><polygon class="cls-8" points="598.77 226.06 617.59 226.13 628.04 215.59 609.38 215.52 598.77 226.06"/><polygon class="cls-7" points="617.61 226.02 636.42 226.09 646.87 215.55 628.21 215.48 617.61 226.02"/><polygon class="cls-8" points="636.41 226.05 655.22 226.11 665.67 215.57 647.01 215.51 636.41 226.05"/><polygon class="cls-7" points="655.11 226.15 673.91 226.22 684.37 215.68 665.71 215.61 655.11 226.15"/><polygon class="cls-8" points="673.9 226.18 692.71 226.24 703.16 215.7 684.5 215.64 673.9 226.18"/><polygon class="cls-7" points="692.74 226.14 711.55 226.2 722 215.66 703.34 215.6 692.74 226.14"/><polygon class="cls-8" points="711.53 226.16 730.34 226.23 740.79 215.69 722.13 215.62 711.53 226.16"/><polygon class="cls-7" points="730.23 226.12 749.04 226.19 759.49 215.65 740.83 215.58 730.23 226.12"/><polygon class="cls-8" points="749.03 226.15 767.84 226.21 778.29 215.67 759.63 215.61 749.03 226.15"/><polygon class="cls-7" points="767.86 226.11 786.67 226.17 797.13 215.63 778.47 215.57 767.86 226.11"/><polygon class="cls-8" points="786.66 226.13 805.47 226.2 815.92 215.66 797.26 215.59 786.66 226.13"/><polygon class="cls-7" points="805.36 226.09 824.17 226.16 834.62 215.62 815.96 215.55 805.36 226.09"/><polygon class="cls-8" points="824.15 226.12 842.97 226.18 853.42 215.64 834.76 215.58 824.15 226.12"/><polygon class="cls-7" points="842.99 226.08 861.8 226.14 872.25 215.6 853.59 215.54 842.99 226.08"/><polygon class="cls-8" points="861.79 226.1 880.6 226.17 891.05 215.63 872.39 215.56 861.79 226.1"/><polygon class="cls-7" points="880.49 226.21 899.3 226.27 909.75 215.73 891.09 215.67 880.49 226.21"/><polygon class="cls-8" points="899.28 226.24 918.09 226.3 929.11 215.76 909.88 215.69 899.28 226.24"/><polygon class="cls-7" points="918.12 226.19 937.49 226.26 947.95 215.72 929.28 215.65 918.12 226.19"/><polygon class="cls-8" points="937.48 226.22 956.29 226.29 966.18 215.75 948.08 215.68 937.48 226.22"/><polygon class="cls-7" points="956.18 226.32 974.42 226.39 984.87 215.85 966.21 215.78 956.18 226.32"/><polygon class="cls-8" points="974.41 226.35 993.22 226.42 1003.67 215.88 985.01 215.81 974.41 226.35"/><polygon class="cls-7" points="993.24 226.31 1012.05 226.38 1022.51 215.84 1003.85 215.77 993.24 226.31"/><polygon class="cls-8" points="1012.04 226.34 1030.85 226.4 1041.3 215.86 1022.64 215.8 1012.04 226.34"/><polygon class="cls-7" points="1030.74 226.29 1049.55 226.36 1060 215.82 1041.34 215.75 1030.74 226.29"/><polygon class="cls-8" points="1049.54 226.32 1068.35 226.39 1078.8 215.85 1060.14 215.78 1049.54 226.32"/><polygon class="cls-7" points="1068.37 226.28 1087.18 226.35 1097.63 215.81 1078.97 215.74 1068.37 226.28"/><polygon class="cls-8" points="1087.17 226.31 1105.98 226.37 1116.43 215.83 1097.77 215.77 1087.17 226.31"/><polygon class="cls-7" points="1105.95 226.31 1124.76 226.37 1135.21 215.83 1116.55 215.77 1105.95 226.31"/><polygon class="cls-8" points="1124.74 226.33 1143.56 226.4 1154.01 215.86 1135.35 215.79 1124.74 226.33"/><polygon class="cls-7" points="1143.58 226.29 1162.39 226.36 1172.84 215.82 1154.18 215.75 1143.58 226.29"/><polygon class="cls-8" points="1162.38 226.32 1181.19 226.38 1191.64 215.84 1172.98 215.78 1162.38 226.32"/><polygon class="cls-7" points="1181.08 226.42 1199.88 226.49 1210.34 215.95 1191.68 215.88 1181.08 226.42"/><polygon class="cls-8" points="1199.87 226.45 1218.68 226.51 1229.13 215.97 1210.47 215.91 1199.87 226.45"/><polygon class="cls-7" points="1218.71 226.41 1237.52 226.47 1247.97 215.93 1229.31 215.87 1218.71 226.41"/><polygon class="cls-8" points="1237.5 226.43 1256.31 226.5 1266.77 215.96 1248.11 215.89 1237.5 226.43"/><polygon class="cls-7" points="1256.2 226.54 1275.01 226.6 1285.46 216.06 1266.8 216 1256.2 226.54"/><polygon class="cls-8" points="1275 226.56 1293.81 226.63 1304.26 216.09 1285.6 216.02 1275 226.56"/><polygon class="cls-7" points="1293.83 226.52 1312.64 226.59 1323.1 216.05 1304.43 215.98 1293.83 226.52"/><polygon class="cls-8" points="1312.63 226.55 1331.44 226.62 1341.89 216.07 1323.23 216.01 1312.63 226.55"/><polygon class="cls-7" points="1331.33 226.51 1350.14 226.57 1360.59 216.03 1341.93 215.97 1331.33 226.51"/><polygon class="cls-8" points="1350.13 226.53 1368.93 226.6 1379.39 216.06 1360.73 215.99 1350.13 226.53"/><polygon class="cls-7" points="1368.96 226.49 1387.77 226.56 1398.22 216.02 1379.56 215.95 1368.96 226.49"/><polygon class="cls-8" points="1387.76 226.52 1406.57 226.59 1417.02 216.04 1398.36 215.98 1387.76 226.52"/><polygon class="cls-7" points="1406.45 226.48 1425.27 226.54 1435.72 216 1417.06 215.94 1406.45 226.48"/><polygon class="cls-8" points="1425.25 226.5 1444.06 226.57 1454.51 216.03 1435.85 215.97 1425.25 226.5"/><polygon class="cls-7" points="1444.09 226.46 1462.9 226.53 1473.35 215.99 1454.69 215.92 1444.09 226.46"/><polygon class="cls-8" points="1462.88 226.49 1481.69 226.56 1492.15 216.01 1473.49 215.95 1462.88 226.49"/><polygon class="cls-7" points="1481.58 226.59 1500.39 226.66 1510.84 216.12 1492.18 216.06 1481.58 226.59"/><polygon class="cls-8" points="1500.38 226.62 1519.19 226.69 1529.64 216.15 1510.98 216.08 1500.38 226.62"/><polygon class="cls-7" points="1519.21 226.58 1538.03 226.65 1548.48 216.1 1529.82 216.04 1519.21 226.58"/><polygon class="cls-8" points="1538.01 226.61 1556.82 226.67 1567.27 216.13 1548.61 216.07 1538.01 226.61"/><polygon class="cls-7" points="1556.71 226.71 1575.52 226.78 1585.97 216.24 1567.31 216.17 1556.71 226.71"/><polygon class="cls-8" points="1575.51 226.74 1594.32 226.8 1604.77 216.26 1586.11 216.2 1575.51 226.74"/><polygon class="cls-7" points="1594.34 226.7 1613.15 226.76 1623.6 216.22 1604.94 216.16 1594.34 226.7"/><polygon class="cls-8" points="1613.14 226.72 1631.95 226.79 1642.4 216.25 1623.74 216.18 1613.14 226.72"/><polygon class="cls-7" points="1631.84 226.68 1650.65 226.75 1661.1 216.21 1642.44 216.14 1631.84 226.68"/><polygon class="cls-8" points="1650.63 226.71 1669.44 226.77 1679.89 216.23 1661.23 216.17 1650.63 226.71"/><polygon class="cls-7" points="1669.47 226.67 1688.28 226.73 1698.73 216.19 1680.07 216.13 1669.47 226.67"/><polygon class="cls-8" points="1688.26 226.69 1707.07 226.76 1717.53 216.22 1698.87 216.15 1688.26 226.69"/></g></g><g class="cls-11"><polygon class="cls-5" points="2017.31 30.18 466.81 30.77 457.8 22.96 2024.48 22.61 2017.31 30.18"/><path class="cls-5" d="M2024,23.28l-194.54.36-195.27.19c-130.24.12-260.43.39-391.3.19L851,23.67c-130.57-.26-260.82,0-391.3.1h-1.93V23.2l-.17-16.79V5.78h2.11l391-.44,391-.12,195.5,0,195.5.26q195.49.3,391,.62h.85v.25Z"/><path class="cls-2" d="M2023.42,23.12l-.57-16.71s-259.82.67-390.15.87l-195.5.26-195.5,0-391-.12L458.53,6.41l1.18,16.21c130.18.08,260.6.36,390.69.11l390.15-.36c129.8-.2,260.27.08,390.7.19Z"/><g class="cls-12"><polygon class="cls-7" points="337.28 15.95 356.09 16.01 366.54 5.47 347.88 5.41 337.28 15.95"/><polygon class="cls-8" points="356.08 15.97 374.89 16.04 385.34 5.5 366.68 5.43 356.08 15.97"/><polygon class="cls-7" points="374.91 15.93 393.72 16 404.74 5.46 385.51 5.39 374.91 15.93"/><polygon class="cls-8" points="393.71 15.96 413.08 16.02 423.54 5.48 404.88 5.42 393.71 15.96"/><polygon class="cls-7" points="412.97 16.06 431.78 16.13 442.23 5.59 423.57 5.52 412.97 16.06"/><polygon class="cls-8" points="431.77 16.09 450.58 16.15 461.03 5.61 442.37 5.55 431.77 16.09"/><polygon class="cls-7" points="450.61 16.05 469.42 16.11 479.87 5.57 461.21 5.51 450.61 16.05"/><polygon class="cls-8" points="469.4 16.07 488.21 16.14 498.66 5.6 480 5.53 469.4 16.07"/><polygon class="cls-7" points="488.1 16.18 506.91 16.24 517.36 5.7 498.7 5.64 488.1 16.18"/><polygon class="cls-8" points="506.89 16.2 525.71 16.27 536.16 5.73 517.5 5.66 506.89 16.2"/><polygon class="cls-7" points="525.73 16.16 544.54 16.23 554.99 5.69 536.33 5.62 525.73 16.16"/><polygon class="cls-8" points="544.53 16.19 563.34 16.26 573.79 5.71 555.13 5.65 544.53 16.19"/><polygon class="cls-7" points="563.23 16.15 582.04 16.21 592.49 5.67 573.83 5.61 563.23 16.15"/><polygon class="cls-8" points="582.02 16.18 600.83 16.24 611.28 5.7 592.62 5.63 582.02 16.18"/><polygon class="cls-7" points="600.86 16.14 619.67 16.2 630.12 5.66 611.46 5.59 600.86 16.14"/><polygon class="cls-8" points="619.65 16.16 638.47 16.23 648.92 5.68 630.26 5.62 619.65 16.16"/><polygon class="cls-7" points="638.35 16.12 657.16 16.18 667.61 5.64 648.95 5.58 638.35 16.12"/><polygon class="cls-8" points="657.15 16.15 675.96 16.21 686.41 5.67 667.75 5.61 657.15 16.15"/><polygon class="cls-7" points="675.99 16.11 694.79 16.17 705.25 5.63 686.59 5.56 675.99 16.11"/><polygon class="cls-8" points="694.78 16.13 713.59 16.2 724.04 5.66 705.38 5.59 694.78 16.13"/><polygon class="cls-7" points="713.48 16.23 732.29 16.3 742.74 5.76 724.08 5.7 713.48 16.23"/><polygon class="cls-8" points="732.27 16.26 751.09 16.33 761.54 5.79 742.88 5.72 732.27 16.26"/><polygon class="cls-7" points="751.11 16.22 769.92 16.29 780.37 5.75 761.71 5.68 751.11 16.22"/><polygon class="cls-8" points="769.91 16.25 788.72 16.31 799.17 5.77 780.51 5.71 769.91 16.25"/><polygon class="cls-7" points="788.61 16.35 807.42 16.42 817.87 5.88 799.21 5.81 788.61 16.35"/><polygon class="cls-8" points="807.4 16.38 826.21 16.44 836.66 5.9 818 5.84 807.4 16.38"/><polygon class="cls-7" points="826.24 16.34 845.05 16.4 855.5 5.86 836.84 5.8 826.24 16.34"/><polygon class="cls-8" points="845.03 16.36 863.85 16.43 874.3 5.89 855.64 5.82 845.03 16.36"/><polygon class="cls-7" points="863.73 16.32 882.54 16.39 893 5.85 874.33 5.78 863.73 16.32"/><polygon class="cls-8" points="882.53 16.35 901.34 16.41 911.79 5.87 893.13 5.81 882.53 16.35"/><polygon class="cls-7" points="901.37 16.31 920.18 16.37 930.63 5.83 911.97 5.77 901.37 16.31"/><polygon class="cls-8" points="920.16 16.33 938.97 16.4 949.42 5.86 930.76 5.79 920.16 16.33"/><polygon class="cls-7" points="939.04 16.58 957.85 16.65 968.3 6.11 949.64 6.04 939.04 16.58"/><polygon class="cls-8" points="957.84 16.61 976.64 16.68 987.1 6.13 968.44 6.07 957.84 16.61"/><polygon class="cls-7" points="976.67 16.57 995.48 16.64 1005.93 6.09 987.27 6.03 976.67 16.57"/><polygon class="cls-8" points="995.47 16.6 1014.28 16.66 1024.73 6.12 1006.07 6.05 995.47 16.6"/><polygon class="cls-7" points="1014.16 16.7 1032.97 16.77 1043.43 6.22 1024.77 6.16 1014.16 16.7"/><polygon class="cls-8" points="1032.96 16.73 1051.77 16.79 1062.22 6.25 1043.56 6.19 1032.96 16.73"/><polygon class="cls-7" points="1051.8 16.69 1070.61 16.75 1081.06 6.21 1062.4 6.14 1051.8 16.69"/><polygon class="cls-8" points="1070.59 16.71 1089.4 16.78 1099.86 6.24 1081.19 6.17 1070.59 16.71"/><polygon class="cls-7" points="1089.29 16.82 1108.1 16.88 1118.55 6.34 1099.89 6.28 1089.29 16.82"/><polygon class="cls-8" points="1108.09 16.84 1126.9 16.91 1137.35 6.37 1118.69 6.3 1108.09 16.84"/><polygon class="cls-7" points="1126.92 16.8 1145.73 16.87 1156.19 6.33 1137.53 6.26 1126.92 16.8"/><polygon class="cls-8" points="1145.72 16.83 1164.53 16.89 1174.98 6.35 1156.32 6.29 1145.72 16.83"/><polygon class="cls-7" points="1164.42 16.79 1183.23 16.85 1193.68 6.31 1175.02 6.25 1164.42 16.79"/><polygon class="cls-8" points="1183.21 16.81 1202.03 16.88 1212.48 6.34 1193.82 6.27 1183.21 16.81"/><polygon class="cls-7" points="1202.05 16.77 1220.86 16.84 1231.31 6.3 1212.65 6.23 1202.05 16.77"/><polygon class="cls-8" points="1220.85 16.8 1239.66 16.86 1250.11 6.32 1231.45 6.26 1220.85 16.8"/><polygon class="cls-7" points="1239.55 16.76 1258.36 16.82 1268.81 6.28 1250.15 6.22 1239.55 16.76"/><polygon class="cls-8" points="1258.34 16.78 1277.15 16.85 1287.6 6.31 1268.94 6.24 1258.34 16.78"/><polygon class="cls-7" points="1277.18 16.74 1295.99 16.81 1306.44 6.27 1287.78 6.2 1277.18 16.74"/><polygon class="cls-8" points="1295.97 16.77 1314.78 16.83 1325.24 6.29 1306.58 6.23 1295.97 16.77"/><polygon class="cls-7" points="1314.67 16.87 1333.48 16.94 1343.93 6.4 1325.27 6.33 1314.67 16.87"/><polygon class="cls-8" points="1333.47 16.9 1352.28 16.96 1362.73 6.42 1344.07 6.36 1333.47 16.9"/><polygon class="cls-7" points="1352.31 16.86 1371.12 16.92 1381.57 6.38 1362.91 6.32 1352.31 16.86"/><polygon class="cls-8" points="1371.1 16.89 1389.91 16.95 1400.36 6.41 1381.7 6.34 1371.1 16.89"/><polygon class="cls-7" points="1389.8 16.99 1408.61 17.05 1419.06 6.51 1400.4 6.45 1389.8 16.99"/><polygon class="cls-8" points="1408.6 17.02 1427.4 17.08 1437.86 6.54 1419.2 6.47 1408.6 17.02"/><polygon class="cls-7" points="1427.43 16.98 1446.24 17.04 1456.69 6.5 1438.03 6.43 1427.43 16.98"/><polygon class="cls-8" points="1446.23 17 1465.04 17.07 1475.49 6.53 1456.83 6.46 1446.23 17"/><polygon class="cls-7" points="1464.93 16.96 1483.74 17.02 1494.19 6.48 1475.53 6.42 1464.93 16.96"/><polygon class="cls-8" points="1483.72 16.99 1502.53 17.05 1512.98 6.51 1494.32 6.45 1483.72 16.99"/><polygon class="cls-7" points="1502.56 16.95 1521.37 17.01 1531.82 6.47 1513.16 6.41 1502.56 16.95"/><polygon class="cls-8" points="1521.35 16.97 1540.16 17.04 1550.62 6.5 1531.96 6.43 1521.35 16.97"/><polygon class="cls-7" points="1540.13 16.97 1558.94 17.04 1569.4 6.5 1550.74 6.43 1540.13 16.97"/><polygon class="cls-8" points="1558.93 17 1577.74 17.06 1588.19 6.52 1569.53 6.46 1558.93 17"/><polygon class="cls-7" points="1577.77 16.96 1596.58 17.02 1607.03 6.48 1588.37 6.42 1577.77 16.96"/><polygon class="cls-8" points="1596.56 16.98 1615.37 17.05 1625.83 6.51 1607.16 6.44 1596.56 16.98"/><polygon class="cls-7" points="1615.26 17.09 1634.07 17.15 1644.52 6.61 1625.86 6.55 1615.26 17.09"/><polygon class="cls-8" points="1634.06 17.11 1652.87 17.18 1663.32 6.64 1644.66 6.57 1634.06 17.11"/><polygon class="cls-7" points="1652.89 17.07 1671.7 17.14 1682.16 6.6 1663.5 6.53 1652.89 17.07"/><polygon class="cls-8" points="1671.69 17.1 1690.5 17.16 1700.95 6.62 1682.29 6.56 1671.69 17.1"/><polygon class="cls-7" points="1690.39 17.2 1709.2 17.27 1719.65 6.73 1700.99 6.66 1690.39 17.2"/><polygon class="cls-8" points="1709.18 17.23 1727.99 17.29 1738.45 6.75 1719.79 6.69 1709.18 17.23"/><polygon class="cls-7" points="1728.02 17.19 1746.83 17.25 1757.28 6.71 1738.62 6.65 1728.02 17.19"/><polygon class="cls-8" points="1746.82 17.21 1765.63 17.28 1776.08 6.74 1757.42 6.67 1746.82 17.21"/><polygon class="cls-7" points="1765.52 17.17 1784.33 17.24 1794.78 6.7 1776.12 6.63 1765.52 17.17"/><polygon class="cls-8" points="1784.31 17.2 1803.12 17.26 1813.57 6.72 1794.91 6.66 1784.31 17.2"/><polygon class="cls-7" points="1803.15 17.16 1821.96 17.22 1832.41 6.68 1813.75 6.62 1803.15 17.16"/><polygon class="cls-8" points="1821.94 17.18 1840.75 17.25 1851.2 6.71 1832.55 6.64 1821.94 17.18"/><polygon class="cls-7" points="1840.64 17.14 1859.45 17.21 1869.9 6.67 1851.24 6.6 1840.64 17.14"/></g></g><g class="cls-13"><polygon class="cls-5" points="1791.98 411.84 164.35 412.42 155.24 404.61 1799.23 404.27 1791.98 411.84"/><path class="cls-5" d="M1781.4,404.93l-194.54.36-195.27.2c-130.24.11-260.43.39-391.3.19l-391.85-.36c-130.56-.25-311.81,0-442.29.11h-1.93v-.58l-.16-16.79v-.62h2.11l442-.44,391-.12,195.5.05,195.49.25q195.49.31,391,.63h.85v.25Z"/><path class="cls-2" d="M1791.23,404.77l-.59-16.71s-270.24.68-405.8.88l-203.34.25-203.33.05-406.67-.12-407.91-1.06,1.23,16.22c135.4.07,271.05.36,406.36.1L977,404c135-.2,270.71.07,406.36.19Z"/><g class="cls-14"><polygon class="cls-7" points="95.28 397.6 114.09 397.67 124.54 387.13 105.88 387.06 95.28 397.6"/><polygon class="cls-8" points="114.08 397.63 132.89 397.69 143.34 387.15 124.68 387.09 114.08 397.63"/><polygon class="cls-7" points="132.91 397.59 151.72 397.65 162.18 387.11 143.52 387.05 132.91 397.59"/><polygon class="cls-8" points="151.71 397.61 170.52 397.68 180.97 387.14 162.31 387.07 151.71 397.61"/><polygon class="cls-7" points="170.41 397.72 189.22 397.78 199.67 387.24 181.01 387.18 170.41 397.72"/><polygon class="cls-8" points="189.21 397.75 208.02 397.81 218.47 387.27 199.81 387.2 189.21 397.75"/><polygon class="cls-7" points="208.04 397.7 226.85 397.77 237.3 387.23 218.64 387.16 208.04 397.7"/><polygon class="cls-8" points="226.84 397.73 245.65 397.8 256.1 387.25 237.44 387.19 226.84 397.73"/><polygon class="cls-7" points="245.54 397.83 264.35 397.9 274.8 387.36 256.14 387.29 245.54 397.83"/><polygon class="cls-8" points="264.33 397.86 283.14 397.93 293.59 387.38 274.93 387.32 264.33 397.86"/><polygon class="cls-7" points="283.17 397.82 301.98 397.88 312.43 387.35 293.77 387.28 283.17 397.82"/><polygon class="cls-8" points="301.96 397.85 320.77 397.91 331.23 387.37 312.57 387.31 301.96 397.85"/><polygon class="cls-7" points="320.66 397.81 339.47 397.87 349.92 387.33 331.26 387.26 320.66 397.81"/><polygon class="cls-8" points="339.46 397.83 358.27 397.9 368.72 387.36 350.06 387.29 339.46 397.83"/><polygon class="cls-7" points="358.3 397.79 377.11 397.86 387.56 387.31 368.9 387.25 358.3 397.79"/><polygon class="cls-8" points="377.09 397.82 395.9 397.88 406.35 387.34 387.69 387.28 377.09 397.82"/><polygon class="cls-7" points="395.79 397.77 414.6 397.84 425.05 387.3 406.39 387.24 395.79 397.77"/><polygon class="cls-8" points="414.59 397.8 433.4 397.87 443.85 387.33 425.19 387.26 414.59 397.8"/><polygon class="cls-7" points="433.42 397.76 452.23 397.83 462.68 387.29 444.02 387.22 433.42 397.76"/><polygon class="cls-8" points="452.22 397.79 471.03 397.85 481.48 387.31 462.82 387.25 452.22 397.79"/><polygon class="cls-7" points="470.92 397.89 489.73 397.96 500.18 387.42 481.52 387.35 470.92 397.89"/><polygon class="cls-8" points="489.71 397.92 508.52 397.98 518.97 387.44 500.31 387.38 489.71 397.92"/><polygon class="cls-7" points="508.55 397.88 527.36 397.94 537.81 387.4 519.15 387.34 508.55 397.88"/><polygon class="cls-8" points="527.35 397.9 546.15 397.97 556.61 387.43 537.95 387.36 527.35 397.9"/><polygon class="cls-7" points="546.04 398.01 564.85 398.07 575.3 387.53 556.64 387.47 546.04 398.01"/><polygon class="cls-8" points="564.84 398.03 583.65 398.1 594.1 387.56 575.44 387.49 564.84 398.03"/><polygon class="cls-7" points="583.67 397.99 602.49 398.06 612.94 387.52 594.28 387.45 583.67 397.99"/><polygon class="cls-8" points="602.47 398.02 621.28 398.08 631.73 387.54 613.07 387.48 602.47 398.02"/><polygon class="cls-7" points="621.17 397.98 639.98 398.04 650.43 387.5 631.77 387.44 621.17 397.98"/><polygon class="cls-8" points="639.97 398 658.78 398.07 669.23 387.53 650.57 387.46 639.97 398"/><polygon class="cls-7" points="658.8 397.96 677.61 398.03 688.06 387.49 669.4 387.42 658.8 397.96"/><polygon class="cls-8" points="677.6 397.99 696.41 398.06 706.86 387.51 688.2 387.45 677.6 397.99"/><polygon class="cls-7" points="696.48 398.24 715.29 398.31 725.74 387.76 707.08 387.7 696.48 398.24"/><polygon class="cls-8" points="715.27 398.27 734.08 398.33 744.53 387.79 725.87 387.73 715.27 398.27"/><polygon class="cls-7" points="734.11 398.23 752.92 398.29 763.37 387.75 744.71 387.69 734.11 398.23"/><polygon class="cls-8" points="752.9 398.25 771.71 398.32 782.17 387.78 763.51 387.71 752.9 398.25"/><polygon class="cls-7" points="771.6 398.36 790.41 398.42 800.86 387.88 782.2 387.82 771.6 398.36"/><polygon class="cls-8" points="790.4 398.38 809.21 398.45 819.66 387.91 801 387.84 790.4 398.38"/><polygon class="cls-7" points="809.23 398.34 828.04 398.41 838.5 387.87 819.84 387.8 809.23 398.34"/><polygon class="cls-8" points="828.03 398.37 846.84 398.43 857.29 387.89 838.63 387.83 828.03 398.37"/><polygon class="cls-7" points="846.73 398.47 865.54 398.54 875.99 388 857.33 387.93 846.73 398.47"/><polygon class="cls-8" points="865.52 398.5 884.34 398.56 894.79 388.02 876.13 387.96 865.52 398.5"/><polygon class="cls-7" points="884.36 398.46 903.17 398.52 913.62 387.98 894.96 387.92 884.36 398.46"/><polygon class="cls-8" points="903.16 398.48 921.97 398.55 932.42 388.01 913.76 387.94 903.16 398.48"/><polygon class="cls-7" points="921.86 398.44 940.67 398.51 951.12 387.97 932.46 387.9 921.86 398.44"/><polygon class="cls-8" points="940.65 398.47 959.46 398.53 969.91 387.99 951.25 387.93 940.65 398.47"/><polygon class="cls-7" points="959.49 398.43 978.3 398.49 988.75 387.95 970.09 387.89 959.49 398.43"/><polygon class="cls-8" points="978.28 398.45 997.09 398.52 1007.55 387.98 988.89 387.91 978.28 398.45"/><polygon class="cls-7" points="996.98 398.41 1015.79 398.48 1026.24 387.94 1007.58 387.87 996.98 398.41"/><polygon class="cls-8" points="1015.78 398.44 1034.59 398.5 1045.04 387.96 1026.38 387.9 1015.78 398.44"/><polygon class="cls-7" points="1034.62 398.4 1053.42 398.46 1063.88 387.92 1045.22 387.86 1034.62 398.4"/><polygon class="cls-8" points="1053.41 398.42 1072.22 398.49 1082.67 387.95 1064.01 387.88 1053.41 398.42"/><polygon class="cls-7" points="1072.11 398.53 1090.92 398.59 1101.37 388.05 1082.71 387.99 1072.11 398.53"/><polygon class="cls-8" points="1090.9 398.56 1109.71 398.62 1120.17 388.08 1101.51 388.01 1090.9 398.56"/><polygon class="cls-7" points="1109.74 398.51 1128.55 398.58 1139 388.04 1120.34 387.97 1109.74 398.51"/><polygon class="cls-8" points="1128.54 398.54 1147.35 398.61 1157.8 388.06 1139.14 388 1128.54 398.54"/><polygon class="cls-7" points="1147.24 398.64 1166.05 398.71 1176.5 388.17 1157.84 388.11 1147.24 398.64"/><polygon class="cls-8" points="1166.03 398.67 1184.84 398.74 1195.29 388.2 1176.63 388.13 1166.03 398.67"/><polygon class="cls-7" points="1184.87 398.63 1203.68 398.7 1214.13 388.15 1195.47 388.09 1184.87 398.63"/><polygon class="cls-8" points="1203.66 398.66 1222.47 398.72 1232.93 388.18 1214.27 388.12 1203.66 398.66"/><polygon class="cls-7" points="1222.36 398.62 1241.17 398.68 1251.62 388.14 1232.96 388.07 1222.36 398.62"/><polygon class="cls-8" points="1241.16 398.64 1259.97 398.71 1270.42 388.17 1251.76 388.1 1241.16 398.64"/><polygon class="cls-7" points="1259.99 398.6 1278.81 398.67 1289.26 388.13 1270.6 388.06 1259.99 398.6"/><polygon class="cls-8" points="1278.79 398.63 1297.6 398.69 1308.05 388.15 1289.39 388.09 1278.79 398.63"/><polygon class="cls-7" points="1297.57 398.63 1316.38 398.69 1326.83 388.15 1308.17 388.09 1297.57 398.63"/><polygon class="cls-8" points="1316.37 398.65 1335.18 398.72 1345.63 388.18 1326.97 388.11 1316.37 398.65"/><polygon class="cls-7" points="1335.2 398.61 1354.02 398.68 1364.47 388.14 1345.81 388.07 1335.2 398.61"/><polygon class="cls-8" points="1354 398.64 1372.81 398.7 1383.26 388.16 1364.6 388.1 1354 398.64"/><polygon class="cls-7" points="1372.7 398.74 1391.51 398.81 1401.96 388.27 1383.3 388.2 1372.7 398.74"/><polygon class="cls-8" points="1391.49 398.77 1410.31 398.83 1420.76 388.29 1402.1 388.23 1391.49 398.77"/><polygon class="cls-7" points="1410.33 398.73 1429.14 398.79 1439.59 388.25 1420.93 388.19 1410.33 398.73"/><polygon class="cls-8" points="1429.13 398.75 1447.94 398.82 1458.39 388.28 1439.73 388.21 1429.13 398.75"/><polygon class="cls-7" points="1447.83 398.86 1466.63 398.92 1477.09 388.38 1458.43 388.32 1447.83 398.86"/><polygon class="cls-8" points="1466.62 398.88 1485.43 398.95 1495.88 388.41 1477.22 388.34 1466.62 398.88"/><polygon class="cls-7" points="1485.46 398.84 1504.27 398.91 1514.72 388.37 1496.06 388.3 1485.46 398.84"/><polygon class="cls-8" points="1504.25 398.87 1523.06 398.94 1533.52 388.39 1514.86 388.33 1504.25 398.87"/><polygon class="cls-7" points="1522.95 398.83 1541.76 398.89 1552.21 388.35 1533.55 388.29 1522.95 398.83"/><polygon class="cls-8" points="1541.75 398.86 1560.56 398.92 1571.01 388.38 1552.35 388.31 1541.75 398.86"/><polygon class="cls-7" points="1560.58 398.81 1579.39 398.88 1589.85 388.34 1571.19 388.27 1560.58 398.81"/><polygon class="cls-8" points="1579.38 398.84 1598.19 398.91 1608.64 388.37 1589.98 388.3 1579.38 398.84"/><polygon class="cls-7" points="1598.08 398.8 1616.89 398.87 1627.34 388.32 1608.68 388.26 1598.08 398.8"/><polygon class="cls-8" points="1616.88 398.82 1635.68 398.89 1646.14 388.35 1627.48 388.29 1616.88 398.82"/><polygon class="cls-7" points="1635.71 398.79 1654.52 398.85 1664.97 388.31 1646.31 388.24 1635.71 398.79"/><polygon class="cls-8" points="1654.51 398.81 1673.32 398.88 1683.77 388.33 1665.11 388.27 1654.51 398.81"/><polygon class="cls-7" points="1673.2 398.92 1692.02 398.98 1702.47 388.44 1683.81 388.38 1673.2 398.92"/><polygon class="cls-8" points="1692 398.94 1710.81 399.01 1721.26 388.47 1702.6 388.4 1692 398.94"/><polygon class="cls-7" points="1710.84 398.9 1729.65 398.97 1740.1 388.43 1721.44 388.36 1710.84 398.9"/><polygon class="cls-8" points="1729.63 398.93 1748.44 398.99 1758.9 388.45 1740.24 388.39 1729.63 398.93"/><polygon class="cls-7" points="1748.33 399.03 1767.14 399.1 1777.59 388.56 1758.93 388.49 1748.33 399.03"/><polygon class="cls-8" points="1767.13 399.06 1785.94 399.12 1796.39 388.58 1777.73 388.52 1767.13 399.06"/><polygon class="cls-7" points="1785.96 399.02 1804.78 399.08 1815.23 388.54 1796.57 388.48 1785.96 399.02"/><polygon class="cls-8" points="1804.76 399.04 1823.57 399.11 1834.02 388.57 1815.36 388.5 1804.76 399.04"/><polygon class="cls-7" points="1823.46 399 1842.27 399.07 1852.72 388.53 1834.06 388.46 1823.46 399"/><polygon class="cls-8" points="1842.26 399.03 1861.07 399.09 1871.52 388.55 1852.86 388.49 1842.26 399.03"/></g></g><polygon class="cls-5" points="1851.98 766.6 0.52 766.6 0 758.18 1851.82 757.83 1851.98 766.6"/><path class="cls-5" d="M1265,740.61l-106.69-.12-230.87,0-461.75.11L1.84,739.9,1.7,759H4q231.14-.11,462.11-.1l462.74.35q206.48.27,411.64-.14H1852V740.61Z"/><path class="cls-2" d="M1852.21,758.34l-.63-16.71s-418.35.67-561.37.88l-214.54.25-214.53,0-429.07-.12L1.7,741.63,3,757.84c142.86.08,286,.36,428.74.11l428.14-.35c142.43-.2,285.61.07,428.74.18Z"/><g class="cls-15"><polygon class="cls-7" points="45.23 751.17 64.04 751.23 74.49 740.69 55.83 740.63 45.23 751.17"/><polygon class="cls-8" points="64.03 751.2 82.83 751.26 93.29 740.72 74.63 740.65 64.03 751.2"/><polygon class="cls-7" points="82.86 751.15 101.67 751.22 112.12 740.68 93.46 740.61 82.86 751.15"/><polygon class="cls-8" points="101.66 751.18 120.47 751.25 130.92 740.71 112.26 740.64 101.66 751.18"/><polygon class="cls-8" points="-11.39 751.2 7.42 751.26 17.87 740.72 -0.79 740.65 -11.39 751.2"/><polygon class="cls-7" points="7.45 751.15 26.26 751.22 36.71 740.68 18.05 740.61 7.45 751.15"/><polygon class="cls-8" points="26.24 751.18 45.05 751.25 55.51 740.71 36.85 740.64 26.24 751.18"/><polygon class="cls-7" points="120.36 751.28 139.16 751.35 149.62 740.81 130.96 740.74 120.36 751.28"/><polygon class="cls-8" points="139.15 751.31 157.96 751.38 168.41 740.84 149.75 740.77 139.15 751.31"/><polygon class="cls-7" points="157.99 751.27 176.8 751.34 187.25 740.79 168.59 740.73 157.99 751.27"/><polygon class="cls-8" points="176.78 751.3 195.59 751.36 206.04 740.82 187.38 740.76 176.78 751.3"/><polygon class="cls-7" points="195.48 751.4 214.29 751.47 224.74 740.92 206.08 740.86 195.48 751.4"/><polygon class="cls-8" points="214.28 751.43 233.09 751.49 243.54 740.95 224.88 740.89 214.28 751.43"/><polygon class="cls-7" points="233.11 751.39 251.92 751.45 262.38 740.91 243.72 740.85 233.11 751.39"/><polygon class="cls-8" points="251.91 751.41 270.72 751.48 281.17 740.94 262.51 740.87 251.91 751.41"/><polygon class="cls-7" points="270.61 751.37 289.42 751.44 299.87 740.9 281.21 740.83 270.61 751.37"/><polygon class="cls-8" points="289.4 751.4 308.21 751.46 318.67 740.92 300.01 740.86 289.4 751.4"/><polygon class="cls-7" points="308.24 751.36 327.05 751.42 337.5 740.88 318.84 740.82 308.24 751.36"/><polygon class="cls-8" points="327.04 751.38 345.85 751.45 356.3 740.91 337.64 740.84 327.04 751.38"/><polygon class="cls-7" points="345.74 751.34 364.55 751.41 375 740.87 356.34 740.8 345.74 751.34"/><polygon class="cls-8" points="364.53 751.37 383.34 751.43 393.79 740.89 375.13 740.83 364.53 751.37"/><polygon class="cls-7" points="383.37 751.33 402.18 751.39 412.63 740.85 393.97 740.79 383.37 751.33"/><polygon class="cls-8" points="402.16 751.35 420.97 751.42 431.43 740.88 412.77 740.81 402.16 751.35"/><polygon class="cls-7" points="420.86 751.46 439.67 751.52 450.12 740.98 431.46 740.92 420.86 751.46"/><polygon class="cls-8" points="439.66 751.48 458.47 751.55 468.92 741.01 450.26 740.94 439.66 751.48"/><polygon class="cls-7" points="458.49 751.44 477.31 751.51 487.76 740.97 469.1 740.9 458.49 751.44"/><polygon class="cls-8" points="477.29 751.47 496.1 751.53 506.55 740.99 487.89 740.93 477.29 751.47"/><polygon class="cls-7" points="495.99 751.57 514.8 751.64 525.25 741.1 506.59 741.03 495.99 751.57"/><polygon class="cls-8" points="514.78 751.6 533.6 751.66 544.05 741.12 525.39 741.06 514.78 751.6"/><polygon class="cls-7" points="533.62 751.56 552.43 751.63 562.88 741.08 544.22 741.02 533.62 751.56"/><polygon class="cls-8" points="552.42 751.59 571.23 751.65 581.68 741.11 563.02 741.04 552.42 751.59"/><polygon class="cls-7" points="571.12 751.54 589.93 751.61 600.38 741.07 581.72 741 571.12 751.54"/><polygon class="cls-8" points="589.91 751.57 608.72 751.64 619.17 741.1 600.51 741.03 589.91 751.57"/><polygon class="cls-7" points="608.75 751.53 627.56 751.6 638.01 741.05 619.35 740.99 608.75 751.53"/><polygon class="cls-8" points="627.54 751.56 646.35 751.62 656.81 741.08 638.15 741.01 627.54 751.56"/><polygon class="cls-7" points="646.42 751.81 665.23 751.87 675.68 741.33 657.02 741.27 646.42 751.81"/><polygon class="cls-8" points="665.22 751.83 684.03 751.9 694.48 741.36 675.82 741.29 665.22 751.83"/><polygon class="cls-7" points="684.05 751.79 702.86 751.86 713.32 741.32 694.65 741.25 684.05 751.79"/><polygon class="cls-8" points="702.85 751.82 721.66 751.88 732.11 741.34 713.45 741.28 702.85 751.82"/><polygon class="cls-7" points="721.55 751.92 740.36 751.99 750.81 741.45 732.15 741.38 721.55 751.92"/><polygon class="cls-8" points="740.34 751.95 759.15 752.01 769.61 741.47 750.95 741.41 740.34 751.95"/><polygon class="cls-7" points="759.18 751.91 777.99 751.97 788.44 741.43 769.78 741.37 759.18 751.91"/><polygon class="cls-8" points="777.98 751.93 796.79 752 807.24 741.46 788.58 741.39 777.98 751.93"/><polygon class="cls-7" points="796.67 752.04 815.49 752.1 825.94 741.56 807.28 741.5 796.67 752.04"/><polygon class="cls-8" points="815.47 752.06 834.28 752.13 844.73 741.59 826.07 741.52 815.47 752.06"/><polygon class="cls-7" points="834.31 752.02 853.12 752.09 863.57 741.55 844.91 741.48 834.31 752.02"/><polygon class="cls-8" points="853.1 752.05 871.91 752.12 882.37 741.57 863.7 741.51 853.1 752.05"/><polygon class="cls-7" points="871.8 752.01 890.61 752.07 901.06 741.53 882.4 741.47 871.8 752.01"/><polygon class="cls-8" points="890.6 752.03 909.41 752.1 919.86 741.56 901.2 741.49 890.6 752.03"/><polygon class="cls-7" points="909.43 751.99 928.24 752.06 938.7 741.52 920.03 741.45 909.43 751.99"/><polygon class="cls-8" points="928.23 752.02 947.04 752.09 957.49 741.54 938.83 741.48 928.23 752.02"/><polygon class="cls-7" points="946.93 751.98 965.74 752.04 976.19 741.5 957.53 741.44 946.93 751.98"/><polygon class="cls-8" points="965.72 752 984.53 752.07 994.99 741.53 976.33 741.47 965.72 752"/><polygon class="cls-7" points="984.56 751.97 1003.37 752.03 1013.82 741.49 995.16 741.42 984.56 751.97"/><polygon class="cls-8" points="1003.36 751.99 1022.17 752.06 1032.62 741.51 1013.96 741.45 1003.36 751.99"/><polygon class="cls-7" points="1022.05 752.1 1040.87 752.16 1051.32 741.62 1032.66 741.55 1022.05 752.1"/><polygon class="cls-8" points="1040.85 752.12 1059.66 752.19 1070.11 741.65 1051.45 741.58 1040.85 752.12"/><polygon class="cls-7" points="1059.69 752.08 1078.5 752.15 1088.95 741.61 1070.29 741.54 1059.69 752.08"/><polygon class="cls-8" points="1078.48 752.11 1097.29 752.17 1107.74 741.63 1089.09 741.57 1078.48 752.11"/><polygon class="cls-7" points="1097.18 752.21 1115.99 752.28 1126.44 741.74 1107.78 741.67 1097.18 752.21"/><polygon class="cls-8" points="1115.98 752.24 1134.79 752.3 1145.24 741.76 1126.58 741.7 1115.98 752.24"/><polygon class="cls-7" points="1134.81 752.2 1153.62 752.26 1164.08 741.72 1145.41 741.66 1134.81 752.2"/><polygon class="cls-8" points="1153.61 752.22 1172.42 752.29 1182.87 741.75 1164.21 741.68 1153.61 752.22"/><polygon class="cls-7" points="1172.31 752.18 1191.12 752.25 1201.57 741.71 1182.91 741.64 1172.31 752.18"/><polygon class="cls-8" points="1191.1 752.21 1209.91 752.27 1220.37 741.73 1201.71 741.67 1191.1 752.21"/><polygon class="cls-7" points="1209.94 752.17 1228.75 752.23 1239.2 741.69 1220.54 741.63 1209.94 752.17"/><polygon class="cls-8" points="1228.74 752.19 1247.55 752.26 1258 741.72 1239.34 741.65 1228.74 752.19"/><polygon class="cls-7" points="1247.52 752.19 1266.33 752.26 1276.78 741.72 1258.12 741.65 1247.52 752.19"/><polygon class="cls-8" points="1266.31 752.22 1285.12 752.28 1295.58 741.74 1276.91 741.68 1266.31 752.22"/><polygon class="cls-7" points="1285.15 752.18 1303.96 752.24 1314.41 741.7 1295.75 741.64 1285.15 752.18"/><polygon class="cls-8" points="1303.95 752.2 1322.76 752.27 1333.21 741.73 1314.55 741.66 1303.95 752.2"/><polygon class="cls-7" points="1322.64 752.31 1341.45 752.37 1351.91 741.83 1333.25 741.77 1322.64 752.31"/><polygon class="cls-8" points="1341.44 752.34 1360.25 752.4 1370.7 741.86 1352.04 741.79 1341.44 752.34"/><polygon class="cls-7" points="1360.28 752.29 1379.09 752.36 1389.54 741.82 1370.88 741.75 1360.28 752.29"/><polygon class="cls-8" points="1379.07 752.32 1397.88 752.38 1408.33 741.85 1389.67 741.78 1379.07 752.32"/><polygon class="cls-7" points="1397.77 752.42 1416.58 752.49 1427.03 741.95 1408.37 741.88 1397.77 752.42"/><polygon class="cls-8" points="1416.57 752.45 1435.38 752.52 1445.83 741.98 1427.17 741.91 1416.57 752.45"/><polygon class="cls-7" points="1435.4 752.41 1454.21 752.48 1464.66 741.93 1446.01 741.87 1435.4 752.41"/><polygon class="cls-8" points="1454.2 752.44 1473.01 752.5 1483.46 741.96 1464.8 741.9 1454.2 752.44"/><polygon class="cls-7" points="1472.9 752.39 1491.71 752.46 1502.16 741.92 1483.5 741.85 1472.9 752.39"/><polygon class="cls-8" points="1491.69 752.42 1510.5 752.49 1520.96 741.95 1502.3 741.88 1491.69 752.42"/><polygon class="cls-7" points="1510.53 752.38 1529.34 752.45 1539.79 741.9 1521.13 741.84 1510.53 752.38"/><polygon class="cls-8" points="1529.33 752.41 1548.14 752.47 1558.59 741.93 1539.93 741.87 1529.33 752.41"/><polygon class="cls-7" points="1548.03 752.37 1566.84 752.43 1577.29 741.89 1558.63 741.83 1548.03 752.37"/><polygon class="cls-8" points="1566.82 752.39 1585.63 752.46 1596.08 741.92 1577.42 741.85 1566.82 752.39"/><polygon class="cls-7" points="1585.66 752.35 1604.47 752.42 1614.92 741.88 1596.26 741.81 1585.66 752.35"/><polygon class="cls-8" points="1604.45 752.38 1623.26 752.44 1633.71 741.9 1615.06 741.84 1604.45 752.38"/><polygon class="cls-7" points="1623.15 752.48 1641.96 752.55 1652.41 742.01 1633.75 741.94 1623.15 752.48"/><polygon class="cls-8" points="1641.95 752.51 1660.76 752.57 1671.21 742.03 1652.55 741.97 1641.95 752.51"/><polygon class="cls-7" points="1660.78 752.47 1679.59 752.53 1690.05 741.99 1671.38 741.93 1660.78 752.47"/><polygon class="cls-8" points="1679.58 752.49 1698.39 752.56 1708.84 742.02 1690.18 741.95 1679.58 752.49"/><polygon class="cls-7" points="1698.28 752.6 1717.09 752.66 1727.54 742.12 1708.88 742.06 1698.28 752.6"/><polygon class="cls-8" points="1717.07 752.62 1735.88 752.69 1746.34 742.15 1727.68 742.08 1717.07 752.62"/><polygon class="cls-7" points="1735.91 752.58 1754.72 752.65 1765.17 742.11 1746.51 742.04 1735.91 752.58"/><polygon class="cls-8" points="1754.71 752.61 1773.52 752.67 1783.97 742.13 1765.31 742.07 1754.71 752.61"/><polygon class="cls-7" points="1773.4 752.57 1792.21 752.63 1802.67 742.09 1784.01 742.03 1773.4 752.57"/><polygon class="cls-8" points="1792.2 752.59 1811.01 752.66 1821.46 742.12 1802.8 742.05 1792.2 752.59"/><polygon class="cls-7" points="1811.04 752.55 1829.85 752.62 1840.3 742.08 1821.64 742.01 1811.04 752.55"/><polygon class="cls-8" points="1829.83 752.58 1848.64 752.64 1859.1 742.1 1840.43 742.04 1829.83 752.58"/></g></g></svg>