<?xml version="1.0" encoding="UTF-8" standalone="no"?>
<!-- Created with Inkscape (http://www.inkscape.org/) -->

<svg
   xmlns:dc="http://purl.org/dc/elements/1.1/"
   xmlns:cc="http://creativecommons.org/ns#"
   xmlns:rdf="http://www.w3.org/1999/02/22-rdf-syntax-ns#"
   xmlns:svg="http://www.w3.org/2000/svg"
   xmlns="http://www.w3.org/2000/svg"
   xmlns:sodipodi="http://sodipodi.sourceforge.net/DTD/sodipodi-0.dtd"
   xmlns:inkscape="http://www.inkscape.org/namespaces/inkscape"
   width="210mm"
   height="297mm"
   viewBox="0 0 210 297"
   version="1.1"
   id="svg8"
   inkscape:version="0.92.4 (5da689c313, 2019-01-14)"
   sodipodi:docname="pomya.svg">
  <defs
     id="defs2" />
  <sodipodi:namedview
     id="base"
     pagecolor="#ffffff"
     bordercolor="#666666"
     borderopacity="1.0"
     inkscape:pageopacity="0.0"
     inkscape:pageshadow="2"
     inkscape:zoom="2.8"
     inkscape:cx="210.80251"
     inkscape:cy="500.47169"
     inkscape:document-units="mm"
     inkscape:current-layer="layer1"
     showgrid="false"
     inkscape:snap-global="false"
     inkscape:window-width="1920"
     inkscape:window-height="1017"
     inkscape:window-x="-8"
     inkscape:window-y="-8"
     inkscape:window-maximized="1" />
  <metadata
     id="metadata5">
    <rdf:RDF>
      <cc:Work
         rdf:about="">
        <dc:format>image/svg+xml</dc:format>
        <dc:type
           rdf:resource="http://purl.org/dc/dcmitype/StillImage" />
        <dc:title></dc:title>
      </cc:Work>
    </rdf:RDF>
  </metadata>
  <g
     inkscape:label="Layer 1"
     inkscape:groupmode="layer"
     id="layer1">
    <path
       style="fill:#00ffff;fill-opacity:1;stroke:#000000;stroke-width:0.26458332px;stroke-linecap:butt;stroke-linejoin:miter;stroke-opacity:1"
       d="m 66.26213,169.71819 c 0,0 2.069373,7.3833 -0.0095,13.05294 0,0 -2.447346,13.97236 -1.313418,15.48427 0,0 4.619,-0.14229 6.1558,-0.4764 0,0 3.407687,-3.34085 2.53906,-26.9942 l -2.472242,-6.48129 -4.877669,1.80407 z"
       id="path4595-3"
       inkscape:connector-curvature="0"
       sodipodi:nodetypes="cccccccc" />
    <path
       style="fill:#00ffff;stroke:#000000;stroke-width:0.26458332px;stroke-linecap:butt;stroke-linejoin:miter;stroke-opacity:1;fill-opacity:1"
       d="m 51.026784,173.59077 c 0,0 -2.456845,17.5759 -5.85863,22.86756 0,0 -0.377975,3.02381 0.188989,3.77976 0,0 5.102678,0.37798 8.693452,-0.56696 0,0 3.590774,-13.41815 2.078869,-23.8125 l 0.566965,-6.61458 -5.858631,-1.7009 z"
       id="path848"
       inkscape:connector-curvature="0"
       sodipodi:nodetypes="cccccccc" />
    <ellipse
       style="fill:#00ffff;stroke:#000000;stroke-width:0.26458332;stroke-opacity:1"
       id="path817-2"
       cx="57.641369"
       cy="164.51935"
       rx="11.055803"
       ry="11.528275" />
    <ellipse
       style="fill:#00ffff;stroke:#000000;stroke-width:0.18637034;stroke-opacity:1"
       id="path817-4"
       cx="71.34301"
       cy="159.74947"
       rx="7.7876182"
       ry="8.1204233" />
    <path
       style="fill:#00ffff;fill-opacity:1;stroke:#000000;stroke-width:0.26458332px;stroke-linecap:butt;stroke-linejoin:miter;stroke-opacity:1"
       d="m 46.869048,164.14137 c -1.700893,-3.96875 -1.511906,-8.12649 -1.511906,-8.12649 l 5.480656,-13.22917 c 0.188986,1.13393 0.188986,10.39435 5.669642,10.20536"
       id="path846"
       inkscape:connector-curvature="0"
       sodipodi:nodetypes="cccc" />
    <path
       style="fill:#00ffff;fill-opacity:1;stroke:#000000;stroke-width:0.26458332px;stroke-linecap:butt;stroke-linejoin:miter;stroke-opacity:1"
       d="m 70.559154,167.37428 c 0,0 4.810852,10.15624 4.810852,13.89801 0,0 -0.668174,11.49259 -2.539061,15.63527 0,0 -1.069078,1.60362 -0.133634,2.6727 0,0 3.340869,1.46998 7.750816,-0.26727 0,0 4.543582,-15.10073 0.801808,-22.45064 l -2.271791,-0.93545 0.259859,1.88571 -0.29437,-1.93156 0.08847,-2.67617 c 0.114183,-1.89059 1.148751,-6.09787 0.07967,-13.18051"
       id="path4612"
       inkscape:connector-curvature="0"
       sodipodi:nodetypes="ccccccccccc" />
    <path
       style="fill:#00ffff;fill-opacity:1;stroke:#000000;stroke-width:0.26458332px;stroke-linecap:butt;stroke-linejoin:miter;stroke-opacity:1"
       d="m 57.663401,169.98016 -0.02203,3.61061 c 0,0 1.13393,19.27679 -0.944941,24.94643 0,0 -1.511903,2.07887 -0.377975,3.59078 0,0 8.227139,0.12498 9.763939,-0.20913 0,0 1.804069,-15.76888 -1.069079,-27.26147 l -2.472242,-6.48129"
       id="path4595"
       inkscape:connector-curvature="0"
       sodipodi:nodetypes="ccccccc" />
    <ellipse
       style="fill:#00ffff;stroke:#000000;stroke-width:0.26458332;stroke-opacity:1;fill-opacity:1"
       id="path817"
       cx="40.537945"
       cy="145.80952"
       rx="11.055803"
       ry="11.528275" />
    <rect
       style="fill:#00ffff;fill-opacity:1;stroke:none;stroke-width:0.26458332;stroke-opacity:1"
       id="rect4622"
       width="6.1421113"
       height="9.3549089"
       x="62.366066"
       y="156.58185"
       ry="0" />
    <path
       style="fill:none;stroke:#000000;stroke-width:0.26458332px;stroke-linecap:butt;stroke-linejoin:miter;stroke-opacity:1"
       d="m 59.34226,153.08556 c 0,0 3.401788,2.83483 9.260417,-0.94494 l -3.968748,6.89807 z"
       id="path4624"
       inkscape:connector-curvature="0" />
  </g>
</svg>
