<?xml version="1.0" encoding="UTF-8" standalone="no"?>
<!-- Created with Inkscape (http://www.inkscape.org/) -->

<svg
   xmlns:dc="http://purl.org/dc/elements/1.1/"
   xmlns:cc="http://creativecommons.org/ns#"
   xmlns:rdf="http://www.w3.org/1999/02/22-rdf-syntax-ns#"
   xmlns:svg="http://www.w3.org/2000/svg"
   xmlns="http://www.w3.org/2000/svg"
   xmlns:sodipodi="http://sodipodi.sourceforge.net/DTD/sodipodi-0.dtd"
   xmlns:inkscape="http://www.inkscape.org/namespaces/inkscape"
   width="210mm"
   height="297mm"
   viewBox="0 0 210 297"
   version="1.1"
   id="svg8"
   inkscape:version="0.92.4 (5da689c313, 2019-01-14)"
   sodipodi:docname="PONY.svg">
  <defs
     id="defs2" />
  <sodipodi:namedview
     id="base"
     pagecolor="#ffffff"
     bordercolor="#666666"
     borderopacity="1.0"
     inkscape:pageopacity="0.0"
     inkscape:pageshadow="2"
     inkscape:zoom="22.4"
     inkscape:cx="202.79466"
     inkscape:cy="530.62365"
     inkscape:document-units="mm"
     inkscape:current-layer="layer5"
     showgrid="false"
     inkscape:snap-global="false"
     inkscape:window-width="1920"
     inkscape:window-height="1017"
     inkscape:window-x="-8"
     inkscape:window-y="-8"
     inkscape:window-maximized="1" />
  <metadata
     id="metadata5">
    <rdf:RDF>
      <cc:Work
         rdf:about="">
        <dc:format>image/svg+xml</dc:format>
        <dc:type
           rdf:resource="http://purl.org/dc/dcmitype/StillImage" />
        <dc:title />
      </cc:Work>
    </rdf:RDF>
  </metadata>
  <g
     inkscape:label="Layer 1"
     inkscape:groupmode="layer"
     id="layer1"
     style="display:inline">
    <ellipse
       style="fill:#00ffff;stroke:#000000;stroke-width:0.26492372;stroke-opacity:1"
       id="path837"
       cx="51.133015"
       cy="157.41849"
       rx="6.7661028"
       ry="6.748385" />
    <circle
       style="fill:#00ffff;stroke:#000000;stroke-width:0.26458332;stroke-opacity:1"
       id="path837-1"
       cx="58.799294"
       cy="169.77969"
       r="6.7485557" />
    <circle
       style="fill:#00ffff;stroke:#000000;stroke-width:0.166951;stroke-opacity:1"
       id="path837-1-8"
       cx="66.683746"
       cy="167.63617"
       r="4.2583113" />
  </g>
  <g
     inkscape:groupmode="layer"
     id="layer4"
     inkscape:label="Layer 4">
    <path
       style="display:inline;fill:#00ffff;fill-opacity:1;stroke:#000000;stroke-width:0.26458332px;stroke-linecap:butt;stroke-linejoin:miter;stroke-opacity:1"
       d="m 54.38999,174.88477 c 0,0 2.004523,10.15625 -0.133633,15.368 0,0 -1.737252,1.87089 -0.668174,2.27179 0,0 0.556076,0.70732 4.431484,0.17278 0,0 2.37161,-4.84606 -0.462973,-17.19974"
       id="path869"
       inkscape:connector-curvature="0"
       sodipodi:nodetypes="ccccc" />
    <path
       style="display:inline;fill:#00ffff;fill-opacity:1;stroke:#000000;stroke-width:0.26458332px;stroke-linecap:butt;stroke-linejoin:miter;stroke-opacity:1"
       d="m 65.717472,173.91302 c 0,0 2.004523,10.15625 -0.133633,15.368 0,0 -1.737252,1.87089 -0.668174,2.27179 0,0 0.556076,0.70732 4.431484,0.17278 0,0 2.37161,-4.84606 -0.462973,-17.19974"
       id="path869-4"
       inkscape:connector-curvature="0"
       sodipodi:nodetypes="ccccc" />
    <path
       style="display:inline;fill:#00ffff;fill-opacity:1;stroke:#000000;stroke-width:0.26458332px;stroke-linecap:butt;stroke-linejoin:miter;stroke-opacity:1"
       d="M 71.107414,166.71965 V 177.114 c 0.236236,0.0945 1.464659,0.56697 1.464659,0.56697 0,0 2.315104,9.68564 1.889881,12.61495 0,0 0,0.66146 -0.614212,0.66146 h -2.740327 c 0,0 -0.425223,-0.61421 -0.236235,-1.27567 0,0 -0.47247,-12.61495 -4.015997,-17.67039"
       id="path907"
       inkscape:connector-curvature="0" />
    <path
       style="fill:#3500ff;stroke:#000000;stroke-width:0.26458332px;stroke-linecap:butt;stroke-linejoin:miter;stroke-opacity:1;fill-opacity:1"
       d="m 68.838912,163.90513 c 0,0 0.708705,-2.92931 4.15774,-4.34672 3.449031,-1.41741 5.24442,1.70089 5.38616,1.98437 0.141739,0.28348 4.630208,7.27604 5.716889,10.2526 1.086683,2.97657 0.755954,3.16555 0.755954,3.54353 0,0.37798 -7.465031,8.36272 -7.465031,8.36272 0,0 -1.464657,-18.70982 -2.929316,-19.46577 -1.464656,-0.75595 -3.590774,-0.61421 -4.630208,0.18899"
       id="path943"
       inkscape:connector-curvature="0" />
    <path
       style="fill:#00ecff;stroke:#000000;stroke-width:0.26458332px;stroke-linecap:butt;stroke-linejoin:miter;stroke-opacity:1;fill-opacity:1"
       d="m 84.099701,176.37835 c 0,0 -5.669643,-13.46541 -7.087053,-14.3631 -1.41741,-0.89769 -1.937128,-1.6064 -3.685267,-1.32292 -1.748142,0.28349 -4.299479,3.30729 -4.299479,3.30729 l 0.283482,0.18899 c 0,0 2.173362,-1.98437 2.69308,-2.17336 0.519716,-0.18899 1.937128,-0.8032 2.882067,-0.23623 0.944941,0.56696 3.023811,2.59858 3.212798,3.63802 0.188989,1.03943 4.157739,13.04017 4.157739,13.04017 z"
       id="path945"
       inkscape:connector-curvature="0" />
    <path
       style="fill:none;stroke:#000000;stroke-width:0.26458332px;stroke-linecap:butt;stroke-linejoin:miter;stroke-opacity:1"
       d="m 69.547617,164.3776 c 0,0 2.315105,-1.6064 2.69308,-1.6064 0.377979,0 2.031625,-0.51971 2.787576,0.28348 0.755952,0.80321 2.078869,2.83483 2.078869,3.44904 0,0.61421 2.55134,8.50446 2.929315,14.31585"
       id="path947"
       inkscape:connector-curvature="0" />
  </g>
  <g
     inkscape:groupmode="layer"
     id="layer2"
     inkscape:label="Layer 2"
     style="display:inline">
    <path
       style="fill:#00ffff;fill-opacity:1;stroke:#000000;stroke-width:0.26458332px;stroke-linecap:butt;stroke-linejoin:miter;stroke-opacity:1"
       d="m 53.436383,163.76339 c 0,0 -0.897693,1.6064 -1.228422,4.25223 0,0 -0.283482,2.50409 0.236236,4.016 0,0 0.519717,2.12612 3.496279,3.73252 0,0 1.039435,1.08668 5.527902,0.23623 0,0 3.827009,-1.08668 5.622396,-2.36235 l 1.606399,-0.89769"
       id="path874"
       inkscape:connector-curvature="0"
       sodipodi:nodetypes="ccccccc" />
    <path
       style="fill:#00ffff;fill-opacity:1;stroke:#000000;stroke-width:0.26458332px;stroke-linecap:butt;stroke-linejoin:miter;stroke-opacity:1"
       d="m 71.10677,166.7872 c 0,0 -0.850448,-2.36235 -2.362351,-2.97656 -1.511906,-0.61421 -1.952653,-0.6917 -2.929316,-0.51972 -1.776995,0.3129 -1.88988,1.18118 -4.913689,0.18894 0,0 -3.165551,-0.0944 -3.779762,-3.02376 l -3.732515,2.78758 1.039435,1.98437 15.166294,2.69308 z"
       id="path917"
       inkscape:connector-curvature="0"
       sodipodi:nodetypes="csscc" />
    <path
       style="fill:#00ffff;fill-opacity:1;stroke:none;stroke-width:0.26458332px;stroke-linecap:butt;stroke-linejoin:miter;stroke-opacity:1"
       d="m 57.027156,160.97582 -0.188987,-2.07887 -4.110492,4.11049 0.330729,0.61421 2.126117,-0.33073 -1.08668,0.33073 -0.566965,0.47247 c 0,0 0.614211,2.22061 0.708705,2.4096 0.09449,0.18898 8.362722,4.06324 9.354909,4.06324 0.992188,0 6.99256,-2.07887 6.99256,-2.07887 l 0.377978,-1.13393 -0.04725,-0.8032 -13.748883,-3.30729"
       id="path919"
       inkscape:connector-curvature="0" />
  </g>
  <g
     inkscape:groupmode="layer"
     id="layer3"
     inkscape:label="Layer 3"
     style="display:inline">
    <path
       style="fill:#00ffff;fill-opacity:1;stroke:#000000;stroke-width:0.26499999;stroke-linecap:round;stroke-linejoin:miter;stroke-miterlimit:4;stroke-dasharray:none;stroke-opacity:1"
       d="m 60.16529,175.35885 c 0,0 3.374688,10.2035 1.236531,15.41525 0,0 -0.461582,1.49291 -0.290197,2.36628 0,0 1.359275,0.70732 5.234683,0.17278 0,0 2.70234,-7.20841 -3.156053,-19.18412"
       id="path869-0"
       inkscape:connector-curvature="0"
       sodipodi:nodetypes="ccccc" />
  </g>
  <g
     inkscape:groupmode="layer"
     id="layer5"
     inkscape:label="EYES">
    <path
       style="fill:#00ffff;fill-opacity:1;stroke:#00ffff;stroke-width:0.08928572;stroke-opacity:1"
       d="m 254.61727,656.27009 c -0.87271,0.52621 -1.78535,1.02011 -2.58336,1.65004 0.23284,0.24319 0.73837,0.17656 1.05981,0.30635 1.1898,0.21145 2.37783,0.53863 3.57851,0.63638 0.17186,-0.26398 -0.22669,-0.6119 -0.26521,-0.89298 -0.34696,-0.69936 -0.59339,-1.51407 -1.04774,-2.11832 -0.24734,0.13951 -0.49468,0.27902 -0.74201,0.41853 z"
       id="path861"
       inkscape:connector-curvature="0"
       transform="scale(0.26458333)" />
    <path
       style="fill:#ffffff;fill-opacity:1;stroke:none;stroke-width:0.26458332px;stroke-linecap:butt;stroke-linejoin:miter;stroke-opacity:1"
       d="m 50.91458,159.40544 c -0.188987,-3.26004 -0.09449,-1.98437 -0.188987,-3.26004 0,0 0.566964,-1.65365 2.598586,-2.4096 0,0 1.417411,0.37798 1.795387,2.07887 0,0 0.188988,2.22061 -0.09449,2.78757 0,0 -1.79539,0.14174 -3.071059,0.75596 l -1.130823,0.27836 z"
       id="path949-9-8-0"
       inkscape:connector-curvature="0" />
    <ellipse
       style="fill:#c33cbb;fill-opacity:1;stroke:#010001;stroke-width:0.36500639;stroke-linecap:round;stroke-miterlimit:4;stroke-dasharray:none;stroke-opacity:1"
       id="path973"
       cx="52.624149"
       cy="156.09215"
       rx="2.5057616"
       ry="2.5725791" />
    <path
       style="fill:#00ffff;fill-opacity:1;stroke:#00ffff;stroke-width:0.26458332px;stroke-linecap:butt;stroke-linejoin:miter;stroke-opacity:1"
       d="m 52.444196,152.60146 -3.028991,0.12646 -0.183733,2.89713 0.377756,4.86637 7.028141,-0.1063 -0.366018,-2.5633 0.377757,-1.51154 -0.189138,-0.96841 -0.472321,-1.01596 -0.613915,-0.80306 -1.205095,-0.73277 z m 0.932243,0.97152 0.04082,0.0109 c 0,0 1.498573,0.41244 1.890842,2.17765 l 0.0021,0.008 v 0.01 c 0,0 0.04649,0.55839 0.05839,1.18959 0.006,0.3156 0.003,0.65042 -0.01964,0.94516 -0.02267,0.29473 -0.05729,0.54506 -0.146246,0.72295 l -0.03307,0.0661 -0.07648,0.006 c 0,0 -1.78395,0.14751 -3.023071,0.74414 l -0.01188,0.006 -1.394748,0.34417 0.176217,-0.44545 c -0.181901,-3.14366 -0.09399,-1.96325 -0.187587,-3.22668 l -0.0021,-0.0274 0.0098,-0.0253 c 0,0 0.594693,-1.71515 2.677871,-2.49029 z"
       id="path868"
       inkscape:connector-curvature="0"
       sodipodi:nodetypes="ccccccccccccccccccccccccccccccc" />
    <path
       style="color:#000000;font-style:normal;font-variant:normal;font-weight:normal;font-stretch:normal;font-size:medium;line-height:normal;font-family:sans-serif;font-variant-ligatures:normal;font-variant-position:normal;font-variant-caps:normal;font-variant-numeric:normal;font-variant-alternates:normal;font-feature-settings:normal;text-indent:0;text-align:start;text-decoration:none;text-decoration-line:none;text-decoration-style:solid;text-decoration-color:#000000;letter-spacing:normal;word-spacing:normal;text-transform:none;writing-mode:lr-tb;direction:ltr;text-orientation:mixed;dominant-baseline:auto;baseline-shift:baseline;text-anchor:start;white-space:normal;shape-padding:0;clip-rule:nonzero;display:inline;overflow:visible;visibility:visible;opacity:1;isolation:auto;mix-blend-mode:normal;color-interpolation:sRGB;color-interpolation-filters:linearRGB;solid-color:#000000;solid-opacity:1;vector-effect:none;fill:#000000;fill-opacity:1;fill-rule:nonzero;stroke:none;stroke-width:0.26458332px;stroke-linecap:butt;stroke-linejoin:miter;stroke-miterlimit:4;stroke-dasharray:none;stroke-dashoffset:0;stroke-opacity:1;color-rendering:auto;image-rendering:auto;shape-rendering:auto;text-rendering:auto;enable-background:accumulate"
       d="m 53.353386,153.51389 -0.03906,0.0156 c -2.08318,0.77514 -2.677734,2.49024 -2.677734,2.49024 l -0.0098,0.0254 0.002,0.0273 c 0.09359,1.26343 0.0056,0.0829 0.1875,3.22656 l -0.175781,0.44532 1.394531,-0.34375 0.01172,-0.006 c 1.239122,-0.59663 3.023437,-0.74414 3.023437,-0.74414 l 0.07617,-0.006 0.0332,-0.0664 c 0.08895,-0.17789 0.123813,-0.42792 0.146485,-0.72265 0.02267,-0.29474 0.02549,-0.62972 0.01953,-0.94532 -0.01191,-0.6312 -0.05859,-1.18945 -0.05859,-1.18945 v -0.01 l -0.002,-0.008 c -0.392258,-1.76521 -1.890614,-2.17773 -1.890614,-2.17773 z m 0.01562,0.29101 c 0.07662,0.0211 1.300577,0.36923 1.654297,1.95313 0.0012,0.0144 0.04704,0.5456 0.05859,1.1582 0.0059,0.31042 0.0021,0.63689 -0.01953,0.91797 -0.01993,0.25917 -0.06368,0.46209 -0.111328,0.57813 -0.109581,0.009 -1.749301,0.13254 -3.019532,0.74414 l 0.02539,-0.01 -0.880859,0.2168 0.0078,-0.0195 -0.002,-0.0293 c -0.186695,-3.22047 -0.09853,-2.02154 -0.187502,-3.22266 0.0082,-0.0238 0.554604,-1.54737 2.474609,-2.28711 z"
       id="path949-9-9"
       inkscape:connector-curvature="0" />
  </g>
</svg>
